<svg xmlns="http://www.w3.org/2000/svg" viewBox="0 0 176.78 114.32"><title>and</title><g id="Layer_2" data-name="Layer 2"><g id="assets"><path id="and" d="M114.64,89.38s-.07,0-.09,0c-1.32-.72-1.32-.72-2.33.52.14.54.59.53,1,.51.18,0,.37-.16.55-.17a.82.82,0,0,1,.5.17.54.54,0,0,1-.13.42c-.64.45-1.3.87-2,1.3a2.54,2.54,0,0,0-.51.3c-1,.95-2.15.88-3.34.89a1.41,1.41,0,0,1-.57-.14,8.94,8.94,0,0,0-3-.61,3.84,3.84,0,0,1-2.22-.93c-.09-.08-.22-.21-.22-.31,0-.83-.76-1.2-1.12-1.8-.15-.25-.52-.37-1-.67.09.74.16,1.29.24,1.94A7.18,7.18,0,0,1,99,86.83a5.07,5.07,0,0,0-.46-2.5,4.63,4.63,0,0,1-.26-1.14,17.49,17.49,0,0,1,.09-7.85,56.59,56.59,0,0,1,4-11.47,73.26,73.26,0,0,1,4.06-7.24,36.76,36.76,0,0,1,4.06-5.21c1.34-1.5,2.59-3.09,4-4.5,1.26-1.25,2.69-2.32,4.07-3.45a6.27,6.27,0,0,1,1-.51,2.33,2.33,0,0,0,.68-.37,15.46,15.46,0,0,1,3.46-2.44A13.81,13.81,0,0,0,125.71,39a1.37,1.37,0,0,1,.64-.23,7.42,7.42,0,0,0,3-1.19A4.71,4.71,0,0,1,131,37a13.17,13.17,0,0,1,8.49,1.08,6.5,6.5,0,0,1,1.26.93c.39.31.78.64,1.16,1l.2-.11-.05-.79c.71-.51,1.76-.55,2.24-1.38a11.8,11.8,0,0,0,1.43-3l-.7.33s-.07-.12-.05-.15l3-4.66c.6-.94,1.18-1.9,1.78-2.84,1.1-1.72,2.16-3.46,3.33-5.12.38-.54.17-1.24.59-1.62s1-.61,1.13-1.27c.05-.19.29-.34.43-.53.46-.63.91-1.28,1.37-1.92.34-.47.69-.93,1.06-1.39.71-.87,1.4-1.75,2.15-2.58.45-.5.82-1.14,1.57-1.3a.44.44,0,0,0,.22-.19c1-1.59,2.55-2.69,3.62-4.23a43.35,43.35,0,0,1,3.15-3.65L169.82,2c.05-.05.07-.15.12-.16.9-.21,1.43-1,2.19-1.42a.67.67,0,0,1,1.06.36L174.38,0c0,.55-.43,1,.16,1.56L176.31,1c.57.58.63.78.13,1.35a17.93,17.93,0,0,0-1.36,2.14c-.65,1-.83,2.17-1.56,3.12a27.23,27.23,0,0,0-1.89,3c-1.59,2.74-3.14,5.5-4.74,8.23q-3.36,5.72-6.77,11.4c-1.42,2.38-2.82,4.77-4.34,7.07a22.3,22.3,0,0,0-1.68,3.21,1,1,0,0,1-.25.42c-1.06.79-1.13,2.08-1.64,3.15a32,32,0,0,1-1.66,3.25,56,56,0,0,0-3.39,6.8c-1.06,2.35-2.1,4.7-3.08,7.08-.67,1.61-1.22,3.27-1.83,4.91-.35,1-.74,1.91-1.07,2.87-.16.48-.25,1-.38,1.56l.6,0c0,.06,0,.16,0,.17a1.82,1.82,0,0,0-.62,1.07c-.23.79-.61,1.53-.91,2.29-.88,2.28-1.8,4.54-2.6,6.84-.48,1.36-.77,2.79-1.15,4.19-.69,2.54-1.43,5-2.33,7.52a8.2,8.2,0,0,1-.61,1.35c-.46.76-.4,1-1.59.67l-.32.45c-.11.16-.22.33-.31.48-1.2-.2-1.43-1-1.39-2.08l-.64.14a.85.85,0,0,1-.11-.26,5.34,5.34,0,0,0,0-.69,1,1,0,0,0-.74-.94c-.82-.2-1.63-.41-2.53-.65,0,0,0,0,0-.13.27-1.42.54-2.84.82-4.26a5,5,0,0,1,.19-.76,1.38,1.38,0,0,0-.47-1.58,63.56,63.56,0,0,0-1.82,6.18l-.22,0a2,2,0,0,1-.08-.63c.31-1.64.63-3.28,1-4.92a3.2,3.2,0,0,1,.22-.66c.31-.79.42-.82,1.22-.4.17-.58.17-.58-.77-1.07a11.29,11.29,0,0,1,.35-1.67c.3-.85.24-1.85,1-2.55.07-.07.05-.24.07-.36a8.83,8.83,0,0,1,.17-1.45c.33-1.27.73-2.53,1.08-3.8a4.63,4.63,0,0,0,.12-.92l-.19-.08c-.16.23-.34.45-.48.69-1,1.7-2,3.4-3,5.12-.45.79-.78,1.66-1.25,2.43a4.68,4.68,0,0,1-1.16,1.19,1.52,1.52,0,0,0-.64,1,2,2,0,0,1-.5,1,5.77,5.77,0,0,0-1.26,1.87,4.29,4.29,0,0,1-1.6,2,2.07,2.07,0,0,0-.42-.37,2.12,2.12,0,0,0-.51-.13,1.78,1.78,0,0,0-.06.6c0,.13.18.25.35.46l-1.23,1.4c-.8-.17-.55-.86-.88-1.27a1.48,1.48,0,0,0-.85,1.25ZM117,58.9c-.25.3-.45.51-.62.75a4.76,4.76,0,0,0-.88,1.4,2.46,2.46,0,0,1-1,1.42c-.44.36-.7,1-1.46.77-.07,0-.18.06-.26.11l-1.07.85.19.81,1.12-.1c-.16.36-.25.58-.37.79a12.31,12.31,0,0,0-.66,1.1,69.69,69.69,0,0,0-3.22,8.5c-.39,1.32-.62,2.69-.93,4a1.49,1.49,0,0,1-.18.55,4.29,4.29,0,0,0-.6,3.66,1.33,1.33,0,0,0,.05.19c.21.41.45.81.62,1.23s.28.91.43,1.4c.38-.05.7-.11,1-.14a2.54,2.54,0,0,1,1,0,.91.91,0,0,0,1.12-.36,1.35,1.35,0,0,1,1.29-.54,1.07,1.07,0,0,0,.72-.23,14.68,14.68,0,0,0,1.07-1,33.18,33.18,0,0,0,5-5.94c2.31-3.53,4.58-7.1,6.83-10.67,1.68-2.68,3.3-5.4,5-8.1a65.48,65.48,0,0,0,4.29-7,1.13,1.13,0,0,1,.34-.48A3.75,3.75,0,0,0,137,50c.13-.3.3-.58.5-1,.33.62.57.26.72,0,.6-1.17,1.18-2.35,1.75-3.53a.66.66,0,0,0,0-.55c-.33-.39-.14-.72,0-1.09a.86.86,0,0,0-.62-1.22,3,3,0,0,0-.68-.07,9,9,0,0,0-4,.75,21.64,21.64,0,0,0-4.67,2.32c-1.27.87-2.51,1.79-3.73,2.72a1.39,1.39,0,0,1-1.35.4,2.86,2.86,0,0,1-1,1.92c-.51.5-1.15.89-1.62,1.42a11.12,11.12,0,0,1-2,2.26c-.55.38-.83,1.16-1.24,1.75-.23.31-.42.74-.74.88a3.38,3.38,0,0,1-1.29,0l-.9,1.46ZM127.53,79h.21c1.54-4,2.38-8.13,3.74-12.24a.88.88,0,0,0-.76.66,21.27,21.27,0,0,0-1,2.64c-.78,2.79-1.49,5.59-2.21,8.39A1.72,1.72,0,0,0,127.53,79ZM119.41,48.9c.51.23.3,1,1,.93a1.23,1.23,0,0,0,.25-1.42,1.44,1.44,0,0,0-1.54-.4,1.14,1.14,0,0,0-.44.22c-.38.38-.73.78-1.2,1.3C118.38,49.71,118.8,49,119.41,48.9Zm15.76,7.69c-1.06.92-1.35,2.19-2,3.33,1.37,0,1.63-.09,1.52-1a1.72,1.72,0,0,1,.52-1.5C135.36,57.19,135.54,57,135.17,56.59ZM108,65.43c-1.17.52-1.41,1.08-.94,2.16.38,0,.74,0,.8-.46S107.94,66.06,108,65.43ZM122,45.29c.66.8,1.09,1,1.45.68s.26-.6-.24-1.34Zm-4.37,7.41.23,0c.08-.45.68-.82.3-1.31s-.86-.42-1.45-.3Zm-6.73,7.45a2.39,2.39,0,0,0,1.24-2.29C111.75,58.54,111,59,110.94,60.15Zm-7.5,20.68a8.4,8.4,0,0,0,.31-3C103.55,78.8,102.85,79.74,103.44,80.83Zm11.69-26.69c-.23.26-.67.44-.52.9.06.17.4.31.62.32a.64.64,0,0,0,.51-.34C115.89,54.56,115.61,54.31,115.13,54.14Zm-9.82,18.91a6.33,6.33,0,0,0-1.09,3.76Zm4.93-8.62c.51-.19.51-.65.58-1,0-.13-.1-.39-.17-.4a.68.68,0,0,0-.51.16C109.78,63.58,109.91,64,110.24,64.43Zm-1.17-1.32.21.11c.76-.64.94-1,.7-1.73Zm8.63-7.61c-.31-.23-.46-.42-.64-.45s-.29.16-.43.26c.11.16.2.42.35.47S117.34,55.65,117.7,55.5Zm13.54-13.56-.1-.31-.92-.09c0,.46.12.72.45.72S131.05,42.05,131.24,41.94Zm10-1.74c-.4-.69-.81-1.1-1.54-1.07C140.05,39.58,140.29,40.2,141.22,40.2ZM103.94,91.35a1.81,1.81,0,0,0,2,.36A2.47,2.47,0,0,0,103.94,91.35ZM152.17,35.9c-.61.43-.61.43-.57,1.05A1.07,1.07,0,0,0,152.17,35.9Zm-24.29,5.86-.28.13a5.24,5.24,0,0,0-.3.51s.24.2.27.17a1.37,1.37,0,0,0,.4-.43C128,42.06,127.91,41.89,127.88,41.76Zm-14.27,13.1c.14-.13.28-.2.3-.29s-.1-.21-.16-.31a1,1,0,0,0-.33.24S113.52,54.69,113.61,54.86ZM106.34,85.1a1.43,1.43,0,0,0-.42-.16c-.07,0-.13.11-.19.18s.14.21.23.22S106.14,85.23,106.34,85.1Zm19-43.78.19,0,0-.53-.6.07Zm8.42,15.74-.06-.25-.46.17,0,.15Zm-7.38-11.29.2.15c0-.05.1-.12.08-.15s-.11-.12-.17-.18Zm3.69-2.08-.08.17.44.2.08-.17Zm-.68,1.07a.91.91,0,0,0-.17-.17s-.13.07-.12.08a1.13,1.13,0,0,0,.13.2ZM131,88.09l-.08.14s.1.06.14,0,.05-.08.08-.12Zm6-50.16.07-.26h-.73v.17ZM76.67,53.42c-.34.51-.61,1.11-1.41,1.08.41,1-.25,1.7-.64,2.42-.75,1.39-1.55,2.74-2.21,4.19-.82,1.82-1.8,3.58-2.71,5.37a1.68,1.68,0,0,0-.22.64,9.84,9.84,0,0,1-1.23,3.73,5.11,5.11,0,0,0-.37.91c-.2.69-.45,1.32-1.29,1.5,0,.71.33,1.38,0,2a4.25,4.25,0,0,1-1.07,1.48,6,6,0,0,0-1.25,2c-.2.39.15.56.91.39-.47,1.35-.91,2.66-1.38,3.95-.22.57-.45.59-1.37.16l-.21.93,1.2-.07a119,119,0,0,0-4.19,18.57l-.6.07c-.29,1.08-.56,2.09-.84,3.1a1.21,1.21,0,0,1-1.17,1l-.24-.65c-.13,0-.26.06-.29.11a3.81,3.81,0,0,0-.37.89c-.19,1-.35,1.2-1.62,1.33-.11-.52-.24-1-.32-1.59s-.07-.65-.75-1c-.57.6,0,1.56-.67,2.23-.3-.56-.63-1-1.31-.73-.08-.27-.19-.43-.17-.57.19-1.06-.43-2-.47-3a1,1,0,0,0-.18-.55,2.23,2.23,0,0,1-.22-2A13.83,13.83,0,0,0,50.2,100a10.23,10.23,0,0,1,.39-2.7c.53-1.22.2-2.65,1.09-3.75.13-.16.13-.43.21-.65l.91-2.49c.24-.65.46-1.31.72-2,.68-1.67,1.38-3.33,2.08-5,.36-.88.75-1.76,1.12-2.63a2.68,2.68,0,0,1,1.47-1.73c-.23-.92-.11-1.32.59-1.79a1.92,1.92,0,0,0,.95-1.92c0-.43.19-.65.44-.92s.52-.51.53-.78c.07-1.58,1-2.77,1.74-4,.33-.58.54-1.27,1.27-1.58.21-.09.31-.49.41-.76.26-.7.47-1.41.72-2.11a1.21,1.21,0,0,1,.35-.58c1-.65,1.46-1.77,2.12-2.7a9,9,0,0,0,1.16-2.22,4.09,4.09,0,0,0-.42.41c-.4.53-.77,1.07-1.16,1.61-.07.11-.13.28-.23.31-.93.23-1.11,1.14-1.63,1.74s-1,1.25-1.45,1.87-1.18,1.33-1.7,2.05c-1.47,2-2.92,4.07-4.36,6.12-1.17,1.66-2.32,3.33-3.47,5-.26.38-.49.78-.72,1.17-1,1.75-2.08,3.51-3.14,5.26-.36.58-.82,1.11-1.18,1.7a25.4,25.4,0,0,1-2.18,3.64c-.16.19-.15.51-.29.72-.24.38-.53.73-.8,1.09a2.94,2.94,0,0,0-.57.88,8.92,8.92,0,0,1-1.83,3.35l-1.07,1.54c-1.4,2.08-2.82,4.14-4.2,6.23a5.68,5.68,0,0,1-2.2,1.78c-.21.12-.53.22-.23.56-1.3.14-2.39-.55-3.58-.89-.15,0-.3-.2-.44-.19-1.51.11-2-1.31-3-2-.14-.09-.17-.33-.29-.57l1.22-.42c-.12-.24-.16-.51-.31-.6-1.27-.79-1.07-2-.91-3.18a3.82,3.82,0,0,0,.11-.57c0-.84,0-.84.85-.68a1,1,0,0,0,.29-.06l.09-.84-.21,0a2.64,2.64,0,0,0-1.81,1.54c-.5,1-1.24,1.84-1.75,2.84-.15.29-.51.48-.82.77.41.75,0,1.33-.45,2a52.7,52.7,0,0,1-5.77,6.88,39.1,39.1,0,0,1-3.08,2.52l-.53-.57c-.88.24-.88.24-1,1.12a2.64,2.64,0,0,1-.59.26,12.31,12.31,0,0,1-6-.13A18.61,18.61,0,0,1,6,113.32a5,5,0,0,1-.9-.56l0,0,1.3-.27-1.12-.65,1-.61a5.66,5.66,0,0,0-1.66-.52,6.57,6.57,0,0,1-1.65,0c.06.84.79,1,1.16,1.5v0a3.81,3.81,0,0,1-1.79-1.6,13.17,13.17,0,0,1-1.91-5.12,12.21,12.21,0,0,1-.1-5.38c.51-2.39,1-4.77,1.68-7.12a46.14,46.14,0,0,1,2-5.58C4.86,85,6,82.8,7.06,80.54a35.81,35.81,0,0,1,4.51-6.73A79,79,0,0,1,17,67.41a35,35,0,0,1,5.9-4.95,74.2,74.2,0,0,1,9.7-5.12A15.84,15.84,0,0,1,37,56.18c.52-.07,1-.16,1.57-.19,2.28-.12,4.32.74,6.37,1.57.06,0,.15,0,.18.08.79,1.21,2.08,2,2.85,3.19a.61.61,0,0,1-.12.94A4,4,0,0,1,47.1,61a2.22,2.22,0,0,0-1.78-1.1c-.74-.08-1.5-.09-2.44-.13l.51.45c-2.27-.54-4.32.22-6.38.94a17.57,17.57,0,0,0-3.61,2,62.25,62.25,0,0,0-7.31,5.42c-.77.66-1.54,1.32-2.3,2-.11.1-.14.29-.23.43-.25.41-.51.81-.87,1.38l0-.94c-.5.5-.88.85-1.23,1.22a1.38,1.38,0,0,1-1,.51,1,1,0,0,0-.91,1.42.76.76,0,0,1-.19.8c-.74,1-1.48,2.11-2.24,3.14a54.69,54.69,0,0,0-4.63,7.6A47,47,0,0,0,10,92.66a49.44,49.44,0,0,0-2.15,8.22c-.15,1-.2,2-.33,2.94a7.09,7.09,0,0,0,.33,3.59c.13.31,0,.72,0,1.07.08.68.28.87.9,1a8.33,8.33,0,0,0,5.29-.7,3.74,3.74,0,0,0,1-.75c1.57-1.52,3.09-3.07,4.67-4.57a25.24,25.24,0,0,0,3-4c.56-.8,1.07-1.66,1.61-2.48.77-1.18,1.56-2.34,2.31-3.53a.89.89,0,0,1,.95-.52c.77.06.91-.1,1.07-.83,0-.1,0-.24,0-.29.71-.68.58-1.54.58-2.39,0-.19,0-.48.14-.56.71-.45.57-1.25.84-1.87s.54-1,1.39-.58c-.6-1.32,0-2.28.52-3.32,1.05.2,1.38-.45,1.55-1.32a7.76,7.76,0,0,1,1.52-2.52c1.39-.46,1.53-1.94,2.33-2.89.62-.72,1-1.61,1.67-2.33a9.3,9.3,0,0,1,1.6-1.23l.18.13L40,76.33l.82-.36c0,.17,0,.3,0,.39-.68,1.65-1.41,3.27-2.06,4.93-.42,1.1-.74,2.25-1.09,3.38-.2.63-.37,1.26-.58,1.88-.58,1.78-1.23,3.54-1.75,5.34-.63,2.18-1.16,4.4-1.71,6.6a1.87,1.87,0,0,0,0,.78c.17.76.32.86,1.14.86l.2.82a3.53,3.53,0,0,0,.83-.43,16.83,16.83,0,0,0,2.11-2.2c1.13-1.59,1.29-1.76,3.32-2l-1.08-.6c.6-1.31,1.79-2.16,2.57-3.38H44l-.4-1c.19-.15.37-.28.54-.43s.5-.31.57-.53c.35-1.13,1.37-1.73,2-2.62.52-.72,1.05-1.43,1.56-2.16,1.39-2,2.79-4,4.14-6,1-1.48,1.88-3,2.86-4.51.8-1.21,1.67-2.37,2.49-3.56s1.71-2.51,2.57-3.76,1.55-2.21,2.32-3.31c.53-.76,1-1.53,1.61-2.25s1.14-1.11,1.57-1.76A27.74,27.74,0,0,1,67.67,58c.38-.44.68-1,1-1.41.24-.31.56-.56.79-.87a4.09,4.09,0,0,1,1.33-1.11,6,6,0,0,0,1.4-1.59c.26-.33.39-.79.7-1.06a6.83,6.83,0,0,1,2.42-1.79,1.47,1.47,0,0,0,.84-.63,1.36,1.36,0,0,1,1.49-.81c.38.4.21.77,0,1.12-.42.83-.86,1.64-1.28,2.46-.16.31-.28.64-.47,1.06l.7,0ZM9.52,84.53a5.13,5.13,0,0,0,1.77-1.93c.67-1,1.3-2.14,2-3.16,1.44-2,2.93-4,4.42-5.93A35.42,35.42,0,0,1,26.54,65c1.85-1.2,3.74-2.35,5.61-3.54.3-.19.7-.31.85-.86a3.18,3.18,0,0,0-.55.2c-1.64,1-3.26,2-4.9,3-1.16.69-2.1,1.79-3.53,2-.06,0-.11.07-.17.11A18.43,18.43,0,0,0,20.3,69c-1,1.22-2.11,2.36-3.1,3.6-1.29,1.62-2.55,3.27-3.74,5-.85,1.21-1.58,2.51-2.31,3.8-.59,1-1.08,2.11-1.61,3.17-.31.5-.79.93-.61,1.65C9.5,85.78,9.61,85.46,9.52,84.53ZM6.9,89.35c.62,1-.51,1.93-.23,3,1-1.6,1.92-4.31,1.7-5.13a8.52,8.52,0,0,1-.54,1.09A11.19,11.19,0,0,1,6.9,89.35ZM15.65,79c.49-.38.87-.69,1.27-1s.33-.41,0-.62a1.18,1.18,0,0,0-1.71.27C14.86,78.23,15,78.52,15.65,79Zm20.22,26.06a2.84,2.84,0,0,0,1.3-1.2.59.59,0,0,0-.3-.88c-.4-.14-.62.06-.7.44S36,104.42,35.87,105.07Zm-9.18-9.53a3.09,3.09,0,0,0,1.23-2.12A2.23,2.23,0,0,0,26.69,95.54Zm34.9-9.75A3.4,3.4,0,0,0,61,87.43a.52.52,0,0,0,.27.43.55.55,0,0,0,.49-.17,1.21,1.21,0,0,0,.16-.72A7.78,7.78,0,0,0,61.59,85.79Zm-.86,2.71a13.63,13.63,0,0,0-1,3.46A5.65,5.65,0,0,0,60.73,88.5Zm2.35-7c1,.09,1.32-.3,1.18-1.4ZM5.85,95.07l-.19,0c-.13.61-.56,1.16-.32,1.93l.51-.18ZM21,106c-.61.18-1.15.76-1.68,1.78A3.36,3.36,0,0,0,21,106ZM33.12,84.69c.72-.77.92-1.31.77-2C33.08,84.09,33.08,84.09,33.12,84.69Zm23.29,20.9a3,3,0,0,0,.34-2.32A3.14,3.14,0,0,0,56.41,105.59ZM14,111.26l.07-.34c-.21-.08-.43-.25-.62-.22s-.47.31-.35.79Zm-7.52-6.51a3.51,3.51,0,0,0,0-2.4ZM5,98.69c0,1,0,1,1,.81ZM3.58,99l-.22.23.38.77.26,0c.06-.21.24-.47.17-.62S3.79,99.07,3.58,99Zm11.8,12.57c.35-.6.35-.6-.22-1.1ZM59,94.93l-.36,1.49.24.06A1.71,1.71,0,0,0,59,94.93Zm9.56-28.18a1,1,0,0,0,.64-1.06L69,65.61Zm-32,18.39c.4-.36.66-.57.41-1C36.49,84.28,36.51,84.6,36.52,85.14ZM53.7,105.35l.24,0c.08-.3.1-.57-.44-.84Zm5.46-6.13c-.27.34-.62.5-.28,1C59.26,100,59.3,99.69,59.16,99.22ZM26,97.14c.49-.46.48-.46.42-1.07C26.19,96.43,25.86,96.66,26,97.14ZM37.29,83.8c.07-.18.18-.32.14-.37a1.27,1.27,0,0,0-.33-.26c-.06.09-.2.22-.18.27S37.11,83.64,37.29,83.8ZM59.42,98l-.24.15a1.09,1.09,0,0,0-.21.35c0,.06.21.23.25.2a.59.59,0,0,0,.3-.32C59.55,98.25,59.46,98.1,59.42,98ZM56.7,86.3a3.24,3.24,0,0,0-.39-.33,3.08,3.08,0,0,0-.33.3c.08.08.17.23.24.23A2.24,2.24,0,0,0,56.7,86.3ZM21.56,106.53l-.23-.15-.64.79.19.15Zm30.74-1.91a2.12,2.12,0,0,0-.41-.11,1,1,0,0,0-.26.08,1.09,1.09,0,0,0,.21.26S52,104.78,52.3,104.62Zm2.58-15.08a3.8,3.8,0,0,0,.35.22s.1-.1.09-.14-.07-.19-.13-.2S55,89.48,54.88,89.54ZM15.24,72.31c-.08.22-.15.33-.13.42a.31.31,0,0,0,.2.18c.09-.06.21-.16.21-.25S15.39,72.49,15.24,72.31ZM5.77,102.08l-.09-.2a1.39,1.39,0,0,0-.19.15s0,.1.07.16Zm54.16-23.3c-.14-.11-.22-.21-.28-.2a.27.27,0,0,0-.2.17s.08.21.11.2A1.41,1.41,0,0,0,59.93,78.78ZM34.77,90.93a2.33,2.33,0,0,0-.1.32s.13.08.14.08.11-.2.17-.29ZM55,90.9a1.21,1.21,0,0,0-.2-.14s-.12.1-.11.11a1.54,1.54,0,0,0,.17.19Zm7.78-18.13-.25-.09c0,.06-.07.15,0,.16a1,1,0,0,0,.22.13ZM24.41,103l-.16-.14-.32.38.14.12Zm72-30.19a20.8,20.8,0,0,0-1.73,3.93l.64.12-.29.94-.59-.33a9.8,9.8,0,0,0-.43.94c-.56,1.63-1.09,3.26-1.65,4.88-.15.42-.31.79,0,1.2a.5.5,0,0,1-.11.78,1.7,1.7,0,0,0-.76,1.21c-.3,1.11-.59,2.22-.88,3.33a4.72,4.72,0,0,1-.23.86c-.78,1.5-.91,3.19-1.42,4.76s-1.16,3.37-1.74,5a.92.92,0,0,1-.39.48L87,99.74c-.57.51-1.37.7-1.65,1.53-.2.61-.86.76-1.39.92-.84-.23-.34-1.33-1.18-1.68a4,4,0,0,0,0,.52c0,.6-.12.81-.68.77-.29,0-.58-.13-.87-.16-1-.13-1-.12-.89-1.19a1,1,0,0,0-.15-.73c-.59-.79-.41-1.74-.79-2.74l1.41.07s.1-.09.1-.14c-.14-.92-.28-1.85-.44-2.77a3.42,3.42,0,0,1,.36-2.68,4,4,0,0,0,1.1-2.16c0-.22.36-.42.6-.69-.49-.34-.81-.66-.6-1.31a1.79,1.79,0,0,1,1.76-1.25c-.07-.75.19-1.49-.29-2.2a.93.93,0,0,1,0-.73c.57-1.58,1.07-3.19,1.76-4.72q2.22-4.91,4.61-9.75c1.65-3.34,3.41-6.62,5.09-10,.91-1.79,1.72-3.63,2.64-5.41.57-1.12,1.27-2.17,1.86-3.27a4.93,4.93,0,0,0,.87-3.18,2,2,0,0,0-.11-.3,1.68,1.68,0,0,0-.68.13c-1.2.8-2.39,1.62-3.55,2.47-.82.61-1.54,1.37-2.4,1.9a18.77,18.77,0,0,0-3.62,3.5c-2,2.14-3.92,4.36-5.86,6.55-.5.57-.94,1.19-1.42,1.78a2.3,2.3,0,0,1-1.4,1c-.24,0-.48.32-.66.55-1.3,1.7-2.57,3.43-3.87,5.14-.57.76-1.21,1.47-1.78,2.24s-1,1.53-1.54,2.28c-.41.6-.43.59-1.22.63-.17.49-.37,1-.53,1.48A2.94,2.94,0,0,1,70.3,78a1.78,1.78,0,0,0-.55.68,8.23,8.23,0,0,1-1.55,2,3.19,3.19,0,0,0-1,1.84,6.8,6.8,0,0,1-1.11,2,14.26,14.26,0,0,1-.92,1.28,3.43,3.43,0,0,1-.63.51c-.4-.41-.12-.64,0-.87.65-1.08,1.32-2.14,2-3.21C67.77,80.14,69,78,70.34,75.91c1-1.67,2.16-3.31,3.28-4.93a4.37,4.37,0,0,1,1-.74,1.86,1.86,0,0,1,.17-.83c1.38-2,2.8-4,4.23-5.91,1.23-1.67,2.45-3.35,3.73-5,1.09-1.4,2.25-2.74,3.39-4.12l1.09.39c0-.1.1-.18.08-.22a1.29,1.29,0,0,1,.27-1.67,46.74,46.74,0,0,1,7-6.87c1.65-1.3,3.35-2.56,5.09-3.74a8.75,8.75,0,0,1,2.28-.9.9.9,0,0,1,.73.17c.7.57,1.37,1.19,2.06,1.8-.13.22-.19.33-.26.43-.43.65-.43,1.23.17,1.63.42.28.38.6.44,1,.23,1.55-.69,2.77-1.15,4.11A41.28,41.28,0,0,0,102.25,55a12.2,12.2,0,0,1-1,2.23c0,.09-.1.17-.14.26-.44.91-.4,1.09.49,1.79l-.45,1.33-.59-.3c.54,1.65-.47,2.87-1,4.19-.73,2-1.67,3.94-2.49,5.93-.31.75-.51,1.56-.76,2.34Zm.26-3.7a4.53,4.53,0,0,0-1.35,3A3.75,3.75,0,0,0,96.67,69.07ZM89.31,87.21a2,2,0,0,0,.66-2A3.52,3.52,0,0,0,89.31,87.21Zm8.26-19.94c-.66.41-.66.41-.55,1.23Zm6.61-19.94c-.54.67-.54.67-.28,1.29Zm-21.39,52c-.11-.05-.2-.12-.26-.1s-.14.11-.21.17a.87.87,0,0,0,.27.14S82.7,99.47,82.79,99.37Zm6.06-11.05c.54,0,.54-.29.34-.79ZM99,62.86l-.11-.13c-.06,0-.17,0-.18,0a1.65,1.65,0,0,0-.06.32ZM12.75,88.3a53.27,53.27,0,0,0-3.88,14.07A124.08,124.08,0,0,1,12.75,88.3ZM96.41,72.76c-.1.41-.18.83-.3,1.23-.17.55-.38,1.08-.57,1.62l.19.06L99.3,66.8A.31.31,0,0,0,99,67c-.7,1.67-1.39,3.35-2.11,5a5.11,5.11,0,0,1-.54.8ZM81.34,85.85c-.65,2.36-1.31,4.71-2,7.06l.19,0c.66-2.35,1.33-4.71,2-7.06Zm60.84-16.79a15.38,15.38,0,0,0,1.33-3.59A7.05,7.05,0,0,0,142.18,69.06ZM83.77,79.88l.87-2.23-.2-.08c-.28.74-.57,1.48-.85,2.23ZM58.49,106.11l.4-1.69-.22-.06L58.25,106ZM13.88,85.24l-.48,1.52a1.81,1.81,0,0,0,.74-1.44ZM76.66,53.42l1-1.94-.21-.09-.8,2S76.67,53.42,76.66,53.42Zm6.06,29.21.37-1.06-.15-.06-.41,1Zm43.53,10.55,0-.73h-.16v.73ZM62.57,89.72l.51-.72C62.72,89,62.4,89.11,62.57,89.72ZM5,112.78c-.17-.46-.6-.49-1-.6v0a1.29,1.29,0,0,0,1,.61ZM19.19,77l.46-.67-.11-.08-.48.67Zm82.28,13.9s-.09.06-.14.1.12.19.21.24.15-.06.31-.14C101.67,91,101.58,91,101.47,90.93ZM36.53,77s-.05,0-.07,0c-.08.18-.17.35-.25.53l.07,0,.33-.56S36.55,77,36.53,77ZM85,76.37l-.18.46.13,0,.15-.47ZM78.86,96.79v.48h0v-.48Zm35.78-7.41.44.29.07-.21-.54,0ZM17.6,79l-.19.32.13.07.18-.33Zm68.57-5.13c0,.1,0,.21,0,.31l.29-.49C86.26,73.85,86.19,73.87,86.17,73.91Zm-3.78,9.67a1.21,1.21,0,0,0,0-.14s-.07,0-.06,0,0,.09,0,.14S82.39,83.59,82.39,83.58ZM100,64.74l-.15.29.08,0,.15-.28Zm4.65-20.18a.34.34,0,0,0,0,.16s.11-.06.11-.09,0-.11,0-.16S104.66,44.52,104.66,44.56ZM85.73,75.22s0-.07-.08-.11-.06,0-.06.07a.86.86,0,0,0,0,.16A.5.5,0,0,0,85.73,75.22Zm22.86,9.08c.14-.09.29-.15.28-.2a4.38,4.38,0,0,0-.75-2.16A4,4,0,0,0,108.59,84.3Zm.33,1,.23.24.1-.08-.2-.27Z" style="fill:#f08a20"/></g></g></svg>