<svg xmlns="http://www.w3.org/2000/svg" xmlns:xlink="http://www.w3.org/1999/xlink" viewBox="0 0 446.86 190.79"><defs><clipPath id="clip-path-arrow" transform="translate(49.5 49.66)"><path d="M56.66,52.46C52.26,49.66,47.8,47,43.5,44c-3-2-5.8-4.3-8.6-6.58-3.08-2.51-6.06-5.15-9.06-7.75a4.26,4.26,0,0,1-.69-.88c-.12-.18-.13-.44-.27-.61-1.35-1.66-2.61-3.42-4.1-4.94s-3.26-2.8-4.87-4.23c-1.84-1.62-3.74-3.2-5.45-5-2.73-2.8-5.32-5.72-8-8.6C2,5,1.58,4.43,1.06,3.82l.74-.43L0,.3.46,0A15.23,15.23,0,0,0,1.79,1.65C3.16,3,4.62,4.17,6,5.46c1.73,1.63,3.4,3.31,5.13,4.94a5.81,5.81,0,0,0,1.37.93c1.14.54,2.24,1,2.52,2.5.09.47.9.8,1.47,1.27l.21-.92c1.41,1.05,2.76,2,4.07,3C23.08,19,25.3,21,27.69,22.7c1.52,1.1,3.32,1.82,4.9,2.86a48,48,0,0,1,5.33,4c.7.6,1.16,1.31,2.19,1.55s1.91.68,2,2c0,.22.7.43,1.1.58a8.37,8.37,0,0,1,1.44.47c.9.57,1.73,1.25,2.65,1.92L46,37.32c.94.34.94.34,1.92-1l6.72,4c-.8,1.06-.76,1.46.23,1.67a7.88,7.88,0,0,0,3.17,0c.35.32.65.8,1.07.94,1,.33,1.34.83.6,1.79l1.66.86.18-1.07.31-.19L63,45.82a25.84,25.84,0,0,1,2.74.71c1,.38,2,.9,2.91,1.3L69,50.35c1.18-1.31,2.18-1.55,2.82-.93l1.84,1.78a1.33,1.33,0,0,0,.26.21C75,52,76,52.54,77.11,53a8,8,0,0,0,1.78.21,4.18,4.18,0,0,1,.94.24c3.7,1.56,7.4,3.15,11.11,4.7,1.47.61,3,1.12,4.45,1.75a1.7,1.7,0,0,1,.79,1c.19.67.49.68,1,.5a2.13,2.13,0,0,1,1.29-.09c3.53,1.31,7,2.71,10.56,4,2.88,1.06,5.76,2.11,8.68,3,5.38,1.69,10.8,3.28,16.2,4.91,3.56,1.08,7.07,2.36,10.68,3.16,5.61,1.25,11.3,2.14,16.94,3.22,2.79.54,5.56,1.19,8.35,1.75a32.57,32.57,0,0,0,9.66.71c2.34-.24,4.74.34,7.12.51q4.14.3,8.28.53c3.17.17,6.35.35,9.53.43,2.45.06,4.91,0,7.37,0,.75,0,1.49-.1,2.24-.12,2.35-.06,4.69-.14,7-.13.74,0,1.85-.46,1.85,1.23,1.32-2.11,3.26-1.22,4.86-1.25,4.63-.08,9.25.16,13.88.13,2.1,0,4.19-.39,6.28-.6.08,0,.16,0,.23,0,2.14.58,4-.78,6.15-.79,1.61,0,3.2-.8,4.83-1.11,2.47-.47,5-.79,7.46-1.22,1.25-.22,2.47-.58,3.71-.82,4.28-.84,8.56-1.68,12.84-2.46,2.13-.38,4.28-.61,6.4-1,1.66-.29,3.29-.7,4.93-1,2.53-.52,5.06-1,7.59-1.52a14.35,14.35,0,0,1,1.91-.11c1.59-.81,3.24-1.84,5.28-1.39.37.08.66.49,1.06.81a8.35,8.35,0,0,1,3-.13c1,.31,1.76,1.28,2.88,2.15l-.59.25c-3.26,1.1-6.51,2.24-9.79,3.27a8,8,0,0,1-2.12,0,4.5,4.5,0,0,0-1.93.41l1.16.62c-2.16.75-4,1.43-5.92,2.06-1.16.39-2.34.74-3.53,1-7.39,1.81-14.79,3.58-22.19,5.39-3.22.78-6.4,1.69-9.64,2.41-4.07.9-8.18,1.68-12.27,2.48-5.8,1.13-11.69,1.14-17.56,1.43-4.88.23-9.76.52-14.63.83-3.71.23-7.42.73-11.13.75-6.32,0-12.63-.22-19-.31-2.7,0-5.41.06-8.11,0a59.42,59.42,0,0,1-6.66-.56c-3.34-.49-6.64-1.19-10-1.72-2.48-.4-5-.56-7.46-1-4.58-.89-9.11-2-13.67-2.9s-8.7-3-13.11-4.35a12,12,0,0,0-1.3-.37c-4.43-.81-8.52-2.59-12.63-4.33-1.88-.8-3.86-1.37-5.78-2.06-2.67-1-5.35-1.89-8-2.95-2.33-1-4.58-2.1-6.89-3.1-3.67-1.57-7.38-3.06-11-4.67a32.56,32.56,0,0,1-3.14-1.88,4.68,4.68,0,0,0-.92-.38,14.32,14.32,0,0,1-2.74-.85c-3.31-1.8-6.55-3.72-9.83-5.58-.28-.16-.62-.22-.92-.36-.68-.3-1.41-.58-.42-1.7-.61.23-.91.37-1.22.45a1.46,1.46,0,0,1-1.76-1.65,1,1,0,0,0-.21-.75c-.09-.09-.46.06-.69.14s-.22.24-.35.27c-.29.06-.75.18-.87,0a1.05,1.05,0,0,1-.12-.92c.29-.85-.14-1.4-1.1-1.31l-2-1.54Zm248.52,21-.45-.3c-.37,1.27-2.1-.28-2.32,1.23.7.29,1.3.58,1.93.8a.58.58,0,0,0,.54-.22A12.6,12.6,0,0,0,305.18,73.45Zm-241.46-19c0-1.12-1-1.74-2.46-1.64Zm285.84,4.24h-5.05c.49.65.85,1.07,1.15,1.52.1.15.12.5,0,.58A1.22,1.22,0,0,1,345,61a7.17,7.17,0,0,0-2.16.35l-.94-.73c.22-.16.47-.25.53-.42a2.94,2.94,0,0,0,.28-1.3c0-.21-.59-.47-.91-.47-1.16,0-2.31.14-3.46.15-2.69,0-5.37,0-8,.07-1.08,0-2.14.16-3.16.25,0-.26.07-.58,0-.62a3.42,3.42,0,0,0-1.16-.37c-3.4-.28-6.81-.45-10.2-.8-4.21-.42-8.42-1-12.62-1.51-1.2-.15-2.36-.59-3.56-.8-1.37-.23-2.76-.3-4.13-.54-4.84-.88-9.7-1.72-14.51-2.75a47.31,47.31,0,0,1-5.7-1.95c-.73-.26-1.22-1.14-2.2-.77-.14,0-.46-.41-.74-.69a2,2,0,0,1-2.59-.2c-.28-.24-.78-.2-1.17-.31-1.36-.35-2.73-.68-4.06-1.11a4.12,4.12,0,0,1-1.12-.83l1-1.07-2.85-1.79.08-.28a2.88,2.88,0,0,1,1.06,0A27.93,27.93,0,0,1,265.5,44a1.71,1.71,0,0,1,.55.91,1.21,1.21,0,0,0,1.5.86c.56-.09.85-.9.42-1.19a8.51,8.51,0,0,0-2.62-1.49c-2.35-.53-4-2.14-5.81-3.48a11.06,11.06,0,0,1-1.18-1.19l.28-.37c.82.31,1.62.67,2.46.9,1.24.34,2.5.59,3.76.87a4.05,4.05,0,0,1,.76.2c3,1.28,6.24,1.48,9.43,1.89,1,.14,2,.53,3,.76a10.28,10.28,0,0,0,1.37.09l.05-.38L271,40.48v-.24a17.15,17.15,0,0,1,1.76.13c3.59.66,7.18,1.37,10.77,2,4.3.76,8.59,1.5,12.91,2.14,3.82.56,7.67,1,11.51,1.45a8.32,8.32,0,0,1,1.55.5,4.45,4.45,0,0,1,1.24-.36c2.9.22,5.8.48,8.7.73,1.28.11,2.57.25,3.86.32,2.14.11,2.24,0,3.28,1.8.65,1.11,1.44,1.24,2.88,1-.57-.47-.93-.75-1.27-1s-.46-.45-.69-.67c.29-.18.59-.53.87-.52,1.76,0,3.51.17,5.26.24s3.77.15,5.66.14c1.06,0,2,0,2.35,1.54l.27-.41-.21-1a2.54,2.54,0,0,1,.6-.16c2.24,0,4.48.07,6.72.06s4.45.27,6.54-.18c3.88-.83,7.68-.41,11.51-.06.1,0,.18.11.32.44l-3.15.5-.16.25c.26.15.52.45.76.43,1.62-.12,3.24-.32,4.87-.49.23.67.44,1.29.66,2,.38-.14.73-.4,1-.34.53.12,1.26.31,1.45.69s-.12,1.09-.41,1.53a11.24,11.24,0,0,1-1.69,2.07,3.58,3.58,0,0,1-1.53.77,2.78,2.78,0,0,0-2.28,2.73,1.46,1.46,0,0,0-2,.82.63.63,0,0,1-.23.23c-.3.15-.62.28-.93.41l.87.85a10.36,10.36,0,0,1-1,1.37c-2.29,2.39-4.48,4.89-7,7-.85.74-1.21,1.8-2.15,2.38-1.7,1-2.78,2.7-4.22,4A48.66,48.66,0,0,0,346.42,80c-1.9,2.21-3.78,4.42-5.73,6.58-.82.9-1.84,1.63-2.71,2.5-.25.26-.19.81-.42,1.11-1.31,1.62-2.66,3.22-4,4.8-.37.43-.74,1-1.5.66a2.82,2.82,0,0,0-.46.82c-.13.47,0,1.08-.29,1.43-1,1.45-2.19,2.82-3.31,4.23l-1.06-.61c.88,2.11-.86,2.9-1.65,4.09a18.26,18.26,0,0,1-2.37,2.82c-.45.44-1.21.56-1.7,1a4,4,0,0,0-.75,1.33,10.46,10.46,0,0,1-.7,1.6c-.51.72-1.15,1.36-1.66,2.06-.79,1.18-1.56,2.38-2.38,3.54s-1.87,2.43-2.76,3.67c-.6.85-1.09,1.78-1.7,2.62a2.69,2.69,0,0,1-2.3,1.49c-.75,0-1.49.74-2.35,1.21a14.23,14.23,0,0,0-1.41-1.55c-.19-.16-.71-.07-1,.06a4.1,4.1,0,0,0-.88.72l-.09-.91c-1.79-.17-2.05-.53-2.18-2.25a10.11,10.11,0,0,1,1.55-5.84c.8-1.41,1.31-3,2.18-4.36,1-1.58,2.32-3,3.44-4.47.59-.79,1-1.72,1.61-2.49,2.77-3.56,5.59-7.08,8.37-10.63,1-1.29,1.9-2.66,2.92-3.93,1.19-1.48,2.42-2.93,3.72-4.31,2.7-2.86,5.47-5.67,8.21-8.5a125,125,0,0,1,12.13-11.34c.8-.64,1.79-1,2.63-1.61.46-.32.71-.93,1.16-1.27,1.86-1.41,3.77-2.75,5.63-4.15a7.21,7.21,0,0,0,1-1.35c-.91.13-1.41.22-1.92.28-.22,0-.56.09-.64,0-1-1.35-2.28-.53-3.45-.4Zm-77.3-12.15-.13-.42a4.8,4.8,0,0,0-1.56-.5c-.39,0-.8.46-1.13.78,0,.05.4.79.53.77A18.5,18.5,0,0,0,272.26,46.51Zm28.28,0,0-.3a4.46,4.46,0,0,0-1.18-.54,1.89,1.89,0,0,0-1,.35.56.56,0,0,0,0,.49,1.65,1.65,0,0,0,.85.3A8.07,8.07,0,0,0,300.54,46.54ZM346.3,58l.49-.47-.9-1.26c-.19.27-.6.67-.53.79A4.92,4.92,0,0,0,346.3,58Zm-9.4-9-.32.39c.36.47.44,1.29,1.81.88Zm12.27,2.18.49-.39-.94-1.08-.42.35ZM354,69.61l.23.31a3.72,3.72,0,0,0,1-.6c.13-.15,0-.52,0-.79l-.3-.06Zm-38.76,3c.32-.7.42-1.34.8-1.62s.89.13,1.13.18a10.69,10.69,0,0,0,1.74,0,1.88,1.88,0,0,0,1-.52c1-1,1-1.05,2.27-.47-.37-.91-.13-1.28.82-1.23s1.61-.8,2.54-.19c.08,0,.45-.32.69-.49l1.39,2s-.1.21-.24.26q-4.19,1.35-8.39,2.65c-.24.07-.67.12-.73,0C317.61,72.06,316.56,72.63,315.25,72.61Zm9.88-3.16-.32-.33-1.37,1.44C324.79,70.92,325,70.19,325.13,69.45ZM315.2,58l-.7.74,1.06.81-.13.39a82.46,82.46,0,0,1-16.08-2.42c.92-.21,1.84-.47,2.77-.6.23,0,1.07-.21.73.64a6.53,6.53,0,0,0,.85.2c1.41.15,2.82.33,4.23.39,1,.05,2-.12,3.05-.14C312.29,58,313.59,58,315.2,58Zm-1.55.92,0-.37L310,58.18l0,.45Zm-15.16-1.39a4.81,4.81,0,0,0-1.65-.88c-.94-.26-1.92-.4-2.87-.63-.53-.12-1-.33-1.56-.45a17.39,17.39,0,0,0-1.75-.33c-.32,0-.67.06-1,0-3.41-.76-6.81-1.54-10.21-2.31C285.41,56.17,292.09,56.24,298.49,57.54Zm21.76,10.65c-.11,0-.16.28-.41.74a72.63,72.63,0,0,0,16.71-6.11Q328.41,65.49,320.25,68.19Zm3.83-8.28-2.2-.74.07-.4h3.16l0-.09-4.76-.3.49.87h-3C318.5,60.36,323.59,60.74,324.08,59.91Zm5.36,8.51a8.11,8.11,0,0,1,1.3-.08c.34,0,.86.37,1,.25.49-.46,1.46-.67,1-2l-4.51,1.75c1,1.57,1.25,1.67,2.11,1l-.86-.45Zm-23.31-8.19c2.77-.12,5.43,1.13,8.24.63l0-.3-8.23-.72Zm12.49,1.1h7l0-.11-7-.39ZM294,58l0-.48c-1.52,0-2.94-1-4.85-.13Zm39.55,3.47V61.1c-1.53.42-3.11-.93-4.62.35Zm-16.93,8c-.2-.15-.46-.47-.59-.42a15.92,15.92,0,0,0-1.68.78l.78.75Zm33-10.83c-.23.19-.53.34-.66.58a.85.85,0,0,0,.2.62c.84-.07,1.68-.19,2.53-.3l-.07-.54a4.71,4.71,0,0,0-1.31.1c-.55.21-.77.16-.69-.46Zm-12,2.66h3.57A2.8,2.8,0,0,0,337.57,61.32ZM58.35,52.15l-2-1.54.35,1.85C57.26,52.56,58,53.33,58.35,52.15ZM174.31,81l-4.42-1.08,0,.17,4.43,1.15ZM334.59,59.23c1.59,1.17,1.88,1.17,2.26,0ZM311.33,70.4a1.36,1.36,0,0,0-.46.65c0,.08.22.39.3.37a1.48,1.48,0,0,0,.78-.32,6.89,6.89,0,0,0,.61-1.1A6.82,6.82,0,0,0,311.33,70.4Zm23.15-4.64-.93.86c.12.12.32.35.35.33.34-.23.66-.49,1-.75Zm-29.75,7.39c-.37,1.27-2.1-.28-2.32,1.23.7.29,1.3.58,1.93.8a.58.58,0,0,0,.54-.22,12.6,12.6,0,0,0,.3-1.51ZM61.26,52.78l2.46,1.64C63.67,53.3,62.75,52.68,61.26,52.78Zm210.87-6.69a4.8,4.8,0,0,0-1.56-.5c-.39,0-.8.46-1.13.78,0,.05.4.79.53.77a18.5,18.5,0,0,0,2.29-.63Zm28.39.15a4.46,4.46,0,0,0-1.18-.54,1.89,1.89,0,0,0-1,.35.56.56,0,0,0,0,.49,1.65,1.65,0,0,0,.85.3,8.07,8.07,0,0,0,1.34-.3Zm46.27,11.3-.9-1.26c-.19.27-.6.67-.53.79a4.92,4.92,0,0,0,.94.94Zm-10.21-8.19c.36.47.44,1.29,1.81.88L336.9,49Zm13.08,1.4-.94-1.08-.42.35.87,1.12Zm4.58,19.17a3.72,3.72,0,0,0,1-.6c.13-.15,0-.52,0-.79l-.3-.06L354,69.61Zm-29.43-.8-1.37,1.44c1.35.36,1.52-.37,1.69-1.11ZM313.69,58.56,310,58.18l0,.45,3.65.3Z" style="fill:none"/></clipPath></defs><title>arrow</title><g id="Layer_2" data-name="Layer 2"><g id="Arrow"><g style="clip-path:url(#clip-path-arrow)"><path class="animate" d="M-13.6-14.85S72,73.44,172.08,88.17C279.47,104,372.79,51.33,372.79,51.33" transform="translate(49.5 49.66)" style="fill:none;stroke:#f08a20;stroke-miterlimit:10;stroke-width:100px"/></g></g></g></svg>