<svg xmlns="http://www.w3.org/2000/svg" xmlns:xlink="http://www.w3.org/1999/xlink" viewBox="0 0 987.73 619.85"><defs><clipPath id="clip-path-brave" transform="translate(28.74 27.01)"><path id="brave_mask" d="M162.59,233.92a22.64,22.64,0,0,1-1.42,2.88,13.37,13.37,0,0,1-1.84,1.85c1.32,1.25-.54,2.72-.9,2.75-1.33.11-.94.89-1.06,1.57a39,39,0,0,1-1.46,6.87c-.5,1.32-2,2.22-3,3.41a5.84,5.84,0,0,0-1,2.19c-.51,2-.86,4-1.41,6-.06.25-.91.28-1.41.42-.26,2.24-3.14,6.94-4.42,7.26v-5.86c-2.3.45-2.3.45-2,2.1l-2.65.29c-2.53-.56-2.09-2.83-2.3-4.81-.07-.68.16-1.61-.21-2-1.61-1.82-1.16-4.06-1.58-6.13s-1.21-4-1.61-6c-.7-3.52-1.31-7.07-1.8-10.63-.3-2.15-.28-4.35-.43-7-3.7,2-.46,5.16-2,6.88-.57-1.71-1.14-3.41-1.69-5.11-.15-.48-.5-1.07-.35-1.44a5.34,5.34,0,0,0-1.24-6.24c-.56-.61-.4-1.94-.47-2.94-.21-3.32-.47-6.64-.52-10,0-4.08.21-8.18.07-12.26,0-1.39-1.38-2.87.88-3.63.23.26.64.52.64.8.06,2.13,0,4.27,0,6.4.21,4,.49,8.07.82,12.09a7.5,7.5,0,0,0,.82,2.09l.6-.21c-.22-2.88-.51-5.75-.63-8.63-.09-2,.1-4,.08-6a73.6,73.6,0,0,1-.14-8.52c.2-1.88-.43-3.84.57-5.73.32-.59-.6-1.75-.73-2.68-.3-2.1,1.2-4.17.13-6.32-.08-.15.25-.49.32-.76a19.47,19.47,0,0,0,.71-3.09c.21-2.59.33-5.18.43-7.78.06-1.54,0-3.09,0-4.63l-.88,0a100,100,0,0,0-1.16,10.84c0,3.61-1.22,7.21-.17,10.82,0,.2-.07.43-.09.65-.11,1.85-.12,3.72-.35,5.55s-.67,3.46-1,5.18c-1.77-4.62-1.54-9.5-1-14.18.34-2.73.1-5.54.87-8.24.21-.71-.16-1.6.15-2.33a24.08,24.08,0,0,0,.54-3.74c0-2.42-.49-4.86-.3-7.25.13-1.64,1.13-3.21,1.56-4.85.14-.54-.26-1.23-.41-1.85a3.52,3.52,0,0,1-.25-1.18c.7-3.88,1.44-7.74,2.19-11.61.6-3.1,1.74-6.19,1.74-9.29,0-5.45,1.72-10.52,2.61-15.77.29-1.75.42-3.52.64-5.39-2.88.46-2.51,3.35-3.69,5a45.72,45.72,0,0,0-2.82,5.54c-.61,1.17-1.34,2.28-2,3.43-1.57,2.74-3,5.56-4.72,8.23-3,4.74-6.21,9.35-9.18,14.1-2.39,3.83-4.5,7.82-6.82,11.68-1.51,2.53-3.22,4.94-4.74,7.46a28,28,0,0,0-1.51,3.37l1.34.56c-.06.27,0,.49-.14.53-2.62,1.4-3,4.41-4.65,6.5-.72.91-1.11,2.13-2.69,1.48-.18-.08-.72.36-.89.68-1.73,3.15-3.38,6.35-5.13,9.5-.62,1.11-1.49,2.09-2.16,3.19-.3.5-.27,1.2-.56,1.72-1.83,3.3-3.59,6.66-5.62,9.84a2.64,2.64,0,0,0-.29,2.95v-.06c-.29,0-.75-.16-.84,0-1.13,1.55-2.23,3.1-3.26,4.71A40.84,40.84,0,0,0,72.56,213c-2.67,5.35-5.21,10.77-8,16.08-1.73,3.34-3.86,6.48-5.59,9.82-3.91,7.55-7.65,15.18-11.55,22.73-.32.62-1.36.84-2,1.33a5.62,5.62,0,0,0-1.28,1.39c-.16.25,0,.71,0,1.06A6.66,6.66,0,0,1,43,270.76c-2,2.88-3.25,6.21-4.81,9.35-.77,1.56-1.43,3.19-2.34,4.67-.31.51-1.2.73-1.87.94-1.25.39-1.74.88-1,2.27a3.36,3.36,0,0,1,0,2.64c-1.9,3.73-4,7.38-6,11.05l-1.43,2.65-.45-.58a17.38,17.38,0,0,1-1.93,3.59c-3.48,3.91-7.08,7.72-10.71,11.5a10.36,10.36,0,0,1-2.28,1.39l-.37-.55,1.31-1.86-.29-.36-2.91,2A11.68,11.68,0,0,0,6,319a11.23,11.23,0,0,0-1.9.19l.27-2-.36.21-2.71-5.6-.81.46A29.09,29.09,0,0,1,0,308.45c.09-4.43.67-8.89.3-13.27-.23-2.72.85-5.1.8-7.56-.06-3.07.95-5.74,1.53-8.6,1.11-5.52,1.92-11.11,2.76-16.68.48-3.18.63-6.42,1.26-9.56.23-1.16-.32-3.45,2.38-3.11.37,0,.91-1.28,1.52-2.2l-2.21-.42c-.05-.87-.47-2-.12-2.89.8-2,.47-4.5,2.82-5.82.94-.53,1-1.47-.1-2.28a7.61,7.61,0,0,1-1.27-2h3l-1-3.56c.21-.13.87-.28,1-.66s0-1-.09-1.55l-1,.68,2.45-3.09c-2.58-.24-2.75-.64-1.52-2.8l1.42.77.89-3-2.38-.46a40.1,40.1,0,0,1,.4-4.32c.35-1.76,1.16-3.45,1.37-5.23a5,5,0,0,1,2.52-4.26c.18-.1,0-1-.16-1.44a13.84,13.84,0,0,0-1.21-1.8c1.09-.24,2.83.69,2-1.44,0-.09.9-.39.95-.67a5.15,5.15,0,0,0-.12-1.91c-.24-1.18-.89-2.35-.8-3.49a57.5,57.5,0,0,1,1.14-6.19c2.49.7,0,2.66,1.25,4.12A7.11,7.11,0,0,0,21,191.89a38.61,38.61,0,0,0,.49-4.81c0-.34-.58-.68-.65-1.06-.32-1.72-1-3.54-.71-5.16a38.31,38.31,0,0,1,2.26-6.39l.94,2.24c.8-2.21,1.57-4.33,2.33-6.46a5.39,5.39,0,0,0,.3-1.23c.15-1.59.16-1.43,1.79-1.7.51-.08,1.36-1.66,1.2-1.85-2.69-3.28,0-6.51,0-9.73,0-.26-.1-.52-.69-1.16l0,1.84c-1.71-1.32-2.25-2.09-1.08-3.17.2-.19.48-.55.41-.73-.87-2.48.64-4.46,1.28-6.64a12,12,0,0,0,0-3l2.55,1,.66-1.48c-2.5-1.39-2.59-2.14-1.67-4.74s1.34-5.11,2-7.66c.56-2.1,1.18-4.19,1.73-6.29,1.35-5.28,2.57-10.59,4.06-15.83,1.41-5,3.12-9.86,4.65-14.81.25-.82.08-1.77.36-2.58.61-1.76,1.48-3.44,2.05-5.22.78-2.46,1.38-5,2.06-7.46,5.33-.22,2.34-3.72,2.11-5.88l2-.13a7.41,7.41,0,0,1-.93-1.33c-.28-.62-.71-1.42-.51-1.93.3-.79,1.17-2,1.64-2,1.58.21,1.58-.74,1.87-1.73,1-3.5,2-7,3.27-10.45.24-.67,1.58-.94,2.41-1.39.46-.26,1.16-.42,1.31-.8a1.5,1.5,0,0,0-.45-1.41c-2.19-1.09-1.65-2.53-.78-4.17.46-.86.63-1.87,1.11-2.72a2.14,2.14,0,0,1,1.32-.93c1.76-.31,3.35-2.74,2.76-4.41-.16-.45-.44-.86-1-2,1.89.63,4.13.81,4.32,1.55.63,2.31,1.76,1.42,3,1a2.25,2.25,0,0,1,.85.06v0l-1.55,1,.27,4.43c.28.25-.12.4-.25.68a12.34,12.34,0,0,0-.8,2.28,1.87,1.87,0,0,0,.83.45,8.22,8.22,0,0,0,1.48-1.92c.68-1.42,1.2-2.91,1.77-4.33L75.64,44,75.58,44,73.1,45.86l2.41.68.25.52L73.31,48.3c-.58,2.46-1.35,5-1.73,7.68-.19,1.26.44,2.63.54,4s.63,2.76-.82,3.25a21.32,21.32,0,0,1-2.53-3.65,5.12,5.12,0,0,1,0-3.1c.56-2,1.4-3.95,2-5.93.08-.25-.25-.64-.44-1.1-3.64,1.6-4.57,4.76-5.25,8.11l2.29.78-2,2.16c.66,2.24-1.37,5.27,2,7.34l-.49.42A10.57,10.57,0,0,0,68.52,67a10.6,10.6,0,0,0-1-1.59c2.13.41,4.24,2.21,5.93-.25l-4.53,6.4c1,.69,1,1.8.91,3.41-.07,2.17-1.85,4.6.24,6.71a.21.21,0,0,1,0,.2c-1.94,2.43.67,6-2.08,8.35-.57.49,0,2.28,0,3.47A11.18,11.18,0,0,1,67.5,96c-.12.48-.58,1.11-.41,1.38,1.38,2.24-.11,4.45.14,6.57l-3,1.41,1.87.45a36.65,36.65,0,0,1-1.09,5c-.23.65-1.32,1-2.1,1.51,1.21,1.41,1.58,2.78.43,4.51-.54.79,1,2.17-.47,3.19-.55.37-.67,1.36-1.1,2.31,1.17,1.52,1.65,3.32-.4,5-.25.2-.3.65-.39,1-1.09,4.27-2.22,8.53-3.18,12.83a14,14,0,0,0,.11,3.58l-.64.34-1.94-1.94c-.76.85-.59,1.14.09,2.37a10.59,10.59,0,0,1,.63,3.23l1.17-.28c-1.69,5.68-3.31,11.08-4.89,16.39-.81-.12-1.63-.19-2.43-.37-1.68-.36-1.38.72-1.6,1.78a20.1,20.1,0,0,1-1.56,3.74c-.64-.14-1.3-.49-1.66-.3a1.6,1.6,0,0,0-.68,1.41c.22.51.92.81,1.6,1.34l-.6,3-1.84-2.26c-.47,1.76-1,3.27-1.24,4.82-.09.5.37,1.1.58,1.66l.58-.25.7-3.25,1.18,2.49c.36-.89.54-1.32.47-1.17,1.19-.16,1.92-.29,2.66-.36s1.23,0,1.85-.08c-.07.52-.13,1-.21,1.56a61.32,61.32,0,0,0-.87,6.7c-.69.4-2,.74-1.14,2.16.73,1.2.33,1.62-.73,2-1.25.47-1.52-.21-1.58-1.24,0-.19-.21-.36-.78-1.23l-1,3.54c2.79.7,2.8,1,.18,6.06l1.37-.41c1.06-2.25,2-4.13,2.84-6,1.34-3,2.63-6.09,3.92-9.14.13-.31.08-.72.26-1,.66-1.07,1.39-2.1,2.29-3.46,1.67.15,1.73.08,1.45-2.94l1.33.78-.12-2.27,1.91-2.75-.39-.33-1.89,1.28c-.43-2.4-1.3-4.6.46-7,1.37-1.84,2.61-3.92,2.55-6.42,0-.19.22-.55.29-.54,2.67.44,1.84-2,2.56-3.1.2-.31.67-.44,1.16-.74.86,3.82-2.44,6.27-2.7,9.72,1.11.07,2,.3,2.34-1.32.18-.86,1.23-1.53,1.89-2.28.19-.22.53-.38.6-.63.81-2.67,3.33-4.15,4.51-6.62a68.9,68.9,0,0,1,4.34-7.21,30,30,0,0,1,2-2.49c3.19-3.9,6.28-7.91,9.61-11.7,5.18-5.89,10.3-11.88,15.87-17.4,8.93-8.85,18.62-16.82,29.7-22.94,1-.57,1.71-.79,2.66.06.43.4,1.2.4,1.81.6a5.4,5.4,0,0,1,1.29.5,11.05,11.05,0,0,1,1.87,1.53,3.52,3.52,0,0,1,1,1.54q1.4,6.33,2.63,12.68c.22,1.15.15,2.36.38,3.51.08.42.64.75,1,1.12.3-.35.9-.76.85-1-.5-2.8-1.11-5.59-1.7-8.38-.26-1.26-.56-2.51-.85-3.76l.76-.19c.25.83.43,1.69.76,2.49,2.1,5,2.89,10.32,3.63,15.64a4.92,4.92,0,0,1,0,1.53c-.65,3.64,0,7.21.31,10.83.28,3.42-.27,6.9-.22,10.35,0,2.72.58,5.45.58,8.17s-.42,5.7-.6,8.55a17.31,17.31,0,0,0,.15,2.59c.2,2.22.72,4.42-.29,6.65a7.43,7.43,0,0,0-.24,2.93c0,2,0,4,.06,6.08,0,3,.1,6,.06,9,0,1.41-.4,2.82-.36,4.23.06,1.85.36,3.69.56,5.56-2.07.64-1.7,2.56-1.24,3.86.6,1.65,0,3-.07,4.5-.19,3.28,0,6.59,0,9.89,0,1-.13,2-.14,3.07,0,1.69,0,3.39,0,5.09l.73.29c1-1.5,1.88-3.06,3-4.47a5.68,5.68,0,0,0,1.08-5.53c-.18-.58,1-1.5,1-2.2-.22-2.21-.75-4.39-1.2-6.75,3,.18,2,1.91,2,3.39a46.23,46.23,0,0,0,4-9.23,12.53,12.53,0,0,0,1.42-1.4c1-1.44,2.06-2.91,1-4.8a.86.86,0,0,1,0-.65c1.07-2.46,2.66-4.76,2.24-7.66,2.62-2.17,2.2-5.84,3.81-8.2s.39-4.67,1.85-6.77,1.87-4.53,2.79-6.82c1.58-4,3.15-7.9,4.82-11.81.24-.57,1-.9,1.72-1.45.22-1.6.35-3.54,2.45-4.64.34-.17.52-1.43.49-1.44-1.74-.65-.56-2-.33-2.6.89-2.32,2.19-4.47,3.22-6.74,1.57-3.43,3-6.93,4.58-10.35.82-1.78,1.82-3.46,2.74-5.19,1.67.39,2.17-.1,1.56-1.76-.5-1.37-.19-1.88,1.09-1.71l1.25-3-.22-.09a20.26,20.26,0,0,1,.77-2.55c.74-1.64,1.5-3.27,2.4-4.83a37.67,37.67,0,0,1,2.47-3.38c-.24-2.09,4.92-12,7.5-13.51-1.06-2.36,1.1-3.68,1.95-5.43,1.49-3.06,3.24-6,5-8.92,1.16-2,2-4.25,4.4-5.25a1.18,1.18,0,0,0,.58-.83c.61-5.09,4-8.88,6.19-13.2a9.65,9.65,0,0,1,2.09-2.44c1-1,1.93-1.71,1.79-3.48a2.62,2.62,0,0,1,2.64-2.91c.35,0,1-1.29.93-1.36-1.13-1.08-.08-1.81.4-2.55,1.71-2.66,3.5-5.27,5.24-7.92,1.92-2.92,3.71-5.95,5.78-8.77,1-1.39,2.6-2.36,3.85-3.58.28-.28.26-.84.39-1.28s.13-1,.42-1.31c1.92-1.94,4.86-3.5,5.63-5.8.94-2.81,3.93-3,4.91-5.59.46-1.18,2.84-1.61,4.2-2.31,3.14,2.88-1.07,5.52.19,8.3,1-1.66,2.19-3.2,1.9-5.31-.05-.38.27-.8.41-1.2.43.23,1.07.36,1.26.72,1.24,2.37-.14,4.51-.71,6.72a18.5,18.5,0,0,0-.68,2.88c-.18,1.9-.22,3.81-.32,5.71,0,.07-.08.15-.06.21,1,2.63-1.19,3-2.54,3.73-.84-.2-1.87-.72-2.15-.45A3.57,3.57,0,0,0,260,23.6c0,.3,1.1.64,1.85,1-1,1.89-1,4.6-3.75,5.74-.32.13,0,1.75,0,3.18,2.14-1.54,3.54-2.37,3.73-4.92.15-2,2-3.85,3.18-5.74.07-.1.53,0,1.22.1a11.72,11.72,0,0,0-1.65,2c-.39.78-1,2.17-.65,2.48,2.09,2.05-.22,3.59-.46,5.32a14.16,14.16,0,0,1-1,3.24c-.91,2.16-1.32,4.67-3.21,5.49-.06,1.33.2,2.46-.2,3.27-1.64,3.3-3.57,6.46-5.22,9.76-1.35,2.71-2.44,5.54-3.65,8.32,0,.06-.05.15-.11.19-2.47,1.42-2.37,4.25-3.48,6.42-2.23,4.33-4.4,8.68-6.58,13a4.89,4.89,0,0,0-.24,1.1l.54.25c.64-1.24,1.28-2.49,1.91-3.74-.36,6.36-4.71,11-7.15,16.38s-6,10.6-9.3,16.24c-.2-.84-.32-1.36-.53-2.27-1.87,3.5-3.6,6.72-5.3,10-1,2-2,4-3.11,6,0,.06-.49-.11-.78-.19a2.25,2.25,0,0,1-1.54,3.34c-2.28.62-2.35.75-1.57,3l1.08-.56c-.05,2.76-2.22,6.39-3.91,6.33l.78,1.42-1.19-.2c-.06.29-.16.49-.11.57.78,1.12.33,2-.25,3.11-1.32,2.47-2.4,5.06-3.56,7.61-.12.25-.34.71-.26.78,2.24,2-.24,3.39-.37,5.36l-1.87-.87c-.5.85-1.06,1.69-1.5,2.58-2.07,4.11-4.18,8.21-6.12,12.38a35.54,35.54,0,0,0-3.1,8.08c-.43,2.32-1.28,1.73-2.76,1.08-.64,1.41-1.93,2.43-.48,4.4,1.14,1.55,0,3.08-1.95,3.91-.59.25-.82,1.35-1.19,2.08-.59,1.13.8,3.31-1.83,3.47a4.4,4.4,0,0,0-.22,2.42c.75,2.43-.77,6.29-2.85,7.57-.7.43-.8,1.75-1.37,2.52-.95,1.31-2,2.5-3.25,3.94l2.63,1-2.18.59a2.14,2.14,0,0,1,.13.88c-.68,2.38-1.4,4.75-2.14,7.11a14.81,14.81,0,0,1-1,2.58,1.79,1.79,0,0,1-1.11.85c-1.32.24-1.81,1.2-1.75,2.64a11.73,11.73,0,0,1-.57,4.16,38.89,38.89,0,0,1-2.72,6.24c-.34.63-1.52.87-2.37,1.12a18.64,18.64,0,0,1-2.64.42c-.11-1.59-.2-2.93-.28-4.27.37-.18.91-.26,1.07-.55a5.53,5.53,0,0,1,3.37-3,1.43,1.43,0,0,0,.48-2.62l2.67-3.07-2.16-.74,3.38-7.6.69,1.57,2.44-4.86-2.62.68-.2-.77,3.5-1c1.5-3.32,1.2-7.28,5.62-8.74l-1.67-1,.77-2.68-.64-.3c-.55,1-1.09,1.93-1.63,2.9-.29-1-.56-2.33-.08-2.71.77-.6,2-.6,2.93-.82-.28-1.56-.54-3-.74-4.14,1.43-.23,2.71,0,3.17-.58,1.22-1.4.8-4.13-.82-5.65.95-.66,1.86-1.22,2.69-1.89a2.68,2.68,0,0,0,.82-1.24c.34-1,.56-2.11.67-2.58l-.45-4.33c-1.34,2.33-2.76,4.48-3.85,6.79-.78,1.65-1,3.56-1.7,5.24-1.07,2.52-2.74,4.84-3.51,7.43a47.88,47.88,0,0,1-5.6,11.83c-.52.83-1.32,2-1.09,2.7.78,2.45-.91,4.09-1.63,6a8.43,8.43,0,0,1-1.69,2.18c-.28,1.2-.5,3.25-.78,3.26-1.84.05-1,1.66-1.54,2.38-.34.43.1,1.4-.07,2.06C163.82,230,163.18,232,162.59,233.92ZM21.32,300c2-.66,4.25-4.44,4.39-7.75-.75,1.13-1.41,2-1.92,2.92-.87,1.58-1.65,3.22-2.47,4.84L17.62,307C19.68,305.06,21.52,303.05,21.32,300Zm37.6-77.19c-.29.11-.74.13-.85.34-.9,1.71-1.75,3.45-2.72,5.4l1.41.68c-.64.22-1.56.24-1.88.68a29.57,29.57,0,0,0-2.75,4.58,44.78,44.78,0,0,0-1.64,4.55l.68.29c1.66-3.47,4.67-6.15,5.54-10.07a2.6,2.6,0,0,0,.34-.69c.34-2,2.94-3.12,1.91-5.53l3.35-3.29a27.55,27.55,0,0,1,1.07-4.18,32,32,0,0,1,2.21-3.79l-.54-.38a14.27,14.27,0,0,0-1.49,1.82c-.94,1.66-1.39,3.93-2.78,4.93C58.9,219.51,59.63,221.34,58.92,222.82ZM74,201.14l0,0c-.48-.89-1.58-2.1-1.32-2.61A33.64,33.64,0,0,1,76.15,194c1.3.7,1.84-.67,1.46-1-1.78-1.7.56-2.61.55-3.92a5.48,5.48,0,0,1,.54-1.63,8.19,8.19,0,0,0-3.58,6c-1.8,1.08-3.53,2.11-3.62,4.67A3.9,3.9,0,0,1,70,201c-2.78,1.46-1.11,4.5-2.59,6.31l3.54-1.53.33,2.67.72-.11L71.73,207c1.38,0,2.91-1.86,2.78-3.38A23.49,23.49,0,0,0,74,201.14Zm56.38-93.29c1.49-2.47,4-3.2,5.43-5.37,1.16-1.75,1.05-3,1.36-4.16-1.16,1.11-2.73,1.81-3.64,3-1.84,2.42-3.25,5.15-4.94,7.68-3.14,4.7-6.39,9.33-9.5,14-1.12,1.69-2,3.56-3,5.34l.67.41c1.84-2.88,3.63-5.78,5.53-8.62,1-1.54,2.25-3,3.57-4.68-.52-.73-.15-1.52,1.06-2.53a51.08,51.08,0,0,0,4.74-5.14Zm56.28,67c3.55-2.4,3.64-6.35,5.45-9.4l1.44,2.43.67-.4c-.22-1,1.11-2.53-1.24-2.72-.15,0-.36-.61-.36-.93,0-1.25,3.27-5.88,4.41-6.29-.09-3-.59-3.44-3-2.54.25.76-1.61,6.78-2.23,7.19-.12.08-.31.07-.4.16a7.32,7.32,0,0,0-1.12,1.25,22.15,22.15,0,0,0-1,2.16l.86.58C189.05,169.1,188,171.78,186.7,174.89Zm21.42-47c4-2,2.88-7.11,6-8.51l1.65-2.32c-.33-.7-.85-1.82-1.6-3.45-1.17,2.71-2.16,5-3.11,7.23S209.17,125.38,208.12,127.93Zm34.09-63.84,2.08-.6-2.15-2.55c-.33,1.05-.51,1.77-.78,2.44-.37.93-.59,2.37-1.27,2.65-2.36,1-2.55,3-2.8,4.82l-2.68.94.17.62c1.32.17,2.77,1.66,3.86-.49.72-1.4,1.37-2.84,2-4.27C241.18,66.5,241.67,65.32,242.21,64.09ZM48,242.33c-.93,1.94-1.85,3.87-2.79,5.8-.5,1-1,2.06-1.52,3.11s-.86,2-1.29,3.06l1,.58a10,10,0,0,0,1.25-1.61c1.25-2.55,2-5.48,3.78-7.59C49.57,244.26,49.38,243.66,48,242.33ZM128.2,101.48l.49.73c1.73,0,2.88-1,4.08-2.5,1.06-1.29,2.68-2.12,4.26-3.32l-2.19-1.64ZM234.05,86.59c1.13-1.67.95-2.73-.41-3.36a4.63,4.63,0,0,1-1-.88l1.5-.45c.43-.13,1.07-.12,1.25-.41a1.58,1.58,0,0,0-.13-1.31,8.42,8.42,0,0,0-1.16-1.37C230.17,80.29,229.5,83.71,234.05,86.59ZM42.18,254.93l-4,10.14.44.36,2.19-1.05,1,1.27.58-.55-1.95-2c.38-1,.5-2.67,1.37-3.4C43.64,258.23,43.05,256.73,42.18,254.93Zm21-181c.37,2.13-1.32,3.71-.36,6,.62,1.52-.51,3.76-.86,5.68l.42.1,3.1-10.94ZM141,182.38c2.29-1.81,2.53-7.4.92-10.09ZM41,183.72c-1.31,1.87.63,1.4,1.2,1.64l-.54,3.25,2.51-3.6-2.64-5.65c-.26,1.17-.65,1.87-.44,2.26s1,.84,1.67,1.32L42,184.89Zm101.21-.42c-1.81,2.6-.67,4.9-1.19,7.61C142.92,188.75,143,188.18,142.16,183.3Zm5.49,77.14.56.17c1.37-2,2.66-3.95,2.53-6.38l-1.92,1.23C148.37,257.36,148,258.9,147.65,260.44ZM130.82,153c-3,2-.38,4.63-.89,7l.89,0ZM147.64,254.5l.72.09,2.56-7.77-1-.28ZM158,223.9l1,.64,3.19-6.66C159,219.18,159.27,222,158,223.9Zm-26.89,1.76c-.28-1.58-.55-3.07-.87-4.9C128,224.21,128.15,225.35,131.11,225.66ZM32.46,278.09l1,.34,2.43-7.38-.78-.27C34.21,273.22,33.33,275.65,32.46,278.09Zm4.39-102,1.37.48c.2-.7.78-1.76.54-2a8.3,8.3,0,0,0-2.55-1.21v3.91Zm1.9-59.86c-1.93,1.61-3.16,5.84-2.24,8C37.27,121.47,38,118.87,38.75,116.23Zm66.19,29.17-.82-.44-3.91,6.86.46.28C102.1,149.87,103.52,147.63,104.94,145.4Zm26.82-3.06.61.07.9-8-.77-.08C132.25,137,132,139.66,131.76,142.34Zm35.34,61.28c.69-1.66,1.39-3.31,2.09-5C166.48,199.5,166.41,201.42,167.1,203.62ZM34.68,131.18c-2.58,4.75-2.58,4.75-1.39,5.71Zm173.73-1.82-.47-.34c-1,1.49-2,3-3.19,4.8C208.05,133.51,207.12,130.64,208.41,129.36ZM55.4,72.18c.19-1.48.32-2.54.45-3.59-.41.08-1,0-1.2.27C53.66,69.8,53.45,70.81,55.4,72.18Zm77.84,56.73.78.13,1.12-6.38-.73-.12ZM242.51,59.42l3.5.39-.59-3.43Zm-40.44,84.45c-1.57-1-2.48-1-2.81.41-.1.44.32,1,.5,1.52ZM221,102.72c-1,1.06-1.51,1.6-2,2.19a1.15,1.15,0,0,0-.26.91,1.4,1.4,0,0,0,.72.61,8,8,0,0,0,1.77-1.77C221.43,104.33,221.11,103.66,221,102.72Zm-21.69,47.33-1-.55-1.61,2.35c.5.15,1.32.55,1.44.4A12.54,12.54,0,0,0,199.27,150.05Zm6.83-14.15.08-.62a6,6,0,0,0-2.46.36c-.34.22-.06,1.39-.06,2.41Zm35.3,40.3q1.74-4,3.46-8.1l-.48-.22c-.68,1.27-1.37,2.54-2.06,3.81l-.39-.17a47.75,47.75,0,0,1,1.84-5.84c2.81-6.1,5.66-12.19,8.75-18.15,1.58-3.05,3.72-5.81,5.56-8.73,2-3.14,3.84-6.36,5.88-9.46,2.77-4.22,5.69-8.35,8.51-12.54,1.3-1.94,2.41-4,3.77-5.91.7-1,1.94-1.56,2.61-2.54a43.68,43.68,0,0,1,9.22-9.54c3.07-2.45,5.79-5.35,8.69-8a9.41,9.41,0,0,1,1.59-1.14c2.13-1.25,4.23-2.57,6.43-3.67a16.77,16.77,0,0,1,3.49-.94,5.18,5.18,0,0,0,1.48-.31c3.72-2.23,7.75-1.75,11.7-1.21,2.12.28,3.5,1.92,4.2,4l-3.08-2-.45.61c.78,2.39,3.41,2.86,5.2,4.29-.4-.84-.8-1.69-1.21-2.53.45.18,1.1.24,1.32.58a51.41,51.41,0,0,1,4.63,7.65c.67,1.58.17,3.65.21,5.5a2.29,2.29,0,0,0,.5,1.54c.2-.68.4-1.36.59-2l.63.1a50.65,50.65,0,0,1-1.11,5.64c-1.29,4.1-2.72,8.17-4.19,12.21a20.53,20.53,0,0,1-1.69,2.77c-1.94,3.4-3.69,6.91-5.83,10.18a37.82,37.82,0,0,1-5.09,5.88c-2.66,2.65-5.5,5.12-8.24,7.69a102.29,102.29,0,0,1-7.53,7.07c-4.19,3.2-8.66,6-13,9-3.33,2.3-6.53,4.83-10,6.87-4.24,2.48-8.53,5.09-13.14,6.6-3.3,1.08-3.85,3.12-4.42,5.73-.07.32-.39.59-.54.91-1.5,3.34-3.31,6.58-4.4,10.05-1.94,6.17-2.08,12.61-1.5,19a6.2,6.2,0,0,0,2.54,3.84,58.41,58.41,0,0,0,9.09,5.27c1.75.79,3.9.78,5.89.92.73,0,1.49-.53,2.27-.75,2.25-.64,4.51-1.23,6.77-1.87,1.07-.3,2.2-1.12,3.16-.94,2.71.5,4.19-1.27,5.89-2.86l-2.08.59,2.72-2.45c0-.55-.24-1.32,0-1.63,3.55-3.86,7.16-7.66,10.76-11.48l.46.4-5.6,7c.91.07,1.82.45,2.26.14a19,19,0,0,0,7.26-8.27c.24-.57,1.08-.88,1.42-1.14-.28,1.46-.24,3-.91,4.23a16.74,16.74,0,0,1-3.49,4.17c-5.28,4.79-10.77,9.32-17.12,12.64a77.92,77.92,0,0,1-7.26,3.33c-.72.29-1.69,0-2.6.25l1,.33-5.5,2.87c5.37.49,9.7-2.07,14.18-4.19,1.88-.89,3.85-1.58,5.77-2.37.45-.19,1.17-.37,1.26-.68.7-2.69,3.4-2.92,5.09-4.36,2.25-1.92,4.2-4.18,6.3-6.27a21.77,21.77,0,0,0,2.2-1.94c2-2.67,3.93-5.44,6-8.11,1-1.3,2.15-2.47,3.21-3.72,1.64-1.94,3.5-2,5.79-.51-2.89,3.85-6.05,7.53-8.55,11.61-1.35,2.21-3.85,3.67-4.18,6.62-.1.84-1.53,1.47-2.22,2.3a31.73,31.73,0,0,1-8.62,6.79c-2.23,1.33-4.25,3-6.51,4.31a32.08,32.08,0,0,1-4.82,1.74,17.18,17.18,0,0,0-2.06.91c-1.76.91-3.5,1.86-5.26,2.77-.37.19-.9.2-1.16.48-2.34,2.48-5.09,1.7-7.88,1.17-1-.19-2.05.21-3.05.09a26.57,26.57,0,0,1-4-.83c-6-1.65-10.53-5.88-15.88-8.65a4.62,4.62,0,0,1-1.49-1.83c-1.33-2.34-2.6-4.72-4-7.2l1.23.36c-.89-4.94-1.76-9.72-2.61-14.5a18.14,18.14,0,0,1-.2-2,57.25,57.25,0,0,1,2.74-21.43Zm78.67-63.53,3.29-5.74-.51-.32L319.3,111c.09.22.34.88.6,1.55l-2.71,1.11.64,2.24.88,0C319.16,114.82,319.62,113.75,320.07,112.67Zm-46.68,37.39c2.1-.74,3.34-2.76,5.53-2.7l.31.59-1.89,1.35.3.66,2.94-1.48c.6.61,1.28,1.52,1.46,1.44,1.3-.65,3.07-.91,3.28-3.29l-3.26,1.44.77-1.09c-.57-.64-1.05-1.19-1.52-1.74l1.95-1.67c.35.82.52,1.54.67,1.53a19.3,19.3,0,0,0,2.7-.49l-2.4-1.72c3.47-2.74,7-5.4,10.38-8.24q5.72-4.83,11.18-9.94a67.19,67.19,0,0,0,7.16-7.55,73.64,73.64,0,0,0,5.61-8.86c2.09-3.67,4-7.46,5.87-11a21.43,21.43,0,0,1-1.52-2c-.66-1.19-1.53-1.09-2.46-.47-5.22,3.46-10.64,6.67-15.57,10.51-2.94,2.29-5.2,5.5-7.6,8.43-2.12,2.6-4,5.35-6,8.1q-4,5.74-7.85,11.6c-2.23,3.36-4.42,6.76-6.52,10.2C275.66,145.68,274.56,147.9,273.39,150.06Zm-3.58,12.42c-.19,0,.3.15.61,0,.84-.47,1.58-1.13,2.4-1.63,3.56-2.12,7.14-4.22,10.59-6.25L283,156.2c.47-.06.58,0,.6-.09a6.28,6.28,0,0,0,.45-.69c1.06-2,1.84-4.46,4.59-4.73a4.21,4.21,0,0,0,3.72-3c.41-1,1-1.55,2.21-1.05.25.11,1.06-.37,1.09-.63a9.15,9.15,0,0,0-.19-2.55,2.21,2.21,0,0,0-1.32.08c-2.27,1.43-4.5,2.91-6.72,4.41-5.84,3.95-11.55,8.14-17.58,11.77-2.07,1.24-2.63,2.84-3.76,5.11ZM320.1,87.73c-3.27-1.88-15,3.4-17.31,7.79Zm-42.2,28.72c-3.09,2.31-10.65,14.36-10.47,16.29C271,127.26,274.42,121.85,277.9,116.45Zm14.93-21-1.71,3.82C293.56,99,293.56,99,292.83,95.5ZM76.07,28.24c.29-1.3,1.22-2.5,1.34-3.79.26-2.92.08-5.87.31-8.79.08-1.05.08-1.45-1.06-1.38s-2.14,0-3.28,0c-.57,2.41-4,3.74-2.06,6.83-.43.05-.52.09-.57.06-1.69-1-2.47.23-3.2,1.34s-.67,2,.86,2.37a7.29,7.29,0,0,1-.48,1.57c-1.94-.17-2.39.92-2.26,2.57l1.92.77c-.48,1.85-.92,3.56-1.33,5.11l4.4,1.15-.52,2.6c1.11-1.17,1.76-2.37,2.28-2.32,3.33.32,1.36-2,1.94-3l-2.5-.51C73,30.78,75.56,30.49,76.07,28.24ZM236.32,184.39c1.17-4,2.24-8,3.56-12a57.7,57.7,0,0,1,2.53-5.19c1.8-4.06,3.58-8.13,5.29-12.23a23.26,23.26,0,0,0,.82-3.44,26.26,26.26,0,0,0,1.26-2.39,65,65,0,0,1,3-7.13c2.7-4.71,5.72-9.24,8.54-13.88,1-1.7,1.89-3.51,2.82-5.26a12.87,12.87,0,0,0-2.73,3.32c-1.41,2.27-2.75,4.58-4.15,6.86-2.35,3.81-4.86,7.53-7,11.45a89.3,89.3,0,0,0-4.05,9.1c-2.53,6.06-5.11,12.11-7.41,18.25-1.14,3-1.65,6.28-2.55,9.4-1.21,4.21-2.68,8.38-.31,12.86q1.23-6,2.47-11.92a2.21,2.21,0,0,0-.94,1c-.23.44-.41.91-.61,1.37ZM71.62,39.13l2.92.52c.39,1.54.74,3,1.1,4.38L75.58,44c.5-.68.87-1.74,1.52-2a13.48,13.48,0,0,1,3.45-.24c.09,0,.16-.2.23-.31a9.2,9.2,0,0,1-.92-3.54c-.07-.62,0-1.25,0-1.87,0-.79-.38-1.82,0-2.32,1.35-1.87.57-3.87,0-5.47-.45-1.35-.08-1.66.67-2.41a5,5,0,0,0,1.44-2.39,16.28,16.28,0,0,0-.06-3.88,15.18,15.18,0,0,0-.52-2.17c-.76,2.53-.88,4.74-2,6.18-1.49,1.91-1.43,4-1.87,6.07-.3,1.41.34,3.4-.42,4.26-1.66,1.86-2.24,5-5.44,5.26ZM69.87,233.54c0-.58-.27-1.27,0-1.72,1.11-2.26,2.84-4.2,3-6.94,0-.69,1.25-1.31,1.93-2l-.09.06c.49-1.56,1-3.12,1.54-4.88,1.32-.35,3.38-4.24,2.91-6.55-.46,1-.74,1.8-1.14,2.51-2.76,5-5.62,9.86-8.3,14.85-1.76,3.27-3.12,6.74-4.92,10s-4,6.25-5.87,9.41a10.94,10.94,0,0,0-.76,2.39l-.07-.06,1.42-2.2.61.62-1,2.82c3.15-2.26,3.88-4.32,2-5.39l1.61-1.3c-.06-.45-.26-.88-.13-1.1.89-1.45,1.81-2.89,2.79-4.28,1.51-2.13,3.07-4.21,4.61-6.32ZM227.79,116.6l-.52-.13v-2.59l-3.78,7.71c1.57.76,1.16,1.72.45,2.91-.8,1.35-1.39,2.83-2.08,4.25l1,.47c1.07-2.42,2-4.91,3.24-7.24s2.88-4.61,4.25-7,2.54-4.77,3.91-7.09c2.1-3.56,3-5.83,2.54-7.93l-2.87,4.85ZM118.85,142.76A213.93,213.93,0,0,0,104.48,170a9.84,9.84,0,0,0,1.59-1.71l3.23-4,0,0a17.89,17.89,0,0,1,.75-3.46c.54-1.29,1.44-2.44,2.11-3.69,1.15-2.14,2.83-4,3.37-6.52.28-1.38,1.87-2.48,2.88-3.7l-.08.09c.18-1.4.36-2.81.55-4.22Zm0,0,4-2.39L121.57,143l.3.16,3.73-4.83-.49-.38-1.84,1.54c2.26-4.91,4.35-9.49,6.44-14.06l-.5-.23c-1.11,2.19-2.2,4.4-3.32,6.59-2,3.9-3.84,7.88-7,11Zm-29,49.69-9.39,17.83.33.19c.58-.89,1.17-1.77,1.75-2.65l.66.62.06,1.05a1.4,1.4,0,0,0,.58-1.31,3.27,3.27,0,0,1,1.2-3.95c.8-.67,1.13-1.92,1.67-2.92a8,8,0,0,1,1.21-2.17c2.09-1.85,2.46-4.11,1.93-6.68ZM94,185.62l2.65-2.34L96,186.5A9.1,9.1,0,0,0,99,176.91a30.92,30.92,0,0,0-2.43,3.42c-.92,1.72-1.64,3.55-2.44,5.34ZM74.75,222.91a20.94,20.94,0,0,1-1.1,4.17c-1.1,2.23-2.51,4.31-3.78,6.46l0-.08c-.33,1.07-.65,2.14-1,3.21l.51.25,9.27-17.83-.59-.33c-.44.57-.87,1.14-1.33,1.69-.7.85-1.42,1.68-2.14,2.52ZM160,246.28c-.43-.16-1.39,0-1.54.34-.76,1.55-1.34,3.19-2,4.8l.54.2.76-2.38c.76.67,1.44,1.29,1.8,1.6,2.6-1.46,4.56-3.06,4-6.53C162.63,247.23,162.55,247.23,160,246.28ZM253.54,135.5l-11.09,21.13.72.37,11-21.17ZM78.92,204.38c.07,0,.16,0,.2.08a.26.26,0,0,1,0,.21c-.69,1.37-1.4,2.75-2.1,4.12l.69.31c2.15-3.85,4.72-7.48,6.34-11.61l-.57-.32-4.58,7.28A.25.25,0,0,1,78.92,204.38Zm134.5-57.32-5.82,12,.77.35c1.93-4.06,4.61-7.78,5.8-12.17ZM252,67.27l-2.9,7.55c.72.79,1.34,1.08,1.91-.33.43-1.06,1.11-2,1.47-3.1a33.56,33.56,0,0,0,.79-3.74ZM203,171c-3.51,1.43-3,5.52-5.46,7.54l1.5,1.31ZM44.81,279.33q2.77-6.29,5.56-12.55l-.74-.33L44.11,279ZM231,115.81a2.78,2.78,0,0,1-.14.83c-1.25,2.49-2.57,4.94-3.75,7.47a10.33,10.33,0,0,0-.48,2.59,16.84,16.84,0,0,0,2.52-4c1.07-2.19,2.72-4.23,1.85-6.93Zm6.5,56.21c1.92-4.81,3.85-9.62,5.93-14.84-3.85,4.47-4.12,10-6.5,14.6ZM58.12,250.67c-2.18,1.77-5.35,7.84-5.09,10.3,1.19-2.26,2.25-4.17,3.2-6.12.68-1.38,1.22-2.83,1.82-4.24Zm36-65c-.58.46-1.37.81-1.71,1.41-1,1.74-1.72,3.58-2.56,5.38h0c2,.52,2.23-1.6,3.48-2.2l-.07.08a24,24,0,0,1,.16-2.4,21.26,21.26,0,0,1,.66-2.33ZM243.56,93.89c2.75-1.13,5.15-6.35,4.27-7.91ZM109.3,164.23c-.11.85-.22,1.71-.36,2.73.21,0,.9.22,1,.11,1.08-2.23,2.09-4.5,3.12-6.76l-.54-.25-3.2,4.21Zm-1.93-6.78L101.74,166l.56.4,5.88-8.38ZM270.89,113.1a21,21,0,0,0-3.31,2.81,19.5,19.5,0,0,0-1.87,3.74l.66.36,4.92-6.56ZM233,193.79c.59-4.83,1.21-9.82,1.86-15.1C233,183.83,232.82,188.87,233,193.79Zm.8,5.19c.39-.72.79-1.43,1.16-2.1l.63,1.81.53-.06c.08-1.29.15-2.58.22-3.86l-.42-.22-1.43,1.56-1-1v3.76ZM65.59,140.53c.3-2,.66-3.87.81-5.77,0-.29-.86-.66-1.33-1-.25.91-.92,2.47-.68,2.63,1.9,1.26.62,2.25-.12,3.36ZM132.7,246.27,131,239c1.48,1.41-1.75,5,1,7.39ZM255,67.24c-.85-1.93,2.67-3,.66-5.3C252.73,65.83,252.71,66,255,67.24ZM48.59,175.72c-.09-1.72-.18-3.34-.29-5.38-.91,2.11-1.62,3.78-2.59,6Zm104.87,7.52c1.66-4.45,1.46-5.64-1-6.45Zm-1.3,8.2c-.15,2.29-.31,4.58-.46,6.87l.85.06.81-6.81ZM231,115.8l1,1,4.15-7.79-.52-.36c-.8,1.31-1.58,2.64-2.41,3.93-.71,1.11-1.49,2.17-2.24,3.26Zm50.11-16.2-4.35,5.5.68.55,4.52-5.24ZM101.74,175.37l-1,2.47a15.13,15.13,0,0,0,3.45-3.36c.31-.43-.08-1.34-.15-2ZM37.79,288.55l-2.95,6.82.78.32q1.5-3.46,3-6.94Zm80.37-139,.59.16q1.09-2.23,2.21-4.47l-.36-.25-2.3,2,.08-.09ZM241.4,176.2v-2.6h-.34l-2.62,6.2.63.31c.79-1.32,1.59-2.64,2.38-4Zm-14.19-62.26c2.37-1.2,3.16-3.32,3.35-5.78Q228.88,111,227.21,113.94Zm-124,56.61c-1.23,1.37-2.28,2.52-3.61,4l2.18.83,2.29-2.93Zm-13,16.7,2.79-5.43-.78-.38c-.87,1.84-1.73,3.69-2.6,5.53Zm63.5,76.92c.85-1.44,1.51-3,.61-4.68-.71,1.87-1.36,3.59-2.16,5.68C152.67,264.82,153.38,264.62,153.65,264.17ZM112.66,149c.85-2.24,3.34-3.5,3.62-6.34-1,1.09-1.81,1.93-2.49,2.89s-1.18,2.05-1.77,3.09Zm128-55.67c-.94,1.67-1.82,3.25-2.92,5.23C239.85,97.56,241.35,94.71,240.66,93.34ZM258,58.65c1.54-.92,2-2.39,1.77-4.71l-2.42,4.36ZM216.1,140.4l-.64,4,.72.1c.38-1.31.75-2.63,1.12-4ZM309,193.72c-2.21,1.72-2.23,2,0,3.3ZM93.28,190.28c-.07,1.06-.15,2.12-.22,3.17l.7.07c.4-1.06.81-2.12,1.3-3.42l-1.84.25Zm69.35,51.91,1.75-3.51,1.16,1-2.23-.55ZM247.8,81.52A8,8,0,0,0,248,79.1l-.59,0c-.48.86-1,1.72-1.75,3.18C246.73,81.9,247.65,81.87,247.8,81.52Zm18.91,40.91-3.4,4.85.48.32,3.42-4.89Zm-11.46-66.2-2,3.79.89.39c.56-1.32,1.13-2.63,1.7-3.94ZM153.66,159.3a21.63,21.63,0,0,0-.22,2.89c0,.28.64.54,1,.81.2-.33.62-.69.57-1a25.81,25.81,0,0,0-.81-2.82Zm158.59,28.6-2.1,3.7.68.38L313,188.3ZM74.07,201.17l-2.49-.72.25,3.42.79.12L74,201.14S74.08,201.17,74.07,201.17Zm450.37-79.09c1.13-.74,1.9-.87,1.86.92-.08,3.18-.33,3.51-3.41,3.81-2.06.21-2.13.32-1.42,2.54l-1.59-.63a3,3,0,0,0,0,.69c.12.47.51,1.27.39,1.34-2.24,1.51,0,2,.37,3l3.13-4a24.65,24.65,0,0,1-.88,4.83c-.25.63-1.5.86-2.35,1.3,1.68,2,.8,4.27-.18,6.42a36.25,36.25,0,0,0-2.76,7.25c-1,4.38-2.37,8.67-3.26,13.06s-1.23,8.79-2.05,13.15c-.7,3.7-1.74,7.33-2.63,11-.13.49-.44,1-.34,1.48.74,3.61-1.41,5.57-3.95,7.48-.68.51-.88,1.68-1.53,3.05l-4.2,2.18c.19-2.5.21-5,.62-7.36.39-2.25-1.09-4.6.53-6.36l-2-.65c-.67,2.9-1.4,6-2.24,9.63l-1.65-2.06-.4,1.41-2.38,1.54c-.78-2.45-1.25-5-2.37-7.25-2.43-4.88-.13-9.76-.29-14.62-.14-4.61.93-9.28,1.67-13.89a46.93,46.93,0,0,1,1.78-5.9c.11-.37.14-.77.3-1.76-2.64,3.3-4.86,6.14-7.16,8.92a43.38,43.38,0,0,1-3.89,4.13c-.55.51-1.76.4-2.18,1-1.18,1.58-2.08,3.37-3.16,5-.72,1.1-1.54,2.14-2.36,3.16-1.22,1.52-2.49,3-3.74,4.49s-2.55,3.12-3.9,4.61c-.23.25-.85.16-1.64.27a9.42,9.42,0,0,1-4.9,4.52c-1.88.84-3.33,2.61-5.07,3.81-4.18,2.86-8.63,4.89-13.89,4.9-2.32,0-3.73-.58-3.8-2.39a12.61,12.61,0,0,0-2.34-1.47c-2.14-.67-4.31-1.2-6.47-1.8-.65-.18-1.47-.22-1.89-.64-2.64-2.69-5.27-5.39-7.75-8.22a17.87,17.87,0,0,1-4.76-13.15c.35-7.58-.19-15.21.37-22.76.32-4.32,1.9-8.58,3.23-12.77,1-3.19,2.63-6.17,3.75-9.33s1.9-6.27,2.88-9.39a18.37,18.37,0,0,1,1.08-2.4c3.28-6.78,6.39-13.63,9.89-20.28a121,121,0,0,1,7.3-11.49c3-4.45,6.15-8.83,9.33-13.17A15.08,15.08,0,0,1,454.85,67l.41.52-3.91,5.6c-.44.22-1.05.34-1.29.7-3,4.44-6,8.92-9,13.4-.11.17,0,.47,0,1A10,10,0,0,0,442.41,87c2.44-3.46,4.9-6.91,7.25-10.43A25.2,25.2,0,0,0,451.31,73c1.45-1.36,3-2.66,4.34-4.11a37.8,37.8,0,0,0,2.88-3.67c.6-.83,1.1-1.73,1.74-2.74-1.81-1.41-1-2.44.3-4a118.77,118.77,0,0,1,16.78-15.94c1.44-1.09,2.71-2.39,4.06-3.6v0c-1.9,2-3.74,4.08-5.7,6-2.44,2.42-5,4.74-7.49,7.11l-5.56,4.75.73.74,5-5.37c2.38-1.91,4.75-3.85,7.16-5.74,4.65-3.63,9.27-7.31,14-10.82,2.39-1.76,5-3.2,7.57-4.74a2.62,2.62,0,0,1,2-.25l-7.39,5,.28.47,1.6-.66c0,.24.07.44,0,.48-5.24,3.76-10.56,7.4-15.68,11.3a40.47,40.47,0,0,0-5.35,5.51c-3.75,4.2-7.49,8.42-11.13,12.73-2.56,3-5.49,5.93-7.27,9.39-1.95,3.78-5.51,6.54-6.56,10.84-.21.88-1.17,1.56-1.64,2.4-1.07,1.9-2.06,3.84-3.08,5.76l.63.37c.58-.7,1.2-1.38,1.73-2.12,4.42-6.17,9-12.26,13.19-18.58a128.89,128.89,0,0,1,15.76-19c4.55-4.6,9.85-8.44,14.61-12.84,4.27-4,9.4-6.5,14.26-9.5.62-.38.82-1.42,1.43-1.83a16.44,16.44,0,0,1,4.12-2.22c2-.63,4.35-.53,6.27-1.37,3.1-1.36,6.22-.86,9.36-.82a17.26,17.26,0,0,1,3.6.24c4.52,1,8.14,3.6,11.34,6.84,2.65,2.69,5.51,5.2,7.92,8.09A8.48,8.48,0,0,1,549,47.7a21.73,21.73,0,0,0-1.52-3.79,17.3,17.3,0,0,0-2.91-3.38c-.43-.42-1.66-.77-1.81-.59-.62.78-1.39,1.82-1.3,2.68a4.39,4.39,0,0,0,2.06,2.64l-.83-2.14,2.2-.35,1.16,2.73c.08.18.31.47.26.52-1.73,2-.06,3.79.11,5.69s-.52,3.67-.27,5.44c.44,3.16-.52,6-1.51,8.81-.23.67.09,1.51,0,2.24a8.83,8.83,0,0,1-.74,2.3c-1.28,2.65-2.61,5.27-3.91,7.91-.41.82-3.74,2-4,1.41-.43-1-.72-2.64-.18-3.33,2.26-2.93,2.55-6.39,3.28-9.76s1.49-6.62,2.25-10l1,1a6.47,6.47,0,0,0,.5-1.76c0-.41-.41-1.14-.69-1.17-1.68-.18-1.44-1.2-1.22-2.44l1.81.93c0-.4,0-.57,0-.68C541.21,50,540.17,46.77,538,45a28.29,28.29,0,0,0-9.68-4.69c-3.68-1.11-7.49.25-10.22,2.59-2,1.76-4.6,2.38-6.53,4.17s-3.87,3.7-6.18,4.6c-3.38,1.31-4.3,4.73-7,6.68a124.8,124.8,0,0,0-12.81,11.2,75.39,75.39,0,0,0-7.48,8.75c-2.68,3.56-5.18,7.27-7.59,11-2.76,4.32-5.38,8.73-8,13.15-3.64,6.15-7.29,12.3-10.79,18.54a103,103,0,0,0-5,10.23,32.18,32.18,0,0,0-1.32,5.78c1,.19,1,.19,2.23-3.21,1.35,3.62-3.2,6.21-1.32,9.64l-4.22,9.77-.4-.12-.21-1.14c-1.88.46-.14,4.71-3.69,3.3,1.37,3.64.19,7.17.29,10.68.05,2.23.87,4.45,1.38,6.68.27,1.17.6,2.32,1,3.68l4.66-1.61-.3,1.13,2.56-.93-.44,1.76-6.9,1.72c1.16,1.47,3.38,1.15,5.69-.31a7.28,7.28,0,0,0,2-.71,27.65,27.65,0,0,0,2.14-2.06c3.31-3,6.65-5.92,10-8.87l-.06,0,1.87-1.34.45.53L450.48,176l.32.47a70.16,70.16,0,0,0,6-4.47c3.59-3.3,7.11-6.7,10.45-10.24,2.75-2.92,5.14-6.18,7.82-9.17s5.5-5.49,8-8.44c2.94-3.45,5.6-7.12,8.38-10.7.18-.23.34-.58.57-.65A3.64,3.64,0,0,0,494.6,130c.24-.83,1.45-1.38,2.24-2,.27-.23.85-.44.84-.61-.32-3.35,3.35-4.6,3.91-7.49.06-.31.86-.49,1.32-.73l1-.49c-1-1.84.95-2.31,1.7-3a71.22,71.22,0,0,1,6-4.81c.64-1.61.76-3.14,1.52-3.58a3.88,3.88,0,0,0,2.15-4l2.4.26c-.27,3.84,2.83,8.08-1.64,11.69l2.92.87c-2.14,3.24-4.1,6.17-6,9.14-.22.34-.12.87-.19,1.31-.32,2-.56,4-1,5.94a18.69,18.69,0,0,1-1.22,3.27c-.49,1.16-.51,3-2.67,2.1-.19-.08-.84.38-.86.62-.08,1-.4,2.31.09,3,2.11,2.76,2.14,2.93-.27,5.17-.55.51-.66,1.5-1.1,2.6l-1.68.5,2.3,1.69c-.77,3.49-1.56,7.06-2.4,10.82h2.25l-.85-.65c.38-.74.75-1.39,1-2.07a48.72,48.72,0,0,0,2.07-5.24c.6-2.08.91-4.23,1.34-6.36,0-.13-.09-.32,0-.43,1-2.13,2-4.24,3-6.39a7.28,7.28,0,0,0,.36-1.88,4.92,4.92,0,0,1,.07-.78c.51-1.58.71-3.4,1.66-4.64,1.08-1.41,1.33-2.93,1.91-4.46.9-2.39,2.39-4.56,3.38-6.92.51-1.21.24-2.74.74-4a18.71,18.71,0,0,1,2.35-3.41l1.77.63c-.14,2.24-.28,4.42-.43,6.59l-1.74-.66c1.26,2.2,1,3.34-1.91,2.94l2.74,2.3C523.93,124.8,524.19,123.44,524.44,122.08Zm-23.5,54.29-2.64,4.52c3.3.06,1.71,2.49,2.31,4.29a7.2,7.2,0,0,0,.69-1.45c.33-1.91.48-3.86.92-5.74.56-2.45,1.57-4.83,1.93-7.3a7.85,7.85,0,0,0-1-4.17c-.22-.47-1.52-.43-2.75-.73,2,2.72,1.29,7.37-1.06,8.59Zm-55.67-38.06c-.54.3-.9.36-1,.56-.78,1.6-1.51,3.22-2.25,4.83-.95,2.1-1.95,4.18-2.82,6.32a15.89,15.89,0,0,0-.6,2.87l.61.08A112.41,112.41,0,0,0,445.27,138.31Zm-21.83-12.13-.59.07a7.66,7.66,0,0,0,.55,2.64c.16.26,1.46-.16,2.6-.32ZM441.88,92l.69.41,3.14-5.65-.57-.33ZM649.81,50.81c-.13.25-.18.63-.38.73-4,1.88-7.09,4.81-10.1,7.91a1.87,1.87,0,0,1-1.66.43l3.68-3.42-.33-.6a7.53,7.53,0,0,0-2.37.89c-3.32,2.88-6.57,5.83-9.8,8.81-1.22,1.13-2.25,2.48-3.48,3.6-2.09,1.89-4.23,3.72-6.44,5.47-.68.54-1.82.55-2.43,1.14-1.76,1.72-3.41,3.56-5,5.44-2.63,3.12-5.12,6.36-7.78,9.45a15.24,15.24,0,0,1-2.87,2.08c.55,1.21,0,2.81-1.75,3.79-1.08.61-1.88,1.14-.83,2.49.24.3.06,1.1-.15,1.57-1.75,4-3.25,8.06-5.44,11.77-1.07,1.8-.72,4.1-2.44,5.55-.4.34-.5,1-1,1.34.23,2.56-1.1,4.57-3.82,6.2l1.55.12c-1.14,3.68-2.15,7.39-3.45,11s-2.88,7.21-4.4,10.78c-1.65,3.89-3.48,7.72-5,11.64-1.45,3.62-2.54,7.37-4,11-.56,1.38-1.81,2.47-2.55,3.8s-1.29,2.91-2.1,4.78l2.45-.87c-2.21,3.33-11.39,7.48-15.28,5l1.8-4.1-.35-.66L550.26,179c-1.55-2-1.56-4.81-1.23-7.35a100.17,100.17,0,0,1,2.51-11.25c.73-2.88,1.61-5.72,2.41-8.59,1.15-4.13,2.2-8.3,3.47-12.4.76-2.44,1.86-4.77,2.81-7.14.8-2,1.6-3.95,2.43-5.92,1-2.42,2.07-4.81,3.06-7.24,1.24-3,2.34-6.12,3.66-9.11,1.2-2.7,2.63-5.3,4-8a4.89,4.89,0,0,0,.48-.9c.56-2.16.9-4.31,2.67-6,.89-.88,1-2.52,1.59-3.75.95-2,2-3.93,3-5.94,1.8-3.8,3.47-7.66,5.34-11.42.63-1.29,1.78-2.31,2.52-3.55,1.11-1.88,2.09-3.83,3.06-5.79.84-1.71,1.49-3.51,2.38-5.19,2.09-3.91,4.22-7.8,6.43-11.65,1.57-2.74,3.31-5.39,4.93-8.1.65-1.1,1.18-2.28,1.8-3.4.81-1.46,1.62-2.93,2.49-4.35,1.35-2.23,2.74-4.42,4.12-6.62a38.26,38.26,0,0,1,3.08-4.75,59.88,59.88,0,0,1,6.32-6.42c1-.8,1.5.17,1.47,1.29a8.47,8.47,0,0,0,.29,1.78l.53-.09c.32-.58.64-1.16,1.23-2.21l1.25,2.48c-2.16.26-3.24,1.09-3.15,3.16A2.89,2.89,0,0,1,624,22.84a2.72,2.72,0,0,0-1.19,3.65c.54,1.4,0,2.19-.61,3.17-1.16,1.95-2.34,3.88-3.4,5.88a1.68,1.68,0,0,0,.16,1.6,2.71,2.71,0,0,0,1.73.21c.89-.07,1.76-.29,3.1-.52-2.05,3.43-2.05,3.43-6.16,4.84l2.68,1.26a5,5,0,0,1-5.66.64l-1.85,3.08,6.3-.57c-1.59,2.86-2.51,5.91-4.52,7.82-2.37,2.24-2,5.29-3.62,7.77-3.33,5.13-5.76,10.85-8.52,16.35a26.83,26.83,0,0,0-1.1,3l.6.25a54.79,54.79,0,0,0,3.47-5.77c.72-1.6,1.08-3.2,3.38-2.66.23,0,.56-.33,1-.64l.34,3.65c4.58-4.3,9.15-9.94,9-11l-3.45,2.81-.46-.48a3.91,3.91,0,0,1,.58-1c3.67-3.42,7.38-6.82,11.06-10.24,1.17-1.09,2.24-2.29,3.47-3.31a5.79,5.79,0,0,1,1.92-.71l.26.54c-2.24,2-4.53,4-6.71,6s-4,4-6,6.06l.47.43c3.79-3.42,7.57-6.86,11.39-10.26a40,40,0,0,1,4.33-3.48c1.69-1.1.46-1.62-.21-2.27,2.95-3.9,7.08-6.11,11.34-8.27,6.14-3.1,12-6.64,18.18-9.76A98.09,98.09,0,0,1,676.73,26c4.65-1.66,9.41-3,14.16-4.4,2.74-.78,6,.45,8.44,2.78l-1.48.42c.62,1.32,1.24,2.66,1.82,3.92l-4.81,1.57.07.52,1.57.5c-2.78,1.18-4.64,2.81-7.73,2.95-3.29.15-6.5,2-9.73,3.1-4.77,1.67-9.56,3.32-14.27,5.14-1.35.52-2.46,1.64-3.75,2.36-1.6.88-3.28,1.63-4.93,2.43l0,.06c.42-.62.85-1.23,1.28-1.84l6.5-3.48-.56-.84-5.9,4.36-10.57,5.09.31.75,2.7-.49Zm-47.18,16c-.71,1.36-1.43,2.72-2.12,4,1.65,1.49,1.87,1.45,2.89-.48l-1.25-.84c.24-1,.43-1.78.63-2.57a16.84,16.84,0,0,0,2-2,15.21,15.21,0,0,0,1.12-2.7l-.81-1.32C604.18,63.13,603.41,65,602.63,66.79Zm-17.87,50.4a19.24,19.24,0,0,0,1.53-2.52c.12-.26-.35-.83-.65-1.17-.07-.07-.85.24-.85.4-.06,1.08,0,2.16,0,3.25-2.15,2.41-5.32,11-4.45,12.64,1.15-2.86,2.3-5.52,3.29-8.24A42.16,42.16,0,0,0,584.76,117.19Zm-8.83,22.88c-.69,1.18-1.37,2.35-2.07,3.52-.22.36-.59.65-.71,1-.61,2-1.08,4.08-1.77,6.07-.59,1.7-1.49,3.29-2.11,5-1.56,4.24-3.06,8.5-4.56,12.76-.49,1.4-.91,2.82-1.36,4.23C569.13,162.3,572.87,151.23,575.93,140.07Zm20.53-43.15c.33-.08,1.13-.26,1.12-.28-.39-2.12,2-2.9,2.24-4.69a2.23,2.23,0,0,0,0-1,5,5,0,0,1,0-4.48c.67-1.3,1.1-2.73,1.64-4.1l-.66-.27a3.49,3.49,0,0,0-.76.72c-1.65,3.08-3.3,6.16-4.9,9.27a2.81,2.81,0,0,0-.39,1.86A18.62,18.62,0,0,0,596.46,96.92Zm-6.11,9.19c1.78-3.34,3.55-6.68,5.6-10.55C592.89,97.46,589.75,103.28,590.35,106.11Zm-11.54,28.18-.65-.18c-1.95,2.21-1.95,2.21-.49,4.06Zm92.63-96,.26.79,5.25-2-.26-.72ZM678,157l-5,.67,2.7.61,0,.32-3.21-.2c-2.53-.15-4.9.38-7.61-.67s-5.73-1.64-8.31-3.28c-3.07-1.94-6.3-3.63-8.46-6.76a12.68,12.68,0,0,0-3.64-3.69,10.89,10.89,0,0,1-4.53-5.5,24.49,24.49,0,0,0-1.56-2.72l-.91.42,3.83,9.33-.49.21c-1.07-2.52-2.63-4.94-3.1-7.56a108.23,108.23,0,0,1-1-12.87,7.6,7.6,0,0,1,.71-3c2.5-6.22,5.07-12.42,7.58-18.65a29.56,29.56,0,0,0,1.51-4.9c-5.84,10.7-11.09,21.62-13,33.41-.09-.39,0-1.73-.59-2.33-1.44-1.43.26-2.07.51-3a69.21,69.21,0,0,1,2.32-7.63c1-2.56,2.63-4.91,3.35-7.53a35.87,35.87,0,0,1,4.69-10.53c.88-1.34,1.78-2.67,2.72-4,3.65-5.06,7.28-10.14,11-15.13,1.49-2,3.24-3.79,5-5.78l.94,1c.7-1.26,1.26-2.47,2-3.56a18.2,18.2,0,0,1,2.08-2.23c1.67-1.72,4-3,4.57-5.65,2.76,1.44,3.48-1.61,5.1-2.76,1-.69,1.49-2,2.44-2.69,3.34-2.56,6.78-5,10.17-7.49,2.53-1.85,5-3.76,7.56-5.59,1.22-.87,2.51-1.64,3.79-2.43,2.9-1.8,5.66-3.91,8.75-5.29a42.25,42.25,0,0,1,10.48-3.23c2.64-.42,5.48.38,8.39.65l-1.07,1.6c-3.45-2.4-7.52-2.24-8.11.47a1.43,1.43,0,0,0,.59.15c4.59-.89,9,.43,13.3,1.53,1.28.32,2.7.95,2.74,3.11,0,1.28,1.81,2.44,2.42,3.83a10.58,10.58,0,0,1,1.16,4.73c-.37,5.22-1.57,10.31-4.6,14.67-1.27,1.82-3.29,3.11-5,4.66-2.29,2.13-4.56,4.29-6.86,6.42A21.52,21.52,0,0,1,721.07,80c-1.46,1-3.28,1.42-4,3.6-.34,1-2.34,1.53-3.58,2.29-1,.6-2,1.24-2.91,1.88-2.48,1.63-4.91,3.35-7.46,4.88-3.45,2.07-7,4.08-10.51,6a21.28,21.28,0,0,1-4.72,1.7c-.63.15-1.41-.32-2-.48-3.24,4.3-8.24,3.92-13.08,4.83.37-1.39.68-2.59,1-3.79l.64-.08-1.72-1.58c1-2.16,5.27-.08,5.11-3.87l-2.6.75-.21-.57,3-1-1.71-1.87c1.43-1.83,2.85.3,3.88.27l3.32-4.35-2-1.19c3.37-5.47,9.72-5.52,14.16-8.85l.38.4c-.25,1-.5,2.09-.79,3.28-2.06-.52-2.1,1.4-2.89,3.23l5.82-3.05-.63,2.1a12.31,12.31,0,0,0,2.6-.6c.32-.15.34-1,.47-1.48.24-.88.46-1.77.68-2.65l2.45.84.55.17c1.11-2.05,2.2-4,3.46-6.34-2.2,1.29-4.27,2.4-6.24,3.68-1.39.91-1.33,1-4,.09,2.59-2.29,4.92-4.55,7.47-6.54,2.29-1.78,4.88-3.17,7.22-4.88,2.58-1.89,5.07-3.89,7.52-5.95s4.7-4.1,7-6.24,3.57-5.15,4.5-8.53c-3.69.13-6.83.61-9.69,3-4.83,3.94-10,7.42-14.87,11.32-3,2.42-5.64,5.29-8.51,7.89-1.91,1.74-4,3.29-5.88,5.05s-3.55,3.56-5.29,5.37c-.4.41-.66,1-1,1.38-2.83,3.11-6,6-8.44,9.37-1.6,2.16-4.25,3.75-4.48,6.91,0,.6-1,1.2-1.61,1.67a12.29,12.29,0,0,1-1.9,1l.63.75h1.82l-2.06,3-.76-1.71a12.06,12.06,0,0,0-1.29,2.37c-1.13,4.7-3.82,8.59-6.4,12.54a4.78,4.78,0,0,0-1.06,2.38c.09,3.65-2.58,6.14-3.67,9.27s-2.27,6-2.59,9.14c-.21,2,1.09,4.1,1.67,6l-.72-.13,2,2.36c0-.8-.05-1.1-.07-1.4,4.24,3.74,9,6.18,15,5.5l.7,2.75,2.59,1.61-.46.69c2.1-.6,2.54,1,3.23,2.22Zm51.39-99.66.78-2.33-.26-.16-4.35,4.59.3.34,1.12-.5c1,2.56-2.19,3-2.91,5.2l4.72-2.38c.28-.65.39-1.52.88-1.94,3.25-2.74,5.76-5.85,5.78-10.37,0-.07.06-.13.09-.2,1.28-2.32.81-3.42-1.9-4.26,1.48,2.27.26,4.14-.83,6S730.48,55.33,729.34,57.33ZM662.4,155.62c-1.61-1.12-3.18-2.31-4.84-3.34s-3.44-1.91-5.16-2.85C655.46,152.07,658.49,154.74,662.4,155.62Zm7.14-5.39-6.76-.95-.09.29,7.39,2.73Zm5.14-76c1.6.69,3.93-1.39,4.65-4.4Zm9,23A15.08,15.08,0,0,0,685,99.07c.11.11.75,0,.92-.26a10.16,10.16,0,0,0,1.18-2c.43-1-.28-1.94-1.57-2.19.31.71.64,1.43,1,2.25Zm5.15-5.72-.66-.74c-1.3,1.07-4,.56-3.78,3.59Zm28.85-23.3-.58-.77-5,3.5.46.67ZM656.52,97.37l.79.51,3.37-5.41-.54-.35Zm75.53,20c-1.58,1.78-3,4-5,5a3.3,3.3,0,0,0-1.92,2.4c-.13.39.1,1.1-.12,1.25-2.06,1.43-4.2,2.76-6.3,4.14a5.28,5.28,0,0,0-1.12.93c-.29.33-.38.84-.7,1.13-1.65,1.5-3.38,2.91-5,4.45-.42.39-.53,1.12-1,2.1a22.33,22.33,0,0,0,3.13-1.64c1.43-1.16,1.92-.6,1.85.92-.08,1.79,1,1.59,2,1.09A23.72,23.72,0,0,0,723,136c2.33-2.13,4.34-4.59,6.46-6.94a15.17,15.17,0,0,1,1.76-2.23c3.36-2.58,4.18-6.68,6.17-10.06.11-.2,0-.54,0-.38l-3.45-1.62C733.41,115.52,732.81,116.52,732.05,117.38Zm-54.2,41.09c2-.71,3.88-1.27,5.67-2,2.19-.94,4.31-2.88,6.46-2.88,2.8,0,4.11-1.42,5.63-3.08l-1.69-1.26a17.41,17.41,0,0,1,2.34-2.36c.52-.35,1.38-.19,2.44-.29L696.17,150c1.93-.76,3.88-1.49,5.79-2.3a15.62,15.62,0,0,0,3.08-1.63c.64-.46,1.56-1.41,1.43-1.9-.39-1.46.21-2.18,1.26-2.92a8,8,0,0,0,1.3-1.51l-.32-.55-3.29.47,1.36-1.19-1.84-1.5c-2.69,1.27-2.68,1.28-3.26,4.67a2.32,2.32,0,0,1-.43.76,9.19,9.19,0,0,1-5.21,3.73c-2.14.72-4.39,2.5-6.29,2.15a10.64,10.64,0,0,0-7,1.07l1.13,2.85-5.69.54c1.21.87,1.81,1.23,2.32,1.68a11.91,11.91,0,0,1,1.11,1.32c-.74.2-1.47.46-2.23.6a7,7,0,0,1-1.44,0l.05.72Zm23-21.18c1.74-.78,3.54-1.45,5.2-2.38.78-.43,1.23-1.4,1.94-2,1.79-1.51,3.65-3,5.47-4.44.37-.3.68-.66,1-1,1.5-1.31,4-1.63,4.18-4.24,0-.18.39-.31.57-.49.46-.5.91-1,1.36-1.52l-.41-.37-19.48,15.75ZM513.39,183.82c.68-2.7,1.42-5.39,2-8.11.84-4.21,1.46-8.48,2.36-12.68.76-3.53,1.89-7,2.64-10.53a21.68,21.68,0,0,0,0-4.49l-.76,0c-1.1,6-2.3,12-3.25,18s-3.78,11.8-3.76,18.32C513.07,184,513.36,184,513.39,183.82ZM450.71,173.4c2.24-1.72,4.3-3.69,6.49-5.48a18.6,18.6,0,0,1,2.65-1.52l-.06,0a6.65,6.65,0,0,1,1-1.89c1.87-1.81,3.9-3.46,5.73-5.31.48-.5.47-1.49.68-2.25a2,2,0,0,0-1.38.51c-3.7,3.62-7.36,7.29-11.12,10.86-2.21,2.1-4.58,4-6.88,6A9.49,9.49,0,0,0,450.71,173.4ZM468,96.51c-2.88,3.79-2.94,3.75-2,5.8,1.15-1.71,2.18-3.27,3.25-4.8a2.54,2.54,0,0,1,.85-.7c1.8-1,2.52-3.12,1-5.44A54.49,54.49,0,0,1,468,96.51Zm157.78-55.8c-.62,1.41-1.14,2.86-1.87,4.21-1.18,2.17-2.57,4.23-3.72,6.42-.24.46.15,1.25.25,1.88a4.8,4.8,0,0,0,1.29-1,40.24,40.24,0,0,0,3-5.07c.88-1.93,1.43-4,2.13-6ZM464.1,105.8c.1-.36-.6-1-.93-1.43-.34.29-.82.51-1,.88-.81,1.7-1.47,3.47-2.3,5.15-.71,1.45-1.58,2.82-2.37,4.23l.45.4,3-3.23.59,1.53C462.59,110.42,463.43,108.14,464.1,105.8Zm33.14-44.2c-2.94,2.85-5.93,5.66-8.81,8.56s-5.49,5.74-8.23,8.62l.59.52,17-17.2Zm90,75.11-7.81,20.22.68.26q3.95-10.14,7.88-20.27Zm-135.68-8.78,5.67-11.45c-2.29.68-2.73,3-4.19,4.18-.42.34-.14,1.55-.15,1.84l-2.29,5ZM617.85,59.45c-.7.11-1.47,0-1.67.3-1.29,1.89-2.46,3.86-3.74,5.92l2,1Zm117.59,48.83a41.68,41.68,0,0,0,.09,5.48c.07.55,1.21,1,2.15,1.65l-.95-7.2ZM610.55,71l4-1.61-1.77-2C610.4,70.21,610.33,70.47,610.55,71ZM479.73,142.43,472,150.69C475.27,149,479,145.08,479.73,142.43ZM623.57,31.3a18.61,18.61,0,0,1,.28-1.95c-2.51,2.56-2.51,2.56.85,4.46l1.78-4.58-.63-.27-2,3.74A8.39,8.39,0,0,1,623.57,31.3Zm-170,136.23c2.06-.51,5.2-3.25,8.41-7.73Zm64.09-67,3.21.35-.73-3.15-2.5,2.09Zm3.25,45.51,2-5.49-.95-.3-1.64,5.61ZM504.26,55.28l5.07-3.55-.6-.78L504,55Zm151.88-8-6.24,3.55-.09-.06a9.39,9.39,0,0,0,6.28-3.55ZM481.42,39a6.63,6.63,0,0,0,2.05-.62c1.48-1.08,2.85-2.31,4.27-3.49l-.3-.41-6,4.54Zm26.64-13.29,7.14-1.41-.09-.48-7.18,1.33Zm15.24-1.86c-2.61-1.26-4.33-1.34-5.63,0Zm-21.46,5.07L507,27l-.28-.73-5,2.1Zm67.38,514.53-.82-1.9-.9,1.7h-3.91l-.09.57,1.34,1.16c-3.23.27-6.05.52-8.88.72-.31,0-.65-.25-1-.39l.74-.86c-2-.15-3.72-1.18-5.53.29-.39.32-1.25,0-1.83.2s-1.49.1-2,1.26c-.34.75-2.38.84-3.69,1-1.59.24-3.22.28-4.84.4a26.54,26.54,0,0,1-4.29.06l.82-.41,0-.43c-.46,0-1.31,0-1.33.13-.36,1.89-2,1.72-3.22,1.88-4,.51-8,.87-11.93,1.32s-8.18.93-12.25,1.47c-4.39.59-8.77,1.3-13.16,1.89-1.95.26-3.93.4-5.91.51a1.85,1.85,0,0,1-1.14-.56c-1-1-1-1-2.53-.2l1.47.46c-.05.21-.06.39-.1.4-4.79.57-9.59,1.08-14.37,1.71-3,.4-6.06,1-9.09,1.48-.47.07-.93.21-1.4.26-4.94.53-9.87,1.07-14.81,1.58A79.32,79.32,0,0,0,432.39,561a1.3,1.3,0,0,1-.7,0c-2.35-.75-4.34.58-6.49,1-.61.13-1.26.08-1.89.15-3.65.43-7.3.82-10.94,1.32-4.32.59-8.62,1.36-12.95,1.91a42.11,42.11,0,0,1-5.15,0l.84,1.08c-1.79,0-3.21-.1-4.62-.11a2.64,2.64,0,0,0-.73.22c-1.52.45-3.23,1.54-4.52,1.17-1.64-.46-3.37.34-4.85-.68-.16-.11-.54.09-.82.14l.8,1.27c-1.3.42-2.57,1.1-4.12-.42-.54-.53-2.5,0-3.56.51s-2,1.72-3.49.65c-.17-.13-.69.21-1,.36L364,571.34l.24-.64-1.14-.81,2.54-3.29-4.51.61v-2.58l-8.35,2.47-.2-.24,5.12-2.9-.13-.77-8.39-2.36v-.31a5.2,5.2,0,0,0,1.63,0,6.24,6.24,0,0,0,1.45-1,7.36,7.36,0,0,0-1.15-1.15,23,23,0,0,0-2.19-1.19l.73-.45a9.42,9.42,0,0,0-.13-2.26c-.34-1.15.12-1.75,1.43-2s2.5-.67,4.1-1.12l-1.62-1.51a11,11,0,0,1,1.45-.63c3.38-.92,6.78-1.75,10.13-2.75,1.6-.48,3.06-1.43,4.66-1.92,3.91-1.18,7.84-2.32,11.81-3.28,6.74-1.62,13.53-3.09,20.3-4.63,3.95-.89,7.89-1.88,11.87-2.65,4.56-.88,9.17-1.5,13.74-2.35,4-.73,7.93-1.66,11.91-2.42,1.13-.22,2.32-.1,3.45-.29,6.64-1.1,13.27-2.27,19.91-3.36q8.46-1.38,16.93-2.61c3.54-.52,7.1-.9,10.64-1.42,3.21-.48,6.4-1.12,9.62-1.57,1.21-.17,2.5.15,3.72,0,3.61-.53,7.18-1.32,10.8-1.78s7.51-.63,11.25-1c2.92-.32,5.81-.87,8.72-1.18,3.93-.43,7.88-.72,11.82-1.1,3.75-.36,7.49-.82,11.25-1.14,4.39-.38,8.79-.61,13.18-1,2.95-.27,5.89-.76,8.85-1.06,3.29-.34,6.6-.58,9.91-.86l8.52-.66c2.46-.19,4.92-.32,7.38-.55,1.9-.18,3.8-.47,5.7-.72.17,0,.34-.1.52-.11,3.26-.1,6.52-.13,9.78-.3,2.46-.12,4.91-.42,7.36-.64,1-.09,2.07-.18,3.1-.23,2.78-.12,5.56-.17,8.33-.34,3.51-.22,7-.58,10.54-.77,4-.21,8-.25,12-.47,2.75-.16,5.49-.57,8.24-.76s5.73-.22,8.6-.39,5.83-.49,8.75-.65,6.13-.18,9.19-.35,5.82-.4,8.73-.61c.06,0,.14,0,.18,0,2.07,1.5,4.36.25,6.53.43,1.32.1,2.67-.55,4-.66a12.58,12.58,0,0,1,2.55.38,5.13,5.13,0,0,0,1.41,0c2.68-.4,5.46-1.53,8-1.11,3,.5,5.79-.6,8.72-.28a48.06,48.06,0,0,0,7.28-.24c.88,0,1.76-.12,2.65-.15,3.07-.13,6.15-.3,9.23-.33,2.92,0,5.84.12,8.76.16a26.12,26.12,0,0,1,2.79-.07c1.5.18,3,.58,4.47.81a5,5,0,0,0,2.36.06c4.65-1.88,9.5-.2,14.17-1.41l.15.59-.81.89c2-.28,4-1.81,5.49-.49,1-.22,1.63-.4,2.28-.51a12.7,12.7,0,0,1,2.44-.29,6.58,6.58,0,0,1,2.12.55c.67.29,1.27,1.11,1.89,1.08,2.3-.09,4.6-.42,7.27-.7l-.84-.53h4.24c1.58.26,2.61.47,3.66.59s2.17.12,3.25.18c.11,0,.23.15.32.12a5.74,5.74,0,0,1,5,.56c1,.61,3.08-.49,4.67-.81a3,3,0,0,1,.84,0c.68.06,1.35.15,2,.21,1.15.11,2.31.11,3.43.33s2.18,1.22,3.36-.14a2.22,2.22,0,0,1,2.08-.06c1.78,1,4-.41,5.66,1.22a1,1,0,0,0,.84.12,17.2,17.2,0,0,1,10.05.89c-1.15,1.46-.87,2.63.73,3.52.05,0,.13.05.14.09.49,1.66,1.74,1.8,3.22,1.84,1.68.05,3.36.38,5,.58l.15-.46-4-2.58c1.31.07,2.37.18,3.43.16.26,0,.51-.38.76-.59-.22-.23-.46-.67-.67-.66-1.53.09-3,.26-4.57.43-.14,0-.26.2-.58.47l1.43.52-1.79,1.68c-.13-.86-.22-1.41-.33-2.08l-1.74.51c.24-1.16.44-2.06.63-3,1,.31,2.13-1.05,2.95.37.07.11.31.16.47.17,3.89.12,7.78.21,11.66.38a7.3,7.3,0,0,1,2,.69l.06.6-4,.5,0,.41,2.07.35a6.68,6.68,0,0,0-.41,1.64c0,.79.18,1.53,1.33,1.2,1.32-.38,2.65-.68,4.06-1,.7,1.71.57,1.84-1.61,1.79-2.41,0-4.83.08-7.24.14l-9.38.23-.21.76a5.59,5.59,0,0,0,1.62.66c2,.16,4,.17,6,.31,1.28.09,2.73.78,3.77.36s1.59-1.1,2.61-.38l-2.32,2.6c-.65-1.33-2.72-1.91-4.71-1.23a4.75,4.75,0,0,0-2.17,1.47c-.28.34.11,1.2.19,1.82h0c-1.63-.29-3.2-.41-4.59.8-.17.15-.74-.11-1.1-.24-.88-.3-1.75-.62-2.47-.89l-1.43-1.16-.37.37.75,1.23-2.66.14,1.38,2.31-4.07.87.12-.29c-.87-.24-1.74-.48-2.6-.74a6.81,6.81,0,0,1-.73-.33c.28-.44.55-.89,1-1.66l-2.54.14-.08.41.76.52a9.61,9.61,0,0,0-.84,1.37,1.54,1.54,0,0,1-2.43.89c-.85-.57-1.69-1.15-2.57-1.65-.17-.1-.52.13-1,.27l1.45.92a24,24,0,0,1-4.13,1.14,20.23,20.23,0,0,1-3.76-.38,10.3,10.3,0,0,0-1.84.07c-2.09.22-4.19.48-6.28.67-.36,0-1-.1-1.07-.33-.81-1.71-1.8-.83-2.86-.34-1.25.58-2.52.71-3.4-.18a22.73,22.73,0,0,1-4,1c-2.82.2-5.66.21-8.48.22-3.12,0-6.3-.48-9.34,0a65,65,0,0,1-6.53.95c-4.94.25-9.88.39-14.81.75-2.93.22-5.83.86-8.75,1.18-1.5.17-3,0-4.54.07-.8,0-1.61.42-2.4.39a16.43,16.43,0,0,1-4.62-.53,3.86,3.86,0,0,0-3.65.19c-1.81,1.16-1.81,1.16-3.48-.08-.8,2.37-3,1.51-4.2,1.22-4.38-1.06-8.39.54-12.57.92-2.83.26-5.78,1.24-8.66,0a1.19,1.19,0,0,0-.87,0c-3.6,1.67-7.47,1-11.22,1.37-3.31.29-6.61.9-9.92,1-3.63.12-7.22.63-10.84.86-3.27.21-6.52.72-9.79,1-1.78.15-3.58,0-5.36.14s-3.64.38-5.46.51c-.78.06-1.59-.15-2.38-.09-1,.09-1.9.39-2.87.51-2.33.29-4.68.53-7,.81a1.54,1.54,0,0,0-1,.64h4.8l0,.65-10.15.6-.06-.59,4.42-.24,0-.48c-2.45-.16-4.9-.4-7.36-.47-1.8,0-3.51.85-5.45.09-.86-.34-2.17.59-3.3.77a31.66,31.66,0,0,1-6,.63,5.17,5.17,0,0,0-1.95.11,7.38,7.38,0,0,1-2.47-.05v.32l-9.91,1.17.06.56,3.55.19,0,.34-22.46,2.09-.1-.61,4.42-.53v-.35a19,19,0,0,0-2.72,0c-2.75.39-5.58-.57-8.32.62-.84.36-2,0-3,.1-1.34.12-2.66.36-4,.55l0,.58h4.07c-1.61.65-3.15,1.5-4.74-.17-.46-.48-1.86-.07-2.83-.07l0,.6,2.28.2,0,.29-5.1.78.48-1.44c-1.81-1.84-3,1.33-4.76.7l1.67.33,0,.53-11.15,1,2-1.27a4.91,4.91,0,0,0,4.33-.07l-.12-.8Zm229.6-21.08c-.29-.75-.57-1.51-.86-2.27l-.45.38-1.64-1.09c-.28.73-.55,1.45-.84,2.18,1.29.68,2.23,2.13,3.73.75l1.66-.49c.05-.85.09-1.48.13-2.21l-1-.13Zm47.26-13.1c.09-.79.15-1.36.23-2l-1.53-.51c-.72-.24-1.45-.46-2.17-.71-.25-.08-.54-.35-.71-.29a.82.82,0,0,0-.39.68C841.85,509,843.39,509.9,846.08,509.28ZM833.56,522.6c-.68-1.09-1-2-1.56-2.39a17.31,17.31,0,0,0-3.55-1.77,4.16,4.16,0,0,0-1.6.06c1,.18-.82,1.34.53,1.47.21,0,.36.69.53,1l2.18-.48Zm10.24-10.34c-.15.71-.52,1.24-1.74.47a4.33,4.33,0,0,0-1.43-.29c0,.49-.24,1.12,0,1.44a1.78,1.78,0,0,0,1.39.63,23.85,23.85,0,0,0,3.45-1,5.93,5.93,0,0,0,1.17-.88Zm-27.69-6c1.66,0,2.94,0,3.93-1.68C818.24,504.31,817.1,504.65,816.11,506.29Zm16.81,1.56,1-.21c-.07-.27-.08-.69-.24-.77a1,1,0,0,0-.89.07c-.63.47-1.19,1-2.15,1.91l3.34.41Zm-20.23,13.31,4.21-.25a3.55,3.55,0,0,0-.29-1.31c-.12-.18-1-.11-1-.07-.2,1.19-.84,1.18-1.76.79C813.68,520.26,813.32,520.69,812.69,521.16ZM619.24,539.28l0-.67-5.68.46,0,.54Zm236.32-26.69-.16.94,3.37.41.13-.93Zm-1.87-.77-3.69.93C851.59,513.59,852.74,514.37,853.69,511.82Zm-35.44,8.51,1.82,1.25c.26-.7.52-1.39.92-2.44Zm-3.93-7.72,2.95.62C816.49,512.12,815.75,510.93,814.32,512.61ZM641.6,537.39l-13.46,1.17.05.52,13.46-1.16Zm-284.18,29.3c-.94.09-2.47.14-1.71,2.28l4.86-1.54A11.37,11.37,0,0,0,357.42,566.69ZM712,532.41l9.78-.52-.06-.76L712,532Zm-40.19,3.15c1.12,0,2.25,0,3.38,0s2.16-.1,3.24-.15l-.05-.61-6.57.59Zm26.47-2.48-6.46.47,0,.39,6.45-.32ZM867.17,519c-.29.63-.56,1.26-.84,1.88l2.59-.82a1.85,1.85,0,0,0-1.11-.64,3.35,3.35,0,0,1-.67-.41Zm-8.53,1a2.17,2.17,0,0,0-1.17.46c-.08,0,0,.57.21.76.51.63,2,.13,2.3-.77A4.33,4.33,0,0,0,858.64,519.92Zm17.75-2.76-4.1.91c.79.29,1.22.6,1.51.51a26.2,26.2,0,0,0,2.64-1.09Zm-177.17-252,7.59,1.5-.13.55c-5.44-.73-10.87-1.47-16.32-2.18-.61-.08-1.63-.17-1.82.14-1.23,2-3.22,1.31-4.93,1.75-2.74.7-5.37,1.83-8.05,2.74a6,6,0,0,1-2,.41c-1.25,0-2.3-.05-3.09,1.25a4.29,4.29,0,0,1-2.27,1.62c-6.3,1.94-10.2,7.19-15.14,11-5.29,4.06-9,9.59-13.12,14.82-4.62,5.93-7.66,12.88-12.62,18.54-2.14,2.46-4.33,4.87-6.49,7.33a6.88,6.88,0,0,0-.56,1c-1,1.61-2,3.23-3,4.82-.88,1.35-1.79,2.69-2.74,4a13.54,13.54,0,0,1-1.4,1.43c-.94,1.81-1.78,3.69-2.85,5.44-2.83,4.63-5.74,9.18-7.51,14.39-.7,2-2.43,3.72-3.49,5.67-1.43,2.65-2.66,5.42-4,8.11-.68,1.37-1.52,2.65-2.15,4a43.87,43.87,0,0,1-1.83,4.59c-2.56,4.23-4.88,8.49-5.78,13.46A82.68,82.68,0,0,1,583,400c-1.26,4.25-2.68,8.47-3.69,12.78-.73,3.15-1.5,6.26-.76,9.72.88,4.05.58,8.35,1.24,12.47a89.58,89.58,0,0,0,2.63,9.69l.86.24c4.36-4.41,8.84-8.71,13.06-13.25,4-4.3,7.69-8.86,11.55-13.28,1.47-1.69,3.18-3.19,4.49-5,3.33-4.56,6.47-9.26,9.76-13.86,1.32-1.84,2.94-3.47,4.21-5.34.63-.93.55-2.33,1.17-3.26,3.46-5.21,7.11-10.29,10.56-15.5,2.67-4.05,5.07-8.28,7.76-12.32,1.92-2.89,4-5.65,6.23-8.35a15.46,15.46,0,0,1,3-2.28,8.06,8.06,0,0,1,2.65-5.8,100.36,100.36,0,0,0,9.5-10.41c1.43-1.92,2.81-2.35,5.1-2.31-1.64,4-2.37,8.26-5.64,11.38l.53.34,1.92-1L667,347.5l-.21-.49c-.75.16-2,.12-2.16.53a7.91,7.91,0,0,0-.1,2.85l.61.14L662,354l-.37-.29,1.63-2.48-.62-.49-3.16,4.1,1.53.2c-.34,2.79-2.5,3.73-3.94,4.21-.52,2-.56,3.55-1.3,4.66-3,4.48-6.16,8.8-9.23,13.2-1.73,2.48-3.37,5-5.08,7.52a8.12,8.12,0,0,1-1.21,1.11l-.28-2c-1,1.85-1.82,3.38-3,5.47l3.43-2.77L636.58,393c-.08.14-.36.27-.34.33,1,2.91-1.56,3.69-3,5.28s-2.18,3.62-3.34,5.39c-1.6,2.42-3.29,4.78-4.93,7.15l.85,3.11c1.21-1,2.76-1.88,3.66-3.18,2.15-3.09,4-6.36,5.92-9.63.89-1.54,1.35-3.33,2.24-4.87a24.71,24.71,0,0,1,2.81-3.23c-.41-1.25.76-2.42,1.91-3.93a80.25,80.25,0,0,0,5.31-8.66c.57-1,.93-2.07,1.55-3,2.06-3,4.14-6.06,6.35-9,.64-.85,1.85-1.26,2.61-2.05a11.74,11.74,0,0,0,1.22-2.21c.42-.71.89-1.4,1.36-2.08,1.37-2,2.65-4.07,4.17-5.95,1.66-2,3.55-3.88,5-5.93.35-.84.51-2.2,1.09-2.41,1.82-.65,3.58-.53,3.39,2.44l.71-.18c.89-4.2,1.79-8.4,2.79-13.1l-2.77.92c1-2.66,1.88-5.24,3.1-7.64.35-.67,1.82-.78,2.55-1.05a28.12,28.12,0,0,1,.38,4.28c-.06,1.1-.72,2.14-.94,3.24-.62,3-1.2,6.09-1.65,9.16-.07.44.69,1,.93,1.32-.29,1.17-.55,2.2-.86,3.47-1,.74-2.7,1-1.39,3.53.92,1.81.34,4.5.11,6.76-.32,3.11-.89,6.19-1.49,9.26a7.12,7.12,0,0,1-1.26,2.11c.36,1.23.72,2.48,1,3.55l1.91-.28c-.44-.92,2-2.46-.4-3.78-.3-.17-.25-1.21-.14-1.8.87-4.66,1.82-9.31,2.67-14a20.81,20.81,0,0,1,.37-3c.12,1.46.23,2.91.35,4.36l.63.11c.22-1.71.45-3.41.67-5.12.1-.7.16-1.41.29-2.1.34-1.76.73-3.52,1.06-5.29.29-1.48.55-3,.77-4.47.59-3.85,1-7.73,1.82-11.54.14-.71,1.61-1.15,2.26-1.58a22.21,22.21,0,0,1,2.94,3.51,14.46,14.46,0,0,1,2,5.41,83.7,83.7,0,0,1,0,12.06c-.29,3.84-1.19,7.63-1.64,11.47-.74,6.13-1.31,12.27-2,18.4s-1.39,12-1.95,18.07c-.43,4.75-.62,9.53-1,14.29-.11,1.61-.36,3.22-.51,4.83-.5,5.55-.93,11.1-1.5,16.64-.38,3.68-.77,7.38-1.49,11a16.94,16.94,0,0,1-2.4,6c-.5.74-2.42.67-3.69.66-.35,0-.7-1.09-1.1-1.76l-2.13,1.08c-.14-.71-.29-1.43-.47-2.3l-.71,1.1c-1.16.13-2.13,0-2.44.34-.47.56-.88,2-.63,2.21,1.59,1.25,0,1.79-.34,2.86-.59-.5-1.35-.87-1.33-1.18.26-3-2.58-4.27-4.19-6.4.5,2.36,1,4.71,1.51,7.06l-.32.2a11.28,11.28,0,0,1-1.11-1.76A35.73,35.73,0,0,1,661,439.33c-.13-2.53-1.28-5-2-7.5-.08-.31-.29-.84-.19-.91,2.88-2.07,0-4.48.38-6.75s0-4.94,0-7.42a70.77,70.77,0,0,1,.48-8c.94-6.6,2.09-13.18,3.1-19.78.59-3.85,1-7.73,1.66-11.57.24-1.42,1-2.75,1.32-4.16a53,53,0,0,0,1.39-9.31c-2.31,3.23-4.16,7-7.08,9.51-2.44,2.12-1.52,5.73-4.39,7.26a8.32,8.32,0,0,0-1.63,1.32l-2.46,5.78c-2.41-1.39-2.39.16-2.64,1.8l1.23-.86.35.23-11,17.81-2.8-.33-.22.48,1.44.85c0,.15,0,.35-.08.46a14.67,14.67,0,0,0-1.64,1.91c-.88,1.53-2,3.07-2.33,4.74-.45,2.46-2,3.46-3.79,4.84-1.49,1.2-2.17,3.39-3.22,5.14a6.91,6.91,0,0,1-.93,1.45c-1,1-3,1.51-1.48,3.57.08.11-.07.45-.19.63-1.71,2.32-3.17,4.91-5.23,6.88-3.72,3.58-5.61,8.51-9.42,12-1.81,1.65-3,3.9-4.68,5.75a11.63,11.63,0,0,1-2.44,1.62c-.37.24-1,.71-1,.8.81,1.66-.87,2.3-1.55,2.69-5.06,2.91-10.22,5.68-15.47,8.23-.69.34-2.11-.78-3.17-1.25-.73-.32-1.44-1-2.15-1-1.79.05-3.56.52-5.35.58-.65,0-1.51-1.12-1.94-.94-2.34,1-3.86-.08-5.53-1.52a34.8,34.8,0,0,0-4.47-2.76c-2.9-1.82-6-3.31-6.95-7.21-.43-1.73-2.17-3.13-3.43-4.83-.1.72-.19,1.28-.27,1.85-.27-.15-.71-.24-.78-.45-1.66-4.82-3.31-9.64-4.89-14.48a14.37,14.37,0,0,1-.37-2.72l-1,.19c.55,2.7.89,5.46,1.7,8.08,1,3.19,1.34,6.63,3.67,9.32a5.77,5.77,0,0,1,1.44,2.79c.24,1.79,1.61,2.59,2.62,3.72-2.12,1.46-2.56-.67-3.15-1.71-1-1.67-1.22-3.8-2.35-5.33-2-2.66-2.22-5.8-3.28-8.72-2.92-8-2.4-16.11-1.08-24.29.63-3.91.92-7.87,1.55-11.77a30.12,30.12,0,0,1,1.51-4.16c2.08-6.33,4.17-12.66,6.13-19,.3-1-.08-2.18-.16-3.64.21.68.31,1,.58,1.89,2.65-6.38,5.17-12.38,7.63-18.4,1.11-2.7,1.93-5.53,3.2-8.15.76-1.58,2.3-2.77,3.17-4.32a50.19,50.19,0,0,0,2.07-5,33.15,33.15,0,0,1,1.62-3.06c2.21-3.77,4.41-7.56,6.7-11.28.74-1.21,1.79-2.22,2.61-3.39,1-1.44,1.9-3,2.92-4.42,3.48-4.92,6.84-9.94,10.54-14.69,3.36-4.33,7.1-8.36,10.67-12.52,4.5-5.25,8.86-10.61,13.53-15.7a51.91,51.91,0,0,1,8.19-7.19c5.7-4.06,11.46-8.09,17.49-11.63A62.89,62.89,0,0,1,661.51,254a104.25,104.25,0,0,1,17-2.91,38.72,38.72,0,0,1,15.8,2.45c.61.22,1,1.18,1.44,1.81,2.89-1.09,6.37.59,8.28,3.31,1.69,2.4,4.23,4.2,6,6.56,1,1.34,1.25,3.27,1.7,5,.8,3-.36,5.59-3.61,7.45.36-2.08.57-3.78,1-5.44a6.3,6.3,0,0,0-4.24-7.55,27.26,27.26,0,0,0-5.29-.47c-.09,0-.21.67-.32,1l-2.73-1.33c0-.1.2-.5.46-1.1l-5.38.91v.68ZM584.1,382.88c-.62,1.46-1.3,2.88-1.84,4.36q-2.1,5.73-4.06,11.51c-.16.45.07,1,0,1.52a16.53,16.53,0,0,1-.53,3.53c-.39,1.17-1.42,2.17-1.69,3.35-1,4.18-1.76,8.41-2.52,12.64a16.74,16.74,0,0,0,0,3.24h.68c-1.31,3.43-.9,6.14.5,6.05a20.86,20.86,0,0,0,.05,4.33c.73,3.41,1.67,6.79,2.63,10.16.44,1.55.4,3.59,2.71,3.93-.48-1.53-1-2.84-1.29-4.2-.58-2.77-.6-5.72-1.61-8.3a24.16,24.16,0,0,1-1.78-13.06c1.29-7.52,3.17-14.95,4.8-22.41.33-1.49.64-3,1-4.46.29-1.26.27-2.83,1-3.7a8.79,8.79,0,0,0,1.81-8.56l1.62-.24,5.47-12.42-.92-.4Zm6.51-14.32c2.73-1.66,10.72-16.34,10.08-18.62C597.18,356.41,593.89,362.49,590.61,368.56Zm75-7.68.58.4,4-4.69c.67.52,1.56,1.25,2.5,1.9a3.3,3.3,0,0,0,1.07.26,3.18,3.18,0,0,0,.1-1.13c-.83-2.8-1.92-3.34-5.4-2.92-.57,1.06-1.12,2-1.57,2.95S666.05,359.8,665.61,360.88Zm-36.54-52.65.66.42c1.86-2.17,3.71-4.36,5.6-6.52.61-.69,1.37-1.26,2-2a31.05,31.05,0,0,1,2.07-2.6c1.28-1.18,2.15-2.94,1.45-4.23Zm-22.8,31.86.46.39a7.43,7.43,0,0,0,1-.79c1.18-1.35,2.27-2.78,3.5-4.08,2.25-2.38,3.17-4.57,2.86-7.58Zm64.83,64.19.68.09q.74-6.67,1.46-13.34l-.56,0Q671.9,397.63,671.1,404.28Zm.1,19.94c-.52,3.26-1.82,6.59,0,9.95ZM551.1,447.79l.42-.27L549.21,441l-.81.32Zm119.46-25.26h.3c.13-3,.27-6,.4-8.94h-.7ZM312.36,452l-.4,3-1.52-2.74c-.74,2.9-1.4,5.41-2,7.93a1,1,0,0,0,.25.87c2.52,1.39.81,2.92-.07,4.57l-2.44-3.67c-.26,2.38.48,3.63,3.08,4.69-.17.44-.21,1.11-.52,1.29-2.2,1.26-2.39,3.2-2.54,5.5a12.91,12.91,0,0,1-2.07,5.21c-.47.82-1.88,1.1-2.35,1.91-.22.39,1.26,1.54,1.15,2.22a20.9,20.9,0,0,1-1.71,5.84c-.36.74-2.29.17-2.54,1.83s-.67,3.15-1.05,4.72c-.59,2.38-2.28,5.17-1.56,7,1.06,2.72-1.75,2.81-1.87,4.6s-1.52,3.37-2.2,5.12a48,48,0,0,0-2.07,6.2c-.3,1.25-.44,2.08-1.79,2.92s-1.93,2.83-2.68,4.41c-.93,2-1.72,3.83-4.54,3.08-.47-.13-1.15.78-1.81,1a2.29,2.29,0,0,1-1.76-.38c-2.89,1.66-3.09.93-5.37-1.88-3.65-4.49-1-9-1.1-13.46,0-1.42,1.18-2.87,2-4.72a26.69,26.69,0,0,1,.05-5.34c1.41-7.44,3.19-14.81,4.51-22.27.78-4.4.8-8.94,1.47-13.38.73-4.89,1.91-9.71,2.71-14.59.71-4.33,1.11-8.72,1.76-13.07.31-2.05.88-4.07,1.33-6.1.81-3.6,1.76-7.17,2.41-10.8,1-5.51,1.72-11.07,2.69-16.59.64-3.6,1.56-7.16,2.26-10.76,1.37-7.09,2.55-14.21,4.06-21.27.92-4.32,2.38-8.52,3.5-12.8,1.22-4.69,2.28-9.41,3.51-14.1.83-3.14,1.86-6.24,2.77-9.36,1.73-5.92,3.41-11.86,5.16-17.77.5-1.7,1.3-3.32,1.74-5,1.06-4.07,1.76-8.25,3-12.26,1.37-4.34,3.26-8.52,4.86-12.8a27.67,27.67,0,0,0,1-3.63c.93-4.15,1.19-8.62,3-12.35a18.46,18.46,0,0,0,2-7.83,1.47,1.47,0,0,1,.26-.67c1.61-2.41,1.86-5.28,2.68-7.95,1.1-3.62,1.87-7.37,3.36-10.81a86.83,86.83,0,0,0,3.65-9.8,3.19,3.19,0,0,1,1.08-1.45c1.7-1.36,2.24-2.82,1-4.83-1-1.67,0-4.12,1.38-5.5.79-.81.75-2.45,1.08-3.72.22-.88.24-2.4.69-2.54,3.22-1,2.8-4.08,3.79-6.29.61-1.36.43-3.23,1.31-4.29,1.33-1.62,1.18-2.66-.2-3.93a2.83,2.83,0,0,1-.49-1c3.08-1.61,4.51-5.56,3.4-7.37l1.88-5.13c1.6,1.69,3.79,1.57,4.6-.21.25-.56-.13-1.4-.23-2.11a14.41,14.41,0,0,0-2.28.47,12.65,12.65,0,0,0-2,1.36l2.94-12.4,3.26,4.09-4.2,1.41c1.25,1.16,2.18,2.75,3.24,2.84,1.92.18,3.1-2,3-4.64l-1,1.25-.64-.2c.43-2.35.87-4.7,1.35-7.31h-3.43l-.1-.83,4.41-.72c-.13-1.41-.24-2.7-.36-4.07l-1.3.65c2.95-3,4.31-6.71,5.06-10.75l1.81.91-.31-2.23a8.53,8.53,0,0,1,6.78-2.2c1.33.09,2.85-2.39,4.29-3.71.13.12.49.66.69.61,1.87-.52,3.77.66,3.21,2.36-.46,1.4.34,3.77-2.23,4.1l1.23-3.18-.64-.67-3.75,2a15.45,15.45,0,0,0,1.88,2.15c.21.17.87-.22,1.33-.36l.76,1.71-3.92-.41a41,41,0,0,0-1.43,6.72c0,.74,1.63,1.58,2.52,2.37l.83-.07c-.93,2.25-2,4.46-2.73,6.78a16.35,16.35,0,0,0-.32,3.94,20.67,20.67,0,0,0,3.72-1.12,4.29,4.29,0,0,0,1.52-1.93,8.84,8.84,0,0,0,.46-2.15l1.11.08a53.28,53.28,0,0,1,.29,8.26c-.1,1-1.94,1.75-3,2.61-1.44-1.61,1.66-4.28-1.63-5.6l-1.53,3.35c-.23-1.09-.37-1.8-.52-2.51l-.87.63a5.29,5.29,0,0,0,0,1.49c.42,1.39.18,2.23-1.43,2.52-2.89.51-2.68,3-3,4.8l1.56,1.89,3-1.35c1,1.12,1.48,2-.16,2.73-1.19.57-1.64,1.32-.66,2.67.68,1,.86,2.26,1.79,3.33,0-1.15,0-2.3,0-3.45,0-.62,0-1.57.35-1.77,2.48-1.43,1.69-3.82,1.8-6.06l1.09.24a25.83,25.83,0,0,1,1.15,4.13,14.55,14.55,0,0,1-.3,3.46c-.2,1.54-.44,3.08-.68,4.61a5.3,5.3,0,0,1-.36,1.31c-.17.36-.68.67-.66,1,.15,3.4-3.28,6.08-1.94,9.73a3.64,3.64,0,0,1-.24,1.92c-.91,3.55-.85,7.36-3.15,10.55-.56.76-.29,2.09-.48,3.15-.31,1.72-.61,3.45-1,5.15-.32,1.28-1.23,2.47-.13,3.82.15.18-.13,1-.23,1-3.06.12-1.36,2.85-2.49,4.14l1.26-.18c0,.21.08.39,0,.49-.9,1.46-2,2.69-1.33,4.79.27.9-1,2.44-1.89,3.44s-.61.93-.09,2.23c.41,1.06-.05,2.52-.31,3.77-.85,4-1.64,8.06-2.78,12-.43,1.5-2.06,2.64-2.59,4.14-.47,1.31.15,3-.31,4.32-.3.82-1.71,1.25-2.92,2.06l2.3.17c-.44,1.94-.73,3.89-1.34,5.75s-1.67,3.58-2.28,5.44c-.49,1.49-.52,3.12-.91,4.65a10.25,10.25,0,0,1-1.23,3c-.94,1.49-2,3-.88,4.71a2.92,2.92,0,0,1,0,3.31,6.7,6.7,0,0,0-.6,3.67l1.18-1.49a17.51,17.51,0,0,0,1.61,1.14c1.27.68,1.94-.16,1.77-1.17-.27-1.65.33-2.5,1.57-3.5A11.94,11.94,0,0,0,360,303c1.5-2.74,1.72-2.81,4.28-.85a4.09,4.09,0,0,0,.82.37v-3.15c-.86-.25-1.66-.77-.42-2,1.57-1.6,3.08-3.26,4.74-4.76.34-.31,1.21,0,1.84,0-.11.88.08,2-.39,2.59-1,1.26-2.6,2.12-2.07,4.28l1.93-.29c-.26,1.76-.5,3.36-.77,5.21a17.24,17.24,0,0,0-3.05-1c-.95-.13-2.17-.31-2.84.15a1.21,1.21,0,0,0,.47,2.22,28,28,0,0,1-1.78,3.7c-.41.62-1.3.93-2,1.37a15.55,15.55,0,0,0,1.14-2c.15-.38,0-.88-.08-1.88-1.73,3.28-6.38,3.24-6,7.63l5.05-3.81-1.28,2.6c-2.13,1.59-4.47,3.14-4.93,6.34a1,1,0,0,1-.4.58,7.16,7.16,0,0,0-3.24,5.82,2.85,2.85,0,0,1-1,1.59c-2.19,2-2.21,2-2,4.76-2.46.07-2.31,1.84-2.62,3.7a54.15,54.15,0,0,1-2.25,7.29c-.45,1.43-.87,2.88-1.41,4.67l1.47-.75L337,362.09l-1.92-.27a10.19,10.19,0,0,0-1,2.09,3.09,3.09,0,0,0,.35,1.63c.34.89,1.24,1.88,1.06,2.6-.78,3-1.87,5.93-2.64,8.24-.36,2-.6,3.47-.87,4.89s-.47,2.91-.84,4.33a29.52,29.52,0,0,1-1.29,3.51c-.46,1.13-1,2.24-1.56,3.49,1.38.72.76,1.59-.71,2.65-1.94,1.39-2.36,5.2-.84,6.64-.78.72-3.26.91-.87,2.68.22.16.23.79.14,1.14-.91,3.53-1.76,7.08-2.86,10.54a36.87,36.87,0,0,1-2.4,4.89l.85.37.34-1.61.35.09-9,32.53-.93-.45c-.1-2.25,2.1-4.57-.18-6.85-.55,1.71-1.21,3.32-1.57,5C310.26,451.48,311,452.13,312.36,452Zm53.17-274.58-.77-.59c-.82,0-2.27-.22-2.36,0a15.21,15.21,0,0,0-.48,3.47l2.34-.92,2.95,1.8c2-3.31,2.19-6.74.94-8.73l-2.43,1.62Zm-2.39,70.12c1-3.48,1.76-6.05,2.58-8.86-2.34.78-4.71,4.27-4.38,6.33C361.46,245.8,362.35,246.47,363.14,247.53Zm8.58-41.45-.13-1.34-.76-.09c-.24,1.74-.47,3.48-.76,5.62.79-.26,1.62-.36,1.65-.57a13.28,13.28,0,0,0-.08-2.52c1.46.27,2.7-2.24,2.12-5.38Zm-7.65-36.57c-2.07,1.66-2.1,3.55-.88,5.67C366.89,173.72,363.53,171.33,364.07,169.51Zm5.72-6.35.77.31a37.67,37.67,0,0,0,1.71-3.93c.14-.46-.38-1.13-.6-1.71-.49.43-1.28.79-1.41,1.3A31.66,31.66,0,0,0,369.79,163.16Zm-2.46,55.77-.74.34L369,223.1C370.75,220.64,370.75,220.64,367.33,218.93Zm-86.28,309a6.8,6.8,0,0,0,4.19-6.4Zm22.36-51.53,1.08,0,.58-5.12-2.59.4,1.39,2.42ZM802,303.86c.86-.53,2-.85,2.5-1.62a17.58,17.58,0,0,0,2.12-5.55l-1.65,1.21L801,295.53c2.94-3.84,5.75-7.38,8.39-11,1.76-2.43,3.2-5.08,4.92-7.53,1.35-1.93,2.94-3.7,4.38-5.57,2-2.58,3.64-5.46,5.91-7.73,2.52-2.52,4.15-5.59,6.26-8.35,2.66-3.46,5.5-6.78,8.39-10,4.9-5.51,9.91-10.94,14.87-16.4,2.48-2.74,4.51-6.34,7.58-8s4.19-4.6,6.81-6.31a61.8,61.8,0,0,0,5.71-4.69l-.6-.76c-2.07,1.63-4.11,3.29-6.22,4.88-1,.77-2.26,1.29-3.22,2.12-.65.57-.87,1.62-1.49,2.25-2.54,2.56-5.19,5-7.74,7.56-1.92,1.92-4.07,3.48-5.72,5.85-2.28,3.29-5.71,5.78-8.57,8.68-.84.85-1.32,2-2.12,2.93a30.93,30.93,0,0,1-2.75,2.48c-.29.26-.87.49-.86.71.07,1.89-1.42,1.65-2.53,1.92-.39-.19-1.07-.62-1.14-.54-1.19,1.46-2.31,3-3.45,4.51l.63.51,4-4.54c-.1.74,0,1.67-.35,2.2-1.11,1.5-2.43,2.83-3.67,4.23l-2.58.05c.11-1.62-.39-3.67.42-4.78a145.55,145.55,0,0,1,9.38-11.25c3.25-3.61,6.7-7,10.08-10.54,5.59-5.78,11.15-11.6,16.81-17.32a88.35,88.35,0,0,1,7-6.29c1.2-1,2.78-1.51,4.09-2.4,3.79-2.58,7.44-5.36,11.3-7.83a91.74,91.74,0,0,1,10.31-5.82c6.2-2.89,12.52-5.53,18.83-8.16,3.64-1.51,7.37-.52,11,.15,1.09.2,2,1.44,3,2.26-.11.69-.23,1.49-.36,2.28h-3.28c.83,1.62,1.56,3,2.48,4.8.21-.68.29-1,.37-1.24.21.36.67,1,.59,1-1.29,1.34-.81,4-3.39,4.4-.37.06-.77.61-1,1-1.78,3.47-4.82,5.48-8.14,7.19-.07,0-.21,0-.22.08-.88,3.75-5.41,3.62-7,6.6a3.72,3.72,0,0,1-1,1.36,5.37,5.37,0,0,1-1.54.51c-1.58,1.18-3.05,2.19-4.42,3.33a37.62,37.62,0,0,0-2.7,2.66c-1.82,1.88-4.22,3.09-5.64,5.51-.65,1.11-3,1.21-3.7,2.32-1.43,2.24-5.18,1.65-5.61,5-.08.65-1.25,1.19-2,1.72-1.88,1.42-3.84,2.74-5.66,4.23-3.39,2.78-6.83,5.51-10,8.52-2,1.95-3.48,4.54-5.48,6.54-1.72,1.72-2.83,3.82-5.2,5.23-2.67,1.59-4.34,4.87-6.43,7.43s-3.94,4.95-6,7.36c-.87,1-2.06,1.76-2.88,2.79a15.73,15.73,0,0,0-1.27,2.75,13.86,13.86,0,0,1-1.52,2.72c-1.86,2.27-3.83,4.45-5.74,6.68a11.52,11.52,0,0,0-.64,1A23.52,23.52,0,0,1,829,289.2l-4.22,6.41c.4,1.25-.41,2.42-2.12,3.74-1.94,1.5-3.36,3.7-4.9,5.67s-2.84,3.84-4.21,5.79q-4.56,6.54-9.09,13.1c-2.47,3.56-5,7.11-7.39,10.7-1.83,2.69-3.67,5.38-5.35,8.16-3.27,5.41-6.44,10.89-9.64,16.34-1.72,2.92-3,6.28-5.26,8.67s-2.92,5.61-5.09,7.79c-3.07,3.07-4.23,7.19-6.55,10.66a108.33,108.33,0,0,0-6,10.1c-2,3.8-4.59,7.37-5.3,11.77a1.46,1.46,0,0,1-.15.46q-3,5.54-6.07,11.08c-.73,1.34-1.37,2.73-2.1,4.07-.87,1.58-1.52,3.45-2.79,4.62s-2.08,1.68-1.56,3.66c.28,1.1-.95,2.65-1.62,3.93-1.07,2-2.19,4-3.4,6-2.7,4.35-5.38,8.71-8.23,13-1.36,2-3.69,1.55-5.69,1.35-.43,0-.93-1.32-1-2.08a24.52,24.52,0,0,1-.05-3.64h-.68c0,1.43,0,2.85,0,4.27a1,1,0,0,1-1.81.57,4.92,4.92,0,0,1-.93-2c-1-6.7-2.31-13.38-2.68-20.12-.28-5,.58-10.08,1.17-15.11C717,411,718,403.8,719,396.65c.74-5.22,1.72-10.41,2.35-15.65.56-4.62.66-9.3,1.17-13.93.58-5.27,1.44-10.51,2.09-15.78.52-4.3.86-8.62,1.37-12.92.21-1.76.64-3.5,1-5.24.71-3.69,1.36-7.38,2.16-11.05,1.43-6.53,3.25-13,4.36-19.59a62.72,62.72,0,0,1,4.87-15.43c.52-1.16.2-2.66.56-3.92,1.26-4.41,2.45-8.86,4.07-13.14.7-1.84,1.51-3.4,1.33-5.52-.1-1.11,1.28-2.31,1.92-3.52.86-1.63,1.65-3.31,2.48-5l-.71-.35-1,1.23-.29-1.62,3-3.95c-1-2.49.13-3.83,3.37-3.92-.13,1-.25,1.88-.4,3l-1.62-.27c0,.12-.05.27,0,.34,1.32,1.72,1.44,3.14-.83,4.22-1,.48-1.34,1.17.07,1.79.49.22.78.89,1.19,1.39,3.63-2,5-5.68,3.6-9.85-.3-.94.26-2.16.45-3.39l5.83,2.13a13.62,13.62,0,0,0-1.12-3.29c-1.72-2.36-1.64-2.89.54-4.93a24,24,0,0,0,2.59-3.73c.16,2,.59,3.65.33,5.12s-1.19,3-1.39,4.84l1-.61c1.06,2.41-1.63,3.12-2.33,5.07l1.58-.28q-.74,4.86-1.47,9.63h-1.94l.92,1a28.11,28.11,0,0,1,0,4.88,63.68,63.68,0,0,1-1.82,6.3,17,17,0,0,0-.56,1.8c-.49,2.58-1,5.17-1.39,7.76-.75,4.82-1.45,9.65-2.16,14.47-.28,1.9-.53,3.79-.8,5.69-.77,3.78-2.81,7.39-1.82,11.41a19.15,19.15,0,0,0,.84-3.77c.34-2.57.62-5.14.92-7.71.71-2.11,1.53-4.19,2.11-6.33.79-2.91,1.47-5.85,2.07-8.8.48-2.34.79-4.72,1.17-7.08l.79.12c-.73,4.35-1.48,8.68-2.17,13-.35,2.21-.5,4.45-.87,6.66-.75,4.41-1.67,8.79-2.38,13.2-.64,4-.52,8.21-1.77,12-1.89,5.75-1.54,11.64-2.28,17.44-.28,2.14-.86,4.23-1.22,6.35-.19,1.11-.2,2.26-.31,3.39-.05.55,0,1.43-.24,1.61-3.42,2-1.44,5.41-2.16,8.09a63.56,63.56,0,0,0-1.24,7,38,38,0,0,0-.68,5.7c0,3.11.22,6.22.51,9.32.06.56.91,1,1.65,1.83-3.35,2.1-2.83,6.17-3.86,9.69l.9.32c.58-1.65,1.15-3.31,1.79-5.12,1.25.39,2.29.79,2.58-1.78s2-5.15,3-7.74c.43-1.12.41-2.44,1-3.46,2.26-4.08,4.88-8,6.92-12.17a10.19,10.19,0,0,1,2.7-3.63c.35-.3.8-.87.73-1.22-.7-3.36,2.44-4.76,3.56-7.18,1.54-3.31,4.51-5.82,5.18-9.65.18-1,1.21-1.87,1.81-2.82,2.28-3.61,4.59-7.2,6.8-10.85,2.72-4.51,5.33-9.08,8-13.6.81-1.35,1.73-2.63,2.64-3.92,1.19-1.7,2.41-3.38,3.57-5l2,.83c-1.92-3.82,2.23-4.06,2.61-6.09l1-.68c.29.66.58,1.33.86,2l-3.32,4.68.39.59,4.5-.45C801.67,305.77,801.81,304.81,802,303.86Zm-32.23,51.25-.75-.41c-.46.95-.7,2.15-1.44,2.79s-1.9.65-2.9.94l.92.62c-.17,1.32-.29,2.24-.4,3.16l.65.17Zm46.83-74.24c-2.61-.34-2,1.41-2,2.73,0,.58,0,1.17-.07,1.75.53-.1,1.23,0,1.56-.36a2.85,2.85,0,0,0,.68-1.67A16,16,0,0,0,816.55,280.87Zm-67.1,37.74-1.2,7.84C750.24,324.16,750.5,321.52,749.45,318.61Zm-8.2,89.28-1.32-.59q-1.12,3.68-2.23,7.35l.55.2ZM842.06,249.5l-1.68,2.37-.39-.64-2.52,1.25,1.69,1.45C840,252.41,843.06,252.63,842.06,249.5Zm-92.13,17.05c-2.57,1-2.88,2.9-.79,5.38C749.42,270,749.66,268.4,749.93,266.55Zm-2-.26c1.84.18,2.71-.56,2.48-2.17-.08-.53-1-.95-1.48-1.41C748.57,264.12,748.31,265,748,266.29ZM783.48,328v4.17l.39.14c.67-1.66,1.34-3.33,2.19-5.46Zm-25.93-59.87-1.17-.1a16.69,16.69,0,0,0-.5,2.95c0,.35.71.7,1.67,1.58Zm163.63,119.2c.35-.15.82-.21,1-.48a43.62,43.62,0,0,0,3.61-4.8c1.66-2.83,3.08-5.8,4.63-8.7a11.76,11.76,0,0,1,.95-1.31c2.25,1.82,3,4.86,2.11,8.19L932,379c-.72,2.16-2.93,3.79-1.38,6.6.39.72-.68,2.66-1.56,3.56-1.27,1.29-1.93.28-2.05-1.44l-3.2,4.68,1.75,1.11c-2.13,3.22-4.1,6.44-6.34,9.46-.62.83-2.36.79-3,1.6-3,3.69-5.85,7.55-8.79,11.31-.67.86-1.57,1.55-2.3,2.37-1.7,1.93-3.31,3.94-5.06,5.83a34.72,34.72,0,0,1-2.9,2.48,29,29,0,0,1-2.67,2.3,7.47,7.47,0,0,1-3.24,1.58c-1.74.1-2.36,1.08-2.91,2.38l-.4.48-7.76,3.21c.53,2.15-2,1.85-3.32,2.81-.32.24-1.16.13-1.22.34-.66,2.25-3.09,2.16-4.5,3.44-.85.78-2.43.72-3.63,1.17-2.27.82-3.78,3.14-6.63,3-.89-.05-1.86,1.36-2.79,2.1l.25.57,7.62-2L864.56,451c-.84-1.9-1.86-1.65-3.39-.69a43.36,43.36,0,0,1-6.53,3.09,8.83,8.83,0,0,1-2.55.29c-.61.06-1.34-.08-1.8.21-1.54.95-3,2.05-4.94,3.46l3.71-.52c.19,1.38.16,2.12-1.84,1.65-1.08-.26-2.57.67-3.71,1.36-2.47,1.49-5,.76-7.57.55a43.87,43.87,0,0,1-7.32-1c-4.38-1.11-9.06-1.49-12.81-4.47a1.81,1.81,0,0,0-1.61-.17l1.19,1.78c-.86-1.06-3.23-.4-3-3,.06-.67-2.15-1.46-3.19-2.35a11.61,11.61,0,0,1-2.4-2.7,7,7,0,0,1-.35-2.6c-4.86-1.78-4.53-6.24-5-10.55-.5-5.11-1.69-10.16-2.14-15.28a75.65,75.65,0,0,1-.05-12.86,115.46,115.46,0,0,1,2.27-14c.29-1.36-.18-2.63,0-4,.3-2,1.79-2.77,2.37-4.45-.44-.41-.93-.84-1.41-1.28l.19-.28,1.59.83c.23-2.14.38-4.13.68-6.1a11.45,11.45,0,0,1,.88-2.71c.16-.36.64-.58,1-.87-.26-.21-.76-.52-.72-.61a24.92,24.92,0,0,1,1.41-2.95c2.09-3.56,4.18-7.11,4.88-11.28a3.15,3.15,0,0,1,.85-1.23,22.86,22.86,0,0,0,2.05-2.26,2.66,2.66,0,0,1,1.9-1.42c1-.22,1.74-1.68,2.59-2.6l-.64-.71-2.11,1.36a9,9,0,0,1,5.37-7.88c.71-.29,1.11-1.31,1.65-2l-.68-.56-1.27,1.44c-.43-2.11,1.15-4.55,3.05-4.86.42-.06,1.07-.17,1.2-.45,1-2.18,1.93-4.41,2.84-6.52.77.77,1.88,2.31,3.53.26-1.07-1-2.26-1.91,0-3,.72-.36,1-1.49,1.65-2.41h-1.33c1.13-2,2-4.33,3.5-6,3-3.27,6.43-6.18,9.76-9.16.33-.29,1.33.22,1.73-.06a4,4,0,0,0,1.4-2.21l-2.19,1.24c.19-3.11,18.12-21.47,19.84-21.49l7.45-7.65.78.71-1.71,1.94.44.54,5.43-5.07c-.33-.45-.79-1.05-1.27-1.71a16.76,16.76,0,0,0,3.21-.27,2.3,2.3,0,0,0,1.36-1.32c.67-2,4.14-4.73,5.5-4.65a12.25,12.25,0,0,1,2.09-2.62c3.66-2.43,7.46-4.66,11.13-7.08,4.94-3.26,11.24-6.1,15.18-6.44a41.46,41.46,0,0,0-4.47,1.58,13.26,13.26,0,0,0-3.79,2.81c3-1.09,6-2.2,9.06-3.26,1.89-.67,3.8-1.32,5.72-1.89a2,2,0,0,1,1.64.12c1.93,1.7,3.2.31,4.87-.59a6.75,6.75,0,0,1,4.7-.56c2.91.91,5.1,3,7.4,5.12,3.65,3.42,3.43,7.51,4.23,11.75.65,3.43-.46,6.43-.7,9.56-.36,4.53-1.82,9-3,13.45s-4.5,7.13-7.36,10.27c-3.62,4-7.32,7.82-10.87,11.82-4.28,4.83-8.32,9.87-12.69,14.6-3.18,3.45-6.19,7.18-10.91,8.88-1.42.51-2.54,1.84-3.8,2.79l-.58-.59,2-.66-.72-.83-2.92,1.16c-.37-1.81,3.41-1.14,1.59-3.32-3.62,2-7.22,4-10.83,6q-4.21,2.28-8.47,4.5c-4.08,2.12-8.15,4.26-12.28,6.29a17.37,17.37,0,0,1-3,.67,12.58,12.58,0,0,0-3.79,1.3c-3.23,2.23-3.17,2.32-7.18,1.6a7.1,7.1,0,0,0,1.82-.62,15.67,15.67,0,0,0,2-1.84c-.58-.47-1.18-.93-1.74-1.43-1.5-1.35-3.09-2.36-4.9-.61a9.48,9.48,0,0,0-1.83,2.66q-3.68,7.59-7.23,15.25c-1.74,3.74-3.66,7.42-5,11.3-1.65,4.67-2.89,9.5-4.12,14.3-1.34,5.16-2.52,10.36-3.66,15.57a54.47,54.47,0,0,0-1.59,9.24c-.17,4.15.38,8.32.35,12.48a17.07,17.07,0,0,1-1.22,4.63c-.9,2.9-.07,5.41,2.68,6.46,4.1,1.56,8.2,3.35,12.78,3a1.71,1.71,0,0,1,1.17.2c1.89,1.82,3.82.43,5.54-.1,4.6-1.43,9.12-3.14,13.64-4.84,1.53-.58,2.9-1.6,4.44-2.15.89-.31,1.8-2.38,3.12-.21.17.29,2.2-.54,3.93-1l-2-.77c.45-.41,1-1.15,1.2-1.07,2.79,1.23,4.52-.77,6.52-2a57.92,57.92,0,0,0,6-3.74c1-.78,1.29-2.31,1.92-3.5.11-.2.32-.5.5-.51,4.06-.24,5.54-3.86,7.88-6.2,4.33-4.35,8.31-9,12.39-13.63a18.49,18.49,0,0,0,2.16-3.1c.9-1.57.84-1.61,2.42-1.27,2.79-1.49,4.25-3.95,6-6.65,0-.21-.2-.88-.24-1.07,1.43-1.94,2.74-3.54,3.84-5.28a38.77,38.77,0,0,0,2-4.09Zm8.76-127.65a13.78,13.78,0,0,1,2.32-1c1.65-.39,3.34-.64,5.46-1-3.41-1.53-6-.36-8.62.89l.84,1.12a7.07,7.07,0,0,0-6.8,1l.14.65ZM905,331a8.66,8.66,0,0,0-5.34,4.32l3.36-1.19c4.61-1.73,7.62-5.31,10.39-9.18-1.66,2.72-5.57,2.64-6.94,5.75C906.34,331,905.5,330.94,905,331Zm29.15-62.1c-.3-2.38-1-4.68-.77-6.92s-.66-2.13-2-1.63c-2.61.95-5.4,1.7-7.7,3.18a138.54,138.54,0,0,0-13.92,10c-3.48,2.92-6.39,6.52-9.55,9.83-2.37,2.49-4.87,4.87-7,7.52-3.41,4.15-6.53,8.54-9.88,12.74-3.94,4.93-8,9.76-12,14.66-3.16,3.87-6.38,7.71-9.4,11.68-2.58,3.4-5,6.95-7.35,10.49-1.58,2.35-3,4.8-4.28,6.82,1.3.29,2.39.6,3.5.75.39.05,1.19-.26,1.19-.43.09-2.94,2.59-2.71,4.38-3.55,2.09-1,4-2.26,6-3.42l-.27-.52-3.91,1.61a53.49,53.49,0,0,1,8.64-6.9c3.66-2.32,7.6-4.2,11.3-6.47a41.49,41.49,0,0,0,6.81-5c1.66-1.56,3.08-3,5.48-3.66a12.42,12.42,0,0,0,4.79-3.11c2.11-1.93,3.86-4.25,6-6.18,2.27-2.07,4.77-3.91,7.21-5.8a32.61,32.61,0,0,1,3.42-2.26c.3-.18.81,0,1.23,0-.16.4-.32.8-.45,1.22,0,.08.12.21.24.41l1.6-1.28c-1.39-1.35-1.36-2.6,0-3.85,2.13-1.92,4.58-3.52,5.44-6.58.29-1,1.48-1.84,2.65-3.19l2.61-2c-1.21-1.6.44-2.46.9-3.67,1-2.76,2-5.58,2.84-8.4.57-1.8,1-3.64,1.47-5.46l.7.08-.9,7.84.67.13c.63-3.08,1.27-6.16,1.9-9.24l-.59-.15Zm4.11-3.62c.14-1.39,0-2.35.35-2.93.7-1,.84-.92-.19-1.52a12.72,12.72,0,0,0-1.15-.82c-.73-.33-1.49-.57-2.24-.84-.19.93-.77,2-.47,2.76.44,1,.91,1.7,0,2.74-.23.25.4,1.45.86,2.05a15.77,15.77,0,0,0,2.05,1.91c2.38-.72,2.79-2.78,2.14-5.61Zm-22.88,1.45c-4.26.86-11.87,6.84-13.67,11ZM827.52,456.55c4.36,1.6,8.66,3.26,13.26,1.3Zm-9.81-8.29-.61.39c.25.57.36,1.5.77,1.67,1.67.66,3.44,1.08,5.17,1.59v-.48ZM927,306.59l.66.69c1.5-1.76,4.17-2.36,4.9-4.86l-.51-.53ZM374.43,293.38l-.61-5.11a42.8,42.8,0,0,1,3.14-4c.48-.5,1.49-.48,2.54-.78a49.35,49.35,0,0,1,2.88-4.71c.29-.39,1.46-.14,2.57-.2l-2-2.39,2.23.65,2.23.61c.15-1,.3-2,.47-3,.06-.39.06-1,.3-1.12,2.72-1.74,5.47-3.42,8.74-5.44a23.25,23.25,0,0,0-1.6,3c-.07.19.71,1,.94,1a49,49,0,0,0,5.26-1.73c.38-.15.55-.84.82-1.28a7.79,7.79,0,0,0-2-1.12c-.69-.15-1.48.15-2.3-.08,3.32-2.29,6.54-4.59,10.84-4.28.67.05,1.43-1,2.12-1.57.45-.39.85-1.13,1.3-1.15s1,.65,1.49,1a13.76,13.76,0,0,0,2,1.1c.24.1.74-.31.91-.19,2.14,1.53,3.56.89,4.55-2.29,0,4.44,3.08,3.93,5.45,4.69l-2.67,1c2.42,1.25,4.19,3.22,6.89,2.13a21.16,21.16,0,0,0,2.94-1.76l-.25-.74,3.13.86-2,.53c.47,1,.9,1.93,1.53,3.29,4.65-.92,6.06,4,9.59,6.12,2.23-1.14,2.58,1.35,3.56,2.55,1.16,1.41,2,3.07,3.07,4.56.24.33.83.4,1.26.58l1.71.68-.29.54L453.56,284c1.09,2,.8,4.14,3.48,4,.38,0,.84,1.2,1.71,1.56-2.86-5.84-5.12-12.06-10.55-16.45l2.31.34L451,273l-2.75-3.18.1-.32,11.59,5.61-2.57-4.43.18-.36a11.26,11.26,0,0,1,2,1.8c3.49,5.16,7.13,10.23,10.26,15.61,2,3.49,3.27,7.44,4.87,11.19l1.67,3.87-1.54,1.73a21.66,21.66,0,0,1,1.93,3.37c.63,1.67,1.84,4,1.19,5.08-1.54,2.57.1,4.39,1.07,5.81s.7,2.81.86,4.16a76.59,76.59,0,0,1,.37,8.16,34.68,34.68,0,0,1-.36,7.07,4.66,4.66,0,0,0,.24,3.58c.18.33.39.92.24,1.13-2.31,3.11-.93,6.77-1.51,10.14-1,5.7-1.18,11.53-2.14,17.24-.67,4-2.05,7.92-3.12,11.88l-2.73,10.22,1.46-.13.36.44c-.78.76-1.56,2.15-2.34,2.15-1.83,0-1.63,1.19-.91,1.63,2.05,1.24.39,2.52.08,3.49a4.51,4.51,0,0,1-2.41,2.72c-2.43.72-1.55,3.2-2.83,4.47-.24.24.6,1.38.4,1.87a23,23,0,0,1-2.37,4.29,25.29,25.29,0,0,1-2.69,2.87l-2.74.44,1.05,3.74.91.05c-1.84,2.51-3.7,5-5.52,7.52-2.16,3-4.24,6.08-6.45,9.06-.95,1.27-2.15,2.36-3.21,3.56q-7,7.86-14,15.73c-1.55,1.76-3,3.6-4.52,5.39a1.77,1.77,0,0,1-.66.57c-1.19.37-2.39.69-3.81,1.09.09.11-.14-.2-.33-.47-.58,1.28-1.12,2.4-1.59,3.55-.34.81-.32,2-.9,2.45a49.42,49.42,0,0,1-8.23,5.25l5.36-4.45-.34-.42c-2.87,1.88-5.69,3.85-8.63,5.61-7.83,4.71-15.61,9.53-23.62,13.9-5.92,3.22-12.18,5.81-18.31,8.64a19.68,19.68,0,0,1-2.56.69c-5.66,1.79-11.38,3.4-16.93,5.48-3.11,1.17-5.89,3.2-8.88,4.71A44.89,44.89,0,0,1,331,510v-1.61l-4.81,2.27.52-1.78c-.45.09-.83.06-1,.23-1.44,1.28-2.73.45-3.55-.61-.32-.4.27-1.89.84-2.53a43.16,43.16,0,0,1,3.92-3.45l2.28-2-.51-.7-8.42,5.82c1.56-5.33,6-6.73,9.38-9.24q4-3,8.1-5.71a36.48,36.48,0,0,1,5.66-3.3c4.5-1.93,9.15-3.52,13.65-5.45,4-1.73,7.95-3.75,11.92-5.63a14.41,14.41,0,0,1,2.24-.91c6.37-1.74,10.74-6.46,15.84-10a9.6,9.6,0,0,0-2.77-.4c-.52.1-.93.87-1.38,1.35-.1.1-.15.28-.26.34Q375.31,470.35,368,474c-2.14,1.09-4.23,2.26-6.4,3.29a38.14,38.14,0,0,1-4,1.39l4.07-4.17a5.62,5.62,0,0,1-.34-1.19c1.27-.66,2.64-1.17,3.89-1.87q8.06-4.47,16.06-9a134.9,134.9,0,0,0,22.57-16.3c1.51-1.32,2.68-3.25,4.4-4.1,4.09-2,5.41-6.2,8-9.36a120.07,120.07,0,0,0,10.31-14.83c4.36-7.46,8.36-15.14,12.14-22.92a101.67,101.67,0,0,0,5.05-13.53,141.94,141.94,0,0,0,3.83-14.14c.88-4.2,1.14-8.52,1.82-12.77.18-1.16,1.2-2.22,1.28-3.37.47-6.25,2.29-12.35,1.7-18.71-.49-5.21-.48-10.48-1.15-15.67a108.91,108.91,0,0,0-2.7-12c-.81-3.27-1.76-6.5-2.67-9.75a8,8,0,0,0-.86-2.47c-2.37-3.29-2.05-7.46-3.71-11-.45-.95.5-2.47.35-3.66-.46-3.46-3.11-4.8-6-5.76a10.56,10.56,0,0,0-2.52-.71c-.46,0-.95.53-1.43.83l.34.75a16.45,16.45,0,0,0-3.93-.28c-3.78.63-7.19-.75-10.71-1.58a10.79,10.79,0,0,0-2.27,0c-.5,0-1-.09-1.49-.06a22.11,22.11,0,0,0-3.83.4,41.5,41.5,0,0,0-4.52,1.79l1.67.83c-.23.25-.3.39-.41.44l-7.7,3.71,1.72-2.26c-.7.11-1.4.27-2.1.34-1.21.14-2.42.22-3.39.31l1.65,2.22c-2.52,1.66-4.89,3-7,4.71a39.2,39.2,0,0,0-4.37,4.37c-.92,1-1.66,2.17-2.58,3.17s-2.18,2.45-2.86-.31l-1.45,1.09-.47-.44,2.33-3.9c-1.39.58-2.55.7-3.06,1.34a36.59,36.59,0,0,0-2.7,4.47Zm28.69-25.11L418,266.08A13,13,0,0,0,403.12,268.27ZM383.74,463.48l-.52-.7L372.33,469l.43.71ZM556.22,301.56c2,4.18-2.23,3.38-3.81,4.64.51,1.2,2.33,2.5-.42,3.11-.18,0-.33.35-.42.56-1.29,3-3.94,4.44-6.8,5.91,1.65,2.42-.64,3.56-1.71,5.16a8.1,8.1,0,0,0-.73,1.58c0,.11.19.36.14.44-1.26,2.1-2.55,4.19-4.15,6.78.24,1.82-1.74,4.75-4.14,5.23-.48,2.17.08,4.84-2.89,5.82-.31.11-.58.79-.6,1.21-.23,3.84-2.52,6.75-4.33,9.88-.64,1.11-1.14,2.3-1.68,3.46-2.55,5.4-5.3,10.73-7.53,16.26-1.22,3-1.52,6.45-2.28,9.68-.24,1-.69,2-1,3-2.44,9-4.94,18-7.24,27-1.87,7.36-3.4,14.81-5.24,22.17-1.52,6.06-3.13,12.1-5,18.06-2.52,8.06-5.15,16.1-8.05,24a106.52,106.52,0,0,1-6.41,14.2c-1.33,2.45-3.57,4.47-5.66,6.41-.57.53-2.16.34-3.1,0s-1.59-1.21-.2-2.17c.3-.21,0-1.23-.52-2.17l-2.35,2.76c.23-1.18.52-2.23.62-3.3,0-.38-.4-.8-.63-1.2a8.82,8.82,0,0,1-1.2.66c-.62.22-1.28.35-2.41.64a12.94,12.94,0,0,1-.71,2.93c-.28.6-1.18.92-1.8,1.37a4,4,0,0,0,.48-1.26c0-.93-.07-1.87-.16-3.4-3.29-2.27-1.37-6.05-.91-9.59l-.77,0c-.47,3.71-.94,7.43-1.45,11.42-.32-.6-1.1-1.37-1-2,.54-4-.31-8.15,1.9-11.89a3.62,3.62,0,0,0-.29-4.58c-.1-.12.47-.86.76-1.29.14-.22.47-.36.53-.58,1-3.93,2-7.85,2.83-11.81.11-.52-.89-1.57-.72-1.74,1.75-1.77.18-4,.85-5.9s.82-4.37,1.29-6.55c.34-1.64.87-3.24,1.26-4.88,1-4.38,2.08-8.77,3-13.17,1.39-6.46,2.73-12.94,4.06-19.41,1-4.93,2-9.86,2.91-14.81.17-.91-.2-1.93,0-2.83a29.12,29.12,0,0,1,1.37-3.9c1.11-2.88,2.69-5.61,2.38-8.89-.05-.54.48-1.13.68-1.71a4.84,4.84,0,0,0,.61-2.14c-.48-2.84.9-5.18,1.76-7.7s1.35-5.27,2.05-7.9c.94-3.5,1.86-7,2.9-10.46,1.55-5.17,2.87-10.44,4.91-15.41a85.19,85.19,0,0,0,3.9-11.22c.81-3.22,2.82-6.07,3.36-9.09.71-3.92,3.12-7.14,3.49-11.13.17-1.94,1.53-3.78,3-5.68a6.61,6.61,0,0,1,0,2c-1.41,4.1-3,8.14-4.32,12.28-1.22,3.88-2.06,7.87-3.18,11.78-.4,1.39-1.23,2.66-1.68,4q-3.33,10.16-6.56,20.34c-1.73,5.46-3.52,10.91-5.06,16.43-1.13,4-1.9,8.17-2.83,12.26a.75.75,0,0,1-.12.21c-3.05,4.78-2.26,10.53-3.93,15.7-1.44,4.47-1.75,9.3-2.67,13.95-1,4.94-2.12,9.84-3.09,14.78-.77,4-1.35,8-2.07,11.95-.9,4.94-1.85,9.87-2.78,14.8l.67.14c1.19-5.5,2.29-11,3.59-16.49,1.24-5.17,2.81-10.26,4-15.44.93-4,1.4-8.2,2.24-12.26s1.88-8.16,2.87-12.22c1.65-6.8,3.17-13.63,5-20.37s4.07-13.19,6.12-19.79c1.86-6,3.69-11.94,5.57-17.9,2.41-7.63,4.79-15.27,7.33-22.86,2-6,4.44-11.83,6.33-17.85,1.59-5.07,2.68-10.3,4-15.46l.47-1.88a52,52,0,0,1,1.59-5.69,11.64,11.64,0,0,1,2.09-2.68h0l-1.47,7.5c-.58,3-1.12,6-1.76,9a60.6,60.6,0,0,0-1.43,7.82c1.33-4.25,2.19-8.67,6.46-11.76l-2.26-.35c.12-1.13.17-2.16.33-3.17a36.55,36.55,0,0,1,1.06-5.63,69.72,69.72,0,0,1,4.67-11c-.58,2.41-1.15,4.81-1.73,7.22l.52.23q1-2.28,2-4.56c.77-1.78,1.54-3.57,2.33-5.34.7-1.61.91-3.63,3.16-4.13.21,2.54.42,5,.62,7.39l.7.19a21.87,21.87,0,0,1,1.63-2.67,14.22,14.22,0,0,1,2.08-1.73c-.79-.84-1.72-2,.35-3.16.25-.14-.05-1.28-.1-2l2.71-.38c.72,4.17,2.64,8.43-.3,12.78-.45.66.33,2.16.5,3.1-.55.38-1.52.76-1.52,1.12,0,4.14-1.81,8-1.93,12.09-.1,3.39-.59,6.76-1,10.13a7,7,0,0,1-.71,1.71c-.24.54-.77,1.13-.69,1.63.67,4.06-1,7.69-2,11.44q-1.71,6.15-3.26,12.33c-.09.36.2.86.4,1.25.35.69.77,1.35,1.4,2.44,1.22-3,2.47-6,3.71-9.09l.79.35-.76,1.59a1.23,1.23,0,0,0,.05.21c.9,2,.51,1.72-1,3.94-2.54,3.9-4.56,8.14-6.8,12.23a19.81,19.81,0,0,0-1.73,3.19,45.34,45.34,0,0,0-2,8.52l1.7-3.57.36,0-.43,2.82c.89-1.13,1.52-2,2.25-2.89l-2.06-1.38h4.52c.13-1.42.29-3.25.47-5.17,2.17-.18,5.1-5,4.24-8.11l2.41-.81L537.64,320c1.07-1.39,2.19-3.86,3.11-3.79,1.76.15,2.24-1,3.32-1.56,2.24-1.14,1.89-3.94,3.67-5.32.34-.26.55-.89.87-.93,3-.38,2.62-2,1.4-4.12,2.84.4,1.65-1.77,1.8-2.41l4.47-.23Zm-28.5-14.74c.49-.48,1.27-.88,1.43-1.46a68.93,68.93,0,0,0,1.64-7.38c.6-3.75,1-7.54,1.49-11.31.16-1.21.35-2.41.53-3.62-1.24,1.49-2.72,3.24-2.47,4.69.55,3.14-1.15,3.08-3.35,3.46l2,1c-2.49,2.31-2.49,2.31-.88,4.7a33,33,0,0,0-1.26,5.09,27,27,0,0,0,.4,4.72c-.73.94-1.48,1.88-2.18,2.85-.83,1.13-.91,2.18.41,3.06.58.38,1.1.85,1.81,1.42.44-2.21.89-4.25,1.23-6.32C528.54,287.5,528,287.14,527.72,286.82Zm-1.93,7.7c-3.16-.21-1.31,3-3.22,3.74C525.35,298.8,526.16,297.74,525.79,294.52Zm-14.41,11.26,1.41.35,1-4.55-.9-.22Zm129-79.56,2.46,1c3.5-1.26,6.87-2.43,10.19-3.71.4-.15.57-.88.86-1.33s.5-.74.42-.63c1,.46,1.76,1.17,2.35,1,2.07-.49,4.08-1.25,6.77-2.12l-2.35-.58c1.74-1,1.64-4.47,4.81-2.7,0-1.09,0-1.14-3.72-1.74-1.59-.26-3.21-.27-5.5-.45a29.71,29.71,0,0,1,4.17-1.66c5.53-1.19,11.08-2.27,16.63-3.37,2.08-.42,5.25.93,6.24,2.93-3-1.86-5.61-1.66-7.71.56,2.74,3.7,7,1.77,10.92,2.34.05.49-.07,1.27.17,1.41,3.32,1.86.61,4.13.27,6.09-.1.64-1.84,1.45-2.81,1.42-4.69-.16-9.29,1.62-14.07.46-1.3-.32-3.06.34-4.33,1.05-2.42,1.34-4.33.52-6.31-.8a2.23,2.23,0,0,0-2.92-.08c-1.19.76-3,.51-4.69.73-.05.89.65,1.25,4.57,1.51-1.79,1.29-2.69,3-5.38,2.51-1.83-.31-4,.86-5.92,1.67s-3.9,2.16-5.9,3.13c-3.2,1.55-6.48,2.92-9.67,4.47-1.48.71-2.79,1.76-4.26,2.49-2.78,1.38-5.67,2.58-8.43,4a11.17,11.17,0,0,0-2.42,2.21c-1,1-1.74,1.45-2.88,0-.77-1-2.11-1.48-3.42-2.34,1-.68,2.21-1.46,3.38-2.29.43-.3,1.18-.83,1.12-1-.62-1.91.22-2.55,2-2.58,1.16,0,2.32-.1,3-.14l5.08-3.66.55-2.3,2.63-1.08c.78-.11,1.56-.27,2.35-.32a14.43,14.43,0,0,1,1.66.08c-.31-1.37-.5-2.23-.7-3.09l.57-.05c.33.27.71.81,1,.76s.72-.57,1.09-.87c.69-.56,1.38-1.15,2.11-1.65.38-.26,1-.24,1.29-.54,1.22-1.21,2.42-2,3.94-.41.07.07.53-.22.81-.33Zm28.34-1.65c-1.08-3.14-1.55-3.25-3.27-1.2Zm-112.47,77,3,.34c.13-.58.07-1.31.41-1.72,3-3.61,6-7.17,9.09-10.74,1-1.22,2.51-2.25,3-3.65,1-2.45,2.84-4.05,4.45-5.89,2.06-2.35,4.46-4.4,6.55-6.73,3.59-4,6.44-8.78,11.52-11.32.3-.15.34-.81.51-1.23l.07.07a19.59,19.59,0,0,1-2.54-.76c-2.31-1-2.68-1-4.64.74l3.16.17A11.78,11.78,0,0,1,589,263c-1.9,1.16-2-1.59-4-1.65-1.61,4.39-7.49,5.77-8.6,10.4a23.92,23.92,0,0,0-2,2.12c-.3.38-.19,1.17-.53,1.4s-1.64.18-1.71.45c-1,3.77-5.72,5-6.15,9.49-.22,2.32-2.71,4.48-4.34,6.59a51.36,51.36,0,0,1-4.56,5.11c-1.49,1.46-2,2.92-.81,4.76Zm167.27,14.68c.3-1.92.6-3.85.91-5.77l.76.18c-.19.59-.38,1.18-.57,1.79,3,.08,2.69,0,1.89,2.95-1,3.63-1.5,7.4-2.15,11.12-.22,1.25-.19,2.56-.39,3.82-.82,5.21-1.81,10.39-2.49,15.62-.49,3.75-.52,7.57-.89,11.34-.51,5.14-1.18,10.27-1.72,15.41-.26,2.45-.3,4.92-.61,7.35-.34,2.69-.88,5.34-1.39,8.36l-1-1.5-2,1.19a20.47,20.47,0,0,0,1.2-3c.26-1.29.87-3,.32-3.88-1-1.72-.29-2.37.68-3L714.81,375l-.85,2.82-.26,0v-6.39l2.42,3.44c.63-2,2.44-3.89-.15-6.06-.52-.44.14-2.27-.19-3.57l-1,3.05-.54-.1,2.28-24,.94.08-.84,7.13.32.06c.36-1.22.44-2.65,1.14-3.65,2-2.91,1.91-6.36,2.59-9.57.82-3.87,1.07-7.85,1.68-11.77a7.52,7.52,0,0,1,1.11-3.37c1.48-1.94-.26-2.16-.85-2.56l.94-3.86Zm-8.28,47.54.82.21c.26-1.88.53-3.76.78-5.51.41,0,1.16.07,1.16,0,.21-2.27.37-4.55.53-6.84l-1-.1Q716.38,357.68,715.21,363.78Zm46.33-15.2a25.93,25.93,0,0,0,2.56-3.45c.76-1.46,1.56-2.08,3.47-.7l-1.63-2.4,1.74-2.33,2.35.73c1.64-3.17,3.23-6.22,4.82-9.27l-.66-.55-1.69,2.71-.7-.55c.05-3.74,4.93-4.79,4.71-8.68l1.1.46-1.93,4.24.59.33,6.79-10.73-2.78-1.57,4.7-5,.42.3c-.41.94-.81,1.89-1.22,2.83l.78.44,4.32-6.85-.81-.08-1.38-5.1c2.26-.33,4.15-.79,4.51-3.26.19-1.29.57-2.55.86-3.83a54.8,54.8,0,0,0-6.57,8.2c-1.13,1.68-3,3-2.41,5.6.16.7-.93,1.8-1.64,2.54-.53.57-1.63.68-2,1.28-1.5,2.29-2.87,4.68-4.2,7.08-1,1.72-1.79,3.53-2.66,5.3-.43.87-.83,1.76-1.34,2.83-1.17-.81-1.52.45-2,1.67a19.84,19.84,0,0,1-1.71,3.26,40.74,40.74,0,0,0-2.81,4,30.51,30.51,0,0,0-1.46,4.89C761.36,343,760.4,345.38,761.54,348.58Zm-49,54.47,2.07.8a4.77,4.77,0,0,0-1.16,1.09,4.92,4.92,0,0,0-.25,1.62c3.06.26,1.28,2.59,1.2,3.65-.19,2.65-1.16,5.24-1.6,7.9a29.91,29.91,0,0,0-.12,4.74v22.4c-3.69-4-4.31-9.6-4.76-15.25l.62-.14c.13,1,.26,2,.41,3.29.58-3.66,1.13-7.09,1.67-10.49l-1,.74C710.61,416.43,711.55,409.73,712.49,403.05Zm-2,38.56.35,0V435l-.69.07Zm-83.76-210c0-.48-.52-1.29-.38-1.39,1.8-1.4,3.63-2.77,5.55-4,.67-.43,2-.17,2.37-.69,1.7-2.32,4.53-2,6.73-3.09,3.17-1.59,6.5-2.88,9.76-4.27,1.25-.53,2.52-1,3.78-1.5l.61.56v-2.54c-1.33.69-2.61,1.83-3.18,1.55-2-1-3,.43-4.27,1.19a10.5,10.5,0,0,1-1.51.73c-4.15,1.6-8.3,3.18-12.46,4.77-1.76.67-3.86.93-5.22,2.08-3.24,2.73-7.66,3.58-10.53,6.81l-.07-.08,5.48-.27c-1,1.31-1,1.31.21,2.26l2.63-1.08C626.43,232.29,626.75,231.94,626.75,231.59Zm-32,29A5.84,5.84,0,0,0,597,260c2.65-2.09,5.09-4.46,7.84-6.4a49.06,49.06,0,0,1,6.53-3.28L610.12,249l-3.39,2.18-.78-2.76-5.13,1.95,1.46.94-.27.56-2.92-1c-.32,2.16-2.19,2.54-4,3.35-1.13.52-1.74,2.18-2.58,3.32l3.08.67c-.22.71-.5,1.61-.77,2.5Zm132.33,44.12c-.11.14-.77-.14-1.45-.28-.23,1.53-.45,3-.65,4.35l2.48,1.28c2.62-10.38,6.3-20.65,8.3-31.5a3.16,3.16,0,0,0-2.26,1.1,2.77,2.77,0,0,0,0,2c3.2.84.42,2.25.13,3-1.25,3.1-2.87,6-4.23,9.1-.54,1.21-1.84,2.61.08,3.84,0,0-.07.14-.19.4h-1.75C729,299.62,728.77,302.6,727.11,304.75Zm213.82,56.79c-.63-.62-1.23-2-1.67-1.92a4,4,0,0,0-2.51,1.63,27.9,27.9,0,0,0-2.8,5.86c-.35,1.06.11,2.38.22,3.88l2.54-4.38c.93.64,1.86,1.27,2.78,1.92.4.28.78.58,1.56,1.18C941.18,366.73,943.57,364.16,940.93,361.54ZM803,288.77c.84-1.37,1.59-2.61,2.34-3.85l-2-1.19c3.46-4.84,3.46-4.84,3.12-6.31-4.61,2-5.22,7-8.2,10.12l2.14.52,2.57-3.17Zm-48.75,72.74-3.1,1.35c-.74,1.37-1.2,3.15-2.34,4.15-2,1.73-2.67,4.12-1.2,6.39,3.75-1,.74-5.34,3.88-7.29.08,1.08.19,1.89.17,2.69a22.27,22.27,0,0,1-.3,2.44l.7.12c.45-1,.9-2,1.36-3l-.8-.13c.08-.7-.1-1.67.29-2,.86-.81.54-1.29.22-2.21-.21-.65.68-1.67,1.08-2.52Zm66.52-102c-.83.9-1.6,1.86-2.51,2.67a6.07,6.07,0,0,1-2.4,1.53c-1.45.34-1.87,1-1.23,2.44.1.23-.16.6-.13.89a12.32,12.32,0,0,0,.32,1.52l2.64-3.71.7.31-.9,3.24,1,.5,4.83-7.73-.27-.21L820,263.16l-.41-.35,1.85-2.73ZM618,231.81c-3,.59-5.79,1.62-7.39,4.59-.27.5-1.16.66-1.77,1L603,240.24l.34.77c2,.47,3.75-.28,5.41-1.48,2.5-1.79,5.12-3.4,7.56-5.25a9.14,9.14,0,0,0,1.63-2.55Zm-37.72,29c-3.13,1.33-6,2.81-7.26,6.42-.28.82-1.63,1.28-2.73,2.08.26,1,.26.9-1.35.9-.33,0-.71,1-.94,1.56-.09.21.29.58.25.85a11,11,0,0,1-.46,1.52c.61-.22,1.42-.26,1.78-.68,2.17-2.6,4.24-5.3,6.36-7.95a3.73,3.73,0,0,1,.72-.52l-.22,1.37.51.21,3.27-5.83ZM716.85,389.09l-.6-.16-1.78,2.32c-.65,3.85-1.23,7.23-1.77,10.42l2.44.76C717.08,398.1,715.86,393.46,716.85,389.09ZM884.32,439c-6.09,1.27-10.68,5.5-16,8.42C874.88,447,879.08,442,884.32,439ZM580.21,260.78h1.59l5.18-6c-2.05-.75-3.58-1.15-4.29,1.09a1.11,1.11,0,0,1-.63.66c-2.8.57-2.13,2.53-1.78,4.37Zm174,100.72c.87-1.34,1.83-2.64,2.62-4,.61-1.09,1-2.29,1.54-3.42.25-.55.56-1.07.84-1.59l-2-1c.11,1.14.17,1.8.23,2.46l-.51-.31a14.73,14.73,0,0,0-1.12,1.51c-.37.63-.62,1.33-.93,2-.65,1.39-2.6,2.6-.61,4.35Zm-.4-26q-1.15,6.66-2.32,13.34l.74.12c2.81-4.11.33-9.15,2.48-13.38Zm-1.3-93,1.39-.57c0-.8-.09-1.52-.14-2.25l.66-.23,1.29,1.88,1.19-2.58-2.58-1.1c.19-.42.44-1,.92-2.12C751.68,237.28,753.82,240.36,752.51,242.46Zm-409,240.69-10.33,5.7.46.88L344,484.24ZM821.34,256.67c.71.05,1.77.44,2.08.12,1.47-1.53,1.9-.45,2.49,1.17l2.5-3.07-2.58.05C822,253.88,821.68,254,821.34,256.67Zm75.17-72.28-.32-.57c-3.23,1-7.26.6-8.65,4.93ZM599.87,244.81a20.76,20.76,0,0,1,2.52-.12,1.28,1.28,0,0,0,.64-1.07c-.21-.62-.6-1.48-1.11-1.65-1.66-.53-4.55,2.32-4.16,4.41A9,9,0,0,1,599.87,244.81ZM921.18,387.32a21.16,21.16,0,0,0,1-2.42,24.38,24.38,0,0,0,.45-3.07c-4.1,4.52-4.1,4.52-3.9,6.79l2.5-1.39ZM438.84,260.4c-3.22-2.21-8.82-3.2-10.29-1.65Zm201.51-34.18c1.6-.42,3.19-.91,4.81-1.23,1.26-.24,2.62-.21,1.7-2.16L640,224.37c.09.47.22,1.16.36,1.85ZM374.43,293.38a15.57,15.57,0,0,1,1.42.84,1.06,1.06,0,0,1-.31.68c-.89.52-1.83,1-2.75,1.44l.48.88,5.64-2.62-.25-.85-4.23-.37Zm493.05-91.57c-1.76-1.23-1.75-1.23-2.47.33-.14.31-.46.82-.65.8-2.81-.29-2.6,2.43-3.69,3.89ZM438.35,264.39c-3.17-.69-6.05-2.91-9.83-1.48l9.73,2.11ZM814.92,272l-.77-.44c-.59,2.2-4.14,2.67-2.58,6.81ZM555,459c1.63,1.83,3.23,3.68,4.85,5.53l.65-.61-6.74-7.74,0,1.7A15.9,15.9,0,0,1,555,459Zm7.18-177.8,6-5.15-2.27-.62-3.63,5.78ZM919.49,407.38l4.29-5.8L923,401c-2.64,1-2,4.53-4.38,5.74ZM887.6,348l5.21-3.95-5.51.54-.07.39,2.24.69-2.2,2ZM562.21,281.18c-1.21,1.34-2.42,2.66-3.64,4l.68.67,4.2-3.28-1.31-1.39ZM593.84,248l-6,3.06.42.85,6.09-2.86ZM393.51,486.15l5.17-2.88-.42-.72L392.9,485Zm-40-6.12-4.88,1.16,0-.44-3.31,2.43.11.25,8.28-2.82Zm554.77-300.5L899.16,182c.07.25.15.5.22.76l9-2.6ZM886.75,436.44l.46.23,4-3-2.85-.85-.4.48ZM708.6,422.27l.9-10.72-.31,0-1.31,10.68Zm3.43-29.2c.47-2.71,1-5.43,1.42-8.14l-.75-.12L711.5,393Zm83.38-101.6.12.71,2.79-.36-1.18-2.63ZM527.06,253.29c-.83,1.73-1.66,3.47-2.5,5.2l.8.39,2.44-5.27Zm-1.61,7.17-1.19-.45q-.82,2.89-1.66,5.8h0Q524,263.13,525.45,260.46Zm196.44,53.33c-.57,2.31-1.11,4.45-1.64,6.58a21.51,21.51,0,0,0,1.58-2.65c.35-.52,1.11-.77,1.69-1.14l0-.34C721.52,316.5,722.07,315,721.89,313.79ZM382.49,166.88c-1.69.77-2.25,2.7-1.2,4.59C381.71,169.85,382.1,168.38,382.49,166.88Zm472.38,44.87,4.74-4.06-.39-.47-4.81,4Zm-108.08,164c-.15,1.64-.31,3.29-.46,4.93l1,.08c.16-1.68.33-3.35.5-5Zm-29.06-34.55a8.39,8.39,0,0,0,1.52-2.12c.14-.43-.52-1.12-.82-1.69l-.61.25-.36,3Z" style="fill:none"/></clipPath></defs><title>brave</title><g id="Layer_2" data-name="Layer 2"><g id="assets"><g id="brave"><g style="clip-path:url(#clip-path-brave)"><path class="animate2" d="M317.19,571.34s375.43-83.77,586.56-58.75" transform="translate(28.74 27.01)" style="fill:none;stroke:#231f20;stroke-linecap:round;stroke-linejoin:round;stroke-width:43px"/><polyline class="animate" points="104.12 31.28 30 338.88 161.51 126.73 173.46 290.29 294.42 30 345.93 116.95 262.33 248.22 340.17 232.01 557.02 67.3 457.25 234.24 541.62 152.14 525.28 223.25 646.59 40.91 583.17 205.55 699.84 40.91 762.09 67.75 672.31 158.43 701.7 184.67 766.42 142.42 402.22 195.26 306.08 556.12 449.96 287.19 492.84 328.91 485.97 418 372.76 523.45 351.69 532.97 497.67 517.68 566.15 283.49 582.45 320.4 697.42 251.59 738.76 292.2 641.18 328.01 584.35 463.69 612.45 485.75 708.91 364.09 697.89 477.77 783.84 274.99 756.66 481.87 853.31 290.68 947.38 209.76 957.73 310.47 911.99 330.67 841.43 428.03 851.79 478.45 887.09 476.98 949.95 375.98" style="fill:none;stroke:#231f20;stroke-linecap:round;stroke-linejoin:round;stroke-width:60px"/></g></g></g></g></svg>