<svg xmlns="http://www.w3.org/2000/svg" xmlns:xlink="http://www.w3.org/1999/xlink" viewBox="0 0 587.8 240.79"><defs><clipPath id="empowers-clip-path" transform="translate(8.99 14.29)"><path id="empowers-clip" d="M518.93,77.75l-6.1,1.59,0,.24,1.33.16a5.32,5.32,0,0,1-.93.46c-2.3.46-4.61.89-6.91,1.35A37.87,37.87,0,0,0,501,82.71c-1.73.6-3-.32-4.39-.84a7.66,7.66,0,0,1-1.38-.85v-.36c.44-.12.9-.22,1.33-.38.26-.1.69-.31.68-.43,0-.29-.22-.73-.45-.81a20.77,20.77,0,0,0-2.41-.56l.71-1.34c0-.07.13-.12.15-.19.88-3.11,3.77-3.94,6.17-5.13,3.82-1.91,7.82-3.45,11.75-5.15,3.74-1.61,7.47-3.25,11.22-4.83,4-1.69,8.05-3.3,12.05-5a18.34,18.34,0,0,0,2.15-1.23c.1-.06.18-.18.28-.21,2.69-.74,4.34-3.1,6.84-4.28,0,.2,0,.47.08.9,1.73-.85,2.32-2.48,3.07-4.06l.31.55c1.66-1.32,1.44-3.17,1.43-4.94,0-.12,0-.3-.08-.35a22.23,22.23,0,0,0-3-1.66,15.35,15.35,0,0,0-2.75-.49,17.33,17.33,0,0,0-7.81.43c-1.72.45-3.42,1-5.14,1.49a2.5,2.5,0,0,1-.67,0l-.11-.33,4-1.26c-1.69-.4-9.06,1.81-11.36,3.34l.09.33c1.83-.58,3.66-1.17,5.5-1.72a2.49,2.49,0,0,1,1.33-.06,15.33,15.33,0,0,1-8.54,2.12c-.91,0-1.82.17-2.74.2-.76,0-1.62.32-2.14-.59a.51.51,0,0,0-.44-.13c-1.47.33-2.53-.66-3.41-1.42a4.64,4.64,0,0,1-1.06-2.91,15,15,0,0,1,.42-3.22l-.35-.07-.5,2.19a4.53,4.53,0,0,1-.2-1c.2-2.14.59-4.2,2.61-5.48a.87.87,0,0,0,.31-.49c.87-2.93,3.34-4.62,5.22-6.75a19.43,19.43,0,0,1,3-2.71c1.55-1.14,3.22-2.13,4.81-3.23.86-.6,1.64-1.31,2.5-1.92,1.44-1,2.86-2.14,4.39-3,2.81-1.6,5.9-2.78,8.49-4.66a45.38,45.38,0,0,1,8-4.15,69.24,69.24,0,0,1,8.61-3.26,15.87,15.87,0,0,0,3.15-1.08A16.82,16.82,0,0,1,567.39.48a12.83,12.83,0,0,1,1.86,0c.11,0,.21-.31.31-.48H570a10.67,10.67,0,0,1,1,.64c.22.19.5.44.54.69s-.25.52-.46.61c-1.77.71-3.58,1.33-5.32,2.09a24.19,24.19,0,0,0-2.68,1.65l-1-.38c-1.06,1.45-2.63,1.76-4.2,1.94-.63.08-.89.08-.93.83,0,.39-.58.76-1,1.25l.61.11.83.13c-.64.53-1.07.9-1.5,1.27.94.76.83.89-1.9,2.13a4.63,4.63,0,0,0-.26-.89,3.91,3.91,0,0,0-.56-.69c.27-1.29,2.24-.57,2.34-2.23-2.33,1.28-4.81,1.94-6.82,3.48l.19.46a16.66,16.66,0,0,0,2.63-.91c.92-.49,1.48-.46,1.75.57l-4.64,3.69c.22.34.43.64.72,1.07l1.68-.33.16.22L545,22.09c-.64-.54-6.61,3.35-9.46,6.35l3.84-.69a7.87,7.87,0,0,0,2,.28c3.65-.37,6.91.93,10.16,2.25a4.55,4.55,0,0,1,2.6,5.44,7.06,7.06,0,0,0,0,1.59c1.49.84,3,1.63,4.44,2.55a2.67,2.67,0,0,1,1.18,3,3.38,3.38,0,0,0,.44,3,4.21,4.21,0,0,1,.35,1.14l-1.31-.94c-.33,3.21-.63,6.17-1,9.44a6.3,6.3,0,0,0,1.95-4.64,6.13,6.13,0,0,1,.43-1.57c.18-.62.37-1.24.55-1.86.8.59.47,1.24.14,1.92-.16.34-.46.75-.39,1.06.58,2.76-.91,4.5-2.82,6.11a24.82,24.82,0,0,0-4.12,3.79c-2.65,3.54-6.78,4.68-10.35,6.66-4,2.24-8.33,4-12.58,5.87-3.4,1.47-6.91,2.7-10.36,4.06-.59.23-1.15.53-1.73.8Zm7-9.3-2.22,1.69.23.38,2.39-1.41,2-.73-.11-.44Zm-21.17,8.68c1.81.1,4.44-1.25,4.54-2.23a27.42,27.42,0,0,0-3.23.61C505.42,75.71,504.55,76,504.76,77.13Zm10.5-4.24c-1.5.4-3.07.81-4.65,1.25a.48.48,0,0,0-.29.3c0,.11.08.34.16.36a3.39,3.39,0,0,0,1.12.2A4.45,4.45,0,0,0,515.26,72.89Zm-11.53,4.79-.05-.09-5.1.66a.77.77,0,0,0-.44.15,4,4,0,0,0-.41.65c.23.09.5.3.69.25C500.2,78.79,502,78.23,503.73,77.68Zm31.18-52-.29-.4-4.79,3.61.22.29Zm-3.21,10.8.07.36,6.83-1.17-.05-.29ZM536.31,24l.24.39,3.6-2.36-.28-.41ZM131.57,97l.46.33c-.53,1.35-1,2.61-1.5,3.88-.07.18,0,.51-.14.55-1.75.73-1.86,2.68-2.82,4a10.53,10.53,0,0,0-2.54,5.9c0,.19-.11.49-.24.53-1.3.42-.93,1.59-1.14,2.49a24.65,24.65,0,0,1-.73,3.22c-.32.81-.45,1.33.48,1.71.22.08.37.36.64.65l2.13-4.26-.36-.22-.74.61-.28-.17,2.55-5.13.26.27a10,10,0,0,0,1.88.65c.49.08.72-.89.35-1.45-1.21-1.86-1.2-2.26.09-4a2.75,2.75,0,0,0,.24-.41c1.69-3,3.34-6,5.11-9,.36-.6,1.15-.94,1.7-1.43s1.12-1.09,1.67-1.63l-.39-.38-1.08,1.22L137,94.7A30.21,30.21,0,0,1,138.49,92c1.56-2.18,3.18-4.31,4.82-6.43.19-.25.64-.3,1-.42s1-.31,1.43-.47l-.18-.42-1,.42-.24-.18,3.17-3.92.77.45c.72-.08.69-1.7,2-.73l-.76-1.87A6,6,0,0,0,154.14,75l2.09-.94c.2-.09.45-.25.61-.19s.18.37.24.57a1,1,0,0,0,.42.71,7.1,7.1,0,0,0,0-1.53c-.24-1,.3-1.56,1.09-2a20.7,20.7,0,0,0,2.58-1.29c.41-.3.55-1,.81-1.49l-.27-.1,2.24-.64a9.58,9.58,0,0,1,1.53.36c.24.09.38.47.56.72l1.79,2.46.3-.12-.1-1.32c1.22,1,.81,2.16.87,3.24,0,.25-.09.59,0,.74,1.33,1.53,1.36,3.27,1.1,5.17-.3,2.2-.35,4.44-.59,6.66-.2,1.82-.52,3.62-.76,5.43s-.45,3.87-.7,5.79a13.25,13.25,0,0,1-.36,1.51c-.2.88-.37,1.77-.63,2.64a4.81,4.81,0,0,1-.63,1.09c.57.57.2,2-.62,2.74a2.27,2.27,0,0,0-.71,1.11c-.21.88-.2,1.83-.44,2.7-1.09,3.91-2.31,7.79-3.36,11.71-1.48,5.51-2.73,11.07-4.3,16.55-1.25,4.36-2.18,8.87-4.55,12.82-.62,1-1.9,1.71-2.91,2.51a.64.64,0,0,1-.62,0,1.36,1.36,0,0,1-.11-.78c.06-.64.15-1.28.25-2.08l-1,.34.79-2.83-.37-.19c-.21.13-.49.21-.61.4-.42.67-.57,1.68-1.78,1.13-.06,0-.39.34-.47.57a14,14,0,0,0-.34,1.38c-.89-2.22-.58-4.44-.33-6.58.41-3.56.93-7.13,1.66-10.64.95-4.53,2.07-9,3.27-13.49,1.36-5.09,2.88-10.14,4.36-15.2,1.29-4.4,2.64-8.78,3.91-13.19.32-1.11.38-2.29.65-3.41.34-1.43.83-2.83,1.16-4.26.29-1.22.44-2.47.69-3.7.32-1.6.68-3.19,1-4.83-.91-.28-1.37.26-1.83.8a7.12,7.12,0,0,1-.78.86c-.82.72-1.64,1.44-2.52,2.1-.67.51-1.48.86-2.13,1.39a20.84,20.84,0,0,0-5.61,6.41,19.42,19.42,0,0,1-3.44,4.95c-2.57,2.54-3.9,5.84-6,8.68a1.87,1.87,0,0,1-.37.46c-1.44,1.06-2.06,2.66-2.74,4.21-.49,1.12-.78,2.37-2.05,3-.18.08-.16.51-.3.73-.61,1-1.25,2-1.87,3-.11.18-.28.37-.28.57,0,.94,0,.94-1,1.17.7,1.1-.26,1.67-.88,2.14-1.11.86-1.06,2.06-1.4,3.21-.63,2.12-1.51,4.18-2.28,6.26-.26.71-.5,1.43-.78,2.13-.7,1.76-1.43,3.52-2.15,5.28a2.74,2.74,0,0,0-.21.42c-.58,4-3,7.22-4.13,11-1.35,4.33-4,8-6.24,11.85a6.27,6.27,0,0,1-1.86,1.8c-.31.22-.89,0-1.67,0,1.58-1.62-.79-1.87-.66-3.05l-2.23,2c-1-2.31-.86-5-.5-7.67.38-2.88.5-5.8.85-8.69.38-3.09.81-6.18,1.37-9.24,1-5.69,2.2-11.37,3.35-17s2.31-11.06,3.4-16.61c.69-3.52,1.26-7.07,1.87-10.61a2.69,2.69,0,0,0,0-.56l-.31-.14a5.15,5.15,0,0,0-.69,1.31c-.45,2.1-.79,4.22-1.24,6.32-.93,4.46-1.93,8.9-2.86,13.36-.63,3.07-1.19,6.16-1.78,9.25-.88,4.58-1.78,9.16-2.62,13.75-.43,2.35-.75,4.73-1.13,7.09a1.08,1.08,0,0,1-.54.75,3.89,3.89,0,0,1-.19-1.14c.37-2.72.78-5.43,1.2-8.14.64-4.08,1.25-8.17,1.94-12.25.43-2.55.92-5.1,1.46-7.63q1.24-5.79,2.6-11.56c.28-1.19.78-2.34,1.26-3.76-.82-1.46.53-3.16.57-5-1.78.25-2.28,1.84-3.17,2.89-1.57,1.87-3,3.88-4.37,5.9-1.25,1.84-2.34,3.78-3.53,5.66-.72,1.14-1.55,2.21-2.22,3.38-1.14,2-2.23,4.06-3.27,6.12a19,19,0,0,0-1.19,3c-.75,2.35-1.37,4.75-2.18,7.08s-1.77,4.74-2.78,7.05a25.49,25.49,0,0,1-2.13,3.68c-.27.41-.83.62-1.32,1l1.25.49-3.79,6.61a3.56,3.56,0,0,0-.46.94c-.44,1.76-.82,3.52-2.85,4.22a.91.91,0,0,0-.39.56,30,30,0,0,0-.85,3.42c-.18,1.19-.62,2-2,1.92.93,5.08-1.39,8.6-4.78,11.44L73,162.27l-.93,1-.51-.44c-.49,2.64-.92,5.15-1.46,7.64a8.4,8.4,0,0,1-1,2.49c-.17.29-.8.31-1.23.44s-.64.17-1.15.31a7.31,7.31,0,0,0-.51-1.72,16.37,16.37,0,0,1-2.27-11.5,17.23,17.23,0,0,0-.08-2.37c0-.88.19-1.75.3-2.63,0-.15.18-.33.14-.43-1-2.38.52-4.43.88-6.62a13.77,13.77,0,0,0,.28-2.5l-.37,1-.38-.11c.33-1,.67-2,1-3a9.28,9.28,0,0,0,.41-1.61c.29-2.37.54-4.73.83-7.4l-.77,2.52-.31-.07c.43-2.29.85-4.58,1.28-6.87l.1,0V132l.37.05c.3-1.4.6-2.8.89-4.21.65-3.15,1.27-6.32,2-9.47.17-.77.7-1.47.87-2.24a15.06,15.06,0,0,0,.73-3.38,12.52,12.52,0,0,1,1-3.28c.13-.43.17-.88.26-1.33,1.59.56,1.58.68.76,2.15-.21.38.16,1.09.26,1.65h.34c.21-.54.43-1.07.62-1.62.89-2.52,1.78-5.05,2.64-7.59.22-.64.23-1.34.47-2,.93-2.44,2-4.85,2.83-7.31a5.75,5.75,0,0,0,0-2c.77,0,1-.46,1-1.15A4.2,4.2,0,0,1,82.35,89c.53-1.48,1.13-2.94,1.68-4.41a6.19,6.19,0,0,0,.18-1.14c-1.34.31-1.59,1-1.13,2.06,0,.12-.14.35-.25.59l-.32-.72h-.46c0,.93-.09,1.85-.15,2.78,0,.34,0,.86-.15,1-.88.62-.54,1.49-.58,2.28L79.7,92a2.47,2.47,0,0,1,0-.73c.19-1.12.38-2.24.66-3.34A4.38,4.38,0,0,1,81,86.42c1.12-1.49,1-3.46,2-5a1.39,1.39,0,0,1,.74-.68,4.51,4.51,0,0,0-.07,1.09,4.59,4.59,0,0,0,.43,1,3.36,3.36,0,0,0,.67-.8c1-2.58,2-5.16,3-7.75a.84.84,0,0,1,.47-.46l-.15,1.86.29.06a7,7,0,0,1,.4-1.39,3.37,3.37,0,0,1,.75-.76,4.09,4.09,0,0,1,.39.89c.12.87.18,1.75.28,2.77l1.21.19-1.21.69c-.12,2.46.64,5-.49,7.33a16.47,16.47,0,0,1-1.34,2.06c.83.53.83.53-1.11,2.2l1.14.11C87.83,91.92,87.21,94,86.59,96c-.49,1.64-1,3.27-1.5,4.9-.65,2.15-1.33,4.3-1.92,6.47-.28,1-.37,2.13-.57,3.19a11.52,11.52,0,0,1-.35,1.14c-.49,1.75-1,3.5-1.47,5.25-.53,2-1.09,4-1.55,6-.52,2.28-.92,4.6-1.42,6.89-.38,1.7-.84,3.38-1.26,5.08l.38.18c.61-.94,1.21-1.89,1.89-3l1,.21a3.59,3.59,0,0,0-.07-.87,2.41,2.41,0,0,1,.8-3.15c1.43-1.14,1.45-1.26.34-2.7a2.09,2.09,0,0,0-.15-.17c.35-1.24,1.15-1,2.1-1s1.1-1.35,1.43-2.2a9.25,9.25,0,0,0,.3-1.23l-.89.2c0-.92,0-1.79,0-2.67,0-.6.22-1,1-1,.27,0,.56-.71.93-1.22l.43,1.22c.36-1,2-1.18,1.62-2.85l-1.35,1c0-.45-.07-.82-.1-1.2l1.11-2.33c.75-1.22,1.53-2.42,2.22-3.66a2.23,2.23,0,0,0,.23-1.27c-.25-2.22.19-3.18,2.2-4A3.58,3.58,0,0,0,93.54,102a2.57,2.57,0,0,0,.86-1.67l-1.19-.08a16.35,16.35,0,0,1,1-2.86c1-1.74,1.63-3.84,3.64-4.87.15-.08.23-.32.31-.49a12.56,12.56,0,0,1,2.2-3.13c.9-1,2.26-1.88,2.59-3.49.12-.55,1.14-.87,1.64-1.4.78-.83,1.49-1.74,2.21-2.64.28-.36.41-.86.74-1.16,1.2-1.09,2.23-2.52,4.17-2.36.23,0,.49-.43.74-.67a20.93,20.93,0,0,1,1.82-1.71c.4-.29,1-.26,1.46-.52,1.61-1,3,0,4.37.52.37.14.59.71.86,1.09l.91,1.38.14-1.07A9.11,9.11,0,0,1,125,81.49c.62,1.66.9,3.45,1.48,5.17l.12-.88h.23v4.07l.3,0,.59-.64c0,2.09.08,4.07,0,6s-.41,4-.63,6.06l.42.06c.39-1.42.79-2.83,1.21-4.33l1-.28c-1.16-.85-.88-1.3,1.18-2.34l-.4-.57.12-.26,1.26.34-.47,1.21c.34-.06.72,0,.92-.19s.32-.74.21-.83c-.84-.73-.38-1.52,0-2.17.6-1.09,1.37-2.08,2.31-3.46l.58,1.16.38-.15-.26-1.22c.82-1.33,1.6-2.79,2.58-4.1a31.53,31.53,0,0,1,3-3.23c1.18-1.18,2.36-2.35,3.63-3.42a8.48,8.48,0,0,1,2-1c1.07-1,2.09-2.08,3.24-3,1.65-1.33,3.37-2.58,5.11-3.78a43,43,0,0,1,3.71-2.19c.22-.13.56,0,1-.08-.42,1.12-.94,1.9-2,2-1.55.22-2.25,1.71-3.52,2.26a14.25,14.25,0,0,0-4.1,3c-1.5,1.48-3.69,2.35-4.41,4.59l0,0-2.63,2.11.23.27,1.67-.44h0a29.41,29.41,0,0,0-3.87,4.37c-1.06,1.79-2.62,3-4,4.44-.49.54-1.4.81-1.14,1.82,0,.07-.12.23-.21.27-2.16.81-1.88,3.23-3.24,4.71h-1V95.69l-.28-.14-1.59,2.71.18.09ZM107.32,86.87a9.82,9.82,0,0,0,3-3.3,10.84,10.84,0,0,0-2.08,1.85,8.85,8.85,0,0,0-.86,1.47,2.42,2.42,0,0,0-1.69,1.81L106,89Zm-5,6.18-.25-.17c-.21.25-.44.5-.64.76-1.86,2.41-3.07,5.3-5.38,7.4-.25.22-.27.72-.39,1.09a11.22,11.22,0,0,1-.36,1.12c-1.36,3.1-3.67,5.77-4.24,9.23,0,.23-.23.42-.33.64-.9,2-2.68,3.62-3.07,5.95a18.34,18.34,0,0,1-.76,2.45l-1.23-.63a8,8,0,0,0-.22,1.73,5.47,5.47,0,0,0,.5,1.42l-.34.17-1.07-.41-.31.85.63.25c0,.58,0,1-.08,1.45-.08,1.07-.87,1.69-1.42,2.49a7.66,7.66,0,0,0-1.53,4.31c.09,1.9-1.8,2.7-1.77,4.52,0,1-1,2-1.59,2.93,0,.08-.18.11-.33.2l.08-1.13-.63.05-.74-2.59.59-1.24-.5-.19c-1.43,1.6-.89,3.92-2,5.77l1-.18-1.37,2,.37.41,1.62-.78a4.34,4.34,0,0,1,.67.92.75.75,0,0,1-1.09.92l-.76,1.38,1.35-.56c-.29.58-.51,1.21-.61,1.19-1.26-.22-1.15.93-1.51,1.51a7.07,7.07,0,0,0-1,5.07l.38-1c0,1.24-.26,2.4-.36,3.58a2,2,0,0,0,.6,1.27,1,1,0,0,0,.94.08,11.87,11.87,0,0,0,1.45-1.27l-.75-.52c1.72-1.08,1.72-1.08.33-2.06l1.64-.2a10.8,10.8,0,0,1-.51-1.33,6.23,6.23,0,0,1-.15-1.29c0-.07.25-.14.38-.21.14.32.28.64.43,1,0,.06.13.08.38.21.26-.55.71-1.11.68-1.63,0-.31-.81-.56-1.18-.8.31-1.59,1.56-3,1-4.84,1.44-.41,1.55-.71.81-2a.81.81,0,0,1-.07-.64,10.84,10.84,0,0,1,1-2.15A7.48,7.48,0,0,1,82,138.19c.09-.74-.1-2.15.38-2.44.83-.5,1-1.3,1.44-1.64-.09-.62-.28-1.05-.17-1.39a12.64,12.64,0,0,1,.82-1.7c1.07-2.27,2.13-4.55,3.2-6.82.22-.46.48-.91.68-1.38.69-1.6,1.35-3.21,2-4.81.79-1.85,1.62-3.69,2.39-5.54s1.54-3.82,2.27-5.74c.44-1.15,1.67-2.08.94-3.52A3.38,3.38,0,0,0,98.15,100a1.43,1.43,0,0,1,.38-1,15.56,15.56,0,0,0,1.35-1.48c.54-.89.92-1.89,1.4-2.82C101.57,94.13,101.94,93.6,102.27,93.05ZM85.73,86l.19.08c.59-.91,1.19-1.81,1.77-2.72a1.49,1.49,0,0,0,.08-.57c.06-.93.11-1.86.2-2.78.06-.62.64-1.44-.34-1.67-.27-.06-.78.86-1.14,1.35-.07.09,0,.3.06.5l1-.2C86.9,82.09,86.32,84,85.73,86Zm64,55.12-.54,0c-.39,1.63-.79,3.27-1.22,5.08,1-.4,2-1.84,1.61-2.27-.77-.88.3-.66.4-.81Zm10.56-54.5.29.19c.31-.31.85-.61.88-1,.1-1.25,0-2.52,0-3.79l-.21,0C161,83.56,160.64,85.09,160.31,86.61ZM71.84,118.07l.66.21,1.25-2.49c-.6,0-1.17-.14-1.2,0A23,23,0,0,0,71.84,118.07Zm90.77-41.78.65.45c.13-1.26.26-2.38.38-3.5l-.31-.11-1.16,1.56.25.19.35-.41.28.12ZM73,114.82l.48.21.81-1.77c-.27-.09-.6-.32-.78-.24C72.6,113.43,72.83,114.15,73,114.82Zm9.27-23.4-.59,2.74C83.18,92.62,83.18,92.62,82.22,91.42ZM72.9,159.69l2.22-.37a3.52,3.52,0,0,0-1.68-.86A7.22,7.22,0,0,0,72.9,159.69ZM151,140.4l-.42-1.55-1.3,1.1ZM102.69,92c1.89.28,1.09-1.3,1.79-1.69l-.25-.21Zm56.23.86.25.06.94-3.86-.28-.06C159.53,90.26,159.23,91.55,158.92,92.83Zm-32.21,1.52c.21-.88,1-1.83,0-2.75ZM162.43,77l-.17,0-.4,1.89c.95.53,1.19.19,1.09-.7l-.64.21Zm-39.62,42.62-.36,0c-.14.44-.31.87-.44,1.31-.07.25-.1.52-.15.79l.46.08ZM321.63,127a15,15,0,0,1-.64,1.93c-.44,1-1,1.86-1.61,3l-1.12-1.4-2.87.29,0-.29.76-.51c-.22-.23-.29-.33-.31-.32-1.13.39-2.51-.92-2.42-2.24,0-.3-.22-.61-.3-.93a19.22,19.22,0,0,1-.5-2.25c-.11-1-.08-2.08-.17-3.12,0-.45-.36-.89-.34-1.32.08-2.32.21-4.63.37-6.93a29.77,29.77,0,0,1,.39-3.53c.27-1.54.66-3.06,1-4.59.12-.58.14-1.18.22-1.9a2.65,2.65,0,0,0,.62-.09c.74-.22.84-.84.33-1.41a1.55,1.55,0,0,1-.44-1,31.92,31.92,0,0,1,.36-4.7c.63-3.29,1.43-6.55,2.17-9.81.25-1.07.67-2,2.47-1.71a9.6,9.6,0,0,0-.8-1.75c-.66-.85-.14-1.58.11-2.33.2-.6.49-1.16.73-1.74.33-.79.71-1.57,1-2.38.75-2.32,1.44-4.66,2.26-7.31L324,70.06c.5-1.11,1-2.17,1.62-3.57l-1.33,1.4c-.73-1.37.87-5.15,2.78-6.79l.26.77A3.69,3.69,0,0,0,329,58.41a6.06,6.06,0,0,1,1.55-5l1.29.13a5,5,0,0,1-.36-1,1.48,1.48,0,0,1,.32-1.11l.48.77,1.91-1.05a2.8,2.8,0,0,1,.65-2.77c.74-1,1.26-2.23,2-3.3.4-.61,1-1.09,1.46-1.68a23.35,23.35,0,0,0,1.68-2.51c.56-1,.65-2.25,1.92-2.87.55-.27.83-1.08,1.29-1.7.9,1.32-.8,2.12-.63,3.21l.32.13L345.66,35l-.31-.25L343.58,36c.44-1.9.66-3.58,2.82-4.48-.25,1-.46,1.77-.7,2.71.27-.21.5-.31.61-.48.87-1.38,1.81-2.72,2.56-4.16a18.44,18.44,0,0,1,5.05-6c1-.8,2.92.15,3.2,1.54a14.5,14.5,0,0,0,.54,1.61c-.84-.06-1.09.5-1.37,1.36A14.46,14.46,0,0,1,354.62,31c-.95-.79-1-.76-1.67,2.07l1.78-1.7.39.32a10,10,0,0,1-.41,1q-2.38,4.8-4.79,9.6c-.14.29-.3.56-.47.84a99.45,99.45,0,0,0-7.4,14.73c-1.69,4.17-3.23,8.41-4.91,12.59-1.56,3.84-3.26,7.63-4.82,11.48-1.11,2.73-2.08,5.53-3.1,8.3a3.31,3.31,0,0,0-.17,1.31l6.06-9.79.43.23-1.2,2.6.45.23,4.86-8.12-.42-.32-1.93,2.45c-.14-1.44,4.22-8.56,5.51-9l-.69,1.53.2.34c.33-.18.79-.26,1-.54,1-1.5,1.88-3,2.75-4.6a2.76,2.76,0,0,0,.14-1.2c0-.37,0-.74,0-1.11l.42,0,.27,1.2c.75-.92,1.38-1.62,1.92-2.38,2.48-3.52,4.95-7.07,7.42-10.61l-.32-.26-1.77,1.55c.78-2,1.45-3.58,3.05-4.55a.67.67,0,0,0,.23-.27c.94-2.22,3.18-3.41,4.34-5.46.18-.32.58-.51.88-.77l.26.22-6.45,8,.3.3a2.39,2.39,0,0,0,.59-.38c1.12-1.27,2.26-2.53,3.33-3.84,1.64-2,3.24-4,4.85-6.08.36-.47.64-1,1-1.44s1.12-1.05,1.68-1.57a3.83,3.83,0,0,0,.68-.65c1.61-2.61,4.13-4.28,6.41-6.2,1.06-.89,2.3-1.59,3.3-2.55s2-.48,2.93-.35c.71.1.63.84.17,1.32s-1,.89-1.51,1.37-.85,1-1.4,1.66l1.16.17h0l-1.14,1.56c.09.27.22.7.39,1.24a1.65,1.65,0,0,0,1.42-1.88l1.49-1v1.26l.51-.43.25.15-1.29,2.31.71.43a2.26,2.26,0,0,0-.76,2.66l-.67,1.12-1.64.39-.47-.78-.44.19c.16.36.23,1,.48,1,1.65.55,1.42,1.66,1,2.89a2.27,2.27,0,0,0-.07.59h0a18.35,18.35,0,0,0-1,2.32c-.08.28.31.7.47,1.07s.63,1,.55,1.38c-.62,3-1.37,6-2,9.06-1,4.8-1.93,9.61-2.88,14.41a34.21,34.21,0,0,0-.72,5.33c.54-.92,1.09-1.84,1.61-2.78,2.47-4.52,4.9-9.06,7.4-13.57A36.68,36.68,0,0,1,386,57.07c.5-.68,1.52-1,2.2-1.52.25-.21.18-.79.27-1.25,1.07,0,1.62-.79,1.43-2.17a.91.91,0,0,1,.38-.75c1.43-.76,1.36-.74,1.51-2.36a5.52,5.52,0,0,1,.8-2.14c.48-.86,1.11-1.64,1.74-2.55l.77.86,1.4-1,.58,1.35c1.88-.73,1.88-2.52,0-4.67a34.82,34.82,0,0,1,2.14-3.45c1.82-2.31,3.77-4.52,5.65-6.79.62-.75,1.11-1.61,1.76-2.34a35.33,35.33,0,0,1,2.88-2.86c1.7-1.48,3.48-2.89,5.22-4.33.46-.39.88-.71,1.42-.08a.78.78,0,0,0,.74.11c.87-.5,1.7-1.06,2.55-1.6a3.81,3.81,0,0,1,.52-.29c2.26-1,4.52-2,6.8-3a23,23,0,0,1,2.27-.7c-.26.69-.38,1-.51,1.35,1,.54.73,1.18.06,1.78s-1.48,1.16-2.19,1.78c-1,.85-1.91,1.71-2.79,2.64-.7.72-1.22,1.62-1.94,2.31-.38.36-1.16.31-1.54.68-1,1-1.91,2.17-2.91,3.22-.73.76-1.22,1.75-2.4,2.1-.41.12-.61,1-.8,1.55a14.2,14.2,0,0,0-5.22,6c-.3.56-1,1-1.34,1.72-.2.4-.65.66-.87,1-1.12,2-2.9,3.43-4.22,5.23-.79-.34-1-.75-.57-1.41.62-.91,1.25-1.82,1.84-2.76a12.23,12.23,0,0,0,.67-1.47,1.83,1.83,0,0,0,1.57-2l-.39-.23-1.18,2.25c-.18.07-.44.09-.54.22-1.65,2.33-3.29,4.67-4.93,7l.26.22,2.9-1.53a3.75,3.75,0,0,1-.24,1c-.66,1-1.31,2.05-2,3a39.84,39.84,0,0,1-3.25,4.45A7.62,7.62,0,0,0,395.24,58c-1.07,1.47-2,2.68-3.07,4.18V59c-1.9,1.88-2.77,4.07-3.91,6.26,1.87-.11,2.09-1.66,2.94-2.61.19,2.49-1.85,4.22-2,6.56a2.87,2.87,0,0,0-1.82,2.69c0,.69-.09,1.22-.83,1.54-.31.14-.5.68-.59,1.08a2.24,2.24,0,0,1-1.14,1.81,1.78,1.78,0,0,0-.78,1.47c.21,1.32-1,1.85-1.31,2.83-.34,1.26-1.74,2-1.5,3.58a6.8,6.8,0,0,1-.7,2.56l-1-.24.12,1c-1.21.79-1.21.79-.3,2.91-.75.27-1.29.64-.92,1.64.1.26-.45,1-.85,1.17-1.39.59-1.63.9-1.53,2.52a.94.94,0,0,1-.26.69c-1,.87-1,.85-.41,2.1-.68.72-1.64,1.12-1.59,2.43,0,.72-.65,1.46-1,2.24a3,3,0,0,1-.1,3c-.61.8-1.76,1.32-1.41,2.67,0,.16-.33.42-.51.62a19.3,19.3,0,0,1-2.19,2.32,7.64,7.64,0,0,1-2.16.75,2.39,2.39,0,0,1-1.37,3.46l1-1.9-.19-.15c-.2.23-.41.46-.6.71-1.72,2.16-3,2.1-5,.14-1.7-1.68-1.78-3.74-1.83-5.83-.07-2.7,0-5.41,0-8.12a44.37,44.37,0,0,1,.09-6.32q1.32-8.88,3-17.7c.55-2.92,1.5-5.77,2.21-8.67.61-2.51,1.07-5,1.71-7.55.35-1.38.94-2.7,1.43-4,0-.11.12-.21.15-.32.6-2,1.18-4.09,1.8-6.12a13.52,13.52,0,0,1,.65-1.25c.51-1.14.92-2.33,1.51-3.42a2.46,2.46,0,0,1,1.31-1.18c1.1-.27,1.3-.55.6-1.73l-.7,1.09c-.4-.35-.4-.35.67-3.35-.29.3-.58.6-.85.91s-.56.66-.84,1h-.24c-.05-.22-.21-.54-.12-.64.69-.8,1.43-1.56,2.15-2.31a1.06,1.06,0,0,0-1.49.37q-2.53,3.48-5,7c-1.83,2.55-3.67,5.1-5.48,7.66-.23.31-.34.7-.54,1a12.87,12.87,0,0,1-1,1.47c-.79,1-1.64,1.91-2.4,2.91-.13.16,0,.55.08.83.27-.11.65-.14.79-.34.86-1.19,1.65-2.43,2.5-3.64,1-1.45,2.05-2.89,3.11-4.32.1-.14.38-.16.58-.23,0,.28.1.63,0,.82-1,1.51-2,3-3,4.47-2.16,3.18-4.31,6.37-6.48,9.55-1.57,2.3-3.19,4.57-4.72,6.9-.49.74-.65,1.68-1.12,2.44s-1.31,1.55-1.86,2.4c-.9,1.39-1.69,2.85-2.54,4.27-1,1.74-2.08,3.47-3.09,5.22-.41.71-.72,1.48-1.07,2.22-.07.13-.13.25-.19.38-.8,1.24-1.69,2.43-2.37,3.72-2.81,5.33-5.54,10.71-8.34,16-2.17,4.13-4.43,8.22-6.58,12.37a22.68,22.68,0,0,0-1.27,3.46c0,.18.19.45.3.68Zm18-82.15-.3-.17c-1.35.84-5,7.8-4.77,9Zm56.42,9c-1.63.54-3.06,2.64-2.72,3.94C394,56.16,395.79,55.49,396.09,53.75Zm13.35-18.06.4-1.36c-1.17.27-2.35,1.82-2.14,2.67ZM331.12,90.81l-.34-.18c-.77,1.42-1.53,2.85-2.29,4.27l.38.21Zm43.31-41.32-.57-.17-.63,2.88.47.11C373.94,51.37,374.19,50.43,374.43,49.49Zm47.13-26.33-.33-.39-2.32,1.89.33.4ZM375.42,40.35l.33-.16c-.14-.34-.21-.9-.43-1a6.83,6.83,0,0,0-1.88,0Zm21,12,.24.21,1.65-2.24C397,50.5,396.75,51.44,396.4,52.32ZM341,74.31l-.42-.31-1.18,1.79.48.32C340.28,75.51,340.65,74.91,341,74.31Zm-1.33-30.5.4.23L341.34,42l-.45-.26Zm36.81-7.4-.46-.33-.78,1.21c.15.08.41.26.44.23C376,37.17,376.25,36.79,376.51,36.41ZM179.07,134.63c.86,0,1.13.35,1,1.18-.33,1.83-.54,3.69-.94,5.51-.55,2.55-1.22,5.07-1.84,7.6a1.84,1.84,0,0,1-.24.37l-.95-.81-.29,1.49,1.26-.12a10.61,10.61,0,0,1-.1,1.33,35.64,35.64,0,0,1-.78,3.55,5.22,5.22,0,0,1-.92,1.35c-.31.42-.62.84-1.08,1.44l1.58-.1a54.55,54.55,0,0,1-1.06,9.05l-.27-.19-1.14,1.4c.69.27,1.41.43,1.4.56a13.57,13.57,0,0,1-.44,2.52,3.8,3.8,0,0,1-.9,0c-.18,1.09-.38,2.37-.6,3.71l1.18.29a5.14,5.14,0,0,0-.49.83,2.74,2.74,0,0,0-.28,1.05c0,.75.27,1.49.25,2.22a26.94,26.94,0,0,1-.38,2.85l-.59-1.1-1.22,4.19c1.73-.2.54-2.25,1.76-2.79.78,1.41.17,4.19-1.07,4.73-.24.11-.69-.27-1.06-.43-.56.83-.52,1.07.46,2l.44-.73c.07.13.18.23.16.31a6.29,6.29,0,0,1-.69,1.86,9.09,9.09,0,0,0-1.32,5.26c.09,1.06.33,2.15-.68,3a1.14,1.14,0,0,0-.18.91c.51,2.95-.8,5.62-1.25,8.42a5.73,5.73,0,0,1-.56,1.83,6.39,6.39,0,0,1-1.14,1.19c-.08.07-.21.11-.28.19-1.44,1.9-1.44,1.9-2.67,2.51a22.26,22.26,0,0,1-1.88-1.63,2.16,2.16,0,0,1-.57-1.16c-.45-3.52-1-7-1.24-10.56-.23-2.65-.24-5.32-.21-8,0-1.4.36-2.79.47-4.19.08-1.06,0-2.12,0-3.18.07-1.55.14-3.09.32-4.62.15-1.32.83-2.7.58-3.91-.28-1.36.36-2.42.37-3.58,0-1.66,1-3.29.45-4.85s0-2.92.13-4.34c.2-1.63.72-3.22,1-4.84a14.88,14.88,0,0,0-.2-1.86,17.47,17.47,0,0,1,.33-2.59c.15-.82.44-1.62.57-2.45.24-1.41.25-2.88.62-4.26,1.05-3.93,1.08-8.06,2.8-11.89.9-2,.79-4.45,1.18-6.69.22-1.24.48-2.47.79-3.68.48-1.82,1-3.62,1.54-5.43.3-1.07.6-2.15.89-3.23.52-1.93,1-3.87,1.56-5.8.28-1,.7-2,1-3,1.61-5.46,3.79-10.7,5.92-16a100.38,100.38,0,0,1,5.25-10.85c1.09-2,1.95-4.06,3-6.07s2.24-4.12,3.36-6.19c1.62,0,1.61-1.78,2.66-2.38a3.59,3.59,0,0,1,.91-.19l-2.39,4.22c1.35-.17,2-.31,2.15-1.67.15-1.14,1.15-2.18,1.8-3.26s1.18-1.89,1.77-2.83h0a28.39,28.39,0,0,0,4-5.36A12.41,12.41,0,0,1,203.4,55a4.76,4.76,0,0,1,1.11-.7,4.1,4.1,0,0,1,.4,1.16,4.89,4.89,0,0,1-.39,1.35l1-.53.28.19c-.67,1.15-1.36,2.27-2,3.44a8.42,8.42,0,0,0-.52,1.68c-.06.25,0,.53,0,.79-.14,1-1,1.87-.34,3,0,.08-.55.67-.92.79a11.91,11.91,0,0,1-1.91.34l.08.53,1.67-.15-2.09,5.84a4.92,4.92,0,0,0,2.82-2.62,3.58,3.58,0,0,1,2.1-2.29c1-.34,2.11-2.59,2.09-3.74,0-.35.36-.71.59-1.15,1.07.9,1.62.42,2-.51s.86-1.95,2.17-2c.24,0,.47-.29.69-.46,2.48-2,4.89-4.06,7.46-5.92a32.07,32.07,0,0,1,6-3.57,18.81,18.81,0,0,1,5.53-1.22,11.84,11.84,0,0,1,6.23.67,17.84,17.84,0,0,1,2.87,1.66,26.72,26.72,0,0,1,3.47,2.68A15.25,15.25,0,0,1,246.94,58a31,31,0,0,1,2.14,6.41,17.41,17.41,0,0,1,.25,4.51,45,45,0,0,1-.6,8.07,54.55,54.55,0,0,1-3.12,9.15c-1.32,3.14-3,6.16-4.5,9.21-1.1,2.16-2.21,4.31-3.44,6.39-1.85,3.11-3.76,6.18-5.76,9.19-.92,1.38-2.12,2.58-3.18,3.88-2.94,3.62-5.85,7.27-8.83,10.85-1.32,1.6-2.78,3.1-4.23,4.58-.24.24-.8.16-1.22.23l-.14-.39-.88.75c.93.58.5,1-.06,1.49-.77.63-1.52,1.28-2.31,1.88-.18.13-.48.1-.73.15,0-.25-.06-.59.07-.74a10,10,0,0,0,1.24-1.41,4.19,4.19,0,0,0-1.08.29c-2.51,1.47-5,3-7.53,4.45a20.26,20.26,0,0,1-10.08,3,5.39,5.39,0,0,1-1.76-.2l2.71-.57v-.35h-6.06l1.8.91a3.46,3.46,0,0,1-3.55-1.89,35,35,0,0,1-1.87-3.19c-.61-1.16-.14-2.4-.21-3.59a2.92,2.92,0,0,1,1.23-2.65l1.1.53a9.5,9.5,0,0,1,2.46-2.6l.38.71c.93-1.23,2.06-.92,3-.8l-2.54,3.17.29.35,2.63-1.54.18.26a20.17,20.17,0,0,0-1.93,1.62,3.56,3.56,0,0,0,.12,5.17,1.86,1.86,0,0,0,1.35.19,29.4,29.4,0,0,0,14.4-7.36c1.37-1.22,2.9-2.25,4.28-3.45.63-.55,1.61-1.08,1-2.25-.06-.11.08-.37.19-.52l5.27-6.93c.07-.1.18-.25.26-.24,1.38.22,1.51-.56,1.3-1.62a.15.15,0,0,1,0-.11c1.2-2.08,2.39-4.16,3.6-6.24.59-1,1.22-2,1.83-3a45.29,45.29,0,0,0,2.85-4.83c.88-2,2.3-3.7,2.46-6,0-.45.6-.85.89-1.3a13.46,13.46,0,0,0,1.29-2.1c.61-1.45,1.09-3,1.63-4.43a.72.72,0,0,1,.12-.21c2.58-3,3.57-6.72,4.5-10.41a42.84,42.84,0,0,0,.71-6c.09-.86.23-1.72.27-2.58a11.47,11.47,0,0,0-.14-1.75c0-.52-.13-1-.2-1.53a20.48,20.48,0,0,0-.69-4.34,2.64,2.64,0,0,0-2.1-1.95,32.65,32.65,0,0,1-4.11-1.22,4.89,4.89,0,0,0-1.21,0l-.06.32.44.42c-.46.37-.88.75-1.35,1.07-.87.61-1.79,1.13-2.63,1.77-1.22.94-2.39,2-3.6,2.91a2,2,0,0,1-.71.22l-.2-.32,3.83-3.21-.36-.43-5.83,4.64.47.58c-2.14,1.83-4.27,3.56-6.28,5.42-1.19,1.1-2.18,2.42-3.28,3.62-.86.92-1.84,1.75-2.63,2.73-2.42,3-4.78,6.05-7.16,9.08-.66.84-1.38,1.62-2,2.49q-1.8,2.52-3.53,5.1c-.55.83-1,1.72-1.53,2.57-.29.46-.64.87-1,1.31l-.31-.16c.54-1.34,1.09-2.68,1.63-4A13.35,13.35,0,0,0,198.14,86c-1.59-.47-1.78-.37-2,.95l.91-.23c-.17.35-.24.53-.33.7-.67,1.25-1.34,2.5-2,3.75-1.07,1.46-2.16,2.9-3.18,4.39-.16.23,0,.69,0,1.15l.74-.25.25.24c-.64.67-1.29,1.35-2,2.07l.43.67-.23.2-.61-.37-1.07.73c1,1.38.29,2.6-.46,4.19l-.5-1.71c-.68,1.37-1.31,2.56-1.86,3.78-.13.28,0,.68,0,1a3.25,3.25,0,0,1-.21.91c-.37.88-.43,2-1.63,2.31a.63.63,0,0,0-.12.54,2.79,2.79,0,0,1-.21,3c-.05.07.38.45.58.69s.61.54.57.72c-.32,1.27-.74,2.51-1.12,3.76a1.85,1.85,0,0,0-.19.83c.24,1-.13,1.6-1,1.62a4.83,4.83,0,0,1,.25,1.68c-.49,2.07-1.11,4.11-1.66,6.17a3.38,3.38,0,0,0,0,.9,2.74,2.74,0,0,1-1.69,2.78l.09-.85-.41-.08c-.14.78-.29,1.56-.43,2.34-.65.64-.53,1.35-.27,2.2C179.81,136.11,179.13,135.34,179.07,134.63Zm20.64-51.11A5.67,5.67,0,0,0,201,82.17c.1-.21-.49-.78-.89-1.39-.18,1.16-.3,2-.43,2.75l-.93-.74V85l.29.07Zm-3.2-8.59c-2.09,1.06-3.08,3.36-2.14,4.58l1.16-1.82,1.68,1.75,1.43-1.53-2.6-1Zm-5,63.2a12.25,12.25,0,0,0-2.19-1c-.75-.16-1.22-.4-1.42-1.2-.07-.29-.52-.48-.8-.72l-.2.3C187.85,137.67,189.22,138.6,191.52,138.13Zm10-57.77c.54.28.55.29,2.79-1.63.23-.2.25-.64.37-1l-.41-.21ZM195,82.83l2-2.69a3.4,3.4,0,0,0-2.42,1.78Zm44.38-27.55,2.3,3.09C240.86,57.46,241.23,55.72,239.35,55.28Zm-49.46,18.5.54.31,1.26-2.34-.29-.17Zm-3.58,8-.47-.22c-.28.63-.57,1.26-.86,1.89l.45.2Zm212.38,8.73a26.31,26.31,0,0,1-1.48-2.63,11.39,11.39,0,0,1-.48-2.19c-.06-.32-.3-.78-.17-.92,1.34-1.49-.4-2.86-.1-4.35.62-3.09.84-6.27,1.62-9.31.91-3.53,2.17-7,3.41-10.43.61-1.72,1.66-3.29,2.25-5,.95-2.74,3.18-4.59,4.54-7,1-1.72,1.85-3.48,2.94-5.11a25.81,25.81,0,0,1,2.49-2.65c2.07-2.26,4.24-4.45,6.14-6.84,3.6-4.54,8.14-8,12.46-11.81a25.94,25.94,0,0,1,3.08-2l.23.24-.87.92c1.78-1.21,4.06-1.74,5.29-3.61a4.37,4.37,0,0,0,1.2-.27c1.81-1,3.57-2.07,5.4-3a5.7,5.7,0,0,1,1.92-.21c.23,0,.53,0,.67-.15,1.57-1.59,3.65-1.18,5.55-1.33a24.86,24.86,0,0,1,4,.25,5.61,5.61,0,0,1,4.11,2.73c.42.59,1.22,1,1.46,1.63,1,2.62,2.3,5.22,1.21,8.18-1,2.76-1.86,5.6-3,8.3a59.3,59.3,0,0,1-4.25,8.56,67.19,67.19,0,0,1-5.79,7.3,55.24,55.24,0,0,1-4.29,4.5,24.57,24.57,0,0,1-7.63,5.21A86.59,86.59,0,0,0,433,63.53c-1.3.68-2.65,1.26-4,1.83-.27.11-.66-.06-1-.1l.43-.84c.11-.25.2-.52.3-.78a3.35,3.35,0,0,0-.87-.17,8.12,8.12,0,0,0-1.15.3.16.16,0,0,0-.14,0l-.59-.11c1-1.09,1.63-1.22,3.7-.77-.12-1.11-.2-2.13-.38-3.12,0-.18-.53-.41-.79-.38a4.06,4.06,0,0,0-1.13.47c-.47-.93.21-1.26.76-1.57,2.58-1.47,5.27-2.77,7.74-4.4s5-3.76,7.52-5.66c.16-.12.3-.31.48-.34a2.38,2.38,0,0,0,1.84-1.44c.11-.26.55-.46.87-.55a6.35,6.35,0,0,0,3.22-2.21,12.3,12.3,0,0,1,1.59-1.21c.25-.22.6-.63.54-.86-.28-1.05.42-1.65.94-2.32a32.42,32.42,0,0,0,4.6-8.07c.93-2.38,2.1-4.66,3.09-7,.46-1.1.77-2.26,1.14-3.4.25-.81,0-1.52-.82-1.65a8.88,8.88,0,0,0-3.47-.15c-3.7.94-6.69,3.31-9.9,5.25a29,29,0,0,0-7,5.93c-1.35,1.58-3,2.87-4.43,4.4s-2.45,3-3.64,4.5c-1.32,1.7-2.59,3.44-3.92,5.14s-2.55,3.18-3.83,4.77c-.05.06-.16.13-.15.18.19,1.83-1.6,2.37-2.34,3.59a44.52,44.52,0,0,0-3.28,5.43c-1.27,3-2.19,6.16-3.23,9.25-.79,2.34-1.53,4.69-2.32,7a1.68,1.68,0,0,1-.86.9c.15-.66.29-1.32.44-2l-.44-.12c-.29,1.17-.59,2.34-.88,3.51l.21.12.75-.61c.26,1.43-.05,1.84-1.26,1.63-.21,1.15-.46,2.3-.59,3.46,0,.28.4.59.59.91s.6.83.6,1.25-.47.68-.74,1l-.36-.1c.15,1.5.33,3,.44,4.5,0,.52-.29,1.12-.13,1.56.9,2.3,1.16,4.86,2.76,6.89a5.44,5.44,0,0,0,3.61,1.3,14.35,14.35,0,0,1,2.16.15,5.11,5.11,0,0,0,1.41-.1c.8-.21,1.57-.55,2.37-.78q2.81-.81,5.62-1.55c1.05-.27,1.06-.24,1.4.75.85.37,1.77-.44,2.64.26.21.17.93-.15,1.32-.39a5.13,5.13,0,0,1,4.54-.94,18.34,18.34,0,0,1-2.62,2.14c-2.7,1.46-5.43,2.88-8.24,4.1a51.32,51.32,0,0,1-6.11,2c-1,.28-2,.3-3,.51-.76.17-1.4.22-1.88-.56a1,1,0,0,0-.81-.34c-1.92.26-3.51-.61-5.09-1.46a34.51,34.51,0,0,1-4-2.37,31.54,31.54,0,0,1-5.32-4.33c-1.37-1.54-2.18-3.58-3.24-5.4l.56.28c-.61-2.12-1.18-4.13-1.76-6.14l-.43.11Zm.39-2.88.32,0V85.34l.33.12c-.19-1.11-.39-2.24-.6-3.36a6.64,6.64,0,0,0-.28-.62,2.55,2.55,0,0,1-.25-1q.94-5.22,2-10.44a22.89,22.89,0,0,1,.95-3.57c.71-1.93,1.57-3.8,2.35-5.7a3.59,3.59,0,0,0,.13-.87c-.29.21-.72.35-.86.64A31,31,0,0,0,401,65.15c-1.64,5.26-3.07,10.61-3,16.17A40.58,40.58,0,0,0,399.08,87.61Zm43-34.4.16.34a3.18,3.18,0,0,0,1.07-.28c1.37-1,2.72-2.09,4-3.21a20.06,20.06,0,0,0,3.88-3.69c1-1.47,3-2,3.31-4,0-.06.1-.13.17-.16,1-.37.76-1.11.62-2C451.64,45.4,446.46,48.87,442.12,53.21Zm-29.39-8.66c-2.71,2-8.56,12.34-8.26,14.39a4,4,0,0,0,1-1.21c1-2,1.91-4.08,3-6s2.59-4,3.87-6A5,5,0,0,0,412.73,44.55Zm16.93,16.08,3.29-.47-.05-.36-.45-.26L436.72,57l-.22-.37-3.89,1.79c-.71-1-.71-1-2.49.85l1.17-.2.12.22ZM403.84,95.14c-.22-3.22-3.2-5.26-3.73-8.38C400.19,90,401.88,92.64,403.84,95.14Zm21.94,3.93,0,.41c.67-.13,1,1.32,1.7.21L428,98ZM420.4,35.18l.31.28,2.7-3L423,32.1C422.14,33.12,421.27,34.15,420.4,35.18ZM404.6,95c.17,1.52.79,2.2,2,2.3Zm32.51-38.84,1,.82c.21-.45.41-.91.74-1.63ZM494.43,6.47c-.3.67-.61,1.33-.89,1.93a6.5,6.5,0,0,0,1.53.41c.18,0,.53-.46.54-.73a2.93,2.93,0,0,0-.39-1l.28-.24c.28.18.81.43.78.55-.31,1.37.79,1.49,1.76,1.89-3.17,4.26-5.07,9-7,13.8S487,32.54,485.77,37.6l1.09-.73c-.17.5-.24.73-.33.94a2.38,2.38,0,0,0-.26.75c.47-.71,1.31-1.17.93-2.37-.33-1,1.12-2.79,2.25-2.87l-1.05,1.86.2.21,2.66-2.56-1.49-.59c.48-.81,1-1.76,1.59-2.7s1-1.69,1.56-2.52c.15-.22.39-.39.56-.6,1-1.25,2.12-2.47,3.07-3.79A4.42,4.42,0,0,1,500,21.22a1.29,1.29,0,0,0,1-.11c2.45-2.26,4.86-4.56,7.28-6.85.08-.08.09-.21.15-.39l-2.21.65-.15-.32,4.14-3.68c.24-.21.62-.35.72-.6.35-.82.93-.89,1.75-.66-.07.37-.15.74-.22,1.11l.2.26L517.25,7l0,0c.87.09,1.6,0,1.52-1.18,0-.28.39-.82.64-.83a7.76,7.76,0,0,1,1.87.37,10.51,10.51,0,0,0,.79-1c.54-.8,1.07-1.28,2.13-.69.39.22,1.07,0,1.6-.11,2.34-.5,4.66-1.08,7-1.53,1.17-.22,2.38-.2,3.56-.31,2.4-.2,3.14.32,4.33,3.22-1.12.22-2.19.51-3.27.61-1.53.15-3.1,0-4.6.25a29.38,29.38,0,0,0-4,1.37,7.91,7.91,0,0,1-1.18.22l-.1-.37,4.31-1.44c-1.81-.46-10.22,2.69-11.31,4.24l1.59-.42.13.35C520.37,10.33,519,12,517,12.1c-.26.42-.42,1-.8,1.23-1.92,1.22-3.89,2.37-5.86,3.5-.2.11-.58-.09-.86-.17-.52-.15-1-.32-1.55-.49l-.14.44,1.69.79a1.08,1.08,0,0,1-1.69.3c-.62-.41-1.18-.49-1.58.39l.71.77-.32.11c.15.69.29,1.37.51,2.41-.89-1.2-1.22-1-1.81,0s-1.65,1.5-1.73,2.64c-.3.35-.61.68-.87,1s-.43.75-.67,1.1c-1.06,1.51-2.11,3-3.2,4.51-.61.82-1.33,1.56-1.93,2.38s-1,2.09-1.88,2.7c-1.45,1.07-1.58,2.85-2.66,4.09a26.94,26.94,0,0,0-1.85,2.71c-.5.72-1,1.4-1.6,2.17l-.82-.67c.14.91.25,1.62.4,2.61l-1.18-1.25-.31.29.49.62-.6.3c0,.07.06.18.11.19.91.22.74.78.44,1.38-1.23,2.5-2.5,5-3.69,7.5-1.34,2.85-2.62,5.72-3.88,8.6-1,2.33-2,4.67-2.94,7-.63,1.62-1.13,3.29-1.65,5-1.17,3.76-2.35,7.53-3.48,11.31-1.07,3.59-2.06,7.19-3.1,10.78a3,3,0,0,1-2.91,2.19,2.28,2.28,0,0,0-1.21.73,8.63,8.63,0,0,0-.93,1.23l-.28-.16c.29-.92.57-1.84.86-2.76l-.32-.13-1.8,3.46L461,101.49a5.82,5.82,0,0,0,.22-1.2,4.64,4.64,0,0,0-.3-1.48c-.11-.27-.49-.41-.68-.67a3.35,3.35,0,0,1,.42-3,.32.32,0,0,0,.1-.2c-.05-1.23-.13-2.46-.15-3.69a32.43,32.43,0,0,1,0-3.27c.16-2.13.4-4.26.58-6.38s.34-4.25.51-6.38c.12-1.5-.08-3.13.45-4.46.73-1.86.45-3.75.79-5.59s.88-3.76,1.23-5.66c.17-.93.09-1.91.2-2.86a2.33,2.33,0,0,1,.41-1.3,2.86,2.86,0,0,0,.82-2.19c-.13-2.17.71-4.14,1.4-6.13,1.15-3.29,2.35-6.57,3.63-9.82.77-2,1.72-3.88,2.64-5.8.45-.93,1-1.81,1.6-2.81-.43-1.24.83-1.89,1.36-2.86a11.17,11.17,0,0,1,.64-1c.35-.53.61-1.34,1.08-1.5.74-.24.77-.66.84-1.22a2,2,0,0,1,.24-.8c1.14-1.89,2.2-3.85,3.49-5.64,1.53-2.1,3.27-4.06,4.93-6.07,1-1.2,2-2.39,3-3.55a8.44,8.44,0,0,1,1.28-1c-.09.74-.14,1.2-.19,1.65a10.87,10.87,0,0,0,1.5.14,8.07,8.07,0,0,0,1.35-.27ZM484.8,42.68c.31-1,.61-2,1-3.14C484.24,40.87,484.11,41.32,484.8,42.68ZM536.4,4.42l0,.37h2.35V4.42Zm-479,140.77,1.68-2c.67-.78,1.34-.46,1.76.18.2.33,0,.93-.07,1.4a.93.93,0,0,1-.4.57c-.85.49-1.41.93-.9,2.15.35.82-1.78,2.55-2.69,2.36-.56,3.16-3.15,4.89-5,7.12-1.68,2-3.41,4-5.24,5.85a38,38,0,0,1-3.57,3c-2.27,1.81-4.45,3.76-6.85,5.37-2.74,1.84-6,2.68-9.12,3.52l-.12,0c-5.94.17-11.8,0-17-3.41a16.1,16.1,0,0,1-6.74-8.09A59.37,59.37,0,0,1,.3,149.89C.07,147.92.24,146,0,144a7.46,7.46,0,0,1,.71-2.61c-.07-.18-.33-.54-.28-.84a60.84,60.84,0,0,1,4.81-16.5c.45-1,.83-2,1.32-3,.18-.34.6-.56,1-.88-.81-1.83,2.84-7.66,5.63-8.51-.21.5-.35.9-.52,1.27-1.12,2.33-2.24,4.66-3.38,7-.77,1.56-1.59,3.1-2.36,4.66-.53,1.08-1,2.18-1.5,3.28a2,2,0,0,0-.11.66c0,.22.1.6,0,.64-.94.48-.76,1.25-.73,2.09s-.29,1.76-.28,2.69c1-2.57,2-5.14,3.1-7.69s2.14-5.17,3.38-7.67a75.85,75.85,0,0,1,4.08-7.32,36.14,36.14,0,0,1,5-6.64c1.9-1.81,2.93-4.44,5.11-5.66.57-.69,1-1.25,1.48-1.77s.89-.82,1.35-1.22c.17-.14.4-.36.56-.33s.32.31.42.51.19.56.42,1.25l2-2.46,1.05.87c-.55-1.64,1-2,1.83-2.78l.31.15L33,95.59l.22.23,2.29-1.76-.39-.18c.13-.56.28-1.13.39-1.69a8.66,8.66,0,0,0,.07-.89,6.61,6.61,0,0,0-.77,0,4.92,4.92,0,0,0-.66.24c.21-1.14.68-1.5,2.84-2.25V90.7c2.38-1.51,4.65-2.93,6.91-4.35l.2.22-.39.64a1.58,1.58,0,0,0,.37-.06c1.39-.5,2.78-1,4.15-1.52.31-.11.53-.44.79-.67l.6-.18a12,12,0,0,0,2.48-.12c1.52-.39,3-.75,4.51-.09.41.17,1-.08,1.4.07.87.32,1.68.8,2.53,1.16a6.07,6.07,0,0,0,1.14.24,5.43,5.43,0,0,0-.38-1.24c-.16-.29-.52-.46-.79-.68l.2-.26c.55.52,1.1,1,1.63,1.57a10.85,10.85,0,0,1,.8,1,8.32,8.32,0,0,0,.19,1.5c.09.26.44.43.68.65a4.89,4.89,0,0,0,.26-.88c0-.18-.12-.37-.19-.55.3.49.82,1,.86,1.46a32,32,0,0,1,.09,5.53,18.32,18.32,0,0,1-3.6,9.36c-1.16,1.55-1.87,3.43-3.09,4.92-2,2.38-4.11,4.6-6.27,6.8-1.61,1.65-3.35,3.17-5.07,4.72-1.5,1.36-3,2.75-4.59,4a29.55,29.55,0,0,1-3.27,1.93c-3.06,1.79-6.18,3.49-9.16,5.41a37.47,37.47,0,0,1-4.59,2.25c-2.15,1-4.27,2.11-6.43,3.1a16.32,16.32,0,0,1-7.83,1.16l-.73,2.78.27.1.55-1.07c.42,1.09.29,1.38-.78,1.85a.85.85,0,0,0-.4.52c-.23.88-.84,2-.53,2.64.73,1.62.58,2.76-.82,3.84-.14.11,0,1,.31,1.19a1.66,1.66,0,0,1,.5,1.9,5.67,5.67,0,0,0,.22,1.7l-.83-.92c0,.13-.16.25-.13.33.31.83.67,1.64,1,2.48.07.21,0,.62-.12.71a1,1,0,0,0-.1,1.63c1.27,1.2,1.39,2.9,2.13,4.31a16.39,16.39,0,0,0,2.82,4.34,6.1,6.1,0,0,0,3.6,1.21c2.6.17,5.23.05,8,.05l-.9.52C30,167.68,34,165.69,37.67,163l.33.38L37.06,165a6.91,6.91,0,0,0,1.07-.57q3.39-2.74,6.77-5.53a1.33,1.33,0,0,0,.54-1.8l-1.25.59-.14-.17,1.5-1.6.54,1.31c.19,0,.49,0,.54-.09.46-.86,1.27-.95,2.11-1.17a.87.87,0,0,0,.49-1.46c-.14-.19.09-.78.3-1.07,1.39-1.81,2.83-3.57,4.23-5.36.9-1.15,1.76-2.33,2.66-3.48a3.92,3.92,0,0,1,.8-.56l.18,1.14c-1.81.6-1.61,2.59-2.57,3.8l-.62-.59v2.15A17.05,17.05,0,0,0,57.39,145.19ZM36.28,119.75l5.07-2.91-.24-.38-4.82,3.31c-.84.32-1.68.66-2.53,1-.19.07-.45,0-.57.15a.54.54,0,0,0,.1.51.66.66,0,0,0,.61,0C34.71,120.91,35.49,120.32,36.28,119.75ZM26,124.09a4.48,4.48,0,0,1,.82-.81C28.83,122,31,121,33,119.6c3.22-2.2,6.32-4.57,9.48-6.86a11.35,11.35,0,0,1,1.12-.66,10.59,10.59,0,0,0,2.14-1.19c2.83-2.61,5.6-5.29,8.38-8,3.58-3.45,6.5-7.24,7-12.48.18-2-.48-3.33-2.43-4a8.46,8.46,0,0,0-5.47-.22A20.68,20.68,0,0,0,46.9,88.7c-3,2-6.32,3.69-8.92,6.37-1.2,1.24-2.83,2.07-4,3.3s-3,2.15-3.81,4.09c-.32.81-.81,2.36-2.44,2.09,0,0-.24.54-.17.59.86.68.11,1.12-.25,1.56-.59.69-1.27,1.3-1.85,2a21.09,21.09,0,0,1-1.63,2.19A28.06,28.06,0,0,0,18.22,119c-1.66,3.26-2.82,6.77-4.2,10.17-.09.23-.14.46-.22.69l.23.28,6-2.91L24.53,125l-.34,1.23c-.53.4-1,.83-1.59,1.18a15.64,15.64,0,0,1-2.45,1.38c-1.29.5-2.63.85-3.95,1.23-.76.22-1,.66-.82,1.41.42-.09.84-.19,1.27-.25,2.16-.32,2.27-.38,3.69-1.82l.1-.06,2.66-1.49c1.53-.87,3.06-1.71,4.55-2.63.27-.17.36-.64.53-1a4.25,4.25,0,0,0-1.05-.33A5.35,5.35,0,0,0,26,124.09ZM19.31,132l-7,1.34C15.13,135.2,17.18,133.4,19.31,132Zm24.86,29.78c-.3-.16-.77-.59-1-.48a1.67,1.67,0,0,0-1,1.06c0,.32.59.7.95,1.09Zm-17.7,8.93v-.21H20.25v.21Zm10.58-3.82.26.28,2.16-2.06-.29-.32ZM31.31,123l1.48-.79L31,121.43ZM2,135H1.82c.12.35.15.79.39,1s.61,0,.92,0l-.39.12Zm261.76-7.83c.91,1.09,2,1.15,3.3.75a19.78,19.78,0,0,0,8.26-4.59c.95-.9,2.11-1.58,3.08-2.45a57.1,57.1,0,0,0,4.12-4c2.09-2.3,4.19-4.6,6.06-7.07,1.65-2.18,3-4.6,4.45-6.91.31-.48.72-.91,1.07-1.38a2.56,2.56,0,0,0,.52-.84c.25-1.09.8-1.35,1.73-.94a16.07,16.07,0,0,1-.25,3.11,11.51,11.51,0,0,1-1.47,2.47c.72,1.61-1.67,2.2-2,3.93-.23,1.48-1.71,2.77-2.7,4.23l-.39-.69-.93,1.08a2,2,0,0,0,2.76-.18l-1-.31,2.54-2.21h-.58l1.65-2.55a3.33,3.33,0,0,1,.33.22c1.31,1.45.32,2.58-.55,3.7-1.88,2.41-3.81,4.8-5.71,7.21a48.39,48.39,0,0,1-3.77,4.74,70.37,70.37,0,0,1-7.24,6.25,21.5,21.5,0,0,1-4.69,2.05,28.15,28.15,0,0,1-3.2,1.23,5,5,0,0,1-2.08.06c-1.21-.19-2.39-.6-3.6-.77a13.92,13.92,0,0,1-9.39-6,26.13,26.13,0,0,1-3-6.27c-.89-2.38-1.51-4.85-2.22-7.22l-.14.72-.33,0c.13-.85.29-1.71.38-2.57.16-1.7.19-3.41.45-5.1.33-2.22.77-4.43,1.24-6.62a113.37,113.37,0,0,1,4.92-16.76,60.51,60.51,0,0,1,3.23-6.69c1-2,2.23-3.87,3.37-5.79,1.43-2.44,2.84-4.88,4.33-7.28,1.74-2.82,3.47-5.64,5.35-8.37a38.36,38.36,0,0,1,3.48-4.07c1.32-1.44,2.71-2.8,4.07-4.2a3.46,3.46,0,0,1,.49-.52c2.93-2.06,5.77-4.29,8.85-6.11a25.2,25.2,0,0,1,5.72-1.94,17.86,17.86,0,0,1,3.09-.55c.28,0,.6.37.91.57l-.61.71.14.07a14.37,14.37,0,0,1-1.33,2c-.21.22-.81.08-1.42.12,0,0,0,.46.13.52a1.6,1.6,0,0,0,1,0,14.32,14.32,0,0,0,1.49-.58l.12.3-2.05,1.68,2.74-.44c-1,2-2.67,1.28-3.83,1.87.43,2,.12,2.25-2.23,3.19a7.35,7.35,0,0,0-2.11,2c-1.67,1.79-3.34,3.59-4.94,5.44a24.92,24.92,0,0,0-1.35,2.23,21.4,21.4,0,0,1-1.36,1.66l.89-2.07-.34-.17c-3.74,5.07-6.3,10.86-9.42,16.36.27,0,.33-.22.42-.39.72-1.28,1.43-2.57,2.17-3.83,1.78-3,3.56-6,5.37-9a4.93,4.93,0,0,1,.93-.89c-.46,1.12-.87,2.28-1.4,3.36-.7,1.43-1.47,2.83-2.29,4.2-1.14,1.9-2.38,3.74-3.53,5.63a4,4,0,0,0-.28,1.16c-.55.14-1.2.27-.87,1.28.08.25-.43.73-.72,1.07-.53.62-1.33.91-1.09,2.15.15.74-.71,1.74-1.24,2.54-.86,1.33-1.91,2.53-2.71,3.89a16.29,16.29,0,0,0-.81,2.59c-.36.94-.89,1.81-1.25,2.75-.72,1.89-1.49,3.78-2.05,5.72-.44,1.52-.59,3.13-.9,4.68-.21,1-.47,2-.73,3-.33,1.33-.69,2.65-1,4a16.8,16.8,0,0,0-.69,2.82,32.13,32.13,0,0,0,1.5,12.83,26.3,26.3,0,0,1,.67,3.58l-1.76-.73c.36,1.64,1.41,2.64,2.62,2.34Zm-2.3-4.13c-.35-1.82-.69-3.54-1-5.27a20.61,20.61,0,0,1,.26-10c.9-2.93,1.39-6,2.21-9s1.88-6.13,2.83-9.2l.84-2.72-.34-.13c-.57,1.21-1.18,2.41-1.69,3.65-.29.72-.37,1.53-.61,2.27-.53,1.62-1.25,3.19-1.64,4.84-.94,4-1.71,8-2.61,11.91-.35,1.56-.86,3.06-.52,4.69.24,1.17.36,2.37.53,3.56.21,1.55.42,3.11.62,4.67C260.46,123.05,260.85,123.24,261.49,123.05ZM287.7,47.41l.25.29,4.31-2.3c-.27-1.68,1.79-1.79,2.66-2.93a43.74,43.74,0,0,0-5.43,2.73A8.75,8.75,0,0,0,287.7,47.41Zm-5,4.89L287,48.24c-.69-.15-1.46-.26-1.86.08a34.15,34.15,0,0,0-2.79,2.84C282.42,51.38,282.51,51.74,282.66,52.3Zm-5.72,5.49.23.32c.35-.21.84-.35,1-.66s0-.82,0-1.24l-.33,0Zm11.27,59.38.34.18c.39-.56,1.34-.81,1.07-1.74l-.42-.23Zm13.42-75.78a2,2,0,0,1,.63.35,9.21,9.21,0,0,1,2.15,4c.59,3.07,2.11,5.94,2,9.17,0,1.24,0,2.47,0,3.7,0,2.77.32,5.54-.5,8.28s-1.53,5.77-2.27,8.66c-.49,2-1.65,3.82-.81,6,.05.14-.11.37-.21.54-.36.64-.79,1.25-1.09,1.91-.2.44-.11,1-.36,1.43-.88,1.37-.48,3.16-1.47,4.48,0,0,.06.14.2.38l1.76-.4c-.67-1.78.29-3.2.95-4.31a9,9,0,0,0,1.51-4,35.84,35.84,0,0,1,.8-4.28,6.14,6.14,0,0,0,.68-1.09c.17-.44.1-1,.24-1.42.37-1.12.88-2.19,1.17-3.32a25.46,25.46,0,0,0,.55-3.48c.13-1.19.16-2.39.24-3.63,1.13-1.22-.09-3.25,1-4.67l.5.71c0-.72.13-1.22.12-1.72a3.74,3.74,0,0,0-.18-1.32c-1.22-.1-.86-1.09-.8-1.63a1.72,1.72,0,0,0-.78-1.83s0-.14,0-.26h.95c.16.72.3,1.42.45,2.11a8,8,0,0,0-.11-2.25,16.91,16.91,0,0,1,.06-2.07c-.74-.39-1.22-1.67-1-3.68l.78,2.15c-.23-.91.23-2.17-1.23-2.51-.25-.06-.38-.8-.47-1.25,0-.08.42-.25.71-.42l-1.31-2.36.94-.2-4.61-2.82-.08,1-1.09-.1Zm217.3,36.36L516.75,79l.08.29,2.5-.55,2.78-.59a10.2,10.2,0,0,0,1.35-.32c.4-.15.74-.45,1.14-.6,2.93-1.09,5.91-2.06,8.79-3.26,3.66-1.52,7.27-3.18,10.85-4.88,2.14-1,4.19-2.21,6.26-3.35.22-.12.3-.48.44-.73-.3,0-.66-.14-.89,0-.9.44-1.72,1-2.63,1.44-6.41,3-12.6,6.4-19.31,8.71a47,47,0,0,1-9.2,2.65ZM149.54,114.21a3.69,3.69,0,0,0,.67-.94c.66-2.09,1.27-4.2,1.89-6.31,1.38-4.7,2.78-9.4,4.14-14.1a12.91,12.91,0,0,0,.25-2L156,90.8,149.06,114ZM451.63,78.78a12.48,12.48,0,0,0-1.41.84.93.93,0,0,0-.33.75,1.2,1.2,0,0,1-.93,1.56,2.55,2.55,0,0,0-1.68,2.41c-.22,2.11-2,2.82-3.11,4.17-.29.35-.91.68-.89,1a6.5,6.5,0,0,0,.81,1.86c1.27-1.7,2.29-3,3.28-4.42.26-.36.36-.87.68-1.15a7.73,7.73,0,0,0,2.42-3.94,6.28,6.28,0,0,1,.69-1.4c.27-.5.57-1,.86-1.47ZM340.2,92.89l.85-.4.31.2c-1.1,2.27-2.21,4.53-3.31,6.8l.31.13c.22-.45.44-.9.67-1.35,1.78-3.44,3.55-6.88,5.34-10.3.38-.72.18-1.19-.76-1.65l.08,1.18c-.35.31-.93.59-1.09,1-.64,1.63-1,1.94-2.51,1.78-.07.13-.13.25-.19.38C341.56,91.19,340,92.16,340.2,92.89ZM551.45,64.81c2.36-.08,5.64-2.6,5.75-4.37,1.48,0,2.26-1,2.88-2.21l-1.51,1.21c.41-.82.76-1.49,1.17-2.29ZM431.3,96.27c.41-.08.9,0,1.2-.27,1.62-1.19,3.52-1.83,5.07-3.3a34.15,34.15,0,0,0,5-5.08,1,1,0,0,0-.81.14A34.19,34.19,0,0,1,438.39,91c-2.09,1.49-3.91,3.42-6.45,4.26a3.13,3.13,0,0,0-.78.61ZM500.35,5.68c.11-.21-.17-.76-.41-1a15.14,15.14,0,0,0-1.56-1.28c-.58.85-1.3,1.88-2.11,3l1.24.34-.34.77,1.51.74C499.2,7.46,499.85,6.61,500.35,5.68ZM425.76,60.85a1.76,1.76,0,0,0,.84-.7.75.75,0,0,0-.1-.61,2.26,2.26,0,0,0-1.13,0c-1.95.82-3.7,2.13-5.93,2.25-.15,0-.28.35-.63.81l3.45-.63c.73.41,1.4.81,2.11,1.13a6.36,6.36,0,0,0,.72-1.06l-1.44.21C424,61.14,424.92,61.06,425.76,60.85Zm-281.82,80c.1-.54.2-1.07.29-1.6.56-3,1.14-6,1.65-9a4.49,4.49,0,0,0-.28-1.48l-.55.06c-.34,4-1.46,8-1.6,12ZM425,64.63l.41-1-2,.18.43,1.45-2.73.84c1.76,0,3.55,1,5.13-.3.33-.26.87-.37,1-.69a.92.92,0,0,0-.51-1.35.16.16,0,0,0-.14,0C426.08,64.18,426,65.16,425,64.63Zm-93,45.3c-.17-.14-.48-.41-.49-.4a21.72,21.72,0,0,0-2.47,2.8c-.23.35.19,1.12.32,1.77l.92-.3c-.35.93-.65,1.75-1,2.56l.27.11,2.7-5.62-.19-.13-.9,1-.28-.19,1.09-1.57Zm37.7-66.75c-.54.73-1,1.55-1.43,2.33s-.78,1.34-1.23,2c-.34.47-.81.86-1.18,1.32a11.48,11.48,0,0,0-1.09,1.5,4.38,4.38,0,0,0-.29,1.12l.47.16c.48-.66,1-1.31,1.43-2s.78-1.35,1.21-2c1.17-1.79,2.35-3.56,3.53-5.34h-.24A5.81,5.81,0,0,0,369.65,43.18ZM198,62.16c.19-.79.37-1.58.56-2.38l-.34-.17a9.32,9.32,0,0,0-1.31,1.44c-.46.74-.87,1.11-1.65,0l-.18.41.55,1.06c-.19.84-1.33,1.43-.78,2.48L198,62.15ZM335.79,103c.74-1.6,1.47-3.21,2.21-4.81.31-.67.63-1.33.95-2l-.39-.17a12.86,12.86,0,0,0-1.42,2.3c-.26.69-.29,1.36-1.23,1.45-.14,0-.38.47-.34.68a1.76,1.76,0,0,1-1.34,2.13l.75,1.21.83-.81Zm-14.16,24a3.21,3.21,0,0,0,.91-.69q2.25-3.65,4.42-7.34a10.16,10.16,0,0,0,.57-1.45l-.45-.19a13.35,13.35,0,0,1-.78,1.56c-1.2,1.85-2.44,3.67-3.66,5.52a4.11,4.11,0,0,0-.36.86c-.22.58-.43,1.16-.64,1.74ZM297.71,104l.51.21c.58-1.42.82-3.18,1.82-4.19,1.17-1.19.26-3.24,2.21-3.87l-1-.82ZM541.4,26.61c1.27-1.63,3.23-1.82,4.84-2.71a14.37,14.37,0,0,0,2.36-2.08l-.33-.43L541.13,26ZM562.81,7.26a14.7,14.7,0,0,0-2.66,1.52c-.17.1-.19.44-.27.67a1.74,1.74,0,0,0,.71.06c.32-.11.73-.57.88-.49,1.06.6,1.67-.43,2.49-.63.32-.09.55-.51,1-1C564,7.33,563.3,7.07,562.81,7.26ZM63.41,162.35l-.38,0-.18,2.52h-.2v-4.51c-1,1.79-.49,6.18.76,7.22ZM379.72,44.4c0,.49,0,1,0,1.48s-.09,1-.16,1.75a6.24,6.24,0,0,0,1.69-5.12l-1.51,1.9ZM146.88,123.7c-.28.31-.71.57-.83.94a28.55,28.55,0,0,0-.73,3.2c0,.16.21.36.33.55.21-.14.55-.24.6-.42.36-1.36.67-2.73,1-4.1ZM76.66,102.89c-.41-.2-.9-.65-1.21-.54s-.61.7-.8,1.13a15.5,15.5,0,0,0-.52,1.76c2,.54,1.38-1.78,2.54-2ZM294.92,109l.25.28c.3-.07.78-.06.88-.25.64-1.19,1.2-2.41,1.75-3.65.06-.14-.12-.4-.23-.76C296.62,106.22,295.77,107.63,294.92,109ZM104.13,147.13c.37,2.71-.6,5.44.22,8.16h.36v-8.18ZM63,152.63h.25l.42-4.12-.22-.05-.55.86.2-1.76-.29,0-.64,3,.29.07.54-.57ZM503,18.39c.59-.42,1.11-.93,1.66-1.4l-.24-.25c-1.09.87-3,.48-3.44,2.8C501.76,19.09,502.41,18.79,503,18.39ZM65.15,132.61c-.17,1.65-.35,3.3-.53,4.95C65.61,136.64,65.82,134.4,65.15,132.61ZM77.3,97.24c1.79.15,2-.29,1.27-2.93C77.47,95.11,78,96.38,77.3,97.24Zm344-79.58c-1.22-.25-3.72,1.21-4.4,2.52ZM345,65.52l-2,3.45C345.24,67.53,345.75,66.56,345,65.52ZM437.5,94.73c1.08.91,2.17.79,2.86-.32C439.21,93.39,438.4,94.23,437.5,94.73ZM300.31,91c-.18-.23-1.23.25-2,.42.39.71.6,1.1,1,1.78C299.65,92.24,301.23,92.15,300.31,91Zm1.07-50.92-.32-.12-1.94,2.85.18.13,1.85-1C301.22,41.33,301.3,40.71,301.38,40.08Zm6.8,32.61c0-1.4,1.48-2.51.75-4C308.67,70,307.64,71.23,308.18,72.69ZM145.73,79.43c-.24.65-.48,1.29-.73,1.94h0l2.9-2.77-.22-.3-2,1.16ZM51.06,83.76l-.23-.44-3.27,1.1,1.5.54.6-.18ZM55,83.12l3.82.29,0-.46c-1.2-1-2.55.06-3.81-.16Zm11.68,44,1.2-4.22-.51-.15L66.17,127ZM524.77,3.27l5.32-1.5-.08-.3-5.36,1.36Zm-419.2,136c-1,.62-1.19,2.56-.37,3.82ZM208.32,135l-3.22,2,.19.3c1-.75,2.6-.56,3.31-1.87ZM347.21,79.86a7.84,7.84,0,0,0-.32,1.45,7.48,7.48,0,0,0,.23,1.42C348.27,81.39,348.32,80.94,347.21,79.86Zm-283,52.65-.41,4.87.34,0,.58-4.85ZM332,109.92c.42.7.78.34,1.06-.1a12.82,12.82,0,0,0,.55-1.19c.39-.8.79-1.59,1.18-2.39l-.14,0L332,109.93Zm-261.53-.55a2.09,2.09,0,0,0,1-2.9ZM358.77,26.3c1.76,1.18,2.22,1.21,2.41.13l-2.33-.52ZM303.92,88.64c-1,1.33-.71,2.37.18,3.63C304,90.94,304,89.9,303.92,88.64Zm48.5-32.93-2.15,2.65.38.32L352.78,56ZM64.22,140.18v3.29A2.68,2.68,0,0,0,64.22,140.18Zm22.64-28.34c-.19.87-.39,1.73-.59,2.6l1.11-2.33ZM411.63,79.07c-.05.91-.11,1.82-.16,2.73l.39,0c.69-.86.21-1.81.18-2.73ZM200,58.41l1.38-1.92C199.9,56.66,199.61,57.18,200,58.41ZM66,123.82l-.86,3.51.5.11.75-3.54ZM335.81,103l.14.7.29.06,1.5-3-.29-.15c-.55.81-1.1,1.63-1.66,2.44Zm-37.93-7.76c.37,1-1.11,1.63.13,2.42C297.89,96.85,299.25,96.12,297.88,95.19ZM76.57,100.05l-1.11,1c.23.17.62.52.65.48a9.51,9.51,0,0,0,.93-1.07ZM307.71,73.48c-.27,1-.53,1.91-.79,2.87l.46.12c.26-1,.52-1.94.77-2.91Zm1.7-20.73c.24,1,.47,2,.7,3l.45-.11c-.27-1-.54-2-.8-2.94ZM441.26,93.9l.15-.29-1-1.34-.61,1.46ZM517.23,7l.8-.6-.24-.31-2.62,1.35.18.36,1.9-.82ZM17,106.24c-1.57.61-1.57.61-1.48,2Zm60.27-6.51L77.7,98C76.47,98.7,76.41,99.08,77.29,99.73ZM105,145.9v-2.09C104,145.86,104,145.86,105,145.9ZM561.47,54l.74-2.29-.45-.14-.71,2.3ZM53,83.76c.48-.31.92-.68,1.37-1l-.13-.23-1.89.57C52.62,83.38,52.93,83.79,53,83.76ZM380,32.64l2.47-1.8-.21-.25A4.42,4.42,0,0,0,380,32.65ZM63.81,144.84V147h.28v-2.19ZM85.55,76.09l.66-2.1C85,74.85,84.88,75.05,85.55,76.09ZM567,8.77l2.26-1.21-.16-.32-2.28,1.14Zm-72.6-2.3c1.11-.63-.28-.76-.3-1.24l-.93,1.09,1.25.16ZM45.16,109.67l6.69-6.25-.31-.34-6.72,6.17ZM24.51,125.05a2.91,2.91,0,0,0,2.93-.5c-.51-.37-1.32.69-1.48-.48Zm25.2-21.38-3.42,3,.24.27L50,104Zm7.15-5.18L58.3,96,58,95.79l-1.45,2.48Z" style="fill:none"/></clipPath></defs><title>empowers</title><g id="Layer_2" data-name="Layer 2"><g id="assets"><g id="empowers"><g style="clip-path:url(#empowers-clip-path)"><polyline class="animate" points="67.64 100.68 16 152.54 29.25 184.97 68.46 161.77 94.54 90.37 76.85 182.16 124.76 89.24 113.7 169.57 147.07 98.47 175.01 83.49 157.82 166.87 174.8 224.79 205.51 89.22 239.72 69.36 250.64 81.53 233.45 118.03 219.56 146.78 196.1 149.49 263.61 155.76 275.29 101.02 307.56 57.22 286.11 145.07 366.11 39.45 336.52 91.84 325.11 144.26 387.79 46.77 374.2 128.99 403.27 58.62 437.92 29.78 471.91 30.03 428.44 76.1 413.6 109.28 437.08 116.71 459.46 96.13 502.53 22.68 473.56 115.58 505.54 36.91 545.34 16 571.8 16.02 525.59 51.29 564.76 55.74 559.04 79.25 507.42 93.58" style="fill:none;stroke:#f93;stroke-linecap:round;stroke-linejoin:round;stroke-width:32px"/></g></g></g></g></svg>