<svg xmlns="http://www.w3.org/2000/svg" xmlns:xlink="http://www.w3.org/1999/xlink" viewBox="0 0 576.46 301.5"><defs><clipPath id="engages-clip-path" transform="translate(10.98 12.82)"><path id="engages" d="M46.78,122.13a13,13,0,0,1-1.43,2c-1.93,1.87-3.93,3.68-5.78,5.69,1.34-1,2.76-1.92,4-3,3.46-3.06,7.21-5.84,9.83-9.74.89-1.32,1.69-2.7,2.62-4,.46-.63,1.34-1,1.67-1.69,1-2.08,1.92-4.21,2.75-6.37.61-1.58,1-3.23,1.8-4.79l-.59,2.7c1.5-2.73,1.83-5,.88-6.14l-.81,1.47a1.53,1.53,0,0,1-.12-.34c0-.64.12-1.8,0-1.84a6.24,6.24,0,0,0-3.06-.3,18.91,18.91,0,0,0-6.75,3.76c-2.68,2.13-5.47,4.13-8.18,6.22a4.79,4.79,0,0,0-.85,1.12c-.43.61-.4,1.71-1.68,1.4-.23-.06-.61.45-.9.72a39.74,39.74,0,0,0-4,3.74c-1.43,1.72-2.59,3.67-3.86,5.53-.73,1.08-1.51,2.13-2.15,3.26a66.4,66.4,0,0,0-3.37,6.69l.83-.52.15.13-1.33,2.6L25,129.29a32.41,32.41,0,0,0-1.93,3.28c-1.58,3.57-3.06,7.18-4.58,10.78a2.35,2.35,0,0,0-.06.6h0l-1.23,3.14-.19.2c-.78,2.2-1.57,4.4-2.33,6.61a28.07,28.07,0,0,0-.89,3.1,6.48,6.48,0,0,0,.05,1.58,1.68,1.68,0,0,1,0,.45c-.17.79-.43,1.57-.53,2.37-.15,1.28-.22,2.58-.28,3.87a6.45,6.45,0,0,0,.14,1.15c.08.51.36,1.07.22,1.51-.75,2.28.22,4.38.6,6.53.21,1.17.66,2.29.9,3.45a8.5,8.5,0,0,0,4.26,5.8,7.54,7.54,0,0,0,5.56.58,11.53,11.53,0,0,1,2.67-.55,5.1,5.1,0,0,0,4.15-2.22,9.12,9.12,0,0,1,1.33-1.13c.24,0,.61.17.71.07,1.77-1.85,3.51-3.72,5.26-5.59,1.22-.9,2.3-2,4-2l-.18-.38-.86,0c0-.12-.11-.23-.09-.26L44,169.2a4.49,4.49,0,0,0,.4-.57c1.6-2.84,3.2-5.67,4.78-8.52.83-1.51,1.57-3.06,2.44-4.54a26.29,26.29,0,0,1,1.73-2.35l.34.21c-.6,1.2-1.2,2.4-1.79,3.6-.28.59-.52,1.2-.78,1.8h0c-.23.19-.55.33-.68.58-.82,1.54-1.62,3.1-2.38,4.67-.12.27-.16.79,0,.92a1.67,1.67,0,0,0,1,.17c.26,0,.54-.18.79-.15,2.25.24,3.8-1,4.3-3.35a3.14,3.14,0,0,1,1.29-2c1.53-.67.92-2,1.25-3a1.6,1.6,0,0,0-.2-1.3c-.18-.23-.77-.15-1.43-.24,0,0-.23-.41-.12-.52,1-1.05.44-2.38.78-3.93L54,152.54l-.37-.33,2.7-4.81.36.16v1.61l1-1.26.2.08-.36,1.28c.45-.4.68-.74,1-.82a4.28,4.28,0,0,1,1.24,0,4.17,4.17,0,0,1-.2.93c-.31.74-.67,1.48-1,2.2a12.52,12.52,0,0,1-.68,1.1l-.2-.26L57,154.47l.7,1.12c.23-.36.57-.65.6-1,.15-1.52,1.18-2.55,1.95-3.74,0,0,.07-.06.07-.09-.11-1.47,1-2.09,2-2.85.16-.13.3-.28.46-.41s.71-.4.78-.68-.3-.58-.53-1c1-.58,1.18-2.33,2.57-2.27.82-1.21,1.55-2.27,2.52-3.68-.16-1.09.66-2.22,1.73-3.25.73-.71,1.47-1.37,1.23-2.64-.07-.34.64-1.07,1.14-1.25.85-.3,2-.17,1.33-1.64a.56.56,0,0,1,.16-.52c1.12-.42.54-1.17.26-2.13l1.75.71,1.59-5.08-2.25.26-.16-.38c2.37-.12,1.76-2.64,3.18-3.74l-.16,1.56.21.06,3.21-7,.42.17q-1.38,3.43-2.74,6.86l.09.24c.33-.25.81-.44.94-.76A20.48,20.48,0,0,0,80.6,119c0-.13.22-.2.3-.32.39-.62.76-1.25,1.15-1.87s.67-1,1.06-1.67L85,110.43c-1.31-.56-.9-1.51-.39-2.48.63-1.18,1.25-2.37,1.87-3.56l.33.14L86,106.41l.23.14a14.87,14.87,0,0,1,.94-1.4c.22-.26.63-.34.86-.59s.48-.67.39-.83c-.44-.77.06-.9.6-1,.77-.21,1.47-.44,1.2-1.53-.07-.27.23-.66.43-1a79.85,79.85,0,0,0,6-10.19,5.34,5.34,0,0,0,.33-1.45c.33-.12.83-.16,1-.41.55-.8,1-1.68,2.31-1a4.48,4.48,0,0,1,2.06-4.63,3,3,0,0,0,.67-.81c1-1.49,2.55-1.76,4.13-1.85.41,0,.85.45,1.36.86-1,.08-1,.45-.84,1.23a7.75,7.75,0,0,1-.24,2.39l1.76.11c-.16.41-.37.86-.51,1.32a35.8,35.8,0,0,1-1.34,4.3A79.51,79.51,0,0,1,103.13,98c-2.32,3.76-3.77,7.92-5.85,11.79a83.4,83.4,0,0,0-3.83,8.51c-1,2.39-1.69,4.87-2.54,7.3-.25.72-.6,1.4-.91,2.1l.37.17c.25-.56.46-1.14.76-1.68,2.4-4.35,4.61-8.84,7.29-13,3-4.58,6.25-9,9.59-13.27a84.33,84.33,0,0,1,11.08-12.27c5.26-4.58,10.42-9.3,16-13.48,3.11-2.33,6.9-3.77,10.47-5.44a35.94,35.94,0,0,1,6.92-2.55c3.44-.82,6.93-1.36,10.52-.38,1.45.39,2.72.67,3.6,2,.21.31.94.27,1.43.39,1,.26,2.29,0,2.81,1.58L171,69,172.73,71c-.34.47,0,1.77-1.35,2.14-.1,1,.53,1.37,1.27,1.78a17.58,17.58,0,0,1,2,1.48l-1-3.75.38-.14.64,1.77h.14V72.45c.75,1.87,1.38,3.42,2,5l.32-.1-.67-2.1c.68.86,1.59,1.6,1.17,2.9a1.24,1.24,0,0,0,.2.9,2.57,2.57,0,0,1,.2,2,9.26,9.26,0,0,0,.33,2.55c.15,1.65.25,3.31.35,5a1.73,1.73,0,0,1-.16.69c-.55,1.57-1.07,3.16-1.68,4.71s-1.48,3.25-2.11,4.91c-.89,2.33-1.65,4.72-2.52,7.06-1.26,3.37-2.6,6.72-3.86,10.1-.65,1.76-1.12,3.59-1.82,5.34-.59,1.5-1.35,3-2.09,4.39-.91,1.75-2,3.42-2.76,5.23-.34.83-.32,1.77-1.07,2.49-.22.22.21,1,.07,1.44a13.66,13.66,0,0,1-2.17,3.86,42.48,42.48,0,0,0-3.18,5.87c-.11.23.23.65.2,1a5.2,5.2,0,0,1-.42,1.18c-.78-.42-.76.3-.91.67-.92,2.21-1.81,4.43-2.72,6.65-.25.62-.83,1.25.51,1.71-1.77.19-2,1.32-2.39,2.5-.72,2.14-1.69,4.19-2.49,6.31a5,5,0,0,0,0,1.44,1.1,1.1,0,0,1-.16.53,40.66,40.66,0,0,0-2.36,3.66,5.56,5.56,0,0,1-3.12,3.1,10.34,10.34,0,0,0-1.82,1.12l.53-3.22-1.66,1.2.35,1.75-.34.12L136.11,172l-.32,1.39-.35,0c0-.7.09-1.4.13-2.11,0-.11.09-.24.07-.35-.94-4.13.4-8.05,1.16-12,.51-2.68.85-5.39,1.38-8.07a25.94,25.94,0,0,1,1.13-3.5q2.88-8,5.79-16.08c1.14-3.15,2.19-6.33,3.41-9.44.88-2.22,2-4.34,3-6.52,1.08-2.44,2.09-4.91,3.17-7.35.68-1.54,1.52-3,2.16-4.57,1-2.45,1.93-5,2.9-7.43.1-.25.3-.46.4-.71.37-1,.7-2,1.1-3s.9-1.68,1.19-2.57c.44-1.34.69-2.75,1.1-4.11.35-1.19.8-2.36,1.24-3.62l-.69-.13-.1-.29L165.3,81a24.74,24.74,0,0,0-.67-3.78c-.16-.47-1.08-.91-1.69-1a9.75,9.75,0,0,0-5.86,1.14c-.57.33-1.22,1.12-2.43.65-.69-.27-1.91.91-2.92,1.38s-2.15.88-3.2,1.37a10,10,0,0,0-1.81,1.07C145.14,83,144,84.64,142,85.35a9.06,9.06,0,0,0-2.77,2.15A10.07,10.07,0,0,1,136,89.26c-.35.15-1.69.26-1.19,1.47,0,.1-.22.39-.39.53A9.3,9.3,0,0,1,132.13,93c-2.46.89-3.69,3.09-5.36,4.8a64.3,64.3,0,0,0-4.73,5.43c-1,1.22-1.6,2.66-2.5,3.92a12.22,12.22,0,0,1-1.74,1.71c-.41.65-.78,1.32-1.22,1.94-.71,1-1.43,2-2.23,2.9-.4.45-1.07.67-1.46,1.13a16,16,0,0,0-1.3,2l-.34-.08a7.63,7.63,0,0,1-.55,1.8c-1.27,2-2.61,4-4,6a4,4,0,0,1-1.27,1.16,1.77,1.77,0,0,0-1,1.72c0,.18-.42.35-.59.56-.45.56-.87,1.13-1.33,1.73l.5.6a31.41,31.41,0,0,0-2.28,2.76c-.69,1-1.62,2-1.22,3.21-2.93,3.53-4.38,7.58-5.71,11.79l-.51-.12c.08,1-1.51,1.25-1,2.48.11.25-.48.78-.68,1.21-.79,1.68-2,3.31-2.21,5.07-.31,2.57-2.18,4.21-3,6.44-.24.67-.34,1.4-.63,2-.74,1.62-1.53,3.22-2.35,4.8a22.43,22.43,0,0,0-2.52,8.8A19.43,19.43,0,0,1,79.64,183c.41-2.08.83-4.17,1.24-6.26l-.39-.09c-.48,2.14-1,4.29-1.47,6.49l.63-.15-.92,1.59-.25-.91c-.12.25-.24.38-.23.51,0,1.93-1.06,3.38-2.06,4.87-.55.83-1.2,1.19-2,.41-1,.87-1.66.64-2-.62-.22-1-.42-1.94-.66-2.91a1,1,0,0,0-.37-.59c-1.65-.67-1.53-2.27-2-3.59h-.34c.11,1.68.22,3.36.33,4.95-1.53-.55-2.66-5.19-1.62-7.58l.54.38c.47-1.08.92-2.14,1.38-3.19l-.33-.19-.66.42a165.45,165.45,0,0,1,1.86-18.08l.34,0,.46.83c.25-.8.51-1.56.72-2.33a.61.61,0,0,0-.23-.72c-.22-.41-.68-.86-.61-1.22.46-2.63,1-5.25,1.57-7.86a4.93,4.93,0,0,1,.27-.73l.31,0L73,150l.1,0c.47-2,1-4,1.4-6q.89-3.9,1.72-7.8c.14-.66.18-1.34.27-2a3.24,3.24,0,0,0,.39-.6q1-3,1.94-6a11.75,11.75,0,0,0,.22-1.36c-.74.38-.49,1.93-1.85,1.16-.26.89-.51,1.68-.72,2.47-.06.22-.11.61,0,.66,1.17.65.45,1.49.28,2.28-.1.46-.16.93-.23,1.4l-.77.47.16-2-.13,0c-.23.66-.43,1.33-.7,2s-.39,1.33-1.35,1.2c-.16,0-.47.36-.56.61-.32.89-.58,1.81-.9,2.84l-.71-.63c-.66,1.4-1.24,2.79-1.94,4.11a24.64,24.64,0,0,1-1.52,2.2,3,3,0,0,0-.32.73,9,9,0,0,1-.53,1.4c-1.53,2.57-3,5.14-4.66,7.65-.94,1.46-2,2.8-3.06,4.19-.14.19-.43.37-.41.53.19,1.93-1.07,3.36-1.89,4.81a124.15,124.15,0,0,1-7.75,12.43c-3.43,4.68-6.94,9.39-11.75,12.8A18.86,18.86,0,0,1,33,191.53,43.64,43.64,0,0,1,27.87,193a5.79,5.79,0,0,1-4.3-.43,27.22,27.22,0,0,0-6.7-2.1A8.25,8.25,0,0,1,13,188.16c-2.1-2-4.34-3.81-6.31-5.91A16.93,16.93,0,0,1,1.81,171.8l1.06,3.57.24,0c-.21-1.11-.46-2.21-.6-3.33a11.44,11.44,0,0,1,0-1.94c0-1.37.17-2.71-.85-3.92a3.41,3.41,0,0,1-.45-2c-.05-2.39,0-4.77,0-7.48a26.1,26.1,0,0,0-.15,10.33L.73,167c-.16-.9-.34-1.8-.48-2.7-.11-.7-.17-1.41-.25-2.11V160.5a4.29,4.29,0,0,0,.38-1c.66-4.93,1.25-9.9,2.87-14.61,1.93-5.61,3.8-11.28,7.06-16.32.21-.32.68-.47,1-.7a3.35,3.35,0,0,1-.08,1.24A115.24,115.24,0,0,0,4,147.47a2.22,2.22,0,0,0-.09,1.18c.47-1.36.91-2.73,1.42-4.08.67-1.74,1.4-3.46,2.1-5.19L7,141.58l.35.09,1.76-5.25.68-1.27c.79-1.47,1.59-2.93,2.39-4.4,2.37-4.3,4.73-8.61,7.12-12.89a36.76,36.76,0,0,0,2.12-3.92l-1,1.25-.3-.26c3.37-4.68,7.58-8.64,11.53-12.82A70,70,0,0,1,45.2,91.35c-4.82,1.8-8.63,5.21-12.79,8.09a5.37,5.37,0,0,1,2.37-2.64c1.95-1.44,3.87-2.93,5.92-4.22a18.58,18.58,0,0,1,3.92-1.72c3-1.07,6.07-2.23,9.19-3a12,12,0,0,1,7.54.77c2.63,1.07,5.11,2.54,6.48,5.16,1.71,3.24,2.83,6.65,1.94,10.42-.47,2-.88,4-1.27,5.94a16.31,16.31,0,0,0-.12,2.1c-.91.38-1.49,1.81-1,2.29a22.39,22.39,0,0,1-1.12,2.82c-.59,1-1.39,2-2,3-.71,1.2-1.24,2.49-2,3.66s-1.6,2.13-2.41,3.18c-.1.13-.26.22-.32.36-1.1,2.59-3.53,4-5.36,5.94A42.76,42.76,0,0,1,48,138.93c-2.84,2-5.92,3.76-8.89,5.63-1.62,1-3.2,2.09-4.83,3.09a21.12,21.12,0,0,1-6.47,2.88,2.13,2.13,0,0,1-.71,0,23.72,23.72,0,0,1-2.79-.4c-.4-.1-.72-.5-1.18-.84,1.36-.45,1.52-.94,1.16-3h2.27c-.06-.43-.2-.75-.1-.92a2,2,0,0,1,.84-.81c.44-.18,1,0,1.44-.26,1.57-.93,3.08-1.94,4.61-3a2.81,2.81,0,0,0,.51-.61l-.74-.51L33,140c1.54-.09,3.18,0,4-1.67-.24-.73-.71-1-1.46-.45-1.77,1.27-3.46,2.68-5.32,3.79s-3.55,2.91-6,3.3c-.69.11-1.27.93-2,1.48a1.75,1.75,0,0,1-.17-2.31c.14-.19.59-.22.9-.21s.36.22.55.34c0-.28.13-.55.15-.82a1.79,1.79,0,0,0-.11-.46l-1.6.11c.75-1,2.56-1.13,1.68-2.76a2.5,2.5,0,0,0,3.14-1.05.55.55,0,0,1,.14-.19l2.25-1.42.42.86c.1-.13.23-.22.22-.28a1.84,1.84,0,0,1,1-2.26.47.47,0,0,0,.23-.27c.51-2.35,2.88-2.69,4.35-4S38.55,129.31,40,128c1.74-1.52,3.35-3.19,5.06-4.75a12.38,12.38,0,0,1,1.69-1.12ZM35.5,184c1.16-.35,2.45-.48,2.94-1.87,0-.06.13-.09.19-.15a15.68,15.68,0,0,0,3.12-3,5.27,5.27,0,0,1,2.92-2.22,1,1,0,0,0,.36-.85,1.15,1.15,0,0,1,.15-1.6c.14-.14.08-.49.15-1.1a10.72,10.72,0,0,0-1.1.86q-3.58,4-7.16,8c-.55.62-1,1.29-1.56,1.93l-2.46,1.6C34.7,185.79,35.41,185.23,35.5,184Zm53.25-37.17a19.39,19.39,0,0,0,1.85-2.52c.47-.88.61-1.93,1.05-2.84.18-.37.76-.54,1.16-.81a.77.77,0,0,0,.15-.16l-.29-.24a10.24,10.24,0,0,1,.43-1.87c.69-1.54,1.4-3.08,2.22-4.55,1-1.85,2.16-3.62,3.21-5.44.37-.64.62-1.36.93-2l-.47-.25a38.45,38.45,0,0,0-2.4,3.71c-1.55,3.09-2.89,6.29-4.48,9.36-.92,1.78-1.3,4-3.35,5.06-.18.09-.18.62-.17.94,0,.55.11,1.1.18,1.65a2.66,2.66,0,0,0,.43,2.79c.09.08.25.07.49.13l-.22-.86,1.2-1C89,147.73,89,147.73,88.75,146.82ZM176.08,79l-.31-1.39-.19.06v5.12h.3c0-.83-.12-1.66-.1-2.48a6.08,6.08,0,0,1,.31-1.31c0,.43.08.87.09,1.31.08,2.92.71,5.88-.62,8.72-.16.35,0,.85,0,1.28a8.35,8.35,0,0,1-.2,2.47c-.78,2-1.77,4-2.61,6-.26.6-.19,1.34-.45,1.93-.56,1.27-1.34,2.45-1.84,3.74-2.76,7.14-5.47,14.3-8.18,21.46a9.63,9.63,0,0,0-.26,1.37,2.65,2.65,0,0,0,1.63-2,44.81,44.81,0,0,1,1.46-4.56c1.27-3.26,2.67-6.45,3.9-9.72.93-2.44,1.59-5,2.53-7.43,1.29-3.33,2.74-6.59,4.11-9.89.31-.73.58-1.48.83-2.24a8,8,0,0,0,.55-2.1c.07-2.21,0-4.42,0-6.7l.62.55c-.42-1.43-.84-2.84-1.26-4.25ZM3.23,160.08a30.53,30.53,0,0,0-.49,3.28,24.46,24.46,0,0,0,.15,4.69c.36,2.23,1,4.41,1.48,6.63.18.84.53,1.95.16,2.54-.62,1,0,1.3.48,1.81s.84.88,1.23,1.34c.77.91,1.52,1.83,2.28,2.75A13,13,0,0,0,7.79,181c-.19-.59,0-1.34-.3-1.85-2-3.74-2.9-7.83-3.63-11.94C3.45,164.86,3.43,162.46,3.23,160.08Zm79.25,2-.13-.11-1.26,3.66.27.11c.31-.65.61-1.3,1-2l.85,1.59c-1.24-.16-1.57.3-1.13,1.54l-1.18.19c-.27,1.27-.58,2.55-.78,3.84a3.79,3.79,0,0,0,.29,1.32c.41-.28,1-.46,1.18-.84a8.63,8.63,0,0,0,.84-2.86c.09-1.21.33-2.08,1.82-2-1.3-2.1,1.25-3.52.67-5.37l-2.05,2.26-.29-.24Zm-32.57,7c-1.17-.35-1.29-.44-2.55,1a9.63,9.63,0,0,0-1.15,2.78c.35.09.72.31,1,.24s.3-.51.46-.82l.61.35c.43-.7.86-1.3,1.18-2A9.07,9.07,0,0,0,49.91,169Zm20.84-7-.29-.07c-1,3.68-.41,7.53-1.24,11.23l.44.05Q70.2,167.63,70.75,162Zm18-10.11c-.79,0-1.37-.11-.89-1.1.08-.18-.26-.56-.48-1-.4.8-1,1.43-.9,2s.84.9,1.29,1.36a7.84,7.84,0,0,1,.57.82ZM3.39,147.31,3,147.24,1.6,155l.45.08Zm157.85-17.69-.31-.12-3.36,7.6.45.19C159.09,134.73,160.17,132.18,161.24,129.62ZM82.37,158.5a5.09,5.09,0,0,0,1.24.9c.23.08.83-.23.86-.42a18.82,18.82,0,0,0,0-2.4l-1.38.35.43.86ZM102.7,84.3,102,85.69A6.75,6.75,0,0,0,103.7,84c.45-.6.82-1.28,1.23-1.93l-.23-.2-2.86,2.53ZM49.93,168.6c1-.28,1.2-.68,1.06-2.81l-1.71,1.38ZM1.75,163.92l.23,0,1.15-7.59-.46-.06Zm84.53-10.35-.36-.14c-1.92,1.13-1.92,1.13-.45,2.71Zm.1-40.75c1.44.42,2.23-.51,2.09-2.33ZM3.68,151.23l.3.1,1.94-6-.33-.1Zm142.72.44-.1-2c-.25.09-.62.11-.73.29C145.17,150.63,145,151.27,146.4,151.67Zm24.28-81.1.69,2,1-1.66ZM147,148.26l.37.14,1.34-3.51-.35-.13C147.93,145.92,147.47,147.09,147,148.26ZM37.14,136.87l.23.39,2.2-1.39-.18-.32ZM167,70.75c-.37-1.74-.37-1.74-1.43-1.5Zm-80.72,88-.16-.37c-.35,0-.88,0-1,.15s0,.72,0,1.1l.31.08ZM79.76,173l-.33,2.2.17,0,1.09-1.77Zm102.32-69.28.73-.73c-.39,1.07-.77,2.13-1.15,3.19l.2.07,1.52-3.38-.58.14C187,93.29,193.49,82.87,198,78.36L192.22,87l.41.34a4.37,4.37,0,0,1,.31-.61q3.94-5.41,7.91-10.82c1.27-1.74,2.49-3.52,3.85-5.19a6.72,6.72,0,0,1,2-1.28c1.2-.69,1.42-1.43.78-2.71.27.11.73.16.79.34.29.81.69.66,1.16.24,2.15-1.94,4.29-3.91,6.47-5.83.46-.4,1.12-.59,1.61-1a52.34,52.34,0,0,1,9.61-6c3.89-1.81,7.86-3.5,12.22-3.3,3.77.17,7.3,1.23,9.9,4.3a13.91,13.91,0,0,0,2.1,1.95c2.25,1.75,2.55,4.27,2.89,6.83a15.06,15.06,0,0,1-.49,5.18c-.52,2.53-.78,5.1-1.31,7.63-.31,1.51-1.18,2.92-1.35,4.43s-1.31,2.25-2.2,3.18a5.16,5.16,0,0,1-1.39.76l-.26-.22.7-2.08a10,10,0,0,0-1.35,1.24,1.3,1.3,0,0,1-1.76.41c-.61-.22-.77-.51-.54-1.18a2.64,2.64,0,0,0,.07-1.77,2.6,2.6,0,0,1,.22-2.46,33.33,33.33,0,0,0,3.39-12.88,6.59,6.59,0,0,0-.8-3.85c-1.14-1.78-3.87-2-5.83-.95-.72.39-1.52.65-2.24,1.06a28.18,28.18,0,0,0-3.1,1.93c-1.46,1.09-2.82,2.3-4.25,3.44-.67.53-1.28,1.41-2.33.63.73-1.64,6.08-5.42,6.63-5.14l4.68-2.49a11.87,11.87,0,0,0-6.82,2.42c-1.23.93-2.31,2.17-3.68,2.76a14.74,14.74,0,0,0-5,4,1.75,1.75,0,0,1-1.13.58c-1.16-.06-1.69.69-2.17,1.57l.88-.51.22.26L220,75.13h0l.24-1.13-.21-.12-2,2.45h0c-1.16,1.14-2.37,2.23-3.46,3.44-1.62,1.78-3.18,3.63-4.71,5.5a9.49,9.49,0,0,0-1,1.85c-1.16,1.43-2.34,2.84-3.48,4.29a3.75,3.75,0,0,0-.36,1c-1.1,1.51-2.32,2.95-2.65,4.86.49-.76.95-1.55,1.37-2.35s.85-1.68,1.28-2.51c.7-.39.76-1.63,1.93-1.42.11,0,.33-.33.43-.54.51-1.1,1-2.21,1.48-3.32l1-.72-.05,1,5.91-6.64.3.25L213,85.27l-.21.65a5.94,5.94,0,0,1-2.91,3.58l1.91-2.71-.41-.28-4.11,5.89.25.2,1.73-2,.39.26c-.79,1.17-1.57,2.34-2.37,3.5-.33.48-.76.9-1.05,1.41-1.32,2.26-2.62,4.52-3.87,6.81-.65,1.18-1.18,2.43-1.78,3.64-.88,1.78-1.8,3.54-2.66,5.33-.64,1.32-1.21,2.67-1.81,4-.74,1.65-1.48,3.31-2.24,5-.31.7-.66,1.4-1,2.09l-.08-1.57c-2.3,5.82-4.24,11.66-3.92,18,.2-1.22.11-2.49.36-3.69.63-3,1.36-5.95,2.16-8.89a37.39,37.39,0,0,1,1.49-3.83c-.58,2.27-1.21,4.53-1.72,6.81s-1,4.87-1.38,7.32c-.18,1.05-.22,2.13-.34,3.3l-1-.22c1.37,1.3,1.25,2.94,1.24,4.55s.55,2.13,2,2.21a10.18,10.18,0,0,0,5.83-1.73c4.52-2.63,8.08-6.34,11.82-9.87a14.58,14.58,0,0,0,1.32-1.68c.92-1.2,1.85-2.39,2.77-3.6,1.4-1.82,2.76-3.67,4.18-5.47,2.42-3.06,4.84-6.11,7.33-9.12,2.36-2.84,4.79-5.62,7.22-8.41,1-1.13,2-2.2,3-3.29.11-.11.26-.27.39-.27,2.56,0,2.57-2.59,3.85-3.89s2.28-2.57,3.44-3.84a4.45,4.45,0,0,1,.93-.53c.44,2.34-.82,4.3-.8,6.43.56-.94,1.11-1.89,1.66-2.84l.43.16a4.51,4.51,0,0,1-.44,1.47,1.64,1.64,0,0,0,.14,2.57c.81.76.7,2-.47,3l.08-1.75-.32-.11-1.2,3.22.38.17a2.53,2.53,0,0,1,.42-.61.72.72,0,0,1,.63-.08.64.64,0,0,1,.21.6,14.54,14.54,0,0,1-1.5,3.21l-.27-2.57c-.67,1.06-1.24,1.88-1.71,2.74-.14.25,0,.65,0,1,.34-.05.68-.08,1-.14a7.76,7.76,0,0,0,.75-.28,3.87,3.87,0,0,1-.29,1.16c-1.36,1.9-1.39,4.24-2.15,6.34-1,2.74-1.93,5.5-2.77,8.28-.46,1.51-.66,3.09-1,4.63-.48,2-1.12,4-1.49,6-.65,3.51-1.15,7.06-1.68,10.59-.72,4.68-1.38,9.37-2.12,14-.43,2.67-1,5.32-1.46,8-.39,2.34-.67,4.7-1,7.32l1.37-2,.34.13-3,10.88.11.07c.17-.39.36-.78.51-1.18a79.34,79.34,0,0,0,3.33-12.56,7.45,7.45,0,0,0,0-3.22c-.28-1.26.29-2.73.53-4.1.36-2,.74-4,1.13-6.08.24-1.24.61-2.47.77-3.73.6-4.49,1.13-9,1.7-13.49.09-.71.28-1.41.43-2.11.2-.91.64-1.43,1.59-1-.18,1-.35,2-.55,3a1.46,1.46,0,0,1-.32.6c-.44.56-.45.55.34,1.09l.85-2.26c-.58,7.84-1.42,15.25-2.6,22.63l-.54-.07q.62-4.53,1.22-9.08l-.38-.05c-.26,1.68-.47,3.37-.8,5-.4,2-1,4-1.34,6.09s-.58,4.18-.89,6.27c-.11.74-.28,1.47-.44,2.21-.66,2.87-1.32,5.73-2,8.6a1.75,1.75,0,0,0,.06.55l.37.06,3.78-17.64.11,0a7,7,0,0,1,.09,1.7c-.52,2.81-1.11,5.6-1.68,8.4-.46,2.25-.82,4.53-1.42,6.74-.81,3-1.8,5.85-2.72,8.77-.42,1.33-.85,2.65-1.29,4-1.75,5.33-3.44,10.69-5.3,16-1.23,3.49-2.66,6.92-4.11,10.33-.67,1.58-1.65,3-2.4,4.58-.91,1.85-1.6,3.83-2.62,5.61-2.44,4.3-4.94,8.57-7.61,12.73-1.29,2-3.18,3.65-4.48,5.66-1.73,2.66-4.14,4.69-6.09,7.14a2.33,2.33,0,0,1-.76.54,16.36,16.36,0,0,0-1.94.91c-3.89,2.63-7.75,5.31-11.65,7.92a5.83,5.83,0,0,1-1.78.48c-.22.06-.54,0-.66.18a6,6,0,0,1-4.61,1.85,40.15,40.15,0,0,1-6.56-.36,18.94,18.94,0,0,1-4.54-1,6.15,6.15,0,0,1-2.73-1.93c-3.28-4.48-3.87-9.6-3-14.93a51,51,0,0,1,3.51-13.22c1-2.06,2-4.09,2.91-6.17,1.51-3.39,2.84-6.86,4.45-10.19,1.07-2.21,2.53-4.23,3.76-6.37,1.48-2.59,2.87-5.22,4.36-7.81.65-1.13,1.44-2.19,2.15-3.29a32.49,32.49,0,0,1,2.41-3.76c2.48-2.88,5.13-5.64,7.67-8.48,1.24-1.4,2.37-2.9,3.63-4.29a4.49,4.49,0,0,1,1.59-1c.22-.1.57.1.86.16a2.78,2.78,0,0,1-.29.95c-1.19,1.41-2.44,2.78-3.6,4.22a1.44,1.44,0,0,0-.05,1.16c.27.78,1.16,1.83.92,2.19a9.63,9.63,0,0,1-2.65,2.33,4.82,4.82,0,0,1-1.62.39h0c.66-.92,1.31-1.85,2-2.77a5.79,5.79,0,0,0,.58-.75,9.36,9.36,0,0,0,.37-1.17,3.86,3.86,0,0,0-1.18.53c-.62.6-1.1,1.35-1.71,2-.79.8-1.63,1.57-2.5,2.29a3.93,3.93,0,0,0-1.56,2.11,9.41,9.41,0,0,1-1.54,2.37c-.41.65-.75,1.33-1.12,2l.27.25,1.35-.4c0,.25.19.65.14.67-1.12.59-.86,1.94-1.56,2.73-.14.17-.39.22-.64.36-.67-1.08-.13-1.93.48-2.84a4.11,4.11,0,0,0-2.95,3c-.15,1.41-2.25,2.08-1.35,3.86l2.38-3.25.29,0,.24,2,1.06-1.35.23.15c-.77,1.46-1.52,2.93-2.31,4.37-2.4,4.42-4.87,8.79-7.2,13.25a52.38,52.38,0,0,0-2,5.1c-1.4,3.56-2.84,7.11-4.23,10.67a8.92,8.92,0,0,0-.88,4.88,1.77,1.77,0,0,1-.2.78,4.27,4.27,0,0,0-.36.75c-.54,3.67-1.6,7.31-.76,11.08a2.18,2.18,0,0,0,1.83,1.91,14.15,14.15,0,0,0,8.83-.42,29.92,29.92,0,0,0,6.28-3.87c2.4-1.84,4.53-4,6.84-6a15.72,15.72,0,0,0,3-4.24c.46-.75,1.13-1.37,1.64-2.09a9.9,9.9,0,0,0,.51-1.25c1.92-3.89,3.92-7.75,5.76-11.68.87-1.87,1.45-3.87,2.17-5.8.14-.39.32-.77.48-1.15l.31.11c-.32,1.05-.65,2.09-1,3.14l.3.12,2.38-4-.81.34c.37-1.23.67-2.31,1-3.38q3.16-9.78,6.37-19.56a9.35,9.35,0,0,1,.61-1.28h0q-.85,3.4-1.72,6.8c-.14.54-.32,1.08-.48,1.61l.44.13q3-9.85,5.92-19.69l-.54-.15c-.15.58-.28,1.16-.46,1.73s-.42,1.21-.63,1.82l-.48-.18,2.16-8.07.5.1-.72,3.74.34.09c.7-2.75,1.41-5.5,2.11-8.26l.05-.5c1-1.31.83-2.76.58-4.27a10.14,10.14,0,0,1,.19-2.55h.34l-.16,1.85.32.07c.38-1.59.76-3.18,1.18-4.92l.45.69.27-.07-.21-1.28a2.37,2.37,0,0,0,1-2.38c0-.3.15-.65.09-.94-.1-.57.91-1.39-.34-1.75a5.43,5.43,0,0,1,.16-.76,14.31,14.31,0,0,0,.44-1.8c0-.2-.32-.46-.56-.78,2.5-2,2.38-5.17,3-8.07.24-1.12.52-2.24.69-3.37a8.76,8.76,0,0,0-.15-1.5,1.29,1.29,0,0,1,.17-.79c1-1.17,1.12-2.68,1.47-4.06.54-2.13.78-4.34,1.24-6.5.26-1.19.78-2.33,1-3.52.35-1.6.55-3.24.82-4.86a2.59,2.59,0,0,1,.17-.8c.8-1.48,1.68-2.93,2.4-4.44a13.8,13.8,0,0,0,.66-2.6c-.74-.61-.2-1.44.3-2.32.74-1.33,1.41-2.7,2.14-4a9.67,9.67,0,0,1,.86-1.26c.83-1,.88-1.85-.12-2.55-.41-.29-1.19,0-1.73,0l-.39,1.73-.19.4a41.9,41.9,0,0,0-3.14,2.95,28.85,28.85,0,0,0-1.94,2.91,14.86,14.86,0,0,1-1.28,1.57c-.9.92-.76,1.58.45,2,.25.08.48.22,1,.44l-3,3.79-.22-2.44c-1.27,0-1.54.38-1.1,1.65a9.14,9.14,0,0,1,.26,1.58l-.32.24-1.32-1c-3.42,3.56-6,7.89-8.62,12.13l.26.22,5-5.64a1,1,0,0,1,.53,1.61,25.71,25.71,0,0,1-1.84,2.78c-.58.74-1,1.42-.5,2.18-.81,1.24-1.55,2.37-2.37,3.64l1.23-.29c-1.94,3.66-5.47,5.67-8,8.57l.26.32,4.12-2.8.19.18c-.28.39-.48,1-.87,1.14-2,1-3.57,2.79-6,3.1-1,.13-1.77,1.1-2.73,1.37a15.32,15.32,0,0,1-10.33-.65c-2.68-1.1-5.44-2-8.16-3a3.7,3.7,0,0,1-1.25-.68,1.07,1.07,0,0,1-.24-1c.28-.66,0-1-.46-1.4a9.32,9.32,0,0,1-1.26-1.61l-.92.12.16-.77c-.67-2.14-1.44-4.21-1.94-6.34a54.73,54.73,0,0,1-.91-6.14,16.87,16.87,0,0,1,.13-2.23,22.08,22.08,0,0,1,0-2.44,12.63,12.63,0,0,1,.62-3.41c.24-.58-.18-1.41-.07-2.09.24-1.47.31-3.12,1-4.33.82-1.36.71-2.79,1.13-4.15s.86-2.51,1.32-3.75c.33-.88,1.2-1.93,1-2.56-.86-2.22,1.15-3.61,1.24-5.49Zm9.13,17.27a1.61,1.61,0,0,0-.26.4q-1.42,5.16-2.83,10.32a3.22,3.22,0,0,0,0,.76c.93-3.06,1.78-6.11,2.59-9.17.21-.76.33-1.55.48-2.32,1-2.25,1.93-4.5,2.9-6.76C193,115.3,191.4,119.26,191.21,120.94Zm20.63,110.54a55,55,0,0,0,2.9-5.32c2.12-5.11,4.09-10.29,6.09-15.45.33-.84.53-1.72.79-2.58l-.29-.1c-.55,1.41-1.08,2.83-1.63,4.24-2.31,5.88-4.54,11.8-7.65,17.33a13.2,13.2,0,0,0-.66,1.65,31.37,31.37,0,0,0-3.31,6.6A19.3,19.3,0,0,0,211.84,231.48ZM188.08,126.92a6.31,6.31,0,0,0-.36.82c-.59,2.6-1.34,5.18-1.69,7.81a23.58,23.58,0,0,0,.1,6,13.34,13.34,0,0,0,1.43,3.38l.49-.17c-1.29-2.86-1-5.86-.79-8.81S187.78,130.17,188.08,126.92Zm49.48-22.45a23.06,23.06,0,0,0-1.91,1.48,6.56,6.56,0,0,0-1,1.41c-.31.49-.59,1-.88,1.51a2.93,2.93,0,0,0-.42,1c-.06.27-.12.7,0,.82a1,1,0,0,0,.88.1c.2-.08.33-.45.4-.72s-.12-.34-.18-.52C235.66,109,237.59,105.68,237.56,104.47Zm-38.46,1.84.42.22,5.76-10.62-.31-.17ZM174.53,214.38c-1.08,1.51-3,2.55-2.6,4.9C173,217.79,173.58,216,174.53,214.38Zm32.7,25.47-.42-.26c-1,1.4-2,2.8-2.93,4.22,0,.07.2.35.44.75ZM200.53,151c.71-.32,1.36-.49,1.67-1.51.2-.64,1.18-1,1.81-1.53l-.16-.24-3.64,2Zm21.89,54.89.74-2.27h-.93l.56-1.91C221.79,203,221,204.28,222.42,205.87Zm-19.73,40.6-.53-.37-2.44,3.64.4.28Zm-3.87-142.65-.37-.17-2.67,6.08.3.13Zm-8.76,17.26-.4-.11-1.53,5.3.36.1C189,124.61,189.53,122.84,190.06,121.08Zm45.88,30.7.31,0c.25-1.66.51-3.32.76-5l-.36-.05C236.41,148.45,236.17,150.12,235.94,151.78Zm-.73-93.62-.11-.38c-.53.06-1.06.1-1.58.21-.17,0-.29.29-.44.45.22.1.47.34.65.29A12.85,12.85,0,0,0,235.21,58.16Zm-5.31,127-.4-.09-.81,3.47.37.09ZM206.09,211.8l-.31-.1-1.33,4.18.25.08C205.16,214.57,205.62,213.18,206.09,211.8ZM198.57,108l-.41-.13c-.25.79-.51,1.59-.76,2.39l.48.14Zm27.89,87.57.32.09,1.09-3.78-.28-.08C227.21,193,226.83,194.26,226.46,195.52Zm-24,25.9.34.12,1.12-3.18-.28-.1Zm21.61-24.18.42.09.56-2.54-.35-.07ZM367.78,59.77a11.13,11.13,0,0,1-.71,2.18c-.2.36-.79.51-1.21.76l-.44-.29v2.3c-.34.54-.65,1-1,1.54-1.74,2.6-3.51,5.18-5.22,7.8a22,22,0,0,0-1.1,2.23c-.1.21-.2.51-.38.59a5.33,5.33,0,0,0-3,2.22c1.22.43,1,1.15.45,2-1,1.42-1.87,2.86-2.77,4.32-.07.11.07.34.08.52a3.07,3.07,0,0,1,0,1c-1.08,3-2,6-3.89,8.59.67,1-.05,1.82-.37,2.73a12.62,12.62,0,0,0-.64,2.09c-.19,1.06-.2,2.17-.44,3.22-.08.34,0,1.28-.94.91-.15.53-.57,1.2-.39,1.56.53,1-.23,1.77-.37,2.64l-.39,2.5a30.53,30.53,0,0,0-.44,3.27,12.06,12.06,0,0,0,1.78,7c.35.54.71,1.07,1.05,1.62.74,1.19,1.57,1.15,2.91.36a13.91,13.91,0,0,1,3.31-1c-.08-1.42,1-2.15,2.17-2.92s2.08-1.59,3.21-2.47l.41,1c1.27-1.18,2.5-2.33,3.84-3.56.82,1.05-.08,1.41-.57,1.82-.85.72-1.78,1.34-2.65,2-1.79,1.44-3.54,2.93-5.35,4.34-.9.71-1.9,1.28-2.86,1.92l.14.33a23,23,0,0,0,3.82-1.67,41.61,41.61,0,0,0,9.75-9.44c2.22-2.91,4.64-5.67,6.74-8.65s3.93-6.17,5.89-9.26a29.35,29.35,0,0,1,2.69-3.73l-.81,2a14.27,14.27,0,0,0,1.84-.62,1.52,1.52,0,0,0,.65-.76,26,26,0,0,1,3.86-6.42c.47-.59.85-1.24,1.32-1.83.88-1.1,1.82-2.15,2.66-3.27.63-.83,1.14-1.75,1.7-2.63a5,5,0,0,1,.79-1.22c1.27-1,1.47-2.67,2.4-3.87.37-.47.55-1.31,1.75-.32a4.09,4.09,0,0,1,1.09-5.1,17.13,17.13,0,0,1,1.53-.83c.93-.63,1.83-1.31,2.75-2l.89-.61c.82,2-1.53,3.59-.74,5.17a12.59,12.59,0,0,0-1.22,1.67c-.94,2-1.82,4-2.81,6.16l2.94-3.37.45.23c-.21.53-.39,1.07-.64,1.59-.64,1.36-1.58,2.64-1.08,4.32.06.2-.46.65-.78.87-.69.49-1.18,1-.57,1.84a1.07,1.07,0,0,1,.06.88c-.55,1.46-1.22,2.88-1.71,4.36-.32,1-.32,2.06-.57,3.07-.64,2.5-1.37,5-2,7.48-.22.91-.16,1.89-.29,2.82a2,2,0,0,1-.44,1.07c-.82.89-.84.87-.47,2,0,.09-.14.23-.19.36-.14.35-.47.8-.36,1,.4.88-.2,1.5-.36,2.24-.2,1-.22,1.94-.4,2.89-.23,1.25-.55,2.47-.81,3.71-.07.36-.08.74-.13,1.26l1.32-.67a1.41,1.41,0,0,1-.44,2.1,6.8,6.8,0,0,0-2.51,4.45c-.08.36.06,1.34-.93.84a9.74,9.74,0,0,0-.44,1.81c0,.5.35,1.07.21,1.51-1.87,6-3.8,12-5.7,18s-3.77,12-5.7,18c-.35,1.08-1,2.08-1.4,3.14a12.47,12.47,0,0,0-.37,1.49,18.6,18.6,0,0,1-.83,2.81c-.44.94-1.2,1.66-1,2.92a6.3,6.3,0,0,1-.67,2.57c-.83,2.49-1.68,5-2.53,7.45-.05.14-.19.24-.46.29l.62-2.05-.22-.07q-1.19,3.1-2.38,6.21c-1.09,2.83-2.15,5.67-3.3,8.48-1,2.48-2.35,4.85-3.18,7.39a17.4,17.4,0,0,1-2.49,4.92c-.38.52-.35,1.32-.69,1.88-1.58,2.6-3.23,5.16-4.85,7.74a12.32,12.32,0,0,1-1.8,2.8,14.28,14.28,0,0,0-2.16,3,33.76,33.76,0,0,1-2.93,3.7A6.58,6.58,0,0,1,344,228.8l.45-.74-.15-.17-1.42,1c.5,1.42-.78,1.84-1.43,2.47a7.41,7.41,0,0,1-2.6,1.43,4.78,4.78,0,0,1-1.76,0l0,.35h.71l.14.25-1.72,1.23-.24-.25.39-1c-.4.16-.84.26-.84.35,0,1.1-1.08,1.12-1.66,1.56a26,26,0,0,1-3,1.68c-.95.55-1.87,1.16-2.82,1.72a1.7,1.7,0,0,1-.87.29,53.94,53.94,0,0,1-7.21-.84c-3.47-.82-6.7-2.34-8.58-5.61a10.3,10.3,0,0,1-1.37-6c.06-1-.26-1.93-.3-2.91a6.74,6.74,0,0,1,.32-1.57c.05-.19.23-.4.18-.54-1-2.65.23-5.15.56-7.7.07-.53.64-1,.82-1.27a4.69,4.69,0,0,1-.27-1.58,14.79,14.79,0,0,1,2-5.59,22.37,22.37,0,0,0,.95-2c.13-.24.55-.32,1.06-.28l.63-1.46-.2-.13-.7.75-.16-.09a37.5,37.5,0,0,0,1.84-4.1c.73-2.23,2.26-4,3.32-6s2.18-4.07,3.43-6c1.72-2.66,3.58-5.24,5.42-7.82a4.08,4.08,0,0,1,1.26-1.07c.53-.31.82-.55.75-1.28a.86.86,0,0,1,1.19-1c.11,0,.43-.21.42-.28-.4-1.83,1.23-2.59,2.06-3.69,1.42-1.85,3.12-3.49,4.69-5.23.82-.92,1.59-1.91,2.43-2.82.25-.27.72-.34,1-.61a5.28,5.28,0,0,0,.6-1,4.47,4.47,0,0,1,.59-1c1.2-1.23,2.43-2.43,3.66-3.63s2-2.81,3.5-3.76c.4-.25.54-.88.89-1.24a10,10,0,0,1,1.27-1,2.91,2.91,0,0,1-.91,2.6,13.56,13.56,0,0,0-1.66,2.07,8.67,8.67,0,0,0-.62.84c-.21.33-.29.79-.57,1-1.52,1.2-1.38,3.81-3.69,4.31-.06,0-.08.14-.14.19-1.52,1.42-2.18,3.54-3.9,4.81-.18.14-.16.52-.31.74a6.68,6.68,0,0,1-.66.85,3.33,3.33,0,0,0-.48.6,3.55,3.55,0,0,1-2.14,2.32,2,2,0,0,0-1.16,1.37c-.11,1-.7,1.25-1.39,1.68a6.06,6.06,0,0,0-1.8,1.73,13.41,13.41,0,0,0-1.4,2.75c-.52,1.44-1.81,2.59-2.62,3.94-2.05,3.42-4,6.89-6,10.33-.35.6-.57,1.22-1.49,1.37-.35.05-.8,1-.8,1.55,0,1.24-1.11,3.61-2.14,4.08.38.94.05,2.51-.71,2.67-1.39.29-1.25,1.4-1.43,2.31-.3,1.6-.45,3.22-.72,4.83-.54,3.27-1.46,6.48-1.28,9.84,0,.38-.21.77-.23,1.16a12.08,12.08,0,0,0,0,1.7c0,.42.13.84.16,1.26.06.71.07,1.42.15,2.13.12,1.1.35,2.19.39,3.3a2.27,2.27,0,0,0,1.29,2.1,13.77,13.77,0,0,0,6.35,1.44,3.44,3.44,0,0,0,2.63-.88,6.58,6.58,0,0,1,3-1.84,5.49,5.49,0,0,0,3.42-2.37c.65-.79,1.19-.83,2.22-.63L333,228.6c-1,.48-2.25.61-2.42,2.14l2.41-2.15a22.29,22.29,0,0,0,6.32-5l-3.73,2.44-.27-.32a7.29,7.29,0,0,1,.9-1.6,25.87,25.87,0,0,1,2.73-2.27c.38-.29,1.07-.29,1.32-.64,1.1-1.55,2.12-3.16,3.11-4.78a47.25,47.25,0,0,0,3.13-5.35c1.28-2.86,3-5.49,4-8.51.74-2.28,2.06-4.37,2.91-6.62,1.52-4,2.9-8.1,4.29-12.16,2.25-6.61,4.55-13.2,6.68-19.84,1.76-5.47,3.33-11,5-16.5,1.12-3.71,2.24-7.42,3.33-11.13a16.72,16.72,0,0,0,.3-1.72,3.32,3.32,0,0,0-.87.27c-.77.62-1.53,1.26-2.27,1.92-1.11,1-2.21,2-3.3,2.95-2,1.81-4,3.58-5.92,5.44-.83.79-1.48,1.77-2.24,2.64a2.34,2.34,0,0,1-.67.4c-.38.19-.87.28-1.11.58-.9,1.13-1.71,2.34-3.46,1.84.59-.93,1.13-1.9,1.8-2.77a15.26,15.26,0,0,1,2-2.15c1.94-1.75,3.93-3.46,5.91-5.18.09-.08.23-.11.29-.2,1.42-2.37,4.08-3.43,5.77-5.53a9.66,9.66,0,0,1,1.88-1.31,8.47,8.47,0,0,0,1.76-1.49c.86-1.11,2-1.92,2.47-3.43,1.46-5,3.07-9.9,4.64-14.84,1.4-4.37,2.83-8.73,4.26-13.09.45-1.38,1-2.73,1.45-4a12.84,12.84,0,0,0-1.3-.23c-.37,0-.89-.13-1.09.06s-.13.75,0,1.06c.74,1.62.63,2-.47,3.44s-1.95,3-3,4.42c-1.66,2.36-3.38,4.68-5,7-1.22,1.72-2.34,3.51-3.6,5.2A79.32,79.32,0,0,1,358.63,131c-1,.86-2.56,1.15-3.53,2.06-1.29,1.2-2.83.57-4.2.93a5.58,5.58,0,0,1-5.07-1,2.28,2.28,0,0,0-1.33-.44c-3.65-.1-6.06-2.2-8-5a29.84,29.84,0,0,1-5.39-14.91c-.21-2.26.36-4.59.59-6.89.47-4.79,2.13-9.3,3.28-13.94a46.16,46.16,0,0,1,4.49-11.26c1.21-2.2,2.21-4.51,3.42-6.71a98,98,0,0,1,9.29-13.92c2-2.5,3.93-5,6-7.48,1.07-1.27,2.36-2.35,3.5-3.57s2-2.3,3.05-3.46a1.27,1.27,0,0,1,.34-.32c2.83-1.22,4.82-3.45,6.89-5.59a11,11,0,0,1,1.19-.77c1.48-1.13,2.94-2.29,4.42-3.43a6.06,6.06,0,0,1,.82-.47l.12,1.12,1.41-.74c-.28-1.81-.22-1.92,1.28-2.31a8.6,8.6,0,0,0-.71,1.15c-.08.2,0,.48.06.72.21,0,.48,0,.63-.11.54-.41,1-.89,1.55-1.32.13-.1.41-.21.52-.14,1.58.92,2.93-.11,4.34-.49,2.15-.59,4.26-1.43,6.44-1.8a9.6,9.6,0,0,1,9.77,3.58,24.23,24.23,0,0,1,2.89,4.19,9.53,9.53,0,0,1,.16,7.43c-.26.75-.57,1.49-.87,2.23a1.85,1.85,0,0,1-2.09,1.34,17.47,17.47,0,0,1-2.5,2.17c-.87.52-1.55-.44-2.27-.79-.29-.14-.48-.9-.39-1.31.49-2.27,1.1-4.52,1.65-6.79.17-.71.32-1.44.44-2.16.17-1-.09-2.12-1.09-2.43a9.17,9.17,0,0,0-4.26-.58A34.14,34.14,0,0,0,389.25,40c-.41.16-.65.73-.87,1.22-.47.25-1.13,0-1.21,1.14,0,.54-1.56,1-2.44,1.45a14.76,14.76,0,0,0-1.7.58,15.34,15.34,0,0,0-2.13,1.73c-.55.49-1,1-.31,1.94a4.44,4.44,0,0,1-.63-.15,1.29,1.29,0,0,0-1.73,1A4,4,0,0,1,376.12,52l-.28-.21,1.1-1.49c-.94-.05-4.14,2.44-3.89,3.13.79,2.22-1.52,2.4-2.21,3.62-.21.36-.57.63-.82,1-.51.7-.9,1.54-2,1.47.31-.47.61-.94.92-1.4.57-.54,1.18-1,1.71-1.62s.89-1.15,1.33-1.73l-.24-.19c-2.61,2.19-2.61,2.19-2.79,3.55-1.92.78-2.81,1.84-2.47,2.94ZM376.84,101l-.31-.18q-1.59,2.13-3.17,4.28l.33.23Zm25.24-64.38c.8,1.09,1.49,2,2.35,3.16C404.12,37.84,403.52,37,402.08,36.64Zm-148.5,95.79-.73-3c1.26.06,1.24-.55,1.11-1.3-.21-1.25-.36-2.52-.63-3.8V127l-.46,0c-.31-4.63,1.15-9.1,1.54-14l-1.14,1.36-.26-.08a6.64,6.64,0,0,1,0-1.18,60.07,60.07,0,0,1,4.78-14.23c1.25-2.8,2.72-5.5,4.15-8.22.24-.45.94-.66,1.16-1.12a22.54,22.54,0,0,0,.83-2.48,9.22,9.22,0,0,1,.62-1.2l.48.89c1.4-2.64,2.67-5.09,4-7.52a3.77,3.77,0,0,1,1-1.31,4.56,4.56,0,0,0,2.08-3.23c.05-.42.58-.87,1-1.12a9,9,0,0,0,3.08-3.7,13.07,13.07,0,0,1,.82-1,43.9,43.9,0,0,1,3.65-4.32c3.09-3.21,5.75-6.84,8.84-10a105.09,105.09,0,0,1,8.83-8A32.19,32.19,0,0,1,311,40.08a12.75,12.75,0,0,1,7.15.28c3.3,1,5.41,3.24,7.46,5.71a1.6,1.6,0,0,1,.31,1l-.89-.83-.35.24,3,4.42-1.22-.23-.19,2.95-.8.15c.33,1.49.11,1.81-1.75,2.32a8.53,8.53,0,0,1,.53-1.58,4.54,4.54,0,0,0,.37-3.91c-.16-.49-.29-1.34-1.27-1-.13,0-.39-.24-.58-.38-2.25-1.52-4.52-2.17-6.93-.31a44.09,44.09,0,0,0-4.45,3.38c-1,1-2.16,2-3.12,3.06s-2.05,2.32-3,3.52c-1.31,1.6-2.53,3.28-3.89,4.85-1.1,1.28-2.42,2.38-3.53,3.66s-1.93,2.52-2.88,3.78c-.08.1-.1.25-.19.31-2.4,1.55-3.33,4.22-4.9,6.42-1.16,1.63-2.36,3.25-3.46,4.94-1.35,2.08-2.54,4.27-3.91,6.33-1.21,1.81-2.6,3.5-3.85,5.28A12.28,12.28,0,0,0,278,96c-.09.17-.44.21-.83.37-.33,3.89-2.91,7.35-4.18,11.29l-.9,2.85a58.68,58.68,0,0,0-1.83,6c-.38,1.92-1.33,3.7-1.08,5.8a34.79,34.79,0,0,1-.22,5.08c-.05,1.54,0,3.09-.17,4.68l-.41-1.56-.38.07c.22,1.17.45,2.35.67,3.52l.44,0,.24-.8c.84,1.32,1.64,2.5,2.36,3.72.51.85,1,1.11,1.92.46a7.57,7.57,0,0,1,2.15-1c3.06-1,5.17-3.27,7.26-5.47a32.37,32.37,0,0,0,3.9-5.53c3.77-6.2,7.47-12.45,11.19-18.68,2.82-4.73,5.59-9.5,8.47-14.19,2.16-3.5,4.47-6.9,6.71-10.35,1.81-2.81,3.51-5.71,5.46-8.42A51.39,51.39,0,0,1,323,69.18c1.26.9,1,1.66.41,2.66a16.44,16.44,0,0,0-1.15,3c.67.56,1.34.55,1.66-.81.52,1,.39,2.89-.35,3.31-1.23.7-.46,1.23.05,2.14.64-1.57,1.19-2.94,1.75-4.3l.32.1v1.57l1-1.2c.82,1.37-.55,2.18-.64,3.43.69-.4,1.39-.59,1.74-1a7.78,7.78,0,0,0,.78-2l.29.08c-.19.93-.38,1.86-.61,3l1.34-.68c.19-1.61.33-3.08.55-4.54,0-.22.41-.39.63-.58.21.25.63.52.6.74-.19,1.64-.53,3.25-.7,4.89a5.21,5.21,0,0,0,.39,1.73c.21.73.72,1.48.64,2.17a31.86,31.86,0,0,1-1.1,5.48c-.71,2.34-1.68,4.6-2.48,6.91-.27.78-.33,1.63-.53,2.44-.46,1.8-1,3.57-1.4,5.37-.69,3.18-1.23,6.39-2,9.55a18.05,18.05,0,0,0-.49,3.44,47,47,0,0,1-1,5.56c-.17,1.06-.14,2.15-.29,3.21-.12.77-.39,1.52-.58,2.29-.6,2.41-1.11,4.86-1.85,7.23a15.14,15.14,0,0,1-.78,1.43c-.28.62-1.35.44-1.58-.25a19.86,19.86,0,0,1-.49-2.31c-.2,1.08-.36,1.94-.51,2.81l-.35,0c-.29-1.17-.57-2.34-.86-3.5-.09-.35-.07-.82-.29-1-1.54-1.34-1-3.21-1.05-4.78,0-5.64,1.13-11.17,2.13-16.7.9-5,2.14-10,3.3-14.94.47-2,1.08-4,1.7-5.91a7.45,7.45,0,0,1,1.06-1.59l-1.77-.37a2.51,2.51,0,0,0-1,2.35c-.28,0-.73-.19-.82-.07-.51.69-.93,1.44-1.38,2.18v0c-1.12,1.69-2.34,3.32-3.35,5.07-1.66,2.86-3.18,5.8-4.78,8.7-2.21,4-4.46,8-6.68,12a1.46,1.46,0,0,0-.18,1.1l4.5-8,.27.14c-.52,1.08-1,2.18-1.57,3.24-2.2,4.15-4.45,8.27-6.62,12.44a19.62,19.62,0,0,0-1,3c0,.07,0,.2-.07.21-1.87.56-2.24,2.5-3.25,3.78a66.84,66.84,0,0,1-6.23,7.21c-1.18,1.13-2.23,2.37-4,2.49a.31.31,0,0,0-.19.15c-.91,1.65-2.67,1.93-4.2,2.39-2.15.64-4.4,1-6.6,1.42-.08,0-.2.06-.24,0-1.19-1.25-2.91-.37-4.24-1-.12-.06-.36.13-.53.11-.61-.07-1.34.21-1.65-.7a1.15,1.15,0,0,0-.87-.58c-1.7-.15-2.61-1.41-3.67-2.49-1.32-1.32-2.75-2.54-4-3.91-1.7-1.86-3.41-3.74-4.22-6.22,0-.13-.17-.23-.36-.48l-.1.72ZM309.7,96.71A6.7,6.7,0,0,0,311,95.44c.62-1.06,1-2.28,1.68-3.28,1.3-1.88,2.78-3.65,4.13-5.5a5.77,5.77,0,0,0,.52-1.41l-.34-.14a1.1,1.1,0,0,0-.38.23c-1.4,2.13-2.84,4.25-4.18,6.41-1,1.61-2.47,3-2.7,5l-2,2.89.43.25C309.12,99.05,309.33,97.84,309.7,96.71ZM267.18,129.5c0-.38.06-.53.07-.67A44.07,44.07,0,0,1,269,116.18c.85-2.58,1.31-5.29,2.28-7.81,1.45-3.73,3.33-7.29,4.81-11,1.82-4.63,4.8-8.52,7.5-12.6,1.36-2.06,2.92-4,4.25-6.08a67.07,67.07,0,0,1,6.34-8.83c3.64-4.07,7.22-8.19,10.87-12.24,1.13-1.26,2.43-2.38,3.63-3.58a6.65,6.65,0,0,0,.61-.86,1.64,1.64,0,0,0-1.16.47c-2.83,2.81-5.74,5.56-8.43,8.5s-5,6.29-7.83,9.16a52.69,52.69,0,0,0-5.28,6.89c-2.19,3.11-4.14,6.38-6.3,9.51a67.34,67.34,0,0,0-7.2,12.65c-1.27,3.09-2.45,6.23-3.51,9.4-.32,1-1,2-.23,3.12C267.6,114,266.24,124,267.18,129.5Zm36.19-24a4.92,4.92,0,0,1-.19,1.72c-1.13,2.07-2.36,4.09-3.55,6.14-.25.43-.46.88-.74,1.42.43.07.82.21.86.14,1.83-3.13,4.06-6,5.11-9.71Zm-33.46,32.65-3.83-6.25C266.06,134.8,267.9,137.86,269.91,138.11ZM321.6,85.86l.44.19c.64-1.37,1.27-2.75,1.91-4.12l-.48-.22Zm6.41-4,1.22-2.1c-.32-.07-.76-.3-.93-.17C327.65,80.05,327.3,80.69,328,81.86Zm-8.85,0,.57.12.6-1.86-1-.25Zm-64.62,29.87.56.09c.09-1.23.18-2.46.28-3.69l-.36,0Zm70-26.57-.32-.22c-.29.61-.59,1.22-1,2h1.41C324.64,86.35,324.61,85.78,324.57,85.2ZM266,128.57h.14V124H266ZM298.23,126l.32.13,1.59-3.12-.38-.18Zm28.11-43.66-.45-1.75h-.33a9.28,9.28,0,0,0-.29,1.37A4.51,4.51,0,0,0,326.34,82.36Zm102.6.93c-2.65,1.11-5.3,2.2-7.93,3.35a1.65,1.65,0,0,0-.81.93,38.91,38.91,0,0,0-1.09,4.66,9.31,9.31,0,0,0,.07,3.07c.5,2.85,1.06,5.7,1.73,8.52a7.48,7.48,0,0,0,1.36,3.13,7.11,7.11,0,0,0,2.63,1.44c.79.35,1.64.57,2.44.89,2.79,1.1,5.55.8,8.43.26,1.48-.28,2.24-1.18,3.31-1.91a74.13,74.13,0,0,0,10.06-8.29c1.78-1.76,3.39-3.7,5.1-5.53a4.72,4.72,0,0,1,.95-.58c.38-.23.74-.48,1.11-.72l-.17-.28-.73.48c.86-1.58,1.51-3.33,3.51-3.9l-1-.12c.91-1.08,1.5-2.44,2.45-2.77,2.33-.81,2.86-3.11,4.38-4.55a33.81,33.81,0,0,0,2.85-3.53,5.29,5.29,0,0,1,.73-.55l-.28,1c.13,0,.26,0,.33-.07.46-.43.93-.86,1.36-1.33a1.37,1.37,0,0,1,2-.3c.24.21.09,1.22-.21,1.62a9,9,0,0,0-2.31,4.53l4-4.34.47.31c-.19.42-.35.85-.56,1.25-.41.75-.84,1.5-1.27,2.24a1.8,1.8,0,0,1-.49.62,3.15,3.15,0,0,0-1.4,3.21,1.48,1.48,0,0,1-.31.94,18.53,18.53,0,0,1-3.12,3.76c-1.42,1-2,2.56-3,3.8-2.95,3.6-5.85,7.24-8.83,10.82a38.68,38.68,0,0,1-3,2.88l.17.26,1.39-.77-.1,1,3.51-3.66.44.43c-3.87,4.11-8.1,7.85-12.19,11.72l.25.29,7.53-6.85.19.21c-.66.7-1.28,1.45-2,2.11a30.35,30.35,0,0,1-4.65,4.09,28.19,28.19,0,0,1-6.53,2.79c-1.46.45-3.17,0-4.66.42-3.05.8-5.91-.14-8.82-.59a27.23,27.23,0,0,1-4.95-1.39,9.5,9.5,0,0,1-2.22-1.32,26.47,26.47,0,0,1-9.54-12.35,26.48,26.48,0,0,0-1.52-2.75c-.06-.11-.22-.22-.2-.31.38-1.9-.38-3.59-.81-5.38a11.72,11.72,0,0,1-.18-5.13,37.64,37.64,0,0,0,.47-5c.07-.65-.16-1.45.83-1.75.17,0,.36-.85.21-1.07-.74-1,0-1.88.14-2.8,1.27.23,1.71,0,1.56-1.11a7.49,7.49,0,0,1,.91-4.24c.76-1.71,1.42-3.46,2.22-5.14,1.71-3.56,3.29-7.2,5.28-10.6a108,108,0,0,1,8.29-12.69A135.43,135.43,0,0,1,439.22,33a76.94,76.94,0,0,1,10.67-8c2.46-1.65,5.24-2.84,7.83-4.3a38.64,38.64,0,0,1,12.46-4,8.65,8.65,0,0,1,7.18,1.61c2.58,2.26,4.69,5.08,4.47,9-.2,3.68-1.32,7.13-2.24,10.63-.47,1.78-.91,3.56-1.44,5.32a7.54,7.54,0,0,1-1,1.92c-1.38,2.12-2.8,4.23-4.23,6.33-.67,1-1.39,1.93-2.12,2.87a1.47,1.47,0,0,1-1,.53l.4-.87-.18-.22-1.69,1.29-.25-.21c.46-.55.93-1.09,1.35-1.66a45.4,45.4,0,0,1,2.72-3.68,27.18,27.18,0,0,0,2.12-2.84,22.26,22.26,0,0,0,2.22-3.52c.06-.14-.17-.41-.35-.8-.71.85-1.37,1.58-2,2.35-2,2.69-4,5.46-6.12,8.1-2.38,3-4.83,5.94-7.37,8.81a54.63,54.63,0,0,1-4,3.72c-.84.78-1.64,1.61-2.49,2.38-1.68,1.53-3.33,3.08-5.07,4.53s-3.75,2.94-5.61,4.43a5.78,5.78,0,0,0-.69.86,2.09,2.09,0,0,1-.45.52c-1.18.67-2.37,1.33-3.57,2-1.66.86-3.35,1.67-5,2.53a16.88,16.88,0,0,0-1.43,1,24,24,0,0,1-2.56,1.63c-1.54.74-3.13,1.34-4.71,2-.14.06-.35,0-.9-.13,1.41-1.06,2.56-1.91,3.7-2.8a11.72,11.72,0,0,0,1-1A3.06,3.06,0,0,0,431.38,82l-.21-.34ZM443.1,45.17c-1.13,1.27-2.25,2.55-3.37,3.82l-5.06,5.23.29.29,1.31-1.06.29.2A118.1,118.1,0,0,0,423,79.36a16.78,16.78,0,0,0,2.84-1.6c2.84-1.84,5.69-3.68,8.52-5.53q2.1-1.37,4.17-2.79c2.06-1.41,4.18-2.74,6.12-4.3s3.56-3.31,5.34-5c.52-.48,1.16-.83,1.67-1.33,1.69-1.65,3.37-3.33,5-5,2.27-2.34,4.58-4.66,6.74-7.11,1.94-2.21,3.75-4.56,5.54-6.9,1.56-2.06,3.36-4,4.43-6.33s1.4-4.92,2-7.43a2.8,2.8,0,0,0-1.73-2.74,9.44,9.44,0,0,0-6.19.9,110.6,110.6,0,0,0-11.54,6.23c-2.12,1.25-4,2.84-6,4.29a54.78,54.78,0,0,0-8.72,8.5q-3,3.41-5.83,7c-.95,1.2-1.69,2.55-2.53,3.84l-1.64,1.91.49.39,1.15-1.61c.59-.52,1.24-1,1.77-1.55,1-1.15,2-2.37,3-3.52.89-1,1.87-1.87,2.75-2.85,2.72-3,5.33-6.22,8.17-9.17a37.74,37.74,0,0,1,5.1-4.11,11.42,11.42,0,0,1,2.54-1c-.92,1.44-3,.85-3.42,2.66-1.21.22-2.91,1.81-2.93,2.41-.8.64-1.4,1-1.93,1.56A16.41,16.41,0,0,0,446.18,41C445.13,42.36,444.12,43.77,443.1,45.17ZM430,119.6c5.51,1.23,12.66-.92,14.65-3.21l-1.69.75.62-.89-2.06.69.22.21c-.13.21-.22.57-.39.62a26.36,26.36,0,0,1-3.57.92C435.17,119.06,432.56,119.3,430,119.6Zm41-99.48,4.24,1.28.11-.41C474.13,19.59,472.52,19.91,471,20.12Zm7.57,19-.3-.11-1.4,3.55.62.21Zm-46.15,76.37,0-.58-1.91-.2-.06.53Zm13.69-1.93.26.29,2.2-1.9-.26-.29Zm55.07-.08,4.5-2.39a6.41,6.41,0,0,0-3.92.07c-3.32,1-6.71,1.72-10.09,2.51a4.92,4.92,0,0,1-1.43,0c-1.16-.07-2.32-.46-3.48.27-.32.2-1-.09-1.48-.26-3.1-1-6.2-2.06-9.25-3.21a7.31,7.31,0,0,1-2.46-1.62,13.06,13.06,0,0,1-2.6-3.25,12,12,0,0,1-.89-4.15l4.15,4.11.37-.33c-.69-.82-1.35-1.67-2.07-2.46-.55-.59-1.05-1.1-.42-2a1.41,1.41,0,0,1,2-.3c1.21.75,2.31,1.69,3.47,2.52a3.5,3.5,0,0,0,1.25.59,63.78,63.78,0,0,0,6.8,1.33,23.21,23.21,0,0,0,6.76,0,72.59,72.59,0,0,0,10.07-2.87A71.46,71.46,0,0,0,510,98.8a9,9,0,0,0,2.63-2.14l-1.52.2a4.85,4.85,0,0,1,.58-.69c1.77-1.39,3.55-2.76,5.33-4.13.44-.33.82-1,1.43-.12.09.12.91-.07,1.23-.32s.8-.85.72-1.18c-.32-1.29.27-1.83,1.39-2.12a1.28,1.28,0,0,0,.6-.36Q525,85,527.7,82.08c.34-.38.79-.94-.5-1.11a16.06,16.06,0,0,1,2.22-2.62c1.27-1,1.62-2.45,2.39-3.67a24.24,24.24,0,0,0,3.46-9.09c.15-.92-.19-1.92,0-2.83a3.62,3.62,0,0,0-2-4.17c-.51-.3-.81-1-1.2-1.45a8.82,8.82,0,0,0,1.28.61,3.08,3.08,0,0,0,1,0l-.09-.29L531,55.5l-.31.47,1.42,1.18a11,11,0,0,1-1.38-.68c-1.66-1.15-3.65-.91-5.47-1.37-.33-.08-.74.26-1.11.27a3.3,3.3,0,0,1-1.23-.25c-.07,0,0-.51.08-.89l-3,.26,1.82.74-.08.45c-1.07-.06-2.14-.15-3.21-.16a12.5,12.5,0,0,0-2.67.18q-4.71,1-9.39,2.18c-1.7.42-3.34,1-5,1.41-2.08.45-4.21.7-6.31,1.09-.92.17-1.8.55-2.72.69a17.79,17.79,0,0,1-2.53,0l-.09-.63,1.45-.39-4.33-1.8-.47,1.17a8,8,0,0,1-1.22-1.75c-.58-1.7-1.12-3.41-.52-5.28.82-2.53,1.2-5.25,2.31-7.64a95.49,95.49,0,0,1,6.21-11.37,70.09,70.09,0,0,1,7.08-9.13c2.23-2.45,4.91-4.5,7.38-6.74a11.17,11.17,0,0,1,1.24-1.24c1-.62,2.06-1.11,3.08-1.68a1.49,1.49,0,0,0,.67-.9l-.63.09-.14-.16,1-.89c1,1,1.44.91,2.09-.28a3.46,3.46,0,0,1,1.57-1.53c1.32-.49,2.06-1.61,3.09-2.4.2-.15.63-.33.73-.25,1,.89,1.68-.08,2.62-.42l-.81-.39,0-.31A3,3,0,0,1,523.25,7a4.8,4.8,0,0,0,4.47-2.11c.31-.52,1.22-1.2,1.61-1.08,1.64.54,2.73-.53,3.9-.9,0-.44-.11-1,0-1,.43-.22,1.17-.53,1.38-.35a2.15,2.15,0,0,0,2.49.08C540,.21,543.17,0,546.26,0a12.63,12.63,0,0,1,4.8,1.29c4.81,2,6.88,6.3,8.11,10.91.44,1.63-.32,3.6-.64,5.39-.71,3.95-2.64,7.41-4.49,10.89a6.41,6.41,0,0,1-1.35,1.46c-.34.32-1.05.47-.38,1.13,0,0,0,.24-.08.31Q550.64,33,549,34.67c-.34.35-1,.62-1,1A6.13,6.13,0,0,1,545.81,39c-1.62,1.48-3.11,3.23-5.59,3.68l.22-1-7.6,2.63-.14-.27.87-.65-1.75-.89,0-.37c.71-.22,1.44-.39,2.13-.67,2.55-1,4.15-3.3,6.24-4.93.5-.39.94-.86,1.44-1.25,1.19-.9,1.21-1.07.08-2.13-.55.66-1.82.72-1.41,2.2.08.28-1.15.92-1.75,1.41a9,9,0,0,0-.69.69,11,11,0,0,1-1.46,1.36A10.38,10.38,0,0,1,533.72,40c.91-.94,1.77-1.92,2.73-2.8a28.37,28.37,0,0,0,5.35-5.86,4.14,4.14,0,0,1,.89-1.1,2.83,2.83,0,0,0,1.22-2.21.89.89,0,0,1,.31-.63c2.11-1.66,2.85-4.2,4.11-6.39a33.64,33.64,0,0,0,2.85-6.26,15.85,15.85,0,0,0,.68-5.13,2.76,2.76,0,0,0-1.51-2,21.7,21.7,0,0,0-4.37-1c-.23,0-.53.24-1,.48l5.14.87L548,8.8l-.09-.26.48-.13,0-.33-3.11.37.81.38a2.67,2.67,0,0,1-.36.09,39.58,39.58,0,0,0-4.37.27,9.76,9.76,0,0,0-2.6,1.14,53.85,53.85,0,0,0-5.39,2.8,11.08,11.08,0,0,1-3.42,1.38,1.37,1.37,0,0,0-.56.22q-3.76,2.77-7.53,5.57c-2.53,1.87-5.1,3.68-7.55,5.65a47.25,47.25,0,0,0-4,3.87c-1.49,1.5-3,3-4.38,4.58s-2.36,3.16-3.5,4.77c-.25.35-.35.8-.59,1.16-1.7,2.43-3.55,4.78-5.09,7.31-1.43,2.34-2.54,4.89-3.91,7.59l5.67-1.07.07.35-6.4,1.4.12.45c5.09-1.53,10.57-1.53,15.54-4.11h-1.18l-.07-.27,2.44-.79.13.24-.6.79,2.31.33v-.17l1.23.25.08-.31-.41-.3,0-.32c3.13-.5,6.25-1.2,9.4-1.42,1.37-.09,2.68-.59,4.08-.41,1.84.24,3.74.15,5.53.57,3.92.94,7,3.39,9.74,6.2a15.93,15.93,0,0,1,2.86,3,11.9,11.9,0,0,1,1.42,4.46A53.18,53.18,0,0,1,545,72c-.11,2.43-.19,4.87-1.67,7.1S541,83.83,539.58,86a52.59,52.59,0,0,1-5,6.37,83.76,83.76,0,0,1-6.25,6.25c-2,1.83-4.28,3.41-6.4,5.14-.56.45-1,1.09-1.53,1.54a21.14,21.14,0,0,1-2.29,1.52c-.29.18-.72.16-1,.37a32.37,32.37,0,0,1-9.28,5c-2.41.93-4.66,2.28-7.1,3.1a54.5,54.5,0,0,1-6.65,1.4l-.09-.36,2.86-.55a1.79,1.79,0,0,0-2.26-.75c-2.41,1.29-2.91.66-4.95.66a1.25,1.25,0,0,1-.89-.43l1.81-.14-.19-.22c.22-.18.43-.52.65-.52,1.19,0,2.39.09,3.57.06.57,0,1.13-.32,1.7-.39,1.61-.22,3.23-.38,4.84-.56l-1.05.83.1.32,4-1-.07-.14Zm5.71-57.32.12.44c1.33-.3,2.66-.59,4-.92a3,3,0,0,0,.8-.52c-.33-.12-.72-.41-1-.33C509.44,55.24,508.15,55.73,506.85,56.18ZM536.34,58l1.72,2,.34-.18a20.44,20.44,0,0,0-.94-2C537.41,57.71,536.88,57.88,536.34,58Zm-19.6,35.75-.21-.25L513,96l.31.4Zm17-38.89-.1.1c.59.72,1.15,1.45,1.78,2.13.16.17.52.13.79.19,0-.28,0-.68-.16-.81C535.28,55.86,534.48,55.36,533.71,54.83Zm20.85-44.4a2.4,2.4,0,0,0-1.14-2.88C553.77,8.44,554.12,9.33,554.56,10.43ZM481.3,110.34l.12-.39-3.05-.79-.08.27Zm-417,29.34a6.83,6.83,0,0,1-.78,1.64L62,140.5l2.3-3c.11-.61.21-1.23.31-1.84l-.44-.15-7.29,11.2.38.28,2.93-3.75a3.21,3.21,0,0,1-.47,1.33,2,2,0,0,0-.31.85,19.4,19.4,0,0,0,.29,2l2.64-2.19-.17-.27,1.27.09a4.26,4.26,0,0,0,0-1.57c-.46-1,.09-1.27.82-1.6a1.66,1.66,0,0,0,.64-.67,7.32,7.32,0,0,0,.61-1.26c.24-.59,1.12-1.17.19-1.83a5.76,5.76,0,0,0-1.37-.58A12.44,12.44,0,0,1,64.3,139.68Zm133.48,41.84c1.84-.48,5.05-3.34,5.53-4.91,2.1.22,2.27-1.81,3.52-2.87-2.46.51-11.62,7.84-12.28,10.74C197,184.53,198.06,183.56,197.78,181.52Zm250-105.34c.95-.87,1.87-1.75,2.84-2.59,2.4-2.09,4.85-4.12,7.22-6.26s5.17-4,6.84-6.92A9.22,9.22,0,0,1,467.54,57c.23-.15.2-.73.28-1.11l-.36-.22c-.45.44-.94.86-1.36,1.34-1.46,1.69-2.91,3.39-4.31,5.12-.21.25-.13.7-.26,1a1.07,1.07,0,0,1-.48.59,3.6,3.6,0,0,1-1,0l.18.24c-3.95,4.28-8.54,7.89-12.83,11.81Zm-208.3,53.87c.11-1.1.21-2.19.32-3.29l-.34-.09c-.62,1.68-1.36,3.32-1.83,5a27.3,27.3,0,0,0-.76,4.69,4.42,4.42,0,0,0,.52,1.63l.36-.08,1.29-5.6.4.07c-.27,1.42-.55,2.84-.82,4.26l.43.07,1.5-8.44-.49-.1-.39,1.86ZM227.64,70a35.21,35.21,0,0,0-10.78,10,8.13,8.13,0,0,0,1-.89c.21-.16.72-.3.79-.21.66.82,1,0,1.29-.29q3.66-3.59,7.26-7.21a5.62,5.62,0,0,0,.71-1.16ZM51.1,158.82,49.27,163l.2.11,1.38-2.23c.5.33.91.61,1.34.85.13.07.34,0,.66,0l-.61-.55c.43-.25,1-.39,1.26-.75a26.21,26.21,0,0,0,1.63-2.63c.38-.65-.09-.93-.55-1.21l-1.48-.95v2.2l-.6-.67-1.41,1.65Zm262.21-42.93c-.09,1.44-.19,2.88-.28,4.32.32-.07.43-.16.44-.26.36-2.52.68-5,1.08-7.57a8.51,8.51,0,0,1,.74-1.56,1.62,1.62,0,0,0,0-.76c0-.35-.28-.77-.15-1s.84-.61.88-1-.62-.84-.56-1.2c.2-1.42.57-2.82.88-4.23l.32.07c-.14.93-.29,1.85-.45,2.88,1.53-1.89.6-3.85.48-5.79a4.16,4.16,0,0,0-.54,1.35c-.76,4-1.48,8-2.23,12-.18.93-.44,1.85-.67,2.77ZM68,176.11a4.7,4.7,0,0,0,.36-1.16c.17-2.92.22-5.86.46-8.77.12-1.6.56-3.17.79-4.76.13-.89.12-1.8.17-2.71l-.54-.09a17.18,17.18,0,0,0-.76,2.67c-.17,1.37-.1,2.77-.21,4.14-.19,2.57-.46,5.13-.64,7.7-.08,1,0,1.94,0,2.92Zm184.54-93.8,2.08-6.89.61.81c1.22-2.41.76-4.78.3-7.17a7.45,7.45,0,0,0-.64,1.84c-.67,2.74-1.32,5.49-2,8.22-.27,1-.65,2-1,3ZM186.65,198.15c-2.19,1.24-4.7,4.8-4.23,6l1.45-2.14.4.95a4.64,4.64,0,0,0,.69-.38,4.52,4.52,0,0,0,1.67-4.43Zm37.66-68.82c-.43.29-1,.48-1.26.87-1.55,2.2-3.05,4.45-4.55,6.69-.24.37-.44.77-.66,1.16l.29.22a6,6,0,0,0,.71-.71c.85-1.2,1.67-2.41,2.51-3.61,1-1.44,2-2.86,3-4.29,0-.06-.06-.22-.09-.34ZM190.85,85.69c-2.35,3.44-4.75,6.85-5.8,11l6.12-10.83Zm122.59,43.87c-.07-1.06-.14-2.12-.2-3.17a4.15,4.15,0,0,1-.06-1.21c.24-1.16.57-2.32.86-3.47l-.3-.07-.36.49-.24-1.19-.39,0c-.19,2.87-.76,5.73.08,8.58ZM70.72,153.07c1.14-2.6,1.23-5.15,1.73-7.93C71.12,146.31,70.05,151.38,70.72,153.07Zm-19.2-36.75c.52,0,.85.08.91,0,1.12-1.94,3.57-3.16,3.24-6.27Zm-30.34-5.64c-.28.45-.13,1.28-1.09,1.09-.11,0-.36.29-.43.49-.25.79-.46,1.59-.76,2.69,1.46-1.25,4.25-5.84,3.94-6.87C22.19,109.09,21.67,109.88,21.18,110.68ZM58.82,105l-1,3h0c1.66-2.83,3.36-5.63,3.94-8.89l-.33-.16-1,1.84Zm-12,17.11a4.67,4.67,0,0,0,1.41-.71,37.58,37.58,0,0,0,2.75-3.28,5.51,5.51,0,0,0,.53-1.51l-.34-.15c-.28.31-.57.62-.83,1-.77.91-1.55,1.81-2.27,2.75-.47.61-.84,1.3-1.25,1.95Zm195.41-4.21c-.39,1.12-.73,2.26-1.2,3.35a13.49,13.49,0,0,1-1.16,1.87c-.17.14,0,.63,0,.66-1.31.75-.21,1.31.28,2l2.48-7.71Zm-153.08-20c-.11.22,0,.56.07.85.3-.07.75-.05.89-.24a9,9,0,0,0,1.22-2c.45-1.16.91-2.24,2.55-2.5-1.38-1-1.71.19-2.14.71A16.85,16.85,0,0,0,90.38,97l-.12-.93A19.62,19.62,0,0,0,89.11,97.91Zm396.36,17.74.08-.16h1.17l0-.21-4.57-1.36c.32,1.3,2.93,2.47,5.25,2.37ZM163.14,260.56c-.84-3.5-.11-6.91.39-10.36C162,254.18,161.79,259.37,163.14,260.56Zm34.46-75.09c-1.24.44-2.43.76-2.11,2.13l1.25.83L198,187l-.19-.17-.57.32Zm7.77,23.12c1.09-2.26,2.1-4.55,1.76-7.2-.69,2.37-1.37,4.75-2.06,7.12Zm25.45-93.44c-1.26.53-.82,1.58-1,2.48a4.41,4.41,0,0,0,1.32-1.41c.47-1,1.36-2.1.08-3.19l-.19.4C231,114,231.09,115,230.82,115.15ZM27.05,104.58l-3.64,3.31C24.77,108.07,27.36,105.42,27.05,104.58ZM69.7,152.09c.54-2.78,1.09-5.55,1.63-8.33l-.36-.07L69.2,152Zm150.05-19.88-1.46-1.5c-.18.54-.39,1-.53,1.57-.09.33-.24.86-.09,1a1.74,1.74,0,0,0,1.17.41c.19,0,.38-.48.55-.76s.23-.49.35-.73ZM252.59,117l-.89,4.93.46.09c.42-1.63,1.31-3.17.93-5Zm-241,13.63A46.57,46.57,0,0,0,8.67,136a18.23,18.23,0,0,0-.77,2.74l1.22-2.29.68-1.27ZM60.87,98.53l-.15,0L58,105.67l.82-.65,1.64-4.25Zm121.21,5.14,1.08-3.84-.21-.12-2.88,6.2.25.11,1.77-2.36ZM384.32,31.24c0,.39-.07.77-.11,1.16a5,5,0,0,0,1.11-.21c.56-.26,1.05-.64,1.6-.93s1-.43,1.45-.64a2.47,2.47,0,0,0-1.44-.06c-.88.21-1.75.46-2.63.7Zm-164.58,101a12.31,12.31,0,0,0,1-1.69c.53-1.25.5-1.26-1.07-1.39a7.61,7.61,0,0,0-.37,1.38c.93.42.23,1.17.42,1.71ZM228.93,119l-3.88,3.09,1,.26.16-.69c1.76.1,1.84-1.7,3-2.28Zm-12,20.67c-1,1-2.32,1.81-2.3,3.52C215.42,142.06,216.76,141.27,216.93,139.7ZM30.35,135.15c-1.39.56-2.81,1.06-3.59,2.46L27,138l3.53-2.55Zm172,82.44c-.71,1.43-1.45,2.84-2.1,4.29-.11.25.14.66.22,1h.38l1.74-5.31Zm6.81-46.71c0,.17,0,.48.11.52a.76.76,0,0,0,.63,0c.55-.5,1.05-1.06,1.69-1.71C210.28,169.36,209.37,169.91,209.2,170.88Zm250.44-68.72c-.69.46-1.41.9-2.06,1.41-.13.11-.05.49-.06.74.29,0,.68.13.85,0a23,23,0,0,0,1.61-1.66ZM18.47,144l2.11-.15,1.27-1.86c-1.08-.68-1,.81-1.71.95A2,2,0,0,0,18.47,144Zm-2.84,8.25c-.25.86-.47,1.73-.7,2.59a24.93,24.93,0,0,0,1.72-4.45,32,32,0,0,0,.59-3.25l-.19.2C16.58,148.92,16.1,150.56,15.63,152.2Zm176-67.09,3.74-5.48-.28-.19q-1.89,2.72-3.79,5.42Zm125.76,6.58v0c-.4,1-.8,2.06-1.21,3.09l.26.2c.28-.27.65-.49.81-.81.43-.89.76-1.82,1.13-2.73Zm-113,119c-.32,1.48-1.55,2.7-.87,4.48l1.27-4.31Zm270.39-99.42c1,2.21,3.16.93,4.66,1.49Zm-165.59-3.5,2.92-5.08-.36-.2q-1.45,2.52-2.89,5Zm-296,15.3.44,1.37c1.22-1.19,1.33-1.62.42-2.65ZM413.8,65.54c-.57,1.33-1.15,2.67-1.73,4l.32.13c.57-1.35,1.86-2.38,1.75-4ZM73.73,137l-.84,3.77.5.11.87-3.77ZM384.3,31.26l2.89-1.39-.2-.45-3.43,1.4.1.34.66.08Zm-170,149.33c-.35,1.08-.69,2.15-1,3.21l.32.14,1.35-2.53.05-.5ZM381.66,46.8l2.72-2C383.38,44.44,382,45.51,381.66,46.8Zm-171,143c1.32-1.08.75-2.71,1.36-4l-.45-.12-.9,4.12ZM17.52,115.32l-.69,3.57C18.17,117.46,18.31,116.9,17.52,115.32ZM74.2,141.83l1.1-4.64-.41-.1-1.08,4.69ZM67,166.37l-.25,4.33.42,0c.09-1.44.18-2.88.28-4.32Zm.23,18.23-.69-4.34-.43.08.74,4.34Zm141.27,17.14,1.72-4.15-.4-.14c-.94,1.26-1,2.81-1.32,4.29Zm15.83-72.42,2-2.83-.13-.29c-.26.11-.66.15-.75.33-.43.91-.77,1.87-1.15,2.8Zm90.46-16-.55,4,.45.06c.16-1.34.32-2.69.49-4ZM427.84,43c-.88,1.08-1.77,2.15-2.65,3.22l.37.3,2.56-3.32Zm-213,40.36L213,85.27l-.21.65A2.41,2.41,0,0,0,214.84,83.36Zm-4.21,106.39c-.91.95-.86,2.17-1.11,3.31l.49.12c.21-1.14.41-2.29.61-3.43ZM313.3,115.9c.06-1.16.11-2.31.16-3.47l-.33,0c-.1,1-.23,2-.29,3,0,.16.31.33.47.5Zm-105.21,82-.67,2.64.48.14.72-2.61ZM220,75.14l-1.93,1.2h0c-.16.4-.32.81-.49,1.21l.31.2L220,75.13ZM57.82,108c-.88.12-1.67.35-1.65,1.53,1.18.09,1.38-.75,1.64-1.54Zm14.9,36,.44-2.25-.34-.08c-.15.76-1.09,1.29-.61,2.23Zm169.84-29-.35.07.39,2h.22l.57-2-.23-.16-.48.85ZM36.23,177l-2.87,2.88Zm-6.55-74.89,1.77-1.61C30.49,100.13,30.19,100.38,29.68,102.14Zm182.76,82,.85-3-.38-.1c-.27,1-.54,2-.82,3ZM457.05,68.7l-2.29,2L455,71l2.29-2ZM538.8,43.43l-2,1,.18.4,2.08-.92ZM470.22,88.69l-1.45,1.7C470.6,89.94,470.6,89.94,470.22,88.69ZM76.89,117.52l-.32-.06-.73,1.75,1.4-.64ZM317.51,95.66c-.21,1-.43,2-.64,2.94l.35.08.69-2.92Zm-63.93,36.77c.18.8-.75,1.82.33,2.43l.41-.1-.75-2.32Zm150-62.95-.85,2.07.34.14,1-2Zm-152,57.93c.07.79.15,1.57.22,2.36l.39,0c-.08-.78-.15-1.57-.22-2.36ZM49.81,164.64l1.21-.86-.36-.5-1.2.88ZM439.42,50.44l.28.15,2.68-4L439.73,49C439.63,49.48,439.52,50,439.42,50.44Zm20.76-21c1.17.49,1.72-.71,2.49-1.33l-2.63.74ZM445.24,43.48l-.2-.17-2,1.85-.72,1.45Z" style="fill:none"/></clipPath></defs><title>engages</title><g id="Layer_2" data-name="Layer 2"><g id="assets"><g id="engages-2" data-name="engages"><g style="clip-path:url(#engages-clip-path)"><polyline class="animate" points="39.67 157.19 77.05 122.86 68.79 104.86 29.88 138.08 19.5 172.94 27.85 203.25 46.48 196.81 108.89 100.98 78.39 212.1 131.08 106.3 168.55 83.41 185.61 89.17 150.62 187.3 250.03 75.62 201.68 167.74 248.54 117.3 221.6 232.73 177.87 282 170.38 268.21 189.65 215.52 324.19 56.26 273.22 155.16 336.67 89.68 328.18 146.01 380.44 59.73 411.29 55.79 359.37 143.46 412.32 84.56 364.22 230.68 338.11 251.77 326.57 241.82 325.81 214.95 386.01 141.45 481.94 32.95 425.13 129.12 474.59 107.37 556.96 19.5 536.17 62.7 549.99 89 545.56 105.21 520.27 121.99 485.53 118.04" style="fill:none;stroke:#f08a20;stroke-linecap:round;stroke-linejoin:round;stroke-width:39px"/></g></g></g></g></svg>