<svg xmlns="http://www.w3.org/2000/svg" xmlns:xlink="http://www.w3.org/1999/xlink" viewBox="0 0 1046.57 617.38"><defs><clipPath id="clip-path" transform="translate(3.49 -12.73)"><path id="evidence_mask" d="M611.08,387.81c2.22-1.13,3.88-2.5,3.62-5.44-.07-.82,1.19-1.77,1.89-2.62.37-.46.83-.85,1.65-1.69,1.71-.13,2.78-2.25,1.78-4.62a2,2,0,0,1,.18-1.84c1.66-1.48,3.31-2.87,3.36-5.4,0-.33.94-.65,1.34-.91l-1.24-2.89c2.86-.41,4.33-4.09,2.86-7.31,3.3.14,3.18-3,4.56-4.74a16.31,16.31,0,0,0,1.79-3.77c1,.89,1.93,2.07,3.12,2.52.54.21,1.63-1,2.48-1.58l-.3-.59h-1.58c-.55-3.58-1.08-7.06-1.66-10.79,3.2-.22,2.88,3,5.09,3.84-2.79,1.2-2.42,2.41-1.36,4.5.77,1.53,1.63,4-.45,5.8a1.38,1.38,0,0,0-.21,1c2.27,1,.62,2.36.32,3.63-1.16,5-2.22,10-3.41,14.95a23.55,23.55,0,0,1-1.62,3.66c1.15,1.61-.73,3.15-1.38,5-.32.89-.24,1.93-.6,2.79-.69,1.62-1.57,3.16-2.49,4.95a5.57,5.57,0,0,1,0,2c-1.3,4-3.06,7.8-3.91,11.84a18.24,18.24,0,0,1-1.74,5.61c-.86,1.47-1.85,2.87-2.78,4.31a2.73,2.73,0,0,0-.51.9c-.16.89.11,2.1-.38,2.65-2.58,2.91-2.18,7-4.33,10.09a13,13,0,0,0-1.4,3.29c-1.32,3.88-2.42,7.86-3.94,11.66s-3.62,7.7-5.34,11.59c-3.12,7.05-6.11,14.15-9.28,21.18a51.32,51.32,0,0,1-3.28,5.44,4.36,4.36,0,0,0-.59,1.13,46.89,46.89,0,0,1-1.15,4.78c-2.2,6-4.51,11.93-6.8,17.87-1.48,3.85-3.69,7.57-4.3,11.55-.49,3.21-2,5.85-2.88,8.77-2.33,7.43-4.63,14.88-7.2,22.22-1.52,4.36-3.65,8.5-5.31,12.82-.87,2.28-1.32,4.73-2,7.1q-.87,3.11-1.76,6.19c-.06.22-.1.5-.25.62-3.07,2.52-2.87,6.54-4.52,9.67s-3.1,6.2-6.26,8.44l-.61-1.77h-5.78c0-.46.08-1.1.13-1.8-.18-.09-.44-.31-.55-.25a8.21,8.21,0,0,0-2.46,1.51c-.8,1-1.11,2.32-1.92,3.28a20.38,20.38,0,0,1-3,2.45c-.16-1.11-.31-2.22-.48-3.33-.12-.75-.29-1.49-.42-2.24a8.22,8.22,0,0,1-.35-2.41c.55-3.92,1.16-7.83,1.86-11.72.53-2.94,1.17-5.87,1.86-8.78.56-2.31,1.25-4.59,1.92-6.87.75-2.53,1.55-5,2.31-7.56.19-.64.15-1.44.52-1.93,2.15-2.8,1.63-6.23,2.31-9.36.21-.95.5-1.87.72-2.81.59-2.59,1.15-5.18,1.73-7.77,0-.07,0-.18,0-.22,2.32-2.64,1.18-6.3,2.74-9.23,1-1.93,2.14-3.88,1.78-6.48-.24-1.73,1.05-3.65,1.5-5.53.36-1.49.49-3,.72-4.57l-.69-.33-1,2.33c-.29.67-.54,1.37-.87,2-.44.87-.94,1.71-1.26,2.28a12.26,12.26,0,0,0-2.59,1.73,14.4,14.4,0,0,0-1.83,3.08c-.29.59-.71,1.49-.47,1.89,1.6,2.65,0,4.59-1.35,6.54-.57.82-.45,2.7-2,1.88-.48,1.21-.94,2.31-1.37,3.43-.62,1.57-1.2,3.15-1.84,4.72a5,5,0,0,1-1,2c-2,1.58-2.91,3.65-4,5.87-1.29,2.6-3.67,4.66-5.52,7-.63.79-1.1,1.69-1.82,2.8l1.92.32a2.58,2.58,0,0,1-.31.81c-5.34,6.25-10.15,13-17.15,17.62a81,81,0,0,1-11.6,6.25,11,11,0,0,1-8.11.3c-2.6-.86-5.63-.52-8.14-1.53a28.75,28.75,0,0,1-9-5.3c-1.8-1.71-2.48-4.7-3.43-7.2-2.38-6.28-2.29-12.86-1-19.23a195,195,0,0,1,5.63-20.25c3.72-11.86,9.6-22.76,16.19-33.19A161.08,161.08,0,0,1,505,467.81c5-5.83,10.57-11.21,15.93-16.75a3.72,3.72,0,0,1,2.37-.95l-2.48,2.67.53.63c2-1.17,3.91-2.46,6-3.48,2.78-1.39,5.67-2.58,8.5-3.86,3.4-1.54,6.78-3.12,10.18-4.64,5.73-2.56,12.59-.83,15.64,4.55,2.25,4,4.31,8.21,4.62,13a23.37,23.37,0,0,0,1.11,4,12.61,12.61,0,0,0,.71-1.42A43.45,43.45,0,0,1,572.7,451c.64-1.05.7-2.42,1.16-3.6,1.46-3.82,3-7.61,4.48-11.42,1.68-4.32,3.47-8.6,4.91-13,.55-1.66-.51-3.69.89-5.32a23,23,0,0,0,3-3.74,54.18,54.18,0,0,0,2.39-5.65c-1.6.34-2.34.13-2.13-1.71a3.05,3.05,0,0,0-1.56-2.46c-1.58-.65-1.7-1.82-1.57-3,.44-4.24.89-8.49,1.56-12.7.76-4.65,1.66-9.29,2.72-13.89.42-1.85,1.65-3.51,2.15-5.36,1.71-6.24,3.27-12.52,4.85-18.8a10.54,10.54,0,0,0,0-2,10.88,10.88,0,0,1,.31-2.63c.88-2.58,2-5.07,2.79-7.68,1.09-3.69,1.87-7.47,2.9-11.18.27-1,1.1-1.8,1.41-2.78,1.17-3.69,2.17-7.43,3.36-11.11a33.8,33.8,0,0,1,1.88-4.06l.55.22-.33,2,.34.15a55.94,55.94,0,0,1,3-5.62c1.22-1.79,2.49-3.47,2.68-5.65l-.58-.42-1.44,1.58c0-.22-.09-.49-.24-1.23l-3,6.6c2.58-12.71,7.82-24.45,12.43-36.42l.59.2c-1.1,3.65-2.2,7.29-3.27,10.95a2.69,2.69,0,0,0,.55.29c1.29-3.33,1.94-6.94,4.57-9.5.5-1.16,1-2.34,1.67-3.82-1.28-3.36,1.4-6.15,2.63-9.34.09.67.19,1.34.29,2l.67.24,1.55-3.37c2.38-1,5-2.8,5.22-6.9l-3,3.83c-.25-1.31-.61-2-.43-2.5.69-1.94,1.58-3.8,2.34-5.72s1.5-4.18,2.38-6.21,1.88-3.81,2.83-5.71l.67.09c-.08,1.27-.17,2.55-.26,4l4.79-3.06c.28,1.05.52,1.94.82,3.08l-1.25.44,1.18,1.61-2,1.4c.19,1,.37,2,.67,3.57l-3-1.79c.17-.87.34-1.76.51-2.66l-.41-.12a20.28,20.28,0,0,1-1.21,2.53c-.33.52-.93,1.24-1.38,1.23-2.36-.08-2.31,1.57-2.68,3.43l2.38-1.3-1.61,5.15c4.29,1.5,3.76-2.6,5.78-3.88l-6.48,17.07-.46-.51c-.78.38-2.1.61-2.25,1.16a8,8,0,0,0,.36,3.19c.08.47.52,1,.39,1.38-1.27,3.82-2.52,7.65-4,11.41-1.34,3.46-2.92,6.84-4.29,10a7.72,7.72,0,0,0-1.89-.18,12,12,0,0,0-.65,2.72,9.35,9.35,0,0,0,1.17.31c-.55,2.9-1.1,5.88-1.71,8.85a5.38,5.38,0,0,1-.88,2.53c-2.14,2.31-1.72,5.36-2.62,8-.71,2.1-1.65,4.12-2.39,6.21-.93,2.64-1.84,5.3-2.61,8-1.36,4.79-2.63,9.61-3.92,14.42-.8,3-1.46,6-2.33,9-.58,2-1.46,3.86-2.11,5.81a9.73,9.73,0,0,0-.17,2,17.6,17.6,0,0,1-.32,2.42c-1.53,5.94-3.09,11.87-4.63,17.8l.56.23c.56-1,1.14-2.06,1.7-3.11q3-5.72,6.06-11.44c.15-.29,0-.7.16-1a18.49,18.49,0,0,1,1.57-3.95c.48-.72,1.64-1,2.5-1.46,0,1,.12,1.92.09,2.87,0,.33-.47.66-.47,1-.06,4.62-3.33,8.05-4.5,12.18-1,3.48-3.59,6.26-3.55,10.28,0,2-2.28,4-3.43,5.86-.74-.21-1.36-.59-1.62-.42s-.67,1-.51,1.31c1.21,2.09,0,3.82-.67,5.63-1.45,4.07-2.94,8.13-4.38,12.21a6.44,6.44,0,0,0-.19,1.4c3.35-1.46,2.76-5,4.08-8.28l1.29,3.31c2.14-3.55,4.34-6.8,5.38-10.61a17.51,17.51,0,0,0,.31-3.63c0-.21-.21-.6-.17-.62,2.77-1.6.09-4.62,1.76-6.49a3.71,3.71,0,0,0,4.22-2.64,18.29,18.29,0,0,1,2.14-4.6c0,3.59-3.46,6.19-2.77,10-1.4,1.84-2.62,3.74-2.6,5.81,2.06-.54,3.9-1,5.69-1.53.46-.14,1.11-.7,1.13-1.1a8.91,8.91,0,0,0-.49-2.32,15.52,15.52,0,0,0-1.56.42C612,389.67,610.91,389.77,611.08,387.81ZM570,473.3c-1.48,2.2-3.83,4.05-2.88,7.72.94-.54,2.16-.85,2.26-1.37.38-2.1.42-4.26.59-6.4l2.81.62.4-.67-1.66-2.07ZM518.39,545c.33.11.51.23.59.18.37-.23.72-.5,1.08-.76,4-3,6.61-7.06,9.38-11.05a24.73,24.73,0,0,1,3.32-4.13c2.85-2.62,4.63-5.9,6.31-9.29a31.71,31.71,0,0,1,2.31-3.77,64.22,64.22,0,0,0,4.12-6c2.06-4,4.27-7.91,4.42-12.57a3.16,3.16,0,0,1,.41-1l.61,1.38,4.3-2.91c-.11-.23-.41-.83-.77-1.54l2.06.12,5.35-17-.87-.35a19.23,19.23,0,0,1-1.76,2.86,2.51,2.51,0,0,1-1.89.94,13.14,13.14,0,0,1-3-1.52c0-3.3.08-6.74,0-10.18-.11-3.83-.28-7.66-.65-11.46-.26-2.62-1.89-4.3-3.37-3.57a115.75,115.75,0,0,0-10.23,5.79c-1.68,1.06-2.46,2.84-3.32,4.73-1.06,2.32-3.18,4.23-5.08,6.07a72,72,0,0,0-11.35,14.54c-1.38,2.27-2.65,4.61-3.94,6.94-2.81,5.08-6.82,9.35-9,14.95-1.71,4.44-3.39,9.14-6.84,12.76a1.53,1.53,0,0,0-.21.83,10.61,10.61,0,0,1-.2,2.48c-1.68,5-3.45,9.88-5.19,14.81a3.2,3.2,0,0,1-.4.58l-.87-1a17.58,17.58,0,0,0-1.06,3c-.6,4-1.14,7.95-1.58,11.93-.13,1.21-.28,2.79.35,3.6.79,1,1,1.27-.09,2.1s-1,1.94.5,2.21a11.5,11.5,0,0,0,3.7-.08,11.69,11.69,0,0,0,2.87-1c2.59-1.14,5.4-2,7.69-3.59,3.79-2.64,7.48-5.49,10.1-9.49a23,23,0,0,1,3.45-3.46l.48.46-.85,1.17Zm61.07-80.62c.59-2.17,0-3.74-2-5.22-.23-.17-.09-1.23.21-1.64.65-.9,1.7-1.54,2.26-2.48a71.46,71.46,0,0,0,3.61-6.88,3.48,3.48,0,0,0-.38-2.3c-.17-.41-.78-.65-1.19-1,2,.18,3.22-.3,3.47-2.49-3.71-.73-.18-3.55-1.56-5.1a5.69,5.69,0,0,0-1,1.19c-1.83,4.1-3.65,8.2-5.41,12.33-1.49,3.5-3.05,7-4.26,10.57-.42,1.26.09,2.83.18,4.26,1.08-.28,2.16-.6,3.25-.85C577.44,464.67,578.27,464.59,579.46,464.41Zm17.85-37.82.63.27-.53,3.44.86.23c1.11-2.75,2.21-5.49,3.12-7.73a14.78,14.78,0,0,1-3.81-.44c-2.48-1-1.63-3.62-2.25-5.63-.49.11-1.09.45-1.47.29-2-.87-2.69.55-3.32,1.93q-1.26,2.74-2.37,5.55c-.93,2.35-1.82,4.72-2.64,7.11a2.12,2.12,0,0,0,.21,1.44c.08.18.85.32.92.21a11.35,11.35,0,0,0,1.61-2.79,24,24,0,0,0,.49-4c2.09,2.17,3.07,1.36,4-.09,1.19-1.82-.44-2.28-1.4-3.13.23-1,.46-1.93.76-3.21,1,.92,1.61,2,2.25,2,1.47,0,1.21.61.89,1.49-.51,1.41-1,2.83-1.48,4.26-.56,1.78-1,3.58-1.65,5.77Zm21.88-140.3h-2.53c-1.21,3.37-2.59,7.26-4,11.14l.74.27c1.09-2.24,5.64-3,2.5-6.88C619.09,290,619.56,289.28,619.19,286.29ZM563.75,489c0,3.59-2.81,5.95-2.14,9.41a8.2,8.2,0,0,0,1.77-2.17c.24-.41.25-1.1.58-1.28C567.58,493,567.72,491.66,563.75,489Zm-3.59,10.7c-1,4.47-2,8.49-2.91,12.52l.73.23a15.86,15.86,0,0,0,1-3c.24-1.67.57-3.05,2.11-4.19C562.89,504,562.61,501.85,560.16,499.7ZM567,489.33c3-2.57.17-4.86,0-7.29-1,1.29-2,2.69-2,4.12C565,487.18,566.27,488.23,567,489.33Zm-3.22-16.09c2-2.92,2-4.46-.06-7.26a22.62,22.62,0,0,1-1.14,3.4C561.69,471.16,562.17,472.32,563.81,473.24ZM598.32,343.4l3.07,1.23c.15-2.12.3-4.14.45-6.21C597.89,338.31,600,342,598.32,343.4Zm3.75,67.88c1.48-3.54,2.87-6.87,4.27-10.2a13.05,13.05,0,0,0-3.36,4.54C602.35,407.28,600.26,408.69,602.07,411.28ZM578.4,473.87c2.18-.95,3.43-4.1,2.83-6.72l-3.65,4.93C577.72,472.37,578,473,578.4,473.87Zm-21.84-24,4.15,5.7C561.54,452.68,559.51,449.63,556.56,449.85Zm-17.89,5.75.25.57c-1.22.75-2.49,1.45-3.65,2.29-.38.28-.51.92-.75,1.39.52,0,1.2.33,1.53.1,1.61-1.1,3.13-2.35,4.9-3.71Zm13,100.66.64.24c.34-.32,1-.62,1-1,.11-1.37,0-2.75,0-4.27l-1.9.19C551.48,553.15,551.55,554.71,551.63,556.26Zm44.25-203.92c-.36,1.94-.67,3.56-1,5.17l.49.12,3.08-4ZM536.57,587l.69.24c2.29-3.11,2.71-4.76,1.66-6.73C538.12,582.7,537.34,584.84,536.57,587Zm66.06-255.31-.6-.26c-.54,1.74-1.07,3.48-1.66,5.38,2.8-.16,3-.38,2.77-2.86l-1.12.74C602.25,333.51,602.44,332.59,602.63,331.66ZM515.79,560.45l-.68-.75-5.29,4.89.66.71Zm12.93-89.38c-3.1,1.36-4.25,2.76-4.07,4.93ZM596.62,434l-1.17-.59c-.52,1-1,2.08-1.54,3.13l.85.44ZM546.41,551.83l.66.8L549.5,551c-.38-.35-1-1.06-1.12-1A20.9,20.9,0,0,0,546.41,551.83Zm-17.24-99.56c-2.64.19-4.29,1.63-4,3.13ZM993.4,270.61a19,19,0,0,0,1.43-2.66q6.51-19,12.95-38c3.3-9.75,6.64-19.49,9.76-29.3a15.46,15.46,0,0,0,.32-6.11c-.28-2.6-2-3.71-4.6-3.1-7.79,1.85-14.87,5.08-20.43,11.09-5.71,6.17-11.76,12.05-17.08,18.53-3.53,4.3-6.11,9.39-9,14.2-2.62,4.37-5.58,8.63-7.45,13.32-2.43,6.08-6.91,11-9,17.22-1.78,5.4-3.92,10.68-5.9,16-1.32,3.56-2.22,7.37-4.08,10.64-2.17,3.82-3.18,8-5,11.92a10.87,10.87,0,0,1-8.84,6.69l.66-6.27-.35-.15L925.2,309l-.78-.16c.18-1.52.29-3,.54-4.55.66-3.89,1.42-7.77,2-11.67.09-.59-.49-1.29-.75-1.94v.07a8.51,8.51,0,0,0,1.51-2.33c2.16-8.62,4.34-17.23,6.28-25.89,1-4.43,1.51-8.95,2.25-13.47-1.81.05-2.66-1.28-1.59-2.69,1.21-1.58,1.24-3.06.54-5.42l-2.32,2.68c1.49-7.77,2.94-15.32,4.38-22.86l.68.06c.07.25.25.52.21.75-.31,1.51-.61,3-1,4.52s-1.22,2.77-1.27,4.17a19.74,19.74,0,0,0,.9,4.58l.93.15a9.79,9.79,0,0,0,1.75-2.66c1.36-5.27,2.56-10.59,3.79-15.9a10.48,10.48,0,0,0,0-1.71l-1.07,1.83-.17-.08c1.09-2.24,2.36-4.42,3.22-6.75a35.79,35.79,0,0,0,1.17-5.61L950,193.64c.52-1.11,1.13-2.2,1.56-3.36,1.37-3.75,2.68-7.52,4.15-11.68l-2.57,2.69-2-3L949,183.62l2.24.31.13.77-3.47,1c3,1.55,3.24,2.1,2.56,5-.23,1-.33,2-.48,3l-1.81,1.82c.26-1.09.52-2.19.82-3.43-2-1.56-1.95-1.55-3,1a24.06,24.06,0,0,0-1.21,2.37,11.34,11.34,0,0,0-.23,2.5l3.66-2.42c-.19.95-.36,1.9-.56,2.85-.41,1.94-.83,3.87-1.24,5.81l-1.14.78c.27-1.06.49-1.88.65-2.5-1,.53-2,1-3,1.64a2,2,0,0,0-.81,1c-.52,2.07-.89,4.19-1.46,6.24a62.77,62.77,0,0,1-2.49,7.3A246.63,246.63,0,0,1,952.79,171c-5.07.67-9.47,1.25-13.87,1.86-.43.06-1.08.21-1.21.51-1.48,3.24-4.91,5.57-4.38,9.78.11.88-.7,1.87-1,2.83-2.48,7.26-5,14.52-7.39,21.82-1.49,4.6-2.69,9.3-4.11,13.92-.5,1.64-1.3,3.19-1.87,4.81-.85,2.38-1.66,4.79-2.41,7.21-1.26,4.1-2.5,8.22-3.68,12.35-.37,1.33-.48,2.73-.72,4.09a40.21,40.21,0,0,1-.72,4c-.91,3.27-2,6.5-2.88,9.77s-1.73,6.32-2.48,9.5c-1.1,4.66-2.07,9.35-3.16,14-.31,1.35-1,2.64-1.22,4-.39,2.1-.48,4.26-.85,6.36-.85,4.78-1.74,9.55-2.7,14.3a62.4,62.4,0,0,1-2.06,8.48c-1.53,4.26-3.42,8.4-5.17,12.58a1.56,1.56,0,0,1-.25.38c-1.85,2.57-2.49,2.67-4.9.72-.37.51-.74,1-1.25,1.74-2.76-2.67.69-5.25-.27-7.95l-1.36,3.11h-.33a15.9,15.9,0,0,0,0-2.49c-.12-.76-.27-1.86-.78-2.14-2.11-1.18-2.29-3-2.07-5a9.91,9.91,0,0,0-.12-1.79l0,.05c.64-2.78,1.39-5.54,1.89-8.34,3.51-19.53,7.47-39,13.21-58,2.77-9.17,5.58-18.32,8.5-27.44,1.4-4.39,3.13-8.68,4.66-13,1.67-4.78,3.28-9.59,5-14.38.28-.83.7-1.61,1.32-3,.67,1.25,1.09,2,1.43,2.67,4.36-1.93,3.26-6.15,3.78-10l-2.74,2.19c.45-4.09,2.46-7.27,2.58-11.12.16.11.6.72,1.06.72a9.59,9.59,0,0,0,3.63-.49c.27-.11-.07-1.76-.15-3.11-3.49,2.59-1.31-3-3.71-1.85.31-2.7,2.1-3,4.26-3s3.28-1.45,3.65-4.35c-2.93-.6-2.48,4.56-5.87,3.4a8.4,8.4,0,0,0,1-1.09c.37-.58.65-1.21,1-1.81a9.27,9.27,0,0,0-2.7-.81c-3.94.07-7.72,2.44-11.85.69-.66-.28-1.79.79-2.75.93-1.91.28-3.85.32-5.78.51-5.07.49-10.14,1.06-15.21,1.5-2.77.24-5.56.14-8.32.45-6.07.69-12.12,1.54-18.18,2.33a9.54,9.54,0,0,1-2.68.27c-4.55-.82-8.86.51-13.28,1.16-9.32,1.38-18.68,2.5-28,3.73l-13.56,1.79c-.73.09-1.46.08-2.19.11l-.33-.64c.54-.35,1-.9,1.61-1,3.26-.57,6.54-1,9.81-1.53,8.4-1.33,16.79-2.72,25.21-4,4-.62,8.12-1.09,12.18-1.59,2.12-.26,4.24-.43,6.8-.69-1.83-2.1-3.27-.9-4.72-.71-3.37.44-6.77.65-10.15,1.08-3.61.46-7.19,1.11-10.8,1.61q-12.19,1.7-24.42,3.31a10.59,10.59,0,0,1-2.12-.2c.11-.84.19-1.53.32-2.6a14,14,0,0,1-1.18.79c-1.24.63-1.87,3.65-4,1-2.33,1.13-5.25-.71-7.4,1.47a1.75,1.75,0,0,1-1.42.46,18.65,18.65,0,0,1-2.6-1.14c.79-.56,1.5-1.44,2.36-1.61,2-.4,2-.26,1.84-1.9L779,174.35l.06.83,4.44-.29.19.52c-.79.28-1.61.85-2.36.76-1.43-.16-2.81-.85-4.24-1s-2.88-1.19-4.5.11c-.52.42-2.28-.07-3-.7-.5-.43-.19-1.8-.25-2.92l4,.65c.92-3.34,4-3.46,6.36-3.94s5.14.06,7.72.11a2.51,2.51,0,0,0,1.51-.34c3.23-2.6,7.32-1.65,10.94-2.65.48-.14,1.25.77,1.62,1,1.85-.69,3.74-1.47,5.67-2.11,3.77-1.26,7.69-.5,11.54-.71a11.2,11.2,0,0,1,2.92.66c1.45-3.82,4.56-3.68,8.05-3.7,4.2,0,8.73,1.31,12.53-1.86.39-.32,1.16-.16,1.76-.23,3.14-.4,6.29-.82,9.44-1.2a4.46,4.46,0,0,1,1.28.19,4.18,4.18,0,0,0,3.21-.1c1.22-.63,2.72-2,4.42-.75,2.32-2.17,5.17.07,7.75-1a38.58,38.58,0,0,1,7.8-1.87,44.45,44.45,0,0,1,4.48-.11c4.46-.3,8.91-.76,13.37-1,3.71-.17,7.34-1.47,11.18-.32,1.39.42,3.16-.52,4.77-.69,4.39-.49,8.79-.86,13.17-1.37,1.11-.13,2.16-.79,3.28-.95a54.78,54.78,0,0,1,7-.68c1.67,0,2.16-.65,2.74-2.17,1.74-4.51,3.85-8.88,5.81-13.31l.56.24-1.89,7.84c-1.92,1.09-2.82,3.11-2.12,5.73l2.08-5.77c1.15-1.78,2.33-3.54,3.42-5.35a2.27,2.27,0,0,0,.25-1.51c-.25-1.2.07-1.68,1.34-2,.7-.2,1.33-1.29,1.65-2.11a44.66,44.66,0,0,0,1.27-4.54c1.94,1.21,2.31,6.09,1.17,7.18,0,1.73.26,3,0,4-.62,2.08-1.19,4.18-3.68,5.17-.92.37-1.3,2.07-1.89,3.11,1,1.82,2.5,1.77,4,1.56,3.93-.57,7.88-1.07,11.77-1.82a6.22,6.22,0,0,0,2.67-1.89,11.55,11.55,0,0,0,1.4-2.13c.47,1.54,1.91,1.84,3.07.57a5.75,5.75,0,0,0,1.61-3.12,22.27,22.27,0,0,1,2.69-8.68c1.25-2.55,2-5.32,3.19-7.92a41.38,41.38,0,0,1,2.71-4.36,20.85,20.85,0,0,1-3.86,13c-.18.23-.49.54-.45.75.77,3.66-1.64,6.53-2.38,9.8,0,.13.07.28.23.87.59-.61,1.2-1,1.41-1.51q4.21-10.38,8.31-20.79c1.52-3.87,2.86-7.82,4.47-11.65.9-2.13,2.23-4.08,3.26-6.16a36.11,36.11,0,0,0,1.37-3.6l.64.13v3.78a18.47,18.47,0,0,0,.06,3.57c.08.46,1,.76,1.9,1.37v5.58l.62.21,1.8-6.38.77.1c-.16,1.62.07,3.41-.55,4.82-1,2.25-1.21,5.13-4.16,6.21a2.4,2.4,0,0,0-.79,2.22c1.18,2.24.39,4.22-.78,5.93-1.74,2.56-.75,5.29-1.37,7.89l.88.58,1.05-3.12,1.37,1c-.82,2.1-1.7,4.17-2.45,6.29a7,7,0,0,0-.47,2.9c0,.26,1.47.34,2.26.54l6.25,1.57L995.36,147l3.73-.47c-1,4.6-5.28,4.37-7.61,6.73l1.4-.08s0,.13-.12.18c-4,2.63-7,6.24-9.78,9.94a5.62,5.62,0,0,0-.09,6c-1.63,2.32-3.34,4.52-4.76,6.9-.39.63.32,1.83.13,2.68-.72,3.31-1.48,6.61-2.48,9.84a24.14,24.14,0,0,1-2.29,4.23c-.18.32-.48.65-.49,1-.33,5.76-3.54,10.58-5.16,15.91-1,3.15-2.05,6.26-2.88,9.56l5.88-8.51,1.93-3a11.77,11.77,0,0,0,2.55-1.54c4.84-5,9.3-10.45,14.48-15.09,5.34-4.77,11.42-8.61,18.72-10,6.39-1.21,14.61,3.14,17.58,9.18,2.62,5.35,1.73,10.68.06,15.91-2.64,8.27-5.69,16.4-8.42,24.63-2.81,8.45-5.54,16.92-8.12,25.44-4.34,14.32-8.51,28.69-12.79,43a5.87,5.87,0,0,1-5,4.12c-.94.13-3-1.72-3.11-2.86a72.73,72.73,0,0,1-.53-13l.36,4.09.58,0a56.31,56.31,0,0,0,1.14-5.55c.06-.47-.78-1.06-1.21-1.59l-.66.44c.09-.77.18-1.55.29-2.57l1.46,1.34,1-2.38.27-1.85,1.16-4.25Zm-37.5-106.3-.51-.64a39.72,39.72,0,0,1-5,.93c-2.78.2-5.59.09-8.38.22-1.88.09-2.63,1.13-2.11,3a3,3,0,0,0,.77.14c4.55-.72,9.12-1.41,13.66-2.24C954.91,165.6,955.38,164.79,955.9,164.31Zm-47.45,52.45c2.8-1.79,4.22-4,2.63-7.8Zm.15-53.33c-.07.85-.14,1.55-.23,2.52h4.07C912.05,164.14,912.05,164.14,908.6,163.43Zm43.66,11.65,1,.46c.26-.78.3-1.79.82-2.3A9.67,9.67,0,0,1,957,172a14.25,14.25,0,0,0-2.61-1A35.09,35.09,0,0,0,952.26,175.08Zm58.67,11.29h6.15C1014.43,184.67,1012.36,184.68,1010.93,186.37Zm-103-20.16a11.63,11.63,0,0,0-1.36-2,19.36,19.36,0,0,0-2.63,1.45c.06.19.13.37.19.56Zm80.5-44.8c.56-1.78,1-3.27,1.51-4.77l-.72-.2C988.41,117.82,986.16,118.73,988.41,121.41Zm-643,192.83c1.4,1.46.41,3,.08,4.46-.18.85-.41,1.7-.63,2.54l.78.29,5.51-13.72-3-.13c1.79-5.05,3.46-9.92,5.24-14.74s3.56-9.52,5.46-14.23c1.46-3.62,3.11-7.16,4.62-10.76.66-1.57,1-3.29,1.8-4.78a21.58,21.58,0,0,1,2.65-3.29l.73.43q-2.32,6-4.67,11.91l.77.34,3.52-7.75.66.13v2l-1.53,5.38c-.84,1.36-1.71,2.69-2.49,4.09a1.29,1.29,0,0,0,.07,1.19c1.94,1.44,1.26,3.15.6,4.87a29.4,29.4,0,0,1-1.36,3.33c-.33.61-1,1.42-1.52,1.48-3.34.41-3.34,3.27-4.23,5.48a12.45,12.45,0,0,1-.69,1.89c-1.09,1.7-2.12,3.27.64,4.46.31.13.42,1.25.26,1.81-.3,1.07-.91,2.06-1.3,3.12s-1,1.7-2.34,1a2.11,2.11,0,0,0-2,.56,47.19,47.19,0,0,0-1.88,5.48c-.05.17.26.46.6,1,.44-1.82,1.07-3,3.12-1.92-.53,1.33-1.08,2.66-1.66,4.1-2.29-2.15-3.63-1.42-4.54,2.11-.78,3-1.53,6.07-2.39,9.08a18.17,18.17,0,0,1-1.13,2.19c-.32.73-.53,1.51-.79,2.27l.87.34a23.26,23.26,0,0,1,1.2-2.81,2.58,2.58,0,0,1,1.87-1.2c-2.8,6-2.53,13.06-7.67,18-1.93,0-3.3,2.17-2.58,4.81l1.8-1.42c-.08,1.79.12,3.1-.24,4.23-1.48,4.72-3.17,9.38-4.71,14.08-1.63,5-3.2,9.95-4.76,14.94-1.18,3.78-2.3,7.58-3.45,11.37l.79.27,1.91-4.6.37.13c-2.86,10.28-5.71,20.55-8.71,31.33V416.3l-.47-.08c-.49,1.94-1,3.87-1.56,6.2l1.86-1c-.74,2.77-1.39,5.18-2,7.59-.42,1.64-.81,3.28-1.21,4.93-.28,1.16-.47,2.35-.82,3.49-1.29,4.33-2.33,8.76-4,12.92-1.81,4.44-3.54,9.15-8.35,11.49-.56.27-1.16.46-1.86.73.27-5.78.27-5.78-.67-6.57a15.36,15.36,0,0,1-.84,1.77c-.25.4-.72,1.06-1,1-2.36-.47-2.46.95-2.06,2.86l-.65,0-4.11-4.93c-2.6-5.39-2.05-11.43-1.87-17.37.11-3.71.95-7.4,1.4-11.1a7.09,7.09,0,0,0-.35-1.93,14.41,14.41,0,0,1-1.32,1.16c-1.61,1.09-2.05,3.63-4.63,3.61-.68,0-2,.43-.87,1.78.15.17-.43.93-.67,1.42-2.14-1.32-2.66.68-3.53,1.79-1.5,1.94-2.92,3.95-4.67,6.34-.57-2.74-1.82-1.57-2.62-1-1.82,1.29-3.34,3.08-5.27,4.13-3.62,2-7.14,4.54-11.67,3.85a7,7,0,0,1-1.89-.57c-1.77-.83-3.16-.39-4.61,1.41l2.83.72c-2.24.86-4,1.55-5.92.38-.5-.3-1.07-.8-1.56-.75-3,.32-4.93-1.77-6.78-3.46-2.57-2.33-4.47-5.24-4.43-9,0-5.16-.42-10.36.07-15.47a78.86,78.86,0,0,1,5.63-22.83c1.15-2.77,3.38-5.24,4-8.08.81-3.85,2.66-7.08,4.41-10.42,2.23-4.26,4.44-8.56,7.07-12.57a224.17,224.17,0,0,1,25.2-32.36,52.28,52.28,0,0,1,21.18-13.67c1.42-.48,3.11-.11,4.67-.2a24.76,24.76,0,0,0,5.19-.48c2.54-.7,4.57-.27,6.24,1.55l-4.3-.45c1.73,1.63,4.17,2.25,4.57,4.91-2.35.47-1.86-4.54-4.74-2.52a12.9,12.9,0,0,1,2,3.28c.28,1.07,1.16,2.45-.4,3.58-.33.24-.21,1.88.23,2.28,2.52,2.26,1.3,5.14,1.52,7.76a8.09,8.09,0,0,0,0,1.57c1.38-3,2.88-6,4.12-9,2.81-7,5.51-14,8.23-21,1.86-4.79,3.58-9.63,5.54-14.38,2.68-6.51,5.6-12.91,8.27-19.41,1.81-4.39,3.29-8.91,5.05-13.32.85-2.12,2-4.11,3-6.18.23-.46.2-1.06.48-1.48.56-.85-.13-2.61,1.82-2.53.2,0,.64-.87.6-1.3a6.45,6.45,0,0,1,2.85-6.06,2.28,2.28,0,0,0,1-2.61,7.51,7.51,0,0,1,.83-4.1c2.24-4.88,4.64-9.69,7-14.55,1.72.93,2.86,1.76,3.09-.74.08-.92,1.21-1.76,1.93-2.73,2.61,3.25,2.49,7.56.13,10.11-1.4,1.5-1.28,2.15,1.15,3.52-4.87.06-4.51,3.88-5.57,6.57-.52,1.34-1,2-2.41.87-.61,1.34-1.45,2.5.7,3.12-.49,1.4-.76,2.67-2.71,3-.86.15-1.64,1.64-2.13,2.68a39.34,39.34,0,0,0-1.7,4.71,2.52,2.52,0,0,0,0,1.06c.19,1.26.42,2.52.67,4l1.72-.38c-.58,1.13-1,1.8-1.28,2.5-.9,2.05-1.76,4.1-2.62,6.16-.11.27,0,.73-.16.86-1.69,1.21-3.41,2.37-5.45,3.78a36.9,36.9,0,0,1,2.33,3.1,2.25,2.25,0,0,1,.12,1.71c-.49,1.32-1.16,2.58-1.76,3.85l-1.55-.67a4.51,4.51,0,0,1,.39,1.5c-.22,1.89-.55,3.76-.84,5.64l-.67-.35c-.8.15-2.23.14-2.31.47a15.62,15.62,0,0,0-.11,3.63c-.29.09-1.49.13-1.72.62-.58,1.22-1.51,2.52-.29,4s.11,3.88-2.06,4.2c-.36,0-.67.48-1.27.93,1.79.51,2.47,1.55,1.58,3-.23.36-1.35.15-2.61.24l1.14,2c-3.68.2-2.41,4.43-4.52,6.21-.17.15,0,.86.16,1.25a6.87,6.87,0,0,1-.87,7,4.49,4.49,0,0,1-1.12,1,21.44,21.44,0,0,0-3.05,2.61c2.68.63,1.94,2.95,1.4,3.37-2,1.57-1.27,3.86-2,5.72a125.45,125.45,0,0,0-4.65,14c-1.05,4.33-3.53,8.15-3.72,12.83-.11,2.65-2,5.21-2.91,7.87-1.51,4.37-3,8.77-4.22,13.22-.31,1.12.16,2.51.46,3.73s-1.61,5.92-2.88,7a2.32,2.32,0,0,0-.49,2c.92,3.21-.46,5.67-2,7.86a38.24,38.24,0,0,1,0,4.44c-.15,1.25-.87,2.46-.9,3.69,0,1.5-1.56,1.64-2.14,2.8a26.07,26.07,0,0,0-2,6.49c-.53,2.48-1.06,5-1.75,7.41-.47,1.66.38,1.68,1.55,1.49l-1.69,9,.59.16c.35-1.07.79-2.12,1-3.22,2.12-9.18,4.05-18.42,6.35-27.55,2.1-8.33,4.45-16.61,7-24.82q4.73-15.48,9.94-30.82c2-6,4.56-11.78,6.74-17.71,1.54-4.2,2.73-8.54,4.32-12.72.7-1.83,2-3.41,3-5.14a2.78,2.78,0,0,0,.54-1.7,3.91,3.91,0,0,1,1.43-4.17Zm-87.68,120c1.89-2.61,3.61-5,5.37-7.39,3.12-4.2,6.37-8.32,9.39-12.59,5.35-7.59,10.57-15.28,15.86-22.91,1-1.47,2.26-2.8,3.14-4.34,2.59-4.52,5.74-8.38,11-10.2l.93,1.79c3-4.11,5.72-8.09,6.86-12.95.3-1.26.37-2-.77-3.06-.94-.84-1.92-2.66-1.61-3.67.83-2.77-1.15-6.33,2.25-8.39.28-.18.31-.82.42-1.26q2-8.3,4-16.6c.57-2.33-.44-3.38-2.7-2.61a20.53,20.53,0,0,0-10.28,8c-1.67,2.4-2.77,5.28-5.88,6.36-.31.11-.51.67-.66,1.07a14.06,14.06,0,0,1-5.35,7.13,8.92,8.92,0,0,0-2,2.59c-.32.46-.48,1-.77,1.53-1.11,1.87-2.3,3.69-3.33,5.6-.75,1.37-1.21,2.89-1.94,4.28-2.88,5.51-6.08,10.88-8.67,16.53-3.55,7.74-6.74,15.65-9.88,23.56-1.66,4.18-3,8.48-4.26,12.8-.81,2.79-1,5.75-1.78,8.56A7.28,7.28,0,0,0,257.73,434.28Zm7.73,9.86-6.88,4.24C261.68,448.81,264.11,447.3,265.46,444.14Zm19.36-109.35.55.72,8.47-6.59-.59-.76Zm22.24-10.57-.2-.69c-2.52.18-5.05.35-7,2.48ZM248.86,443H251a13.67,13.67,0,0,0-.67-1.89,20,20,0,0,0-1.47-2.06ZM301,379.22l-.81-.77-3,3.66.57.5ZM123,411.8l3-3.34c.1.07.34.18.32.23-.78,3.08-1.53,6.16-2.39,9.22-.52,1.84-1.25,3.62-1.83,5.44-1.07,3.42-2.19,6.83-3.13,10.29-.65,2.37-.74,4.92-1.59,7.19-1.46,3.91-3.33,7.66-5,11.48l-.89-.33c.62-2.09,1.23-4.17,1.89-6.39-2.36.69-9.72,18.53-9.18,21.87.27-.23.59-.36.64-.56,1-4.24,4.52-7.55,4.59-12.19,0-.6.74-1.18,1.14-1.78l.88.48-6.34,17.72,2.48,1.49-.92,1.93c-1.56-1-2.35-.44-2.76,1.08a19.67,19.67,0,0,1-1,3.35c-.72,1.52-1,3,.48,4,.47.31,1.73-.57,3-.67-1.19,1.18-2.35,2.4-3.59,3.52a16.19,16.19,0,0,1-2.72,2.1,49.93,49.93,0,0,1-6.39,3.36c-1.32.53-2.81.46-3-1.78-.06-.72-1.27-1.34-1.83-2.09s-1.49-1.35-1.77-2.18c-.55-1.63-1.33-3.49-1-5.06,1.07-5.64,2.47-11.22,3.9-16.78,1.71-6.65,3.47-13.29,5.41-19.87,1.08-3.65,2.57-7.18,3.87-10.77.29-.8.52-1.63.77-2.44l-.58-.22c-.53,1.16-1,2.35-1.62,3.47-1.15,2.16-2.47,4.24-3.54,6.44-.93,1.93-1.33,4.15-2.44,5.95q-5,8.22-10.47,16.2c-2.65,3.9-5.46,7.7-8.38,11.4-6.76,8.55-13.77,16.87-22.48,23.58A21.44,21.44,0,0,0,48,499.43c-4.56,4.78-10,5.8-16.24,4.13a27.72,27.72,0,0,0-4.77-.41l-.72,3a8.36,8.36,0,0,1-2.85-.47c-2.64-1.48-5.15-3.19-7.74-4.76a10.36,10.36,0,0,0-2.49-1.13c-1.75-.52-3.53-.91-6.06-1.54,1.28,2.17,2.25,3.8,3.21,5.44l-.63.18c-6-8.72-7.83-18.41-5.76-29l-1,0L.5,486.61l-.5-.08a65.06,65.06,0,0,1,1.24-7c1.55-5.39,3.11-10.79,5.06-16.05,2.92-7.89,6.07-15.69,9.36-23.44.7-1.66,2.38-2.91,3.78-4.55-1.43-3,1.36-5.19,2.86-7.69,2.75-4.6,5.67-9.09,8.62-13.57.76-1.15,1.72-2.65,2.87-3,2.55-.72,3.18-2.77,3.6-4.66.52-2.3,1.57-3.5,4-3.67-.56-2.45.53-3.6,2.65-4.7a8.48,8.48,0,0,0,3.83-4.13c.53-1.2,2.77-1.64,4.08-2.34a36.15,36.15,0,0,1,2.78-4.49,69.71,69.71,0,0,1,5.69-6c1.43-1.35,3.09-2.47,4.65-3.68,4.43-3.44,8.81-6.94,13.3-10.28a17,17,0,0,1,9.07-3.6,19.8,19.8,0,0,1,5.24.62c-4.43.35-8.89.46-12.34,3.9.89.82,1.4.6,2.57.3a84.86,84.86,0,0,1,13.4-2.05c4.42-.39,7.71,2.22,6.93,7.43-2.06-1.53-3.85-1.51-6.3-.34a48,48,0,0,0-16.13,12c-5,5.8-9.72,11.79-14.16,18-5.57,7.77-10.47,16-16.13,23.72-3.79,5.17-6.22,10.89-8.67,16.66-4,9.42-8.05,18.82-11.82,28.34-1.31,3.31-1.88,6.92-2.71,10.41a9,9,0,0,0,.11,2.28,14.72,14.72,0,0,0,2-1c2.66-1.87,5.42-3.62,7.87-5.73,1.26-1.07,1.79-2.94,2.92-4.2,1.75-2,3.7-3.71,5.62-5.49,1.33-1.24,2.89-2.24,4.11-3.58a69.74,69.74,0,0,0,5.33-6.54c1.61-2.28,2.81-4.87,4.48-7.1a28.75,28.75,0,0,1,4-3.78c2.34-7.51,7-13.35,12.76-18.36l-1.87-1,1.22-.53c.9-1.59,1.83-3.16,2.7-4.77,1.19-2.21,2.38-4.43,3.46-6.7a19.16,19.16,0,0,0,1.73-4.46,13.62,13.62,0,0,1,1.62-3.52c1.13-2.27,1.5-4.94,2.73-7.14,2.91-5.2,5.84-10.45,10.56-14.34.16-.13.42-.12.3-.09l-.83,9.81c2.38,0,2.23-2.05,2.87-3.34.83-1.69,1.46-3.48,2.36-5.71,3,3.47,4.81,6.69,4.69,10.79-.11,3.87.55,7.82-1.25,11.52-.13.27,0,.69.42,1.13,2.91-8.56,4.72-17.49,8.78-25.59l.79.23c-.87,3.26-1.58,6.56-2.65,9.75-2,6.08-4.32,12.07-6.39,18.14-1.56,4.58-2.56,9.33-4.76,13.74-1.32,2.65-1.59,5.82-2.37,8.73-.17.63-.7,1.17-.81,1.79a27.7,27.7,0,0,0-.22,3c-2.21,3.91-3,8.27-4,12.57a9,9,0,0,0,1.49-3.12c.86-3.15,1.65-6.32,2.47-9.48.64-1.32,1.3-2.62,1.92-4a63.56,63.56,0,0,0,3-6.69c.85-2.55,1.07-5.32,1.93-7.86,1.82-5.35,3.93-10.6,5.82-15.92,1.05-3,1.8-6,2.89-9,1-2.55,2.22-5,3.27-7.49.62-1.5,1.11-3.06,1.62-4.6.81-2.44,1.56-4.9,2.38-7.34s1.74-5,2.69-7.48c.2-.52.78-1.31,1.15-1.29a34.13,34.13,0,0,1,4,.72l1.15-2.45.74.11a41.39,41.39,0,0,1-.51,4.32,31,31,0,0,1-1.19,2.9,6.32,6.32,0,0,0-.08,1.69h2.22c-1.48,4.31-2.92,8.48-4.33,12.67a15.53,15.53,0,0,0-.47,2.15c-.41,2.41-.61,4.87-1.24,7.22-1.06,3.89-2.41,7.7-3.58,11.56a5.6,5.6,0,0,0,0,1.78,9.3,9.3,0,0,0-1.82,2.32c-.53,1.52-.67,3.17-1,4.74-.47,1.93-2,3.69-.76,6.24.53-.55,1.06-.87,1.22-1.32,1-2.92,2.08-5.83,2.86-8.81C123.77,414,123.21,412.87,123,411.8ZM15.49,467.36c-1.05,3.89-2.26,7.75-3.07,11.7-.42,2-.34,4.28,1.41,5.9l.6-.17-1.3-4.32.37-.07,1.71,1.81c-.2-2.69,2-4.81-.67-6.67-.2-.14.06-1,.17-1.49.45-2,.93-4.08,1.4-6.12.69-1.12,1.14-2.57,2.12-3.31,2.42-1.84,2.58-2,1.07-4.57-.09-.15,0-.39,0-.89l1.6,1.17.76-.13c-1.5-2.14-.6-4.29-.66-6.51A45.41,45.41,0,0,0,15.49,467.36Zm79.09-8.66c-2.51,2-5.55,15.8-4.39,18.93C91.72,471.05,93.15,464.88,94.58,458.7Zm-72.07-10h3L28.45,439l-.65-.29C26.07,442,24.35,445.24,22.51,448.73Zm92.63-13.68,1,.44c.64-1.68,1.27-3.35,1.9-5l-1.13-.42Zm0,5.32-1.13-.84a20.09,20.09,0,0,0-1.63,2.63c-.17.4.17,1,.28,1.53.43-.18,1.07-.24,1.26-.56A22,22,0,0,0,115.12,440.37ZM89.51,478.63H88.23v4.59l.92,0Zm-23.3-97.35.57.71,4.39-3.4-.72-.91ZM91,415.58l.59.29c.62-1.8,2.93-2.93,1.6-5.5Zm697.7-88.16a27.78,27.78,0,0,0-3,3.3c-1,1.48-1.5,3.31-2.57,4.73a8.28,8.28,0,0,0-1.65,7.55,6.29,6.29,0,0,1-.39,2.36l-2.34-.75c.41-1.5.8-2.9,1.19-4.3l-.66-.23a34.78,34.78,0,0,1-2.37,4,3.41,3.41,0,0,1-2.27,1.34c-.73,0-1.49-.81-2.21-1.31-.21-.14-.26-.56-.46-.63-4-1.34-4.22-4.5-4.2-8,0-1.18-.94-2.35-1.07-3.56-.39-3.64-.58-7.29-.89-10.94a4.05,4.05,0,0,0-.47-1.13l-.5.26c.35-4,.22-8.14,1.21-12s-.32-7.75.91-11.49l.46.39c.5-.53,1.44-1.07,1.43-1.59a15.8,15.8,0,0,0-.74-4.25,3.81,3.81,0,0,1,1-4.24,3.37,3.37,0,0,0,.91-2.44c-.07-.54-1.14-1-1.93-1.56.44-.82,1-1.94,1.67-3.07l-.58-.4-4.28,5.63c2.12-4.79,6.22-8.81,5.73-15.16-4,5.95-7.94,11.47-11.58,17.16-6.34,9.91-12.66,19.84-18.72,29.92-9,14.91-19.11,29-29.52,43a85.18,85.18,0,0,1-7.27,8,5.17,5.17,0,0,1-6.36.4c-1.76-1.34-4.46-1.65-5.06-4.27a47.16,47.16,0,0,1-.69-5.05c-.05-.4,0-.82,0-1.23-.11-1.91-1.46-3.9.44-5.68.19-.18.13-.76,0-1.09-1.59-4.88.18-9.49,1.15-14.15.68-3.22,1.54-6.41,2.38-9.6.31-1.18.41-2.44,2-2.93.62-.18.89-1.59,1.4-2.61l-2.46-.16c1.58-1.92.12-4.77,2.81-6,.17.14.39.43.51.4,1.48-.48,2.32-4.36,1-5.72l-1.54,5.38c-.1-2.83,0-5.61,1.57-8.21l1.44.62a5.61,5.61,0,0,0,.35-.69c.92-2.36,1.87-4.72,2.74-7.1a24,24,0,0,0,.81-3c.86-4,1.53-8,2.58-11.95,1-3.66,2.43-7.19,3.5-10.82s1.73-7.2,2.86-10.71c.95-2.95,2.39-5.74,3.47-8.65a18.26,18.26,0,0,0,.56-3.5,2,2,0,0,1,.18-.83c1.51-2.27,3.06-4.52,4.55-6.71.31,4.18-3.27,7.84-2.73,12.2l.91.22c.62-1.84,1.3-3.67,1.86-5.54,2.11-6.89,4.17-13.79,6.26-20.68a3.35,3.35,0,0,1,.42-1.05,14.61,14.61,0,0,0,2.72-6.44c.29-1.53,1.24-2.86,3.25-1.8a1.15,1.15,0,0,0,.66,0c3.15-.6,5.28,1.38,4.58,4.57-1,4.37-2.24,8.67-3.27,13a43.69,43.69,0,0,0-.62,4.73l.76.13c1.27-4.93,2.53-9.87,3.77-14.71,1.49,2.59,1.25,5.08-.43,6.12a18.47,18.47,0,0,1,0,4c-2.49,10.61-5,21.23-7.65,31.8-3.19,12.74-6.52,25.45-9.83,38.16-.8,3.07-1.78,6.1-2.68,9.15l.49.33c1.11-1.55,2.29-3.07,3.33-4.66q8.39-12.9,16.71-25.84c5.87-9.06,11.6-18.2,17.67-27.12a60.21,60.21,0,0,1,9-10.64,25.59,25.59,0,0,1,13.63-6.79c2.55-.36,5.27.45,7.91.75a.54.54,0,0,1,.38.21c1.38,2.41,4,4.33,3.49,7.51-1.8,10.75-3.76,21.47-5.57,32.21-.65,3.84-1.08,7.71-1.54,11.58a9.26,9.26,0,0,0,.22,3.16c16.95-34.67,34.68-68.81,58-99.72L842,204.81l.34.41a4.78,4.78,0,0,0,1.08-.77c1.62-2,2.94-4.4,4.89-6,1.1-.91,3.22-.72,4.89-.71.32,0,.64,1.41.77,2.25,1.68,1.36,1.85,2.17.4,4.37-3.29,5-6.79,9.88-9.94,15C838,229.8,831.6,240.37,825.26,251c-1,1.7-1.64,3.64-2.62,5.38-2,3.61-4.33,7.07-6.23,10.75-4.47,8.69-8.77,17.47-13.13,26.22-1.82,3.66-3.69,7.3-5.43,11-.82,1.75-1.42,3.64.2,5.45l-1.19,2.1-.34-.52c-.63.3-1.57.45-1.85,1-1.36,2.45-2.59,5-3.79,7.52a47.7,47.7,0,0,0-2.14,5.12,8.21,8.21,0,0,0,0,2.53Zm-70.62-55.84,1.76-8.27-.89-.21c-.7,2.53-1.43,5-2.07,7.59C716.87,270.84,717.53,271.17,718.11,271.58ZM737.78,247l-.66-.16c-.82,1.74-2.33,3.32-1.33,5.51l.72.17C736.93,250.71,737.36,248.87,737.78,247ZM717.7,272.2c-2.89,2-3.15,3.37-1.45,5.32C716.69,275.91,717.13,274.28,717.7,272.2Zm134.63-68.12-.89-.45c-1,1.7-2,3.4-3,5.11l.88.47Q850.84,206.65,852.33,204.08ZM709,303.71c.36-1.65.61-2.82.87-4l-.75-.11C708.29,300.73,707.3,301.83,709,303.71Zm54.29-45.65.61.52q2.3-2.91,4.61-5.81l-.65-.51C766.37,254.19,764.85,256.13,763.32,258.06ZM416.84,419.53a58.93,58.93,0,0,1-7.4-1.26c-1.33-.39-2.38-1.72-3.63-2.5a7,7,0,0,0-1.94-.56,16.94,16.94,0,0,0,.4,2,3.45,3.45,0,0,1,.44,1.71c-.53-.36-1.31-.6-1.57-1.1-1.2-2.34-2.44-4.48-4.87-6-1.09-.67-1.31-2.7-2-4.07-.34-.67-.93-1.21-1.31-1.87-.5-.88-1.29-1.81-1.3-2.72,0-4.77.1-9.54.21-14.31a51.42,51.42,0,0,1,.32-6.69,93.35,93.35,0,0,1,2.2-11.14,102.43,102.43,0,0,1,3.89-11c1.76-4.37,3.68-8.68,5.67-12.95a4.68,4.68,0,0,1,2.09-2c2.53-1.23,2.4-3.49,2.6-5.73a4.14,4.14,0,0,1,.89-2.37c1.23-1.3,2.76-2.32,4-3.6,1.1-1.12,2.52-2.3.9-4.11a1.34,1.34,0,0,1,.05-1.11,8.45,8.45,0,0,1,1.89-.05c.78-1.14,1.47-3.25,2.86-3.92,3-1.44,3-4.31,4.42-6.56,1.94-3.18,4.53-6,6.71-9,2-2.83,3.78-5.87,5.88-8.65a24.39,24.39,0,0,1,4.31-4.18c3.2-2.56,6.39-5.17,9.82-7.41a123.8,123.8,0,0,1,14.27-7.94l-5.55,4.08.39.58c1.38-.81,2.82-1.51,4.12-2.43,5-3.54,10.62-5.44,16.42-7,2.66-.7,8,1.74,9.56,4a8.32,8.32,0,0,0,2.38,2.31,8.87,8.87,0,0,1,3.84,5.33c1.25,4.41,1.32,4.39-1.31,8.52,2.68,0,3.16,1.46,2.69,3.78-.16.79.58,1.77.91,2.66-3.29,2.08-3.77,7.82-1,10.28l-1.18,1.77a3.1,3.1,0,0,1,1.24,4.84c-1.44,1.48-.9,3-.95,4.69-.09,2.55.63,5.13-.8,7.74-1,1.83-.6,4.38-1.25,6.48-2.05,6.64-4.33,13.21-6.46,19.82-1.62,5-3.06,10.1-4.74,15.1-1,3-2.32,5.85-3.45,8.79-.38,1-.59,2.06-.88,3.09l.73.24,3.18-7.89a12.86,12.86,0,0,1,.95-2.28,15.69,15.69,0,0,1,1.89-2c-1.52-2.17.35-4.21,1.25-6.32.72-1.69,2.39-1.79,4.26-2.08-.24,1-.17,2-.62,2.35-1.63,1.31-1.19,3.1-1.52,4.75a6.55,6.55,0,0,1-1.46,2.21,24.17,24.17,0,0,1,0,3c-.18,1.3-.51,2.58-.79,3.87-.08.36-.1.84-.34,1-3.17,2.73-3,6.95-4.57,10.41-.74,1.66-.13,3.92-.13,6.76,1-1.29,2-2.07,2.44-3.08,1.55-3.55,2.92-7.19,4.47-10.74-2.31,6.83-4.61,13.67-6.73,20-1,.38-1.81.44-2.16.87-.78,1-1.18,2.27-2.05,3.11-.67.65-1.83.8-2.77,1.18l-3.33,1.33c0-.21,0-.78.07-1.35-.22,0-.41-.06-.46,0-1.77,2.09-4.51,1.75-5.23-.91-1-3.84-1.61-7.81-2.37-11.73-.09-.48-.11-1-.17-1.62-1,1.32-.89,4.45.25,9.51-2.62-4-1.85-7.84-1.35-11.69s.84-7.79,1.2-11.23c-2.89,3.45-6.46,7.11-9.28,11.27a79.75,79.75,0,0,1-9.35,11.52l-.69-.5c.55-1.07,1.09-2.14,1.86-3.66l-11.84,8.19a11.58,11.58,0,0,0-2.8.78C428.23,413,424,417,418.17,418c-.52.09-.9,1-1.34,1.52Zm58.76-135c4.07-2.11,8.08-4.33,12.9-4.39-2.39-2-4.82-1-6.84-.12-2.26,1-5,1.71-6,4.55-3.52.8-5.49,3.38-7.27,6.18,2.11-1.46,4.1-3.05,6.05-4.7A8.82,8.82,0,0,0,475.6,284.51Zm-53,112a14.79,14.79,0,0,1,2.15-2.66c2.6-1.9,5.34-3.59,7.92-5.5a9,9,0,0,0,2.57-2.9c1-1.86,1.21-4.27,2.54-5.77a20.34,20.34,0,0,1,6.45-4.71,7.79,7.79,0,0,0,4.18-3.75c.28-.58.85-1.44,1.28-1.44,2.09,0,2.62-1.26,2.89-3a2.16,2.16,0,0,1,.85-1.29c4.21-2.9,6.44-7.47,9.52-11.31,1.93-2.41,3.51-5.18,6.89-6.28-.77,1.64-1.49,3.17-2.2,4.7l.58.37c.56-.65,1.15-1.27,1.66-1.95,1.36-1.79,2.63-3.65,4.06-5.39a2.68,2.68,0,0,1,1.89-.94,28.88,28.88,0,0,1,4.24.89c1.52-4,3-7.8,4.45-11.64,1.55-4,3-8.12,4.67-12.1.6-1.42.24-1.89-1.08-2.2l-3.34,5.13-.54-.24c1-3.62,2-7.24,3.06-11.05l-1,.19c.6-3.19,1.2-6.32,1.79-9.46l-.58-.09-2,6.52-.58-.17c1.43-4.13.64-8.73,2.92-12.67v3.83l6-5.69c-.22-2.11-.47-4.56-.72-7l-.29,0-.28,4.43a69.66,69.66,0,0,0-2.12-9.76c-.78-2.69-1.15-2.79-4.13-2.25.4,1.28.81,2.59,1.23,3.91-.61-.09-.82-.32-.88-.59-.6-2.6-2.32-3.46-4.85-2.22a40.61,40.61,0,0,0-4.85,2.83c-4.31,2.91-7.23,7.1-10.33,11.18-6.1,8.06-12.92,15.61-18.58,23.95a224,224,0,0,0-14.52,25.25c-3.61,7.17-6.21,14.84-9.32,22.26-2.68,6.39-5.1,12.82-6,19.75-.5,3.72-1.27,7.41-1.92,11.11l.76.36Zm75-77.14-1.12-.43q-1.53,4.68-3.08,9.38l1,.35Zm-50.6,76.86-.47-.45L441.44,401l.57.55ZM342.77,500.87l2.75-3.85c-.53,1.78-1,3.46-1.53,5.11a21.58,21.58,0,0,0,2.47-.82,1.54,1.54,0,0,0,.75-.93c.33-1.62.53-3.26.87-4.88a2.56,2.56,0,0,1,.77-1c1.11-1.13,2.23-2.23,3.49-3.48,1.24,2.41.81,5.21.34,7.82-1.14,6.34-2.62,12.63-3.95,18.94-.18.88-.26,1.78-.43,2.66-.73,3.67-1.48,7.33-2.21,11a1.45,1.45,0,0,0,.24,1.23c2.11-4.58,2.16-9.67,3.47-14.45s2.3-9.67,3.43-14.51l.65.12-.81,5,.63.19,3.18-10.76.67.1c-.05.73,0,1.46-.15,2.18-1.17,7-2.33,13.9-3.56,20.84-.77,4.36-1.76,8.69-2.38,13.07a31.21,31.21,0,0,0,.08,6.62c.06.77.76,1.48.95,2.27.07.28-.47.72-1.1,1.59.11.54.32,1.64.56,2.73.06.28.33.75.26.79-2.57,1.82,1.42,3.44-.38,5.21l.66.13,1.4-1.33c-.2,1.29-.38,2.42-.56,3.55l.75.21c2.06-3.62,4.09-7.26,6.19-10.86,3.86-6.59,7.91-13.06,11.61-19.74A231.17,231.17,0,0,1,385.8,504c3.2-4.51,6.65-8.85,10.1-13.18.52-.65,1.65-.8,2.5-1.18l0,0c-2.56,3.65-5.19,7.25-7.65,11-2.13,3.23-4.05,6.62-6.1,9.91-3.23,5.2-6.54,10.35-9.74,15.57-2,3.33-3.87,6.78-5.92,10.1-1,1.62-2.32,3.06-3.5,4.59-.27.35-.72.67-.8,1.06-1.18,5.35-4.86,9.38-7.34,14-2.64,4.95-5.31,9.89-8,14.83l.67.4c1.15-1.84,2.35-3.65,3.45-5.52,8.83-15.15,17.48-30.4,26.52-45.42,4.13-6.85,8.93-13.31,13.59-19.83,4-5.6,8.08-11.13,12.34-16.53,3.73-4.72,7.78-9.18,11.64-13.8,2.23-2.68,4.36-5.44,6.86-8-1.3,2.79-1,5.8-1.56,8.6-.54,2.5-2,4.8-2.93,7.21a17.09,17.09,0,0,0-.59,2.64l-2,.26-.16.5,3,1.53L416.51,490h-.57l-.51-3.15-7.19,10.58.81.61,5.11-6.42a4.51,4.51,0,0,1-.09,1.37c-2.57,5.54-5.43,10.88-9.73,15.36-1.39,1.45-2.21,3.45-3.26,5.21q-3.1,5.16-6.17,10.33c-2.11,3.59-4.15,7.23-6.32,10.78-2.91,4.75-5.93,9.44-8.9,14.15-1.48,2.35-3.14,4.61-4.43,7.06a63.32,63.32,0,0,1-6.2,10.21c-1.39,1.74-3.2,3.37-3.11,6a1.84,1.84,0,0,1-.61,1.17c-4.86,4.54-7.83,10.44-11.57,15.79a55.45,55.45,0,0,1-6.41,7.22c-.6.61-1.86.56-2.82.81,3.11-.81,3.88-3.71,5.35-6-2,1.8-4.73,3-5.31,6-2,.51-3.89,1.14-5.88,1.5a8.49,8.49,0,0,1-3.85,0,12.23,12.23,0,0,1-8.19-11.19c-.05-1.43-1-2.87-.86-4.27.22-3.57.93-7.11,1.18-10.68.23-3.33,0-6.69.16-10s.84-6.78.4-10.06c-.46-3.54.5-6.71,1-10a44,44,0,0,0,.05-6.12l-3.49,4.43c-.7-2.5,2.38-6.81,5-7.31.12-1.07.24-2.17.37-3.27s.25-2,.37-3l-.7-.31c-1.26,2.3-2.48,4.63-3.78,6.9-.78,1.35-1.42,3.09-2.62,3.79s-3,.21-4.47.25a10,10,0,0,1,.05-3.05,17.75,17.75,0,0,1,1.88-3.29c.08-.13.14-.36.24-.38a6.82,6.82,0,0,0,5.08-4.09,14.21,14.21,0,0,1,1.8.53c1.52-2.34,3.3-4.64,3.17-8.11l-2.89,2.7c-.8-2.95,1.76-9.52,4.51-11.77l.08,1.43,3,.5,5.41-12.71.63.1.47,1.26-2.82,6.44.61.24A12.08,12.08,0,0,0,342.77,500.87ZM399,511.75c2.16-.59,5-4.86,5-7.28C401.61,505.62,399.84,508.16,399,511.75Zm-32.24,52.77-3.63,4.75C365.7,569.76,367.55,567.42,366.75,564.52Zm1.08-2.2,1.05.68c.49-.82,1-1.62,1.43-2.48,0-.08-.59-.48-.91-.73C368.87,560.63,368.35,561.48,367.83,562.32ZM279,604.27a7.06,7.06,0,0,1-1.24,2.09c-3.57,2.91-7.36,5.83-11.86,6.6a37.77,37.77,0,0,0-6.87,2.2c-3,1.1-6.54.93-9.84,1.33a25.45,25.45,0,0,0-4.93,1c2.82,1.89,5.55.32,8.3,0s5.51-.61,8.21-.91c-1.26,1.94-3.64,1.14-5.53,1.5a58.42,58.42,0,0,1-7.72.68,20,20,0,0,1-4.17-.18c-2-.32-3.92-.85-5.87-1.28-.22-.05-.59,0-.65-.12-1.15-2.23-3.69-1.05-5.22-2.12a50.86,50.86,0,0,1-6.06-4.87c-2.91-2.76-5.4-6-6.35-9.92a37.29,37.29,0,0,1-.75-8.65c0-3.59.57-7.18.58-10.77,0-6,2.4-11.4,4.41-16.88,1.36-3.71,2.84-7.36,4.19-11.07,1-2.71,1.74-5.45,3.68-7.83,1.51-1.86,2.07-4.47,3.22-6.66a24.59,24.59,0,0,1,2.85-4.29c2.53-3,5.19-6,7.79-8.95a7.13,7.13,0,0,0,.93-1.27,50.34,50.34,0,0,1,13.44-16.16,73,73,0,0,1,22.55-12.18c2.39-.83,4.77-1.7,7.18-2.46a3.6,3.6,0,0,1,2.31.2l-8.52,2.91.18.63,18.89-3.45-5.07,2.81c.46.5.69,1,1,1.07,2.49.53,2,2.38,1.85,4.06a8.58,8.58,0,0,0-.31,1.81c.87,5.72-1.23,10.9-2.87,16.17-.36,1.14-.55,2.34-.84,3.59,2.07-1.15,3.92-2,5.58-3.17.58-.4.75-1.46,1-2.26a5,5,0,0,1,.89-2.25c-1.09,4.57,0,9.69-3.63,13.65l2.19-6.31c-2.74-.17-3.85,1.51-4.79,2.9-1.66,2.45-2.68,5.37-5.54,6.85a.76.76,0,0,0-.39.51c-.17,3.76-2.88,5.32-5.71,6.93-1.38.79-2.38,2.21-3.63,3.24-3.3,2.69-6.55,5.44-10,7.92-1.89,1.36-4.21,2.12-6.25,3.31-.75.44-1.25,1.33-2.09,1.66s-1.47.92-2.22,1.34a8.15,8.15,0,0,1-1.78.87,17.94,17.94,0,0,1-2.55.28l1.09,1.31-.22.53-2.55-.75c.74-1.28,2.3-2,1.42-3.9-.27-.59,1.75-2.28,2.85-3.33.1-.1,1.16.71,1.71,1.18,1.26,1.07,1.86.31,2.31-.81.5-1.28.86-2.62,1.45-3.85,1.78-3.73,6-4.8,8.56-7.71a.41.41,0,0,1,.18-.12c4.42-1,4.85-5.12,6.67-8.19.71-1.2,1.61-2.3,2.42-3.44,1.16-1.61,2.31-3.23,3.48-4.83.95-1.31,1.88-2.46,3.9-1.69.35.13,1.79-1.44,2-2.41,1.23-4.6,2.23-9.26,3.31-13.91a10.39,10.39,0,0,0,.3-1.74c.15-2.93-.29-3.19-2.95-2-4.34,2-8.8,3.82-12,7.58-4.67,5.53-9.55,10.85-13.14,17.26-3.4,6.06-7.44,11.76-11.06,17.71-1.62,2.67-2.81,5.58-4.35,8.31a23.61,23.61,0,0,1-2.78,3.24c0,2.31.11,5.25-2.59,7.69-1.19,1.07-1.35,3.32-1.85,5.08-1.22,4.37-2.36,8.77-3.56,13.14-.43,1.58-1,3.13-1.43,4.7-.3,1.06-.59,2.11-.79,3.19a26.25,26.25,0,0,0-.79,5.51c0,.82,1.27,1.59,2.39,2.88l-2-1a7.11,7.11,0,0,0,5.43,7.1,6.35,6.35,0,0,1,2.11.72c2.45,1.8,4.89,1.39,7.44.25,1.79-.8,3.7-1.36,5.48-2.18a13.73,13.73,0,0,0,3.17-2c2.1-1.83,5.64-3.66,6.45-3.57,2.19-2.61,4.06-5,6.09-7.23,1.28-1.41,3-2.45,4.14-4a4.8,4.8,0,0,1,4.68-2.24v-2.34c.68-.13,1.39-.06,1.81-.38a24.39,24.39,0,0,0,6-7.4c2.18-3.77,4.9-7.22,7.37-10.82a21.78,21.78,0,0,0,1.75-2.83c.73-1.54,1.57-2.32,3.27-.18l.37-.66a8.54,8.54,0,0,1,.05-2.63,25.49,25.49,0,0,1,1.81-3.81,17.9,17.9,0,0,1,1.4-2.07c.21-.29.59-.76.77-.71,2.09.59,2.48-1.35,3.54-2.29.66-.57,1.38-1.08,2.07-1.61-2.13-2.51-2.12-2.51-.11-5.22.71-.95,1.35-1.95,2.06-2.91.11-.15.38-.17,1-.44L316.09,541c.62.72,1.26,1.48,2.13,2.51l3.23-4.26.78.43a15.42,15.42,0,0,1-1.57,3c-.89,1.09-2.12,1.66-1,3.56.4.68-1.08,2.48-1.73,3.76a8.66,8.66,0,0,0-1,1.71c-.4,1.67-.71,2.45-2,.43-.4-.64-1.66-.73-3-1.65l-3.29,5.68.6.54,4.44-.55.55.48c-2.08,3.18-4.18,6.35-6.22,9.55-.67,1.05-1.08,2.27-1.81,3.27a43.2,43.2,0,0,1-3.24,3.79c-2.38,2.59-4.82,5.12-7.21,7.7-1.88,2-3.78,4.06-5.54,6.19-1.26,1.53-2.14,3.39-3.5,4.81C281.89,597,276.91,602,271.8,607.2a3.18,3.18,0,0,0,1.27,0c2-.92,4-1.91,6-2.88Zm16.64-104.65c-5.93.87-15.13,5.48-16.45,7.95,5.65-.72,9.73-5.19,15.07-6.66C294.8,500.76,295.18,500.06,295.64,499.62Zm-2.73,78,3.88.18c.27-1.37.55-2.84.83-4.31l-.44-.14ZM231.35,596.3c-1.22,4.9.15,8.76,2.82,8.89Zm7.75,7.82c1.78,3.64,3,4.31,5.75,3.22C242,608.3,241.39,605.39,239.1,604.12Zm653.5-153c1.33-.3,2.56,0,1.69,1.56-2.59,4.74-2.27,9.66-1.45,14.68.21,1.29.33,2.6.42,3.28l7.46,2.13c.27.08.55.39.76.34,6.68-1.57,13.87-1.29,19.78-5.63a9,9,0,0,1,3.58-1.27l-3.18,2.12.37.53a80.56,80.56,0,0,0,27.78-19c-.4.81-.79,1.62-1.24,2.56,2.36-.37,9.67-9.47,12.56-15.36l-1.89-.2a10.06,10.06,0,0,1,.68-1.91c.81-1.34,1.71-2.61,2.69-4.07.18.88.34,1.69.53,2.65l3.13-.19c1.28,2.94.69,5.5-.85,8.23a108.91,108.91,0,0,1-14.49,19.86c-3.12,3.42-6.66,6.46-10,9.66a79.57,79.57,0,0,1-21.84,15,125,125,0,0,1-14.81,5.23,15,15,0,0,1-5.11.18,48.06,48.06,0,0,1-6.23-.69,59.93,59.93,0,0,1-6.76-1.63c-5.85-1.78-8.65-6.3-10.45-11.75a17.93,17.93,0,0,0-2.17-3.65c-2.11-3.3-2.76-7-3.27-10.82-.87-6.46-.92-13,.93-19.17,1.63-5.46,4.21-10.64,6.68-15.82-2.06,6.91-6.2,13.09-7.22,20.34l.61.23c.39-1.16.71-2.34,1.18-3.46,2.22-5.41,4.46-10.82,6.77-16.19a9.6,9.6,0,0,1,1.69-2.06q-1.1,3.13-2.17,6.27l.33.13,3.56-6.36h-1.76l2.33-5.93,1.62-2.41c1-1.23,2.08-2.48,3.14-3.7,1.22-1.39,2.47-2.75,3.7-4.12l-2.32,4.19.6.48a5.56,5.56,0,0,0,1.37-.85c3-3.38,6-6.77,8.84-10.23a11.85,11.85,0,0,0,1.26-2.66,15.48,15.48,0,0,0,2-1.64c3.69-4.2,7.27-8.49,11-12.65a79.39,79.39,0,0,1,29.13-20.47,9.12,9.12,0,0,0,.83-.67c-1.7.28-2.9.38-4,.69A34.93,34.93,0,0,0,937,368.1l0,0c2.74-1.57,5.48-2.7,8.85-2.08,1.48.28,3.2-.55,4.79-1,4.26-1.15,8.17-.42,12.2,2.07-4.82,1.63-9.94,1-14,4.08l12.77-2.08c.08.16-.09-.17-.39-.79a4.63,4.63,0,0,1,1.7.39c1.4,1.1,2.74,2.28,4,3.48.36.34.91,1.1.79,1.26-1.79,2.55.2,5.08.08,7.63a20.49,20.49,0,0,1-3.61,10.45,70.47,70.47,0,0,1-13.56,15.85c-4,3.31-8,6.53-12.14,9.69-3.49,2.69-7.13,5.18-10.63,7.85-1.83,1.4-3.45,3.08-5.3,4.45-.55.4-1.58.16-2.39.22,0-.31-.09-.62-.14-.93l4.34-1.91c.07,0,.18-.08.18-.12.26-3,3.58-2.71,5-4.57a9.22,9.22,0,0,1,3.53-2.3c.42-1.07-1-2.74,1.09-3.64a24.35,24.35,0,0,0,3.16-1.91c1.52-.94,3.4-1.44,3.85-3.61.11-.52.89-.92,1.38-1.35a11.58,11.58,0,0,0,2.69-2.84L943,407l-.33-.57c2.28-2.08,4.72-4,6.82-6.27,3.68-3.92,7.34-7.91,10.62-12.16,1-1.31,2.53-3.05,1.59-5.33-.23-.56.45-1.53.8-2.26a4.54,4.54,0,0,0-.69-5.06,2.9,2.9,0,0,0-2.37-.63,50.14,50.14,0,0,0-21.06,8.53c-8.78,6.35-15.62,14.39-21.69,23.24-2.32,3.39-4.92,6.61-7.31,10-.54.76-.59,1.87-1.15,2.61-1.23,1.65-3.16,3-3.84,4.79s-.31,3.75-1.6,5.41c-1.53,2-3.31,3.89-4.21,6.14s-.84,5-1.34,7.49a12.64,12.64,0,0,1-1.13,2.6l-.57-.21c0-.55.1-1.09.14-1.64a12,12,0,0,0-3,7.44c-3.68,5.31-3.06,11.24-2.48,17.16.74-3.34,1.26-6.71,1.7-10.09C892.15,455.84,892.35,453.47,892.6,451.11ZM874.53,462.9l.69,1.2a41.71,41.71,0,0,0,.11-6c0-2.08.19-4.15.21-6.23a5.76,5.76,0,0,0-.48-1.67q1.55-5.2,3.08-10.41c-3.08,3.26-5.1,10-4.15,12.74.37-.79.73-1.58,1.1-2.36-1.25,3.63-1.93,7.27-.47,11a4.88,4.88,0,0,1,0,1.74l-3.68-.61c0,3.05,2.44,1.7,3.75,3C874.59,464.18,874.56,463.54,874.53,462.9Zm3.67-25.32,1,.39,2.75-6.72-.78-.33ZM174.26,390.24c-1.48,2.72-2.95,5.46-4.45,8.18-.25.45-.73.81-.88,1.28-1.21,3.76-2.37,7.54-3.52,11.31-.08.25,0,.55.54,1.07,1.1-1.85,2.23-3.68,3.3-5.54,1.86-3.21,3.74-6.42,5.52-9.68,1.34-2.46,2.41-5.09,3.84-7.49,2-3.35,4.08-6.66,6.37-9.81a114.9,114.9,0,0,1,8.6-10.79c1.26-1.35,3.52-1.77,5.33-2.61l.55.69-6.07,7.95.21.44a4.43,4.43,0,0,0,1.42-.66c1.25-1.3,2.38-2.7,3.61-4s2-2.51,4-2.81c1.23-.18,2.51-2,3.22-3.33.85-1.63,1.47-2.9,3.44-3.7s3.26-2.74,4.89-4.14c.82-.7,1.7-1.32,2.58-1.94.46-.32,1.19-.45,1.44-.88a8.37,8.37,0,0,1,4.93-3.61c1.4-.47,2.67-1.41,2.32-3.35a2.87,2.87,0,0,1,.63-1.72c1.16,2.08,2.28,4,5.14,2.87v-2.53c1.59.29,1.5,1.47,1.69,2.61s-.45,3.32,1.68,2.6c.3,2.47.72,4.86.84,7.26.17,3.13.28,6.3-2.53,8.66-.39.33-.15,1.47-.14,2.23a22.71,22.71,0,0,1,.08,4.58,87.19,87.19,0,0,1-2.56,10.06,29.51,29.51,0,0,1-2.68,5,16.54,16.54,0,0,1-.21,3.3c-1.78,6.8-3.56,13.6-5.53,20.34-1.72,5.9-3.71,11.71-5.54,17.58-1.07,3.42-1.81,7-3.15,10.29s-1.57,6.84-2.7,10.13a89,89,0,0,1-4.24,9.09c-.84,1.75-1.55,3.63-4.18,4.09-1.46-4.23.48-8.39.88-12.54l-1.18-.18L199,462h-.69c0-1.41.07-2.82,0-4.23-.16-3-.42-6.06-.58-9.1-.11-2.05-.5-4.18-.1-6.14.62-3,1.83-6,2.75-9,.17-.56,0-1.25.21-1.77a11,11,0,0,1,1.22-1.63c.26-.38.73-1,.61-1.2-1.24-2,.11-3.83.64-5.6q5.16-17,10.56-33.95c1.42-4.45,3.08-8.82,4.84-13.14.32-.79,1.66-1.13,2.47-1.75s2-1.19,2.18-2a12.41,12.41,0,0,0-.15-4.68,17.29,17.29,0,0,1-1,2.55c-.23.37-.9.47-1.38.69-.13-.44-.46-.93-.35-1.31a38.06,38.06,0,0,1,1.76-5.45c.49-1.13.12-2.91,2.07-3.25.19,0,.14-1.47.2-2.26-.67,0-1.53-.33-2,0-2.92,1.94-5.67,4.14-8.63,6-5.51,3.51-9,8.92-13.12,13.74-4.73,5.59-9.12,11.52-13.29,17.55a153.46,153.46,0,0,0-8.51,14.3c-3.78,7-7.37,14.16-10.88,21.33-2.82,5.77-5.11,11.82-8.15,17.47C156,456,151.88,462.49,147.85,469c-1.17,1.9-2.74,3.44-5,1.16-3.63.93-2.76-1.73-2.87-3.6a2.7,2.7,0,0,1,0-1.12c.88-2,.1-3.67-.65-5.49-1.74-4.25-1.13-8.62.13-12.81,3.17-10.63,6.55-21.2,9.85-31.79a9,9,0,0,1,.56-1.17c2.08.72.69,2.1.62,3.06a19.74,19.74,0,0,1-.76,3.26l1,.27a38.17,38.17,0,0,1,1.33-3.95c.29-.66,1-1.12,1.49-1.72a13.3,13.3,0,0,0,.91-1.39c-2.23-1.28-.26-2.85-.13-4.19s.35-3,2.37-3.69c.76-.26.88-2.56,1.13-3.95.12-.65-.37-1.47-.15-2,1.51-3.9,3.14-7.76,4.7-11.64.45-1.1.7-2.29,1.17-3.38,2.51-5.84,5.08-11.64,7.58-17.48.34-.8.28-1.78.62-2.58.77-1.81,1.68-3.56,2.52-5.34.39-.85.73-1.72,1.09-2.57l.52.16c-.25,1.21-.51,2.43-.76,3.64l.52.2,2-3.43c1.78.8,1.93,2.31,2,3.77.06,1-.22,2.09-.15,3.12a5.35,5.35,0,0,0,.78,1.69l.6-.27c0,.08.06.17,0,.22-2.24,4.14-2.65,8.88-4.27,13.22-1.28,3.42-2.75,6.77-4.12,10.16-.21.53-.33,1.09-.63,2.12l2.52-1.22Zm1,10.37c-1.95-.19-6.1,6.6-6.46,11.28,1.31-1.54,2.09-2.87,3.24-3.67a14.47,14.47,0,0,1,3.81-1.36l-.19-.54-2.56.55ZM191.28,377c-1.38,1.79-4.22,2-4.1,5A3.9,3.9,0,0,0,191.28,377Zm27,4.19c-.68,2.35-1.22,4.24-1.76,6.12C219.28,384.52,219.86,382.87,218.29,381.23Zm-43,16.66.63.75,2.2-1.5-1.09-1.23ZM587.19,285.82c-1.11-1.48-1.94-1.43-2.52.43a24.81,24.81,0,0,0-1,2.69,4.08,4.08,0,0,0,.06,2.55,5.82,5.82,0,0,1-.74,7.22l.06,0-.63-1.85-6.4,2.24.28.87,4.09-.8c-1.85,2.57-3.71,5.14-5.61,7.79-1.88-2.56-.78-5.64-1.52-8.11-1.69-5.71,1.85-10,2.83-14.93.19-.91,1.65-1.66,1.65-2.48,0-1.47,2.77-2.32.84-4.14-.27-.25-.09-1.1,0-1.62.81-3.11,1.67-6.2,2.68-9.92a36,36,0,0,0-4.24,2.37c-2.78,2.12-5.55,4.29-8.15,6.62-3.81,3.4-7.47,6.95-9.93,11.55-.45.85-1.64,1.28-2.18,2.1-1,1.51-1.78,3.17-2.65,4.76-.55,1-1.11,2-1.66,3-1.27,1.89-2.84,3.64-3.76,5.68-4.71,10.46-9.38,20.93-13.8,31.51a129.77,129.77,0,0,0-8.28,26.34,25.63,25.63,0,0,0-.5,6.47c.1,1.29,1.12,2.51,1.93,4.19,2-6.84,0-13.95,3.74-20l-.66.87-.48-.14,2.52-8.45.34.09q-.6,2.42-1.19,4.85l.31.1Q541,327.35,549.33,307l.9.37-2.65,6.06c-1.77,4.12-3.58,8.22-5.3,12.35-1.88,4.5-3.8,9-5.47,13.55-2.67,7.31-5.26,14.67-5.39,22.6-2,2.77-.73,5.88-.84,8.84a10.65,10.65,0,0,0,.78,4.09l1-14.15c0,4.84-.54,9.64.42,14.2,3.82-1.87,7.56-3.43,11-5.47a28,28,0,0,0,6-5.08A65.28,65.28,0,0,0,560,348.92a56.47,56.47,0,0,1,4.68-7.33c.44-.62,1.51-.79,2.29-1.17a8.34,8.34,0,0,1,.59,2.21,18.83,18.83,0,0,0,0,4.31c.55-1.16,1-2.36,1.67-3.47a13.55,13.55,0,0,1,1.48-1.84,8.46,8.46,0,0,1,0,2.41,46.33,46.33,0,0,0-1.85,6.8c.27-.55.55-1.11.83-1.66l.79.5c-.44,1.5-1,3-1.28,4.52-.29,1.31-1.75,2.72,0,4.43.7-1.81,1.22-3.16,1.87-4.86.71,2.55-.6,9.27-2.71,13.19a78.8,78.8,0,0,1-7.13,11.74c-2.8,3.53-6.43,6.39-9.65,9.5,4.2.31,8.85-3.71,16.14-13.47a13.91,13.91,0,0,1-1.36,3.56c-3.32,4.51-6.9,8.75-12.62,10.41-3.28.95-6.52,2-9.79,3-.28.09-.73.31-.85.2-2.26-2.16-5.07.42-7.56-1-2.32-1.31-5-1.95-7.54-2.9-.69-.26-1.36-.56-2.05-.83-.27-.11-.69-.36-.81-.26-2.68,2.18-4.92-1.18-7.52-.61a2.4,2.4,0,0,1-1.92-1.23c-1.67-3.81-4.12-7.27-4.08-11.8,0-4.24-.86-8.47-1.1-12.71-.43-7.4,1.8-14.38,4-21.29,1.79-5.68,4.23-11.16,6.47-16.7,2.07-5.12,4.18-10.24,6.44-15.28a152.68,152.68,0,0,1,14.75-26.62c7.35-10.29,17.07-17.88,28.14-23.7,5.13-2.71,10.66-2.91,15.16,1.52,1.08,1.06,1,3.37,1.33,5.12.22,1,.35,2.06.53,3.09l1.07-.11c-.14-1.93-.28-3.86-.41-5.69,2.16,2,1.19,4.7,1.26,7.13a68.91,68.91,0,0,1-.46,9.19c-.21,2,.37,4.14-1.47,5.83-.48.44-.1,1.79-.12,2.72Zm-4.92-24.26c-2.48-1.78-4.75-.39-6.93.35-.92.32-1.57,1.46-2.34,2.23l.49.58Zm-18.46,16.15,5.7-5C566.92,273.41,564,273.72,563.81,277.71ZM757.69,424.42a9.3,9.3,0,0,1-1.27,2.45c-2.48,2.46-5.23,4.66-7.58,7.22s-4.21,5.46-6.47,8.05a27.11,27.11,0,0,1-3.84,3.1l-.45-.4-.21,2.57-3.15.28c.14.95.26,1.73.35,2.35-1.44,1.78-2.76,3.52-4.21,5.16-2,2.22-4.13,4.26-6,6.55-1.34,1.62-3.41,2.85-3.35,5.44a2.43,2.43,0,0,1-1,1.91c-2.63,1.21-1.86,3.79-2.89,6.11l2.35-1.31.6.54c-.55.6-1,1.52-1.67,1.74-1.24.42-1.36,1-1.51,2.24s-1.24,2.73-2,4c-1.61,2.69-3.31,5.32-4.91,8-1.45,2.44-2.87,4.91-4.18,7.43a11.71,11.71,0,0,0-.53,2.57c-.29,1.21-.1,2.74-1.94,3-.28,0-.61.43-.74.74-2.37,5.43-4.57,10.94-7.1,16.29a58.68,58.68,0,0,1-6.22,11.06c-1.7,2.19-4.23,4.32-7.76,4,.13-.91.25-1.72.43-2.87-2.19,1.71-4.11,2.47-6.27.34.25-1.24.52-2.58.82-4.1-1.85-1.28-1.24-3.48-1.09-5.39.58-7.38,2.89-14.29,5.57-21.16,5.06-13,11.35-25.46,15-39,.72-2.68,2.4-5.12,4-7.53l-7.47,21.48.57.19Q699.73,463,706,448.41c4.2-9.7,8-19.61,13.48-28.83.35.52.58.85.94,1.4l.66-1.3c.2-.4.4-.79.67-1.35l-2-.47,7.82-13.71,1.24,1.4c2.38-3.35,4.85-6.61,7.09-10s4.45-6.58,7.79-9.08c1,3.84-.91,7.18-3.85,8.11-1.34,2.89-2.33,5.43-3.67,7.76a57.52,57.52,0,0,0-4.21,9c-1.43,3.91-3.54,7.56-5.21,11.38-1.85,4.23-3.55,8.53-5.28,12.81a4.52,4.52,0,0,0,.06,1.42c2.65-2.63,3.32-5.92,4.64-8.9,1.67-3.74,3.59-7.37,5.41-11,.64-1.3,1.34-2.57,2-3.88,1.32-2.71,2.6-5.45,4-8.14a13.72,13.72,0,0,1,1.39-1.87l.64.22a5.37,5.37,0,0,1-.15,1.9c-1.8,3.75-3.81,7.42-5.51,11.22s-3.08,7.59-4.61,11.4c-2,5.06-4.08,10.12-6.09,15.2-.31.78-.49,1.61-.73,2.42l.58.35c1.94-2,4-3.81,5.81-5.86,2.08-2.31,3.9-4.85,6-7.18,2.8-3.17,5.87-6.11,8.56-9.37a67.52,67.52,0,0,1,19.88-16.45c2.42-1.32,4.61-3.09,7.08-4.31a155.45,155.45,0,0,1,14.3-6.48c3.9-1.46,5.84-.56,8,2.8-2.65,1.21-5.26,2.32-7.8,3.58a81.74,81.74,0,0,0-7.88,4.25c-1,.64-1.53,2-2.27,3.05l-1.82,1.12-9.7,7.68c-1.37.58-3,.88-4,1.81a69.3,69.3,0,0,0-5.28,5.67l-2.67,3,.54.52c.64-.57,1.27-1.14,1.92-1.7C755,426.72,756.34,425.57,757.69,424.42Zm-73.47,75.51c-3.6,6.83-6.24,14-6.87,21.73Zm52.6-56.48c-.74-.15-1.56-.58-2-.33a12.6,12.6,0,0,0-2.3,2l.49.53ZM653.8,464a10.26,10.26,0,0,0-2,.66c-3.14,1.82-6.22,3.74-9.38,5.51a9.53,9.53,0,0,1-2.71.55c.05.39.15,1.1.25,1.9l-4.54,3.08-.41-.44c1.21-1.1,2.42-2.19,3.66-3.33l-1.55-.52c.62-.8,1.14-1.49,1.67-2.19l0,.05a7.18,7.18,0,0,0,4.48-4.46,17.38,17.38,0,0,1,4.76-6.72c5.8-5.31,10.86-11.41,16.5-16.91a25.4,25.4,0,0,0,6.69-10,35,35,0,0,0,.94-5.14c-1.72.85-2.87,1.46-4.05,2a15.44,15.44,0,0,0-2,.68c-2.8,1.79-5.49,3.72-8.32,5.45-1.27.77-3,.87-4.12,1.79-3.82,3.15-7.55,6.42-11.09,9.87-1.15,1.12-1.53,3-2.48,4.38-1.29,1.86-2.82,3.56-4.2,5.36-2.92,3.85-5.83,7.7-8.68,11.59-.69.95-1,2.16-1.7,3.14s-1.75,1.9-2.42,3a15.53,15.53,0,0,0-1.26,3.09c-.57,1.55-1,3.14-1.65,4.68-.92,2.35-1.83,4.71-2.91,7-.39.83-1.47,1.34-1.86,2.17a22.93,22.93,0,0,0-1,3.55c-.42,1.43-.89,2.83-1.34,4.25a80.24,80.24,0,0,0-2.79,10.63c-.44,2.41-.69,5.08-2.63,7a1,1,0,0,0-.16.81c.86,4.81,1.68,9.71,6.06,12.78,1.08.76,2.69.79,4.06,1.1a11.83,11.83,0,0,1,2,.32c2.3,1,4.62,1.46,6.87.06,1.43-.89,3.74,0,4.45-2.25l2.91,1.66c.1-.08.78-.38.8-.71.11-2.21,1.84-1.89,3.21-2.31a41.36,41.36,0,0,0,6.1-2.36c.65-.32.88-1.47,1.25-2.14l8.79-5.25.33.41a6.26,6.26,0,0,1-.89,1c-3.79,2.79-7.54,5.64-11.43,8.29a66.33,66.33,0,0,1-7.52,4.29c-.81.41-2,.12-2.9.33a2.23,2.23,0,0,0-1.42,1c-.91,2-2.39,3-4.52,2.49l2.15-.74-.1-.54c-.64.12-1.28.23-1.91.38a65.66,65.66,0,0,1-8.26,1.9c-2.07.22-4.24-.74-6.33-.61-4.46.28-7.07-2.61-9.59-5.38-4.8-5.29-7.24-12-8.91-18.66A28,28,0,0,1,594,493.81c2.69-6.42,5-13,8.1-19.24a129.79,129.79,0,0,1,9.72-16.38c5.65-8.12,11.65-16,17.69-23.83a36.79,36.79,0,0,1,16.28-12,22.72,22.72,0,0,0,3.85-1.85c5.26-3.21,11.1-4.31,17.12-4.91,2.64-.27,5.25-.76,7.88-1.14,0,.22.09.44.13.66l-4.28,1.06-.09.6c1.23.53,2.43,1.45,3.68,1.53,4,.25,6.14,2.89,8.31,5.76,2.38,3.16,1,6.16,0,9.22-.61,1.91-1.45,3.76-2,5.69-1.31,4.69-4.58,8.05-7.77,11.41-3.46,3.64-7,7.21-10.79,10.51-3.47,3-7.29,5.64-11,8.43l-.51-.65,4.25-3.71a24.64,24.64,0,0,0,7.39-6c-1.93-.68-2.43.58-3.27,1.53s-2,2.08-2.82,2C654.37,462.22,654.07,462.85,653.8,464Zm-51.61,49.35c-2.21,2.91.75,4.54.52,6.68l.7-.12Zm75-81.14c1.9-.11,2-1.46,2-2.59,0-.62-.79-1.23-1.22-1.85l-.47.29C677.43,429.35,677.33,430.67,677.2,432.17Zm196.37-19.5c1-2.07,2.08-4.11,3-6.23a8.24,8.24,0,0,0,0-2.64c-3.59,2.32-2,7.16-6.17,9,0-1.62-.34-3.1.06-4.34,1.44-4.41,3.14-8.74,4.73-13.1a11,11,0,0,0,.84-2.54,27.55,27.55,0,0,0-.09-3.63c-1.52.14-3.21-.11-4.52.49a64.14,64.14,0,0,0-8.4,4.71,61.16,61.16,0,0,0-5.74,4.6,18.91,18.91,0,0,0-2.52,2.46c-.51.62-2.17,1.12-.58,2.36.08.07-.13.68-.34.94-.75.92-1.55,1.79-2.57,2.95l-.09-1.84-.48-.21c-1.38,2.24-2.75,4.48-4.14,6.71-1.07,1.71-2.05,3.48-3.28,5.07-.7.91-1.93,1.41-2.72,2.28a12.57,12.57,0,0,0-2.07,3.09c-.42.88-.27,2.05-.74,2.87-1.82,3.17-3.86,6.21-5.66,9.38-1,1.76-1.65,3.7-2.53,5.53a25.64,25.64,0,0,1-1.48,2.3c-.28.43-.72.87-.76,1.34-.4,4-2.58,7.2-4.5,10.52a7.26,7.26,0,0,0-.66,1.67c-1.52,5.56-3.11,11.09-4.49,16.68-1.25,5-.92,10.18-.08,15.23.64,3.88,2.93,4.79,6.86,4.05a69.78,69.78,0,0,1,10.14-.77c.49,0,1.1.75,1.5,1.28a21.62,21.62,0,0,1,1.33,2.54,19.11,19.11,0,0,0-2.27.18,16.33,16.33,0,0,0-3.41.83c-1.06.45-2.76,1.13-2.84,1.85-.24,2.26-2,1.93-3.2,2.23a32.29,32.29,0,0,1-4.43.34,17.43,17.43,0,0,1-2.81.44c-5.6-.4-9.9-3.16-13.13-7.62a35,35,0,0,1-5.15-9.81c-.53-1.61-.6-3.26-1.25-5.27l-1.13,2.46a6.16,6.16,0,0,1-.3-1.63c.38-2.75,1.18-5.49,1.16-8.24,0-8,3.47-15,5.74-22.25a80.24,80.24,0,0,1,5.67-12.69c3.25-6.32,6.35-12.77,10.26-18.67a213.35,213.35,0,0,1,14.11-18.35A139.86,139.86,0,0,1,845,388.15a46.18,46.18,0,0,1,23.73-12.47,10.23,10.23,0,0,1,8.67,2c1,.81,2.19,1.48,3.12,2.11,0,.47-.34,1.14-.14,1.57a9.94,9.94,0,0,0,1.84,2.79c3.35,3.33,3.72,7.33,2.29,11.45-1.52,4.38-3.5,8.61-5.3,12.89-.19.45-.52,1.09-.89,1.18-1.6.36-2.87.9-3,2.82,0,.26-.81.45-1.25.67ZM814.94,483l2.9-16.06-.61-.1C815.25,470.12,813.76,479.58,814.94,483ZM476.58,237.12c.15-.42.29-.84.49-1.43l-2.46-.42c2-3.3,5.71-2.39,9-4.16l-3.81-1.47-.05-.45c2.85-.76,5.67-1.63,8.55-2.24,8.67-1.82,17.34-3.66,26.06-5.27q19.78-3.63,39.64-6.94c7.47-1.25,15-2.26,22.5-3.27,8.74-1.19,17.49-2.32,26.25-3.34,2-.23,4.06.17,6.09.16a14.12,14.12,0,0,0,2.95-.44,67.31,67.31,0,0,1,7.55-1.71c9.26-.94,18.53-1.69,27.79-2.5,1.63-.15,3.35,0,4.85-.47a4.15,4.15,0,0,0,2.41-2.48,12,12,0,0,1,2.29-4.9c1.74-2.22,2.85-4.92,4.41-7.29a13.77,13.77,0,0,1,2.67-2.41l.6.43v-3.16a14.19,14.19,0,0,1,3.81-.54c.53.06.92,1.35,1.55,2.37H666c1.84,1.39,2,2.45.82,4.25-.66,1-2.23,1.8-.81,3.44.25.29-.48,1.43-.88,2.5l2.55.34-4,.39.84-1-.22-.38-5.66,1.71c2.1,2.7,4.85,1.84,7.51,1.62a15.73,15.73,0,0,1,4.77.34c-3.57,1-7.57-.46-10.78,2.24l-.08-1.31-.5-.33-1.47,2c1,.53,1.91,1.53,2.84,1.5,4.79-.19,9.57-.69,14.35-1,1.74-.1,3.28.41,3.65,2.87h-4.39l-.18.45,5.18,3a.93.93,0,0,1,.06.36c-1.07,6.19-6.39,7.16-11,8-5.56,1.05-11.35.89-17,1.26l-.19-.55,1.4-.29-.46-.87c-1.93,0-3.86-.12-5.78,0q-13.32,1-26.63,2.17c-2.83.24-5.64.61-8.47.89-.6.06-1.46.29-1.13-.89-.52,0-1.42-.24-1.5-.07-.94,2.05-2.91,1.63-4.51,1.85-3.86.53-7.74.89-11.61,1.27-8.24.81-16.49,1.46-24.71,2.44-5.94.71-11.82,1.89-17.75,2.76-4.37.64-8.78,1-13.14,1.71-4,.66-7.91,1.71-11.89,2.44-5.13.94-10.29,1.76-15.44,2.6-2,.33-4.19-.16-6.14,1-.31.19-1.2-.59-1.83-.93v-.87l-2.23,2.08c-2.35-1.79-3.48-1.48-5.49,1.12-.43.55-1.89.49-2.84.39a24.38,24.38,0,0,1-3.61-.89l-.22.66,1.45.92-4.2,1.2,1.13-1.37c0-.23-.08-.45-.11-.68-1.85.43-3.69.93-5.56,1.25a28.8,28.8,0,0,1-3.61.22Zm51.36-14.54-.16-.49c-.59,0-1.18.12-1.77.12a37.62,37.62,0,0,0-9.09,1.44c-3.65.91-7.55.8-11.33,1.26-.81.1-2.09,1.26-2.23,1.1-1.49-1.65-1.94.48-2.61.66-.74-.42-1.34-1.06-1.8-1a23.86,23.86,0,0,0-4.18,1.32c-1.34.53-2.56,1.47-3.94,1.75-2.17.45-4.78-.49-6.29,2.58,4.81-2,9.8-1.36,14.52-2.62s9.48-2.3,14.25-3.31S523.06,223.52,527.94,222.58Zm87-11.46-.11-1.08L602,211.43l.07.63C606.46,212.88,610.67,211.88,614.9,211.12Zm-62.61,6.27.08.84c3.42,1.34,6.53-.9,9.82-1l-.09-1Zm118.86-3.8-9.3,1.54C665.12,215.57,668.34,215.76,671.15,213.59Zm-94.61,1.93-.11-1-5.93.73.09.78Zm83.32.4,0-.52h-6l0,.92ZM430.35,519c.51-1.44,1-2.91,1.53-4.33a41,41,0,0,1,1.91-4.28,105.86,105.86,0,0,1,6.7-11l-3,7.11.84.58a19.33,19.33,0,0,0,2.55-3.21c1.81-3.59,3.22-7.39,5.16-10.9,2.72-4.9,5.78-9.61,8.68-14.41a20.26,20.26,0,0,1,1.22-2.13c.73-.94,1.6-1.78,2.57-2.84a5,5,0,0,1,2.8-5c1.54-.55,2.86-1.73,4.55-1.94,1.49-.18,2,.48,1.71,1.8a10.33,10.33,0,0,1-.71,2.14c-1.87,4.38-3.82,8.74-5.62,13.15-.36.89-.18,2-.29,3.57l8.45-15.89.44.18a12.53,12.53,0,0,1-.46,1.62c-2.6,6-5.11,12.14-7.88,18.11-2.69,5.81-5.78,11.44-8.48,17.24S448,520.21,445.46,526c-2.35,5.42-4.76,10.81-7,16.25-1.24,3-2.3,6-3.38,9a7.58,7.58,0,0,0-.15,2c-.13.22-.27.44-.41.65l-5.59,15-2.5,7.62v-1.31l-.47-.17c-1.26,2.77-2.53,5.54-3.78,8.31a67.58,67.58,0,0,1-3.53,7.67c-1.27,2.08-2.16,1.92-4.11.44-.49-.36-1.38-.16-1.94-.48a24.29,24.29,0,0,1-3.69-2.48c-1.76-1.51-1.78-3.71-1.3-5.65,1.34-5.41,3-10.76,4.46-16.14,1.24-4.41,2.39-8.84,3.71-13.22.89-3,2.44-5.79,2.9-8.8s2.48-5.3,3.76-7.92a5.44,5.44,0,0,0,.76-2.3c-.12-3.86,2.15-6.76,3.78-9.93.53-1,.78-2.21,1.37-3.2a18.28,18.28,0,0,1,2.08-2.44l-1.05,5.44.41.29,3.53-6C431.92,517.29,431.13,518.15,430.35,519Zm6.45-8.83-.81-.31c-4.22,5.61-4.26,5.73-2.16,6.82C434.83,514.51,435.81,512.34,436.8,510.18Zm-10,22.63-1.23-.6q-1.43,3.57-2.83,7.15l.86.37C424.68,537.43,425.74,535.12,426.81,532.81ZM857.5,265.15l1.74-1.21c-.71,2.6-1.18,4.57-1.79,6.51-2.45,7.75-5.48,15.37-7.21,23.27-1,4.53-2.71,8.83-3.5,13.42,1.93-2.35,2.24-5.73,4.54-7.82l.62.3c-1.16,3.11-2.18,6.29-3.51,9.32-2,4.51-4.31,8.87-6.28,13.38a66,66,0,0,0-2,6.72,2.21,2.21,0,0,1-1.36,1.27c.53-2.25,1-4.5,1.58-6.75l-.41-.27c-.41.58-.81,1.18-1.25,1.75-1.3,1.68-2.56,3.4-4,5-.18.2-1.44-.3-1.92-.76s-.4-1.2-.6-1.91l-2.53.45c-.69-1.17-1.34-2.15-1.85-3.2-1-2-1.5-3.79.15-6,.72-1,2.27-2.93.72-4.82-.11-.14.9-1.19,1.4-1.84-.75-.84-.38-5.38.73-5.73,2.06-.64,1.87-2.16,1.57-3.54a4.76,4.76,0,0,1,1.56-4.88c1-1.08.94-3.27,1.42-5.23,1.45-.7,1.45-.7,1.93-8.07l.85,1c4.37-9.81,6.66-20.34,11-30s6.44-20,11.84-29.14q-5.1,15.19-10.19,30.38l.85.34q.92-2.23,1.84-4.47c1.06-2.54,2.22-5,3.14-7.64.49-1.37.38-2.94.85-4.32,1.36-4.05,2.74-8.1,4.38-12,2.41-5.84,4.2-11.9,6.49-17.78.54-1.39,1.19-2.73,1.78-4.09l.86,0c0,1,.11,2,.18,3.28h2.54a22.48,22.48,0,0,1,.14,3,336.43,336.43,0,0,1-1.3,3.82c-.74,1.13-1.61,2.18-2.55,3.42l1.37.88-3.85,3.05,2.31,1.61c-.58,1.82-1.28,3.72-1.74,5.66-.16.64.34,1.41.46,2.13a4.74,4.74,0,0,1,.16,2.06c-2,6-4.06,11.89-6,17.86-.74,2.27-1.16,4.65-1.84,6.94a10.8,10.8,0,0,1-1.28,2.18l-.61-.31c.06-.76.13-1.51.19-2.27l-.65-.16-1.26,5.11c-.81,2.15-1.63,4.29-2.41,6.44-1.32,3.64-2.66,7.27-3.92,10.93-.82,2.39-1.5,4.83-2.24,7.25l.63.22c.39-.92.84-1.83,1.15-2.77q2.34-7,4.62-14C855.9,270.41,856.69,267.77,857.5,265.15Zm4.23-14.61.94.4,1.68-5.29-.82-.28Zm-88.85,160.4,1.82-1.12c1.63-.89,3.23-1.86,4.91-2.64a10.37,10.37,0,0,1,2.47-.41c.5-.1,1.2-.13,1.44-.46,1.49-2.05,3.65-1.45,5.27-1.54,2.64,1.82,1.86,4.57,2.28,7,2.25-3.38.48-6.64.06-10.09a33.6,33.6,0,0,1,4.4-.4,3.75,3.75,0,0,1,2,1.18c.47.43.65,1.2,1.13,1.63,3.14,2.8,3,6.42,2.52,10.08a103.94,103.94,0,0,1-8.09,28.77c-2.5,5.75-4.43,11.75-6.79,17.57-1.56,3.87-3.36,7.66-5.16,11.44-2.08,4.36-4.18,8.71-6.5,12.95-.7,1.29-2.11,2.18-3.2,3.25-.56,3.88-2.47,7.29-5.35,10.83v-4c-.83,1.36-1.4,2.23-1.93,3.13s-1.09,2-1.64,2.95l-.55-.28,1.41-3.38-.68-.36c-2.76,4.58-5.08,9.48-8.69,13.45l-.84-.24a8.41,8.41,0,0,1,.23-3,41,41,0,0,1,2.8-4.46c.16-.25.41-.51.42-.77.19-5.58,3.84-9.76,5.87-14.58.71-1.69,1.48-3.35,2.22-5l0-.06c1.39-2.78,2.87-5.51,4.14-8.33,2.81-6.26,5.6-12.54,8.22-18.88,1.76-4.27,3.16-8.68,4.8-13s3.46-8.3,4.89-12.55,2.63-8.88,3.8-13.36a13.53,13.53,0,0,0,0-3.31l-.59-.09q-1.56,6.87-3.11,13.73l-.76-.17c1.21-5.59,2.43-11.19,3.8-17.49l-5,1.52c1-1.39,3.74-1.37,3.11-4.63-2.33.92-4.53,1.64-6.6,2.64-2.44,1.17-4.75,2.59-7.14,3.86-.27.14-.68,0-1,0Zm21.79,21.2c2-1.52,2.6-3.68,3-5.85.64-3.18,1.14-6.39,1.69-9.6.42-2.44.91-4.88,1.16-7.34.08-.75-.53-1.56-.83-2.34l-.76,0C797.54,415.39,797.69,424,794.67,432.14Zm-.32-26.64,1.32-.19c-.13-1.06-.26-2.12-.38-3.17l-1.6.24Zm-331.54,37,2.92.83,0,.66a22.53,22.53,0,0,0-4.41,2.15,4.82,4.82,0,0,0-2.12,4.65l2.29-2.4A15.51,15.51,0,0,1,461,452a10.1,10.1,0,0,0,.39,2.68c.81-.41,1.87-.62,2.39-1.27a75.28,75.28,0,0,0,5.36-7.34c1.55-2.47,2.7-5.18,4.13-7.73.48-.84,1.47-1.4,1.94-2.25,1.13-2,3-4.23,2.83-6.24a26.47,26.47,0,0,1,.28-4.5c.13-1.47.18-2.95.26-4.42a31.82,31.82,0,0,0-3.7,5.79c-.31.59-.91,1.33-.76,1.81.59,1.81-.29,2.35-1.85,2.34,1.21,2.39-1,3.36-1.45,4.9l-3.4-1.25C465.77,437.36,464.32,439.9,462.81,442.53ZM434.66,554.59c-1,4-1.9,8-3,11.93a13.82,13.82,0,0,1-1.76,3,4.08,4.08,0,0,1,1.11.06,8.73,8.73,0,0,1,1.35.71c-.41.45-.85,1.33-1.21,1.3-2.34-.21-2.48,1.47-3,3-.61,1.87-1.46,3.65-2.21,5.47-.57,1.79-1,3.63-1.73,5.35-1.13,2.63-2.47,5.17-3.72,7.74,2.58-.61,3.15-1.26,4.5-4.3-.11-.16-.35-.39-.31-.48,1.3-2.75,2.63-5.48,4.16-8.12-1.17,2.93-1.27,6.33-3.91,8.63.31.38.92.8.87,1.12a10.94,10.94,0,0,1-.85,2.24l.53.18,15.07-42.76a14.16,14.16,0,0,0-1.87,3.29c-.48,1.09-.87,2.23-1.37,3.31s-1,1.88-1.52,2.82l-.52-.29,2.83-8-.41-.1-2.8,2.53c-.13.22-.27.44-.41.65C434.55,554.17,434.7,554.4,434.66,554.59Zm38.13-317.16a3.82,3.82,0,0,0-4-2c-3,.48-5.85,1.76-8.77,2.71-.46.15-1,.54-1.38.39-2.09-.92-3,0-3.18,1.69l-7.72.35,0,.8c2.85,1.47,5.6,2.6,9,1.15,1.36-.57,3.28.18,4.68.31l2.52-2.42.5.34c0,.58-.05,1.16-.08,1.67,3.56-.44,6.94-1.13,8.35-5ZM425,418.48c-2.52,2-5.25,2-8.14,1.08v0L420,420.7l-3,1.15c6.78,1.56,11.34-2.59,16.56-4.52-3.3,2.19-5.56,6-10.23,5.8-1.61-.06-3.24,1.07-4.9,1.55a5.09,5.09,0,0,1-2.38.19c-.42-.08-.71-.82-1.07-1.27l.31-.37-4.14-1c2.28,1.82,4.16,4.17,6.91,3.2s5.37-2.24,8.4-2.13a2.51,2.51,0,0,0,1.46-.53c4-3,8.05-6,12-9.06.37-.29.3-1.14.43-1.72a8,8,0,0,0-2.34,1.4c-.71.48-1.69,1.33-2.23,1.13-1.7-.61-2.66.38-3.86,1.13-1.45.91-2.65,2.65-4.78,1.74A12.86,12.86,0,0,0,425,418.48Zm442.6-243c0,.31.07.63.11.95l-9.88.56L851,178.81c.23.17.39.38.56.39,3.82.2,7.6-.56,11.47-.2,4.39.4,8.91.5,13-2.77l-5-.61,1.51-1c-2.55-.82-16.36.77-18.12,2.06l3.43.3Zm-219,53.33c.35.43,1.27.93,1.21,1.07a3.16,3.16,0,0,1-1.27,1.58c-1.7.79-2.69.06-3.18-1.8a3.62,3.62,0,0,0,0,2.18,17,17,0,0,0,1.13,2.28l1.88.75,4.83-12.24-.6-.27-2.09,4-.43-.12c0-.51-.07-1-.1-1.52l-.51.46c-.33-.31-.92-.6-.94-.92a8.88,8.88,0,0,1,.36-2.12l-1.49-.45c.57-4.18-.65-4.7-4.24-4.38,3.14,2.28,1.72,4.83.87,7.52l1.91-.11c.3,1.21.55,2.26.83,3.44l1-.94A10.1,10.1,0,0,0,648.62,228.77ZM376.13,244.44c.44-1.58,1-3.16,1.25-4.77.09-.5-.43-1.11-.67-1.67-.37.31-.92.54-1.08.93-1.6,3.94-3.11,7.91-4.68,11.86-.58,1.43-1.31,2.81-1.86,4.25a28.6,28.6,0,0,0-.83,3c1.42-.09,2.29-.37,3-.14,1.47.5,1.89-.5,2-1.4a14.43,14.43,0,0,0-.43-3.49c-.08-.5-.5-1.1-.34-1.45,1.18-2.43,2.46-4.81,3.71-7.21Zm540.18-74.11-9.78,1.16,1.69,1c0,.25,0,.49-.05.74-2.84.06-5.69.24-8.54.14-2.1-.06-3.29.54-3.15,2.82,7,.22,14.72-1.06,18.78-3.23l-5.14-.53V172l6.26-.69C916.35,171,916.33,170.65,916.31,170.33ZM736.68,329.53c-7.24,9.88-14.43,19.69-21.6,29.52-.11.16.07.53.11.84C717.68,358.78,736.75,331.83,736.68,329.53ZM992.53,275.3l.87-4.69a2.55,2.55,0,0,1-.2-4.07,5.44,5.44,0,0,0,1.72-2.6,35.09,35.09,0,0,0,.08-5.43l-.4-.06-5.73,21,.78-.14,1.45,2.09.27-1.85C989.14,277.42,991.65,276.58,992.53,275.3Zm-780.4,77.46c3.4-2.06,6.81-4.09,10.17-6.2.43-.28.94-1.18.79-1.48A23.65,23.65,0,0,0,221,342c-.49.63-1.36,1.24-1.41,1.9-.16,2.7-.23,2.8-3.14,2.29a6.94,6.94,0,0,0-2,.36l1.57,1-4.56,4.74Zm-37.87,37.47c.91-.63,1.84-1.22,2.71-1.9.42-.34,1.1-1.07,1-1.24-1.2-2.09.65-3.24,1.52-4.45,2.74-3.79,5.73-7.39,8.6-11.08a13.26,13.26,0,0,0,.95-1.74c-.79-.06-1.22.11-1.45.43q-6.6,9.06-13.12,18.16c-.31.44-.12,1.23-.17,1.86ZM797.51,180c-1.71-1-16,.32-17.49,2.3l17.49-1.54ZM571.74,225.31l27.21-3c0-.32-.08-.64-.11-1l-27.15,3.27Zm250.84-42.39c3.35.05,6.71.09,10.06.11.2,0,.39-.21.59-.32,1.69-1,3.42-1.58,4.75-.67l3.57-2.1-.11-.39-19.55,2.81C822.36,182.75,822.47,182.92,822.58,182.92Zm-59.4,235.7q-1.6,1.77-3.19,3.55c1.13-.76,2.3-1.47,3.39-2.28,3.34-2.5,6.65-5,10-7.56l-.47-1.39ZM462.43,440.28l12.43-19.76-.51-.31c-4.35,6.45-9,12.72-12.57,19.66ZM890.48,256.57a8.85,8.85,0,0,0-1.19,2.07c-2.08,7.95-4.09,15.92-6.11,23.88-.17.67-.24,1.36-.35,2l.56.11,2.7-10.74q2.17-8.69,4.37-17.38ZM489.94,361.87l2,2.43c3.94-6.72,4.62-9.76,2.45-12-.61,2.15-1.05,4.05-1.69,5.89A31.63,31.63,0,0,1,491,361.7ZM398.35,489.59c3.66-3.67,7.22-7.41,9.48-12.18a136.36,136.36,0,0,0-9.58,11c-.19.23.09.83.15,1.26ZM745.52,316.84l9.9-16-.81-.49q-4.92,8-9.83,16ZM623.88,267.4c2.29-6.35,4.41-12.22,6.62-18.37C628.2,251.43,623.14,264.93,623.88,267.4Zm308.69-21.73q-3.24,13.41-6.5,26.83l.57.14,6.51-26.85ZM771,467.28q3.64-9.5,7.28-19l-.56-.23L770,466.9ZM727,231.22a47.09,47.09,0,0,0-2.33,5.44,48.34,48.34,0,0,0-1,6.14C726,240.54,727.88,233.31,727,231.22Zm166-56.74c-3.12.26-5.79-.74-8.53.8C886.36,178,887.59,177.85,893,174.48ZM916.05,119c.18.23.81.09,1.23.12,0-.36,0-.72.07-1.08a10.65,10.65,0,0,0,.22-1.47,3.29,3.29,0,0,0-.28-1.65c-1.13-1.74-2.62,0-4.26-.07C914,116.2,915,117.62,916.05,119ZM334.38,373.19l6.75-19.6-.64-.21L333.88,373Zm417.7,63.08-9.56,8.08.47.89c.48-.1,1.09-.06,1.39-.35.85-.79,1.51-1.8,2.36-2.59,1.81-1.66,3.7-3.22,5.5-4.88.16-.15-.12-.78-.2-1.18ZM552.33,303.46l6.61-12.15-.84-.46L551.56,303ZM778.67,446.08q3.17-7.65,6.35-15.29l-.8-.33q-3.09,7.68-6.19,15.36ZM975.88,202.41c-3.42,2.17-6.37,4.12-5,8.41l1.93-3Zm-95.64,94.37q-1.1,6.41-2.2,12.82l.62.11q1.23-6.39,2.47-12.77ZM279,604.27c4.29-1.36,6.18-5.37,9.13-8.21a2.93,2.93,0,0,0-1.65.89c-1,1-2,2.19-3,3.22-1.45,1.41-3,2.76-4.44,4.13Zm24.81-91.35.85.1,1.56-8.49-1.84-.37ZM883.19,292.55q-1.62,8.81-3.23,17.62l.45.08q1.67-8.72,3.32-17.43Zm-6,32.21.84-12.48-.71,0c-.36,4.37-.71,8.74-1.09,13.39l1-.89Zm2.29-5v-6.64c-.24,1.59-.4,3.05-.7,4.49-.48,2.4-1,4.77-1.59,7.15l0,0c.13.9.26,1.79.43,3,.67-2.9,1.26-5.45,1.84-8Zm-336.93-1q-2.7,6.45-5.39,12.91l.49.2,5.49-12.95ZM368.49,273a22.71,22.71,0,0,1,1.46-3.06,1.89,1.89,0,0,0-1-3l-1.53,5.38ZM937,368.13c-4.15.91-7.55,3.19-10.89,5.58l.28.51L937,368.1Zm-14.73,8-10.41,10.53.36.36,10.21-10.74ZM292.84,536.85l-7.65,7.71.08.06,7.52-7.86Zm52.57-222.61c2.23.28,2.47-1.59,3-3,.16-.38-.32-1-.51-1.54-.5.24-1.29.36-1.44.74a34.56,34.56,0,0,0-1.06,3.81Zm374.4,44.33,4.85-7.09-.76-.53q-2.4,3.56-4.82,7.09ZM752,436.23c2.53-.37,3.83-2.11,5.11-4.44-2,.23-3.74.11-3.93,2.58-.05.66-.74,1.27-1.14,1.9Zm-113.31,33-1.34-1.75c1.82,0,3.74.78,4-1.72-2.25-.35-4.55,1.6-4.87,4.08l2.29-.66Zm317.72-29.39-2.89,4.94,1,.58q1.54-2.42,3.07-4.83ZM635.55,218l-8.48.86,0,.57,8.44-.44ZM725,466.52a9.14,9.14,0,0,1-1.11,1.87c-.84.9-1.87,1.61-2.73,2.5a2.14,2.14,0,0,0-.43,1.37c0,.24.65.7.74.65a3.92,3.92,0,0,0,1-1,11.83,11.83,0,0,0,1.49-2.2,28.85,28.85,0,0,0,1-3.23ZM376.16,244.39c.63,1,1.43,1,1.85,0,.77-1.88,1.3-3.85,1.94-5.79l-.41-.09-3.41,5.95Zm362.44,207c1.82-.48,2.61-1.87,3-3.57l-.65-.59-3,3.51Zm146.22-34.8-5,7.81.28.17,3.09-3.73,1.62-2.41Zm-123.14-127c-.88,1.18-1.84,2.32-2.62,3.57s-1.38,2.58-2,3.88l.39.22,4.74-7.39Zm-6.17,13.22-4.59,7.47.62.37q2.26-3.77,4.54-7.53Zm173.78-37.43-1.71,8.14.93.16,1.35-8.28ZM551,300.66l.12.07q2.7-5,5.41-10l-.16-.11-2.18,2.58c-.55,1-1.11,2-1.66,3ZM158.65,388.25c-.61,2.23-1.22,4.45-1.84,6.68l.72.18,2.12-6.66Zm551.76,44.61c.58-1,1.21-2,1.74-3s1-2.18,1.5-3.28l-.93-.41c-1,2.16-1.89,4.33-2.83,6.49Zm14.51,33.62c1.55-.7,3.14-1.33,4.62-2.16.41-.22.49-1.05.72-1.61-.59.06-1.37-.11-1.73.21-1.27,1.11-2.39,2.38-3.57,3.6Zm-278.8,21.06-3.33,6.09,1,.52c1-2.09,2-4.19,3-6.28ZM702.34,452.1c.75-1.88,1.51-3.75,2.27-5.63l-.63-.26c-1.43,1.59-1.73,3.68-2.43,5.6ZM313.59,564.6q-2.08,3.1-4.19,6.19l.76.5,4-6.32ZM587.2,285.82C585,287,585,287,585.92,292.11c.48-2.41.86-4.36,1.24-6.31ZM547.52,228l-7,1.11c.05.26.09.52.14.78l7-1.12ZM760.91,504c-2.81,0-2,3.41-3.38,4.72l4-4ZM496.63,344.74l-.69,5.29c.93-1.65,2.95-3,1.52-5.16ZM617.8,350c3-.72,4-2.13,3.93-4.61ZM119.46,376.67,117,382.91l.83.31c.76-2.09,1.53-4.19,2.29-6.29Zm813-118.84c.41-1.41.83-2.81,1.24-4.22l-1-.31c-.44,1.39-.87,2.78-1.31,4.17Zm-6.83,31.29-.54.12c-.25,1.31-.51,2.63-.77,3.95l.9.3c.32-.95.64-1.89,1-2.83v.07Zm-.74-12c-.25,2.07-.51,4.13-.85,6.82l2.26-1.24-.17-.44h-1.59c.32-1.79.61-3.43.9-5.07Zm-136.19,50.3c-.7,2-1.41,4.07-2.12,6.11l.54.21,3-7-1.46.72Zm28.47-57.16c-1.23,2.52-2.45,5.05-3.68,7.57l.34.17,3.86-7.47Zm79.9-37.74c-.59,2-1.19,4.06-1.78,6.09l.63.17q.9-3.09,1.78-6.16Zm-420.52,4.6-3.79.31,0,0,2.57,2c.41-.77.81-1.54,1.21-2.31ZM772.07,417.2l-4.25,3.21.51.64,4.27-3.17ZM332.2,380.8q.84-2.78,1.7-5.57l-.72-.22c-.58,1.85-1.17,3.7-1.75,5.56ZM890.45,256.55c.74-2.26,1.47-4.51,2.2-6.77l-1-.25-1.17,7Zm-8.74,33-1,5.5.7.12,1.1-5.49Zm-300.59,13,.65.24c.41-1.36.83-2.72,1.24-4.08l.06,0C580.46,299.13,581.12,301,581.12,302.55ZM423.49,475.33c.62-1.11,1.25-2.22,1.88-3.33l-.83-.5-2,3.29ZM372.62,519c-1,1.52-1.93,3-2.89,4.57l.72.45,2.83-4.61Zm261.13-42.52L629.32,478C630.26,479.21,632.24,478.67,633.75,476.46Zm103.57-144.4q-1.44,2.18-2.89,4.35l.64.42,2.78-4.45Zm231-195.61L970,132.1l-.74-.29-1.66,4.28ZM900,401.12a.42.42,0,0,0-.18-.09q-2.69,3.11-5.35,6.22l5.62-5.93A.61.61,0,0,0,900,401.12ZM1.08,495.58c.5,1.91,1.38,3.53,3.54,4.15L1.1,495.57C1.25,495.48,1.08,495.55,1.08,495.58Zm774.54-80.39,5.23-2.1-.31-.76-5.15,2.2ZM618.22,219.52l-5.7.6.07.63,5.7-.55C618.27,220,618.24,219.75,618.22,219.52Zm-409,129.55,3.75-3.31-.47-.54-3.88,3.1Zm598.89-60.91-2.59,5.49.44.21c.92-1.8,1.83-3.61,2.75-5.42ZM997,250.85c-.33,1.25-.64,2.37-1,3.74C998,253.82,998.4,252.65,997,250.85ZM344.45,344.76l1.84-5.08-.71-.22c-.53,1.71-1.05,3.43-1.58,5.15Zm-216.24,59.1c.5-1.74,1-3.47,1.51-5.21l-.57-.19c-.58,1.7-1.15,3.41-1.73,5.11Zm655.23-63.25,2.24-4.09C784.24,337.51,782.45,338.36,783.44,340.61ZM529.61,443.88l-4.11,3.37.39.46,4.13-3.43ZM355.43,550.47l3-5.13-.33-.2q-1.57,2.45-3.14,4.9Zm295.86-328-1.35-3.53-.78.25,1.08,3.66Zm152.37-36.91,4.5-.24-.08-.93-4.48.54ZM994,126.93c.43-1,.85-2.05,1.28-3.08l-.83-.37-1.42,3ZM236.85,362.75l.71-4.63-.73-.1-.68,4.63Zm476.68-1.15-.3-.2-2.29,2.66h2C713.13,363.29,713.33,362.44,713.53,361.6Zm192.73,32.62-3.93,3,.53.49,3.17-3.6ZM541.69,332.39c.76-1.88,1.51-3.76,2.27-5.63l-.34-.14c-.74,1.87-1.48,3.73-2.21,5.6ZM151.93,407.18l.18,3.15h.77l.34-3.13Zm612.81,75.18c0-.65.08-1.29.15-2.32l-3,6,2.8-3.59ZM443.31,542l-2.29,5.7.51.2,2.26-5.7Zm329.2-359.34,3,.15C774.36,180.74,773.8,180.72,772.51,182.64ZM747,317.79l3-4.91-.49-.29-3,4.94ZM603.7,221.6l4.86-.62-.06-.5-4.9.57Zm36.48,2-1.71,4.27.47.2,1.88-4.2ZM766.55,476.11l2.14-5.13-.55-.22-2,5.18ZM644.19,229c.14-1,.26-1.77.45-3.09C642.52,227.37,642.5,227.59,644.19,229Z" style="fill:none"/></clipPath></defs><title>evidence</title><g id="Layer_2" data-name="Layer 2"><g id="assets"><g id="science"><path d="M343.51,85.26,324.2,12.73h19.7l6.17,28.52a130.06,130.06,0,0,1,3.14,15h.2a142.3,142.3,0,0,1,2.94-14.9l6-28.62h17.73l6.47,28.72a127.54,127.54,0,0,1,3.24,14.8H390a140.55,140.55,0,0,1,2.75-14.6l5.78-28.92h17.93L397.61,85.26H381.24l-9.9-45.38h-.19l-11,45.38Z" transform="translate(3.49 -12.73)"/><path d="M413.38,59.09c0-21.07,17-27.34,27.64-27.34,10.39,0,25.28,3.72,25.28,29.89v2.94H432.69c1,6.86,4.8,8.53,10.48,8.53,5.49,0,11.67-2.75,15.1-4.81l7,11.77c-6.67,4.31-14.8,6.27-23.53,6.27C427.3,86.34,413.38,80.36,413.38,59.09Zm35.77-5.58c-.78-6.28-3.62-8.24-8.23-8.24-3.82,0-6.86,2.26-8,8.24Z" transform="translate(3.49 -12.73)"/><path d="M502.46,85.26V12.73h19.41V85.26Z" transform="translate(3.49 -12.73)"/><path d="M530.1,59.09c0-21.07,16.95-27.34,27.63-27.34,10.39,0,25.29,3.72,25.29,29.89v2.94H549.4c1,6.86,4.81,8.53,10.49,8.53,5.49,0,11.66-2.75,15.09-4.81l7,11.77c-6.66,4.31-14.8,6.27-23.52,6.27C544,86.34,530.1,80.36,530.1,59.09Zm35.77-5.58c-.79-6.28-3.63-8.24-8.23-8.24-3.83,0-6.86,2.26-8,8.24Z" transform="translate(3.49 -12.73)"/><path d="M586.54,71.15c0-11.76,10.88-18.92,32.44-19.9v-.68c0-2.55-1.27-4.41-5.78-4.41-6.07,0-11.76,2.54-16.17,5.68l-7.94-11c4.8-4.31,13-9.11,27.15-9.11,15.49,0,21.66,7.25,21.66,22V72.52c0,6.27.39,10.09,1.47,12.74H620.16A24.92,24.92,0,0,1,619,77.62,20.88,20.88,0,0,1,601.54,86C594,86,586.54,81.44,586.54,71.15ZM619,68.6V61.15c-9.4.29-13.52,2.74-13.52,6.76,0,2.55,1.86,3.73,4.31,3.73C614.57,71.64,617.32,70.17,619,68.6Z" transform="translate(3.49 -12.73)"/><path d="M645.05,59.58c0-18,7.84-27.83,19.8-27.83,7,0,11.76,2.06,15.38,7.25V12.73h19.41V72.52c0,6.27.39,10.09,1.57,12.74h-19.8c-.78-1.08-1.18-5.19-1.18-7.84-3.13,4.7-7.84,8.62-15.58,8.62C652.79,86,645.05,77.62,645.05,59.58Zm35.18,8.23V51c-2.64-2.35-4.7-3.34-8-3.34-5.79,0-7.75,4.42-7.75,11.86,0,6.47,1.47,12.16,7.94,12.16C675.43,71.64,678.67,69.48,680.23,67.81Z" transform="translate(3.49 -12.73)"/><path d="M209.59,173.26l-15-52.53H214l3.43,16A154.68,154.68,0,0,1,220.27,152h.2c1.08-6.66,2-10.48,3.23-15.78l3.53-15.48h14.7l3.82,15.68c1.38,5.1,2.16,8.92,3.34,15.58h.19c1.08-6.56,2-10.39,3.24-15.38l3.72-15.88h17l-15,52.53H240.27l-6.37-27.54h-.2l-6.17,27.54Z" transform="translate(3.49 -12.73)"/><path d="M278.19,115.63v-14.9h19.4v14.9Zm0,57.63V120.73h19.4v52.53Z" transform="translate(3.49 -12.73)"/><path d="M313.08,157.48V134.64h-8.53V120.73h8.53V103.09h19.4v17.64h13.43v13.91H332.48v18.53c0,5.58,1.37,7,6.86,7a23,23,0,0,0,5.1-.59v13.52a89.36,89.36,0,0,1-11.86.89C314.74,174,313.08,167.67,313.08,157.48Z" transform="translate(3.49 -12.73)"/><path d="M353,173.26V100.73h19.41v28.13c2.25-3.62,7.74-9.11,17.44-9.11,8.24,0,15.1,3.92,15.1,15.19v38.32H385.5V141.31c0-3.63-1.18-5.69-4.41-5.69s-6.17,1.67-8.72,3.73v33.91Z" transform="translate(3.49 -12.73)"/><path d="M439.1,166.79l7.16-10.88c4.9,3.92,12.84,6.37,18.82,6.37,3.33,0,6.27-1,6.27-3.43,0-2.74-2.45-3.62-8.14-4.41-8.92-1.27-21.56-3.33-21.56-16.95,0-11.76,9.61-17.74,21.46-17.74,11.47,0,18.14,2.64,24.51,7.25l-7.16,10.68c-5.68-3.33-11.27-5.29-15.48-5.29-3.24,0-5.39,1-5.39,3.33s2.74,3.34,8,4c8.92,1.18,21.66,3.14,21.66,15.88,0,13.92-11.95,18.72-24.11,18.72S444.89,171,439.1,166.79Z" transform="translate(3.49 -12.73)"/><path d="M493.1,147.09c0-21.85,16.07-27.34,27.64-27.34,15.48,0,21,7.84,24,16.66l-16.27,5.1c-1.66-6.38-4.31-7.84-7.94-7.84-5.78,0-8,5.29-8,13.52,0,7.64,1.37,13.72,7.84,13.72,3.13,0,6.76-1.57,8.52-8.43L545,157.87c-3,7.84-9.7,16.47-24.9,16.47C507.7,174.34,493.1,168.65,493.1,147.09Z" transform="translate(3.49 -12.73)"/><path d="M551.71,115.63v-14.9h19.4v14.9Zm0,57.63V120.73h19.4v52.53Z" transform="translate(3.49 -12.73)"/><path d="M579.34,147.09c0-21.07,17-27.34,27.64-27.34,10.39,0,25.28,3.72,25.28,29.89v2.94H598.65c1,6.86,4.8,8.53,10.48,8.53,5.49,0,11.67-2.75,15.1-4.81l7,11.77c-6.67,4.31-14.8,6.27-23.53,6.27C593.26,174.34,579.34,168.36,579.34,147.09Zm35.77-5.58c-.78-6.28-3.62-8.24-8.23-8.24-3.82,0-6.86,2.26-8,8.24Z" transform="translate(3.49 -12.73)"/><path d="M640,120.73h19.41v8.13c2.25-3.62,7.74-9.11,17.44-9.11,8.23,0,15.1,3.92,15.1,15.19v38.32H672.54V141.31c0-3.63-1.18-5.69-4.41-5.69s-6.18,1.67-8.72,3.73v33.91H640Z" transform="translate(3.49 -12.73)"/><path d="M699.1,147.09c0-21.85,16.07-27.34,27.63-27.34,15.49,0,21,7.84,24,16.66l-16.27,5.1c-1.67-6.38-4.32-7.84-7.94-7.84-5.79,0-8,5.29-8,13.52,0,7.64,1.37,13.72,7.84,13.72,3.14,0,6.76-1.57,8.53-8.43l16.07,5.39c-3,7.84-9.7,16.47-24.89,16.47C713.7,174.34,699.1,168.65,699.1,147.09Z" transform="translate(3.49 -12.73)"/><path d="M753.88,147.09c0-21.07,17-27.34,27.64-27.34,10.38,0,25.28,3.72,25.28,29.89v2.94H773.19c1,6.86,4.8,8.53,10.48,8.53,5.49,0,11.66-2.75,15.1-4.81l7,11.77c-6.66,4.31-14.8,6.27-23.52,6.27C767.79,174.34,753.88,168.36,753.88,147.09Zm35.77-5.58c-.78-6.28-3.63-8.24-8.23-8.24-3.82,0-6.86,2.26-8,8.24Z" transform="translate(3.49 -12.73)"/><path d="M814,185.71l4.9-12.45h-7.74V155.62H831.4v15L823,185.71Z" transform="translate(3.49 -12.73)"/></g><g id="evidence"><g style="clip-path:url(#clip-path)"><path id="animate" d="M117,363.72,35.91,441.61l-13.4,51.06s33.43,6.35,58.18-15c17-14.66,29.09-38.53,44.78-57.83,27-33.25,53.55-60.53,54.07-58.57C180.8,366,140,466.6,140,466.6l94.68-116-32.84,99.86L314,325.51,265.46,444.14,371.29,234.65l-31,90.61L305.1,442.14,486.33,281.4,422,410.37,495.94,350l-14.51,56,93.91-144.12L528,388,661.08,188.5,584.25,401S458.44,244.92,461.47,242.84s283.31-45.13,283.31-45.13l-52.65,166.4L782.59,243.3l.85,97.31,62-141.61-6.83,126,29.69-114.28,81.92-85-72.57,202L779,174.35,999.09,146.5,986.65,108,926.57,311.06l90.51-124.69L991.82,303.48l-692-6.7L279.19,487.54,239.1,604.12l101.4-96.61-1.8,91.07,93.76-140.76L408.87,588.56l66-168L546,441.43,474.61,583.84,631.08,350.35,535.36,571.67,674.63,414.42,601.57,530.15l43.6-7.56,94.7-128-57.5,138.13L760,422.17l33.7-19.79L759.52,521.49,868.73,375.68,818.48,501.33,943.56,366.8,884.82,480.94l83.07-99.83L919.07,486l47.2-52.71" transform="translate(3.49 -12.73)" style="fill:none;stroke:#000;stroke-linecap:round;stroke-linejoin:round;stroke-width:52px"/></g></g></g></g></svg>