<svg xmlns="http://www.w3.org/2000/svg" xmlns:xlink="http://www.w3.org/1999/xlink" viewBox="0 0 1046.57 548.17"><defs><clipPath id="clip-path" transform="translate(3.49 16.24)"><path id="evidence_mask" d="M611.08,289.62c2.22-1.13,3.88-2.5,3.62-5.45-.07-.81,1.19-1.76,1.89-2.61.37-.47.83-.86,1.65-1.69,1.71-.14,2.78-2.26,1.78-4.63a2,2,0,0,1,.18-1.83c1.66-1.49,3.31-2.88,3.36-5.4,0-.33.94-.65,1.34-.91l-1.24-2.89c2.86-.42,4.33-4.09,2.86-7.31,3.3.14,3.18-3,4.56-4.74a16.57,16.57,0,0,0,1.79-3.78c1,.89,1.93,2.07,3.12,2.53.54.2,1.63-1,2.48-1.59l-.3-.59h-1.58c-.55-3.57-1.08-7-1.66-10.78,3.2-.22,2.88,3,5.09,3.84-2.79,1.2-2.42,2.4-1.36,4.49.77,1.54,1.63,4-.45,5.81a1.36,1.36,0,0,0-.21,1c2.27,1.05.62,2.36.32,3.63-1.16,5-2.22,10-3.41,14.95a23.55,23.55,0,0,1-1.62,3.66c1.15,1.6-.73,3.15-1.38,5-.32.89-.24,1.93-.6,2.79-.69,1.62-1.57,3.16-2.49,4.95a5.57,5.57,0,0,1,0,2c-1.3,3.95-3.06,7.8-3.91,11.84a18.18,18.18,0,0,1-1.74,5.6c-.86,1.48-1.85,2.88-2.78,4.32a2.63,2.63,0,0,0-.51.9c-.16.89.11,2.1-.38,2.65-2.58,2.9-2.18,7-4.33,10.08a13.2,13.2,0,0,0-1.4,3.29c-1.32,3.89-2.42,7.86-3.94,11.67s-3.62,7.7-5.34,11.59c-3.12,7-6.11,14.15-9.28,21.18a52.35,52.35,0,0,1-3.28,5.44,4.36,4.36,0,0,0-.59,1.13,47.54,47.54,0,0,1-1.15,4.78c-2.2,6-4.51,11.92-6.8,17.87-1.48,3.84-3.69,7.57-4.3,11.54-.49,3.22-2,5.85-2.88,8.78-2.33,7.43-4.63,14.87-7.2,22.22-1.52,4.36-3.65,8.5-5.31,12.82-.87,2.28-1.32,4.73-2,7.1-.58,2.06-1.17,4.13-1.76,6.19-.06.21-.1.5-.25.62-3.07,2.51-2.87,6.54-4.52,9.67s-3.1,6.2-6.26,8.44L548.3,488h-5.78c0-.45.08-1.09.13-1.8-.18-.08-.44-.3-.55-.24a8.19,8.19,0,0,0-2.46,1.5c-.8,1-1.11,2.33-1.92,3.28a19.17,19.17,0,0,1-3,2.45c-.16-1.11-.31-2.22-.48-3.32-.12-.75-.29-1.5-.42-2.25a8.13,8.13,0,0,1-.35-2.41c.55-3.91,1.16-7.82,1.86-11.71.53-3,1.17-5.87,1.86-8.79.56-2.3,1.25-4.58,1.92-6.86.75-2.53,1.55-5,2.31-7.57.19-.64.15-1.43.52-1.92,2.15-2.81,1.63-6.23,2.31-9.37.21-.94.5-1.86.72-2.8.59-2.59,1.15-5.18,1.73-7.77,0-.08,0-.18,0-.23,2.32-2.64,1.18-6.29,2.74-9.22,1-1.93,2.14-3.89,1.78-6.48-.24-1.74,1.05-3.65,1.5-5.53.36-1.49.49-3.05.72-4.57l-.69-.33-1,2.33c-.29.67-.54,1.36-.87,2-.44.88-.94,1.72-1.26,2.28a12.65,12.65,0,0,0-2.59,1.73,14.47,14.47,0,0,0-1.83,3.09c-.29.59-.71,1.49-.47,1.89,1.6,2.65,0,4.58-1.35,6.54-.57.81-.45,2.7-2,1.87-.48,1.22-.94,2.32-1.37,3.43-.62,1.57-1.2,3.16-1.84,4.72a5,5,0,0,1-1,2c-2,1.58-2.91,3.65-4,5.86-1.29,2.61-3.67,4.67-5.52,7-.63.78-1.1,1.68-1.82,2.79l1.92.33a2.79,2.79,0,0,1-.31.81c-5.34,6.25-10.15,13.05-17.15,17.62a83,83,0,0,1-11.6,6.25,11,11,0,0,1-8.11.29c-2.6-.86-5.63-.52-8.14-1.53a28.54,28.54,0,0,1-9-5.29c-1.8-1.71-2.48-4.7-3.43-7.2-2.38-6.28-2.29-12.86-1-19.23a193.6,193.6,0,0,1,5.63-20.25c3.72-11.87,9.6-22.77,16.19-33.19A160.22,160.22,0,0,1,505,369.62c5-5.84,10.57-11.22,15.93-16.75a3.72,3.72,0,0,1,2.37-.95c-.83.89-1.65,1.78-2.48,2.66l.53.63c2-1.17,3.91-2.45,6-3.48,2.78-1.39,5.67-2.57,8.5-3.86,3.4-1.54,6.78-3.11,10.18-4.63,5.73-2.56,12.59-.83,15.64,4.55,2.25,4,4.31,8.21,4.62,13a23.37,23.37,0,0,0,1.11,4,12.47,12.47,0,0,0,.71-1.43,43.38,43.38,0,0,1,4.59-10.55c.64-1.05.7-2.43,1.16-3.6,1.46-3.82,3-7.61,4.48-11.42,1.68-4.32,3.47-8.61,4.91-13,.55-1.66-.51-3.7.89-5.32a23.41,23.41,0,0,0,3-3.74,54.18,54.18,0,0,0,2.39-5.65c-1.6.34-2.34.13-2.13-1.71a3.05,3.05,0,0,0-1.56-2.46c-1.58-.65-1.7-1.83-1.57-3,.44-4.24.89-8.49,1.56-12.7.76-4.66,1.66-9.3,2.72-13.89.42-1.86,1.65-3.52,2.15-5.36,1.71-6.24,3.27-12.53,4.85-18.81a10.43,10.43,0,0,0,0-1.94,10.91,10.91,0,0,1,.31-2.64c.88-2.57,2-5.07,2.79-7.67,1.09-3.69,1.87-7.47,2.9-11.18.27-1,1.1-1.8,1.41-2.78,1.17-3.69,2.17-7.43,3.36-11.11a33.8,33.8,0,0,1,1.88-4.06l.55.21-.33,2,.34.16a57.21,57.21,0,0,1,3-5.63c1.22-1.79,2.49-3.46,2.68-5.64l-.58-.42L612.45,203c0-.22-.09-.49-.24-1.23l-3,6.6c2.58-12.72,7.82-24.45,12.43-36.42l.59.2c-1.1,3.65-2.2,7.29-3.27,10.94a3.13,3.13,0,0,0,.55.3c1.29-3.33,1.94-6.94,4.57-9.5.5-1.16,1-2.35,1.67-3.82-1.28-3.36,1.4-6.15,2.63-9.34.09.67.19,1.34.29,2l.67.25,1.55-3.37c2.38-1,5-2.81,5.22-6.91-.94,1.23-1.73,2.24-3,3.84-.25-1.31-.61-2-.43-2.5.69-1.94,1.58-3.81,2.34-5.72.82-2.06,1.5-4.18,2.38-6.21s1.88-3.82,2.83-5.72l.67.09c-.08,1.28-.17,2.56-.26,4l4.79-3.07.82,3.09-1.25.44,1.18,1.61-2,1.4c.19,1,.37,2,.67,3.57l-3-1.8c.17-.86.34-1.76.51-2.65l-.41-.12a20.28,20.28,0,0,1-1.21,2.53c-.33.51-.93,1.24-1.38,1.23-2.36-.08-2.31,1.57-2.68,3.42l2.38-1.29L637.54,154c4.29,1.5,3.76-2.61,5.78-3.88l-6.48,17.07-.46-.51c-.78.37-2.1.61-2.25,1.16a7.9,7.9,0,0,0,.36,3.18c.08.48.52,1,.39,1.39-1.27,3.82-2.52,7.65-4,11.4-1.34,3.47-2.92,6.85-4.29,10a7.2,7.2,0,0,0-1.89-.18,12,12,0,0,0-.65,2.72,9.78,9.78,0,0,0,1.17.3c-.55,2.91-1.1,5.89-1.71,8.86a5.46,5.46,0,0,1-.88,2.53c-2.14,2.3-1.72,5.36-2.62,8-.71,2.1-1.65,4.12-2.39,6.21-.93,2.64-1.84,5.3-2.61,8-1.36,4.79-2.63,9.6-3.92,14.41-.8,3-1.46,6-2.33,9-.58,2-1.46,3.87-2.11,5.82a9.56,9.56,0,0,0-.17,2,17.75,17.75,0,0,1-.32,2.43c-1.53,5.93-3.09,11.86-4.63,17.79l.56.24c.56-1,1.14-2.07,1.7-3.11q3-5.71,6.06-11.44c.15-.29,0-.7.16-1a18.62,18.62,0,0,1,1.57-3.94c.48-.72,1.64-1,2.5-1.46,0,1,.12,1.91.09,2.87,0,.33-.47.65-.47,1-.06,4.62-3.33,8.05-4.5,12.18-1,3.48-3.59,6.26-3.55,10.27,0,2-2.28,4-3.43,5.87-.74-.22-1.36-.59-1.62-.42s-.67,1-.51,1.31c1.21,2.08,0,3.82-.67,5.63-1.45,4.07-2.94,8.13-4.38,12.21a6.35,6.35,0,0,0-.19,1.39c3.35-1.45,2.76-5,4.08-8.27l1.29,3.3c2.14-3.54,4.34-6.79,5.38-10.61a17.39,17.39,0,0,0,.31-3.63c0-.21-.21-.59-.17-.62,2.77-1.59.09-4.62,1.76-6.49a3.7,3.7,0,0,0,4.22-2.64,18.39,18.39,0,0,1,2.14-4.59c0,3.59-3.46,6.18-2.77,10-1.4,1.83-2.62,3.73-2.6,5.81,2.06-.54,3.9-1,5.69-1.53.46-.15,1.11-.7,1.13-1.1a8.83,8.83,0,0,0-.49-2.32,13.25,13.25,0,0,0-1.56.42C612,291.48,610.91,291.57,611.08,289.62ZM570,375.11c-1.48,2.19-3.83,4.05-2.88,7.72.94-.55,2.16-.86,2.26-1.38.38-2.09.42-4.25.59-6.39l2.81.62.4-.67-1.66-2.07Zm-51.64,71.73c.33.1.51.23.59.18.37-.23.72-.5,1.08-.77,4-2.95,6.61-7.05,9.38-11a24.73,24.73,0,0,1,3.32-4.13c2.85-2.63,4.63-5.9,6.31-9.29a32.66,32.66,0,0,1,2.31-3.78,62.78,62.78,0,0,0,4.12-6c2.06-4,4.27-7.91,4.42-12.57a3.3,3.3,0,0,1,.41-1l.61,1.38,4.3-2.9c-.11-.24-.41-.83-.77-1.55l2.06.12,5.35-17-.87-.35a19.23,19.23,0,0,1-1.76,2.86,2.51,2.51,0,0,1-1.89.94,13.21,13.21,0,0,1-3-1.53c0-3.29.08-6.74,0-10.18-.11-3.82-.28-7.65-.65-11.46-.26-2.61-1.89-4.3-3.37-3.57A115.85,115.85,0,0,0,540.1,361c-1.68,1.06-2.46,2.84-3.32,4.73-1.06,2.31-3.18,4.23-5.08,6.06a72.32,72.32,0,0,0-11.35,14.55c-1.38,2.27-2.65,4.61-3.94,6.93-2.81,5.08-6.82,9.36-9,14.95-1.71,4.44-3.39,9.14-6.84,12.77a1.53,1.53,0,0,0-.21.83,10.57,10.57,0,0,1-.2,2.47c-1.68,5-3.45,9.88-5.19,14.82a3.2,3.2,0,0,1-.4.58l-.87-1a18,18,0,0,0-1.06,3.05c-.6,4-1.14,7.94-1.58,11.93-.13,1.2-.28,2.78.35,3.59.79,1,1,1.27-.09,2.11s-1,1.93.5,2.2a11.22,11.22,0,0,0,3.7-.07,12.11,12.11,0,0,0,2.87-1c2.59-1.15,5.4-2,7.69-3.59,3.79-2.65,7.48-5.5,10.1-9.5a24,24,0,0,1,3.45-3.46l.48.46-.85,1.18Zm61.07-80.63c.59-2.16,0-3.73-2-5.21-.23-.17-.09-1.23.21-1.64.65-.9,1.7-1.54,2.26-2.48a71.63,71.63,0,0,0,3.61-6.89,3.45,3.45,0,0,0-.38-2.29c-.17-.42-.78-.65-1.19-1,2,.17,3.22-.3,3.47-2.5-3.71-.72-.18-3.54-1.56-5.1a6,6,0,0,0-1,1.2c-1.83,4.1-3.65,8.2-5.41,12.33-1.49,3.49-3.05,7-4.26,10.57-.42,1.26.09,2.83.18,4.26,1.08-.29,2.16-.61,3.25-.85C577.44,366.47,578.27,366.39,579.46,366.21Zm17.85-37.81.63.27-.53,3.43.86.23c1.11-2.74,2.21-5.48,3.12-7.73a14.38,14.38,0,0,1-3.81-.43c-2.48-1-1.63-3.62-2.25-5.64-.49.11-1.09.46-1.47.3-2-.87-2.69.54-3.32,1.93q-1.26,2.75-2.37,5.55c-.93,2.35-1.82,4.72-2.64,7.1a2.1,2.1,0,0,0,.21,1.44c.08.19.85.32.92.22a11.35,11.35,0,0,0,1.61-2.79,24,24,0,0,0,.49-4c2.09,2.17,3.07,1.35,4-.1,1.19-1.81-.44-2.27-1.4-3.12.23-1,.46-1.93.76-3.22,1,.93,1.61,2,2.25,2,1.47,0,1.21.61.89,1.48-.51,1.42-1,2.83-1.48,4.27-.56,1.77-1,3.57-1.65,5.77Zm21.88-140.3h-2.53c-1.21,3.37-2.59,7.25-4,11.14l.74.27c1.09-2.24,5.64-3,2.5-6.88C619.09,191.8,619.56,191.09,619.19,188.1ZM563.75,390.81c0,3.58-2.81,5.95-2.14,9.4a8.2,8.2,0,0,0,1.77-2.17c.24-.4.25-1.1.58-1.27C567.58,394.83,567.72,393.47,563.75,390.81Zm-3.59,10.7c-1,4.47-2,8.49-2.91,12.51l.73.24a15.86,15.86,0,0,0,1-3c.24-1.67.57-3.05,2.11-4.19C562.89,405.78,562.61,403.66,560.16,401.51ZM567,391.13c3-2.57.17-4.86,0-7.29-1,1.3-2,2.7-2,4.12C565,389,566.27,390,567,391.13Zm-3.22-16.08c2-2.92,2-4.46-.06-7.26a22.5,22.5,0,0,1-1.14,3.39C561.69,373,562.17,374.13,563.81,375.05Zm34.51-129.84,3.07,1.22c.15-2.11.3-4.14.45-6.21C597.89,240.12,600,243.81,598.32,245.21Zm3.75,67.88c1.48-3.54,2.87-6.87,4.27-10.2a13,13,0,0,0-3.36,4.54C602.35,309.09,600.26,310.5,602.07,313.09ZM578.4,375.68c2.18-.95,3.43-4.11,2.83-6.72-1.16,1.56-2.34,3.15-3.65,4.93C577.72,374.18,578,374.85,578.4,375.68Zm-21.84-24,4.15,5.7C561.54,354.49,559.51,351.43,556.56,351.66Zm-17.89,5.75.25.56c-1.22.76-2.49,1.46-3.65,2.3-.38.28-.51.91-.75,1.39.52,0,1.2.33,1.53.1,1.61-1.11,3.13-2.35,4.9-3.71Zm13,100.66.64.24c.34-.32,1-.62,1-1,.11-1.37,0-2.75,0-4.27l-1.9.19C551.48,455,551.55,456.51,551.63,458.07Zm44.25-203.92c-.36,1.94-.67,3.55-1,5.17l.49.12c1-1.3,2-2.59,3.08-4ZM536.57,488.78l.69.24c2.29-3.11,2.71-4.76,1.66-6.73C538.12,484.51,537.34,486.64,536.57,488.78Zm66.06-255.31-.6-.27c-.54,1.75-1.07,3.49-1.66,5.38,2.8-.16,3-.37,2.77-2.85l-1.12.73C602.25,235.32,602.44,234.39,602.63,233.47ZM515.79,462.25c-.23-.24-.46-.49-.68-.74l-5.29,4.89.66.71Zm12.93-89.38c-3.1,1.37-4.25,2.77-4.07,4.94Zm67.9-37.06-1.17-.59c-.52,1-1,2.08-1.54,3.12l.85.45ZM546.41,453.64l.66.8,2.43-1.62c-.38-.35-1-1.06-1.12-1A21,21,0,0,0,546.41,453.64Zm-17.24-99.56c-2.64.18-4.29,1.63-4,3.13ZM993.4,172.42a19.54,19.54,0,0,0,1.43-2.66q6.51-19,12.95-38c3.3-9.75,6.64-19.49,9.76-29.29a15.5,15.5,0,0,0,.32-6.12c-.28-2.59-2-3.7-4.6-3.09-7.79,1.85-14.87,5.07-20.43,11.09-5.71,6.17-11.76,12-17.08,18.53-3.53,4.3-6.11,9.38-9,14.19-2.62,4.37-5.58,8.64-7.45,13.33-2.43,6.08-6.91,11-9,17.22-1.78,5.4-3.92,10.67-5.9,16-1.32,3.57-2.22,7.38-4.08,10.64-2.17,3.83-3.18,8-5,11.93a10.89,10.89,0,0,1-8.84,6.69l.66-6.27-.35-.16-1.68,4.35-.78-.16c.18-1.52.29-3,.54-4.55.66-3.9,1.42-7.77,2-11.67.09-.6-.49-1.3-.75-1.95v.08a8.71,8.71,0,0,0,1.51-2.34c2.16-8.61,4.34-17.22,6.28-25.89,1-4.42,1.51-8.95,2.25-13.47-1.81.06-2.66-1.28-1.59-2.68,1.21-1.58,1.24-3.06.54-5.43l-2.32,2.69c1.49-7.78,2.94-15.32,4.38-22.86l.68.06c.07.25.25.52.21.74-.31,1.52-.61,3-1,4.52s-1.22,2.77-1.27,4.18a19.74,19.74,0,0,0,.9,4.58l.93.15a9.94,9.94,0,0,0,1.75-2.66c1.36-5.28,2.56-10.59,3.79-15.9a10.48,10.48,0,0,0,0-1.71l-1.07,1.83-.17-.08c1.09-2.25,2.36-4.42,3.22-6.75a35.79,35.79,0,0,0,1.17-5.61L950,95.45c.52-1.12,1.13-2.2,1.56-3.36,1.37-3.75,2.68-7.52,4.15-11.69l-2.57,2.7c-.61-.92-1.21-1.84-2-3L949,85.42l2.24.32.13.77-3.47.95c3,1.55,3.24,2.09,2.56,5-.23,1-.33,2-.48,3l-1.81,1.83c.26-1.1.52-2.19.82-3.43-2-1.57-1.95-1.56-3,.94a24.21,24.21,0,0,0-1.21,2.38,11.29,11.29,0,0,0-.23,2.5l3.66-2.43c-.19,1-.36,1.91-.56,2.86-.41,1.93-.83,3.87-1.24,5.81-.3.2-.6.4-1.14.78.27-1.06.49-1.88.65-2.5-1,.52-2,1-3,1.63a2,2,0,0,0-.81,1c-.52,2.07-.89,4.18-1.46,6.24a63.42,63.42,0,0,1-2.49,7.3,246.41,246.41,0,0,1,14.55-47.61c-5.07.67-9.47,1.25-13.87,1.86-.43.06-1.08.21-1.21.5-1.48,3.24-4.91,5.58-4.38,9.78.11.89-.7,1.87-1,2.83-2.48,7.27-5,14.52-7.39,21.83-1.49,4.6-2.69,9.29-4.11,13.92-.5,1.64-1.3,3.18-1.87,4.8-.85,2.39-1.66,4.79-2.41,7.21-1.26,4.11-2.5,8.22-3.68,12.36-.37,1.33-.48,2.72-.72,4.09s-.36,2.68-.72,4c-.91,3.27-2,6.5-2.88,9.77s-1.73,6.31-2.48,9.5c-1.1,4.66-2.07,9.34-3.16,14-.31,1.36-1,2.64-1.22,4-.39,2.1-.48,4.25-.85,6.36-.85,4.77-1.74,9.54-2.7,14.3a61.9,61.9,0,0,1-2.06,8.47c-1.53,4.27-3.42,8.4-5.17,12.59a1.78,1.78,0,0,1-.25.38c-1.85,2.56-2.49,2.67-4.9.72l-1.25,1.73c-2.76-2.66.69-5.25-.27-7.94L882.85,233h-.33a16,16,0,0,0,0-2.5c-.12-.75-.27-1.85-.78-2.14-2.11-1.18-2.29-3-2.07-5a9.85,9.85,0,0,0-.12-1.79l0,0c.64-2.78,1.39-5.54,1.89-8.34,3.51-19.53,7.47-39,13.21-58,2.77-9.16,5.58-18.31,8.5-27.43,1.4-4.39,3.13-8.68,4.66-13,1.67-4.78,3.28-9.58,5-14.37.28-.83.7-1.61,1.32-3l1.43,2.66c4.36-1.93,3.26-6.15,3.78-10l-2.74,2.18C917,88.21,919,85,919.08,81.18c.16.11.6.71,1.06.72a10,10,0,0,0,3.63-.49c.27-.11-.07-1.76-.15-3.12-3.49,2.59-1.31-2.94-3.71-1.85.31-2.7,2.1-3,4.26-3s3.28-1.44,3.65-4.34c-2.93-.61-2.48,4.56-5.87,3.4a8.4,8.4,0,0,0,1-1.09c.37-.58.65-1.21,1-1.82a9.24,9.24,0,0,0-2.7-.8c-3.94.07-7.72,2.43-11.85.68-.66-.27-1.79.79-2.75.93-1.91.29-3.85.33-5.78.52-5.07.49-10.14,1-15.21,1.49-2.77.24-5.56.14-8.32.45-6.07.69-12.12,1.55-18.18,2.33a9.19,9.19,0,0,1-2.68.27c-4.55-.81-8.86.51-13.28,1.17-9.32,1.38-18.68,2.49-28,3.72-4.52.6-9,1.21-13.56,1.79-.73.1-1.46.08-2.19.12l-.33-.64c.54-.35,1-.9,1.61-1,3.26-.57,6.54-1,9.81-1.53,8.4-1.34,16.79-2.73,25.21-4,4-.62,8.12-1.09,12.18-1.59,2.12-.26,4.24-.43,6.8-.69-1.83-2.1-3.27-.91-4.72-.72-3.37.45-6.77.65-10.15,1.09-3.61.46-7.19,1.11-10.8,1.61q-12.19,1.69-24.42,3.3a9.84,9.84,0,0,1-2.12-.19c.11-.85.19-1.53.32-2.61-.58.4-.86.63-1.18.8-1.24.63-1.87,3.65-4,1-2.33,1.12-5.25-.72-7.4,1.47a1.78,1.78,0,0,1-1.42.46,17.6,17.6,0,0,1-2.6-1.15c.79-.55,1.5-1.43,2.36-1.6,2-.41,2-.27,1.84-1.9L779,76.16l.06.83,4.44-.29.19.52c-.79.27-1.61.84-2.36.76-1.43-.16-2.81-.85-4.24-1s-2.88-1.19-4.5.1c-.52.43-2.28-.07-3-.69-.5-.44-.19-1.81-.25-2.92l4,.65c.92-3.35,4-3.46,6.36-3.95s5.14.07,7.72.12a2.51,2.51,0,0,0,1.51-.34c3.23-2.61,7.32-1.66,10.94-2.66.48-.13,1.25.78,1.62,1,1.85-.69,3.74-1.47,5.67-2.11,3.77-1.26,7.69-.5,11.54-.71a11.57,11.57,0,0,1,2.92.65c1.45-3.81,4.56-3.67,8.05-3.7,4.2,0,8.73,1.32,12.53-1.85.39-.32,1.16-.16,1.76-.24,3.14-.4,6.29-.82,9.44-1.19a4.14,4.14,0,0,1,1.28.19,4.23,4.23,0,0,0,3.21-.11c1.22-.62,2.72-2,4.42-.75,2.32-2.16,5.17.07,7.75-1a37.92,37.92,0,0,1,7.8-1.87,44.45,44.45,0,0,1,4.48-.11c4.46-.3,8.91-.77,13.37-1,3.71-.18,7.34-1.47,11.18-.32,1.39.42,3.16-.52,4.77-.7,4.39-.48,8.79-.85,13.17-1.36,1.11-.13,2.16-.79,3.28-.95a53,53,0,0,1,7-.68c1.67,0,2.16-.66,2.74-2.17,1.74-4.51,3.85-8.88,5.81-13.31l.56.24-1.89,7.83c-1.92,1.09-2.82,3.12-2.12,5.74.69-1.93,1.39-3.85,2.08-5.77,1.15-1.78,2.33-3.54,3.42-5.36a2.24,2.24,0,0,0,.25-1.5c-.25-1.21.07-1.69,1.34-2,.7-.2,1.33-1.29,1.65-2.11a45.39,45.39,0,0,0,1.27-4.54c1.94,1.21,2.31,6.09,1.17,7.18,0,1.73.26,3,0,4-.62,2.08-1.19,4.17-3.68,5.17-.92.37-1.3,2.07-1.89,3.1,1,1.83,2.5,1.78,4,1.56,3.93-.56,7.88-1.06,11.77-1.81a6.39,6.39,0,0,0,2.67-1.89,11.55,11.55,0,0,0,1.4-2.13c.47,1.53,1.91,1.84,3.07.56a5.71,5.71,0,0,0,1.61-3.12A22.22,22.22,0,0,1,973,31.52c1.25-2.55,2-5.32,3.19-7.92a41.41,41.41,0,0,1,2.71-4.37,20.86,20.86,0,0,1-3.86,13.06c-.18.23-.49.54-.45.75.77,3.66-1.64,6.52-2.38,9.8,0,.13.07.28.23.87.59-.61,1.2-1,1.41-1.51q4.21-10.38,8.31-20.8c1.52-3.87,2.86-7.81,4.47-11.64.9-2.13,2.23-4.08,3.26-6.16A38.09,38.09,0,0,0,991.28,0l.64.12V3.91A18.47,18.47,0,0,0,992,7.48c.08.46,1,.76,1.9,1.37v5.58l.62.21,1.8-6.39.77.11c-.16,1.62.07,3.4-.55,4.82-1,2.25-1.21,5.12-4.16,6.21a2.39,2.39,0,0,0-.79,2.21c1.18,2.25.39,4.22-.78,5.94-1.74,2.55-.75,5.29-1.37,7.88l.88.59,1.05-3.12,1.37,1c-.82,2.09-1.7,4.17-2.45,6.29a7,7,0,0,0-.47,2.9c0,.26,1.47.34,2.26.53,1.9.47,3.8,1,6.25,1.58l-2.95,3.54,3.73-.48c-1,4.6-5.28,4.38-7.61,6.74l1.4-.09s0,.14-.12.18c-4,2.63-7,6.25-9.78,9.95a5.6,5.6,0,0,0-.09,6c-1.63,2.32-3.34,4.53-4.76,6.91-.39.63.32,1.83.13,2.68-.72,3.3-1.48,6.61-2.48,9.84a24.5,24.5,0,0,1-2.29,4.23c-.18.32-.48.64-.49,1-.33,5.75-3.54,10.57-5.16,15.91-1,3.15-2.05,6.26-2.88,9.55l5.88-8.5,1.93-3a11.39,11.39,0,0,0,2.55-1.54c4.84-5,9.3-10.45,14.48-15.08,5.34-4.77,11.42-8.62,18.72-10,6.39-1.21,14.61,3.14,17.58,9.17,2.62,5.35,1.73,10.69.06,15.92-2.64,8.26-5.69,16.39-8.42,24.63-2.81,8.45-5.54,16.92-8.12,25.44-4.34,14.32-8.51,28.68-12.79,43a5.9,5.9,0,0,1-5,4.12c-.94.12-3-1.72-3.11-2.86a72.77,72.77,0,0,1-.53-13l.36,4.08.58,0a55.53,55.53,0,0,0,1.14-5.54c.06-.48-.78-1.06-1.21-1.59l-.66.44c.09-.78.18-1.55.29-2.57l1.46,1.33,1-2.37.27-1.85c.39-1.42.77-2.84,1.16-4.25ZM955.9,66.11l-.51-.63a43.65,43.65,0,0,1-5,.93c-2.78.19-5.59.08-8.38.22-1.88.09-2.63,1.12-2.11,3a2.7,2.7,0,0,0,.77.15c4.55-.72,9.12-1.42,13.66-2.25C954.91,67.41,955.38,66.6,955.9,66.11Zm-47.45,52.46c2.8-1.79,4.22-4,2.63-7.8Zm.15-53.33c-.07.85-.14,1.55-.23,2.51h4.07C912.05,66,912.05,66,908.6,65.24Zm43.66,11.65,1,.46c.26-.79.3-1.79.82-2.31s1.64-.77,2.83-1.28a13.21,13.21,0,0,0-2.61-1A35.09,35.09,0,0,0,952.26,76.89Zm58.67,11.29h6.15C1014.43,86.47,1012.36,86.49,1010.93,88.18ZM907.91,68a11.63,11.63,0,0,0-1.36-2,18.33,18.33,0,0,0-2.63,1.45c.06.18.13.37.19.56Zm80.5-44.8c.56-1.79,1-3.28,1.51-4.77l-.72-.2C988.41,19.63,986.16,20.54,988.41,23.22Zm-643,192.83c1.4,1.46.41,3,.08,4.45-.18.86-.41,1.7-.63,2.55l.78.28c1.8-4.49,3.61-9,5.51-13.71l-3-.13c1.79-5.06,3.46-9.92,5.24-14.74s3.56-9.52,5.46-14.23c1.46-3.62,3.11-7.16,4.62-10.76.66-1.57,1-3.29,1.8-4.78a21.18,21.18,0,0,1,2.65-3.3l.73.43q-2.32,6-4.67,11.92l.77.34c1.17-2.59,2.35-5.17,3.52-7.75l.66.12v2l-1.53,5.38c-.84,1.35-1.71,2.69-2.49,4.08a1.29,1.29,0,0,0,.07,1.19c1.94,1.45,1.26,3.15.6,4.87a29.4,29.4,0,0,1-1.36,3.33c-.33.61-1,1.42-1.52,1.49-3.34.4-3.34,3.26-4.23,5.47a12.19,12.19,0,0,1-.69,1.9c-1.09,1.7-2.12,3.26.64,4.45.31.14.42,1.25.26,1.82-.3,1.07-.91,2.06-1.3,3.11-.44,1.21-1,1.71-2.34,1a2.11,2.11,0,0,0-2,.56,46.56,46.56,0,0,0-1.88,5.48c-.05.17.26.45.6,1,.44-1.82,1.07-3,3.12-1.92-.53,1.32-1.08,2.66-1.66,4.1-2.29-2.16-3.63-1.43-4.54,2.1-.78,3-1.53,6.08-2.39,9.09a18.82,18.82,0,0,1-1.13,2.18c-.32.73-.53,1.51-.79,2.27l.87.35a23.26,23.26,0,0,1,1.2-2.81,2.56,2.56,0,0,1,1.87-1.2c-2.8,6-2.53,13.06-7.67,18-1.93,0-3.3,2.17-2.58,4.8l1.8-1.41c-.08,1.79.12,3.1-.24,4.23-1.48,4.72-3.17,9.37-4.71,14.08-1.63,5-3.2,9.95-4.76,14.94-1.18,3.78-2.3,7.58-3.45,11.37l.79.26,1.91-4.59.37.13c-2.86,10.27-5.71,20.55-8.71,31.33v-3.15l-.47-.08c-.49,1.93-1,3.87-1.56,6.19l1.86-1c-.74,2.78-1.39,5.18-2,7.6-.42,1.63-.81,3.28-1.21,4.93-.28,1.16-.47,2.35-.82,3.49-1.29,4.32-2.33,8.76-4,12.92-1.81,4.43-3.54,9.15-8.35,11.49-.56.27-1.16.46-1.86.73.27-5.78.27-5.78-.67-6.58a15.54,15.54,0,0,1-.84,1.78c-.25.4-.72,1.05-1,1-2.36-.48-2.46.94-2.06,2.86l-.65,0-4.11-4.94c-2.6-5.39-2.05-11.42-1.87-17.36.11-3.71.95-7.4,1.4-11.11a7,7,0,0,0-.35-1.92,12.94,12.94,0,0,1-1.32,1.15c-1.61,1.1-2.05,3.63-4.63,3.61-.68,0-2,.44-.87,1.78.15.18-.43.94-.67,1.43-2.14-1.33-2.66.68-3.53,1.79-1.5,1.94-2.92,3.95-4.67,6.34-.57-2.74-1.82-1.57-2.62-1-1.82,1.29-3.34,3.07-5.27,4.13-3.62,2-7.14,4.54-11.67,3.85a7,7,0,0,1-1.89-.57c-1.77-.84-3.16-.39-4.61,1.41l2.83.72c-2.24.85-4,1.55-5.92.38-.5-.3-1.07-.8-1.56-.75-3,.32-4.93-1.78-6.78-3.46-2.57-2.34-4.47-5.25-4.43-9,0-5.16-.42-10.36.07-15.47a78.78,78.78,0,0,1,5.63-22.83c1.15-2.78,3.38-5.24,4-8.08.81-3.85,2.66-7.09,4.41-10.42,2.23-4.26,4.44-8.56,7.07-12.57a223.62,223.62,0,0,1,25.2-32.36,52.3,52.3,0,0,1,21.18-13.68c1.42-.47,3.11-.11,4.67-.2a24.76,24.76,0,0,0,5.19-.47c2.54-.7,4.57-.28,6.24,1.55l-4.3-.45c1.73,1.63,4.17,2.25,4.57,4.91-2.35.46-1.86-4.55-4.74-2.53a13.26,13.26,0,0,1,2,3.28c.28,1.08,1.16,2.46-.4,3.59-.33.24-.21,1.88.23,2.28,2.52,2.26,1.3,5.13,1.52,7.76a8,8,0,0,0,0,1.56c1.38-3,2.88-5.95,4.12-9,2.81-7,5.51-14,8.23-21,1.86-4.79,3.58-9.64,5.54-14.39,2.68-6.5,5.6-12.9,8.27-19.41,1.81-4.39,3.29-8.9,5.05-13.31.85-2.12,2-4.11,3-6.18.23-.46.2-1.07.48-1.48.56-.86-.13-2.61,1.82-2.54.2,0,.64-.87.6-1.3a6.42,6.42,0,0,1,2.85-6,2.28,2.28,0,0,0,1-2.61,7.56,7.56,0,0,1,.83-4.11c2.24-4.88,4.64-9.69,7-14.54,1.72.93,2.86,1.76,3.09-.74.08-.93,1.21-1.76,1.93-2.73,2.61,3.24,2.49,7.56.13,10.11-1.4,1.5-1.28,2.14,1.15,3.51-4.87.07-4.51,3.88-5.57,6.58-.52,1.34-1,2-2.41.86-.61,1.34-1.45,2.51.7,3.13-.49,1.4-.76,2.67-2.71,3-.86.16-1.64,1.65-2.13,2.68a40.13,40.13,0,0,0-1.7,4.72,2.52,2.52,0,0,0,0,1.06c.19,1.26.42,2.52.67,4l1.72-.37c-.58,1.13-1,1.79-1.28,2.5-.9,2-1.76,4.1-2.62,6.16-.11.26,0,.73-.16.85-1.69,1.22-3.41,2.38-5.45,3.79a36.77,36.77,0,0,1,2.33,3.09,2.28,2.28,0,0,1,.12,1.72c-.49,1.32-1.16,2.57-1.76,3.85l-1.55-.67a4.51,4.51,0,0,1,.39,1.5c-.22,1.89-.55,3.76-.84,5.64l-.67-.35c-.8.15-2.23.14-2.31.46a15.71,15.71,0,0,0-.11,3.64c-.29.09-1.49.12-1.72.61-.58,1.22-1.51,2.52-.29,4s.11,3.88-2.06,4.2c-.36.06-.67.48-1.27.94,1.79.51,2.47,1.55,1.58,2.95-.23.36-1.35.15-2.61.24l1.14,2c-3.68.19-2.41,4.43-4.52,6.2-.17.16,0,.87.16,1.26a6.87,6.87,0,0,1-.87,7,4.69,4.69,0,0,1-1.12,1,21.44,21.44,0,0,0-3.05,2.61c2.68.63,1.94,3,1.4,3.37-2,1.57-1.27,3.86-2,5.72a125.45,125.45,0,0,0-4.65,14c-1.05,4.32-3.53,8.15-3.72,12.83-.11,2.65-2,5.2-2.91,7.86-1.51,4.38-3,8.78-4.22,13.23-.31,1.11.16,2.51.46,3.72s-1.61,5.93-2.88,7a2.32,2.32,0,0,0-.49,2c.92,3.2-.46,5.67-2,7.85a38.22,38.22,0,0,1,0,4.44c-.15,1.26-.87,2.46-.9,3.7,0,1.5-1.56,1.64-2.14,2.8a26.12,26.12,0,0,0-2,6.48c-.53,2.49-1.06,5-1.75,7.42-.47,1.66.38,1.68,1.55,1.49l-1.69,9,.59.16c.35-1.07.79-2.13,1-3.22,2.12-9.19,4.05-18.42,6.35-27.56,2.1-8.33,4.45-16.6,7-24.82q4.73-15.48,9.94-30.81c2-6,4.56-11.78,6.74-17.71,1.54-4.21,2.73-8.54,4.32-12.72.7-1.83,2-3.42,3-5.15a2.75,2.75,0,0,0,.54-1.69,3.94,3.94,0,0,1,1.43-4.18Zm-87.68,120c1.89-2.61,3.61-5,5.37-7.39,3.12-4.21,6.37-8.32,9.39-12.6,5.35-7.58,10.57-15.27,15.86-22.9,1-1.47,2.26-2.8,3.14-4.34,2.59-4.52,5.74-8.39,11-10.2l.93,1.79c3-4.11,5.72-8.1,6.86-12.95.3-1.26.37-2-.77-3.06-.94-.84-1.92-2.67-1.61-3.67.83-2.77-1.15-6.33,2.25-8.39.28-.18.31-.82.42-1.26q2-8.3,4-16.6c.57-2.33-.44-3.38-2.7-2.61a20.47,20.47,0,0,0-10.28,8c-1.67,2.39-2.77,5.27-5.88,6.36-.31.1-.51.67-.66,1.06a14.08,14.08,0,0,1-5.35,7.14,9,9,0,0,0-2,2.58c-.32.47-.48,1.05-.77,1.54-1.11,1.87-2.3,3.69-3.33,5.6-.75,1.37-1.21,2.89-1.94,4.27C278.78,274,275.58,279.35,273,285c-3.55,7.74-6.74,15.64-9.88,23.56-1.66,4.17-3,8.48-4.26,12.8-.81,2.79-1,5.75-1.78,8.56A7.28,7.28,0,0,0,257.73,336.09Zm7.73,9.85-6.88,4.25C261.68,350.62,264.11,349.11,265.46,345.94ZM284.82,236.6l.55.71,8.47-6.58-.59-.76ZM307.06,226l-.2-.69c-2.52.17-5.05.34-7,2.48Zm-58.2,118.81H251a12.8,12.8,0,0,0-.67-1.89,20,20,0,0,0-1.47-2.06ZM301,281l-.81-.77-3,3.66.57.49ZM123,313.61l3-3.34c.1.07.34.18.32.23-.78,3.08-1.53,6.16-2.39,9.21-.52,1.84-1.25,3.62-1.83,5.45-1.07,3.42-2.19,6.83-3.13,10.28-.65,2.37-.74,4.92-1.59,7.2-1.46,3.9-3.33,7.66-5,11.47l-.89-.33c.62-2.08,1.23-4.16,1.89-6.38-2.36.69-9.72,18.53-9.18,21.87.27-.23.59-.36.64-.56,1-4.24,4.52-7.56,4.59-12.19,0-.6.74-1.19,1.14-1.78l.88.48-6.34,17.72,2.48,1.49-.92,1.93c-1.56-1-2.35-.45-2.76,1.08a19.94,19.94,0,0,1-1,3.35c-.72,1.52-1,3,.48,4,.47.31,1.73-.58,3-.67-1.19,1.18-2.35,2.39-3.59,3.52a16.13,16.13,0,0,1-2.72,2.09,48.7,48.7,0,0,1-6.39,3.36c-1.32.53-2.81.46-3-1.77-.06-.73-1.27-1.34-1.83-2.1s-1.49-1.34-1.77-2.17c-.55-1.64-1.33-3.49-1-5.07,1.07-5.63,2.47-11.21,3.9-16.78,1.71-6.64,3.47-13.28,5.41-19.86,1.08-3.66,2.57-7.19,3.87-10.78.29-.8.52-1.62.77-2.43L99.4,332c-.53,1.16-1,2.35-1.62,3.47-1.15,2.16-2.47,4.24-3.54,6.44-.93,1.93-1.33,4.15-2.44,5.95Q86.76,356,81.33,364c-2.65,3.9-5.46,7.71-8.38,11.41C66.19,384,59.18,392.28,50.47,399A21.53,21.53,0,0,0,48,401.24c-4.56,4.78-10,5.8-16.24,4.13A28.68,28.68,0,0,0,27,405l-.72,3a8.36,8.36,0,0,1-2.85-.48c-2.64-1.47-5.15-3.19-7.74-4.76a10.76,10.76,0,0,0-2.49-1.13c-1.75-.51-3.53-.9-6.06-1.53l3.21,5.43-.63.19c-6-8.72-7.83-18.42-5.76-29l-1,0L.5,388.42l-.5-.09a64.88,64.88,0,0,1,1.24-7C2.79,376,4.35,370.55,6.3,365.3c2.92-7.89,6.07-15.7,9.36-23.44.7-1.67,2.38-2.92,3.78-4.55-1.43-3,1.36-5.19,2.86-7.7,2.75-4.59,5.67-9.09,8.62-13.56.76-1.16,1.72-2.65,2.87-3,2.55-.72,3.18-2.77,3.6-4.66.52-2.3,1.57-3.5,4-3.67-.56-2.45.53-3.6,2.65-4.7a8.48,8.48,0,0,0,3.83-4.13c.53-1.2,2.77-1.64,4.08-2.34a35.43,35.43,0,0,1,2.78-4.49,68.27,68.27,0,0,1,5.69-6c1.43-1.35,3.09-2.47,4.65-3.69,4.43-3.43,8.81-6.93,13.3-10.27a17,17,0,0,1,9.07-3.6,19.8,19.8,0,0,1,5.24.62c-4.43.35-8.89.46-12.34,3.9.89.82,1.4.6,2.57.3a83.72,83.72,0,0,1,13.4-2.05c4.42-.4,7.71,2.22,6.93,7.42-2.06-1.52-3.85-1.5-6.3-.33a48,48,0,0,0-16.13,12c-5,5.79-9.72,11.79-14.16,18-5.57,7.78-10.47,16-16.13,23.73-3.79,5.16-6.22,10.88-8.67,16.66-4,9.42-8.05,18.82-11.82,28.33-1.31,3.31-1.88,6.93-2.71,10.42a9,9,0,0,0,.11,2.28,15.85,15.85,0,0,0,2-1c2.66-1.86,5.42-3.62,7.87-5.72,1.26-1.07,1.79-2.94,2.92-4.2,1.75-2,3.7-3.71,5.62-5.49,1.33-1.24,2.89-2.25,4.11-3.58a68.6,68.6,0,0,0,5.33-6.55c1.61-2.28,2.81-4.86,4.48-7.1a29.27,29.27,0,0,1,4-3.77c2.34-7.52,7-13.36,12.76-18.37l-1.87-1,1.22-.53c.9-1.59,1.83-3.16,2.7-4.77,1.19-2.22,2.38-4.43,3.46-6.7a19.06,19.06,0,0,0,1.73-4.47,13.55,13.55,0,0,1,1.62-3.51c1.13-2.27,1.5-4.94,2.73-7.14,2.91-5.2,5.84-10.45,10.56-14.35.16-.12.42-.11.3-.08l-.83,9.8c2.38,0,2.23-2,2.87-3.33.83-1.69,1.46-3.49,2.36-5.72,3,3.48,4.81,6.7,4.69,10.79-.11,3.87.55,7.83-1.25,11.52-.13.28,0,.69.42,1.14,2.91-8.56,4.72-17.49,8.78-25.6l.79.24c-.87,3.25-1.58,6.56-2.65,9.75-2,6.08-4.32,12.07-6.39,18.14-1.56,4.58-2.56,9.32-4.76,13.74-1.32,2.65-1.59,5.81-2.37,8.73-.17.62-.7,1.17-.81,1.79a27.7,27.7,0,0,0-.22,3c-2.21,3.92-3,8.28-4,12.58A8.93,8.93,0,0,0,97.15,352c.86-3.15,1.65-6.32,2.47-9.48.64-1.31,1.3-2.62,1.92-3.94a63.56,63.56,0,0,0,3-6.69c.85-2.55,1.07-5.32,1.93-7.86,1.82-5.35,3.93-10.6,5.82-15.93,1.05-2.95,1.8-6,2.89-9,1-2.55,2.22-5,3.27-7.49.62-1.49,1.11-3.05,1.62-4.59.81-2.45,1.56-4.91,2.38-7.34s1.74-5,2.69-7.48c.2-.52.78-1.31,1.15-1.29a30.47,30.47,0,0,1,4,.72l1.15-2.45.74.11a40.89,40.89,0,0,1-.51,4.31,31.22,31.22,0,0,1-1.19,2.91,6.28,6.28,0,0,0-.08,1.69h2.22c-1.48,4.31-2.92,8.48-4.33,12.66a16,16,0,0,0-.47,2.16c-.41,2.41-.61,4.87-1.24,7.22-1.06,3.89-2.41,7.7-3.58,11.56a5.6,5.6,0,0,0,0,1.78,9.12,9.12,0,0,0-1.82,2.32c-.53,1.51-.67,3.16-1,4.73-.47,1.93-2,3.69-.76,6.25.53-.55,1.06-.87,1.22-1.33,1-2.91,2.08-5.82,2.86-8.8C123.77,315.84,123.21,314.68,123,313.61ZM15.49,369.16c-1.05,3.9-2.26,7.76-3.07,11.7-.42,2-.34,4.29,1.41,5.91l.6-.18-1.3-4.31.37-.07L15.21,384c-.2-2.7,2-4.81-.67-6.68-.2-.14.06-1,.17-1.48.45-2,.93-4.08,1.4-6.12.69-1.13,1.14-2.57,2.12-3.32,2.42-1.83,2.58-2,1.07-4.57-.09-.14,0-.38,0-.88l1.6,1.17.76-.13c-1.5-2.14-.6-4.29-.66-6.52A45.52,45.52,0,0,0,15.49,369.16Zm79.09-8.65c-2.51,2-5.55,15.8-4.39,18.93C91.72,372.86,93.15,366.68,94.58,360.51Zm-72.07-10h3l2.95-9.73-.65-.3C26.07,343.78,24.35,347,22.51,350.54Zm92.63-13.68,1,.44c.64-1.68,1.27-3.35,1.9-5l-1.13-.42Zm0,5.31-1.13-.84a20.19,20.19,0,0,0-1.63,2.64c-.17.39.17,1,.28,1.53.43-.18,1.07-.24,1.26-.56A22.15,22.15,0,0,0,115.12,342.17ZM89.51,380.44H88.23V385l.92,0Zm-23.3-97.35.57.71,4.39-3.41-.72-.9ZM91,317.39l.59.29c.62-1.8,2.93-2.94,1.6-5.51Zm697.7-88.16a28.49,28.49,0,0,0-3,3.29c-1,1.48-1.5,3.32-2.57,4.74a8.28,8.28,0,0,0-1.65,7.55,6.21,6.21,0,0,1-.39,2.35l-2.34-.74c.41-1.5.8-2.9,1.19-4.3l-.66-.23a35.65,35.65,0,0,1-2.37,4,3.45,3.45,0,0,1-2.27,1.34c-.73,0-1.49-.82-2.21-1.32-.21-.14-.26-.56-.46-.62-4-1.34-4.22-4.5-4.2-8,0-1.19-.94-2.35-1.07-3.56-.39-3.64-.58-7.3-.89-10.94a3.93,3.93,0,0,0-.47-1.13l-.5.26c.35-4,.22-8.14,1.21-12s-.32-7.74.91-11.49l.46.4c.5-.53,1.44-1.07,1.43-1.59a15.94,15.94,0,0,0-.74-4.26,3.8,3.8,0,0,1,1-4.23,3.37,3.37,0,0,0,.91-2.44c-.07-.54-1.14-1-1.93-1.56.44-.82,1-1.95,1.67-3.07l-.58-.4L764.91,187c2.12-4.79,6.22-8.81,5.73-15.16-4,6-7.94,11.47-11.58,17.16-6.34,9.91-12.66,19.84-18.72,29.91-9,14.92-19.11,29-29.52,43a84,84,0,0,1-7.27,8,5.17,5.17,0,0,1-6.36.4c-1.76-1.35-4.46-1.66-5.06-4.27a47.51,47.51,0,0,1-.69-5.05c-.05-.41,0-.83,0-1.23-.11-1.91-1.46-3.9.44-5.69.19-.17.13-.75,0-1.09-1.59-4.87.18-9.48,1.15-14.14.68-3.23,1.54-6.42,2.38-9.61.31-1.18.41-2.43,2-2.92.62-.19.89-1.59,1.4-2.61l-2.46-.16c1.58-1.92.12-4.77,2.81-6,.17.14.39.43.51.39,1.48-.47,2.32-4.36,1-5.71l-1.54,5.38c-.1-2.83,0-5.62,1.57-8.21l1.44.61a5,5,0,0,0,.35-.68c.92-2.37,1.87-4.72,2.74-7.11a23.41,23.41,0,0,0,.81-3c.86-4,1.53-8,2.58-12,1-3.65,2.43-7.18,3.5-10.81s1.73-7.2,2.86-10.71c.95-2.95,2.39-5.74,3.47-8.65a18.26,18.26,0,0,0,.56-3.5,2.07,2.07,0,0,1,.18-.84c1.51-2.27,3.06-4.52,4.55-6.7.31,4.18-3.27,7.84-2.73,12.19l.91.23c.62-1.85,1.3-3.68,1.86-5.54,2.11-6.89,4.17-13.79,6.26-20.69a3.2,3.2,0,0,1,.42-1,14.6,14.6,0,0,0,2.72-6.45c.29-1.53,1.24-2.85,3.25-1.79a1.15,1.15,0,0,0,.66,0c3.15-.61,5.28,1.38,4.58,4.57-1,4.37-2.24,8.67-3.27,13a43.84,43.84,0,0,0-.62,4.72l.76.14c1.27-4.94,2.53-9.87,3.77-14.72,1.49,2.59,1.25,5.09-.43,6.13a18.37,18.37,0,0,1,0,4c-2.49,10.62-5,21.23-7.65,31.81-3.19,12.74-6.52,25.45-9.83,38.16-.8,3.07-1.78,6.1-2.68,9.15l.49.32c1.11-1.55,2.29-3.06,3.33-4.66q8.39-12.9,16.71-25.83c5.87-9.06,11.6-18.21,17.67-27.13a60.51,60.51,0,0,1,9-10.63,25.61,25.61,0,0,1,13.63-6.8c2.55-.35,5.27.46,7.91.76a.54.54,0,0,1,.38.21c1.38,2.4,4,4.33,3.49,7.51-1.8,10.74-3.76,21.46-5.57,32.21-.65,3.83-1.08,7.71-1.54,11.57a9.25,9.25,0,0,0,.22,3.16c16.95-34.66,34.68-68.8,58-99.71L842,106.62l.34.41a4.82,4.82,0,0,0,1.08-.78c1.62-2,2.94-4.4,4.89-6,1.1-.91,3.22-.71,4.89-.71.32,0,.64,1.41.77,2.25,1.68,1.36,1.85,2.18.4,4.37-3.29,5-6.79,9.88-9.94,15-6.49,10.49-12.84,21.06-19.18,31.63-1,1.71-1.64,3.65-2.62,5.39-2,3.61-4.33,7.07-6.23,10.74-4.47,8.7-8.77,17.48-13.13,26.23-1.82,3.66-3.69,7.3-5.43,11-.82,1.76-1.42,3.64.2,5.45l-1.19,2.11-.34-.53c-.63.31-1.57.45-1.85,1-1.36,2.45-2.59,5-3.79,7.52a47.7,47.7,0,0,0-2.14,5.12,8.2,8.2,0,0,0,0,2.53Zm-70.62-55.84,1.76-8.27-.89-.21c-.7,2.53-1.43,5.05-2.07,7.59C716.87,172.65,717.53,173,718.11,173.39Zm19.67-24.56-.66-.16c-.82,1.75-2.33,3.33-1.33,5.51l.72.17C736.93,152.51,737.36,150.67,737.78,148.83ZM717.7,174c-2.89,2-3.15,3.36-1.45,5.31C716.69,177.72,717.13,176.09,717.7,174Zm134.63-68.12-.89-.45-3,5.1.88.48Q850.84,108.46,852.33,105.89ZM709,205.51c.36-1.64.61-2.82.87-4l-.75-.11C708.29,202.53,707.3,203.64,709,205.51Zm54.29-45.65.61.52,4.61-5.81-.65-.5ZM416.84,321.34a60.81,60.81,0,0,1-7.4-1.26c-1.33-.4-2.38-1.72-3.63-2.51a7,7,0,0,0-1.94-.55,16.78,16.78,0,0,0,.4,2,3.53,3.53,0,0,1,.44,1.72c-.53-.36-1.31-.6-1.57-1.1-1.2-2.35-2.44-4.49-4.87-6-1.09-.67-1.31-2.7-2-4.07-.34-.67-.93-1.22-1.31-1.88-.5-.87-1.29-1.8-1.3-2.72,0-4.76.1-9.53.21-14.3a51.42,51.42,0,0,1,.32-6.69,93.51,93.51,0,0,1,2.2-11.15,104,104,0,0,1,3.89-11c1.76-4.36,3.68-8.67,5.67-12.95a4.61,4.61,0,0,1,2.09-2c2.53-1.23,2.4-3.5,2.6-5.73a4.14,4.14,0,0,1,.89-2.37c1.23-1.31,2.76-2.33,4-3.61,1.1-1.11,2.52-2.29.9-4.1a1.34,1.34,0,0,1,.05-1.11,8.35,8.35,0,0,1,1.89-.06c.78-1.13,1.47-3.24,2.86-3.91,3-1.44,3-4.31,4.42-6.56,1.94-3.18,4.53-6,6.71-9,2-2.84,3.78-5.88,5.88-8.65a24,24,0,0,1,4.31-4.18c3.2-2.56,6.39-5.17,9.82-7.41a122.32,122.32,0,0,1,14.27-7.94l-5.55,4.08.39.58c1.38-.81,2.82-1.52,4.12-2.44,5-3.53,10.62-5.44,16.42-7,2.66-.69,8,1.75,9.56,4a8.22,8.22,0,0,0,2.38,2.32,8.84,8.84,0,0,1,3.84,5.33c1.25,4.41,1.32,4.39-1.31,8.52,2.68,0,3.16,1.46,2.69,3.78-.16.79.58,1.76.91,2.65-3.29,2.09-3.77,7.83-1,10.29l-1.18,1.77a3.1,3.1,0,0,1,1.24,4.84c-1.44,1.48-.9,3-.95,4.69-.09,2.55.63,5.12-.8,7.74-1,1.83-.6,4.38-1.25,6.47-2.05,6.64-4.33,13.21-6.46,19.83-1.62,5-3.06,10.1-4.74,15.1-1,3-2.32,5.85-3.45,8.78-.38,1-.59,2.06-.88,3.09l.73.25,3.18-7.9a13.08,13.08,0,0,1,.95-2.27,15.69,15.69,0,0,1,1.89-2c-1.52-2.18.35-4.21,1.25-6.32.72-1.69,2.39-1.79,4.26-2.08-.24,1-.17,2-.62,2.34-1.63,1.31-1.19,3.1-1.52,4.75a6.5,6.5,0,0,1-1.46,2.22,24.17,24.17,0,0,1,0,3c-.18,1.3-.51,2.58-.79,3.87-.08.36-.1.83-.34,1-3.17,2.73-3,6.95-4.57,10.4-.74,1.67-.13,3.93-.13,6.77,1-1.29,2-2.07,2.44-3.08,1.55-3.56,2.92-7.19,4.47-10.75-2.31,6.84-4.61,13.68-6.73,19.95-1,.39-1.81.45-2.16.88-.78,1-1.18,2.27-2.05,3.11-.67.65-1.83.8-2.77,1.17l-3.33,1.33.07-1.35c-.22,0-.41-.05-.46,0-1.77,2.08-4.51,1.75-5.23-.91-1-3.85-1.61-7.82-2.37-11.74-.09-.47-.11-1-.17-1.62-1,1.33-.89,4.46.25,9.51-2.62-4-1.85-7.83-1.35-11.69s.84-7.78,1.2-11.22c-2.89,3.45-6.46,7.1-9.28,11.26a80.38,80.38,0,0,1-9.35,11.53l-.69-.5c.55-1.07,1.09-2.15,1.86-3.66l-11.84,8.18a11.59,11.59,0,0,0-2.8.79c-4.89,2.77-9.12,6.79-14.95,7.81-.52.09-.9,1-1.34,1.52Zm58.76-135c4.07-2.11,8.08-4.33,12.9-4.39-2.39-2-4.82-1-6.84-.12-2.26,1-5,1.71-6,4.55-3.52.79-5.49,3.38-7.27,6.18,2.11-1.46,4.1-3.06,6.05-4.71A8.38,8.38,0,0,0,475.6,186.32Zm-53,112a15.16,15.16,0,0,1,2.15-2.66c2.6-1.89,5.34-3.58,7.92-5.49a9.14,9.14,0,0,0,2.57-2.9c1-1.87,1.21-4.28,2.54-5.77a20.18,20.18,0,0,1,6.45-4.71,7.81,7.81,0,0,0,4.18-3.76c.28-.57.85-1.43,1.28-1.43,2.09,0,2.62-1.26,2.89-3a2.14,2.14,0,0,1,.85-1.29c4.21-2.91,6.44-7.47,9.52-11.32,1.93-2.4,3.51-5.17,6.89-6.28l-2.2,4.71.58.36c.56-.64,1.15-1.27,1.66-1.94,1.36-1.8,2.63-3.66,4.06-5.39a2.64,2.64,0,0,1,1.89-.94,28.88,28.88,0,0,1,4.24.89c1.52-4,3-7.81,4.45-11.64,1.55-4,3-8.12,4.67-12.11.6-1.41.24-1.89-1.08-2.2l-3.34,5.14-.54-.25c1-3.62,2-7.24,3.06-11l-1,.2c.6-3.19,1.2-6.33,1.79-9.46l-.58-.1-2,6.52-.58-.16c1.43-4.13.64-8.73,2.92-12.68v3.84l6-5.69c-.22-2.12-.47-4.56-.72-7l-.29,0-.28,4.42a70,70,0,0,0-2.12-9.76c-.78-2.68-1.15-2.79-4.13-2.24.4,1.28.81,2.59,1.23,3.9-.61-.08-.82-.31-.88-.58-.6-2.6-2.32-3.46-4.85-2.23a40.68,40.68,0,0,0-4.85,2.84c-4.31,2.91-7.23,7.1-10.33,11.18-6.1,8.05-12.92,15.61-18.58,24a223,223,0,0,0-14.52,25.24c-3.61,7.17-6.21,14.85-9.32,22.27-2.68,6.38-5.1,12.82-6,19.75-.5,3.72-1.27,7.4-1.92,11.11l.76.35Zm75-77.14-1.12-.43q-1.53,4.7-3.08,9.38l1,.35ZM447.05,298l-.47-.44-5.14,5.19.57.55ZM342.77,402.68l2.75-3.85L344,403.94a21.43,21.43,0,0,0,2.47-.83,1.49,1.49,0,0,0,.75-.92c.33-1.62.53-3.27.87-4.88a2.5,2.5,0,0,1,.77-1c1.11-1.13,2.23-2.23,3.49-3.48,1.24,2.41.81,5.21.34,7.82-1.14,6.34-2.62,12.62-3.95,18.93-.18.88-.26,1.78-.43,2.66-.73,3.67-1.48,7.33-2.21,11a1.43,1.43,0,0,0,.24,1.22c2.11-4.58,2.16-9.66,3.47-14.44s2.3-9.67,3.43-14.51l.65.12-.81,5,.63.19,3.18-10.76.67.1c-.05.72,0,1.46-.15,2.17-1.17,6.95-2.33,13.9-3.56,20.85-.77,4.36-1.76,8.68-2.38,13.06a31.29,31.29,0,0,0,.08,6.63c.06.77.76,1.47.95,2.26.07.29-.47.72-1.1,1.6.11.53.32,1.63.56,2.73.06.28.33.74.26.79-2.57,1.82,1.42,3.44-.38,5.21l.66.13,1.4-1.34c-.2,1.3-.38,2.42-.56,3.55l.75.22c2.06-3.62,4.09-7.26,6.19-10.86,3.86-6.59,7.91-13.07,11.61-19.74A228.58,228.58,0,0,1,385.8,405.8c3.2-4.51,6.65-8.86,10.1-13.18.52-.65,1.65-.81,2.5-1.19l0,0c-2.56,3.66-5.19,7.26-7.65,11-2.13,3.24-4.05,6.62-6.1,9.92-3.23,5.2-6.54,10.35-9.74,15.57-2,3.33-3.87,6.78-5.92,10.1a56.6,56.6,0,0,1-3.5,4.58c-.27.36-.72.67-.8,1.07-1.18,5.35-4.86,9.38-7.34,14-2.64,5-5.31,9.89-8,14.83l.67.4c1.15-1.84,2.35-3.65,3.45-5.52,8.83-15.15,17.48-30.4,26.52-45.42,4.13-6.85,8.93-13.31,13.59-19.84,4-5.6,8.08-11.13,12.34-16.52,3.73-4.72,7.78-9.18,11.64-13.8,2.23-2.68,4.36-5.45,6.86-8-1.3,2.79-1,5.79-1.56,8.6-.54,2.5-2,4.79-2.93,7.21a16.83,16.83,0,0,0-.59,2.64l-2,.26-.16.49,3,1.54-3.67,7.34-.57,0-.51-3.14c-2.6,3.83-4.89,7.2-7.19,10.57l.81.61,5.11-6.41a4.51,4.51,0,0,1-.09,1.37c-2.57,5.54-5.43,10.87-9.73,15.36-1.39,1.44-2.21,3.45-3.26,5.21q-3.1,5.16-6.17,10.33c-2.11,3.58-4.15,7.22-6.32,10.78-2.91,4.75-5.93,9.44-8.9,14.15-1.48,2.35-3.14,4.61-4.43,7.06a63.76,63.76,0,0,1-6.2,10.21c-1.39,1.73-3.2,3.37-3.11,6a1.84,1.84,0,0,1-.61,1.18c-4.86,4.53-7.83,10.44-11.57,15.79a56.11,56.11,0,0,1-6.41,7.22c-.6.6-1.86.56-2.82.81,3.11-.81,3.88-3.71,5.35-6-2,1.8-4.73,3-5.31,6-2,.52-3.89,1.15-5.88,1.51a8.35,8.35,0,0,1-3.85,0,12.22,12.22,0,0,1-8.19-11.19c-.05-1.43-1-2.86-.86-4.26.22-3.57.93-7.11,1.18-10.68.23-3.34,0-6.7.16-10s.84-6.79.4-10.07c-.46-3.54.5-6.7,1-10a44,44,0,0,0,.05-6.12l-3.49,4.43c-.7-2.5,2.38-6.82,5-7.31.12-1.07.24-2.17.37-3.27s.25-2,.37-3l-.7-.3c-1.26,2.3-2.48,4.62-3.78,6.9-.78,1.35-1.42,3.09-2.62,3.79s-3,.21-4.47.25a10.07,10.07,0,0,1,.05-3.06,18.08,18.08,0,0,1,1.88-3.29c.08-.13.14-.35.24-.37a6.81,6.81,0,0,0,5.08-4.1,15,15,0,0,1,1.8.54c1.52-2.35,3.3-4.64,3.17-8.11l-2.89,2.69c-.8-2.94,1.76-9.52,4.51-11.76l.08,1.43,3,.5c1.76-4.15,3.58-8.43,5.41-12.71l.63.09c.15.42.31.84.47,1.26l-2.82,6.45.61.24A12.11,12.11,0,0,0,342.77,402.68ZM399,413.56c2.16-.59,5-4.86,5-7.28C401.61,407.43,399.84,410,399,413.56Zm-32.24,52.77-3.63,4.74C365.7,471.56,367.55,469.22,366.75,466.33Zm1.08-2.2,1.05.68c.49-.82,1-1.63,1.43-2.48,0-.08-.59-.48-.91-.73C368.87,462.44,368.35,463.28,367.83,464.13ZM279,506.08a7.19,7.19,0,0,1-1.24,2.09c-3.57,2.91-7.36,5.83-11.86,6.59A38.58,38.58,0,0,0,259,517c-3,1.1-6.54.93-9.84,1.32a26.22,26.22,0,0,0-4.93,1c2.82,1.9,5.55.33,8.3,0s5.51-.62,8.21-.91c-1.26,1.94-3.64,1.14-5.53,1.5a58.41,58.41,0,0,1-7.72.67,20,20,0,0,1-4.17-.17c-2-.32-3.92-.85-5.87-1.29-.22,0-.59,0-.65-.11-1.15-2.24-3.69-1-5.22-2.13a49.8,49.8,0,0,1-6.06-4.86c-2.91-2.76-5.4-6-6.35-9.92a37.29,37.29,0,0,1-.75-8.65c0-3.59.57-7.18.58-10.78,0-6,2.4-11.4,4.41-16.88,1.36-3.7,2.84-7.36,4.19-11.06,1-2.72,1.74-5.45,3.68-7.83,1.51-1.86,2.07-4.47,3.22-6.66a24.67,24.67,0,0,1,2.85-4.3c2.53-3,5.19-6,7.79-9a6.72,6.72,0,0,0,.93-1.26,50.34,50.34,0,0,1,13.44-16.16,72.78,72.78,0,0,1,22.55-12.18c2.39-.84,4.77-1.7,7.18-2.46a3.66,3.66,0,0,1,2.31.19l-8.52,2.91.18.63,18.89-3.45-5.07,2.82c.46.5.69,1,1,1.06,2.49.53,2,2.39,1.85,4.07a8.48,8.48,0,0,0-.31,1.81c.87,5.72-1.23,10.9-2.87,16.17-.36,1.14-.55,2.34-.84,3.58,2.07-1.14,3.92-2,5.58-3.16.58-.4.75-1.47,1-2.26a5,5,0,0,1,.89-2.25c-1.09,4.57,0,9.68-3.63,13.65l2.19-6.31c-2.74-.18-3.85,1.51-4.79,2.9-1.66,2.45-2.68,5.36-5.54,6.85a.76.76,0,0,0-.39.51c-.17,3.76-2.88,5.32-5.71,6.93-1.38.79-2.38,2.21-3.63,3.24-3.3,2.68-6.55,5.44-10,7.91-1.89,1.36-4.21,2.13-6.25,3.31-.75.44-1.25,1.33-2.09,1.67s-1.47.91-2.22,1.34a8.11,8.11,0,0,1-1.78.86,17.75,17.75,0,0,1-2.55.29l1.09,1.31-.22.52-2.55-.75c.74-1.27,2.3-2,1.42-3.89-.27-.59,1.75-2.28,2.85-3.34.1-.1,1.16.72,1.71,1.19,1.26,1.06,1.86.31,2.31-.81.5-1.28.86-2.62,1.45-3.86,1.78-3.73,6-4.79,8.56-7.7a.44.44,0,0,1,.18-.13c4.42-.95,4.85-5.11,6.67-8.18.71-1.2,1.61-2.3,2.42-3.44,1.16-1.61,2.31-3.23,3.48-4.83.95-1.32,1.88-2.47,3.9-1.69.35.13,1.79-1.44,2-2.41,1.23-4.6,2.23-9.27,3.31-13.91a10.5,10.5,0,0,0,.3-1.75c.15-2.93-.29-3.19-2.95-2-4.34,2-8.8,3.82-12,7.58-4.67,5.52-9.55,10.85-13.14,17.25-3.4,6.07-7.44,11.77-11.06,17.72-1.62,2.66-2.81,5.58-4.35,8.3a23.61,23.61,0,0,1-2.78,3.25c0,2.31.11,5.25-2.59,7.69-1.19,1.06-1.35,3.32-1.85,5.08-1.22,4.37-2.36,8.76-3.56,13.14-.43,1.58-1,3.13-1.43,4.7-.3,1.05-.59,2.11-.79,3.18a26.34,26.34,0,0,0-.79,5.52c0,.82,1.27,1.59,2.39,2.87l-2-.95a7.11,7.11,0,0,0,5.43,7.1,6.35,6.35,0,0,1,2.11.72c2.45,1.8,4.89,1.38,7.44.25,1.79-.8,3.7-1.37,5.48-2.19a13.37,13.37,0,0,0,3.17-2c2.1-1.84,5.64-3.66,6.45-3.57,2.19-2.61,4.06-5,6.09-7.23,1.28-1.42,3-2.45,4.14-4a4.81,4.81,0,0,1,4.68-2.23v-2.35c.68-.12,1.39-.05,1.81-.37a24.31,24.31,0,0,0,6-7.41c2.18-3.76,4.9-7.21,7.37-10.81a21.89,21.89,0,0,0,1.75-2.84c.73-1.53,1.57-2.32,3.27-.18l.37-.66a8.47,8.47,0,0,1,.05-2.62,25,25,0,0,1,1.81-3.81,17.19,17.19,0,0,1,1.4-2.08c.21-.28.59-.75.77-.7,2.09.59,2.48-1.35,3.54-2.29.66-.58,1.38-1.08,2.07-1.62-2.13-2.5-2.12-2.5-.11-5.21.71-.95,1.35-1.95,2.06-2.91.11-.15.38-.18,1-.45l-1.12,2.42,2.13,2.51,3.23-4.25.78.42a15.5,15.5,0,0,1-1.57,3c-.89,1.08-2.12,1.66-1,3.56.4.67-1.08,2.48-1.73,3.75a9.26,9.26,0,0,0-1,1.71c-.4,1.68-.71,2.45-2,.43-.4-.63-1.66-.72-3-1.65L308.67,458l.6.54,4.44-.54.55.48c-2.08,3.18-4.18,6.35-6.22,9.55-.67,1.05-1.08,2.27-1.81,3.27a43.2,43.2,0,0,1-3.24,3.79c-2.38,2.58-4.82,5.12-7.21,7.7-1.88,2-3.78,4.06-5.54,6.19-1.26,1.52-2.14,3.38-3.5,4.81-4.85,5.09-9.83,10.06-14.94,15.26a3.37,3.37,0,0,0,1.27,0c2-.92,4-1.91,6-2.88Zm16.64-104.66c-5.93.88-15.13,5.48-16.45,7.95,5.65-.71,9.73-5.19,15.07-6.66C294.8,402.57,295.18,401.87,295.64,401.42Zm-2.73,78,3.88.19c.27-1.37.55-2.85.83-4.32l-.44-.14ZM231.35,498.1c-1.22,4.91.15,8.76,2.82,8.9Zm7.75,7.83c1.78,3.64,3,4.3,5.75,3.22C242,510.1,241.39,507.2,239.1,505.93Zm653.5-153c1.33-.29,2.56,0,1.69,1.57-2.59,4.73-2.27,9.66-1.45,14.68.21,1.29.33,2.6.42,3.28,2.87.82,5.17,1.46,7.46,2.13.27.08.55.39.76.34,6.68-1.57,13.87-1.29,19.78-5.64a9,9,0,0,1,3.58-1.26l-3.18,2.12c.13.17.25.35.37.52a80.42,80.42,0,0,0,27.78-19l-1.24,2.57c2.36-.37,9.67-9.48,12.56-15.37l-1.89-.19a9.92,9.92,0,0,1,.68-1.92c.81-1.33,1.71-2.6,2.69-4.06.18.88.34,1.69.53,2.65l3.13-.19c1.28,2.93.69,5.49-.85,8.22a109,109,0,0,1-14.49,19.87c-3.12,3.42-6.66,6.45-10,9.65a79.39,79.39,0,0,1-21.84,15,126.82,126.82,0,0,1-14.81,5.23,15.28,15.28,0,0,1-5.11.17,49.86,49.86,0,0,1-6.23-.68,59.93,59.93,0,0,1-6.76-1.63c-5.85-1.79-8.65-6.3-10.45-11.76a17.86,17.86,0,0,0-2.17-3.64c-2.11-3.31-2.76-7-3.27-10.83-.87-6.45-.92-12.95.93-19.16,1.63-5.46,4.21-10.65,6.68-15.83-2.06,6.92-6.2,13.1-7.22,20.35l.61.22c.39-1.15.71-2.33,1.18-3.45,2.22-5.42,4.46-10.82,6.77-16.2a10.11,10.11,0,0,1,1.69-2.06q-1.1,3.13-2.17,6.27l.33.14,3.56-6.37h-1.76c.78-2,1.55-3.95,2.33-5.92l1.62-2.41c1-1.24,2.08-2.49,3.14-3.7,1.22-1.39,2.47-2.75,3.7-4.13q-1.15,2.1-2.32,4.19l.6.49a5.87,5.87,0,0,0,1.37-.85c3-3.38,6-6.77,8.84-10.23a12.06,12.06,0,0,0,1.26-2.66,15.48,15.48,0,0,0,2-1.64c3.69-4.2,7.27-8.49,11-12.65a79.42,79.42,0,0,1,29.13-20.48,6.49,6.49,0,0,0,.83-.66c-1.7.28-2.9.38-4,.69A34.85,34.85,0,0,0,937,269.9l0,0c2.74-1.57,5.48-2.71,8.85-2.08,1.48.27,3.2-.56,4.79-1,4.26-1.14,8.17-.41,12.2,2.07-4.82,1.64-9.94,1-14,4.09L961.66,271l-.39-.8a4.82,4.82,0,0,1,1.7.4c1.4,1.09,2.74,2.28,4,3.48.36.34.91,1.09.79,1.25-1.79,2.56.2,5.08.08,7.63a20.5,20.5,0,0,1-3.61,10.46,70.69,70.69,0,0,1-13.56,15.85c-4,3.31-8,6.53-12.14,9.69-3.49,2.69-7.13,5.18-10.63,7.84-1.83,1.4-3.45,3.09-5.3,4.46-.55.4-1.58.16-2.39.22,0-.31-.09-.62-.14-.93l4.34-1.92c.07,0,.18-.07.18-.12.26-3,3.58-2.71,5-4.56a9.1,9.1,0,0,1,3.53-2.3c.42-1.08-1-2.74,1.09-3.64a24.35,24.35,0,0,0,3.16-1.91c1.52-.95,3.4-1.44,3.85-3.61.11-.53.89-.93,1.38-1.35a11.63,11.63,0,0,0,2.69-2.85l-2.36.6-.33-.57c2.28-2.07,4.72-4,6.82-6.26,3.68-3.93,7.34-7.91,10.62-12.16,1-1.31,2.53-3.05,1.59-5.34-.23-.55.45-1.52.8-2.25a4.54,4.54,0,0,0-.69-5.06,2.87,2.87,0,0,0-2.37-.63,50.14,50.14,0,0,0-21.06,8.53c-8.78,6.35-15.62,14.39-21.69,23.23-2.32,3.4-4.92,6.62-7.31,10-.54.76-.59,1.88-1.15,2.62-1.23,1.65-3.16,3-3.84,4.79s-.31,3.75-1.6,5.4c-1.53,2-3.31,3.9-4.21,6.15s-.84,5-1.34,7.49a12.88,12.88,0,0,1-1.13,2.6l-.57-.22c0-.54.1-1.09.14-1.63a12,12,0,0,0-3,7.44c-3.68,5.31-3.06,11.23-2.48,17.16.74-3.34,1.26-6.71,1.7-10.09C892.15,357.65,892.35,355.28,892.6,352.91ZM874.53,364.7l.69,1.21a41.74,41.74,0,0,0,.11-6c0-2.08.19-4.16.21-6.23a5.91,5.91,0,0,0-.48-1.68q1.55-5.21,3.08-10.4c-3.08,3.26-5.1,10-4.15,12.74.37-.79.73-1.58,1.1-2.36-1.25,3.63-1.93,7.27-.47,11a4.94,4.94,0,0,1,0,1.75l-3.68-.62c0,3.06,2.44,1.71,3.75,3C874.59,366,874.56,365.35,874.53,364.7Zm3.67-25.31,1,.38,2.75-6.71-.78-.33ZM174.26,292c-1.48,2.73-2.95,5.46-4.45,8.19-.25.45-.73.81-.88,1.28-1.21,3.76-2.37,7.53-3.52,11.31-.08.25,0,.54.54,1.06,1.1-1.84,2.23-3.67,3.3-5.53,1.86-3.21,3.74-6.42,5.52-9.68,1.34-2.46,2.41-5.09,3.84-7.5,2-3.34,4.08-6.65,6.37-9.8a116.34,116.34,0,0,1,8.6-10.8c1.26-1.35,3.52-1.76,5.33-2.6l.55.69-6.07,7.95.21.44a4.65,4.65,0,0,0,1.42-.66c1.25-1.3,2.38-2.71,3.61-4s2-2.52,4-2.81c1.23-.18,2.51-2,3.22-3.34.85-1.62,1.47-2.89,3.44-3.69s3.26-2.75,4.89-4.15c.82-.69,1.7-1.31,2.58-1.93.46-.33,1.19-.46,1.44-.88a8.33,8.33,0,0,1,4.93-3.61c1.4-.47,2.67-1.42,2.32-3.35a2.85,2.85,0,0,1,.63-1.72c1.16,2.07,2.28,4,5.14,2.87v-2.53c1.59.28,1.5,1.46,1.69,2.61s-.45,3.31,1.68,2.6c.3,2.46.72,4.85.84,7.25.17,3.14.28,6.3-2.53,8.67-.39.33-.15,1.47-.14,2.23a22.61,22.61,0,0,1,.08,4.57,86.84,86.84,0,0,1-2.56,10.07,29.81,29.81,0,0,1-2.68,5,16.45,16.45,0,0,1-.21,3.3c-1.78,6.8-3.56,13.61-5.53,20.35-1.72,5.9-3.71,11.71-5.54,17.57-1.07,3.43-1.81,7-3.15,10.3s-1.57,6.84-2.7,10.12a89.18,89.18,0,0,1-4.24,9.1c-.84,1.75-1.55,3.63-4.18,4.08-1.46-4.22.48-8.38.88-12.54l-1.18-.17L199,363.82h-.69c0-1.41.07-2.83,0-4.23-.16-3-.42-6.07-.58-9.1-.11-2.05-.5-4.19-.1-6.15.62-3,1.83-6,2.75-9,.17-.56,0-1.25.21-1.77A11.06,11.06,0,0,1,201.8,332c.26-.37.73-1,.61-1.19-1.24-2.06.11-3.84.64-5.6q5.16-17,10.56-34c1.42-4.44,3.08-8.81,4.84-13.13.32-.79,1.66-1.13,2.47-1.75s2-1.2,2.18-2a12.47,12.47,0,0,0-.15-4.69,16.44,16.44,0,0,1-1,2.55c-.23.38-.9.47-1.38.69-.13-.43-.46-.93-.35-1.3a38.06,38.06,0,0,1,1.76-5.45c.49-1.13.12-2.91,2.07-3.25.19,0,.14-1.47.2-2.26-.67,0-1.53-.33-2,0-2.92,1.94-5.67,4.14-8.63,6-5.51,3.51-9,8.91-13.12,13.73-4.73,5.6-9.12,11.53-13.29,17.56a150.9,150.9,0,0,0-8.51,14.3c-3.78,7-7.37,14.15-10.88,21.32-2.82,5.78-5.11,11.83-8.15,17.48-3.64,6.77-7.76,13.28-11.79,19.84-1.17,1.89-2.74,3.44-5,1.16-3.63.93-2.76-1.73-2.87-3.61a2.65,2.65,0,0,1,0-1.11c.88-2,.1-3.67-.65-5.5-1.74-4.24-1.13-8.61.13-12.81,3.17-10.63,6.55-21.19,9.85-31.78a9.7,9.7,0,0,1,.56-1.18c2.08.72.69,2.11.62,3.07a20,20,0,0,1-.76,3.26l1,.27a38.34,38.34,0,0,1,1.33-4c.29-.66,1-1.12,1.49-1.71a14.45,14.45,0,0,0,.91-1.39c-2.23-1.28-.26-2.85-.13-4.19s.35-3,2.37-3.69c.76-.27.88-2.56,1.13-4,.12-.65-.37-1.46-.15-2,1.51-3.91,3.14-7.76,4.7-11.64.45-1.11.7-2.29,1.17-3.39,2.51-5.83,5.08-11.63,7.58-17.47.34-.8.28-1.78.62-2.58.77-1.81,1.68-3.56,2.52-5.34.39-.85.73-1.72,1.09-2.58l.52.17c-.25,1.21-.51,2.43-.76,3.64l.52.19,2-3.42c1.78.79,1.93,2.3,2,3.77.06,1-.22,2.08-.15,3.11a5.35,5.35,0,0,0,.78,1.69l.6-.26c0,.07.06.17,0,.22-2.24,4.14-2.65,8.88-4.27,13.22-1.28,3.42-2.75,6.77-4.12,10.16-.21.52-.33,1.09-.63,2.12l2.52-1.22Zm1,10.38c-1.95-.2-6.1,6.6-6.46,11.27,1.31-1.53,2.09-2.86,3.24-3.67a14.82,14.82,0,0,1,3.81-1.35l-.19-.54-2.56.54Zm16.06-23.57c-1.38,1.78-4.22,2-4.1,5A3.9,3.9,0,0,0,191.28,278.85Zm27,4.19c-.68,2.35-1.22,4.24-1.76,6.12C219.28,286.33,219.86,284.68,218.29,283Zm-43,16.66.63.74,2.2-1.49-1.09-1.24ZM587.19,187.63c-1.11-1.48-1.94-1.43-2.52.42a25.77,25.77,0,0,0-1,2.7,4.08,4.08,0,0,0,.06,2.55,5.81,5.81,0,0,1-.74,7.21l.06.05-.63-1.85L576,201l.28.86,4.09-.8-5.61,7.8c-1.88-2.57-.78-5.64-1.52-8.12-1.69-5.7,1.85-10,2.83-14.92.19-.91,1.65-1.66,1.65-2.48,0-1.48,2.77-2.33.84-4.14-.27-.25-.09-1.1,0-1.62.81-3.11,1.67-6.2,2.68-9.92a34.6,34.6,0,0,0-4.24,2.37c-2.78,2.12-5.55,4.29-8.15,6.62-3.81,3.4-7.47,7-9.93,11.55-.45.84-1.64,1.27-2.18,2.09-1,1.51-1.78,3.17-2.65,4.77l-1.66,3c-1.27,1.89-2.84,3.64-3.76,5.68-4.71,10.45-9.38,20.93-13.8,31.51a129.77,129.77,0,0,0-8.28,26.34,25.63,25.63,0,0,0-.5,6.47c.1,1.29,1.12,2.51,1.93,4.19,2-6.85,0-14,3.74-20l-.66.87-.48-.13,2.52-8.46.34.09q-.6,2.43-1.19,4.86l.31.09q8.32-20.33,16.64-40.66l.9.37-2.65,6.06c-1.77,4.11-3.58,8.21-5.3,12.35-1.88,4.49-3.8,9-5.47,13.54-2.67,7.32-5.26,14.67-5.39,22.61-2,2.77-.73,5.88-.84,8.84a10.69,10.69,0,0,0,.78,4.09l1-14.16c0,4.84-.54,9.65.42,14.21,3.82-1.87,7.56-3.43,11-5.48a27.4,27.4,0,0,0,6-5.08A65,65,0,0,0,560,250.73a55.91,55.91,0,0,1,4.68-7.34c.44-.61,1.51-.79,2.29-1.16a8.15,8.15,0,0,1,.59,2.21,18.74,18.74,0,0,0,0,4.3c.55-1.16,1-2.35,1.67-3.47a14.11,14.11,0,0,1,1.48-1.83,8.46,8.46,0,0,1,0,2.41,46,46,0,0,0-1.85,6.8c.27-.56.55-1.11.83-1.66l.79.49c-.44,1.51-1,3-1.28,4.52-.29,1.31-1.75,2.73,0,4.44l1.87-4.86c.71,2.55-.6,9.26-2.71,13.18a78.4,78.4,0,0,1-7.13,11.75c-2.8,3.53-6.43,6.39-9.65,9.5,4.2.31,8.85-3.72,16.14-13.48a14,14,0,0,1-1.36,3.57c-3.32,4.5-6.9,8.74-12.62,10.4-3.28.95-6.52,2-9.79,3-.28.09-.73.3-.85.19-2.26-2.15-5.07.43-7.56-1-2.32-1.31-5-2-7.54-2.9-.69-.26-1.36-.56-2.05-.83-.27-.11-.69-.36-.81-.26-2.68,2.18-4.92-1.19-7.52-.62a2.41,2.41,0,0,1-1.92-1.22c-1.67-3.81-4.12-7.27-4.08-11.81,0-4.23-.86-8.46-1.1-12.71-.43-7.39,1.8-14.38,4-21.28,1.79-5.68,4.23-11.17,6.47-16.7,2.07-5.12,4.18-10.24,6.44-15.28a152.68,152.68,0,0,1,14.75-26.62c7.35-10.3,17.07-17.88,28.14-23.71,5.13-2.7,10.66-2.91,15.16,1.53,1.08,1.06,1,3.37,1.33,5.12.22,1,.35,2.06.53,3.09l1.07-.12c-.14-1.92-.28-3.85-.41-5.68,2.16,2,1.19,4.7,1.26,7.13a68.77,68.77,0,0,1-.46,9.18c-.21,2,.37,4.15-1.47,5.84-.48.43-.1,1.78-.12,2.71Zm-4.92-24.26c-2.48-1.78-4.75-.39-6.93.35-.92.32-1.57,1.46-2.34,2.23l.49.58Zm-18.46,16.14,5.7-5C566.92,175.22,564,175.53,563.81,179.51ZM757.69,326.23a9.46,9.46,0,0,1-1.27,2.45c-2.48,2.46-5.23,4.66-7.58,7.22s-4.21,5.45-6.47,8.05a27.83,27.83,0,0,1-3.84,3.1l-.45-.4-.21,2.57-3.15.28c.14.95.26,1.72.35,2.35-1.44,1.77-2.76,3.52-4.21,5.16-2,2.21-4.13,4.26-6,6.54-1.34,1.63-3.41,2.85-3.35,5.45a2.43,2.43,0,0,1-1,1.9c-2.63,1.21-1.86,3.8-2.89,6.12l2.35-1.32.6.54c-.55.61-1,1.52-1.67,1.75-1.24.41-1.36,1-1.51,2.24s-1.24,2.72-2,4c-1.61,2.69-3.31,5.32-4.91,8-1.45,2.45-2.87,4.92-4.18,7.44a11.6,11.6,0,0,0-.53,2.57c-.29,1.21-.1,2.73-1.94,3-.28,0-.61.43-.74.74-2.37,5.43-4.57,10.94-7.1,16.29a58.68,58.68,0,0,1-6.22,11.06c-1.7,2.19-4.23,4.32-7.76,4,.13-.91.25-1.72.43-2.88-2.19,1.72-4.11,2.48-6.27.34.25-1.23.52-2.58.82-4.09-1.85-1.29-1.24-3.48-1.09-5.4.58-7.37,2.89-14.28,5.57-21.16,5.06-13,11.35-25.45,15-39,.72-2.69,2.4-5.12,4-7.53l-7.47,21.48.57.19q6.25-14.56,12.53-29.13c4.2-9.69,8-19.6,13.48-28.82l.94,1.39c.29-.57.48-.93.66-1.3l.67-1.34-2-.48L727.6,306l1.24,1.41c2.38-3.35,4.85-6.61,7.09-10s4.45-6.59,7.79-9.08c1,3.84-.91,7.18-3.85,8.11-1.34,2.88-2.33,5.42-3.67,7.76a57.52,57.52,0,0,0-4.21,9c-1.43,3.91-3.54,7.55-5.21,11.38-1.85,4.23-3.55,8.53-5.28,12.81a4.52,4.52,0,0,0,.06,1.42c2.65-2.64,3.32-5.93,4.64-8.9,1.67-3.74,3.59-7.38,5.41-11.05.64-1.3,1.34-2.58,2-3.88,1.32-2.71,2.6-5.45,4-8.15a13.64,13.64,0,0,1,1.39-1.86l.64.21a5.35,5.35,0,0,1-.15,1.9c-1.8,3.76-3.81,7.43-5.51,11.22s-3.08,7.6-4.61,11.4c-2,5.07-4.08,10.13-6.09,15.2-.31.78-.49,1.62-.73,2.43l.58.35c1.94-2,4-3.82,5.81-5.86,2.08-2.31,3.9-4.85,6-7.18,2.8-3.17,5.87-6.11,8.56-9.37a67.37,67.37,0,0,1,19.88-16.45c2.42-1.33,4.61-3.09,7.08-4.31a155.45,155.45,0,0,1,14.3-6.48c3.9-1.46,5.84-.57,8,2.8-2.65,1.2-5.26,2.32-7.8,3.58a81.74,81.74,0,0,0-7.88,4.25c-1,.64-1.53,2-2.27,3.05l-1.82,1.11-9.7,7.69c-1.37.58-3,.88-4,1.8a69.43,69.43,0,0,0-5.28,5.68l-2.67,2.95.54.53c.64-.57,1.27-1.15,1.92-1.71C755,328.53,756.34,327.38,757.69,326.23Zm-73.47,75.51c-3.6,6.83-6.24,14-6.87,21.73Zm52.6-56.49c-.74-.14-1.56-.57-2-.33a12.3,12.3,0,0,0-2.3,2.05l.49.53Zm-83,20.51a10.28,10.28,0,0,0-2,.67c-3.14,1.82-6.22,3.74-9.38,5.51a9.89,9.89,0,0,1-2.71.55c.05.38.15,1.1.25,1.9l-4.54,3.08L635,377l3.66-3.33-1.55-.52,1.67-2.19,0,0a7.16,7.16,0,0,0,4.48-4.45,17.41,17.41,0,0,1,4.76-6.73c5.8-5.3,10.86-11.41,16.5-16.9a25.36,25.36,0,0,0,6.69-10,34.78,34.78,0,0,0,.94-5.14c-1.72.85-2.87,1.46-4.05,2a15.44,15.44,0,0,0-2,.68c-2.8,1.78-5.49,3.72-8.32,5.44-1.27.78-3,.88-4.12,1.79-3.82,3.15-7.55,6.43-11.09,9.87-1.15,1.13-1.53,3-2.48,4.38-1.29,1.87-2.82,3.56-4.2,5.37-2.92,3.84-5.83,7.69-8.68,11.59-.69.95-1,2.16-1.7,3.14s-1.75,1.9-2.42,3a15.68,15.68,0,0,0-1.26,3.08c-.57,1.56-1,3.14-1.65,4.68-.92,2.36-1.83,4.72-2.91,7-.39.83-1.47,1.33-1.86,2.16a23.37,23.37,0,0,0-1,3.56c-.42,1.42-.89,2.83-1.34,4.24a80.79,80.79,0,0,0-2.79,10.64c-.44,2.41-.69,5.08-2.63,7a1,1,0,0,0-.16.81c.86,4.81,1.68,9.71,6.06,12.78,1.08.75,2.69.78,4.06,1.1a10.92,10.92,0,0,1,2,.32c2.3,1,4.62,1.46,6.87.06,1.43-.89,3.74,0,4.45-2.26l2.91,1.67c.1-.08.78-.38.8-.72.11-2.2,1.84-1.88,3.21-2.31a40.27,40.27,0,0,0,6.1-2.36c.65-.32.88-1.46,1.25-2.13l8.79-5.25.33.4a5.94,5.94,0,0,1-.89,1c-3.79,2.79-7.54,5.64-11.43,8.29a66.33,66.33,0,0,1-7.52,4.29c-.81.41-2,.11-2.9.33a2.2,2.2,0,0,0-1.42,1c-.91,2-2.39,3-4.52,2.49l2.15-.74-.1-.55c-.64.13-1.28.24-1.91.39a65.66,65.66,0,0,1-8.26,1.9c-2.07.21-4.24-.74-6.33-.61-4.46.28-7.07-2.61-9.59-5.39-4.8-5.28-7.24-12-8.91-18.66A28.05,28.05,0,0,1,594,395.61c2.69-6.42,5-13,8.1-19.24A131.23,131.23,0,0,1,611.81,360c5.65-8.11,11.65-16,17.69-23.82a36.79,36.79,0,0,1,16.28-12,22.76,22.76,0,0,0,3.85-1.86c5.26-3.21,11.1-4.31,17.12-4.91,2.64-.26,5.25-.75,7.88-1.13,0,.22.09.44.13.66L670.48,318l-.09.59c1.23.54,2.43,1.46,3.68,1.54,4,.25,6.14,2.89,8.31,5.76,2.38,3.16,1,6.16,0,9.21-.61,1.92-1.45,3.77-2,5.7-1.31,4.69-4.58,8.05-7.77,11.41-3.46,3.63-7,7.21-10.79,10.5-3.47,3-7.29,5.64-11,8.44l-.51-.65,4.25-3.72a24.49,24.49,0,0,0,7.39-6c-1.93-.67-2.43.58-3.27,1.54s-2,2.08-2.82,2C654.37,364,654.07,364.66,653.8,365.76Zm-51.61,49.36c-2.21,2.9.75,4.54.52,6.67l.7-.11Zm75-81.14c1.9-.11,2-1.46,2-2.59,0-.62-.79-1.24-1.22-1.85l-.47.29C677.43,331.15,677.33,332.48,677.2,334Zm196.37-19.5c1-2.07,2.08-4.11,3-6.23a8.25,8.25,0,0,0,0-2.64c-3.59,2.32-2,7.16-6.17,9,0-1.62-.34-3.11.06-4.35,1.44-4.41,3.14-8.73,4.73-13.09a11,11,0,0,0,.84-2.55A27.44,27.44,0,0,0,876,291c-1.52.13-3.21-.11-4.52.48a66.54,66.54,0,0,0-8.4,4.71,62.93,62.93,0,0,0-5.74,4.61,18.84,18.84,0,0,0-2.52,2.45c-.51.63-2.17,1.13-.58,2.37.08.07-.13.68-.34.94-.75.91-1.55,1.79-2.57,2.95l-.09-1.84-.48-.21c-1.38,2.23-2.75,4.47-4.14,6.7-1.07,1.71-2.05,3.49-3.28,5.08-.7.91-1.93,1.41-2.72,2.27a12.44,12.44,0,0,0-2.07,3.1c-.42.87-.27,2-.74,2.87-1.82,3.17-3.86,6.21-5.66,9.38-1,1.75-1.65,3.7-2.53,5.52a24.29,24.29,0,0,1-1.48,2.3c-.28.44-.72.88-.76,1.35-.4,4-2.58,7.19-4.5,10.52a6.92,6.92,0,0,0-.66,1.67c-1.52,5.55-3.11,11.09-4.49,16.68-1.25,5-.92,10.18-.08,15.23.64,3.87,2.93,4.79,6.86,4.05a68.41,68.41,0,0,1,10.14-.78c.49,0,1.1.76,1.5,1.29a20.53,20.53,0,0,1,1.33,2.53,21.81,21.81,0,0,0-2.27.19,15.73,15.73,0,0,0-3.41.83c-1.06.45-2.76,1.13-2.84,1.85-.24,2.26-2,1.92-3.2,2.22a30.79,30.79,0,0,1-4.43.35,18.61,18.61,0,0,1-2.81.44,17.23,17.23,0,0,1-13.13-7.63,34.83,34.83,0,0,1-5.15-9.81c-.53-1.6-.6-3.26-1.25-5.26l-1.13,2.45a6.11,6.11,0,0,1-.3-1.62c.38-2.75,1.18-5.5,1.16-8.24,0-7.95,3.47-14.95,5.74-22.25a79.84,79.84,0,0,1,5.67-12.69c3.25-6.32,6.35-12.77,10.26-18.68a214.77,214.77,0,0,1,14.11-18.34A138.17,138.17,0,0,1,845,290a46.27,46.27,0,0,1,23.73-12.48,10.24,10.24,0,0,1,8.67,2c1,.81,2.19,1.48,3.12,2.11,0,.46-.34,1.13-.14,1.56a10,10,0,0,0,1.84,2.8c3.35,3.32,3.72,7.32,2.29,11.45-1.52,4.38-3.5,8.6-5.3,12.88-.19.45-.52,1.1-.89,1.18-1.6.37-2.87.91-3,2.83,0,.25-.81.44-1.25.66Zm-58.63,70.29c1-5.66,2-10.86,2.9-16.06l-.61-.1C815.25,371.93,813.76,381.38,814.94,384.77ZM476.58,138.93c.15-.42.29-.84.49-1.43l-2.46-.42c2-3.31,5.71-2.39,9-4.16l-3.81-1.47-.05-.46c2.85-.75,5.67-1.62,8.55-2.23,8.67-1.82,17.34-3.67,26.06-5.27q19.78-3.64,39.64-6.94c7.47-1.25,15-2.26,22.5-3.28,8.74-1.18,17.49-2.31,26.25-3.33,2-.23,4.06.17,6.09.16a14.12,14.12,0,0,0,2.95-.44,67.31,67.31,0,0,1,7.55-1.71c9.26-1,18.53-1.69,27.79-2.51,1.63-.14,3.35,0,4.85-.46a4.15,4.15,0,0,0,2.41-2.48,12,12,0,0,1,2.29-4.9c1.74-2.22,2.85-4.92,4.41-7.3a14.05,14.05,0,0,1,2.67-2.4l.6.43V85.17a14.19,14.19,0,0,1,3.81-.54c.53.06.92,1.35,1.55,2.37H666c1.84,1.39,2,2.45.82,4.24-.66,1-2.23,1.8-.81,3.45.25.29-.48,1.43-.88,2.5l2.55.33-4,.4.84-1-.22-.38-5.66,1.7c2.1,2.71,4.85,1.84,7.51,1.63a15.42,15.42,0,0,1,4.77.34c-3.57,1-7.57-.46-10.78,2.24l-.08-1.31-.5-.33-1.47,2c1,.53,1.91,1.53,2.84,1.5,4.79-.19,9.57-.69,14.35-1,1.74-.1,3.28.41,3.65,2.87h-4.39l-.18.44,5.18,3a1,1,0,0,1,.06.37c-1.07,6.18-6.39,7.15-11,8-5.56,1-11.35.89-17,1.25l-.19-.54,1.4-.29-.46-.87c-1.93,0-3.86-.13-5.78,0q-13.32,1-26.63,2.16c-2.83.24-5.64.62-8.47.9-.6.06-1.46.28-1.13-.9-.52,0-1.42-.23-1.5-.06-.94,2-2.91,1.63-4.51,1.85-3.86.52-7.74.88-11.61,1.27-8.24.81-16.49,1.46-24.71,2.44-5.94.7-11.82,1.88-17.75,2.75-4.37.65-8.78,1-13.14,1.72-4,.66-7.91,1.71-11.89,2.44-5.13.94-10.29,1.76-15.44,2.59-2,.33-4.19-.15-6.14,1-.31.19-1.2-.6-1.83-.93V134l-2.23,2.08c-2.35-1.79-3.48-1.49-5.49,1.11-.43.55-1.89.5-2.84.4a24.42,24.42,0,0,1-3.61-.9l-.22.67,1.45.92-4.2,1.19,1.13-1.36c0-.23-.08-.45-.11-.68-1.85.43-3.69.93-5.56,1.25a30.83,30.83,0,0,1-3.61.22Zm51.36-14.55-.16-.49c-.59,0-1.18.13-1.77.13a37.62,37.62,0,0,0-9.09,1.44c-3.65.91-7.55.8-11.33,1.26-.81.1-2.09,1.25-2.23,1.09-1.49-1.65-1.94.49-2.61.67-.74-.43-1.34-1.07-1.8-1a24.77,24.77,0,0,0-4.18,1.33c-1.34.53-2.56,1.46-3.94,1.75-2.17.45-4.78-.49-6.29,2.58,4.81-2,9.8-1.36,14.52-2.62s9.48-2.3,14.25-3.31S523.06,125.33,527.94,124.38Zm87-11.45-.11-1.09L602,113.24l.07.63C606.46,114.69,610.67,113.68,614.9,112.93Zm-62.61,6.27.08.84c3.42,1.34,6.53-.9,9.82-1.05l-.09-1Zm118.86-3.8-9.3,1.54C665.12,117.38,668.34,117.57,671.15,115.4Zm-94.61,1.93-.11-1-5.93.74.09.78Zm83.32.39,0-.52h-6l0,.92ZM430.35,420.82c.51-1.45,1-2.91,1.53-4.33a41.17,41.17,0,0,1,1.91-4.29,106.77,106.77,0,0,1,6.7-11l-3,7.11.84.58a20.18,20.18,0,0,0,2.55-3.21c1.81-3.59,3.22-7.39,5.16-10.9,2.72-4.9,5.78-9.62,8.68-14.42A19.15,19.15,0,0,1,456,378.2c.73-.94,1.6-1.79,2.57-2.85a5,5,0,0,1,2.8-5c1.54-.54,2.86-1.73,4.55-1.93,1.49-.19,2,.48,1.71,1.8a10.33,10.33,0,0,1-.71,2.14c-1.87,4.38-3.82,8.73-5.62,13.15-.36.89-.18,2-.29,3.57l8.45-15.89.44.18a12.38,12.38,0,0,1-.46,1.61c-2.6,6.05-5.11,12.14-7.88,18.11-2.69,5.81-5.78,11.44-8.48,17.25S448,422,445.46,427.84c-2.35,5.41-4.76,10.8-7,16.25-1.24,3-2.3,6-3.38,9a7.58,7.58,0,0,0-.15,2c-.13.22-.27.43-.41.65l-5.59,15-2.5,7.62v-1.3l-.47-.18c-1.26,2.77-2.53,5.55-3.78,8.32a67.58,67.58,0,0,1-3.53,7.67c-1.27,2.07-2.16,1.92-4.11.44-.49-.37-1.38-.16-1.94-.48a24.35,24.35,0,0,1-3.69-2.49c-1.76-1.51-1.78-3.7-1.3-5.64,1.34-5.42,3-10.77,4.46-16.14,1.24-4.41,2.39-8.84,3.71-13.23.89-3,2.44-5.78,2.9-8.79s2.48-5.3,3.76-7.92a5.48,5.48,0,0,0,.76-2.31c-.12-3.86,2.15-6.75,3.78-9.92.53-1,.78-2.22,1.37-3.2a18.28,18.28,0,0,1,2.08-2.44l-1.05,5.44.41.29c1.19-2,2.37-4,3.53-6C431.92,419.1,431.13,420,430.35,420.82ZM436.8,412l-.81-.3c-4.22,5.61-4.26,5.73-2.16,6.81C434.83,416.32,435.81,414.15,436.8,412Zm-10,22.64-1.23-.61q-1.43,3.58-2.83,7.15l.86.38ZM857.5,167l1.74-1.22c-.71,2.61-1.18,4.58-1.79,6.51C855,180,852,187.62,850.24,195.53c-1,4.53-2.71,8.83-3.5,13.42,1.93-2.36,2.24-5.74,4.54-7.83l.62.31c-1.16,3.11-2.18,6.28-3.51,9.31-2,4.51-4.31,8.87-6.28,13.39a66,66,0,0,0-2,6.72,2.21,2.21,0,0,1-1.36,1.27c.53-2.25,1-4.5,1.58-6.75l-.41-.28c-.41.59-.81,1.19-1.25,1.76-1.3,1.68-2.56,3.39-4,5-.18.2-1.44-.29-1.92-.75s-.4-1.2-.6-1.91l-2.53.45c-.69-1.18-1.34-2.15-1.85-3.2-1-2-1.5-3.79.15-6,.72-1,2.27-2.92.72-4.82-.11-.13.9-1.19,1.4-1.83-.75-.85-.38-5.39.73-5.73,2.06-.64,1.87-2.17,1.57-3.55a4.77,4.77,0,0,1,1.56-4.88c1-1.07.94-3.26,1.42-5.22,1.45-.7,1.45-.7,1.93-8.08l.85,1c4.37-9.82,6.66-20.35,11-30s6.44-20,11.84-29.14q-5.1,15.18-10.19,30.37l.85.34q.92-2.22,1.84-4.46c1.06-2.55,2.22-5,3.14-7.65.49-1.36.38-2.94.85-4.31,1.36-4,2.74-8.1,4.38-12,2.41-5.84,4.2-11.9,6.49-17.78.54-1.38,1.19-2.72,1.78-4.08l.86,0c0,1,.11,2,.18,3.28h2.54a22.33,22.33,0,0,1,.14,3,8.87,8.87,0,0,1-.63,1.86,8.62,8.62,0,0,1-.67,2c-.74,1.14-1.61,2.19-2.55,3.43l1.37.88-3.85,3,2.31,1.61c-.58,1.82-1.28,3.71-1.74,5.66-.16.63.34,1.4.46,2.12a4.79,4.79,0,0,1,.16,2.07c-2,6-4.06,11.89-6,17.86-.74,2.27-1.16,4.64-1.84,6.93a10.6,10.6,0,0,1-1.28,2.19L859,164c.06-.75.13-1.51.19-2.26l-.65-.16-1.26,5.11c-.81,2.14-1.63,4.28-2.41,6.44-1.32,3.63-2.66,7.26-3.92,10.92-.82,2.4-1.5,4.84-2.24,7.26l.63.22c.39-.93.84-1.83,1.15-2.78q2.34-7,4.62-14C855.9,172.21,856.69,169.58,857.5,167Zm4.23-14.61.94.39,1.68-5.29-.82-.28ZM772.88,312.74l1.82-1.11c1.63-.89,3.23-1.86,4.91-2.64a10.9,10.9,0,0,1,2.47-.42c.5-.09,1.2-.12,1.44-.46,1.49-2,3.65-1.44,5.27-1.53,2.64,1.82,1.86,4.57,2.28,7,2.25-3.39.48-6.65.06-10.09a32,32,0,0,1,4.4-.4,3.8,3.8,0,0,1,2,1.17c.47.44.65,1.21,1.13,1.64,3.14,2.8,3,6.42,2.52,10.07a103.91,103.91,0,0,1-8.09,28.78c-2.5,5.75-4.43,11.75-6.79,17.56-1.56,3.88-3.36,7.67-5.16,11.45-2.08,4.36-4.18,8.71-6.5,12.95-.7,1.28-2.11,2.18-3.2,3.25-.56,3.88-2.47,7.28-5.35,10.82v-4c-.83,1.35-1.4,2.23-1.93,3.13s-1.09,2-1.64,2.95l-.55-.28,1.41-3.38-.68-.36c-2.76,4.58-5.08,9.48-8.69,13.45l-.84-.25a8.38,8.38,0,0,1,.23-3,40.06,40.06,0,0,1,2.8-4.46c.16-.25.41-.51.42-.77.19-5.58,3.84-9.76,5.87-14.59.71-1.68,1.48-3.34,2.22-5l0-.06c1.39-2.77,2.87-5.5,4.14-8.32,2.81-6.27,5.6-12.54,8.22-18.89,1.76-4.26,3.16-8.67,4.8-13s3.46-8.29,4.89-12.54,2.63-8.88,3.8-13.36a13.53,13.53,0,0,0,0-3.31l-.59-.09q-1.56,6.87-3.11,13.72l-.76-.16c1.21-5.6,2.43-11.2,3.8-17.49l-5,1.51c1-1.38,3.74-1.36,3.11-4.62-2.33.92-4.53,1.64-6.6,2.64-2.44,1.17-4.75,2.58-7.14,3.85-.27.15-.68,0-1,0Zm21.79,21.2c2-1.51,2.6-3.67,3-5.84.64-3.19,1.14-6.4,1.69-9.6.42-2.45.91-4.88,1.16-7.35.08-.74-.53-1.55-.83-2.33l-.76,0C797.54,317.2,797.69,325.84,794.67,333.94Zm-.32-26.63,1.32-.19c-.13-1.06-.26-2.12-.38-3.18l-1.6.25Zm-331.54,37,2.92.83,0,.66a22.53,22.53,0,0,0-4.41,2.15,4.81,4.81,0,0,0-2.12,4.64l2.29-2.39a15.6,15.6,0,0,1-.57,3.6,10.16,10.16,0,0,0,.39,2.68c.81-.41,1.87-.62,2.39-1.27a76.51,76.51,0,0,0,5.36-7.34c1.55-2.47,2.7-5.19,4.13-7.73.48-.84,1.47-1.41,1.94-2.25,1.13-2,3-4.24,2.83-6.25a26.61,26.61,0,0,1,.28-4.5c.13-1.46.18-2.94.26-4.41a31.82,31.82,0,0,0-3.7,5.79c-.31.59-.91,1.33-.76,1.8.59,1.82-.29,2.36-1.85,2.34,1.21,2.4-1,3.37-1.45,4.91l-3.4-1.25C465.77,339.17,464.32,341.71,462.81,344.34ZM434.66,456.4c-1,4-1.9,8-3,11.93a13.82,13.82,0,0,1-1.76,3,3.72,3.72,0,0,1,1.11.06,9.62,9.62,0,0,1,1.35.7c-.41.46-.85,1.34-1.21,1.31-2.34-.21-2.48,1.47-3,3-.61,1.86-1.46,3.65-2.21,5.46-.57,1.79-1,3.64-1.73,5.35-1.13,2.63-2.47,5.17-3.72,7.75,2.58-.61,3.15-1.26,4.5-4.3-.11-.17-.35-.39-.31-.49,1.3-2.74,2.63-5.47,4.16-8.11-1.17,2.93-1.27,6.32-3.91,8.63.31.37.92.79.87,1.11a10.52,10.52,0,0,1-.85,2.24l.53.19q7.53-21.39,15.07-42.77a14.36,14.36,0,0,0-1.87,3.29c-.48,1.1-.87,2.23-1.37,3.31s-1,1.89-1.52,2.82l-.52-.29c.94-2.66,1.89-5.32,2.83-8l-.41-.1-2.8,2.53c-.13.22-.27.43-.41.65C434.55,456,434.7,456.21,434.66,456.4Zm38.13-317.17a3.81,3.81,0,0,0-4-2c-3,.47-5.85,1.75-8.77,2.71-.46.15-1,.53-1.38.38-2.09-.92-3,0-3.18,1.69l-7.72.36,0,.8c2.85,1.47,5.6,2.6,9,1.15,1.36-.57,3.28.18,4.68.31l2.52-2.43.5.35c0,.58-.05,1.15-.08,1.67,3.56-.44,6.94-1.14,8.35-5ZM425,320.29c-2.52,2-5.25,2-8.14,1.08v0l3.18,1.17-3,1.15c6.78,1.55,11.34-2.59,16.56-4.52-3.3,2.19-5.56,6-10.23,5.8-1.61-.06-3.24,1.07-4.9,1.55a5.22,5.22,0,0,1-2.38.19c-.42-.09-.71-.82-1.07-1.27l.31-.37-4.14-1c2.28,1.81,4.16,4.17,6.91,3.2s5.37-2.24,8.4-2.13a2.51,2.51,0,0,0,1.46-.53c4-3,8.05-6,12-9.06.37-.29.3-1.14.43-1.73a8.26,8.26,0,0,0-2.34,1.41c-.71.48-1.69,1.33-2.23,1.13-1.7-.62-2.66.38-3.86,1.13-1.45.91-2.65,2.65-4.78,1.74A12.86,12.86,0,0,0,425,320.29Zm442.6-243c0,.32.07.64.11,1l-9.88.56L851,80.62c.23.16.39.38.56.39,3.82.2,7.6-.56,11.47-.21,4.39.4,8.91.51,13-2.76l-5-.61,1.51-1c-2.55-.81-16.36.78-18.12,2.07l3.43.29Zm-219,53.34c.35.43,1.27.92,1.21,1.07a3.24,3.24,0,0,1-1.27,1.58c-1.7.79-2.69.06-3.18-1.8a3.62,3.62,0,0,0,0,2.18,17.61,17.61,0,0,0,1.13,2.28l1.88.75,4.83-12.24-.6-.27-2.09,4-.43-.12c0-.51-.07-1-.1-1.53l-.51.47c-.33-.31-.92-.6-.94-.92a9,9,0,0,1,.36-2.13l-1.49-.45c.57-4.17-.65-4.69-4.24-4.37,3.14,2.28,1.72,4.82.87,7.52l1.91-.11c.3,1.21.55,2.25.83,3.44l1-.94A10.56,10.56,0,0,0,648.62,130.58ZM376.13,146.25c.44-1.59,1-3.16,1.25-4.77.09-.5-.43-1.11-.67-1.67-.37.31-.92.54-1.08.93-1.6,3.93-3.11,7.91-4.68,11.85-.58,1.44-1.31,2.82-1.86,4.26a28,28,0,0,0-.83,3c1.42-.09,2.29-.38,3-.14,1.47.5,1.89-.5,2-1.41a14.41,14.41,0,0,0-.43-3.48c-.08-.5-.5-1.1-.34-1.45,1.18-2.43,2.46-4.81,3.71-7.21ZM916.31,72.14l-9.78,1.15,1.69,1.06c0,.24,0,.49-.05.73-2.84.07-5.69.24-8.54.15-2.1-.07-3.29.53-3.15,2.82,7,.22,14.72-1.06,18.78-3.23l-5.14-.53v-.52l6.26-.68C916.35,72.77,916.33,72.46,916.31,72.14ZM736.68,231.34q-10.86,14.81-21.6,29.52c-.11.16.07.53.11.84C717.68,260.59,736.75,233.63,736.68,231.34Zm255.85-54.23.87-4.69a2.55,2.55,0,0,1-.2-4.07,5.42,5.42,0,0,0,1.72-2.61,35.07,35.07,0,0,0,.08-5.43l-.4-.05-5.73,21,.78-.15,1.45,2.1.27-1.85C989.14,179.23,991.65,178.39,992.53,177.11Zm-780.4,77.46c3.4-2.06,6.81-4.09,10.17-6.21.43-.27.94-1.18.79-1.48a23.54,23.54,0,0,0-2.06-3c-.49.63-1.36,1.24-1.41,1.9-.16,2.69-.23,2.79-3.14,2.29a6.94,6.94,0,0,0-2,.36l1.57,1-4.56,4.75ZM174.26,292c.91-.63,1.84-1.22,2.71-1.91.42-.33,1.1-1.06,1-1.23-1.2-2.09.65-3.24,1.52-4.45,2.74-3.79,5.73-7.39,8.6-11.09a12.53,12.53,0,0,0,.95-1.73c-.79-.07-1.22.11-1.45.43q-6.6,9-13.12,18.16c-.31.43-.12,1.23-.17,1.86ZM797.51,81.85c-1.71-1.06-16,.31-17.49,2.29l17.49-1.54ZM571.74,127.12l27.21-3c0-.32-.08-.64-.11-1l-27.15,3.28ZM822.58,84.73c3.35,0,6.71.09,10.06.11.2,0,.39-.21.59-.33,1.69-1,3.42-1.57,4.75-.67l3.57-2.1-.11-.38-19.55,2.8C822.36,84.56,822.47,84.73,822.58,84.73Zm-59.4,235.7L760,324c1.13-.76,2.3-1.46,3.39-2.28,3.34-2.5,6.65-5,10-7.56l-.47-1.39ZM462.43,342.08l12.43-19.75-.51-.32c-4.35,6.46-9,12.72-12.57,19.66Zm428.05-183.7a8.46,8.46,0,0,0-1.19,2.07c-2.08,8-4.09,15.91-6.11,23.88-.17.66-.24,1.35-.35,2l.56.12,2.7-10.74q2.17-8.7,4.37-17.38ZM489.94,263.68l2,2.43c3.94-6.73,4.62-9.76,2.45-12-.61,2.15-1.05,4-1.69,5.88a31.77,31.77,0,0,1-1.68,3.48ZM398.35,391.39c3.66-3.66,7.22-7.4,9.48-12.18a136.5,136.5,0,0,0-9.58,11c-.19.23.09.83.15,1.25ZM745.52,218.65l9.9-16-.81-.49-9.83,16ZM623.88,169.2c2.29-6.34,4.41-12.21,6.62-18.36C628.2,153.24,623.14,166.74,623.88,169.2Zm308.69-21.72q-3.24,13.41-6.5,26.83l.57.13,6.51-26.85ZM771,369.09q3.64-9.49,7.28-19l-.56-.23L770,368.71ZM727,133a45.64,45.64,0,0,0-2.33,5.44,48.34,48.34,0,0,0-1,6.14C726,142.35,727.88,135.12,727,133ZM893,76.28c-3.12.27-5.79-.73-8.53.81C886.36,79.78,887.59,79.66,893,76.28Zm23.08-55.52c.18.23.81.09,1.23.12,0-.36,0-.72.07-1.08a10.65,10.65,0,0,0,.22-1.47,3.35,3.35,0,0,0-.28-1.66c-1.13-1.74-2.62,0-4.26-.06C914,18,915,19.42,916.05,20.76ZM334.38,275l6.75-19.6-.64-.22-6.61,19.6Zm417.7,63.08-9.56,8.08.47.89c.48-.11,1.09-.06,1.39-.35.85-.8,1.51-1.8,2.36-2.59,1.81-1.66,3.7-3.22,5.5-4.88.16-.15-.12-.78-.2-1.19ZM552.33,205.27l6.61-12.15-.84-.46-6.54,12.16ZM778.67,347.88,785,332.59l-.8-.32Q781.13,340,778,347.63ZM975.88,104.22c-3.42,2.16-6.37,4.11-5,8.41l1.93-3Zm-95.64,94.37q-1.1,6.41-2.2,12.81l.62.12q1.23-6.39,2.47-12.77ZM279,506.08c4.29-1.37,6.18-5.37,9.13-8.21a2.81,2.81,0,0,0-1.65.89c-1,1.05-2,2.19-3,3.21-1.45,1.42-3,2.77-4.44,4.14Zm24.81-91.36.85.11,1.56-8.49-1.84-.38ZM883.19,194.35Q881.57,203.17,880,212l.45.07q1.67-8.7,3.32-17.42Zm-6,32.22.84-12.48-.71-.05c-.36,4.37-.71,8.73-1.09,13.38l1-.89Zm2.29-5v-6.64c-.24,1.58-.4,3-.7,4.49-.48,2.39-1,4.77-1.59,7.15l0,0c.13.89.26,1.79.43,3,.67-2.9,1.26-5.44,1.84-8Zm-336.93-1-5.39,12.92.49.2,5.49-12.95ZM368.49,174.81a22.89,22.89,0,0,1,1.46-3.07,1.88,1.88,0,0,0-1-3l-1.53,5.38ZM937,269.94c-4.15.91-7.55,3.19-10.89,5.57.09.18.19.35.28.52L937,269.9Zm-14.73,8-10.41,10.53.36.35,10.21-10.73ZM292.84,438.65l-7.65,7.72.08.06,7.52-7.86Zm52.57-222.6c2.23.28,2.47-1.59,3-3,.16-.37-.32-1-.51-1.54-.5.24-1.29.37-1.44.74a35.19,35.19,0,0,0-1.06,3.81Zm374.4,44.32,4.85-7.08-.76-.53-4.82,7.09ZM752,338c2.53-.37,3.83-2.12,5.11-4.45-2,.24-3.74.12-3.93,2.59-.05.66-.74,1.27-1.14,1.9ZM638.73,371l-1.34-1.74c1.82,0,3.74.77,4-1.72-2.25-.35-4.55,1.59-4.87,4.08l2.29-.66Zm317.72-29.38-2.89,4.94,1,.58c1-1.61,2-3.23,3.07-4.84ZM635.55,119.77l-8.48.85,0,.58,8.44-.44ZM725,368.32a9,9,0,0,1-1.11,1.88c-.84.89-1.87,1.61-2.73,2.49a2.16,2.16,0,0,0-.43,1.38c0,.23.65.7.74.65a3.92,3.92,0,0,0,1-1,11.83,11.83,0,0,0,1.49-2.2,29.51,29.51,0,0,0,1-3.23ZM376.16,146.2c.63,1,1.43,1,1.85,0,.77-1.88,1.3-3.86,1.94-5.79l-.41-.1-3.41,6Zm362.44,207c1.82-.47,2.61-1.86,3-3.56l-.65-.59-3,3.5Zm146.22-34.79-5,7.8.28.18,3.09-3.73,1.62-2.41Zm-123.14-127c-.88,1.19-1.84,2.33-2.62,3.57s-1.38,2.59-2,3.89l.39.22,4.74-7.39Zm-6.17,13.23-4.59,7.47.62.37q2.26-3.76,4.54-7.53ZM929.29,167.2l-1.71,8.13.93.17,1.35-8.29ZM551,202.47l.12.07,5.41-10-.16-.1L554.18,195l-1.66,3ZM158.65,290.06q-.92,3.33-1.84,6.68l.72.17,2.12-6.65Zm551.76,44.61c.58-1,1.21-2,1.74-3s1-2.18,1.5-3.28l-.93-.41q-1.43,3.24-2.83,6.49Zm14.51,33.62c1.55-.7,3.14-1.33,4.62-2.16.41-.23.49-1.06.72-1.61-.59.05-1.37-.11-1.73.2-1.27,1.12-2.39,2.39-3.57,3.6Zm-278.8,21-3.33,6.09,1,.53c1-2.1,2-4.19,3-6.28ZM702.34,353.9c.75-1.87,1.51-3.75,2.27-5.62L704,348c-1.43,1.59-1.73,3.68-2.43,5.6ZM313.59,466.41l-4.19,6.19.76.49,4-6.31ZM587.2,187.63c-2.21,1.21-2.21,1.21-1.28,6.29.48-2.42.86-4.37,1.24-6.32Zm-39.68-57.81-7,1.11c.05.26.09.52.14.78l7-1.12C547.65,130.33,547.59,130.07,547.52,129.82Zm213.39,276c-2.81,0-2,3.4-3.38,4.71l4-4ZM496.63,246.55l-.69,5.28c.93-1.64,2.95-3,1.52-5.16Zm121.17,5.28c3-.72,4-2.13,3.93-4.62ZM119.46,278.47,117,284.71l.83.32c.76-2.1,1.53-4.19,2.29-6.29Zm813-118.83c.41-1.41.83-2.82,1.24-4.22l-1-.31c-.44,1.39-.87,2.78-1.31,4.17Zm-6.83,31.28-.54.12c-.25,1.32-.51,2.64-.77,4l.9.29c.32-.94.64-1.88,1-2.83v.08Zm-.74-12c-.25,2.07-.51,4.13-.85,6.81l2.26-1.23-.17-.45h-1.59c.32-1.78.61-3.42.9-5.06Zm-136.19,50.3q-1.05,3-2.12,6.11l.54.2,3-7-1.46.73Zm28.47-57.17-3.68,7.58.34.17,3.86-7.47Zm79.9-37.73c-.59,2-1.19,4.06-1.78,6.09l.63.17c.6-2.06,1.19-4.11,1.78-6.17Zm-420.52,4.6-3.79.3,0,0,2.57,2,1.21-2.31ZM772.07,319l-4.25,3.21.51.64,4.27-3.18ZM332.2,282.61c.56-1.86,1.13-3.71,1.7-5.57l-.72-.22c-.58,1.85-1.17,3.7-1.75,5.55ZM890.45,158.36q1.11-3.39,2.2-6.77l-1-.25-1.17,7Zm-8.74,33-1,5.51.7.11,1.1-5.49Zm-300.59,13,.65.23c.41-1.36.83-2.72,1.24-4.08l.06.05C580.46,200.94,581.12,202.8,581.12,204.36ZM423.49,377.14l1.88-3.34-.83-.5-2,3.3Zm-50.87,43.64c-1,1.53-1.93,3.05-2.89,4.57l.72.45q1.43-2.3,2.83-4.61Zm261.13-42.51-4.43,1.52C630.26,381,632.24,380.47,633.75,378.27ZM737.32,233.86c-1,1.45-1.92,2.91-2.89,4.36l.64.41,2.78-4.45Zm231-195.6L970,33.91l-.74-.3-1.66,4.28ZM900,302.93a.33.33,0,0,0-.18-.09l-5.35,6.21c1.88-2,3.75-3.95,5.62-5.92A.61.61,0,0,0,900,302.93ZM1.08,397.39c.5,1.91,1.38,3.53,3.54,4.15L1.1,397.37C1.25,397.29,1.08,397.36,1.08,397.39ZM775.62,317l5.23-2.11-.31-.75-5.15,2.2ZM618.22,121.32l-5.7.61.07.63,5.7-.55C618.27,121.78,618.24,121.55,618.22,121.32Zm-409,129.56,3.75-3.31-.47-.54-3.88,3.1ZM808.14,190l-2.59,5.5.44.21,2.75-5.42ZM997,152.66c-.33,1.24-.64,2.36-1,3.74C998,155.63,998.4,154.46,997,152.66Zm-652.55,93.9,1.84-5.07-.71-.23c-.53,1.72-1.05,3.44-1.58,5.16ZM128.21,305.67c.5-1.74,1-3.47,1.51-5.21l-.57-.19c-.58,1.7-1.15,3.41-1.73,5.11Zm655.23-63.25,2.24-4.09C784.24,239.31,782.45,240.16,783.44,242.42ZM529.61,345.68l-4.11,3.38.39.46,4.13-3.43ZM355.43,452.28l3-5.13-.33-.21-3.14,4.9Zm295.86-328-1.35-3.53-.78.25,1.08,3.67Zm152.37-36.9,4.5-.24-.08-.93-4.48.54ZM994,28.74l1.28-3.08-.83-.37-1.42,3ZM236.85,264.56l.71-4.63-.73-.11-.68,4.64Zm476.68-1.15-.3-.2-2.29,2.66h2C713.13,265.09,713.33,264.25,713.53,263.41ZM906.26,296l-3.93,3,.53.49,3.17-3.6ZM541.69,234.2l2.27-5.64-.34-.13q-1.11,2.79-2.21,5.6ZM151.93,309l.18,3.16h.77l.34-3.13Zm612.81,75.18c0-.64.08-1.28.15-2.32l-3,6,2.8-3.6ZM443.31,443.79l-2.29,5.7.51.2c.75-1.9,1.51-3.8,2.26-5.71ZM772.51,84.45l3,.14C774.36,82.55,773.8,82.53,772.51,84.45ZM747,219.6c1-1.64,2-3.27,3-4.91l-.49-.29c-1,1.65-2,3.29-3,4.93ZM603.7,123.41l4.86-.63-.06-.49-4.9.57Zm36.48,2-1.71,4.27.47.2c.63-1.4,1.25-2.81,1.88-4.21ZM766.55,377.91c.71-1.71,1.43-3.41,2.14-5.12l-.55-.22-2,5.18ZM644.19,130.81c.14-1,.26-1.76.45-3.08C642.52,129.18,642.5,129.4,644.19,130.81Z" style="fill:none"/></clipPath></defs><title>evidence</title><g id="Layer_2" data-name="Layer 2"><g id="assets"><g id="evidence"><g id="evidence-2" data-name="evidence"><g style="clip-path:url(#clip-path)"><path class="animate" d="M117,265.53,35.91,343.42l-13.4,51.06s33.43,6.34,58.18-15c17-14.67,29.09-38.53,44.78-57.84,27-33.24,53.55-60.52,54.07-58.56C180.8,267.8,140,368.4,140,368.4l94.68-116-32.84,99.86L314,227.31,265.46,345.94,371.29,136.46l-31,90.6L305.1,344,486.33,183.21,422,312.17l73.94-60.34-14.51,56,93.91-144.12L528,289.84,661.08,90.3,584.25,302.85S458.44,146.72,461.47,144.65,744.78,99.51,744.78,99.51L692.13,265.92,782.59,145.1l.85,97.32,62-141.61-6.83,126,29.69-114.29,81.92-85-72.57,202L779,76.16,999.09,48.3,986.65,9.76,926.57,212.87l90.51-124.69L991.82,205.29l-692-6.7L279.19,389.34,239.1,505.93l101.4-96.61-1.8,91.07,93.76-140.76L408.87,490.36l66-168L546,343.24,474.61,485.65,631.08,252.16,535.36,473.48,674.63,316.23,601.57,432l43.6-7.55,94.7-128-57.5,138.12L760,324l33.7-19.78-34.17,119.1L868.73,277.48,818.48,403.14,943.56,268.6,884.82,382.75l83.07-99.84L919.07,387.82l47.2-52.71" transform="translate(3.49 16.24)" style="fill:none;stroke:#000;stroke-linecap:round;stroke-linejoin:round;stroke-width:52px"/></g></g></g></g></g></svg>