<svg xmlns="http://www.w3.org/2000/svg" viewBox="0 0 112.4 38.09"><title>fhi-logo-white</title><g id="Layer_2" data-name="Layer 2"><g id="Layer_1-2" data-name="Layer 1"><path d="M53.62,5a4.45,4.45,0,0,1-8.89,0,4.45,4.45,0,0,1,8.89,0" style="fill:#fff"/><path d="M38.21,10.3c-3.61,0-7.17,2.27-8.8,3.51V.8s-1.8,0-4-.15S20.05.09,19.27.06,17.51,0,16.65,0C10.39,0,4.76,2.68,4.76,8.47v2.79H0V16.2H4.76V38.09H12.7V16.2h5V11.26h-5V9.94c0-2.62,1.64-3.73,5.53-3.73h1c.65,0,1.28,0,1.88,0V38.09h8.26V19a14.42,14.42,0,0,1,6-1.48c2.76,0,3.6.64,3.6,4.35V38.09h8.21v-17c0-6.14-.59-10.83-9-10.83" style="fill:#fff"/><path d="M59.5,38.09H51.29v-17c0-6,.37-10.59,8.21-10.82Z" style="fill:#fff"/><path d="M76.27,23.69c2.11-1.22,3.13-3.18,3.13-6A7.05,7.05,0,0,0,72,10.27a7.19,7.19,0,0,0-7.6,6.89l0,.48h2.76l0-.39c.33-2.86,2-4.44,4.84-4.44s4.68,1.93,4.68,4.91c0,3.28-1.56,4.87-4.79,4.87H71v2.54h.88c3.63,0,5.32,1.66,5.32,5.21A4.91,4.91,0,0,1,72,35.54c-1.45,0-4.87-.44-5.21-4.61l0-.4H64L64,31c.29,4.44,3.27,7.09,8,7.09s7.93-3,7.93-7.75c0-3.3-1.19-5.48-3.65-6.65" style="fill:#fff"/><path d="M88.8,24.65c3.46,0,4.69,2.93,4.69,5.43,0,3.35-1.8,5.43-4.69,5.43s-4.65-2.08-4.65-5.43,1.78-5.43,4.65-5.43M89,22.11a8.31,8.31,0,0,0-2.21.29L92.7,10.53H89.83L82.91,24.47a12.47,12.47,0,0,0-1.52,5.72c0,4.77,2.92,7.86,7.45,7.86,4.36,0,7.41-3.34,7.41-8.12,0-4.6-3-7.82-7.26-7.82" style="fill:#fff"/><path d="M105,35.51c-3.4,0-4.61-2.65-4.61-5.13V18c0-2.48,1.21-5.13,4.61-5.13s4.61,2.65,4.61,5.13v12.4c0,2.48-1.21,5.13-4.61,5.13m0-25.2a7.2,7.2,0,0,0-7.38,7.49V30.56A7.2,7.2,0,0,0,105,38.05a7.12,7.12,0,0,0,7.38-7.49V17.8A7.12,7.12,0,0,0,105,10.31" style="fill:#fff"/></g></g></svg>