<svg xmlns="http://www.w3.org/2000/svg" viewBox="0 0 226.41 76.73"><title>fhi-logo-dark</title><g id="Layer_2" data-name="Layer 2"><g id="scrap"><path d="M108,10a9,9,0,0,1-17.9,0A9,9,0,0,1,108,10" style="fill:#231f20"/><path d="M77,20.74c-7.27,0-14.44,4.58-17.73,7.07V1.61s-3.64,0-8-.3S40.4.18,38.83.11C37.05,0,35.27,0,33.54,0,20.93,0,9.59,5.41,9.59,17.06v5.61H0v10H9.59V76.73h16V32.64h10v-10h-10V20c0-5.29,3.29-7.53,11.13-7.53l2.11,0c1.31,0,2.56.06,3.78.11v64.1H59.25V38.17a29,29,0,0,1,12.16-3c5.57,0,7.26,1.3,7.26,8.77V76.73H95.21V42.56C95.21,30.2,94,20.74,77,20.74" style="fill:#231f20"/><path d="M119.85,76.72H103.32V42.56c0-12,.74-21.32,16.53-21.8Z" style="fill:#231f20"/><path d="M153.65,47.72c4.24-2.46,6.3-6.41,6.3-12,0-9-6-15-15-15-8.6,0-14.46,5.31-15.31,13.88l-.09,1h5.57l.09-.78c.65-5.77,4.11-8.94,9.74-8.94s9.43,3.88,9.43,9.89c0,6.6-3.15,9.81-9.65,9.81h-1.78v5.12h1.78c7.3,0,10.7,3.33,10.7,10.48,0,6.28-4.18,10.49-10.41,10.49-2.92,0-9.8-.9-10.48-9.29l-.07-.8H128.9l.06.93c.59,8.94,6.58,14.28,16,14.28,9.72,0,16-6.12,16-15.61,0-6.64-2.4-11-7.34-13.39" style="fill:#231f20"/><path d="M178.88,49.66c7,0,9.44,5.89,9.44,10.94,0,6.74-3.61,10.93-9.44,10.93s-9.36-4.19-9.36-10.93,3.58-10.94,9.36-10.94m.38-5.12a17.14,17.14,0,0,0-4.44.57l11.91-23.9H181L167,49.29c-2.21,4.58-3.07,7.82-3.07,11.52,0,9.62,5.89,15.84,15,15.84,8.79,0,14.93-6.72,14.93-16.36,0-9.27-6-15.75-14.63-15.75" style="fill:#231f20"/><path d="M211.56,71.53c-6.86,0-9.3-5.34-9.3-10.34v-25c0-5,2.44-10.33,9.3-10.33s9.29,5.34,9.29,10.33v25c0,5-2.45,10.34-9.29,10.34m0-50.77c-8.62,0-14.87,6.35-14.87,15.09V61.57c0,8.73,6.25,15.08,14.87,15.08s14.85-6.2,14.85-15.08V35.85c0-8.88-6.11-15.09-14.85-15.09" style="fill:#231f20"/></g></g></svg>