<svg xmlns="http://www.w3.org/2000/svg" viewBox="0 0 323.39 79.1">
<title>fhi-logo-2020</title>
  <path  class="cls-1-2020-logo" d="M49.69 20a4.35 4.35 0 10-4.49-4.35A4.42 4.42 0 0049.69 20zm-31.27-3.13h1.06c.65 0 1.28 0 1.89.05v32.16h8.35V29.74a14.5 14.5 0 016.1-1.5c2.79 0 3.64.65 3.64 4.4v16.44h8.3V31.94c0-6.2-.6-10.94-9.15-10.94-3.64 0-7.24 2.3-8.89 3.54V11.4s-1.83 0-4-.15-5.46-.57-6.24-.6-1.79-.06-2.66-.06c-6.32 0-12 2.72-12 8.56V22H0v5h4.81v22.08h8V27h5v-5h-5v-1.36c.03-2.64 1.68-3.77 5.61-3.77zM60.12 21c-7.92.24-8.3 4.9-8.3 10.93v17.15h8.3zm16.95 13.53c2.13-1.23 3.16-3.21 3.16-6A7.13 7.13 0 0072.7 21a7.26 7.26 0 00-7.67 7v.49h2.79v-.39c.32-2.9 2.06-4.49 4.88-4.49s4.73 1.95 4.73 5c0 3.31-1.58 4.92-4.84 4.92h-.89V36h.89c3.66 0 5.41 1.66 5.41 5.25a5 5 0 01-5.22 5.26c-1.46 0-4.91-.45-5.26-4.66v-.4h-2.86v.47c.29 4.48 3.3 7.16 8 7.16s8-3.07 8-7.83c.1-3.33-1.11-5.54-3.59-6.72zm12.85-1.59a8.46 8.46 0 00-2.23.28l6-12h-2.9l-7 14.09a12.52 12.52 0 00-1.54 5.78c0 4.82 3 7.94 7.53 7.94 4.41 0 7.49-3.37 7.49-8.2-.01-4.64-3.03-7.89-7.35-7.89zm-.19 13.53c-2.9 0-4.7-2.1-4.7-5.48s1.8-5.49 4.7-5.49c3.5 0 4.74 3 4.74 5.49 0 3.38-1.82 5.48-4.74 5.48zM106.12 21a7.27 7.27 0 00-7.46 7.57v12.9a7.27 7.27 0 007.46 7.53 7.18 7.18 0 007.45-7.56V28.58a7.18 7.18 0 00-7.45-7.58zm4.66 20.28c0 2.5-1.23 5.18-4.66 5.18s-4.66-2.68-4.66-5.18V28.76c0-2.5 1.22-5.18 4.66-5.18s4.66 2.68 4.66 5.18zM4.79 57H6v4h.68v-4h1.13a3.92 3.92 0 00.05-.59H4.79zm6.77 1.33H9.54v-1.89h-.67v4.63h.67v-2.14h2.02v2.14h.67v-4.63h-.67v1.89zm2.87.67h1.41v-.59h-1.41V57h1.86a3 3 0 00.06-.59h-2.59v4.63h2.64a3 3 0 00.06-.59h-2zm5.26-1.4c0-.38.19-.65.82-.65a4.52 4.52 0 011 .12 3.41 3.41 0 00.1-.6 5.32 5.32 0 00-1-.1c-.93 0-1.6.45-1.6 1.29 0 1.34 2.1 1.22 2.1 2.21 0 .45-.27.69-.8.69a2.88 2.88 0 01-1.15-.23 2.68 2.68 0 00-.15.59 3.31 3.31 0 001.24.22c.95 0 1.54-.52 1.54-1.33 0-1.41-2.1-1.33-2.1-2.21zm5.07 2.94c-.89 0-1.28-.54-1.28-1.78S23.94 57 24.75 57a2.33 2.33 0 011 .23c0-.19.1-.42.12-.6a2.71 2.71 0 00-1.17-.23c-1.15 0-2 .72-2 2.38s.68 2.39 2 2.39a2.51 2.51 0 001.3-.34 2.91 2.91 0 00-.13-.6 2.1 2.1 0 01-1.11.31zm2.35-4.1h.67v4.63h-.67zM30 59h1.4v-.59H30V57h1.86a3 3 0 00.06-.59h-2.6v4.63H32a3 3 0 00.06-.59H30zm6 .5a4.58 4.58 0 000 .5 3.29 3.29 0 00-.23-.5l-1.83-3.11a4.11 4.11 0 00-.69.06v4.58h.6v-3.15a5.29 5.29 0 000-.53 3.39 3.39 0 00.22.5L36 61.1a4 4 0 00.61-.05v-4.61H36zm3.88 1.04c-.89 0-1.28-.54-1.28-1.78S39.06 57 39.87 57a2.33 2.33 0 011 .23c0-.19.1-.42.12-.6a2.71 2.71 0 00-1.17-.23c-1.15 0-2 .72-2 2.38s.68 2.39 2 2.39a2.51 2.51 0 001.24-.31 2.91 2.91 0 00-.13-.6 2.1 2.1 0 01-1.05.28zM42.91 59h1.41v-.59h-1.41V57h1.86a4 4 0 000-.59h-2.54v4.63h2.65a4 4 0 000-.59h-2zm6.47-2.63c-1.19 0-1.91.82-1.91 2.41s.7 2.36 1.91 2.36 1.9-.75 1.9-2.39-.71-2.38-1.9-2.38zm0 4.18c-.84 0-1.19-.51-1.19-1.8s.4-1.75 1.18-1.75 1.19.44 1.19 1.79-.36 1.76-1.18 1.76zm3.17.52h.67v-2h1.55v-.59h-1.55V57h1.9v-.59h-2.57zm5.35-4.63h.67v4.63h-.67zm5.63 0l-1.05 3.34a2.17 2.17 0 00-.09.53 3.43 3.43 0 00-.1-.52l-1.07-3.35h-.76A49.25 49.25 0 0060 61a2.63 2.63 0 00.57.05l.3-3.31v-.44a3.21 3.21 0 00.08.44l1 3.29h.63l1-3.29a3.21 3.21 0 00.08-.44v.44l.26 3.31a3.45 3.45 0 00.64-.05c-.1-1.52-.25-3.06-.42-4.6zm3.91-.05a10.29 10.29 0 00-1.32.1v4.58h.67v-1.69h.62A1.45 1.45 0 0069 57.85a1.38 1.38 0 00-1.56-1.46zm-.12 2.44h-.53V57h.63a.82.82 0 01.89.92.88.88 0 01-.99.91zm4.8.17a1.26 1.26 0 00.94-1.25c0-1-.69-1.33-1.51-1.33a11.78 11.78 0 00-1.33.1v4.58h.66v-1.9h.67a4.44 4.44 0 01.77 1.18l.38.75a2.76 2.76 0 00.71-.08l-.51-1a3.52 3.52 0 00-.78-1.05zm-.68-.33h-.56V57a6.39 6.39 0 01.64 0 .75.75 0 01.86.83c0 .53-.38.81-.94.81zm4.69-2.3c-1.18 0-1.91.82-1.91 2.41s.71 2.36 1.91 2.36 1.9-.75 1.9-2.39-.71-2.38-1.9-2.38zm0 4.18c-.84 0-1.19-.51-1.19-1.8s.4-1.75 1.18-1.75 1.19.44 1.19 1.79-.31 1.76-1.18 1.76zm4.6-.55a2 2 0 00-.07.37c0-.12 0-.26-.07-.37l-1.07-3.56a5.42 5.42 0 00-.66 0c.43 1.56.92 3.12 1.45 4.6H81c.53-1.49 1-3 1.45-4.6a4.07 4.07 0 00-.61 0zm2.75-3.56h.67v4.63h-.67zm4.97 3.06a4.58 4.58 0 000 .53 2.07 2.07 0 00-.23-.5l-1.82-3.11a4 4 0 00-.69.06v4.58h.6v-3.18a3.49 3.49 0 000-.53 3.36 3.36 0 00.23.5l1.91 3.25a4.07 4.07 0 00.61-.05v-4.61h-.6zm3.79-.22h.85v1.14a2.15 2.15 0 01-.7.12c-.85 0-1.35-.42-1.35-1.77s.53-1.8 1.41-1.8a2.59 2.59 0 011.07.23 3.32 3.32 0 00.13-.61 3.21 3.21 0 00-1.23-.22c-1.26 0-2.1.72-2.1 2.38s.67 2.39 2.06 2.39a3.26 3.26 0 001.37-.31v-2.14h-1.58a2.32 2.32 0 00.07.59zm5.19-2.84h-.68v4.63h2.5a4 4 0 000-.6h-1.82zm2.93 0h.67v4.63h-.67zM104 60a2 2 0 00-.08.37c0-.12 0-.26-.07-.37l-1.07-3.56a5.13 5.13 0 00-.65 0c.42 1.56.92 3.12 1.44 4.6h.71c.54-1.49 1-3 1.46-4.6a4.18 4.18 0 00-.61 0zm3.42-1h1.4v-.59h-1.4V57h1.86a4 4 0 000-.59h-2.59v4.63h2.65a4 4 0 000-.59h-2zm3.68-1.4c0-.38.2-.65.82-.65a4.44 4.44 0 011 .12 2.68 2.68 0 00.1-.6 5.32 5.32 0 00-1-.1c-.93 0-1.6.45-1.6 1.29 0 1.34 2.1 1.22 2.1 2.21 0 .45-.27.69-.8.69a2.88 2.88 0 01-1.15-.23 3.39 3.39 0 00-.15.59 3.35 3.35 0 001.24.22c1 0 1.55-.52 1.55-1.33 0-1.41-2.11-1.33-2.11-2.21zM138.61 0h.61v79.1h-.61zm62.13 51.34h26v4.29h-26zm43.03-28.59h-2.1V20.6h-1.16v5.38h1.16v-2.23h2.1v2.23h1.16V20.6h-1.16v2.15zm2.31-2.53h1.13v.97h-1.13zm0 1.69h1.13v4.06h-1.13zm3.7 3.3a2.7 2.7 0 01-1.27-.37l-.43.78a3.47 3.47 0 001.72.45c1 0 1.68-.46 1.68-1.32 0-1.55-2.21-1.07-2.21-1.75 0-.26.21-.39.55-.39a2.85 2.85 0 011.12.29l.4-.78a3.56 3.56 0 00-1.54-.36c-.87 0-1.63.45-1.63 1.28 0 1.55 2.23 1.08 2.23 1.78 0 .27-.24.39-.62.39zm5.37.44l-.41-.67a1 1 0 01-.56.18c-.27 0-.38-.15-.38-.46v-2.05h1.13v-.8h-1.13v-1h-1.13v1H252v.8h.65v2.07c0 .92.42 1.35 1.28 1.35a2 2 0 001.22-.42zm4.53-1.78a2.07 2.07 0 10-4.13 0 2.07 2.07 0 104.13 0zm-2.05 1.35c-.61 0-.95-.53-.95-1.34s.38-1.27.95-1.27.92.51.92 1.27-.34 1.34-.92 1.34zm4.08-1.72c.26-.48.54-.74 1-.74a1.72 1.72 0 01.56.09l.16-1a1.56 1.56 0 00-.51-.08 1.27 1.27 0 00-1.17.75l-.08-.64h-1V26h1.12zm4.13 1.07l-.91-2.72h-1.13l1.5 4.08-.13.34a.51.51 0 01-.55.42 1.74 1.74 0 01-.56-.13l-.3.87a2.91 2.91 0 00.93.16c.73 0 1.22-.28 1.61-1.39l1.54-4.35h-1.09zm8.66-.7a2.07 2.07 0 10-4.14 0 2.07 2.07 0 104.14 0zm-2.06 1.35c-.6 0-.94-.53-.94-1.34s.38-1.27.94-1.27.93.51.93 1.27-.37 1.34-.93 1.34zm5.04-4.22a2 2 0 01.6.1l.27-.77a3.08 3.08 0 00-.94-.18c-1 0-1.69.42-1.69 1.6v.2h-.65v.8h.65V26h1.13v-3.29h1v-.79h-1v-.23c0-.47.15-.69.63-.69zm6.43 3.75c0-1.55-2.21-1.07-2.21-1.75 0-.26.22-.39.55-.39a2.85 2.85 0 011.12.29l.4-.78a3.55 3.55 0 00-1.53-.36c-.88 0-1.64.45-1.64 1.28 0 1.55 2.23 1.08 2.23 1.78 0 .27-.23.39-.61.39a2.73 2.73 0 01-1.28-.37l-.43.78a3.47 3.47 0 001.72.45c.98 0 1.68-.46 1.68-1.32zm2.77 1.32a2 2 0 002.06-2.2 2.07 2.07 0 10-4.14 0 2 2 0 002.08 2.2zm0-3.46c.55 0 .92.51.92 1.27s-.34 1.34-.92 1.34-.95-.53-.95-1.34.38-1.27.95-1.27zm2.99-2.43h1.13v5.79h-1.13zm4.76 4.57a1.14 1.14 0 01-.89.47c-.4 0-.53-.25-.53-.62v-2.75h-1.13v2.73c0 .93.38 1.49 1.31 1.49a1.79 1.79 0 001.26-.57l.07.47h1v-4.12h-1.13zM299 25a1 1 0 01-.56.18c-.26 0-.37-.15-.37-.46v-2.07h1.12v-.8h-1.12v-1H297v1h-.65v.8h.65v2.07c0 .92.41 1.35 1.27 1.35a2 2 0 001.21-.42zm1.16-3.09h1.13v4.06h-1.13zm0-1.69h1.13v.97h-1.13zm6.18 3.65a2.07 2.07 0 10-4.14 0 2.07 2.07 0 104.14 0zm-2.06 1.35c-.61 0-.94-.53-.94-1.34s.37-1.27.94-1.27.92.51.92 1.27-.34 1.34-.92 1.34zm5.52-2V26h1.12v-2.75c0-.93-.39-1.5-1.31-1.5a1.74 1.74 0 00-1.25.58l-.05-.48h-1.06V26h1.12v-2.92a1.11 1.11 0 01.89-.48c.38 0 .54.25.54.62zm3.14-.22c0-.26.21-.39.55-.39a2.85 2.85 0 011.12.29l.4-.78a3.55 3.55 0 00-1.53-.36c-.88 0-1.64.45-1.64 1.28 0 1.55 2.23 1.08 2.23 1.78 0 .27-.23.39-.62.39a2.7 2.7 0 01-1.27-.37l-.43.78a3.47 3.47 0 001.72.45c1 0 1.68-.46 1.68-1.32 0-1.55-2.21-1.07-2.21-1.75zm-72.43 11.45h1.16V32.3h2.32v-.95h-2.32v-1.26h2.69v-1.01h-3.85v5.37zm7.16-1.22a1.17 1.17 0 01-.9.47c-.39 0-.52-.25-.52-.62v-2.75h-1.13v2.73c0 .92.38 1.48 1.31 1.48a1.83 1.83 0 001.26-.56l.07.47h1v-4.12h-1.13zm4.02.41c-.26 0-.38-.15-.38-.46v-2.05h1.13v-.8h-1.13v-1h-1.12v1h-.66v.8h.66v2.07c0 .92.41 1.34 1.27 1.34a2 2 0 001.21-.41l-.42-.68a.92.92 0 01-.56.19zm4.23-.41a1.2 1.2 0 01-.9.47c-.4 0-.53-.25-.53-.62v-2.75h-1.13v2.73c0 .92.39 1.48 1.31 1.48a1.83 1.83 0 001.26-.56l.07.47h1.05v-4.12h-1.13zm3.32-2.23l-.08-.64h-1v4.12h1.12V32c.26-.47.54-.73 1-.73a1.46 1.46 0 01.56.09l.16-1a1.56 1.56 0 00-.51-.08 1.27 1.27 0 00-1.25.72zm4.11-.77a2 2 0 00-2.07 2.13 2 2 0 002.08 2.19 2.86 2.86 0 001.69-.54l-.47-.71a2.07 2.07 0 01-1.14.35c-.62 0-.95-.34-1-1h2.72a3.73 3.73 0 000-.5 1.72 1.72 0 00-1.81-1.92zm-.9 1.74c.11-.6.47-.93.93-.93s.74.4.74.93zm7.55-1.73a2.15 2.15 0 102 2.11 2 2 0 00-2-2.11zm0 3.46c-.6 0-.94-.53-.94-1.34s.37-1.27.94-1.27.92.51.92 1.27-.35 1.34-.92 1.34zm3.26-3.51v.2h-.66v.79h.66v3.27h1.13v-3.27h1v-.78h-1v-.23c0-.48.19-.73.62-.73a2 2 0 01.61.1l.27-.77a2.81 2.81 0 00-.94-.18c-.95 0-1.69.41-1.69 1.6zm7.33.05a1.57 1.57 0 00-1.2.59l-.09-.5h-1V36h1.11v-2a1.66 1.66 0 001.21.53c.92 0 1.58-.75 1.58-2.2s-.66-2.09-1.61-2.09zm-.34 3.44a1.08 1.08 0 01-.85-.4v-1.75a1.11 1.11 0 01.85-.43c.55 0 .82.44.82 1.25s-.27 1.33-.82 1.33zm4.75-3.44a2.15 2.15 0 102 2.11 2 2 0 00-2-2.11zm0 3.46c-.6 0-.94-.53-.94-1.34s.38-1.27.94-1.27.93.51.93 1.27-.36 1.34-.93 1.34zm3.91-2.23c0-.25.22-.38.55-.38a2.85 2.85 0 011.12.29l.4-.78a3.55 3.55 0 00-1.53-.36c-.88 0-1.64.44-1.64 1.28 0 1.54 2.23 1.08 2.23 1.78 0 .27-.23.39-.62.39a2.7 2.7 0 01-1.27-.37l-.43.78a3.57 3.57 0 001.72.44c1 0 1.68-.46 1.68-1.31 0-1.56-2.21-1.07-2.21-1.76zm4.03 0c0-.25.22-.38.56-.38a2.9 2.9 0 011.12.29l.4-.78a3.59 3.59 0 00-1.54-.36c-.87 0-1.63.44-1.63 1.28 0 1.54 2.22 1.08 2.22 1.78 0 .27-.23.39-.61.39a2.66 2.66 0 01-1.27-.37l-.43.78a3.56 3.56 0 001.71.44c1 0 1.68-.46 1.68-1.31 0-1.56-2.21-1.07-2.21-1.76zm3.12-1.08h1.13v4.06h-1.13zm0-1.69h1.13v.97h-1.13zm4.55 1.54a1.57 1.57 0 00-1.18.55v-2.13h-1.13v5.79h1l.06-.48a1.68 1.68 0 001.26.57c.93 0 1.58-.75 1.58-2.2s-.64-2.1-1.59-2.1zm-.34 3.44a1.06 1.06 0 01-.84-.4v-1.75a1.08 1.08 0 01.84-.43c.54 0 .81.44.81 1.25s-.27 1.33-.81 1.33zm2.85-3.29h1.13v4.06h-1.13zm0-1.69h1.13v.97h-1.13zm2.25-.04h1.13v5.79h-1.13zm2.25 1.73h1.13v4.06h-1.13zm0-1.69h1.13v.97h-1.13zm4.03 4.94c-.26 0-.38-.15-.38-.46v-2.05h1.13v-.8h-1.13v-1h-1.12v1h-.66v.8h.66v2.07c0 .92.41 1.34 1.27 1.34a2 2 0 001.21-.41l-.42-.68a.92.92 0 01-.56.19zm1.71-4.94h1.13v.97h-1.13zm0 1.69h1.13v4.06h-1.13zm4.1-.16a2.16 2.16 0 000 4.32 2.89 2.89 0 001.7-.54l-.47-.71a2.12 2.12 0 01-1.14.35c-.63 0-1-.34-1-1h2.72a3.62 3.62 0 000-.5 1.73 1.73 0 00-1.81-1.92zm-.89 1.77c.1-.6.46-.93.92-.93s.74.4.74.93zm4.61-.53c0-.25.21-.38.55-.38a2.9 2.9 0 011.12.29l.4-.78a3.59 3.59 0 00-1.54-.36c-.87 0-1.63.44-1.63 1.28 0 1.54 2.22 1.08 2.22 1.78 0 .27-.23.39-.61.39a2.66 2.66 0 01-1.27-.37l-.43.78a3.57 3.57 0 001.72.44c1 0 1.68-.46 1.68-1.31 0-1.56-2.21-1.07-2.21-1.76zM198.89 46.52a22.62 22.62 0 01-8.28-15.44v-.18l-.16-.1a19.58 19.58 0 00-17.5-2.36l.47-7.79h18.72l.1-.24a22.2 22.2 0 014.63-7l.11-.12v-1.42h-31.07l-.69 8.37-.33 4.66-.77 13.1h8l.11-.08a11.57 11.57 0 0117.89 13.38 11.58 11.58 0 01-21.05 1.11l-.18-.35-7.2 3.75.18.35a19.7 19.7 0 0035.8-1.89 19.37 19.37 0 001.33-7.45v-.19z"/>
  <path class="cls-1-2020-logo" d="M213.37 7.7a20.76 20.76 0 1020.75 20.75A20.78 20.78 0 00213.37 7.7zm0 32.59a11.84 11.84 0 1111.84-11.84 11.85 11.85 0 01-11.84 11.84z"/>
</svg>