<svg id="Layer_1" data-name="Layer 1" xmlns="http://www.w3.org/2000/svg" viewBox="0 0 123.57 54.99">
  <path d="M59,5.46a4.89,4.89,0,0,1-9.77,0,4.89,4.89,0,0,1,9.77,0" style="fill: #f37321"/>
  <path d="M42,11.3c-4,0-7.89,2.5-9.68,3.86V.88s-2,0-4.35-.17S22.05.09,21.19.06,19.25,0,18.32,0C11.42,0,5.23,3,5.23,9.3v3.06H0V17.8H5.23V41.87H14V17.81h5.44V12.37H14V10.93C14,8,15.76,6.82,20,6.82h1.15c.72,0,1.4,0,2.07.06v35h9.06v-21A15.74,15.74,0,0,1,39,19.25c3,0,4,.71,4,4.78V41.87h9V23.23C52,16.48,51.32,11.3,42,11.3" style="fill: #231f20"/>
  <path d="M65.41,41.87h-9V23.23c0-6.57.41-11.64,9-11.9Z" style="fill: #717073"/>
  <path d="M83.86,26c2.31-1.34,3.46-3.5,3.46-6.56A7.74,7.74,0,0,0,80,11.3a7.06,7.06,0,0,0-.92,0,7.91,7.91,0,0,0-8.35,7.44.57.57,0,0,0,0,.13l0,.53h3V19c.35-3.15,2.24-4.88,5.32-4.88s5.14,2.12,5.14,5.4c0,3.6-1.72,5.35-5.26,5.35h-1v2.8h1c4,0,5.84,1.82,5.84,5.72a5.39,5.39,0,0,1-5,5.72c-.21,0-.43,0-.64,0-1.6,0-5.35-.49-5.73-5.06v-.44h-3v.51c.32,4.88,3.59,7.79,8.76,7.79s8.72-3.34,8.72-8.52c0-3.62-1.31-6-4-7.31" style="fill: #f37321"/>
  <path d="M97.63,27.1c3.81,0,5.16,3.22,5.16,6,0,3.68-2,6-5.16,6s-5.11-2.29-5.11-6,2-6,5.11-6m.21-2.79a9.05,9.05,0,0,0-2.43.31l6.51-13H98.76L91.16,26.9a13.59,13.59,0,0,0-1.68,6.29c0,5.25,3.22,8.64,8.19,8.64,4.8,0,8.15-3.67,8.15-8.93,0-5.06-3.28-8.59-8-8.59" style="fill: #f37321"/>
  <path d="M115.47,39c-3.74,0-5.08-2.92-5.08-5.65V19.76c0-2.72,1.34-5.63,5.08-5.63s5.07,2.91,5.07,5.63V33.39c0,2.73-1.34,5.65-5.07,5.65m0-27.71A7.9,7.9,0,0,0,107.32,19a5.42,5.42,0,0,0,0,.57v14a7.92,7.92,0,0,0,7.58,8.23h.54a7.81,7.81,0,0,0,8.11-7.5c0-.24,0-.49,0-.73v-14a7.82,7.82,0,0,0-7.39-8.22,5.61,5.61,0,0,0-.71,0" style="fill: #f37321"/>
  <path d="M8.49,50.52H7.23v4.4H6.5v-4.4H5.21v-.64H8.55A3.47,3.47,0,0,1,8.49,50.52Z" style="fill: #231f20"/>
  <path d="M12.57,54.92V52.59H10.38v2.33H9.65v-5h.73V52h2.19v-2.1h.75v5Z" style="fill: #231f20"/>
  <path d="M17.85,54.92H15v-5h2.82a3.47,3.47,0,0,1-.06.64h-2V52h1.54v.64H15.7V54.3h2.21A3.18,3.18,0,0,1,17.85,54.92Z" style="fill: #231f20"/>
  <path d="M22,55a3.65,3.65,0,0,1-1.35-.23,3.53,3.53,0,0,1,.16-.64,3.4,3.4,0,0,0,1.26.24c.57,0,.87-.26.87-.74,0-1.08-2.28-1-2.28-2.41,0-.91.72-1.4,1.73-1.4a4.71,4.71,0,0,1,1.06.11,3.53,3.53,0,0,1-.11.65,4.65,4.65,0,0,0-1.05-.14c-.68,0-.89.29-.89.71,0,1,2.28.88,2.28,2.41C23.71,54.43,23.07,55,22,55Z" style="fill: #231f20"/>
  <path d="M26.93,55c-1.43,0-2.17-.9-2.17-2.6s.9-2.58,2.15-2.58a3.06,3.06,0,0,1,1.27.24,5.13,5.13,0,0,1-.13.66,2.55,2.55,0,0,0-1.12-.25c-.88,0-1.39.47-1.39,1.94s.44,1.9,1.4,1.9a2.32,2.32,0,0,0,1.2-.34,3.69,3.69,0,0,1,.14.66A2.69,2.69,0,0,1,26.93,55Z" style="fill: #231f20"/>
  <path d="M29.5,54.92v-5h.74v5Z" style="fill: #231f20"/>
  <path d="M34.78,54.92H31.9v-5h2.82a3.47,3.47,0,0,1-.06.64h-2V52H34.2v.64H32.63V54.3h2.21A3.18,3.18,0,0,1,34.78,54.92Z" style="fill: #231f20"/>
  <path d="M39.16,55l-2.07-3.53a3.43,3.43,0,0,1-.25-.55h-.05v4.05h-.66v-5a4.76,4.76,0,0,1,.75-.07l2,3.39a3.32,3.32,0,0,1,.25.54h0a5.61,5.61,0,0,1,0-.58V49.88h.66v5A4.5,4.5,0,0,1,39.16,55Z" style="fill: #231f20"/>
  <path d="M43.38,55c-1.43,0-2.17-.9-2.17-2.6s.9-2.58,2.15-2.58a3.06,3.06,0,0,1,1.27.24,5.13,5.13,0,0,1-.13.66,2.55,2.55,0,0,0-1.12-.25c-.88,0-1.38.47-1.38,1.94s.43,1.9,1.39,1.9a2.32,2.32,0,0,0,1.2-.34,3.69,3.69,0,0,1,.14.66A2.69,2.69,0,0,1,43.38,55Z" style="fill: #231f20"/>
  <path d="M48.83,54.92H46v-5h2.81a3.47,3.47,0,0,1-.06.64h-2V52h1.51v.64H46.69V54.3h2.2A3.18,3.18,0,0,1,48.83,54.92Z" style="fill: #231f20"/>
  <path d="M53.72,55c-1.3,0-2.07-.8-2.07-2.56s.79-2.62,2.07-2.62,2.07.81,2.07,2.59S55,55,53.72,55Zm0-4.55c-.85,0-1.29.47-1.29,2s.38,2,1.29,2,1.29-.53,1.29-2S54.56,50.44,53.72,50.44Z" style="fill: #231f20"/>
  <path d="M60,50.52H57.91v1.57H59.6v.64H57.91v2.19h-.73v-5H60A4,4,0,0,1,60,50.52Z" style="fill: #231f20"/>
  <path d="M63,54.92v-5h.73v5Z" style="fill: #231f20"/>
  <path d="M69.73,54.94l-.29-3.64v-.48h-.06a2,2,0,0,1-.06.48L68.2,54.88h-.68l-1.2-3.58a2,2,0,0,1-.08-.48h0v.48l-.33,3.6a3.21,3.21,0,0,1-.62,0c.12-1.67.29-3.32.48-5h.82l1.17,3.65a3.47,3.47,0,0,1,.11.56h0a3.78,3.78,0,0,1,.1-.57l1.15-3.64H70c.18,1.68.34,3.35.45,5A5.17,5.17,0,0,1,69.73,54.94Z" style="fill: #231f20"/>
  <path d="M73.32,53.08h-.67v1.84h-.72v-5a9.73,9.73,0,0,1,1.43-.1A1.5,1.5,0,0,1,75,51.13a1.31,1.31,0,0,1,0,.28,1.58,1.58,0,0,1-1.48,1.67A1,1,0,0,1,73.32,53.08Zm0-2.67h-.69v2h.58a1,1,0,0,0,1.1-.88.49.49,0,0,0,0-.12.9.9,0,0,0-.79-1Z" style="fill: #231f20"/>
  <path d="M79.1,55l-.41-.82a4.94,4.94,0,0,0-.83-1.28h-.74v2.07h-.71v-5a11.61,11.61,0,0,1,1.44-.1c.9,0,1.64.38,1.64,1.45a1.34,1.34,0,0,1-1,1.35,3.76,3.76,0,0,1,.83,1.15l.56,1.09A3.46,3.46,0,0,1,79.1,55Zm-1.28-4.53h-.7V52.3h.62a.88.88,0,0,0,1-1C78.74,50.6,78.4,50.42,77.82,50.42Z" style="fill: #231f20"/>
  <path d="M82.83,55c-1.31,0-2.08-.8-2.08-2.56s.8-2.62,2.08-2.62,2.07.81,2.07,2.59S84.08,55,82.83,55Zm0-4.55c-.85,0-1.28.47-1.28,2s.38,2,1.29,2,1.29-.53,1.29-2-.46-2-1.31-2Z" style="fill: #231f20"/>
  <path d="M88.1,54.92h-.78c-.58-1.61-1.11-3.31-1.58-5a4.37,4.37,0,0,1,.72-.06l1.16,3.87a2.7,2.7,0,0,1,.08.41h0a2.71,2.71,0,0,1,.09-.41L89,49.86a3.68,3.68,0,0,1,.66.06A46.6,46.6,0,0,1,88.1,54.92Z" style="fill: #231f20"/>
  <path d="M90.83,54.92v-5h.74v5Z" style="fill: #231f20"/>
  <path d="M96.23,55l-2.08-3.53a3.87,3.87,0,0,1-.25-.55h0v4.05h-.66v-5a4.88,4.88,0,0,1,.76-.07l2,3.39a3.32,3.32,0,0,1,.25.54h0a5.61,5.61,0,0,1,0-.58V49.88h.65v5A5.08,5.08,0,0,1,96.23,55Z" style="fill: #231f20"/>
  <path d="M100.52,55c-1.51,0-2.25-.9-2.25-2.6s.92-2.58,2.29-2.58a3.6,3.6,0,0,1,1.34.23,3.8,3.8,0,0,1-.14.67,3,3,0,0,0-1.17-.25c-1,0-1.53.41-1.53,2s.54,1.92,1.47,1.92a2.17,2.17,0,0,0,.76-.13V53h-1a2.51,2.51,0,0,1,0-.67H102v2.33A3.6,3.6,0,0,1,100.52,55Z" style="fill: #231f20"/>
  <path d="M108,54.92h-2.67v-5h.73V54.3h2C108,54.51,108,54.71,108,54.92Z" style="fill: #231f20"/>
  <path d="M109.2,54.92v-5h.73v5Z" style="fill: #231f20"/>
  <path d="M113.41,54.92h-.77c-.57-1.61-1.11-3.31-1.57-5a4.17,4.17,0,0,1,.71-.06l1.16,3.87a2.7,2.7,0,0,1,.08.41h.06a1.86,1.86,0,0,1,.08-.41l1.16-3.87a3.79,3.79,0,0,1,.67.06C114.53,51.62,114,53.3,113.41,54.92Z" style="fill: #231f20"/>
  <path d="M119,54.92h-2.87v-5H119a3.47,3.47,0,0,1-.06.64h-2V52h1.53v.64H116.9V54.3h2.2A4.2,4.2,0,0,1,119,54.92Z" style="fill: #231f20"/>
  <path d="M121.49,55a3.65,3.65,0,0,1-1.35-.23,2.88,2.88,0,0,1,.17-.64,3.16,3.16,0,0,0,1.25.24c.58,0,.88-.26.88-.74,0-1.08-2.29-1-2.29-2.41,0-.91.72-1.4,1.73-1.4a4.71,4.71,0,0,1,1.06.11,2.85,2.85,0,0,1-.11.65,4.65,4.65,0,0,0-1-.14c-.68,0-.89.29-.89.71,0,1,2.29.88,2.29,2.41C123.18,54.43,122.53,55,121.49,55Z" style="fill: #231f20"/>
</svg>
