<svg id="Layer_1" data-name="Layer 1" xmlns="http://www.w3.org/2000/svg" viewBox="0 0 60.76 11.45"><defs><style>.cls-1{fill:#fff;}</style></defs><path class="cls-1" d="M8.71,4.87H8.2V6.65H7.9V4.87H7.38V4.6H8.74A1.24,1.24,0,0,1,8.71,4.87Z"/><path class="cls-1" d="M10.37,6.65V5.71H9.48v.94h-.3V4.6h.3v.84h.89V4.6h.3V6.65Z"/><path class="cls-1" d="M12.52,6.65H11.35V4.6h1.14a2.65,2.65,0,0,1,0,.27h-.83v.58h.63v.26h-.63v.68h.9A2.28,2.28,0,0,1,12.52,6.65Z"/><path class="cls-1" d="M14.22,6.68a1.48,1.48,0,0,1-.55-.09,1.67,1.67,0,0,1,.06-.26,1.32,1.32,0,0,0,.51.1c.24,0,.36-.11.36-.31,0-.43-.93-.38-.93-1,0-.37.3-.57.71-.57a2.1,2.1,0,0,1,.43,0,1.32,1.32,0,0,1-.05.26,2,2,0,0,0-.43,0c-.27,0-.36.12-.36.29,0,.39.93.35.93,1C14.9,6.45,14.64,6.68,14.22,6.68Z"/><path class="cls-1" d="M16.21,6.68c-.58,0-.88-.36-.88-1.06s.36-1,.87-1a1.34,1.34,0,0,1,.52.1,2.14,2.14,0,0,1-.06.27,1,1,0,0,0-.45-.1c-.36,0-.56.19-.56.79s.17.79.56.79a.93.93,0,0,0,.49-.14,1.07,1.07,0,0,1,.06.27A1.14,1.14,0,0,1,16.21,6.68Z"/><path class="cls-1" d="M17.26,6.65V4.6h.29V6.65Z"/><path class="cls-1" d="M19.4,6.65H18.23V4.6h1.15a1.31,1.31,0,0,1,0,.27h-.82v.58h.62v.26h-.62v.68h.89A1.14,1.14,0,0,1,19.4,6.65Z"/><path class="cls-1" d="M21.18,6.67l-.84-1.44a1.22,1.22,0,0,1-.1-.23h0a1.93,1.93,0,0,1,0,.23V6.65H20v-2a1.53,1.53,0,0,1,.3,0L21.08,6a.94.94,0,0,1,.1.23h0a1.77,1.77,0,0,1,0-.23V4.6h.26v2Z"/><path class="cls-1" d="M22.9,6.68c-.58,0-.88-.36-.88-1.06s.36-1,.87-1a1.34,1.34,0,0,1,.52.1,2.14,2.14,0,0,1-.06.27,1,1,0,0,0-.45-.1c-.36,0-.57.19-.57.79s.18.79.57.79a.93.93,0,0,0,.49-.14,1.07,1.07,0,0,1,.06.27A1.14,1.14,0,0,1,22.9,6.68Z"/><path class="cls-1" d="M25.11,6.65H23.94V4.6h1.15a2.65,2.65,0,0,1,0,.27h-.83v.58h.62v.26h-.62v.68h.9A1.15,1.15,0,0,1,25.11,6.65Z"/><path class="cls-1" d="M27.1,6.68c-.53,0-.84-.32-.84-1s.32-1.07.84-1.07.84.33.84,1.06S27.61,6.68,27.1,6.68Zm0-1.85c-.35,0-.52.19-.52.8s.15.79.52.79.53-.21.53-.79S27.44,4.83,27.1,4.83Z"/><path class="cls-1" d="M29.64,4.87H28.8V5.5h.69v.26H28.8v.89h-.29V4.6h1.15A2.45,2.45,0,0,1,29.64,4.87Z"/><path class="cls-1" d="M30.87,6.65V4.6h.3V6.65Z"/><path class="cls-1" d="M33.61,6.66,33.49,5.2V5h0a1,1,0,0,1,0,.2L33,6.65H32.7L32.24,5.2a1,1,0,0,1,0-.2h0v.2L32,6.66l-.25,0c.05-.68.12-1.35.2-2h.33l.47,1.49a1.42,1.42,0,0,1,.05.22h0a1.85,1.85,0,0,1,0-.23l.47-1.48h.34c.07.69.14,1.37.18,2Z"/><path class="cls-1" d="M35.08,5.9h-.27v.75h-.3v-2a4,4,0,0,1,.59,0,.61.61,0,0,1,.68.65A.64.64,0,0,1,35.08,5.9Zm0-1.08-.28,0v.82H35a.39.39,0,0,0,.44-.43A.36.36,0,0,0,35.09,4.82Z"/><path class="cls-1" d="M37.42,6.67l-.16-.34a2.33,2.33,0,0,0-.34-.52h-.3v.84h-.29v-2a4.54,4.54,0,0,1,.58,0c.37,0,.67.16.67.59a.55.55,0,0,1-.42.55,1.55,1.55,0,0,1,.35.47l.23.44A1.75,1.75,0,0,1,37.42,6.67ZM36.9,4.82l-.28,0v.74h.25a.36.36,0,0,0,.41-.39A.33.33,0,0,0,36.9,4.82Z"/><path class="cls-1" d="M38.94,6.68c-.53,0-.85-.32-.85-1s.33-1.07.85-1.07.84.33.84,1.06S39.45,6.68,38.94,6.68Zm0-1.85c-.35,0-.53.19-.53.8s.16.79.53.79.52-.21.52-.79S39.28,4.83,38.94,4.83Z"/><path class="cls-1" d="M41.08,6.65h-.31c-.24-.65-.46-1.34-.64-2a1.43,1.43,0,0,1,.29,0l.47,1.58,0,.17h0a.85.85,0,0,1,0-.17l.47-1.58a1.18,1.18,0,0,1,.27,0C41.54,5.31,41.32,6,41.08,6.65Z"/><path class="cls-1" d="M42.19,6.65V4.6h.3V6.65Z"/><path class="cls-1" d="M44.38,6.67l-.84-1.44a1.22,1.22,0,0,1-.1-.23h0a1.93,1.93,0,0,1,0,.23V6.65h-.26v-2a1.53,1.53,0,0,1,.3,0L44.28,6a.94.94,0,0,1,.1.23h0a1.77,1.77,0,0,1,0-.23V4.6h.27v2Z"/><path class="cls-1" d="M46.13,6.68c-.62,0-.91-.36-.91-1.06s.37-1,.93-1a1.37,1.37,0,0,1,.54.1,1.31,1.31,0,0,1-.06.27,1.16,1.16,0,0,0-.47-.1c-.39,0-.62.16-.62.8s.22.78.59.78a1.06,1.06,0,0,0,.31,0V5.86h-.38a2.28,2.28,0,0,1,0-.26h.69v1A1.48,1.48,0,0,1,46.13,6.68Z"/><path class="cls-1" d="M49.17,6.65H48.06V4.6h.3V6.39h.83A2.28,2.28,0,0,1,49.17,6.65Z"/><path class="cls-1" d="M49.66,6.65V4.6H50V6.65Z"/><path class="cls-1" d="M51.37,6.65h-.31c-.24-.65-.45-1.34-.64-2a1.59,1.59,0,0,1,.29,0l.47,1.58a.86.86,0,0,1,0,.17h0a.85.85,0,0,1,0-.17l.48-1.58a1.31,1.31,0,0,1,.27,0C51.83,5.31,51.61,6,51.37,6.65Z"/><path class="cls-1" d="M53.65,6.65H52.48V4.6h1.15a1.31,1.31,0,0,1,0,.27h-.82v.58h.62v.26h-.62v.68h.9A1.15,1.15,0,0,1,53.65,6.65Z"/><path class="cls-1" d="M54.66,6.68a1.48,1.48,0,0,1-.55-.09,1,1,0,0,1,.07-.26,1.29,1.29,0,0,0,.51.1c.23,0,.35-.11.35-.31,0-.43-.93-.38-.93-1,0-.37.3-.57.71-.57a2.1,2.1,0,0,1,.43,0,1.32,1.32,0,0,1,0,.26,2,2,0,0,0-.43,0c-.27,0-.36.12-.36.29,0,.39.93.35.93,1C55.34,6.45,55.08,6.68,54.66,6.68Z"/></svg>