<svg id="Imapcts_Image" data-name="Imapcts Image" xmlns="http://www.w3.org/2000/svg" xmlns:xlink="http://www.w3.org/1999/xlink" viewBox="0 0 736.5 414.18">
  <defs>
    <clipPath id="clip-path-impacts">
      <path d="M259.26,227c.71-1.54,1.5-3.05,2.13-4.63.54-1.32.84-2.74,1.36-4.08.36-.95.35-2.27,2-2.26.28,0,.67-.83.85-1.33.87-2.47,1.68-5,2.56-7.44.2-.59.66-1.1.8-1.69a4.57,4.57,0,0,0-.11-1.43,12.37,12.37,0,0,0,1.61-2.17c1.41-3.27,2.73-6.59,4.09-9.92h-1.06c0-.2,0-.45.12-.48,2-.71,2.5-2.59,3.2-4.29a35.83,35.83,0,0,1,5-9.19c.15-.18.4-.38.4-.57,0-3.13,2-5.35,3.47-7.81.6-1,.49-2.41,2.06-2.58-.05.94-1.1,2.11.62,2.74.62-1.18,1.19-2.28,1.74-3.34-1.48-1.39-1.85-.07-2.42.68.16-1,.32-2.11.5-3.22.41.18.65.23.66.3.08.76.55,1.27,1.24,1.07a2.64,2.64,0,0,0,1.28-1.16c.32-.52.27-1.31.66-1.73.52-.57.72-1.56,1.94-1.47.47,0,1-.94,1.53-1.46l-.24-.43c-.26,0-.51,0-.77,0s-.4.08-.71.14c.08-.35.06-.7.19-.76a1.77,1.77,0,0,1,1.51-.1l1.93-2a6.1,6.1,0,0,1,.44,1.62c-.34,3.9-.47,7.85-1.19,11.69a82.27,82.27,0,0,1-3,10q-2.22,6.79-4.59,13.53a31.3,31.3,0,0,1-1.77,3.58,3.58,3.58,0,0,0-.49,1.08c-.54,4.18-2.38,8-3.52,12a4.47,4.47,0,0,0-.38,1.37c.12,3.18-1.58,5.93-2.12,9-.36,2-1.44,3.86-2.19,5.79-.24.63-.43,1.28-.72,2.16,1.5-.36,1.51-2.65,3.43-1.66-.2.74-.42,1.53-.7,2.52.77.08,1.93-.28,2,.82a2.9,2.9,0,0,1-.69,2.12c-1.13,1-.76,2.08-.64,3.4,1.67-1,1.17-4.19,4.45-3.57l-2,2,.64,1.53,2.53-3.63c-.09-.95-1.18-2.34.27-3.64a1.41,1.41,0,0,1,1.73,1.15c.17.9.56,1.9-.36,2.68a12.94,12.94,0,0,0-2.66,4c-3.24,6-5.58,12.37-8.44,18.52-1.46,3.18-2.53,6.53-3.92,9.74-1.54,3.58-3.27,7.08-4.84,10.65-.64,1.45-1.1,3-1.61,4.49-.33,1-1.33,1.82-.78,3.06a.8.8,0,0,1-.21.67c-1.26,1.3-.78,3.12-1.38,4.62-.34.84-.29,1.63-1.26,2.32-.77.56-1.13,2.16-1.08,3.28a6.86,6.86,0,0,1-1.28,4.29,19.93,19.93,0,0,0-2,5.74c-.94,3.58-1.78,7.19-2.61,10.81-.34,1.47-.52,3-.83,4.46-.2,1-.58,1.93-.76,2.91s0,1.82-.27,2.66c-.56,1.95-1.35,3.84-1.89,5.81-.58,2.13-.95,4.32-1.49,6.46-1,4.09-2.1,8.16-3.18,12.23-.69,2.61-1.39,5.21-2.12,7.8-1.43,5.06-2.95,10.11-4.28,15.2-.5,1.92-.51,4-.86,5.92a56.94,56.94,0,0,1-3.24,11.93,19.76,19.76,0,0,0-.6,2.06l-1,.34c.79,1.28.93,2.73.07,3.17-1.52.78-1.69,2.19-2.15,3.51a12.63,12.63,0,0,1-3.08,5.15l-1.75-1c-.44.66-.87,1.28-1.28,1.9-2.6-1.09-2.91-1.52-2.79-3.71-1.49-.5-1.49-.5-1.66-4.29l-2.8-.94c-1,1.19.17,3.24-2.15,3.68-1.08-2.55.11-5.21-.71-7.73v7.45l-.42.07a19.83,19.83,0,0,0-.67-2.15c-.41-.94-1.17-.58-1.95-.34-1.3-2.38-.87-5-.76-7.49.17-4.14.68-8.27.86-12.42a131.65,131.65,0,0,1,3.18-21.55c.4-1.87.79-3.75,1.21-5.62.36-1.61.38-1.6,1.95-2.6-1.19-1.3-.9-2.88-.55-4.36,1.65-7.13,3.41-14.23,5.09-21.35.9-3.8,1.71-7.62,2.57-11.42a12.54,12.54,0,0,1,.41-1.63c2.63-7.53,4.2-15.37,6.77-22.9,1.78-5.21,3.83-10.33,5.6-15.54,1.15-3.4,2-6.9,3.05-10.34.36-1.2.87-2.35,1.31-3.52l.55.13-.12,1.87.28.09c.75-2.27,1.5-4.54,2.28-6.94l-1.53-.9c2.18-5.73,4.35-11.42,6.64-17.45,1,1.52-.6,2.33-.08,3.72a22.21,22.21,0,0,0,1.08-2q3.89-10.16,7.75-20.33c.67-1.77,1.29-3.57,2-5.34.13-.32.44-.57,1.11-.66-.37,1.08-.74,2.17-1.09,3.25q-2.42,7.63-4.81,15.26a1.54,1.54,0,0,0,0,.48c-.9.84-1,2.17-2.18,3a2.64,2.64,0,0,0-.77,3.23,1.27,1.27,0,0,1,0,.92c-1.07,2.74-2.16,5.46-3.25,8.19l-.28-1.22-.53,1.73.86-.58a5.65,5.65,0,0,1-.38,1.62c-1.37,2.37-1.86,5-2.55,7.62-.27,1.05-.56,2.36-1.31,3s-1.09,1-.63,2a3,3,0,0,1-.14,1.81c-.59,2.2-1.24,4.38-1.87,6.57a5.77,5.77,0,0,0,1.51-2.36c1.4-4.45,2.64-9,4.13-13.39,1.8-5.35,3.84-10.62,5.7-15.95C258.34,231.16,259.46,229.26,259.26,227Zm-18,50.15c-.77,1.79-1.65,3.54-2.3,5.38-.84,2.36-1.49,4.79-2.22,7.18l.45.15,1.92-5.2c1.24.52,1.67-.48,2.14-1.28.68-1.15-.51-1.77-.84-2.27.31-1.55.55-2.79.79-4a7,7,0,0,0,1.4-3.84A6.2,6.2,0,0,0,241.21,277.17Zm-12,41.7c-.16.16-.42.29-.46.47-1.14,4.47-2.32,8.94-3.37,13.43-1.65,7.08-3.33,14.15-4.78,21.26-1.32,6.49-2.91,12.94-3.21,19.61-.14,3-.5,6-.76,9-.06.63-.19,1.27-.22,1.9a15.92,15.92,0,0,0,.07,1.69H217c.2-1.87.42-3.73.59-5.61.28-2.93.32-5.91.84-8.79,1.61-9,3.4-17.88,5.14-26.81.3-1.57.74-3.11,1.08-4.67.22-1,.85-.83,1.7-.49.12-.77.23-1.48.37-2.3l-1.49.39c.13-.59.21-1,.29-1.35l3.63-17.81c.94-2.19,1.07-2.87.51-4.49C229.5,315.85,229.35,317.36,229.19,318.87Zm20.36,16.43.66.05c1.13-4.67,2.38-9.33,3.34-14s2.48-9.21,3-14l-.57-.12Zm-13.88-40.9c-2,6.06-4.23,12.06-5.21,18.41C232.92,306.88,234.19,300.61,235.67,294.4Zm10.41,57.4c-.85.52-1.85.89-1.82,1.17.1,1.18-1.53,2.38.2,3.84Zm3.27-105.88.49.18,2-5.38-.64-.23C250.56,242.3,250,244.11,249.35,245.92ZM257,304.21l.46.14c.55-1.44,1.32-2.83.89-4.56Zm25.23-124.15c.78-.15,1.75-.22,1.77-.37a13.43,13.43,0,0,0-.27-2.57c-.55.8-.87,1.23-1.15,1.7A7,7,0,0,0,282.21,180.06ZM248.26,342.65l-.39-.22-.54,2.11.36.1ZM241.45,366l.49.09.18-1.75-.46,0ZM277.07,234.6c1.11-.56,1.59-.89,1-2.1ZM236.3,286.33l-.35-.1c-.15.51-.29,1-.44,1.51l.36.1Zm27.28-67.14.23.05.26-1.23-.18,0Zm16.15,9.95-.51-.17c-.07.33-.16.66-.22,1a1.48,1.48,0,0,0,.32.14C279.47,229.78,279.6,229.46,279.73,229.14Zm-37.6,51.35-.48-.4c-.13.17-.34.34-.35.51s.25.28.39.43Zm1-5.24.34.07.3-.92-.57,0Zm49.57-108.31-.21-.4-1,.55.19.35Zm-30.78,56.77.21.07.43-1.16-.33-.09ZM243.06,359.77l.36-.12-.31-1-.38.13Zm-24,15.72.32.05c0-.39-.05-.78-.08-1.17h-.13ZM601.9,104c.49-.45,1.16-.81,1.46-1.36C606.91,96,610.42,89.26,614,82.49a4.08,4.08,0,0,0-3.39-.68c-2.43.27-4.85.69-7.28,1-2,.24-2,.21-3.49-.59-1.38,2-4.39,2.72-7.57,1.81-.33-1,.33-1.32,1.11-1.34,1.3-.05,2.45,0,3.14-1.56.25-.56,1.51-.66,2.48-1l-1.36-.59,1.48-1.26c-1.56-1.5-1.56-1.5-1.67-2.85l-3.41.28c.7,2.45.31,3-2,3.06,0,1.4,1.14.91,1.69.87s1.07-.63,2-1.24l-1.21,3.18-5.25.68c.42,2.58.1,3-2.4,3.18-1,.08-2,.14-2.93.19v-2.9c1.17,1.19,2.44.4,3.81.28-.16-.32-.21-.57-.36-.69a4.12,4.12,0,0,0-1.37-1c-.83-.23-1,.43-1.12,1.11,0,.15-.62.2-.95.29a4,4,0,0,0,.08-1c-1.4-.43-.16-1.08-.14-1.73l-2.11-.67c1-.77,2.23-1.28,2.64-2.69-1.61,1-3.79-.13-5.65,1.73l3.07.92c-.25.64-1.14.57-1.22,1.72-.09,1.37-2,1.1-3.15,1.37a50.88,50.88,0,0,1-6.06.72c-.3,0-.8.07-.86.24-.54,1.41-1.11-.16-1.74.08-.36.5-.43,1.39-1.51,1.32-.42,0-.89.54-1.33.83l.08-.07-3.37-1.74,1.11-.85-1.37-.84c1.77-2.11,4.68-1.25,6.72-2.94l-1.36-.83.66-1c2.19,1.08,3,.57,2.83-2-1.74-.74-3.34-2.3-6.06-.91l1.59.24,1.33.24c.13.9.25,1.67.36,2.45a8.47,8.47,0,0,0-1.07-.47c-.83-.25-1,.15-.74.84-1-1-1.32-2.52-2.89-3.07l-.56,1.72c.67.54,1.2,1,1.75,1.39a1.12,1.12,0,0,0,1.69-.11c.05.3.22.82.15.87-1,.51-2,1-2.84-.19-2,1.68-2.68,1.85-6.63,1.58.29.92.55,1.77.86,2.75a6.5,6.5,0,0,1-4.26.95c-.06-.59-.11-1.17-.18-1.92l-2-.25c.16.87.56,1.7.32,2.21s-1.16.67-2.06,1.13l1.24.35c.27.37-1.09,1.14-2,1s-1.48-.22-2.43-.36c-.09-1.09-.85-1.57-2.06-1.12a4.83,4.83,0,0,1-3.85-.41l2.77-.48a2.07,2.07,0,0,0-2.5-1.31c-1,.12-2,.14-3,.21l-.12-.47L540.87,81l-.67-1.79-2.34-.12,0-.34c.49-.09,1-.15,1.48-.28,2.93-.8,5.83-1.69,8.78-2.38,2-.47,4-.66,6.08-1a13.67,13.67,0,0,0,1.83-.26c1-.32,2-.87,3.07-1.08,3.21-.63,6.44-1.15,9.67-1.7.47-.08,1.06-.29,1.41-.1,2.09,1.18,3.31-.3,4.72-1.5l1.27,1a2.3,2.3,0,0,0,.42-.17c.49-.34.92-.9,1.44-1,2.56-.57,5.15-1,7.72-1.54.16,0,.33-.12.47-.08,3,1,5.57-1,8.4-1,.7,0,1.4.12,2.46.22,1.83-.78,4-1.74,6.59-1.14a3.2,3.2,0,0,0,2.46-.49,6.86,6.86,0,0,1,3.76-1.33c2.5-.33,5-.51,7.53-.91q5.37-.85,10.69-2a2.83,2.83,0,0,0,1.49-1.36A43,43,0,0,0,632,56a6.17,6.17,0,0,1,2.76-2.77,5.73,5.73,0,0,0,1.7-1.83,17.8,17.8,0,0,0,1.4-3,12.21,12.21,0,0,0,.33-2.19c.48-.18,1.33-.47,2.16-.81a4.16,4.16,0,0,0,2.36-3.11c.55-2.57,2-4.69,3-7,.36-.78.8-1.41,1.81-1.11h0a32,32,0,0,1-2.29,6.18c-.71,1.46-1.82,3.14-1.17,5.24a4.67,4.67,0,0,1-1.23,4.65c-1.32,1.35-2.23,2.87-1.44,4.87-.83,1.15-.08,3.15-2.08,3.73-.31.09-.4.93-.68,1.66,3.75-.45,7.26-1,10.79-1.26,3.94-.26,7.74-1.31,11.67-1.62,4.6-.37,9.2-.8,13.77-1.44s9,0,13.54.26c1,.06,1.9,0,2.85,0,.76,0,1.52.09,2.31.14-.08,1.14-.15,2-.23,3.09-1.12.88-2.38,1.74-4,0-.82,2.25-3,1.46-5,2.46h3.11c-.64,1.22-3,.56-2.57,2.51,2.67,1.7,5.19.46,7.7-.53.19,1.93-.27,2.55-1.75,2.46-.63,0-1.2-.41-1.68.29-.94,1.35-2.45,1.53-3.89,1.92a32.89,32.89,0,0,0-8,2.9,1.68,1.68,0,0,1-.89.24c-3.26-.22-6.37.82-9.58,1.1-1.67.14-3.39.92-4.85-.7-.28-.31-1-.19-1.57-.26l-.41.52,2,1.17c-1.87.44-3.38.9-4.92,1.14-2,.31-4.12.39-6.18.67a17.52,17.52,0,0,0-2.21.76c-1.66.49-1.79.43-2.87-1.16-.24.18-.6.32-.69.55-.52,1.43-1.67,1.46-2.89,1.38a5.13,5.13,0,0,0-1.61,0c-2.46.62-4.89,1.31-7.53,2-.38-.69-.73-1.3-1.07-1.91l-.61.24c-.36.85-.76,1.68-1.06,2.55-.71,2.1-1.37,4.21-2.07,6.32a2.13,2.13,0,0,1-.49.81,5.36,5.36,0,0,0-1.38,2.84,25.2,25.2,0,0,1-2.33,5.58c-.62,1.32-1.28,2.59-.65,4.09h0a3.42,3.42,0,0,0-1.63,4.15l-1.94,1a8.22,8.22,0,0,1,.79,2.65,11.24,11.24,0,0,1-1,3l-1.64-.67a17.14,17.14,0,0,0-2.29,6.75l-2.25,4.32,1.43.16c.52-1.16,1-2.25,1.49-3.32.29-.59.39-1-.43-1.22l1.53-.67c-.53,1.84-.95,3.42-1.45,5-1,3-1.92,6.08-3,9.08-.37,1,1.33,2.06-.33,3.15-.88.58-1.21,2.07-1.65,3.2s-.79,2.43-1.17,3.65c-.68,2.15-1.75,4.21-1.09,6.63.12.42-.88,1.21-.73,1.56.42,1-.3,1.18-.66,1.74a10,10,0,0,0-.9,2.59c-.07.21.1.53,0,.68-1.52,2.18-1.43,4.85-2.24,7.24-.24.71-1,1.58,0,2.37.1.07,0,.58-.08.63-1.49.74-.9,2-.8,3.2l-2.08,1.16-.36-.36c-.24.62-.47,1.24-.71,1.87l.2.17.86-1c-.13,2.81.42,5.5-1.06,8.18A25,25,0,0,0,597,185a3.74,3.74,0,0,1-.35,1.61c-1.42,2-1.53,4.44-2.54,6.57s-1.76,4.28-2.58,6.45-1.7,4.48-2.45,6.75c-.51,1.51-.81,3.09-1.27,4.62-1,3.43-2,6.86-3.15,10.27a8.87,8.87,0,0,1-1.66,3.62c-1,1-1.72,2.1-2.62,3.11s-1.71.77-2.46-.4l-1.51,1.6c-1.43-2.09-2.94-3.92-2.61-6.48l-3-2.42c-.06,1-.12,2-.19,3.3l-1.48.47c-.2-1.52-.38-2.86-.55-4.2l-.53,0L568,221.5l-.42.06a24,24,0,0,1-.35-2.89c0-6.36,1.43-12.53,2.71-18.71.75-3.66,1.52-7.33,2.36-11,1.11-4.81,2.28-9.61,3.46-14.4a20.3,20.3,0,0,1,1-2.56l1.11.44.85-3.53-.35-.15-.73,1.21-.34-.11c.5-1.82,1-3.67,1.5-5.48.81-2.66,1.66-5.31,2.51-8,.34-1,.13-2.52,1.92-2.51.17,0,.42-.47.5-.76.53-1.92,1-3.84,1.52-5.77l-.06.08c.66-2.12,1.31-4.24,2-6.36l-.07.08c1.32-1.38,1.4-3.2,1.62-5l-1.39,2.59A46.73,46.73,0,0,1,592,125.86l-.07-.06-1.14,4.92c.59-1.86,2.44-3.23,2.16-5.42l-.06.11c.34-.92.67-1.83,1-2.74l.93-1.85,1-3,.08-.07c.83-1.64,1.68-3.25,2.45-4.91.19-.39,1-1.27-.41-1.2a2.7,2.7,0,0,1,.07-.91,61.14,61.14,0,0,1,4.18-7.75c-.1.35-.19.69-.27,1l-1.16,2.69.52.15Zm-9-32.5,1.54-1.08c-.62-.71-1-1.18-1.42-1.66a11.78,11.78,0,0,1-.87,1,11.94,11.94,0,0,1-1.07.79l1.88,1c-.43.23-1.2.43-1.23.7a1.13,1.13,0,0,0,1.17,1.27Zm18.94,18.65a4.55,4.55,0,0,0-1.23.88,31.1,31.1,0,0,0-2.08,3.39,12.82,12.82,0,0,0-.68,2.15,20.84,20.84,0,0,0,4-6.5c.24-1.13,1.84-1.72,1.28-3.2A3,3,0,0,0,611.86,90.16ZM643,70.82c-2.22,0-2.26,0-3.17-2.13-1.43,1.67-1.41,1.68.17,2.64a10.09,10.09,0,0,1,1.43,1.28L643,70.75a19.2,19.2,0,0,0,2.27-1.59c.22-.19.07-.8.08-1.22-.49,0-1.21-.19-1.43,0C643.2,68.76,642.21,69.56,643,70.82ZM618.7,73.57c.17-.29.34-.58.55-.92l-1.74-.33c.17,1.1.17,1.1,1.25,1.2L617.33,79c1.65.36,1.62.34,2.5-1.26.49-.92,1.12-1.76,1.69-2.65C620.53,74.54,620.1,73.15,618.7,73.57Zm-43.9,4.36c-1,.82-2,.46-3.12.16-1.45-.4-1.94.26-1.6,1.92,2.43-.55,5.2.43,7.55-1.51l-2.71-2.06C574.87,77.07,574.84,77.51,574.8,77.93Zm24.08,96.55a53.08,53.08,0,0,0-3.77,11.72A38.11,38.11,0,0,0,598.88,174.48Zm56-107.68.12.55c2.3-.2,4.61-.36,6.91-.62.27,0,.48-.59.72-.91l-.22-.46c-1.1.15-2.38,0-3.26.54-1.21.74-2.32-.63-3.38.17C655.5,66.3,655.21,66.55,654.91,66.8Zm-6.21.53c1.44.53,2.32.9,2.51,2.17.06.43.49,1.78,1.69,1.33V67.28C650.82,66.6,650.82,66.6,648.7,67.33ZM600,72.8a23.25,23.25,0,0,0-2.33-1.57,2.27,2.27,0,0,0-1.64-.26,1.68,1.68,0,0,0-.68,1.49,1.77,1.77,0,0,0,1.39.92A18.07,18.07,0,0,0,600,72.8Zm-19.36,98.94A8.12,8.12,0,0,0,579,173a8,8,0,0,0-.71,1.72c1.47.08.43,1,.47,1.49a10.22,10.22,0,0,1-.1,1.35l.39,0C579.54,175.73,580.05,173.92,580.68,171.74Zm6.94-23.58-.55-.16-2.35,8,.45.14C586,153.47,586.81,150.82,587.62,148.16Zm23.47-74.42c.39.24.86.75,1.15.67,1.22-.36,2.39-.9,4-1.54C614.17,72.15,612.76,73.25,611.09,73.74Zm-63,6c.68.31,1.14.71,1.46.62a3.83,3.83,0,0,0,1.54-1c.13-.12,0-.79-.23-1a3.86,3.86,0,0,0-1.21-.47ZM662.45,67.7,662,68c.33.78.65,1.56,1,2.4L665.64,69Zm-40.81,3.21c-.36,1.11-1.11,2,.07,2.86C623.4,72.47,623.42,71.93,621.64,70.91Zm-16.21,30.25.27.19a5.68,5.68,0,0,1,.9-.81c1.53-.83,1.54-.82-.11-2.22C606.11,99.32,605.77,100.24,605.43,101.16ZM623.17,68.5l1-2.73C621.86,66.17,621.85,66.2,623.17,68.5Zm-32.52,8,.24.59a7.54,7.54,0,0,0,1.59-.25c.1,0,0-.79-.11-1.15s-.44-.34-.76-.55Zm-31,.71-2.32-1-1.12,2.14Zm44.86,25.68-1.64,3.34.51.26C603.72,105.34,605.14,104.67,604.48,102.94ZM655,61.71c-.72-.34-1.26-.63-1.82-.84-.13,0-.37.19-.64.34.2.54.38,1,.57,1.57Zm-50.55,93.55-.49-.09-1,4.38.37.08ZM657.7,67.93l.12.71a4.7,4.7,0,0,0,2.86-.48c0-.19,0-.37-.08-.55Zm-82.34,4.69c-.89,0-1.57.12-1.5,1.09,0,.21.66.6.89.53C575.54,74,575.72,73.39,575.36,72.62Zm30.6,5c.14-.74,0-1.31-.89-1.2-.26,0-.7.59-.65.75C604.69,77.89,605.27,78,606,77.61Zm-16.52,64.14-.51-.13-.78,2.42.52.17ZM610.83,134l-.59-.32c-.38,1.09-.75,2.18-1.12,3.27l.56.19C610.06,136.13,610.44,135.09,610.83,134Zm.4-63.7c.39-1.75.39-1.75-.71-3.08C610.82,68.54,611,69.44,611.23,70.34Zm-6.72,9.78c-.48.22-1,.43-1.42.68,0,0,.1.47.26.56C604.16,81.84,604.43,81.23,604.51,80.12Zm13.06-.41c-.24.88-.43,1.55-.76,2.75l1.85-2ZM601,77.85c-1.45.48-.84,1.16-.64,1.74,0,0,.27,0,.52,0C601,79.1,601,78.59,601,77.85Zm41.81-4.75a11.26,11.26,0,0,1,.93.69c.24.21.44.46.84.89C644.47,73.32,644.47,73.32,642.85,73.1Zm-53.18,66.22.42.26.89-2.67-.38-.13Zm-6.55,15.78-.49-.2-.43,1.85.25-.07Zm69.58-82c-.7-1.55-1.26-1.77-2.35-.61Zm-43.93,6.46-.1.61c.5.06,1,.15,1.5.16.08,0,.15-.36.31-.77Zm-7.42-5-.15.59a11.1,11.1,0,0,0,1.12.34,4,4,0,0,0,.2-.57Zm56.3-11.76-.66,0v1.41l.83-.07C657.76,63.69,657.71,63.24,657.65,62.78ZM578.13,181.25c-.17-.26-.2-.35-.26-.38s-.18,0-.19.09c-.2.63-.37,1.27-.56,1.9l.3.1ZM593,81l0-.46c-.26-.08-.58-.28-.79-.2s-.5.43-1.09,1ZM574.73,195.27c0-1.35-.57-1.4-1.34-1.43C573.09,195.21,574.23,194.62,574.73,195.27Zm34-55.5-.41-.1c-.16.56-.32,1.12-.47,1.68l.29.09Zm-53-63.07c-.25-.27-.46-.59-.54-.56a1.31,1.31,0,0,0-.59.5c0,.06.25.48.34.46A3.26,3.26,0,0,0,555.81,76.7Zm41.57,46.45L596,121.63C595.72,123,596.23,123.27,597.38,123.15ZM618.55,70l-1.67-.83C617.12,69.87,617.23,70.83,618.55,70ZM576.09,188.83l-.46-.09-.29,1.33.51.1Zm22.27-72.41.44.19a2.2,2.2,0,0,0,.5-.71,2.33,2.33,0,0,0-.1-.89h-.32ZM600.18,171l-.48-.19-.54,2.06.39.11Zm2.07-62.3-.31-.09-.35,1.16.34.1C602,109.48,602.15,109.09,602.25,108.7Zm-1.6-27.49-.19-.46-1.17.49.18.45Zm49.67-7.33-.19-.51-.93.35.24.58ZM609,69.72l0-.39c-.14-.06-.31-.19-.42-.15a2.74,2.74,0,0,0-.59.39Zm37.72-6.32-.26.61c.39.11.78.24,1.18.32a1.16,1.16,0,0,0,.18-.35C647.43,63.77,647.06,63.59,646.69,63.4ZM367.33,222.31a6.18,6.18,0,0,1-2.53,3.32c-.68.49-1,1.48-1.57,2.12-1.39,1.48-2.88,2.88-4.29,4.34a6.41,6.41,0,0,0-1.28,1.95c1.83-.52,2.44-2.49,4.15-3.5.09.44.28.84.17,1-2.61,2.55-5.21,5.12-7.91,7.58a16.25,16.25,0,0,1-2.47,1.35,37.69,37.69,0,0,0-4.74,3.18c-4.18,3.67-9,6.24-13.91,8.78-.92.48-1.9.85-2.8,1.36a14.62,14.62,0,0,1-10.34,1.76c-2.09-.41-4.27-.37-6.41-.58-1.75-.17-3.83-.16-4.8-1.71a11,11,0,0,0-3-2.81c-1.12-.87-2.2-1.8-3.4-2.79l.4-2.37a5.86,5.86,0,0,1-2.83-5.15c-.15-3.1,1.5-5.59,3.57-7.87l-1.62,5.92.23.09,2.47-4.63,4.61.83a3.52,3.52,0,0,1-1.33,3.81,3.17,3.17,0,0,0-1.28,2.79c-.07,2.31-.19,2.3,1.85,3.12.44.18.82.48,1.25.68a6.49,6.49,0,0,0,4.85.62c1.2-.37,2.5-.41,3.74-.67a3.49,3.49,0,0,0,1.28-.6c2.92-2.07,5.93-4,8.71-6.29a51.93,51.93,0,0,0,8.16-8.47c1.07-1.38,2.06-2.81,3.16-4.17.23-.29.77-.33,1-.42a24.9,24.9,0,0,1,1.34-2.84c1.15-1.82,2.38-3.6,3.62-5.37.39-.56.62-1.66,1.73-.82.22-.42.73-1,.61-1.22-.49-.73-.15-1.25.22-1.75,4.26-5.71,6.5-12.44,9.33-18.85,2-4.6,3.76-9.33,5.65-14a22.28,22.28,0,0,1,2.56-4.87c-.45,1.5-.8,3-1.39,4.5-3.09,7.63-6.25,15.22-9.37,22.83-.34.81-.6,1.65-.88,2.48-.47.83-1.35,1.48-1.24,3.06.72-1.25,1.58-1.93,1.18-3.12a15.91,15.91,0,0,0,2-2.86c3.32-8.11,6.61-16.24,9.78-24.41a29.89,29.89,0,0,0,1.64-7.47l-1.25,3.23-.55-.18c.44-1.59,1-3.16,1.3-4.76a66.48,66.48,0,0,0,1.4-8,58.07,58.07,0,0,0-.33-6.43c-.06-2.38-3.94-5.21-5.73-5.46a1.83,1.83,0,0,0-.7,0c-4.11,1.22-8.24,2.39-12.33,3.68-3.56,1.13-6.41,3.56-9.3,5.76-3.73,2.85-7.7,5.47-10.75,9.13-1.94,2.33-3.89,4.65-5.7,7.08s-3.64,5.19-5.41,7.82c-2.83,4.22-5.63,8.47-8.44,12.71-1.85,2.78-3.66,5.59-5.54,8.34-.61.87-1.08,2.09-2.83,1.42.81,1.85-.13,2.83-.74,4-1.29,2.55-2.22,5.27-3.45,7.85a27,27,0,0,1-2.24,3.26,2.42,2.42,0,0,0-.4,1,11.48,11.48,0,0,1-3.09,6,10.61,10.61,0,0,0-1,1.83c-1-.46-1-.46,0-3.05l-2.39-2.73-1.89-.33,2.32-4.2c.73,1.62-1.44,3.62,1.22,4.19,1.21-1.46,1.22-3.91,3.41-4.12-.11-1-.25-1.85-.27-2.69,0-1.18,1-1.23,1.77-1.61,1.32-.63,1.26-1.12-.15-2.16-.65-.48-1.26-1-2-1.61.58-1.28,1.22-2.7,1.87-4.12l.46.14c-.31,1.11-.63,2.22-1,3.58l3.2-1.2.13,1.39c.88-.68,2-1.13,2.33-1.92a9.34,9.34,0,0,0,.35-3.16l.71.75c.19-.29.61-.66.54-.87-.36-1.09-.84-2.14-1.29-3.23l1.09-2.43c-1.45-.31-1.75.64-2.42,1.38s0,2.16-1.81,2.05c.34-2.22,1.72-3.85,2.64-5.72,1,.16,1.52,2,2.85.71a4.7,4.7,0,0,0-.43-.6c-.43-.41-1-.72-1.25-1.22-.1-.22.74-.74.83-1.19a10.5,10.5,0,0,1,2-3.64c1.49-2.24,2.85-4.57,4.33-6.82,1.26-1.93,2.63-3.78,3.91-5.7,1.84-2.76,3.57-5.61,5.5-8.32q3.78-5.33,7.81-10.46a23.51,23.51,0,0,1,3.28-2.87c-.53-1.17.92-2.19,1.25-3.88l-2.15,1.33-.28-.24a16.73,16.73,0,0,1,2.29-3.06c4.84-4.18,9.91-8.06,15.9-10.53,1.06-.44,2.12-1.11,3.16-.33l1.26-2.24-1.78-.16v-.43c2.27-.23,4.56-.32,6.8-.71s4.07.42,6.15.28c1.15-.07,2.39.75,3.52,1.31s2,1.23,3,1.84a1.14,1.14,0,0,0,.66.24c2.25-.46,3.93,1.11,5.8,1.8s3.29,2.49,5.08,3.48c3.38,1.87,4.54,5.13,5.71,8.42.78,2.18,1.41,4.4,2.16,6.59a14.89,14.89,0,0,1,1,5.59c-.05,1.37.58,2.76.81,4.15a9,9,0,0,1-.57,5.29c-.57,1.34-.46,2.95-.78,4.42-.76,3.4-2.11,6.77-2.27,10.2-.17,3.65-2.38,6.26-3.44,9.41a5.51,5.51,0,0,0-.49,1.33c-.24,3.68-2.24,6.68-4.06,9.85,0-.26,0-.52,0-.76s-.14-.37-.22-.55c.19-1.11.37-2.22.55-3.32l-.5-.15c-.6,1.65-1.19,3.3-1.79,4.94l.07-.08c-1.84,1.62-1.84,1.62-2.08,2.83l1.76-1.36c-.76,1.31-1.51,2.65-2.32,3.94-.12.18-.55.18-.84.26l-1,.21a26.38,26.38,0,0,0-3.89,6.5Zm-33.68-73.53-2.7,2,.32.37a3.86,3.86,0,0,0,2.33-2.46l1.61-.56-.23-.44Zm13.94,69.44-.37-.28c-.27.29-.55.57-.8.88-4.71,5.79-8.55,12.33-14.68,16.9-2.29,1.7-4.39,3.63-6.6,5.43-1,.84-2.13,1.61-3.2,2.41a1.82,1.82,0,0,0,1.53-.16,87.81,87.81,0,0,0,7.38-4.86,55.93,55.93,0,0,0,6.74-6.41,71.83,71.83,0,0,0,4.8-6.51C344.14,223.17,345.86,220.69,347.59,218.22Zm20-38.68c1.45.33,1.5-.72,1.92-1.3.94-1.28-.05-3.05,1.07-4.29-.77-2.1.15-3.78,1.33-5.41a.86.86,0,0,0,.15-.67c-.09-.26-.3-.64-.51-.67a1.73,1.73,0,0,0-1,.26c-.15.09-.17.42-.22.65q-1,4-2,8C368,177.28,367.8,178.41,367.55,179.54Zm-3.36,10.56h-.42c-.76,1.7-1.55,3.39-2.27,5.11s-1.37,3.52-2.08,5.27-2,3-2,4.91a13.57,13.57,0,0,0,2.17-3.12c1.62-3.61,3.13-7.27,4.64-10.94C364.38,191,364.21,190.51,364.19,190.1Zm-18.35-44.67a9.76,9.76,0,0,0,1.84,1.56c.27.13.82-.35,1.24-.55-.85-1.27.87-1.34,1.1-2.23C348.25,143.16,347.34,144.65,345.84,145.43Zm41,30.24c-2.55,1.52-2.41,3.74-1.7,6.1C385.68,179.74,386.25,177.7,386.81,175.67Zm-22.24,13.68a17.79,17.79,0,0,0,2.77-7.52C365.49,184.31,364.3,187.35,364.57,189.35Zm-62,50.08h1.89c.24-1.29-.44-1.33-1.26-1.21-.45.93-.84,1.78-1.26,2.61-.7,1.37-.71,1.37,1.11,2.38C303.48,242,304.53,240.93,302.56,239.43Zm55.18-97.52-.13-.63a8.28,8.28,0,0,0-5,1.36c-.24.13-.18.79-.24,1.14a15.86,15.86,0,0,0,2.78,0c1-.2.67-.82.2-1.38Zm-28.33,16.87.32.32,4.84-4.49c-2.05-.49-2.6,2.62-4.18,1.17C330.05,156.81,329.73,157.79,329.41,158.78Zm5.86-5.18c2.15-.57,3.58-2.34,5.4-3.52C338.39,150.44,336.85,152,335.27,153.6Zm-7.55,93.26a3.49,3.49,0,0,0,3.85-2.05A4.12,4.12,0,0,0,327.72,246.86ZM305,245.69h2.9l.11-.36-2.25-1.46Zm.87-54.82c.94-1,1.75-1.6,1.43-3C306.2,188.54,305.19,189,305.88,190.87Zm-2.37,46.28.23.47,3-1.29-2.5-.82C304,236.15,303.73,236.65,303.51,237.15Zm40-89.43-.36-.38c-1.91.72-1.91.72-1.44,2.53C342.43,149.05,343,148.38,343.53,147.72Zm39.81,38.91c1-1.54,1-1.54.53-2.79C383.69,184.8,383.55,185.52,383.34,186.63Zm-.83,4.07c-1.25,1.29-1.25,1.29-.87,2.45Zm-78.58,2.69c1.05-.79,1.8-1.1,1.69-2.12C304.42,191.29,304.39,192.16,303.93,193.39Zm5.61,53.6-.51.21.44,1.17.76-.39Zm7.72-72.93c-.28-.31-.45-.62-.63-.63a2.3,2.3,0,0,0-.81.3l.56.9Zm-15.13,20.25-.58.64,1.32,1,.39-.45Zm37-49.34-.21-.26a3.39,3.39,0,0,0-.82.36,2.55,2.55,0,0,0-.42.74l.29.21Zm-26.45,35.47-.33-.43-.8.6c.09.1.22.31.25.3C312.13,180.77,312.42,180.6,312.71,180.44Zm56.18-19.61.34.07c0-.6,0-1.2,0-1.8,0,0-.19-.08-.32-.13ZM326.59,159l-.5.25.67,1.05.31-.18Zm199.77,58.12,4.14-2.57c-.29.54-.37.92-.59,1.06-2.78,1.83-5.09,4.43-8.54,5.15a2.83,2.83,0,0,0-1.25.67c-1.87,1.74-4.33,2.28-6.6,3.21a7.19,7.19,0,0,1-3,.44c-1.5-.1-3-.49-4.47-.71s-2.75-.78-3.15-2.49l-2.45.89c-1.59-1.47-3.33-2.95-4.93-4.57-2.33-2.37-4.65-4.75-6.78-7.29a30.85,30.85,0,0,1-4.67-6.61c-1.63-3.56-3.38-7.19-2.79-11.4.44-3.14.53-6.33.91-9.49a39.64,39.64,0,0,1,1-3.93c.63-2.71,1.23-5.43,1.84-8.14a14.45,14.45,0,0,1,2.78-6l-2.42,7.26.38.24,1.66-1c-1-1.45-.43-2.82.19-4.22,1.63-3.7,3.21-7.42,4.84-11.22l-1.1-.53a20.42,20.42,0,0,1,1-2.36q3.2-5.61,6.49-11.17c.88-1.5,1.9-2.91,2.73-4.43a3.7,3.7,0,0,1,2.09-2.12c.83-.28,1.51-.76,1.11-2-.29-.89.35-1.4,1.29-1.55.41-.06,1-.26,1.11-.56.29-.61.13-1.68.53-1.92a1.82,1.82,0,0,0,1.07-1.38c.36-1.31.87-3,3.18-2.74-.71-1.44-.07-2.27.68-3.14a74.21,74.21,0,0,1,19-15.56,55.85,55.85,0,0,1,10.76-5.06,15,15,0,0,1,12,.88c1.42.74,2.81,1.52,4.16,2.37a8.65,8.65,0,0,1,3.72,5.91c.27,1.32.85,2.57,1.1,3.89a26.61,26.61,0,0,1,.74,5.65c0,1-1,2-1.57,3.13-.1-1.65-.19-3.13-.28-4.67-1.19.23-.85,1.12-1,1.69-.52,2.58-.51,5.38-1.59,7.68-1,2-.75,4.26-1.87,6.17s-2.11,4.25-3.28,6.31c-.86,1.51-1.94,2.89-3.06,4.54l-3-.81c.07.42.16,1,.28,1.72l-1.22.1c.13-.49.44-1,.3-1.19-1.43-2.23.35-3.85,1-5.67,1.07-2.89,2.24-5.74,3.29-8.64a20.56,20.56,0,0,0,.78-3.23c.13-.74,1-1.65-.41-2.2a2.42,2.42,0,0,1,.32-1.68c1.18-1.22,1.94-2.34.32-3.75a.31.31,0,0,1-.06-.23c.13-1-.29-2.17-1.13-2.36a6.09,6.09,0,0,0-3.47.34c-4.82,2-8.66,5.36-12.21,9.1-4.81,5.08-8.38,11.07-12.18,16.89a133.12,133.12,0,0,0-11.7,21.42c-2.79,6.7-5.51,13.42-6.47,20.71-.55,4.19-1.57,8.32-2.13,12.5a14.44,14.44,0,0,0,2.62,10c1.43,2.12,3.85,3.87,7,3.13a1.77,1.77,0,0,1,.7-.13c4.11.59,7-1.95,10.25-3.81a33.07,33.07,0,0,0,9.32-8.09c1.46-1.82,2.23-4,3.73-5.74s2.53-3.46,3.84-5.16A13.38,13.38,0,0,1,543,187l.8,1.72,1-.32a2.25,2.25,0,0,1,0,.7c-.33.85-1.06,1.58-.35,2.67.17.27-.52,1.57-.69,1.54-2.13-.31-1.22.77-1,1.79a10.71,10.71,0,0,1,.16,3.25,5.7,5.7,0,0,1-.76,1.7l-.51-.18c0-.64.08-1.28.15-2.35L540,199.87c.62,1.09,1.42,2.25-.2,3.53-.56.31-2-1.24-2.45.84l1.34.71c-1.5,1.61-2.87,3.24-4.41,4.69-2.26,2.13-4.66,4.11-7,6.2a7.35,7.35,0,0,0-.89,1.33c-1.62,0-2.53,1.09-4,2.25C524.71,219.51,525.19,217.8,526.36,217.13Zm-44.18-21.72c.81-1.8.8-1.9,0-3.72Zm27.4-27.33.53.22,1.71-4.14-.49-.2ZM530,208.64a4.91,4.91,0,0,0-1.59.39c-.2.14-.15.63-.22,1,.34,0,.78.19,1,0S529.59,209.34,530,208.64Zm-16.25-49.91a1.68,1.68,0,0,0,.35.12c.31-.57.61-1.14.9-1.72l-.29-.14C514.38,157.57,514.06,158.14,513.74,158.73Zm-11,22.71a1.73,1.73,0,0,0-.3.51c0,.09.12.22.18.33a1.83,1.83,0,0,0,.35-.44C503,181.77,502.83,181.63,502.72,181.44Zm5.73-10.38.48.18.49-1.54-.36-.13C508.85,170.06,508.65,170.56,508.45,171.06ZM392.77,194.51c.47-1.5.88-3,1.42-4.49s1.1-2.6,1.66-3.9a14,14,0,0,1,.63-1.55c2.15-3.88,3.24-8.23,5.46-12.08s4.36-7.8,6.67-11.62c1.75-2.92,3.71-5.72,5.63-8.66l1.43.35c.13-.24.31-.45.27-.51a2,2,0,0,1,.22-2.72c2.28-2.85,4.42-5.83,6.64-8.74.57-.74,1.1-1.65,2.33-1.13,0-.56-.18-1.18,0-1.39,1.37-1.38,2.82-2.67,4.25-4,.31-.29.86-.52.94-.86.4-1.82,1.77-2,3.23-2.06,1.7-.1,1.78-.19,2.24-2.1.05-.21.14-.51.3-.58,1.7-.78,2.84-2.64,5-2.52a1.61,1.61,0,0,0,1-.47,4.56,4.56,0,0,1,1.86-1.14c-.46-1.33.33-2,1.4-2.47a40.94,40.94,0,0,1,11.11-2.7.4.4,0,0,1,.24,0c2.21,1.12,4.5.27,6.75.26.14,0,.27.16.59.35l-1.38.89c1.07.57,1.93,1.11,2.86,1.49,1.38.58,2.6,1.23,2.68,3.22,1.58-1,2.28-.19,3,.88,3,4.44,4.32,9.15,2.51,14.43a87.88,87.88,0,0,1-2.82,8.39c-.94,2-1.75,4.28-3.63,5.81-.39.32-.48,1-.76,1.46-.45.77-.95,1.51-1.43,2.26l-.43-.23a4.55,4.55,0,0,1,.19-.83c.41-1,1.47-2.26,1.16-2.88-.57-1.17.08-2,.13-2.93a17.11,17.11,0,0,1,.64-3.2,32.7,32.7,0,0,1,1.08-3.62,7.08,7.08,0,0,0-.16-5.62,41.77,41.77,0,0,0-1.27,6.18c-.09,1.68-1.43,2.17-2.16,3.21l.51,2.11-2.57-.45a43.35,43.35,0,0,0,1.38-4.23,18.92,18.92,0,0,0,.24-3.7c0-1.27.41-2.52,0-3.82a2.58,2.58,0,0,1,.33-1.58,7.66,7.66,0,0,0-.06-5.8c-.15-.48-.75-.82-1.37-1.45-.13.79-.18,1.12-.24,1.51a6.69,6.69,0,0,0-6.14,1.1c-2.27,1.62-4.52,3.27-6.77,4.92-1.09.8-2.2,1.58-3.23,2.45-3.72,3.12-6.42,7.09-9.1,11.07a211.8,211.8,0,0,0-15.21,26c-2.65,5.45-4.88,11.11-7.32,16.67a69.37,69.37,0,0,0-4.83,15.76c-.65,3.67-.92,7.4-1.31,11.12-.1,1,0,2.07,0,3.11a4.09,4.09,0,0,0,.83,2.86c.61.78.52,2.08.8,3.14a4.22,4.22,0,0,0,.76,2c1.06,1,1.94,2.57,3.88,1.72a7.47,7.47,0,0,1,1.66-.24c.31-.05.88-.1.89-.21.32-2.3,2.87-1.74,3.95-3.14a32.08,32.08,0,0,1,3.71-3.66,11.17,11.17,0,0,1,1.12-.83l1.79,2c1.52-.66,1.79-1.71,1-3,2-.38,2-.38,2.66.91,1.81-1.39,1.95-2.49.6-5.13l-1.16.49c-.25-.59.21-.88,3.17-2l-1.24-1.52,3.5.62a4.6,4.6,0,0,1,2.43-3.26h0c.78-1.69,1.59-3.37,2.32-5.09.37-.85.81-.87,1.31-.46-.22,1.39-.42,2.68-.69,4.44l1.92-1.7c0,.36.07.6,0,.75-1.41,2.49-2.79,5-4.27,7.43a42.5,42.5,0,0,1-3.13,4.5,27.45,27.45,0,0,1-2.41,2.12,5.13,5.13,0,0,0-.93,1.39,18.11,18.11,0,0,1-.65,1.7c-2.29,3.59-5.38,6.45-8.45,9.36-1.7,1.62-3.35,3.16-5.68,3.73-1.39.34-2.82.57-4.21.92-1.23.31-2.41.83-3.66,1-3.06.48-6.13.72-8.87-1.25-1.39-1-1.57-1-2.64.21a21.23,21.23,0,0,1-5.46-6.25c-.91-1.6-1.76-3.22-2.6-4.86a3.25,3.25,0,0,1-.5-1.57c.27-2.93-.88-5.63-1.26-8.44-.11-.79-.08-1.6-.14-2.39a6.78,6.78,0,0,0-.34-2.59c-.94-1.68-.5-3.21,0-4.84A8.57,8.57,0,0,0,389,210a34.8,34.8,0,0,1,3.86-15.53c-.16.91-.33,1.82-.5,2.73l.35.06,1.14-3.41Zm2.45,40.73c-.34-.64-.67-1.28-1-1.93-.53,1.28-.26,2,1.07,1.86-.13.29-.42.6-.37.85.3,1.44,2.85,4.21,4.25,4.76-1-1.54-2-3.17-3.09-4.77A4.26,4.26,0,0,0,395.22,235.24Zm11.19,6.56c1.48,2,2.38,2.22,3.73,1.15C409.28,241.61,408.07,241.37,406.41,241.8Zm-16.76-31.49c1.16-.23,1.52-.7,1.3-1.52-.16-.64-.45-1.21-1.3-.73Zm12.51,30.47c1,1.42,1,1.41,2.4,1.14C403.67,240.83,403.67,240.83,402.16,240.78Zm34.28-19.58c-.12-1.61-.71-1.88-1.49-1.78-.19,0-.32.43-.48.67ZM391,201.47l.26.07a3.21,3.21,0,0,0,.46-.76,3.89,3.89,0,0,0-.1-1.1,6.93,6.93,0,0,0-.48.93A6.17,6.17,0,0,0,391,201.47ZM22.71,314.93c-2-.83-2.37-2.7-2.77-4.45-.44-1.93-.6-3.93-.87-5.9a.79.79,0,0,1,0-.48c1.54-2.86.27-6.05,1.05-9a58.81,58.81,0,0,0,1.51-7.85c.17-1.37,1.18-2.62,1.76-3.95a6.72,6.72,0,0,0,.47-5.46c-.62-1.65.62-3.27,1.54-4.54,1-1.43,1.24-1.25.73-3.1a1.85,1.85,0,0,1,.11-1.16c.7-1.52.63-3.53,2.63-4.23.82-2.56,1.68-5.11,2.42-7.69.11-.4-.34-1-.56-1.54,2.08-.82,2.66-2.75,3.1-4.46,1.23-4.71,3.72-8.92,5.07-13.56.4-1.36,2.61-1.36,2.11-3.55-.29-1.26.66-2.89,1.24-4.27,1.46-3.44,3-6.84,4.54-10.26.13-.28.27-.75.47-.8,2-.42,2-2.15,2.49-3.54s1.15-2.78,1.76-4.16A52.12,52.12,0,0,1,54,205.7c.47-.81,1.81-1.2,2.12-2a3.9,3.9,0,0,1,1.67-2.43,8.26,8.26,0,0,1,.94-.3,2,2,0,0,1-1.13-3c1-1.63,1.55-4,4.39-3.89l-.71-2.36c1.61-.2,2.07-1.44,2.16-2.65.09-1,.25-1.57,1.22-2,.56-.26.91-1,1.28-1.63.48-.79.89-1.63,1.34-2.45l.46.17a39.84,39.84,0,0,1-1.23,4.07c-2.15,5.23-4.39,10.41-6.56,15.62-.79,1.91-1.41,3.9-2.23,5.8A3.3,3.3,0,0,0,57.9,212c-.47-.44-1-.63-1.34,0a18,18,0,0,0-.8,2c.71.07,1.25-.06,1.48-.4a8,8,0,0,0,.61-1.74c.75-1.66,1.46-3.35,2.29-5a15.06,15.06,0,0,1,1.63-2.15,3.58,3.58,0,0,1,.67-3.31,14.65,14.65,0,0,0,1.69-3.91c.76-2.47,2.41-4.57,2.83-7.17.36-2.23,1.94-3.76,3.35-5.37.12-.13.44-.1.74-.16a7.48,7.48,0,0,1,.47,5.53c-1.7,5.49-3.34,11-5,16.5-1.53,5-3,9.91-4.69,14.82-2.5,7.41-5.33,14.72-7.63,22.19-1.37,4.47-3,8.89-3.7,13.59-.54,3.43-2.17,6.68-2.89,10.1-1.23,5.9-3.45,11.57-4,17.66-.26,3.06-1.39,6-2,9.07-.58,2.72-1.05,5.46-1.53,8.2-.21,1.14-.33,2.29-.5,3.49,1.71-.52,9.59-9.7,13.67-14.71l4.08-.59h0c-.45.38-.9.77-1.36,1.14a12.12,12.12,0,0,0-1.78,1.36,16,16,0,0,0-1.9,2.8c-.14.28.23.83.37,1.26-.39.06-.9,0-1.14.21A38.21,38.21,0,0,0,48,301c-.29.34-.06,1.12-.06,1.7-1.59-.52-2.64.53-3.43,1.51s.05,1.66,1.09,1.95c0,.06,0,.13-.08.2-.52,1.3.92,1.26,1.24,2.51l1.43-2.8L46.07,305c1.64-.24,1.6-1.36,1.76-2.36,2.09-1.34,3.16-3.58,4.72-5.37l1.9,1.4a10.23,10.23,0,0,1,1.49-1.42c1-.65,0-2.05,1.34-2.7,1-.48,1.61-1.68,2.48-2.66l-1.19-1.09,4.12-.84.55,2.16-1.38,1.23c0-.7.41-1.61-1.14-1.57l.21,1.73-.55.28c1.42,2.87-.35,4.49-2.33,6l.56-2.16c-1.29.92-1.28,1.5-.51,2.1.37,1.6-1.12,2.37-1.68,3.54a28.19,28.19,0,0,1-2.82,4.13,3.38,3.38,0,0,1-.94,1.07c-2,1.17-2.71,3.33-3.94,5.1a9.39,9.39,0,0,1-1.86,1.75c-.42.34-1.15.47-1.36.88-.7,1.37-1.69,1.21-2.81.79-.23.43-.39,1.17-.69,1.23-2.28.47-4.57,1.46-6.71-.7a11.69,11.69,0,0,0-3.72-2c-1.77-.78-3.59-1.45-5.35-2.15.48,1.34,1.05,2.91,1.79,5L22.24,313l.43,2Zm-.79-14.19c-1.82,4.23-1.07,10,1.45,11.18C22.89,308.19,22.4,304.45,21.92,300.74Zm27.61-71,.62.33,1.34-3.68-.56-.22Zm.34,3.42-.94-1.75c-.34.84-.55,1.38-.88,2.21ZM55,216.49l2.09-1C55.73,214.68,55.08,214.62,55,216.49ZM22.33,293.88l.71,0v-2l-.29,0Zm20,16-.3-.45c-.67.13-1.68-.17-1.45,1.59Zm10-86.6c-.17.39-.4.67-.36.89a.8.8,0,0,0,.6.47c.18,0,.52-.42.48-.56S52.61,223.67,52.27,223.32Zm641.05-35.94a18,18,0,0,0-3.64,3.81,13.78,13.78,0,0,1-3.15,2.5c-1.85,1.35-3.83,2.5-5.76,3.7-2.14,1.31-4.56,2-6.57,3.44a9.77,9.77,0,0,1-1.09.49c-1.09.6-2.47,0-3.54,1.31-.81,1-2.47,1.25-3.78,1.77s-2.53.93-3.8,1.38-2.83,1.07-4.28,1.43c-2.4.59-4.81,1.13-7.25,1.52-3.42.55-6.83-.12-10.23-.43-.71-.06-1.41-.16-2.11-.28-1.48-.24-3-.26-4.19-1.48a2.81,2.81,0,0,0-1.3-.52,29.39,29.39,0,0,1-3.73-2c-1.25-.74-2.59-1.32-3.91-1.95-.34-.16-.82-.15-1.06-.39-3.1-3.24-5.53-6.93-5.84-11.47a14.9,14.9,0,0,1,1.3-6.28c1.3-3.24,3-6.32,4.55-9.47a8.88,8.88,0,0,1,.55-.86v1.65c5.72-6.09,12.46-10.38,19.34-14.51l1.74,1.46c-2.35,2.22-4.63,4.45-7,6.61-1.63,1.51-3.43,2.84-5,4.43-.85.87-1.62,1.6-2.73,1.36-.32,2.55-.63,4.93-.9,7.32a6.19,6.19,0,0,0,3.08,5.69c1.26.58,2.64.9,3.91,1.46,2.38,1.06,4.69.25,7-.1A46.76,46.76,0,0,0,658.92,184c5.3-2.79,10.88-5.05,16.09-8a53.19,53.19,0,0,0,17.3-14.87,23.19,23.19,0,0,0,2.9-6c1.49-4.37,2.7-8.83,4.1-13.24a13.57,13.57,0,0,0,.07-7.37c-.41-1.8.32-3.48.45-5.73.57,1.27.89,2,1.23,2.77l2.33-.67.23-1.28.38,0,.82,2.5c1.31-1,.32-2.37.79-3.42,2.21-.78,2.46-.5,3.38,1.4a23.7,23.7,0,0,1,2.06,8.88c.06,1,0,2.07,0,3.11a4,4,0,0,1-.18,1.18c-.46,1.46,1.52,2.95.09,4.3-1.24,1.17-.6,2.9-1.52,4.14-.24.33.08,1.05.09,1.59a1.46,1.46,0,0,1-.21.89c-.4.48-.68.92-.13,1.44.81.77.46,1.67.18,2.46a87.53,87.53,0,0,1-9.79,20.72c-.72,1.07-1.83,2-1.56,3.61.05.29-.28.74-.55,1-1.21,1.1-2.47,2.17-3.71,3.24Zm-8.49,6.29c-1.53.36-1.53.36-2.54,1.67Zm4.93-4.58-.32-.35-1.34,1.33.2.22Zm19.13-49.89.48.06v-1.62C709.22,138.13,709.05,138.67,708.89,139.2ZM647,207.36l0-.36-2.31.22Zm-539.78,16c-.29-2.52,1.49-4.41,1.9-6.88a2.25,2.25,0,0,0,2.94-1.4c.55-1.2,1.05-2.42,1.63-3.61.47-1,1-1.94,1.61-3.08l1.08.74c2-1.15,0-2.34,0-3.12l3.49-1.07c.48,2,.47,2-2.16,2.26,1.33,1.51,1.2,3,.64,4.84-.89,2.88-1.24,5.92-1.88,8.87a9.76,9.76,0,0,1-.92,3c-1.22,2.06-.55,4.53-1.59,6.61-.1.2.06.54.25.83.65-2.62,2.33-4.85,2.45-7.67A8.2,8.2,0,0,1,117.9,220c1.14-1.94,1-4.21,1.81-6.15s.68-4.58,2.78-6.15c.57-.42.67-1.56.86-2.4a28.84,28.84,0,0,0,.49-3.07c.27-2.2.56-4.34,2.11-6.15.64-.74.77-1.93,1.22-3.17l-.8-1.27,2-1.6A4.46,4.46,0,0,1,129,195c-.78,2.19-.92,4.6-1.42,6.89-.92,4.1-1.91,8.19-2.83,12.29-.18.81-.12,1.69-.3,2.5-1.19,5.29-2.55,10.55-3.6,15.86-1.28,6.4-2.31,12.84-3.44,19.26l.49.21c.93-1.5,2-3,2.78-4.52,1-2,1.86-4.07,3.74-5.6a5,5,0,0,0,1.52-3.21c.18-2.78,2-4.61,3.33-6.74,2.05-3.36,4.25-6.63,6.39-9.93.16-.25.38-.64.58-.65,1.25-.06,1.23-1,1.44-1.85a2.87,2.87,0,0,1,.77-1.63,9,9,0,0,0,3.67-5.74,1.39,1.39,0,0,1,.86-.88,2.29,2.29,0,0,0,1.83-1.92,3,3,0,0,1,1.83-2.41,6.54,6.54,0,0,0,1.53-1.75c1.14-1.42,2.26-2.85,3.41-4.26.07-.09.29-.05.57-.08l-1.17,3c.76-.49,1.42-.68,1.67-1.11,1-1.76,1.87-3.6,2.8-5.42,1-.15,1.78,1.86,3,0,.27,2.12-1.13,2.89-2.33,4,1.32,1.1,1.14,2.12.1,3.38s-1.69,2.88-2.65,4.24c-1.44,2-2.45,4.33-4.2,6.21-.91,1-1.09,2.59-1.71,3.87-.52,1.09-1.11,2.21-2.58,2-.08,2.46-1.41,4.29-2.33,6.25a14.63,14.63,0,0,1-2.21,2.69,8.62,8.62,0,0,0-1.15,1.51c-1.63,3.24-3.25,6.46-5.1,9.59-2.23,3.76-3.85,7.87-5.8,11.8-1.24,2.48-2.72,4.85-3.86,7.38-2.59,5.7-6.28,10.86-8.3,16.84-1.06,3.17-2.14,6.34-3.33,9.46a42.33,42.33,0,0,1-2.1,4.21c-.06.14-.28.28-.25.37.71,2.45-1.53,4-1.81,6.23a30.31,30.31,0,0,1-1.37,4.31c-.61,2.22-2.46,3.45-3.93,4.94-.38.39-1.58,0-2.49-.08v-4.09l-2,2.54-.46-.23.36-2.5h-3.4c-.83.86-.22,1.26.62,1.75l-1.44,1.79-.48-.09c-.12-1.08-.23-2.17-.36-3.32-1.73-.2-1.68-1.78-1.9-3.47-1.52,2.13-.34,4.48-1.38,6.63-.27-.5-.68-.89-.64-1.23.34-2.89-.24-5.88,1.08-8.65.16-.33.25-.93.07-1.14-1.16-1.35-.4-2.82-.16-4.13a69.61,69.61,0,0,1,2.34-10c.77-2.27.47-4.65,1.31-6.9s1.24-4.78,1.91-7.16c.3-1.05.89-2,1.17-3.05a19.65,19.65,0,0,0,.72-3.94c.09-1.3,1-2.31.88-3.76-.11-1.25.71-2.58,1.12-3.87.29-.94.76-1.39,1.85-.47l.71-2.36-2,.41,1-2.78.45,0,.47,1.64c.63-1.69,1.3-3.13,1.72-4.63,2.26-8.08,4.46-16.18,6.74-24.5-.74,1-1.66,1.64-1.9,2.52-.38,1.42-1.35,1.6-2.45,1.8ZM148.54,208a3.75,3.75,0,0,0-2.33,3c.74-.44,1.21-1.28,1.91-1.56,1.08-.43.2-1,.36-1.51,1.55-.13,1-1.61,1.5-2.42C149.38,206.23,147.92,206.46,148.54,208ZM100,258.79l.44.1.51-2.21-.42-.09C100.36,257.32,100.19,258.05,100,258.79Zm139.67-84,1-1.87h.47c.35,1.49.72,3,1.07,4.46s.69,3.21,1.12,4.8c1,3.68.73,7.41.53,11.14,0,.7-.35,1.42.66,1.77a1.12,1.12,0,0,1,.22,1c-.92,1.17-.65,2.41-.56,3.75a10.13,10.13,0,0,1-.5,4c-.68,1.87-1,3.89-2,5.66a5.62,5.62,0,0,0-.48,1.83c-.18,1.17-.25,2.36-.46,3.53a66.72,66.72,0,0,1-3.57,11.46,37,37,0,0,0-2.36,7.7c-.29,2.21-1.51,3.93-2,5.91-1,3.48-2.59,6.65-3.9,10-1,2.43-2.3,4.8-2.76,7.33a18.37,18.37,0,0,1-1.76,6.14c.71,1.66-.5,2.84-1,4.21-.79,2.09-1.44,4.23-2.18,6.34a4.22,4.22,0,0,1-2.79,3c-.22.06-.54.11-.63.27-1.3,2.16-2.8,1-4.31.41l.36-3.78-.31-.09-1.61,2.32-.62-.24c.11-.87.23-1.75.34-2.62-1.59.9-1.93-1.71-3.65-1-1.08.78-1,2.27-.93,3.93a1.44,1.44,0,0,1-.73-1.91,2.46,2.46,0,0,0-.67-2.55c-.92-1-.89-2.47-.75-3.88.1-1.09.6-2.27-.25-3.37-.68,2.86-2,5.6-1.26,8.72l-1.09-.3.76,2.17a1.75,1.75,0,0,1-1.45-2.09,43.76,43.76,0,0,1,1-8.5c.93-3.43,1.32-7,2-10.49a53,53,0,0,1,1.67-6.62c1.12-3.22,2.47-6.36,3.76-9.52,1.43-3.52,2.85-7,4.36-10.53.9-2.08,2.13-4,2.94-6.15,1.24-3.27,2.25-6.62,3.36-9.94.31-.9.69-1.78,1-2.69,1.31-4,2.69-7.93,3.87-11.94a57.47,57.47,0,0,0,1.08-5.71,2.83,2.83,0,0,1,.59-1.27c.76,2.36,0,4.6-.62,6.8-1.56,5.52-3.21,11-4.81,16.52a6,6,0,0,0-.1,1.21l.49.18a17.9,17.9,0,0,0,1.5-3c1.44-4.72,2.92-9.45,4.11-14.24,1.28-5.15,2.26-10.37,3.32-15.58a7.35,7.35,0,0,0,0-2.09c-.07-.75-.22-1.5-.33-2.25-1.45.28-1.06,2.67-3.2,2.68-1.35,0-2.64,1.45-4.16,1.65l-.39-.5,3-4.52.55,1.58c1.21-.93,2.36-1.8,3.76-2.85-.09-.66,1.69-1.67-.45-2.78l2.62-2.44c1.21,1.63,2.74-.18,4,.67l.65-1.82Zm-19.94,45.38.5.07,1.14-3.07C220,217.84,219.39,218.81,219.74,220.18ZM232.29,182c1.93-.65,2-1.28.2-3C232.42,180.05,232.36,181,232.29,182Zm-33.41,16.73h.81c.34,1.12-.73,1.63-1.06,2.5l1,.75.19-1.31,2.2-.17c-.43-.9-.74-1.56-1.06-2.25l1.86-1.7c.22.15.73.64.89.54.5-.31,1.23-.82,1.24-1.27,0-1.76,1.18-2.24,2.57-2.63a1.51,1.51,0,0,1-.07,2.2c-1.46,1.85-2.52,4-3.84,6-1,1.53-2.21,2.94-3.23,4.47-.88,1.32-1.66,2.71-2.42,4.1-.87,1.58-1.59,3.25-2.54,4.78s-2.05,2.89-3.1,4.32c-.14.19-.43.37-.43.55,0,2.29-2.08,3.42-3,5.23-.4.85-.51,2.1-1.81,2.31.79,1.22-2.21,1.32-.81,2.74,0,.05,0,.37-.14.42-2.21,1.23-1.37,3.81-2.48,5.57s-1.81,3.87-2.77,5.78c-.42.83-1.07,1.54-1.56,2.33-.37.59-.67,1.22-1,1.84-1.23,2.41-2.44,4.83-4.6,6.6l.07.07-.12-2.63c-2.48.34-4.1,1.39-2.41,4.73.63,1.25-.68,2.08-.34,3.17-1.85.45-.74,2-1.08,3.12a10.36,10.36,0,0,1-1,.28c-1,.18-1.23,1.06-.73,1.55.91.89.42,1.55.06,2.33-1.62,3.47-3.25,6.94-4.84,10.42a19.72,19.72,0,0,0-1.42,3.56,8.8,8.8,0,0,1-4.12,5.3,2.75,2.75,0,0,1-2.2,0c-.89-.37-.41-1.2-.2-1.88a2,2,0,0,0,0-1.46l-1.7,2-.38-.21v-1.94l-3.18-.65c-.17.92-.36,1.9-.56,3-1.22.1-1.59-.73-1.72-1.86-.17-1.64-.38-3.26-.6-5.19-1,1.62-1.11,1.85-1,3.26.11,1,.35,2-.76,2.8a9.39,9.39,0,0,1-.55-5.64c.7-4.86,1.73-9.68,2.88-14.47s2.56-9.37,3.87-14.05a23,23,0,0,1,1.32-4.51c1.1-2.13.87-4.59,1.94-6.69a40.45,40.45,0,0,1,3-5.34c-.05.79-.1,1.58-.17,2.57,2.62-3.4,2.17-7.48,3.71-11l-.76-.24q-.92,2.88-1.81,5.78c-.65-4,1.41-7.33,2-11.36,1.09,1,.56,1.87.49,2.62s-.28,1.46-.48,2.47c1.17-.54,1.17-1.4,1.35-2.1,1.07-4.17,2-8.39,3.18-12.53,1.31-4.57,2.58-9.16,3.72-13.78.2-.82.28-1.68.41-2.52l-.53-.38c-.21.58-.42,1.16-.72,2-.72-.93-1-1.29-1.36-1.75l2.57-3.24c-.42-1.71-.17-3.88.61-4.83l.88,1.58,1.44-2.53c2.45,1.25,2.45,1.25,3.88,3.42a2.68,2.68,0,0,0,.63,0,5.06,5.06,0,0,0,.88-.52,15,15,0,0,1,1.23,3c1.06,6.43,1.69,12.82-.41,19.25-.84,2.61-.75,5.51-1.17,8.27-.39,2.59-.89,5.16-1.36,7.75-.37,2.1-.9,4.18-1.07,6.3a5.07,5.07,0,0,1-.59,1.66c-.4,1.08-1.4,2.3-.23,3.56a.71.71,0,0,1,0,.64c-.7,1.55-1.36,3.11-2.15,4.6a6.15,6.15,0,0,0-.82,4.32c1.41-.74,2.29-1.39,2.51-3.1s1.15-3.59,1.87-5.66l.89,1c1.48-2.7,3.38-5.15,3.84-8.29.06-.39.16-.93.42-1.09,1.56-.93,1.39-2.37,1.2-3.79a3.22,3.22,0,0,1,1.38-3.08l-.79,2.85.47.23,3.19-5.67.44-.63,2-3.19-.08.09c.87-1.18,1.73-2.37,2.75-3.77l-1.8-.64.08.05c.33-.51.59-1.36,1.39-.7a1,1,0,0,0,1.59-.3c.8-1.39,1.45-2.86,2.16-4.3l-.5-.28-1.21,2.1c-1-.2-2.07-.18-2-1.89l1.17.88c1.26-.69-1.25-2.52,1-2.91l.46,1,1.08-1.53-1.49-1c.14-.23.2-.5.36-.58.86-.39,2-.51,2.53-1.15.38-.47-.19-1.61-.1-2.43.19-1.66,1.36-2.67,2.42-3.72l.58.33c-.64,1.45-1.27,2.91-1.92,4.38l1.33-.75c.13.65.25,1.24.36,1.82l-3.33,1.91v3.18A15.77,15.77,0,0,0,198.88,198.77ZM174.5,204c-1.12-1.68.54-3.69-.66-5.51-1.39,1.56-1.39,1.56-1.65,4.24C172,204.48,172.35,204.69,174.5,204Zm-19.08,39-.6-.18c-1.52,2.45-1.08,5.36-2,7.95l.49.12Zm13.5-26c1,.09,1.56.77,2.21-.24l-1.34-1.53Zm6-22.37.61-.12c.43-.81.11-1.38-1-1.73Zm-1.64,53.83-1.15-1.23-1.24,2.31Zm-.49-39.73-2.1-.61C171,209.37,171.46,209.48,172.77,208.67Zm-3.22-5.48.57.32.41-1.43-.37-.14Zm1.28-11.07.39,0c0-.46.09-.92.13-1.38l-.28,0Zm-14.69,46.44.34.26c.18-.53.37-1,.55-1.58l-.27-.1C156.56,237.61,156.35,238.09,156.14,238.56ZM684,92c.73,1.29.23,1.9-.47,2.68-3.42,3.79-6.7,7.7-10.06,11.54-1.26,1.43-2.57,2.82-3.94,4.14-3.26,3.18-5.45,7.17-8,10.85-1,1.49-1.45,3.46-2.1,5.22-.27.72-.38,1.39-1.22,1.84s-.88.66-.55,2.34c1.29-.45,2.58-.83,3.82-1.33,2.32-.93,4.45-2.28,7.13-2.29.7,0,1.41-1.32,2.26,0a8.39,8.39,0,0,1,5.47-3.79c1-.21,2-.38,3.07-.53a2.93,2.93,0,0,1,1.18,0,8.59,8.59,0,0,0,5.63,0L684,122c.23-.76.45-1.09,1.18-.66.57.34,1.55.87,1.85.65,1.59-1.18,3-.2,4.39.19-1.46,1.09-1.27,1.7,1,3.07.78-.59,1.74-1.8,2.31-1.64a13.85,13.85,0,0,1,3.48,2.17c-.45,1-1,.91-1.69.65a1.91,1.91,0,0,0-2.54.6c-.21.28-.76.63-1,.54-1.87-.75-3.36.91-5.12.73-.31,0-.7.25-.94.14-2.06-1-3.61.23-5.2,1.18a5.64,5.64,0,0,1-3.76,1.18,3.45,3.45,0,0,0-1.6.46c-3.4,1.53-6.78,3.07-10.3,4.67l.73.78c-.27.14-.63.48-.78.4-2-1-3.44.32-5,1.18a6.26,6.26,0,0,1-1,.33l.53,1c-.14.1-.26.24-.4.26-1.09.11-2.19.16-3.27.3a8.4,8.4,0,0,1-6.29-1.56,16.46,16.46,0,0,0-3.37-1.72,5.73,5.73,0,0,1-3.34-3.19,14.3,14.3,0,0,1,.47-12.07c4.43-9.48,10.78-17.64,17.76-25.37,4.45-4.93,9.09-9.68,14-14.17a16.2,16.2,0,0,1,4-2.79c-.33.4-.66.81-1,1.21s-.69.77-1.21,1.35c.52.06.79.18.92.09,1.79-1.16,3.53-2.4,5.33-3.53a13.07,13.07,0,0,1,1.9-.72c3-1.36,6.07-2.76,9.11-4.12,1.82-.81,3.64-1.64,5.49-2.37a5.69,5.69,0,0,1,6.18,1.11c.16,1.25.28,2.27.42,3.41-.25.21-.88.49-1.09,1a2.51,2.51,0,0,0,0,1.79,2.28,2.28,0,0,1-.11,2.13c-.44,1-.21,2.29,1.78,2.79l-2.3,1.08c-.86-6.43-4.6-7.1-8.34-3.94l1.82-.1.12.32c-1.83,1.31-3.65,2.62-5.48,3.91s-3.78,2.51-5.56,3.91a5.27,5.27,0,0,0-1.27,2.17C686.26,92.12,686,92.3,684,92Zm-12.77,36c-2.06,0-4-.44-4.66,1.94C667.77,130.67,668.68,130.31,671.24,128Zm-7.86,3.44c-2.62-.38-2.93-.26-3.22,1.35C662.39,132.47,662.39,132.47,663.38,131.46Zm26-46.05.37.54,3.39-2.32C691.15,83.13,690.46,84.59,689.36,85.41Zm-8.2,39.52.15.65,1.67-.45,1.76-.49C683.56,124.87,682.19,123.86,681.16,124.93Zm23.59-52.06c-1-1-1.53-.94-2.14,0ZM452.33,198.77l-4,.26a3.09,3.09,0,0,1,.37-3.53c.68-1,1.17-2.14,1.88-3.46l.95.3,2.27-1.59c-1.3-.94-1.33-1-.4-2.11a9.39,9.39,0,0,0,1.68-4.39c.28-1.47.56-2.95.83-4.42a.49.49,0,0,0,0-.24c-.82-4.5,2.58-7.05,4.89-10.16,0,.74-.1,1.48-.17,2.47.71-.36,1.5-.52,1.86-1,.75-1,1.77-1.52,2.59-.71s1.37,2.32,1,2.92c-1.06,1.8-.2,3.72-.84,5.5-.41,1.14-.14,2.4-.69,3.66-.41.94,0,2.35-.12,3.58-.33,3.24-.18,6.54-.69,9.75-1.18,7.42-1.66,14.89-2.18,22.37-.21,3-.82,6-1.18,9a34.63,34.63,0,0,0-.31,4.54,9.17,9.17,0,0,1-2.29,5.65c-.32.42-1,.57-1.57.88-.19-1-.33-1.65-.53-2.68-.62.71-.92,1.06-1.17,1.36l-1.45-3.23-1.63,5.07c-.33-1.41-.86-2.52-2.41-2.73v2.21a5.67,5.67,0,0,1-1-3.69c.21-3.38.53-6.77.9-10.15.35-3.14,1-6.26,1.2-9.41.35-4.7,1.32-9.29,2.11-13.91A13.29,13.29,0,0,0,452.33,198.77Zm6.05-12.28c2.18-.24,2.21-.3,1.58-2.85Zm1.11,4.75a4.79,4.79,0,0,0-.77-.76c-.06,0-.45.22-.45.33s.1.63.29.73S459,191.4,459.49,191.24Zm.57-2.85-.68-.6-.9,1.16.47.4Zm-383,77.07.48,1.19-2.71,2,1.56,1.13c-.53,1-1.77.81-2.32,1.8a3.44,3.44,0,0,1-4.1,1.57c-.5-.61-1-1.24-1.79-2.2l-1.76,3.43h6l.28.4c-2.34.89-3.13,3.07-4.43,4.82-.84,1.12-1.8,2.14-1.61,3.75a20.47,20.47,0,0,1-.32,2.26c0,.93-1.15,1-1.19,1.32a10.62,10.62,0,0,0,.43,2.86c3.12-2.55,4.7-6,6.77-9.14a2.83,2.83,0,0,0,.32-2.87c-.1-.22.14-.58.22-.86,2,.18,2,.22,3.11-1.4,2.32-3.52,4.55-7.1,6.83-10.65,1-1.6,2.14-3.15,3.16-4.75,1.74-2.75,3.36-5.58,5.19-8.27,1.35-2,3.05-3.73,3.84-6.05,1.15-3.38,3.51-6.09,5-9.3a27.2,27.2,0,0,1,3.19-4.35,3.49,3.49,0,0,0-3.89,1.6c-.62.83-1,2-2.66,1.49.6,1.37.62,2-.73,2.65-1,.48-1.72,1.9-2.42,3a35.76,35.76,0,0,0-1.65,3.22l.48,1.34-1,.27c-.39,1.54-.73,2.91-1.07,4.28l-2.21-.17c-1,2.29-3.52,3.56-3.95,5.91l1.13.8-.29.6a3.06,3.06,0,0,0-2.94,3.32c.16,2-2,2.17-2.25,3.65-1.55-.7-1.83,1.07-2.81,1.45ZM88.31,131.11l-.62-1.81c-.44.39-.75.55-.88.8-.94,1.75-1.9,3.5-2.75,5.3s-1.62,3.42-3.3,4.53a4.41,4.41,0,0,0-1.15,3.91c.2.41,1.13.77,1.08,1-.4,1.29.81,2.8-.72,4a8.24,8.24,0,0,0-1.61,2.53c-.07.13.12.4.2.65l1.45-.53.68,2.18c1.82-1,3.46-1.77,5-2.77a11.11,11.11,0,0,0,2.43-2.41,25.16,25.16,0,0,0,1.74-2.8,19.78,19.78,0,0,0,2.92-6.71c.25-1.3-1-1.24-1-2.15-.15-2.3-1.21-4.52-.6-6.9,0,0-.1-.11-.3-.32ZM77,265.53c-.33-2.43,1.3-4.17,2.33-6s2.74-3.66,4-5.58A28.5,28.5,0,0,0,85,250l-.43-.25c-.87.82-1,2.54-2.59,2.48.06,1.53-1.27,1.48-2.15,2a5.72,5.72,0,0,0-2.1,2.16c-.47,1-1.82,1.82-.79,3.35.37.55-.33,1.32-1.25,1.24a6.36,6.36,0,0,1-1-.32c.87,1.66.78,2.78-.13,3.83l0-.07c-1.17,1.32-2.35,2.64-3.39,3.79.15.57.31,1.21.54,2.1l-2-.43,1.22,2c.61-.49,1.61-.89,1.7-1.44.37-2.13,2.71-2.81,3.28-4.74,0-.17.73-.15,1.11-.22Zm46-68.36a20.72,20.72,0,0,0,1.07-6.45,11.44,11.44,0,0,0-2.3,6.59l-1.66-.22c-.25.62-.32,1.28-.68,1.61-1.65,1.48-1.6,3.18-.82,5,0,.11.26.14.42.22l.51-1.17,1.11.89C121.42,201.33,122.16,199.24,122.93,197.17Zm-15.7,26.16c-.49.15-1.14.15-1.41.48a6.29,6.29,0,0,0-1.27,2.25c-.36,1.26-1,1.7-2.25,1.33-.07,0-.21.18-.32.29l.54,1.14-1.27.15c.12.83.21,1.49.32,2.21,1.53.1,2.61-.19,3.07-1.7a7.15,7.15,0,0,1,2.14-3.31,2.05,2.05,0,0,0,.38-2.9Zm208.36-54.8a47.71,47.71,0,0,1,2.83-4c1-1.09,1.13-3,3.08-3.25.19,0,.33-.51.49-.79.4-.73.74-1.51,1.21-2.2s1.17-1.52,1.77-2.28l-.61-.46a104.73,104.73,0,0,0-10.11,13.13C315,168.62,315.45,168.71,315.59,168.53ZM188.82,214.11l-.08.09a12.07,12.07,0,0,0,.72-1.95,18.44,18.44,0,0,0,.23-2.46l.08.05c-1,.25-1.89.89-1.77,1.92.2,1.63-1.86.7-1.73,1.62s-.63,1.51-.8,2.28c-.22,1-.33,1.91.94,2.27l.44-.63C186.63,215.29,186.65,215.26,188.82,214.11Zm-84.66,6.94c.68-.81,1.59-1.34,1.92-2.56.23-.82,1.52-1.31,2.17-2.09a1.4,1.4,0,0,0-.15-1.38c-.36-.29-1.06-.64-1.46.3a4.23,4.23,0,0,1-1.4,2c-1.55.94-1.5,2.36-1.63,3.84C103.88,221.09,104.09,221.13,104.16,221.05Zm104.9-38.7a4.63,4.63,0,0,0,1.61-.54c1.54-1.32,3-2.75,4.5-4.11.39-.35.84-.82,1.3-.87,1.31-.12.84-1,1.05-1.93a54.5,54.5,0,0,0-4.7,3.18c-1.42,1.19-2.63,2.64-3.93,4ZM57.27,290.73c.23-.34.45-.68.7-1,.74-1,1.94-1.63,1.93-3L57.83,286l-1.61,2c-.5.64-1,1.27-1.42,1.76l2.48.91Zm249.08-108.8c.23-.06.55-.05.65-.2,1.25-1.76,2.51-3.53,3.67-5.35.14-.22-.24-.76-.47-1.42C307.39,178,306.2,180.24,306.35,181.93ZM566,85.48c.21.74-.13,1-.85,1a11.4,11.4,0,0,0-1.42.15c-.45.07-.89.17-1.33.25,0,.2.08.4.13.6,1.45-.2,2.9-.43,4.35-.58s3,.44,4.55-.52c-1.88-1.34-3.76-.66-5.51-.85Zm30.13,30.59a2.65,2.65,0,0,0-1.15,1.3c-.91,2.2-1.82,4.42-2.67,6.65a9.33,9.33,0,0,0-.33,1.84l-.07-.06,1-.5-.06.11c.34-.92.67-1.83,1-2.74l.93-1.85,1-3,.08-.07ZM91.67,239c-1.6.29-1.39,2.54-3,2.61.16,1.24.3,2.3.44,3.36a9.67,9.67,0,0,0,1.13-2.59,1.77,1.77,0,0,1,.76-1c1.43-.58,1.17-1.47.55-2.46ZM451,186.94c-1.4,2.55-2.82,5.09-4.17,7.66-.13.26.17.74.26,1.11l.6.14c-.24-2.33,1.51-3.6,2.34-5.34a18.73,18.73,0,0,0,.91-3.63Zm134.24-39.46a14.06,14.06,0,0,1,2-6.36l-.07.08c0-.45-.07-.9-.1-1.35l-.45-.09c-1.1,3.61-2.48,7.14-3,10.93l1.7-3.29Zm-134.3,39.4c.6-.62,1.5-1.14,1.75-1.87a12,12,0,0,1,2.21-3.88c.43-.52.43-1-.54-1.32-.77,1.43-1.59,2.85-2.31,4.33a29.29,29.29,0,0,0-1.05,2.8Zm-5.14,21.55.51-.15c-.06-.68-.12-1.37-.19-2.05l1.3-.28-1.07-1.28-3.14,2.8c1,1.41,1.5.06,2.17.06Zm-177-10.84c-.38.93-1.3,1.72-.86,3,1.85-2.2,2.78-4.67,2.25-6.48C269.62,195.53,269.22,196.57,268.79,197.59Zm-12.45,29.77c1-2.74,2.3-5.39,2.38-8.44q-1.44,4.1-2.86,8.19Zm-161,5.69c.52-.09,1.31,0,1.5-.3.79-1.24,1.93-2.37,2-4.61a17.37,17.37,0,0,0-1.54,1.7c-.66,1.06-1.25,2.16-1.87,3.25ZM699.63,102.9,703,99.15l-.77-.81C699.5,101.09,699.28,101.48,699.63,102.9Zm-634,172.56.5,3.79c.39-1.62,2.2-1.63,2-3.5Zm38.28-36,.57.2,2.16-6.77C104.63,234.68,105.06,237.34,103.93,239.45ZM546,88c1.87.73,3.74.1,5.61-.17C549.79,87.77,547.89,87.2,546,88Zm160.56,2.7a1.11,1.11,0,0,0,.44.87.86.86,0,0,0,.77-.3c.45-.92.8-1.88,1.34-3.23A3.37,3.37,0,0,0,706.6,90.73ZM245,186.53c-.22,2.08-.45,4.15-.67,6.23,1.74-1.86.83-4.08,1.23-6.11Zm-65.38,38.24c-2.74.72-3,1.11-1.76,2.84C178.48,226.68,179,225.83,179.66,224.77Zm-14.53-30.61a4.67,4.67,0,0,0-1.29-1,5.71,5.71,0,0,0-1.58-.13l2.58,2.45C165.19,195.22,165.84,194.87,165.13,194.16Zm518.73-119-3.14,3.35a4.06,4.06,0,0,0,3-1.88c.25-.32.08-1,.09-1.47ZM95.43,233.1c-.63,1.22-2.11,2-1.9,3.94A17,17,0,0,0,95,235.22c.37-.65,1-1.33.36-2.17Zm278.93-18.62c-.39.58-1.15,1-.56,2.17.7-1.54,2.13-2.37,1.68-4.16C375.11,213.16,374.78,213.86,374.36,214.48ZM556.44,87.21l-3.43.28c0,.21,0,.43,0,.64l3.4-.27C556.45,87.65,556.45,87.43,556.44,87.21ZM683.85,75.15l2.22.68.93-2-3.14,1.36ZM232.62,167.7a4,4,0,0,0-3.57.84C231.68,168.61,231.86,168.57,232.62,167.7ZM227.88,185a2.71,2.71,0,0,0,.17,3.4l.49-3.33ZM62.63,284.24l1.66-3.32c-1.8.77-1.74,2.05-2.24,3ZM647.49,34.06l1.66-3.12c-.65.18-1.18.16-1.34.39-.57.84-1.08,1.75-.3,2.76Zm-358,181.42c-.28.76-1.61,1.06-1,2.45C289.37,217.21,290.16,216.67,289.47,215.48Zm11.85,32.6a3.29,3.29,0,0,0,.12-.71c-.05-.7-.13-1.39-.27-2.66C300.23,246.73,300.24,246.76,301.32,248.08ZM246.6,251c-.31,1.23-.56,2.2-.81,3.18C247.27,252.89,247.34,252.57,246.6,251Zm124.5-34.6-1,.21-.36,2.37C370.53,218.33,371.35,217.66,371.1,216.42ZM160.44,194.06l.08,1.56c.29-.06.8-.09.81-.19a8,8,0,0,0-.06-1.38Zm216,15.85c-.07-.18-.14-.37-.22-.55l-1.74,1.47.07-.08-.3,1.51C375,211.47,375.73,210.68,376.47,209.91ZM641.83,41.73c.19-.6.37-1.19.55-1.79C641.18,40.31,641.08,40.92,641.83,41.73ZM302.75,186.4l-1.4,2.16C302.14,188.18,303.15,187.85,302.75,186.4ZM561.1,82.07l-.16-.44a5.37,5.37,0,0,0-1.29.27c-.09,0,.07.63.16,1.24ZM214.44,184.62l-1.54.58.2.64,1.58-.44ZM537.33,84.18l1.46.7.2-.39-1.43-.77ZM652.24,25c-1.2.61-1.89.91-1.2,2.39ZM86.55,247.09c-.09,0-.33.53-.67,1.13l2.25-.35A8.37,8.37,0,0,0,86.55,247.09ZM693,187.91c.14,0,.23.09.29.06.88-.29,1.06-.79.5-1.34l-.46.75Zm-253.79,26a5.18,5.18,0,0,0-.36-1,.48.48,0,0,0-.2,0,7.08,7.08,0,0,0,0,1c0,.11.23.2.35.3h0C439.06,214.15,439.23,214,439.2,213.89ZM649.8,29.7l.43-1.18-.41-.15-.62,1ZM173.86,252.53c-1.11-.16-1.29.52-1.37,1.67.8-.52,1.68-.62,1.3-1.74Zm-99.3,11.94c-.22-.3-.44-.61-.67-.91-.19.21-.58.49-.53.62.26.71.74.66,1.25.22ZM22.71,314.93A2.76,2.76,0,0,0,25,316.37L22.67,315ZM279.22,176.77l.65-1.79-.27-.11-.89,1.72Zm65.55-38.26-1.41.69.14.32,1.42-.67Zm-72.65,57.22.52-1.07-.34-.15-.49,1.07Zm-10.74,16.2-.45,1.34.38.11c.12-.46.23-.92.35-1.37ZM695.41,64H694C694.67,64.9,694.67,64.9,695.41,64ZM441.53,207.52a2.74,2.74,0,0,0,.55.34c.08,0,.33-.22.31-.26A3.34,3.34,0,0,0,442,207Zm-338.6,36.54-.59,1.6.6.19.47-1.63Zm168.65-51.57.73-.94a2.73,2.73,0,0,0-.37-.23c-.25.29-.47.6-.7.91Zm10.63,30.17c-.12.49-.23,1-.35,1.48l.4.12c.19-.46.37-.92.56-1.37ZM270.12,199l-.28,1.18.38.09.26-1.18Zm3-9.6.51-.89c-.14-.07-.37-.22-.39-.19a9.27,9.27,0,0,0-.6.8ZM91.61,239c.6,0,1.21,0,1-1l-1,1ZM291,159.23a.73.73,0,0,0-.4.48c0,.15.22.32.33.49l.71-.62C291.35,159.39,291.14,159.19,291,159.23ZM623.41,99.52l-.45,2,.46,0v-2ZM265.33,207.35l.53-1.08-.39-.19-.5,1.1Zm292-123.12h-1.29v.23h1.25Zm-3.27.35c-.06,0-.2.16-.3.25a2.52,2.52,0,0,0,.45.42s.21-.17.39-.33A2.3,2.3,0,0,0,554.07,84.58Zm37.09-1.07a.41.41,0,0,0-.81.06c0,.18.18.37.36.68C591,83.84,591.19,83.65,591.16,83.51ZM486.68,210.66l-.92-1.14-.27.22.9,1.22ZM220.37,173.49c0,.14,0,.36.14.4a2.57,2.57,0,0,0,.69.15l-.51-.81ZM59.59,284.85l.45-1.28-.43-.13-.38,1.3Zm210.76-93.67.42-.93-.24-.11-.5.89Zm97.94,29.72c.5-.67,1-1.33,1.49-2C369.29,219.57,368.79,220.23,368.29,220.9ZM205.83,185.48c-.07,0-.28.45-.23.5a1.31,1.31,0,0,0,.68.37c.09,0,.24-.3.46-.6A4,4,0,0,0,205.83,185.48ZM155.26,194a2.24,2.24,0,0,0-.5.35s.06.23.1.35l.6-.32Z" style="fill: none"/>
    </clipPath>
  </defs>
  <g style="clip-path: url(#clip-path-impacts)">
    <polyline class="animate" points="66.48 187.19 25 321.29 125.95 196.11 101.09 306.43 171.72 172.98 155.41 281.03 239.62 146.02 213.45 277.69 305.13 131.59 213.83 389.18 296.22 202.55 360.31 136.75 376.47 163.96 357.66 234.04 319.81 255.5 307.91 245.69 454.14 264.73 460.67 171.9 423.99 238.72 393.47 237.11 396.56 206.55 425.21 151.84 453.06 125.86 471.26 126.27 464.82 150.81 509.33 147.51 548.45 144.62 546.04 109.24 495.88 195.73 506.03 224.38 542.7 195.13 583.02 224.86 652.24 25 529.99 83.7 711.5 60.87 702.24 98.34 695.21 73.55 643.94 133.67 666.01 137.12 698.21 125.79 703.68 156.99 689.44 188.74 651.52 197.33 624.99 202.05 633.6 173.22 650.35 155.56 89.81 145.62" style="fill: none;stroke: #f08a20;stroke-linecap: round;stroke-linejoin: round;stroke-width: 50px"/>
  </g>
</svg>
