<svg xmlns="http://www.w3.org/2000/svg" xmlns:xlink="http://www.w3.org/1999/xlink" viewBox="0 0 1226.73 1222.23"><defs><clipPath id="clip-path-2" transform="translate(2.23 1.22)"><rect x="59.96" width="615.45" height="44.38" style="fill:none"/></clipPath><clipPath id="clip-path-3" transform="translate(2.23 1.22)"><rect width="1224" height="1224" style="fill:none"/></clipPath><pattern id="Unnamed_Pattern_94" data-name="Unnamed Pattern 94" width="38.07" height="22.01" patternTransform="matrix(1, 0, 0, -1, -5095.57, 8612.78)" patternUnits="userSpaceOnUse" viewBox="0 0 38.07 22.01"><rect width="38.07" height="22.01" style="fill:none"/><g style="clip-path:url(#clip-path)"><polyline points="50.96 -22.34 47.57 -16.51 38.07 -22 38.07 -22.01 38.07 0 38.07 0 47.6 -5.5 50.96 0.22" style="fill:none;stroke:#f8971d;stroke-linejoin:bevel"/><polyline points="12.89 -22.34 9.5 -16.51 0 -22 0 -22.01 0 0 0 0 9.53 -5.5 12.89 0.22" style="fill:none;stroke:#f8971d;stroke-linejoin:bevel"/><polyline points="38.07 -0.1 28.58 -5.58 28.59 -5.61 28.55 -5.63 31.72 -11.11 28.55 -16.59 28.59 -16.61 28.58 -16.63 38.07 -22.11" style="fill:none;stroke:#f8971d;stroke-miterlimit:10"/><polyline points="19.06 -11.11 28.55 -5.63 28.54 -5.61 28.58 -5.58 25.42 -0.12 25.31 0.1 25.4 -0.1" style="fill:none;stroke:#f8971d;stroke-miterlimit:10"/><polyline points="0 -0.1 -9.49 -5.58 -9.48 -5.61 -9.52 -5.63 -6.35 -11.11 -9.52 -16.59 -9.48 -16.61 -9.49 -16.63 0 -22.11" style="fill:none;stroke:#f8971d;stroke-miterlimit:10"/><polyline points="50.96 -0.33 47.57 5.5 38.07 0.01 38.07 0 38.07 22.01 38.07 22.01 47.6 16.51 50.96 22.23" style="fill:none;stroke:#f8971d;stroke-linejoin:bevel"/><polyline points="12.89 -0.33 9.5 5.5 0 0.01 0 0 0 22.01 0 22.01 9.53 16.51 12.89 22.23" style="fill:none;stroke:#f8971d;stroke-linejoin:bevel"/><polyline points="38.07 21.91 28.58 16.43 28.59 16.4 28.55 16.38 31.72 10.9 28.55 5.42 28.59 5.4 28.58 5.38 38.07 -0.1" style="fill:none;stroke:#f8971d;stroke-miterlimit:10"/><polyline points="19.06 10.9 28.55 16.38 28.54 16.4 28.58 16.43 25.42 21.89 25.31 22.11 25.4 21.91" style="fill:none;stroke:#f8971d;stroke-miterlimit:10"/><polygon points="28.55 16.48 28.59 16.51 28.58 16.53 28.54 16.51 28.55 16.48" style="fill:none;stroke:#f8971d;stroke-miterlimit:10"/><polygon points="28.55 16.48 28.59 16.51 28.58 16.53 28.54 16.51 28.55 16.48" style="fill:none;stroke:#f8971d;stroke-miterlimit:10"/><polyline points="25.18 -0.33 25.41 0 28.58 5.48 28.54 5.5 28.55 5.52 19.06 11" style="fill:none;stroke:#f8971d;stroke-miterlimit:10"/><polygon points="28.55 5.52 28.54 5.5 28.58 5.48 28.59 5.5 28.55 5.52" style="fill:none;stroke:#f8971d;stroke-miterlimit:10"/><polygon points="28.55 5.52 28.54 5.5 28.58 5.48 28.59 5.5 28.55 5.52" style="fill:none;stroke:#f8971d;stroke-miterlimit:10"/><polygon points="6.36 11.02 9.53 5.5 19.06 11.01 9.53 16.51 6.36 11.02" style="fill:none;stroke:#f8971d;stroke-miterlimit:10"/><line x1="19.06" y1="22.01" x2="19.06" style="fill:none;stroke:#f8971d;stroke-linejoin:bevel"/><polyline points="0 21.91 -9.49 16.43 -9.48 16.4 -9.52 16.38 -6.35 10.9 -9.52 5.42 -9.48 5.4 -9.49 5.38 0 -0.1" style="fill:none;stroke:#f8971d;stroke-miterlimit:10"/><polyline points="50.96 21.68 47.57 27.51 38.07 22.02 38.07 22.01 38.07 44.02 38.07 44.02 47.6 38.52 50.96 44.24" style="fill:none;stroke:#f8971d;stroke-linejoin:bevel"/><polyline points="12.89 21.68 9.5 27.51 0 22.02 0 22.01 0 44.02 0 44.02 9.53 38.52 12.89 44.24" style="fill:none;stroke:#f8971d;stroke-linejoin:bevel"/><polyline points="38.07 43.91 28.58 38.44 28.59 38.41 28.55 38.39 31.72 32.91 28.55 27.43 28.59 27.41 28.58 27.39 38.07 21.91" style="fill:none;stroke:#f8971d;stroke-miterlimit:10"/><polyline points="25.18 21.68 25.41 22.01 28.58 27.49 28.54 27.51 28.55 27.53 19.06 33.01" style="fill:none;stroke:#f8971d;stroke-miterlimit:10"/><polyline points="0 43.91 -9.49 38.44 -9.48 38.41 -9.52 38.39 -6.35 32.91 -9.52 27.43 -9.48 27.41 -9.49 27.39 0 21.91" style="fill:none;stroke:#f8971d;stroke-miterlimit:10"/></g></pattern><pattern id="Unnamed_Pattern_94-3" data-name="Unnamed Pattern 94" width="38.07" height="22.01" patternTransform="matrix(1, 0, 0, -1, -5072.55, 8605.99)" patternUnits="userSpaceOnUse" viewBox="0 0 38.07 22.01"><rect width="38.07" height="22.01" style="fill:none"/><g style="clip-path:url(#clip-path)"><polyline points="50.96 -22.34 47.57 -16.51 38.07 -22 38.07 -22.01 38.07 0 38.07 0 47.6 -5.5 50.96 0.22" style="fill:none;stroke:#f8971d;stroke-linejoin:bevel"/><polyline points="12.89 -22.34 9.5 -16.51 0 -22 0 -22.01 0 0 0 0 9.53 -5.5 12.89 0.22" style="fill:none;stroke:#f8971d;stroke-linejoin:bevel"/><polyline points="38.07 -0.1 28.58 -5.58 28.59 -5.61 28.55 -5.63 31.72 -11.11 28.55 -16.59 28.59 -16.61 28.58 -16.63 38.07 -22.11" style="fill:none;stroke:#f8971d;stroke-miterlimit:10"/><polyline points="19.06 -11.11 28.55 -5.63 28.54 -5.61 28.58 -5.58 25.42 -0.12 25.31 0.1 25.4 -0.1" style="fill:none;stroke:#f8971d;stroke-miterlimit:10"/><polyline points="0 -0.1 -9.49 -5.58 -9.48 -5.61 -9.52 -5.63 -6.35 -11.11 -9.52 -16.59 -9.48 -16.61 -9.49 -16.63 0 -22.11" style="fill:none;stroke:#f8971d;stroke-miterlimit:10"/><polyline points="50.96 -0.33 47.57 5.5 38.07 0.01 38.07 0 38.07 22.01 38.07 22.01 47.6 16.51 50.96 22.23" style="fill:none;stroke:#f8971d;stroke-linejoin:bevel"/><polyline points="12.89 -0.33 9.5 5.5 0 0.01 0 0 0 22.01 0 22.01 9.53 16.51 12.89 22.23" style="fill:none;stroke:#f8971d;stroke-linejoin:bevel"/><polyline points="38.07 21.91 28.58 16.43 28.59 16.4 28.55 16.38 31.72 10.9 28.55 5.42 28.59 5.4 28.58 5.38 38.07 -0.1" style="fill:none;stroke:#f8971d;stroke-miterlimit:10"/><polyline points="19.06 10.9 28.55 16.38 28.54 16.4 28.58 16.43 25.42 21.89 25.31 22.11 25.4 21.91" style="fill:none;stroke:#f8971d;stroke-miterlimit:10"/><polygon points="28.55 16.48 28.59 16.51 28.58 16.53 28.54 16.51 28.55 16.48" style="fill:none;stroke:#f8971d;stroke-miterlimit:10"/><polygon points="28.55 16.48 28.59 16.51 28.58 16.53 28.54 16.51 28.55 16.48" style="fill:none;stroke:#f8971d;stroke-miterlimit:10"/><polyline points="25.18 -0.33 25.41 0 28.58 5.48 28.54 5.5 28.55 5.52 19.06 11" style="fill:none;stroke:#f8971d;stroke-miterlimit:10"/><polygon points="28.55 5.52 28.54 5.5 28.58 5.48 28.59 5.5 28.55 5.52" style="fill:none;stroke:#f8971d;stroke-miterlimit:10"/><polygon points="28.55 5.52 28.54 5.5 28.58 5.48 28.59 5.5 28.55 5.52" style="fill:none;stroke:#f8971d;stroke-miterlimit:10"/><polygon points="6.36 11.02 9.53 5.5 19.06 11.01 9.53 16.51 6.36 11.02" style="fill:none;stroke:#f8971d;stroke-miterlimit:10"/><line x1="19.06" y1="22.01" x2="19.06" style="fill:none;stroke:#f8971d;stroke-linejoin:bevel"/><polyline points="0 21.91 -9.49 16.43 -9.48 16.4 -9.52 16.38 -6.35 10.9 -9.52 5.42 -9.48 5.4 -9.49 5.38 0 -0.1" style="fill:none;stroke:#f8971d;stroke-miterlimit:10"/><polyline points="50.96 21.68 47.57 27.51 38.07 22.02 38.07 22.01 38.07 44.02 38.07 44.02 47.6 38.52 50.96 44.24" style="fill:none;stroke:#f8971d;stroke-linejoin:bevel"/><polyline points="12.89 21.68 9.5 27.51 0 22.02 0 22.01 0 44.02 0 44.02 9.53 38.52 12.89 44.24" style="fill:none;stroke:#f8971d;stroke-linejoin:bevel"/><polyline points="38.07 43.91 28.58 38.44 28.59 38.41 28.55 38.39 31.72 32.91 28.55 27.43 28.59 27.41 28.58 27.39 38.07 21.91" style="fill:none;stroke:#f8971d;stroke-miterlimit:10"/><polyline points="25.18 21.68 25.41 22.01 28.58 27.49 28.54 27.51 28.55 27.53 19.06 33.01" style="fill:none;stroke:#f8971d;stroke-miterlimit:10"/><polyline points="0 43.91 -9.49 38.44 -9.48 38.41 -9.52 38.39 -6.35 32.91 -9.52 27.43 -9.48 27.41 -9.49 27.39 0 21.91" style="fill:none;stroke:#f8971d;stroke-miterlimit:10"/></g></pattern></defs><title>pattern-strip</title><g id="Layer_2" data-name="Layer 2"><g id="Arrow"><g style="clip-path:url(#clip-path-2)"><g style="clip-path:url(#clip-path-3)"><rect x="2.23" y="1.22" width="1224" height="1220.51" style="fill:url(#Unnamed_Pattern_94)"/><g style="clip-path:url(#clip-path-3)"><rect x="0.5" y="0.5" width="1225.73" height="1221.23" style="fill:none;stroke-miterlimit:10;stroke:url(#Unnamed_Pattern_94-3)"/></g></g></g></g></g></svg>