<svg xmlns="http://www.w3.org/2000/svg" xmlns:xlink="http://www.w3.org/1999/xlink" viewBox="0 0 1188.9 685.16"><defs><clipPath id="clip-path-perception" transform="translate(16.19 31.68)"><path id="mask2" d="M235,572.07l6.9-1.64c.79-.19,2.19-.17,2.29-.52,2-7,9.11-6.13,13.75-8.3,11.33-5.31,23.31-9.33,35.23-13.27,13.64-4.5,27.48-8.4,41.27-12.46,11.12-3.29,22.24-6.65,33.46-9.57,9.74-2.53,19.64-4.43,29.45-6.71,4.09-1,8.09-2.35,12.2-3.19,7.53-1.53,15.14-2.64,22.67-4.22,15.82-3.31,31.54-7.24,47.44-10.11,15-2.71,30.21-4.38,45.32-6.52,16.07-2.27,32.13-4.65,48.22-6.79,10.28-1.37,20.59-2.51,30.91-3.51,15.5-1.51,31-2.73,46.51-4.21q14.77-1.41,29.51-3.23c11.54-1.42,23-3.06,35-4.67l-1.06-.61,55-2c0-.6,0-1.2.08-1.8-2.61-.29-5.21-.76-7.82-.81-7.36-.15-14.72,0-22.08-.17-8.26-.16-16.51-.6-24.77-.71s-16.73.32-25.08,0-16.81-1.35-25.23-1.85a69.19,69.19,0,0,0-9,.49c-8.48.65-16.94,1.52-25.43,1.95-11.06.56-22.14.66-33.2,1.19-8.34.41-16.65,1.26-25,1.76-5.38.31-10.79.13-16.15.54-8,.62-16,1.55-24,2.36-17.57,1.78-35.14,3.66-52.73,5.29-4.3.39-8.71-.37-13,0-4.82.4-9.55,1.71-14.36,2.23-7.06.76-14.18,1.07-21.25,1.77-4.26.42-8.47,1.36-12.74,1.81-3,.32-6.1.14-9.15.33-1.22.07-2.41.61-3.63.79a48.62,48.62,0,0,0-4.85.56c-1.51.38-2.86,1.47-4.38,1.75a99.58,99.58,0,0,1-11.64,1.6c-1.13.08-2.35-1.21-4.26-2.28,4-1.33,6.55-2.33,9.22-3a7,7,0,0,1,4.05-.07c3.4,1.35,6.57,2.65,9.18-1.28a2.22,2.22,0,0,1,1.49-.51c2.43,4.09,3.93.93,6.21-.33,1.55-.85,4.08.07,6.17.22a25.64,25.64,0,0,0,8.35-.3L421.05,481l21.79-2.88-.2-1.63c-37.72,1.81-74.88,9.21-112.56,11.74,1.57-.31,3.16-.54,4.7-1s3-1.06,4.56-1.6l0-1.43c-2.37-.37-4.77-.67-7.12-1.13a18.19,18.19,0,0,1-4.77-1.37c-2.77-1.45-5-1.17-6.17,1.78-1.29,3.17-3.79,3.74-6.73,4a44.14,44.14,0,0,0-5.7,1.37l.28,1.32,14.28-1.59.23,1.66-40,5.77-.25-1,3.13-2.26c-1.94-2-1.78-3.69.81-5.36h-15l-.09-.95-3.66,3.92c.29,1.38.57,2.79.86,4.19l-.61,1.18c-4.3-6.7-9.78-4-16.14-3.12l5.29,2.64,0,.85c-3.44.52-6.89,1.06-10.34,1.53-1.48.21-3,.24-4.47.37-1.08.1-2.72.76-3.16.28-4.05-4.35-8.41-.56-12.56-.56-3.16,0-6.3,1.33-9.49,1.55-1.85.13-3.76-.76-5.64-1.2l0-1.66c4.47-1.11,8.94-2.23,13.42-3.3,8.42-2,16.82-4.19,25.29-6,6-1.27,12-2,18-3.05,3.84-.7,7.61-1.8,11.46-2.4,12.59-2,25.19-3.88,37.82-5.57,4.48-.6,9.06-.51,13.6-.75a5,5,0,0,0,1.2-.21c17.47-5.23,35.44-7.49,53.53-9.15,5.38-.49,10.67-1.83,16-2.47,14-1.67,28.1-3,42.11-4.8,10.94-1.39,21.79-3.45,32.72-4.81,8.6-1.06,17.3-1.35,25.92-2.24,11.23-1.17,22.43-2.68,33.66-3.88,7.65-.81,15.32-1.43,23-2q17.38-1.26,34.79-2.32c11.1-.68,22.2-1.44,33.31-1.86,12.47-.47,25-.55,37.44-.89,7-.18,14-.83,20.95-.74,7.39.11,14.76,1,22.16,1.25,4.45.14,8.92-.53,13.39-.54q17.38,0,34.79.18,13,.18,26,.68,32.79,1.23,65.57,2.59c13.26.53,26.52,1,39.77,1.66,6.72.34,13.41,1.14,20.12,1.61,8.19.58,16.41.74,24.56,1.57,21.15,2.17,42.28,4.45,63.38,7,12,1.44,24,3.14,35.93,5.39,8.3,1.58,16.42,4.17,24.53,6.58,2.59.77,4.92,2.44,8,4l-3.54,4.49,3.33,2.6c-3.23,3.74-8,5.4-11.62,4.55-5.38-1.25-7.91,1.64-11.35,4.14-2.28,1.65-5.09,3.35-7.76,3.53-12.63.88-25.28,1.56-37.91-.39-2.55-.4-5.83,1.31-7.78.25-6-3.25-12.23-1.27-18.28-2-7.15-.85-14.5,0-21.75-.28-2.31-.08-4.59-1.24-7.29-2-4.81.3-10.23.84-15.67,1-9,.18-17.9.14-26.85.1-5.47,0-10.93-.36-16.39-.31-13.18.11-26.36.24-39.54.62-9.5.27-19,1.19-28.49,1.34-3.49.05-7.47,2.14-10.61-1.33-.18-.19-.8,0-1.21.05-7.64,1.06-15.26,2.38-22.93,3.14-14.62,1.45-29.26,2.64-43.9,3.8-7.34.59-14.72.71-22,1.31-8.86.73-17.7,1.7-26.54,2.64-7.07.75-14.13,1.67-21.21,2.38-15.7,1.57-31.41,2.54-47,5.21-16.69,2.84-33.7,3.79-50.53,5.87-11.36,1.4-22.63,3.49-34,4.92-6.75.86-13.59,1-20.39,1.52-.41,0-.91-.15-1.23,0-6.19,3.32-13.1,2.13-19.64,3.22-4.25.7-8.35,2.28-12.59,3.06a35.79,35.79,0,0,1-11.1.2l5.48-2.58c-5.92-3.44-10,1.24-14.55-.22l-.12,1.43c1.06,1,2.13,1.91,3.84,3.44-4.66,1.13-8.37,3.53-12.92,1.95a3.89,3.89,0,0,0-2.81,0c-8.77,4.9-18.83,5-28.2,7.61-13.06,3.68-26.24,7-39.43,10.11-7.68,1.84-15.49,3.11-23.24,4.64l-.3-1.23,11.31-4-.43-1.24A37.8,37.8,0,0,0,348.39,551l5.13,1.55-.07,1-51.4,16,.41,1.62c2.48-.42,5-.78,7.45-1.27,8.88-1.78,17.76-3.6,26.63-5.4a4.22,4.22,0,0,1,1.67-.17c7,1.59,13.22-1.94,19.83-2.84,14.65-2,29.36-3.58,44-5.55,6.34-.85,12.59-2.31,18.9-3.36,9.65-1.61,19.29-3.26,29-4.61,19.26-2.69,38.52-5.35,57.82-7.73,19.69-2.44,39.41-4.72,59.15-6.68,10.32-1,20.73-1.19,31.09-1.81,11.44-.68,22.88-1.66,34.33-2.12,11.18-.45,22.37-.36,33.56-.6,6-.13,12-.8,18-.64,9.24.24,18.46,1.12,27.7,1.47,6.32.25,12.67-.16,19,.14,7,.32,14,1,20.95,1.72,9.73,1,19.51,1.79,29.16,3.34,14,2.25,28.22,4,41.62,9.17,5.9,2.3,11.92,4.3,18.9,6.8-3.81,1.37-6.35,2.66-9,3.13-1.92.33-4.59.25-6-.85-5.19-4.13-11.51-3-17.26-4.24-7.86-1.75-15.87-2.87-23.84-4.11a39,39,0,0,0-9.72-.3c6.86,6.57,16,4.49,23.85,7.23s16.18,4.67,24.29,6.94c-.15.6-.31,1.2-.46,1.8-1.76-.43-3.53-.83-5.29-1.29-4.75-1.22-9.84-4.13-14.14-3.25-5,1-8.89-4.1-13.48-.91-.15.11-.59,0-.78-.17-4.85-4-10.56-2.32-16-2.56-2.73-.11-5.42-.9-8.15-1.15-3.49-.32-7-.4-10.52-.59l-.18,1.65,27.08,4.17-.15,1.1-43.6-3.89c0-.25,0-.51,0-.77h13l.48-1.38c-1.56-.69-3.08-1.87-4.68-2-8.5-.63-17-1-25.53-1.45-2.5-.29-5-.76-7.49-.83-11.88-.32-23.76-.56-35.65-.79-3.9-.07-7.79,0-11.69,0l0,1c4.39.57,8.77,1.18,13.17,1.7,1,.12,2.12-.12,3.18-.1,2.14,0,4.29.06,6.42.21,5.38.38,10.78,1.32,16.14,1.11s10.62-1.53,15.93-2.37c1.46,1.73,2.89,2.13,5.42,1.73,2.32-.36,5,1.54,7.5,2.45,0,.47,0,1,0,1.43-3.84,0-7.7.16-11.53,0-6.43-.35-12.85-1.09-19.29-1.36-3.33-.14-6.68.57-10,.55-13.32-.09-26.64-.63-39.94-.39-8.77.17-17.5,1.58-26.27,2.1-16.78,1-33.58,1.56-50.34,2.67-12.69.83-25.37,2-38,3.43-15.56,1.73-31.12,3.59-46.61,5.84-23,3.34-45.87,7.1-68.81,10.61-6.08.93-12.19,1.82-18.32,2.29-2.23.17-4.55-.93-6.61-2.22l22-4.33-.25-1.45L319.16,586.12l.23,1.62c3.33-.47,6.65-1.13,10-1.37s6.64,0,10.72,0c3.41-1,7.68-2.71,12.11-3.27,7.7-1,15.51-1.1,23.25-1.89,2.26-.23,4.37-1.73,6.64-2.24,3.67-.84,7.4-1.2,11.31,2.12-5.75,1.28-10.77,2.79-15.9,3.46-11.23,1.47-22.55,2.24-33.76,3.83-7.44,1-14.73,3.09-22.12,4.56-10.7,2.11-21.42,4.18-32.16,6.09-1.87.33-3.88-.2-5.83-.33,1.46-1.23,2.74-3.15,4.4-3.58,5.82-1.52,11.78-2.49,17.66-3.76,2.21-.48,4.36-1.2,6.53-1.81a4.24,4.24,0,0,0-3.41-.64c-11.1,2.25-22.2,4.48-33.28,6.84q-14.76,3.15-29.46,6.63c-1.19.29-2.16,1.52-3.24,2.32l.68,1c5.39-1.1,10.83-2,16.15-3.35,7.91-2,15.58-5.31,24-3.72-4.84,1.65-9.57,3.76-14.53,4.86-9.21,2-18.51,3.75-27.84,5-3.53.49-7.13.22-9.94-3.64-2-2.73-5.82-4.26-9-5.94-4.22-2.21-5.33-4.21-3.84-8.6a43.06,43.06,0,0,1,3-7.59c.93-1.66,2.72-2.83,4.12-4.22l0-.07-3,5.72,1.83,1.28q4.43-5.61,8.84-11.21Zm87.51-12.92c-6.65-1.14-12.17,1.41-17.35,5l.49,1.3,16.79-6.41,8.81-1.73-.36-1.35C327.85,556.23,324.46,555.43,322.53,559.15Zm193.53.35-.27-1.69c-30.53,3.44-61,7.09-91.28,12.6l.21,1.5Zm-61.31-80.95c4.06-.43,8.74.22,9.51-1.22,2.54-4.71,6.38-2,9.48-2.81a33.41,33.41,0,0,1,5.41-.57c13.79-1.25,27.57-2.48,41.35-3.77a34.4,34.4,0,0,0,4.21-.92l-.21-1.33c-24.5,2.62-49.22,2.87-73.61,6.82V476l7.33.4Zm64.74,78.07.17,1c6.21.59,12.41,1.24,18.63,1.71a8.44,8.44,0,0,0,3.42-.85c-.52-3,2-2.19,3.26-2.46a50.43,50.43,0,0,1,7.08-.77c12.12-.93,24.24-1.81,36.35-2.76a20.85,20.85,0,0,0,3.42-.85l-.18-1.07C567.59,552.67,543.42,553.27,519.49,556.62Zm175-95.95c-30.79-2.32-61.46.14-92.18.09l0,1.92Zm-99.91,3.39c-12.82-2.25-60.66,1.15-66.42,4.31Zm103.79-4-.08,1.85h66.26C742.47,460.73,720.45,458.32,698.33,460.08Zm-38.85,87.76c-.07-.36-.14-.72-.22-1.08L599,549.47c9.37.57,18.68.76,28,.5,6.08-.17,12.19-1.7,18,1.52a2.42,2.42,0,0,0,1.62.06C650.85,550.35,655.16,549.09,659.48,547.84ZM502.22,516.15c-5.74.61-11.46-1.1-16.23,3C491.77,522.4,501.41,520.73,502.22,516.15Zm474.49-32.83c-.09.39-.18.78-.28,1.17,7.15,1,14.17,3.26,21.76,2.69-2-5-5.27-2.12-7.87-2.43C985.79,484.21,981.25,483.79,976.71,483.32ZM773.28,546.8c-3.87-3.75-8.61-4.51-13.15-2ZM413,474.79l.09,1.39,11.59-.81C419.74,469.21,416.6,475.18,413,474.79Zm373.74-11.57.08-1.19-19.17-1.46-.12,1.73Zm-80.13,31.19-.13-1.47-11.48.85.26,2.22Zm-275,38.26,8.64-2.73C435.94,527.71,432.2,529.06,431.59,532.67Zm307-43.17c2.87,3.18,6.88,2.94,10.92-.57ZM350.4,483l.21,1.62,10.55-1.5-.18-1.36Zm341.18,13.36c0-.51-.09-1-.13-1.53-2.6-1-5.09-1.47-6.8,2.51ZM756.29,544l.2-1.4-10.1-1.1-.12.88ZM376.71,488.67c-11-.42-21.68,2.25-32.55,3,0,.6.1,1.2.16,1.79l32.37-3.35C376.7,489.64,376.7,489.15,376.71,488.67Zm477.16,4.6H834.2l0,.68,19.65-.89Zm-551.21,6.1,9.08-.59-.17-1.77-9.08.64Zm490.85,60.22,8,1.38.27-1.42-7.86-1.6Zm9.68-64.37h14.55l0-.79-14.1,1.09ZM256.36,501,264,499.6l-.18-1.1-7.77,1.15Zm-30.74,77.53,0-.07,7.65-4.21,1.79-2.17C230.84,572.7,227.57,574.64,225.62,578.52ZM813.73,563,806,560.87l-.24.94,7.92,2Z" style="fill:none"/></clipPath><clipPath id="clip-path-2-perception" transform="translate(16.19 31.68)"><path id="mask" d="M998.51,83.52c4.24-2,8-4.49,9.56-9.28A6.24,6.24,0,0,1,1010,72c2.65-2.38,5.31-4.75,8-7a16.12,16.12,0,0,1,3-1.62c-1.15,1.57-.21,1.91.74,2.05.72-1.21,1.29-2.2,1.87-3.18l-.11.12c2.66-.63,5.12-1.48,5.84-4.61a1.9,1.9,0,0,1,.89-1.2,10,10,0,0,0,5.67-5.84,1.5,1.5,0,0,1,.87-.67c4.41-1.52,4.91-2.08,6.28-6,.73-2.09,2.37-3.8,2.49-6.18,0-.42.87-.8,1.53-1.37.53,1.41-1.62,3.22,1.09,3.94.38-1.27.5-2.7,1.22-3.73.57-.81,1.86-1.12,3.48-2-.34,2.14-.6,3.71-.82,5.29-.16,1.11-.74,2.5-.29,3.3,1.78,3.11.58,6-.22,8.94s-.91,6.32-3.23,8.79l.54-3.93-1.1-.06c.66,1.3-1.37,2.64.64,3.91,0,.87.32,1.88,0,2.59-1.21,2.7-1.57,5.55-2.13,8.41-1.1,5.61-2.64,11.13-4,16.68-.15.61-.58,1.45-.34,1.79,1.65,2.33-.13,3.66-1.3,5.25a12.58,12.58,0,0,0-1.62,2.91c-3.49,9.18-6.87,18.4-10.44,27.55-3,7.7-6.15,15.34-9.37,23-1.08,2.56-2.57,5-3.87,7.43a4.34,4.34,0,0,0-.64,1.39,6.9,6.9,0,0,1-3.45,5.48l3.22.32c-1.48,3.79-2.89,7.54-4.41,11.25-.82,2-1.85,3.89-2.74,5.85-.47,1-.73,2.24-2.27,2.18a.81.81,0,0,0-.65.34c-.52,1.44-.61,2.84-2.36,3.88-1.17.71-1.29,3.16-1.92,4.81a18,18,0,0,1-1.74,4.12c-2.83,3.88-5.74,7.7-8.81,11.38A32.77,32.77,0,0,1,971,218.59c-2.69.6-5.72-.29-9-.52.37-1,.58-1.67.8-2.3-4.65,1.33-8.08-.31-10.94-4.64A18,18,0,0,1,949,197a34.55,34.55,0,0,0,.31-5.33l-4.3-1.1c2-2.18,6.46-.09,6.41-4.65a11.75,11.75,0,0,0-1.52-.09l-24.77,2.29c-.38,0-.76.09-1.14.11a249.25,249.25,0,0,0-26.83,3c-14,2.19-28,4.19-42,6.21-2.88.42-5.8.58-8.88.87l-1.54,3.46,2.19,1.19c-.38.44-.61.93-.84.93a3.61,3.61,0,0,0-3.48,2.46c-1.74,3.66-3.53,7.3-5.41,10.9-5.26,10.05-10.86,19.94-15.78,30.16s-9.31,20.71-13.7,31.19c-3.65,8.71-7,17.57-10.42,26.35-.8,2-1.61,4-2.56,6C787.12,326.48,781.63,343,775,359c-4.07,9.77-7.54,19.79-11.47,29.61a121.61,121.61,0,0,1-5.77,12.09c-1.22,2.3-3.58,3.88-4.49,6.46-.25.71-.9,1.36-.93,2.06a3.47,3.47,0,0,1-2.17,3.25c-.92.49-1.52,1.58-2.5,2.68l-4.25-2.32,1.79-1.26c-.14-.15-.25-.38-.42-.43-3.46-1.06-5.42-3.08-5.75-7-.53-6.12.38-12,1.62-17.93a67.12,67.12,0,0,1,2.88-10.19c.88-2.29.57-5,.88-7.54.28-2.32.79-4.56,2.41-5.51.34-2.24.52-3.93.85-5.59.47-2.4.94-4.82,2.91-6.58.26-.23.55-.73.47-1-1.43-4.76,1.63-8.59,2.79-12.75,1.94-6.92,4.38-13.72,7-20.43,1.53-4,4.23-7.44,5.07-11.72a13.92,13.92,0,0,0,.48-3.3,3.16,3.16,0,0,1,1.7-3.39c1.63-.93,3.67-6.49,2.86-8.29a3.46,3.46,0,0,1,1.09-4.31,9.2,9.2,0,0,0,2.89-4.65c1.5-4.63,3.62-9,4.5-13.9.27-1.46.81-3.2,2.76-3.86.71-.24,1.29-1.24,1.66-2,2.16-4.54,4.32-9.09,6.33-13.7,1.46-3.37,2.41-7,4.07-10.24,2-3.82,4.46-7.35,6.69-11,4.4-7.27,8.77-14.56,13.43-22.28a14.35,14.35,0,0,0-2.3,0c-12.63,2.47-25.27,4.9-37.87,7.47-9,1.83-17.94,3.83-26.9,5.8-8.09,1.77-16.14,3.68-24.24,5.37-3.35.7-6.77,1.05-10.17,1.46a6.81,6.81,0,0,1-2.1-.44c.73-1.82,2.38-2,4-2.34,1-.18,1.94-.47,2.91-.72l-.21-.83-5.67,1.34a20.3,20.3,0,0,0-3.08-2.39c-1.09-.53-2.53-1.07-2.72,1.25l2.95.34-1.75,1.93,3.65,1.47c-2.53.76-5,1.7-7.6,2.25-6.49,1.38-13,2.6-19.53,3.84-3,.56-5.86,1.22-9,.8-2.35-.31-4.88.85-7.33,1.29-3.47.62-6.95,1.18-10.55,1.79-.35-1.79.14-2.26,1.46-2.32a8.82,8.82,0,0,0,3.75-1c-6.94-.9-13.59,2.51-20.5,1.63l-.08-.75,4-.63a12.39,12.39,0,0,1-1.72-.67c-.63-.45-1.22-1-1.82-1.44.55-.46,1.1-1.3,1.66-1.31,4.2,0,7.86-2.54,12-2.56h6c.82-.57,2.18-2.37,4.56-1.71.24.06.61-.41,1-.58a1.73,1.73,0,0,0,.92-2.51c-.38-.77-1.24-.55-2.84.8l-1.57-1.5c-4.59,1-9,1.86-13.44,2.86a44.68,44.68,0,0,0-4.28,1.42,2.26,2.26,0,0,1-.72.24c-4.32-.11-8.73,1.79-13.11-.51-2.42,2.45-5.2,1.53-8,1l-.28-.92c3.64-1.68,7.22-3.53,11-5,1.76-.68,3.47-2.2,5.73-1.25.43.18,1.65-.47,1.87-1,.91-2.13,2.83-2.32,4.65-2.82,8.71-2.42,17.37-5,26.14-7.22,5.43-1.37,11-2.18,16.52-3.24,6.39-1.23,12.77-2.47,19.15-3.68,4.75-.9,9.53-1.66,14.27-2.66,4.48-.94,8.9-2.18,13.37-3.17,12.82-2.85,25.64-5.7,38.48-8.43,8.93-1.89,17.92-3.55,26.87-5.35,3.61-.73,7.2-2.19,10.81-2.22,5.53-.06,10.68-2.14,16.14-2.3a20.17,20.17,0,0,0,3.75-.65c3.17-.69,6.32-1.43,9.48-2.16-.69-.65-2.39-1.51-2.43-2.45-.07-1.31,1-2.74,1.76-4,1.19-2,2.52-4,4-6.26,1.11,2.86,3.21,3.72,7.14,3.14.15-1.21.41-2.55.45-3.9.16-5.37,2.12-7,7.29-6a16.62,16.62,0,0,0,2.16.14c2.82,4.6.78,8.58-1.23,12.54-.17.34-.85.39-1.17.7-.55.53-1.51,1.3-1.39,1.71.2.7,1.08,1.65,1.72,1.69a20.59,20.59,0,0,0,6-.32c2.34-.56,4.59-1.39,7.06-1a3.69,3.69,0,0,0,1.13-.14c5-.9,10-1.92,15-2.66,4.35-.64,8.74-1,13.13-1.44,9.6-.9,19.19-2,28.81-2.56,9.42-.57,18.87-.63,28.3-.9,1.15,0,2.29,0,3.63,0,1.74-5.16,5.16-9,9.06-12.58.1,1.07.63,2.34.24,3.18-1.2,2.51-2.76,4.85-4.16,7.28-.4.71-.71,1.46-1.16,2.39,1.84.64,3.31.76,4.49-.49s2-.62,3.07-.18l-.06-.05c.36,2,2.06,2.41,3.62,2.93,2.89,1,4.46,3,5.19,6l-11.16,2.54,3.72,2.94c-5,2.55-5,2.55-5.13,4.73a17.35,17.35,0,0,0,3.67-1c2-1.06,2-1.17,3.88.19a54.6,54.6,0,0,0-6.51,2.54c-3,1.63-5.93,2.83-9.41,2.58-.92-.07-1.9.59-2.83,1-.39.16-.7.66-1.07.69-3.15.28-3.35.41-4.09,3.19-.61,2.27-1.16,4.56-1.85,6.8-.52,1.68-.6,1.66.52,3.72l3.44-8.57c2.32,1.44,2.93,2.89,2,5.09a56.22,56.22,0,0,0-1.78,5.83c0,.14-.3.21-.47.32l-.63-1.89c-1.3,3-.69,2.79.45,6.29,1.05,3.21,3,2.86,5.26,3,3.43.19,6.61-.2,8.87-3.26.43-.59,1.32-.81,1.85-1.34,2.25-2.24,4.79-4.29,6.57-6.85a175.38,175.38,0,0,0,10.6-16.83c3.42-6.37,7-12.76,8.78-19.88a27.18,27.18,0,0,1,2.32-6.76,13,13,0,0,0,.87-3.22,32.35,32.35,0,0,1,.84-3.66c3.08-8.48,6.24-16.93,9.34-25.4a11.58,11.58,0,0,0,.36-2.07c-2.06,0-2.26,1.47-2.7,2.58-1.56,3.9-3,7.85-4.56,11.74a14.42,14.42,0,0,1-1.66,2.52l-.69-.41c.44-2.41-.5-5.17,2.21-7.08l-2.29-3c3-2.51,2.89-6.53,4.49-9.43l2.91-.14-3.25-2.92c-.22.53-.4,1-.57,1.41l-2.42-.35c-.12,1.42-.21,2.52-.32,3.92-2.37-.6-3.28.46-4,2.44-1,2.86-2.54,3.58-5.61,3.44-2,3.68-3.19,7.74-7.44,9.78l.45,1.41c-1.73,1-2.27,1.8-4,4.83-.41.7-1.35,1.09-2,1.68a50.88,50.88,0,0,0-3.73,3.61,18.22,18.22,0,0,0-1.77,2.87l-2.74-.55c.09-.88.19-1.77.28-2.65,1.36-.88,2.75-1.71,4.06-2.66a3.11,3.11,0,0,0,1.08-3.66c2.3-2.82,4.25-5.22,6.18-7.63a19,19,0,0,1,2.31-3,40.51,40.51,0,0,0,5.6-6.18c.08-.1.14-.24.24-.29,5.28-2.28,7.53-8.42,12.78-10.44,4.17-1.6,5.26-5,6.67-8.37,3-7.16,5.8-14.42,8.77-21.59,1.75-4.23,3.68-8.39,5.33-12.78-1.71.95-2.61,2.73-4,4-2.83,2.71-5.39,5.92-8.68,7.89-4.7,2.82-8.34,6.56-12,10.44a64.62,64.62,0,0,1-9.13,7.38,69.47,69.47,0,0,1-6.89,4,35.55,35.55,0,0,1-5.1,2.61c-2.07.75-4.06.93-6-.87-1.56-1.41-3.69-2.23-5.61-3.21-4.44-2.28-6.3-6-6.51-10.86-.14-3.18-.53-6.34-.8-9.51A51.73,51.73,0,0,1,962.43,61a2.72,2.72,0,0,1,2-2.24c.94-.31,1.17-2.82,1.82-4.63h2.34c-2,6.74-5.51,12.75-6.74,20.36,1-1,1.61-1.37,1.85-1.92,1.25-2.92,2.49-5.86,3.59-8.84a78.36,78.36,0,0,1,9.58-18.65q5.13-7.14,10.33-14.22a27.51,27.51,0,0,1,2-2.34l10.09-10.85,3.12-2a28.45,28.45,0,0,0,4.32-3.11c4.69-4.94,10.84-7.46,16.79-10.25a23,23,0,0,1,7.39-1.76c3.24-.33,5.62,1.68,8.24,3.9l-3.91,1.08c.74,2.82,4,2.11,5.28,4.37-.28.92-.69,2-2.2,1.44-2.58-.89-4.26.41-6.15,1.92-4.57,3.64-9.37,7-14,10.54-1.39,1.07-2.53,2.47-3.83,3.67-3.6,3.35-7.19,6.72-10.84,10a73.3,73.3,0,0,0-12.62,15.25c-2.31,3.63-4.62,7.27-7.11,10.78a49.07,49.07,0,0,0-9.21,25.12,9.39,9.39,0,0,0-.2,1.88,25.38,25.38,0,0,0,.78,2.89l3.21-.48c.13.16.27.31.41.47l-1.21,1.83.44.4,2.94-2.48-.1.06c1.43-.39,3-.48,4.25-1.22,3.79-2.27,7.44-4.8,11.15-7.22l0-.06c-.09,1.38-.11,2.76,1.44,3.89l.17-4.26ZM801.84,192c-1,.21-1.92.38-2.85.68-.24.08-.36.56-.61,1l2.37,1c.41-1.09.71-1.92,1-2.74l3.15-.24C803.22,189.57,802.7,191.55,801.84,192ZM654,229.05c3.58-.21,7.26,0,10.65-2.11A13.57,13.57,0,0,0,654,229.11c-1.92,0-3.95-.76-6.09,1.06A10.35,10.35,0,0,0,654,229.05Zm36-12.81c0-.52.09-1.05.14-1.57-.33,0-.94,0-.95.11a14.63,14.63,0,0,0-.08,1.88c.06.11.08.28.17.33,4.08,2.33,8.06-1.65,12.14-.21.17.05.5-.55.82-.73s1-.64,1.28-.49c1.94,1.16,2.83-1.22,4.47-1.21a21.08,21.08,0,0,0,4.86-.67c.6-.14,1.08-.8,2.15-1.65l-4.42-1.35-1.19,2.5a11.63,11.63,0,0,0-2.5,0,16.4,16.4,0,0,0-2.68,1.12c-.13-1.12-.2-1.72-.28-2.48-.38.11-.7.23-1,.29a3.71,3.71,0,0,1-1.09.14c-3.9-.25-7.71-.23-10.53,3.17A4.82,4.82,0,0,1,690,216.24Zm328.28-117.5c2.87-.92,3.61-2.73,4.32-4.49q7.51-18.77,15-37.56c.14-.34,0-.81-.08-2-1.09,1.56-1.78,2.45-2.37,3.39A66.92,66.92,0,0,0,1029,70.94C1025.78,80.08,1022.07,89.06,1018.29,98.74ZM808.41,190.66c.6,2.07,2.55.9,3.77,1.45.81-1.86,2.19-.21,3.29-.42,1.4-.26,2.84-.08,4.28-.68,1.23-.51,2.72-.33,4-.66s2.92-.86,3.17-2.77c-2.58-.67-5-1-6.08,1.76-1.76-.28-3.25-.87-4.62-.66A78,78,0,0,0,808.41,190.66Zm99.88-12.42c3.5-.59,7.45.72,10-3a8.53,8.53,0,0,0,.71-1.93l-.66-.31-1.1,1.69C910.14,173.71,908.51,174.32,908.29,178.24Zm43.34-4.49c1.07,0,1.81,2.26,3.16.45.66-.88,2.87.42,2.63-1.85-4.1-2.34-7.93.07-12.45.27C948.72,175.59,948.72,175.59,951.63,173.75Zm-155.16,20.1c-1-.21-1.87-.68-2.16-.43-1.55,1.34-2.84,2.21-5,.72-.74-.52-2.58.39-3.83.88-.24.1,0,1.32,0,1.95,2.09,0,3.93.36,5.55-.09S794.18,195.16,796.47,193.85ZM1016,104.11c-.08,2.5-1.32,3.77-2.19,5.26s-1,3.66-1.53,6c3.46-1.44,3.28-4.39,4.25-6.53C1017,107.79,1018.25,106.19,1016,104.11ZM856.29,183.83c3.87,2.89,3.87,2.89,7-1.31C859,181.36,858.83,181.39,856.29,183.83Zm39,3.92-.08.24.39,0c3.4,0,6.8.17,10.2.06.63,0,1.24-1,2.07-1.74C903.29,185.85,897.88,186.5,895.26,187.75ZM975,98.06c3.56,2,5.43,1.53,8.28-1.72ZM912.7,185.32l.21.63,9.81-.83c0-.27-.06-.54-.08-.81ZM805.39,201.15l-8.58,2C800,204,802.7,202.6,805.39,201.15ZM730,205.76a10.13,10.13,0,0,0-2.72,1.5c-.35.4-.15,1.42,0,2.09.08.25.94.52,1.26.38a2.2,2.2,0,0,0,1.19-1.21A12.72,12.72,0,0,0,730,205.76Zm203.27-22.69,0,.93,7.59-.39-.18-.54Zm-49.36-4c.12.3.25.6.37.89l3.77.62.39-.76-2.64-2.39Zm-22.55,13.43.08.48,5.76-1.11-.07-.4Zm68-19.26c-2.25.95-2.25.95-3.22,2.66C928.15,176.08,929.16,175.32,929.33,173.22Zm-46.39,5.43-4,1,.25,1C880.15,179.66,881.84,181.52,882.94,178.65Zm127.6-8.51c.33-1.26.5-1.95.68-2.63L1009,167l-.39.62ZM810.05,200.38l.24.77,4.85-1.08v-.16ZM1022,6.41c.1.24.21.47.31.7l4.3-2.47-.27-.46ZM718.23,208.23c-1.51,1.91-1.51,1.91-.3,4.28C718.05,210.81,718.12,209.84,718.23,208.23Zm212-24.06-.14-.41-3.59.16,0,.52Zm-22.12-1.53c0,.28-.08.57-.11.85.81.08,1.62.21,2.43.21.17,0,.33-.47.72-1.06Zm23.76-5.82c.46-1.08.74-1.73,1.2-2.83l-3.32.35ZM1032.51,2.17c-1-.18-2.22-.93-2.55,1.16ZM677.25,219.37l.65.62,1.45-1.92-.58-.45Zm335.57-147-.71-.6-1.65,1.91.45.42Zm-48.48,10.3c-.13,1.52-.18,2.18-.24,2.84h.48C964.53,84.81,964.47,84.12,964.34,82.65ZM672,226.24l-.08-.58-2.32.62,0,.25ZM1026.28,71.38l.58.42c.41-.78.81-1.57,1.22-2.36l-.52-.25C1027.13,69.92,1026.7,70.65,1026.28,71.38Zm-9.47-2.8-.28-.35-1.16,1,.31.38ZM877,181.13c0-.28-.06-.57-.1-.85l-1.66.37.07.48Zm-7.53.72c-.7-.6-1-1-1.24-1s-.51.41-.76.64c.29.29.54.72.9.83S869,182.06,869.45,181.85ZM748.28,409.18c.2.22.26.36.37.39a.33.33,0,0,0,.27-.16c.26-.66.5-1.33.75-2l-.47-.13C748.88,407.93,748.57,408.58,748.28,409.18ZM737.59,205.84l-.14-.6-1.53.32a5.92,5.92,0,0,0,.22.64C736.63,206.11,737.11,206,737.59,205.84Zm-55,13-.2-.37-1.29.66.22.41ZM207,398.53l-2.73-3c.11-1.55,3.18-3.49.23-6.06l4.69-1.06c.66-1-1.88-3.09,1.38-3.09l-1.46-4.89c-.49.1-.86.06-.93.2-2.14,3.86-4.2,7.77-6.37,11.61-1.36,2.43-2.75,4.86-4.34,7.15-3.18,4.59-6.25,9.28-9.83,13.55s-7.71,8.07-11.58,12.1a13.79,13.79,0,0,0-1.26,1.83l.09-.08c-5.36,3.84-10.77,7.6-16,11.54-4.37,3.26-8.59,6.73-12.88,10.1-2.14,1.69-4.41,3-5.92,5.63-1.1,1.91-3.74,2.92-5.7,4.34l-2.59,2.32a2.66,2.66,0,0,0-3.07,1.38l-4,2.32c-2.34,1.18-5.12,1.79-6.09,4.73l-.54-.07a16.16,16.16,0,0,0-8.55,4.67,4.21,4.21,0,0,0-3.9,2.28l.08-.06c-1.08.36-2.19.66-3.25,1.08-3.23,1.3-3.27,1.4-3,5.21,0,.33,0,.8-.14,1-2.83,2.94-2.55,7.28-4.82,10.57-1.1,1.59-.75,4.18-1.07,6.32a10.91,10.91,0,0,1-.44,2.22c-2.54,6.89-3.78,14.1-5.14,21.27s-2.71,14.28-4,21.44c-.86,4.88-1.56,9.8-2.39,15l1.89-.23-1,3.49-1-2C80,568.61,79,575,77.67,581.32c-.81,3.91-2.81,7.75-2.78,11.61,0,2.89-2.92,4.79-1.68,7.67-3,5.08-.95,11-2.72,16.35-.85,2.56-.67,5.36-2.51,7.75-1,1.24-.86,3.3-1.35,5.46-2,1.09-4.78,2.18-5.48,5.53C61,636.26,59.74,637,59,637a44.52,44.52,0,0,1-5.6-.83c.35-1.41.74-2.67.94-4s.71-2.85.31-4c-2.67-7.91-2.75-16.07-2-24.19,1.39-16.13,2.78-32.28,4.94-48.32a318.94,318.94,0,0,1,9.39-46.44c1.16-4,2-8.07,3.1-12.9-3.25,2.55-7.22,3-9.14,6.66a2.31,2.31,0,0,1-1.52,1,22.41,22.41,0,0,0-9.32,3.82c-5.35,3.56-11.39,5.53-17.18,8.09a84.13,84.13,0,0,1-20.4,6.22,3.68,3.68,0,0,1-1.51,0,25.16,25.16,0,0,1-11-5.89l4.18.63a12.82,12.82,0,0,1-1.55-2.66c-.31-1.16-.84-2.68-.35-3.51a2.87,2.87,0,0,1,3.49-1.4A3.73,3.73,0,0,0,8.2,509c4.19-1.77,8.41-3.48,12.47-5.51,2.59-1.3,4.87-3.19,7.36-4.69s5.24-3,7.9-4.46c1.64-.88,3.56-1.26,4.59-3.15.26-.48,1.37-.47,2-.77a56.63,56.63,0,0,0,5.52-2.58c4.4-2.58,8.79-5.2,13.07-8,5.41-3.49,10.79-7,16-10.75,3.1-2.22,4.09-6,5.33-9.33,2.33-6.3,4-12.83,6.25-19.18,1.36-3.93,3.3-7.66,4.74-11.57,1.82-5,3.34-10,5.09-15,1-2.86,2.22-5.65,3.32-8.48,2.49-6.46,4.94-12.93,7.47-19.38.93-2.36,2.06-4.65,3-7,1.76-4.17,3.68-8.3,5.14-12.57.58-1.72,1.23-2.6,3.48-2.22-1.45-3.18.69-4.9,1.93-7.23l1.3,1.59,2.92-1.34c-.06,1.1.11,2.21-.17,2.34a6.06,6.06,0,0,0-3.05,3.72c-.12.29.05.68.66,1.25.53-1.08,1-2.17,1.47-3.05,1.5,1.36,3,2.75,4.55,4.17a4.48,4.48,0,0,1,.61,1c1.32,2.13.8,3.05-2,3.48-1.61,2.52,1.25,4.39,1,6.71-2,2-2,2-1,4.73.39-2,.68-3.38,1-4.79h2.1c-3.94,12.33-7.71,24.39-11.75,36.34s-8,24.09-11.91,36.57l1.55-.38c2.66-.6,3.27-3.81,6.25-4.49,2.27-.52,4-3,6.17-4.35,4.77-2.9,8.63-7.14,13.84-9.37a6.79,6.79,0,0,0,1.54-1.1c4.94-4,10-7.88,14.78-12,4.39-3.79,8.61-7.79,12.79-11.82,3.47-3.34,6.85-6.78,10.1-10.33,1.35-1.46,2-3.56,3.38-5,7.57-7.9,10.17-18.39,14.77-27.84A2.77,2.77,0,0,0,194,362a4.74,4.74,0,0,0-.3-1l-1.88,1.78c-.92-2.46.9-3.53,2.35-4.59l-1.1-3.94c-6-.41-12-1.07-18.09-1.15-5.89-.07-11.79.94-17.87-.12a4,4,0,0,1,1.39-.62c5.32-.18,10.64-.41,16-.4,3.67,0,7.34.35,11,.59,1.56.1,3,.08,4.22-1.28a11.27,11.27,0,0,0-7.15-1,33.3,33.3,0,0,1-8.8-.18c-10-1.16-19.89-.32-29.8.74-1.92.2-3.76.49-5.2-1.69-1.17,1.48-2.08,2.64-2.48,3.13-3.34.84-6,1.37-8.63,2.19-3.69,1.16-7.24,2.95-11,3.66-2.34.44-4.81.95-7.21,1.53l-.25-.81c.4-.44.8-.89,1.19-1.34s.79-1,1.18-1.43c-1.8-1.55-3.55-1.34-5.42-.56-5.51,2.28-11,4.49-16.57,6.73-.47.19-1,.62-1.41.56-3-.44-5.06,1.6-7.43,2.66a37.6,37.6,0,0,0-7,4.45c-1.52,1.13-2.67,1.56-3.72-.56a14.4,14.4,0,0,1-5.94,6.25A68.13,68.13,0,0,0,52,384.47c-3,2.73-6.93,4.5-11.1,7.12L43.3,387l-3.76.73,2.13-5.33.88-.08L43.9,385c.28-.18.74-.3.86-.57.92-2.06-.42-3-1.94-3.91-.92-.55-2.28-1.07-.9-2.72l1.94,1.06c.91-1,1.73-1.89,0-3.16,1.27-1.63,2.61-3.24,3.82-4.94a13,13,0,0,1,6.57-4.91,2.8,2.8,0,0,0,1.17-.88c6.56-8,15.78-12.38,24.21-17.81,3.71-2.38,7.53-5,11.67-6.18,3.71-1.09,6.46-4.41,10.7-4.14.94.06,1.87-1.62,3-2.09,10.1-4.3,20.35-8.14,31.24-10,2.12-.37,4.2-1,6.32-1.39a62.28,62.28,0,0,1,7.19-.93c6.88-.39,13.77-.88,20.66-.86a158.1,158.1,0,0,1,16.39,1.22,7,7,0,0,1,4,1.94,12.48,12.48,0,0,0,7,3.55c2.17.45,4.26,1,5.22,3.37a2.55,2.55,0,0,0,.74.87c3.39,3.08,3.46,3.48,1.19,7.43,5.44,1.15,8.77,4.94,9.87,10.29.91,4.39.43,8.6-.22,12.91-.32,2.11-.17,4.29-.34,6.43-.1,1.33-.43,2.64-.62,4a7.64,7.64,0,0,0,0,1.35c.08,1.34.52,2.79.18,4-1.71,6-3.59,11.92-5.5,17.85-.21.65-1,1.13-1.46,1.7ZM49.74,382.8l3.47-2.93L51.82,379c1.08-2,2.14-4,3.13-5.89l-5.09-2.51a6.32,6.32,0,0,0,0,1.25,5.3,5.3,0,0,0,.54,1.35c1.37,2.38.92,4.1-1.38,5.5a14.1,14.1,0,0,0-2.27,1.74c-.21.18-.14.67-.21,1.05Zm68.16-29.47c5.59-.54,15.83-3.62,16.84-5-2.91,1.91-6.55-.27-9.27,1.88L121.83,348c-2,1.72.5,2.24.65,3.34Zm49.61-16.18c4.94,2.58,10.41,2.28,15.73,2.9a3.86,3.86,0,0,0,1.89-.08c.43-.19.65-.85,1.4-1.94l-3.45,1.66c-1.36-3.67-1.65-3.68-4.75-1.82-1,.56-2.83.89-3.5.35C172.52,336.36,170,337.51,167.51,337.15ZM81.31,360a14.66,14.66,0,0,1,2.41.31,16.31,16.31,0,0,1,2.31,1l3.52-2c-2.32-.55-3.06-2-2.63-4.37C85.26,357,82,356.68,81.31,360Zm35.85-16.8-5,1.06,3.26,2.24ZM9.1,515.57l-4.41-.65C5.94,516.66,7.32,517.13,9.1,515.57ZM211.15,374c-.57,1.74-.93,2.82-1.3,3.93l1.53.34c.12-1,.26-1.93.34-2.88C211.74,375.21,211.55,375,211.15,374ZM132.59,339c2.54.52,2.54.52,2.72-1.08Zm-5.85,29.52.47-3.36C125.44,366,124.51,366.71,126.74,368.51Zm-61.42-2.05-1.68-1.25c-.27.37-.74.73-.75,1.11s.58.7,1,.78S64.56,366.81,65.32,366.46Zm55.16,40.22c-.62-.49-1-1-1.34-1s-.68.6-1,.94c.33.32.64.84,1,.91S119.86,407.1,120.48,406.68ZM203.21,338l-1-.14c-.05.69-.12,1.38-.14,2.07a2.48,2.48,0,0,0,.66.12C202.91,339.37,203.06,338.68,203.21,338ZM59.47,374.93l-.35-.39-1,.86.37.44Zm104.61-37.21v-.28h-2.14v.42Zm-41.34,32.84-.65-1.13a3.52,3.52,0,0,0-1.06.68c-.11.16.24.91.34.9A5.29,5.29,0,0,0,122.74,370.56Zm87.36-6.29-.6-.19c-.14.69-.27,1.37-.41,2.06l.66.13Zm2-9.73h-.24v2.09h.24ZM970.79,333.4c2.63-2.71,2.25-6.65,4-9.76a52.23,52.23,0,0,0,2.71-6.69l2.12-.16c.11-.34.29-.6.25-.81a20.2,20.2,0,0,1,.07-4.64c.13-1.57,1-3,.16-4.81-1-2.2,1-4.48,2.39-5.43a6.76,6.76,0,0,0,3.19-3.81c.2-.64.93-1.12,1.44-1.71L985.46,293l2.31-1.08a8.24,8.24,0,0,1,4-7.14c-.11-.82-.22-1.69-.33-2.55a1.7,1.7,0,0,1,.63,0c2.94.92,3.48.54,3.23-2.21-.06-.74-.28-1.66.05-2.2,1.59-2.63,1.8-5.66,2.66-8.5.67-2.22,2.42-3,5.51-2.32a49.42,49.42,0,0,0,3.14-6.47,3.41,3.41,0,0,1,1.73-2.17,14.4,14.4,0,0,0,7-9.19,12.86,12.86,0,0,1,6.31-8.84,11.89,11.89,0,0,0,1.11-.84c.57,1.34,1.14,2.71,2,4.72,1.51-2.21,2.55-3.73,3.94-5.78l-3,.27c-.58-2-.44-3.67,1.91-5.1l2.37,2.84c1.12-1.81,2.11-3.51,3.19-5.15,1-1.48,2.06-2.91,3.1-4.35.82-1.13,1.6-2.28,2.48-3.36.52-.63,1.23-1.1,1.79-1.7a9.2,9.2,0,0,0,1.49-1.94,41.91,41.91,0,0,1,2.19-4.69c4.38-6.38,8.91-12.66,13.33-19,1.87-2.68,3.6-5.46,5.46-8.14a23,23,0,0,1,2.07-2.24l4.29-4.7c3.78-.17,6.47,2.91,9.76,4.82-.11.26-.21.53-.32.79l-2.8-.61c-.37,2.85-.79,5.72-5.08,5.83l2.38,2.12c-.35.62-1.09,1.3-1,1.84.76,4.39-1.79,7.43-4.32,10.32a8.39,8.39,0,0,0-2.36,4.14,25.23,25.23,0,0,1-1.58,5,26.14,26.14,0,0,1-3.32,5c-.88,1.23-1.85,2.4-2.51,3.26h-5l-.17.69,2.14,1.49-4.14,3.48c.24.47.54,1.09,1,1.94l-2.58.6c-.37,2.07.52,4.59-1.62,6.21a.82.82,0,0,0-.16.72c1.33,5.15-2.39,8.06-4.93,11.6-2.27,3.16-4.92,6.05-6.25,9.93-.83,2.45-2.81,4.51-4.31,6.73a27.33,27.33,0,0,0-2.76,4.57c2.52-1,4.21-2.94,6.08-4.68,2.32-2.16,4.61-4.36,6.92-6.55.46-.44,1-.83,1.4-1.3,3.52-3.92,6.94-7.93,10.57-11.75,2.08-2.19,4.54-4,6.75-6.09,4.08-3.81,8-7.82,12.18-11.49s8.48-6.89,12.78-10.25c3.59-2.8,7.15-5.65,10.89-8.24a111.83,111.83,0,0,1,24-12.52,75.8,75.8,0,0,1,9.38-3.22,17,17,0,0,1,14.14,3,10.73,10.73,0,0,0,1.92,1.15c3.65,1.55,3.65,1.53,5.77,5.28-1.18,1-3.49.38-3.91,3.06l2.67-1c.71,1.11,1.4,2.17,2.22,3.46l.48-2.55.64-.17a16.82,16.82,0,0,1,1.32,3.69c.31,2.65.37,5.34.47,8,0,1.27-.34,2.62-.05,3.82,1.32,5.5-1.06,10.35-2.92,15.1-2.29,5.87-5.56,11.35-8.28,17.06-1.25,2.63-2,5.49-3.32,8.09-1.8,3.62-2.77,7.57-5.46,10.89-2.19,2.68-3.55,6.17-4.69,9.51a8.35,8.35,0,0,1-2.31,4.08,12.07,12.07,0,0,0-2.23,3.44,43.83,43.83,0,0,0-3.4,7.18,23.62,23.62,0,0,1-4.32,8.13c-2.61,3-4.1,7-5.92,10.64-2.23,4.48-3.59,9.34-5.74,13.86A6.15,6.15,0,0,1,1106,333c-.37.34-1.14.52-1.21.87-.55,2.71-3.44,3.93-4,6.71-.31,1.52-1.49,2.87-2.3,4.29-.12.21-.45.31-.54.53q-2.12,5-4.2,10c-.33.82-.35,2-.93,2.43-2.59,1.7-2.82,4.7-4.27,7-2.55,4.1-5.16,8.15-7.78,12.2q-3.33,5.11-6.74,10.19a9.64,9.64,0,0,1-1.37,1.24l-3.4-2.05a14.56,14.56,0,0,1-1.47.47,4.21,4.21,0,0,1-5-5.62c2.85-7.65,5.71-15.31,8.91-22.82,4.4-10.32,9-20.54,13.74-30.74,2.24-4.86,4.83-9.56,7.22-14.36,2.27-4.57,4.44-9.19,6.72-13.76,1.15-2.28,2.44-4.48,3.68-6.71,4.44-8,8.94-16.06,13.31-24.14,3-5.48,5.73-11.07,8.62-16.59,3.3-6.32,6.6-12.64,10-18.93,4.38-8.13,7.95-16.53,8.85-25.85a8,8,0,0,0-.08-1.22c-3.23-1.19-6.1.35-8.79,1.48-5.35,2.27-10.6,4.82-15.7,7.61a90.74,90.74,0,0,0-9.82,6.62A389.33,389.33,0,0,0,1075,250.6c-4.17,3.85-7.58,8.45-12.09,11.91-4.34,3.34-7.67,7.67-11.53,11.48a5.92,5.92,0,0,0-.84,1.77l-.93-.57-.65-2.34-5.46,1.64v1.91c-2.1.11-3.41,1.09-3.61,3.4a9.85,9.85,0,0,1-1,2.42c-.17.46-.47,1.18-.28,1.42,2.46,2.94-.13,4.43-1.74,6.14a12.36,12.36,0,0,1-2.2,1.54l-.58-.55,1.86-3.68c-.76-.72-1.47-1.39-2.27-2.13-2.24,1.33-4.16,2.64-3.69,5.85l-1.84-.84c-1.54,1.8-3.07,3.52-4.53,5.3-1.28,1.56-2.28,3.26-1.52,5.66a11.31,11.31,0,0,1-2.47.08,1.86,1.86,0,0,0-2.52,2c0,2.85-1.85,4.68-3.23,6.78-.41.64-1.09,1.17-1.3,1.85-.48,1.59-.75,3.24-1.11,4.87l.09-.09a3.18,3.18,0,0,0-4.64,1,54.9,54.9,0,0,0-2.74,4.93c-.2.38-.35.78-.56,1.15-1.31,2.3-2.78,4.51-3.9,6.9-4.87,10.37-9.58,20.82-14.48,31.18-2.09,4.43-4.61,8.66-6.76,13.06-1.33,2.71-2.84,5.48-3.38,8.38-.6,3.3-2.62,5.63-4.18,8.28a46.31,46.31,0,0,1-3.58,4.68l-3.52-1.11c2-1.62,4.26-2.72,3.56-6.12-1.1,1.08-1.94,2-2.83,2.76a14.45,14.45,0,0,1-3.08,2.65c-2.61,1.28-5.2-.7-5.08-3.62.08-2.13-.65-4.52.1-6.35,2-4.79,0-10.41,3.43-14.87.66-.86.32-2.45.59-3.68,1-4.82,2-9.64,3.18-14.44.44-1.86.88-3.93,3.89-3.71l-2.12-2.06c1.15-3.31,2.29-6.81,3.61-10.23.29-.75,1.2-1.26,1.83-1.89ZM1021,249.86c-.25-.05-.6-.22-.72-.12-2.33,2-5.54,3.18-5.91,6.85,0,.43-.27,1.11-.58,1.22-2.12.73-1.53,2.4-1.79,4.11.83-.14,1.59,0,1.74-.31,2.37-3.95,5.68-7.35,7.17-11.83a2.59,2.59,0,0,0,.77-3.66A3.37,3.37,0,0,0,1021,249.86Zm121.83-7.13c1.13-2.23,2.38-4.4,3.36-6.69,2.88-6.71,5.15-13.59,4.88-21,0-1.19-.24-2.38-.41-4-.53.6-.68.69-.69.79-.72,6.14-.65,12.44-3.68,18.12a1.81,1.81,0,0,0-.15,1.12c.51,2.46-.81,4.38-1.78,6.44-.79,1.66-2.27,3.2-1.48,5.32-.37.06-1,0-1.06.21-1.32,2.79-2.57,5.61-3.84,8.42C1140.82,249.11,1141.58,245.81,1142.79,242.73Zm-75.14,12.81,2.41-3.32c-1.73.27-3,1.39-4.64.06-.2-.16-1.26.74-2.14,1.28Zm-5.4-41.47-.7-.6c-1.43,1.63-3.16,3.07-3.79,5.26l.69.5Zm4.18-9.79c2.59-.57,2.16-2.91,2.88-4.39C1067.87,200.83,1066.18,201.58,1066.43,204.28Zm-34.32,76.54c-3.17,2.6-3.17,2.6-1.59,4C1031,283.75,1031.39,282.65,1032.11,280.82ZM977.77,335l1,.06v-2.26l-.61,0C978,333.55,977.88,334.29,977.77,335Zm85.88-84.79-.83-.47c-.26.54-.53,1.08-.74,1.64,0,0,.36.24.56.37Zm-32.73,27.35.23.73,2-.6c-.09-.26-.17-.53-.25-.79Zm-59,74,.62.09.26-1.82-.62-.08C972.09,350.41,972,351,971.92,351.62Zm167.47-153.53.09-.35-1.72-.64a2.89,2.89,0,0,0,0,.63C1138.26,197.88,1138.82,198,1139.39,198.09Zm-80.94,66a5.56,5.56,0,0,0-1-.66c-.11,0-.5.26-.48.32a5.81,5.81,0,0,0,.42.92Zm-37.78,31.53c-.46-.26-.77-.57-1-.52s-.46.44-.69.68c.26.18.53.51.78.51S1020.27,295.93,1020.67,295.61Zm21-50.56.43.35,1.38-1.73-.41-.3ZM435.07,310.34c2.53-2.54,2.72-2.62,6.79-2.71,1.26,0,4.32-2.43,5.28-3.8a5.2,5.2,0,0,1,2.34-1.73A59.65,59.65,0,0,1,468,297.89a11,11,0,0,1,8.24,2.93l-3.21-.71-.4.77a52.52,52.52,0,0,1,5.6,3.62,65.77,65.77,0,0,1,5.14,5.43c-3.15-.48-5.62-.67-8-1.27a4.68,4.68,0,0,0-4.25.82c-4.49,3.15-9,6.23-13.56,9.29-3,2-6.14,3.84-9.06,6a21.25,21.25,0,0,0-3.95,4c-2.69,3.38-5.41,6.76-7.8,10.35-1.88,2.82-3.29,6-4.9,9-.77,1.44-1.52,2.89-2.55,4.83l1.29,1.14c-.87,1.48-2,3.39-3.12,5.31l-.73-.33,1.13-3a5.1,5.1,0,0,0-3.65,3.42c-1.14,2.8-2.71,5.42-4.1,8.11l-.21-1-1.36,1.85.91,0L418,371.94c-.06-.39-.12-.78-.19-1.17l-.51-.07c-.39,1-.77,1.95-1.15,2.93h.13l1.09-.47c-.61,1.5-1.23,3-1.84,4.49,0-.4-.08-.79-.11-1.18-1.18,2.07-3.37,3.75-2.07,6.41-1.51,3.18-3.28,6.28-4.48,9.57-2,5.58-1.74,11.53-2.18,17.36-.42,5.64,1.16,10.84,3.44,15.9.89,2,2.64,2.9,4.21,4.21,3.71,3.1,7.13,2.37,10.89.44,3.14-1.62,6.49-2.86,9.56-4.6a29.72,29.72,0,0,0,5.32-4.28c7.75-7.22,15.83-14.14,23.05-21.86a100.13,100.13,0,0,0,13.95-19.13c3.11-5.47,7.56-9.87,12.3-14.14L488,369.18c2.52-1.12,3.55-3.14,4.56-5.15,1.54-3.09,2.95-6.24,4.59-9.27,2.53-4.71,5.43-9.24,7.77-14,2.65-5.45,6.62-10,9.52-15.31,1.84-3.37,4.86-6.08,7.25-9.16.93-1.19,1.42-2.74,2.39-3.88,3-3.49,6-6.88,9.1-10.28,2.68-3,5.28-6.06,8.17-8.84,3.08-3,6.4-5.71,9.7-8.44,9.27-7.67,18.74-15.1,29.67-20.29a57.22,57.22,0,0,1,13.71-4.61c5.24-1,10.66-.79,15.52,2.24,2.67,1.67,4.52,3.92,4.68,7.05.25,4.89.83,9.91-2.8,14.09A7,7,0,0,0,610.5,286c-1.22,4.72-4.3,8.43-7.1,12.13-6,7.92-12.52,15.47-18.87,23.13a21.61,21.61,0,0,1-2.8,2.6c-3,2.55-6.15,4.9-8.93,7.65a24.42,24.42,0,0,1-8.79,5.88c-1.25.46-2.21,1.67-3.37,2.44-4.33,2.88-8.57,5.91-13.06,8.49a10.42,10.42,0,0,1-9.45.62c-.76-.32-1.16-1.47-1.72-2.24a7.52,7.52,0,0,1,2.17-1.13c4.29-.59,7.69-3,11.1-5.37,4.39-3,8.84-6,13-9.35,3.19-2.51,6.07-5.43,9-8.24,10.18-9.68,18.09-21.13,25.29-33.08,2.22-3.7,3.76-7.82,5.52-11.78a3.85,3.85,0,0,0-.69-4.62,4.18,4.18,0,0,0-4.65-.81,44.39,44.39,0,0,0-4.75,2.45,88.61,88.61,0,0,0-18.62,13.19c-2.36,2.26-5.49,3.81-7.5,6.3-3.33,4.13-8.67,6.29-10.87,11.53-.71,1.7-2.24,3.09-3.52,4.5-5.42,6-9.59,12.81-14.16,19.38-5.12,7.33-9,15.38-13.35,23.14-.73,1.3-1.2,2.75-1.9,4.08-1.55,2.89-3.18,5.75-4.77,8.63a4.66,4.66,0,0,0-.5,1c-1.49,5.74-3.35,11.42-4.34,17.25a57.08,57.08,0,0,0-.69,17.94,32.61,32.61,0,0,1,.3,6.84c-.22,3.27,1.4,5.54,3.52,7.64.27.27.67.42.91.71,4.56,5.5,9.7,4.75,15.84,1.26a58.67,58.67,0,0,0,11.39-9c10.19-9.83,20.47-19.59,29.31-30.72,1.75-2.21,1.83-2.15,6.13-2.54a5.06,5.06,0,0,1-1,4.85c-3.15,4.3-6.42,8.52-9.45,12.91C563,402.63,555,410,548,418.25a54.62,54.62,0,0,1-13,10.63c-3.13,2-6.54,3.23-9.64,5a20.94,20.94,0,0,1-7.07,3,3.5,3.5,0,0,1-1.89.06c-3.65-1.82-7.93-.66-11.55-2.46a14.51,14.51,0,0,1-5.57-4.52c-3-4.09-6.14-8.07-8.37-12.65a37.61,37.61,0,0,1-3.75-15.91c0-2.59-1.22-5.22,0-7.85.12-.27-.42-.84-.67-1.29-3.4,1.8-5.38,4.66-7.14,7.78a23.28,23.28,0,0,1-7.8,8.26,15.57,15.57,0,0,0-4.46,4.61c-2.94,4.59-6.27,8.59-11.16,11.32-2.15,1.2-3.81,3.36-5.52,5.24-2.24,2.48-4.41,5-7.65,6.19a7.33,7.33,0,0,0-2.3,1.36c-4.81,4.28-10.71,5.81-16.84,6.67-2.36.33-4.84.82-6.9-1.15a2.89,2.89,0,0,0-1.77-.66c-4.32-.22-7.49-3.1-11.17-4.77a6.48,6.48,0,0,1-2.39-1.88c-2.43-3.24-4.75-6.57-7.1-9.87.26-.6.84-1.26.73-1.78a72.13,72.13,0,0,0-1.86-7.4c-2.46-7.83-4.6-15.68-3.13-24,.06-.35-.26-.76-.6-1.67-2.5,11.91-.63,19.56,2.56,31.37-3.41-1.6-4.16-5-5.3-8a24.55,24.55,0,0,1-1.7-12.68,165.89,165.89,0,0,0,1.29-17.43c-1.88,5.8-1.72,11.88-2.29,17.87a61.06,61.06,0,0,1,.08-11.86,52.78,52.78,0,0,1,2.77-12.54c.47-1.53.51-3.28,2.72-4.1,1-.37,1.73-2.75,1.76-4.22.06-3.74,1.58-6.78,3.65-9.69,1.86-.06,1.62-1.92,2.45-2.87l1.15.15c-.09.58-.18,1.16-.26,1.73l.72.31c.74-1.23,1.48-2.47,2.23-3.7,1.22-2,2.9-3.74,3.28-6.27a6.38,6.38,0,0,1,1.76-2.9c2.36-2.69,4.83-5.28,7.23-7.94a14,14,0,0,0,1.29-1.89c6.18-9.93,14.24-18.14,23.29-25.46.39-.31.74-.67,1.78-1.63L435,310.26Zm-40.61,56.81a25.78,25.78,0,0,0-4.34,9.87l1.73,1c.51-1.17,1.36-2.28,1.4-3.42a11.31,11.31,0,0,1,1.9-5.16c.83-1.84,1.65-3.67,2.77-6.14l-4.23,1.18C394,365.35,394.2,366.25,394.46,367.15Zm31.47,68.42c6.85-1.12,12.81-4.59,18.27-8.71,4.38-3.31,7.95-7.62,12.29-11.12,6.79-5.47,12.17-12.42,17.69-19.15a15.17,15.17,0,0,0,.94-1.42,41,41,0,0,0-10.85,10.6,25.63,25.63,0,0,1-3.85,4.22c-5,4.54-10,9.05-15.16,13.46a57.28,57.28,0,0,1-7.32,5.52C434,431.35,429.94,433.39,425.93,435.57Zm62.74-60.72-1.37-.4-2.75,6.69.78.34C486.11,379.11,489.58,378,488.67,374.85Zm-20.93-71.64-.41-.67-5.53,2.33C464.38,305.82,465.85,304,467.74,303.21Zm-1.92,95.41c2.8-.15,2.8-.15,1.68-2.19Zm-21,23c1.44-1.49,1.44-1.49.4-3C445.07,419.73,445,420.55,444.81,421.66Zm-45.28,6.64.52-.21-.8-2.31A1.41,1.41,0,0,0,399,427,13.35,13.35,0,0,0,399.53,428.3Zm85-55.35.64.52.9-1.52-.44-.29Zm212.4-13.33c.22,2.47-1.29,4.13-3,5.36-5.67,4.09-11.48,8-17.25,12-3.69,2.54-7.33,5.16-11.13,7.52-3,1.87-6.2,3.44-9.36,5.06-4.37,2.25-8.76,4.47-13.19,6.61-1.21.59-2.6.82-3.86,1.31-6.64,2.59-13.23,5.43-20.29,6.61-4.25.72-8.63.6-12.6-1.57a20.05,20.05,0,0,1-2.82-2.29c1.7-2.06,3.25-.71,5.05-.39-.55-1.74-1.62-1.88-3-1.93-2.24-.07-3.23-1.74-2.63-4,.54-2.08,1.43-3.79,3.84-4.17a4.71,4.71,0,0,0,1.76-.7c8.37-5.39,16.76-10.74,25.07-16.22,4.89-3.23,9.62-6.69,14.47-10,2.16-1.46,3.84-3.69,6.6-4.21,1.94-3.86,5.55-5.48,9.31-6.88.48-.17,1-.38,1.42-.57l-.56-.65-1.67-.1c3.81-5.09,12.37-13,15.22-13.76l-4.82,5.48.32.36a12.06,12.06,0,0,0,2-1.46c3.36-3.54,7.36-6.54,9.48-11.13a1.61,1.61,0,0,1,.48-.59c1.25-1,3-1.82,3.68-3.15A60.36,60.36,0,0,0,693.33,315l-2.09,2.71-.4-.17c.32-.77.64-1.54.95-2.31a8.29,8.29,0,0,1,1.05-2.42c.56-.62,1.55-.81,2.27-1.31.18-.12,0-.72,0-1.1l-.06.08,3.41-1.65,4-17.59c-3.13,1.49-1,4.63-3.73,5.94.33-1.28.62-2.14.76-3s.16-2,.24-3a8.68,8.68,0,0,0-8.77,1.12c-3.76,2.6-7.4,5.39-11.1,8.09a23.79,23.79,0,0,1-2.78,2,33.29,33.29,0,0,0-8.75,6.07,4,4,0,0,1-1.31.67c-.06,0-.19-.11-.29-.18.85-1.79,15.72-13.19,23.52-18.13-1.48.24-2.36.15-3,.52-4.06,2.37-8.16,4.7-12.08,7.31-3,2-5.7,4.3-8.49,6.52-3.29,2.61-6.39,5.48-9.82,7.9-4.91,3.46-8.46,8.33-13.08,12.08q-5.55,4.51-10.9,9.28c-1,.9-1.61,2.3-2.58,3.28-2.59,2.59-5.3,5.06-7.93,7.62-1.73,1.69-3.36,3.47-5.11,5.15a18.67,18.67,0,0,1-4.51,3.34c0-1.93,1.71-2.41,2.78-3.4,2.37-2.88,5.55-5.1,7-8.94l-4.88,1.18.08.09a7.06,7.06,0,0,0,.26-1.08c.07-.8.08-1.6.12-2.39-.91.07-2-.17-2.7.28-2.33,1.54-3.13,4-3.85,6.71,3-.58,2.93-.57,3.29,2.09a10.78,10.78,0,0,0,.74,2.13c-2.79-.28-4.28,1.54-5.67,3.53l.06.07-.3-2.19-.58-.17L607,357.91l.06-.1c-1,2.22-2.12,4.42-3,6.69-.16.4.37,1.09.57,1.65l.23.25c-1.4,3.8-2.87,7.59-4.19,11.41-1.2,3.44-2.17,7-3.38,10.39-.8,2.26-1.87,4.42-2.8,6.64-2.48,6-3.3,12.42-5.23,18.54-.77,2.44-1.83,4.79-2.76,7.17a6.17,6.17,0,0,0-.67,1.78c-.3,7.44-3.25,14.28-4.85,21.42-2.36,10.56-4.93,21.08-7.49,31.61a44.05,44.05,0,0,1-1.93,5.2c-.13.34-.47.67-.45,1,.47,6.14-1.54,11.95-2.37,17.91-.1.74-.12,1.71-.59,2.16-2.07,2-1.34,4.42-1.38,6.74,0,.62.27,1.3.08,1.85a30.47,30.47,0,0,0-1.48,9c-.11,3.16-1,6.28-1.48,9.43-1,7.31-1.7,14.66-2.9,21.93-.56,3.41-.4,7-2.67,10.19-1.37,1.93-1.2,4.89-2.06,7.26-1.41,3.87-4.71,6.07-8.23,5.47a10.13,10.13,0,0,1-7.11-5.24,2.75,2.75,0,0,1-.11-2.23c1.72-3.61.9-7.51,1.3-11.25a36.76,36.76,0,0,1,2.39-11c.29-.67.57-1.74.25-2.2-2.38-3.37-.35-6.68.07-10,.53-4.14,1.49-8.22,2.25-12.34,1-5.35,1.92-10.72,3-16.05.23-1.17,1.19-2.19,1.4-3.35.26-1.48,0-3.05.15-4.55a58.28,58.28,0,0,1,1.21-6.27c.28-1.16.37-2.77,3-1.34-2.16-4.58-2.37-8.14,1.3-11.43-1.24-2.42-.6-5.08.33-8,2.22-6.86,4-13.87,6-20.79a4.57,4.57,0,0,1,1.25-1.67c-.1-1.53-.44-2.65-.17-3.59,1.63-5.77,3.37-11.5,5.14-17.23,1.27-4.13,2.64-8.24,4-12.35a2.85,2.85,0,0,1,.41-1.07c2.45-2.53,2.6-5.81,3.24-9,.32-1.58,1.92-2.85,2.56-4.42,1.69-4.2,3-8.54,4.76-12.72s3.77-8.14,5.61-12.23c2.44-5.43,4.8-10.9,7.25-16.33.72-1.58,1.73-3,2.46-4.63s1.77-2.79,1.89-4.81,1.91-3.75,3-5.58c.58-.95,1.44-1.74,1.94-2.72,3.2-6.15,6.28-12.37,9.51-18.52,2.24-4.26,4.21-8.77,7.1-12.55,2.73-3.56,4.21-7.9,7.56-11.08,1.26-1.18,1.34-3.51,2.32-5.09,3-4.79,6.16-9.47,9.78-15l2,2.49c-1.89,3.5-3.64,6.57-5.21,9.73-1.16,2.32-2,4.82-3.12,7.14s-2.46,4.45-3.82,6.6-2.75,3.88-4.08,5.86a5.63,5.63,0,0,0-.55,1.65c-.26.92-.49,1.85-.88,3.31a30.48,30.48,0,0,0,2.51-2.14c2.92-3.2,6-6.32,8.64-9.71,4.12-5.19,9.34-9.26,14-13.94,7.48-7.6,16.16-13.76,26.31-17.29a34.2,34.2,0,0,1,23.27-.1c1.9.67,3.83,1.26,5.75,1.84,2.84.86,3.22,1.45,2.62,4.27-.1.48-.21.95-.34,1.51a9,9,0,0,0,1.55.54c4.65.7,6.24,4.18,7.65,8a41.88,41.88,0,0,0,3.39,6.76,23.06,23.06,0,0,1,3.49,10.41c.15,2.41.46,4.82.49,7.23.06,6-2.64,11.3-4.59,16.78a31.43,31.43,0,0,1-1.54,3.91c-1.09,2.13-2.33,4.18-3.5,6.27l-.5-.43,4-10.58c2.07-2.89,4.5-10.66,4.17-14-1.27,3.83-2.44,7.25-3.52,10.7a25.88,25.88,0,0,0-.59,3.32,19.93,19.93,0,0,0-2,3c-1.2,2.73-2.24,5.54-3.35,8.32l-1.56,2.6-3.15,2.9-.48-.37c1.13-1.9,2.25-3.81,3.41-5.78-3.9.54-3.92.53-6,3.29-1.08,1.42-2.12,2.88-3.14,4.34-.61.89-1.41,1.58-1,3,.19.63-1,2.11-1.93,2.58-2.48,1.28-3.56,3.83-5.5,5.54-3.33,2.95-6.84,5.71-10.27,8.55-3.13,2.6-6.14,5.36-9.44,7.73s-6.71,4.17-10.06,6.27c-2,1.26-4,2.59-6.71,4.36a5.07,5.07,0,0,0,4.52-1.07c8.28-5.49,16.6-10.94,24.77-16.59a98.7,98.7,0,0,0,7.85-6.66Zm-74.65-27.9,2.06.64,5.3-7.43a16.86,16.86,0,0,0-7.29,6.85l-4,3.55C621.79,335.51,622.05,333.62,622.29,331.72Zm92.19-3.21c.78-.71,1.18-.9,1.29-1.2,1.58-4.3,3-8.64,4.69-12.9A18.1,18.1,0,0,0,720,299.7a22.47,22.47,0,0,0-.65,5.86c.25,4.75,0,9.38-1.8,13.87C716.41,322.19,715.62,325.08,714.48,328.51Zm-56,57.11c-3.69.47-10.4,4.46-12.11,6.85Q652.41,389,658.46,385.62Zm-10.15-68.33-.34-.7c-1.17.33-2.55.41-3.43,1.11-.47.38-.08,1.83-.08,3.37,1.28-1.14,2-1.77,2.74-2.45A12.82,12.82,0,0,0,648.31,317.29Zm-19.77,16.45c2.92.65,4.84-.84,6.73-5.2Zm44.26-45.32c-4.71.45-4.71.45-5.84,2.27C669.62,291.56,671,289.43,672.8,288.42Zm-47,49.4,1.28.5a19.67,19.67,0,0,0,.52-2.11,2.56,2.56,0,0,0-.92-.34C626.33,336.49,626.07,337.16,625.79,337.82Zm1.81,53.84-.07-1.09c-.66.15-1.32.28-2,.47a1.77,1.77,0,0,0,0,.65C626.28,391.71,626.94,391.68,627.6,391.66Zm51.83-106.23-.33-.92-1.71.79.25.66Zm-64,110.9.08.44a4,4,0,0,0,1.3,0,4.7,4.7,0,0,0,1.1-.82l-.32-.44Zm18.39-76.57.35.63,2.22-1.27-.33-.58Zm-1.14-22.15.5.46,1.23-1.67-.46-.34ZM159.42,181.32a20.74,20.74,0,0,0-2.18,3c-1.1,2.28-1.87,4.74-3,7a89.44,89.44,0,0,0-6.38,17.34l4.54-9.82c.58,1.2,1.2,1.86,1.08,2.35-2.51,10.89-7,21.07-11.49,31.24-.19.43-.23.92-.39,1.36-.78,2.14-1.13,4.39-3.52,5.74-1.6.9-2,3.05-1.62,4.82a3.54,3.54,0,0,1-1.28,3.84c-1.07,1-1.54,2.92-1.79,4.51-.61,3.92-.53,4-4.5,3.8l-6.44,16.17c2.88-.12,3.11-2.45,4-3.68,1.17-.06,2.28.19,3.06-.2,3.74-1.89,7.31-4.13,11.09-5.92,8.6-4.07,17.18-8.26,26.26-11.18,11.41-3.67,22.86-7.2,34.34-10.67,8.65-2.61,17.32-5.15,26-7.48,6.2-1.66,12.63-2.55,18.73-4.49,5-1.57,10.16-1.78,15.15-3.09,3.36-.88,4.85,2,7.11,3.35.32.19.41,1.29.19,1.79-.66,1.54-1.15,3.7-2.38,4.35-2.73,1.44-2.08,3-1.07,5.21l3.36-.52.82,1.51c-.33.3-.52.63-.7.62a11.42,11.42,0,0,0-5.66,1.75A22.53,22.53,0,0,1,255.8,246c-2,.34-3.94.63-5.54,2.07,5.68.3,10.91-2.94,16.59-2.37l.19.83a52.92,52.92,0,0,1-7.35,2.13c-7,1-13.89,2.62-20.77,4.23-8.31,1.95-16.67,3.68-25,5.67-7.54,1.8-15,3.84-22.56,5.73a12.67,12.67,0,0,1-4.53.29c19.9-6.5,40.38-10.8,60.74-15.52l-.17-.86c-2.08.31-4.18.49-6.22,1-11.54,2.66-23.09,5.31-34.6,8.14-14.13,3.48-28.17,7.33-41.67,12.8-8.51,3.46-16.84,7.33-25.23,11.07-9.21,4.1-17.41,10-26.09,15a45.83,45.83,0,0,1-4.33,2l-.42-.71,5.29-3.92,2.51-1.55c-1.81-.58-2.46.16-2.43,1.63-.59-.11-1.37-.52-1.76-.28a46.13,46.13,0,0,0-7.46,5.44l2.58-.12c0,.23.17.63.08.68-2.08,1.37-4.19,2.7-6.32,4.05-1.3-2.34-1.3-2.34-7.49-3.2l8.71-4.37c-2.87-1-2.87-1-6.32,1.38-.23-.26-.72-.64-.66-.77.79-1.68,1.53-3.31,1.2-5.3-.08-.47.79-1.21,1.36-1.65,3.58-2.75,4.08-5.22,1.78-9.09a2.5,2.5,0,0,1-.35-1.08c0-1,0-1.93,0-2.89h2.93l-1.07-2.43,1.28-.76c-.1-.17-.22-.51-.31-.5-2.47.22-2.38-1.58-2.17-3.05.47-3.14,1.12-6.27,1.84-9.38,5.56-23.88,13.05-47.2,21.13-70.32,3.44-9.86,7.52-19.5,11.42-29.2a23.86,23.86,0,0,1,2.68-4.05v3l.75.05,1.2-2.42-2-.57a6.24,6.24,0,0,1,.13-2.22c2.41-5.2,4.93-10.36,7.38-15.54,1.56-3.33,3-6.75,4.62-10,1.43-2.82,3.14-5.49,4.72-8.23.17,1.38.33,2.75.56,4.7,3.55-5.09,3.55-5.09,3.08-7.38L154,120.79c1.53-3,3.07-6,4.82-9.41l1.8,2.63,1.83-4.53,1,1.07c-.16-1.56-.31-3.12-.47-4.68l.56-.13,1.4,2.44c3-.41,3-3.58,5-5s2.84-4.14,4.1-6.35,2.5-4.66,4-7.48l-6-.94,4.9-7.77c.53,1.12.89,2.05,1.4,2.89s1.16,1.58,2,2.73c.63-1.13,1.31-2.38,2-3.6,1.7-2.83,3.43-5.65,5.15-8.47,1.47-2.43,3.26-4.41,6.26-4.94a4,4,0,0,0,2.51-1.55l-3-.24a7.72,7.72,0,0,1,.48-2.14c2.76-4.84,5.52-9.67,9.9-13.36a17.73,17.73,0,0,0,3.1-4.33,4,4,0,0,1,4.19-2l-.07,0c.44,1.77,2.72,1.06,3.53,3,1.1,2.63-.15,4.65-.42,6.92l.09-.07-4.37,9.93.68.49,2.38-1.32c.08.14.33.4.28.51-1.34,2.72-3.16,5.3-4,8.17-1.55,5.44-5.14,9.81-7.14,15-1.54,4-2.69,8.2-4.78,11.87-2.23,3.9-3,8.09-4,12.35l-2.9,1.07c3.24,3.08-.92,5.52-.65,8.69l-3-2c-1.18,2.09-2.9,4.15-2.08,7.09a1.72,1.72,0,0,1-.07,1.12c-1.6,3.38-3.24,6.73-4.86,10.09-.77,1.6-1.46,3.23-2.29,4.79-1.42,2.68-3.1,5.24-4.34,8s-2,5.45-3,8.51l2.39,1.13-3.9,7.63-.42-.09.28-3.35a63.07,63.07,0,0,0-8.85,16.36ZM136.9,233.26c1.57,0,2.06-1.13,2.52-2.37,1.06-2.81,2.25-5.58,3.25-8.41a20.53,20.53,0,0,0,.63-3.53c1.72-1,1.71-2.75,1.38-4.59-.45,1.54-.91,3.07-1.36,4.61q-3.18,7.17-6.35,14.37c-1.43,3.61-3.17,7.13-3.39,11.13,1.59-3.24,3.16-6.47,3.58-10.11A3.51,3.51,0,0,0,136.9,233.26ZM213.18,48.31l-4.81-.81C209.42,50.73,210.09,50.9,213.18,48.31ZM130.32,252.16c2.76-3.51,2.76-3.51,2.2-6C131.66,248.5,131,250.33,130.32,252.16Zm20.44-120.32-.77-.29a14.39,14.39,0,0,0-1.52,2.42c-.16.39.3,1,.48,1.56.5-.26,1.3-.41,1.42-.79A14.57,14.57,0,0,0,150.76,131.84Zm2.58-1.48,2.16-2.77-2.44-1C153.59,128,151.44,128.74,153.34,130.36ZM137.7,162.25c-.73,2.26,1.09,1.42,1.78,1.82l.46-.79ZM121.93,281.4l.48.89,1.73-1.21-.41-.63Zm275.33,4.16c1.47.33,2.87.91,4.1-.79.45-.64,1.72-.69,3.33-1.26-1.22-.54-1.84-1.06-2.39-1-1.54.16-3,0-3.42-1.61s1-2.45,2.24-3.13c3.31-1.83,6.65-3.6,10.24-5.54.48,1.17.79,1.92,1.06,2.55l-4.31,3.36h5.22c2.36-2.85,2.36-2.85,6.05-3.32,1.29,3,1.69,5.6-.27,8.83-1.24,2-1.93,3.83-4.32,5.06-1.8.92-2.61,3.6-4.23,5.1a63.87,63.87,0,0,1-6.08,4.43,8.89,8.89,0,0,0-1.48,1.46c-2.14,2.55-4.1,5.26-6.45,7.6-1.33,1.34-3.27,2.06-5.22,3.23.08.43.22,1.27.29,1.69-3.64,4.25-7.35,8.1-10.5,12.37-3.84,5.22-7.22,10.77-10.77,16.2-1.32,2-2.39,4.23-3.85,6.13a30.37,30.37,0,0,1-4.08,3.7c1.73,3-2.66,4-2.66,6.73-3.55-.63-4.36.33-3.44,3.73-1.17,2.53-4.38,3.67-4.66,6.81-3.2,1.58-2.86,4.94-3.88,7.64-.4,1.05-.9,2.38-1.77,2.89-3.6,2.13-4.45,5.7-5.4,9.31-.7,2.7-1.56,5.37-2.35,8-.4,1.34-.86,2.67-1.17,4-1.28,5.71-2.52,11.42-3.76,17.14-1.7,7.85-3.33,15.73-5.1,23.57-1,4.59-2.22,9.16-3.45,13.7-1,3.69-2.44,7.28-3.22,11-1,4.85-4.2,8-7.68,11a3.1,3.1,0,0,1-4.23,0,22.31,22.31,0,0,1-2.33-2.84c.14-.67.37-1.88.74-3.75l-4.69,2.61-.32,3.08c-1.36-1.49-.85-4.31-3.72-4a215,215,0,0,1,3.37-32.19c1.86-10,3.3-20.14,5.25-30.14,2.9-14.89,6.06-29.73,9.15-44.58a456.3,456.3,0,0,1,12.23-44.66c1.34-4.25,2.68-8.5,4.11-12.71a25.64,25.64,0,0,1,1.6-3,23.2,23.2,0,0,0,1.59-3.39c.66-2,.85-4.29,1.78-6.18,1.2-2.43,1.33-5.31,3.3-7.43a18,18,0,0,0,2.23-3.42c1-1.75,1.89-3.57,2.92-5.3.58-1,1.36-1.83,2.38-3.19-.33-.62-1.36-2.09.94-3.18.27.25.64.86,1.12,1a1.9,1.9,0,0,0,1.63-.5c.27-.36.18-1.51-.09-1.64-1.9-.93-1.29-2.11-.39-3.66,1.34,1.3,2.8,2.37,4.57-.12l.49.92a33.77,33.77,0,0,1-1,3.75c-3.36,9.07-6.83,18.09-10.12,27.19A53.32,53.32,0,0,0,345,305.5c-.21,1-.28,2.21-.9,2.84-1.51,1.53-1,3-.06,5.09.6-1.39,1.07-2.4,1.48-3.44a26.35,26.35,0,0,1,1.05-2.82c1-1.9,2.19-3.7,1.68-6a3,3,0,0,1,.39-1.46c2.88-7.47,5.54-15,8.76-22.34,1.05-2.38,1.89-5.12,4.28-6.94,1.07-.82,1.42-2.6,2.12-4,2.52.38,2,2.67,2.76,4.2h3l-3,2.43,2,1.39-2.24,1.48c2,2.14,1.11,4.44.43,6.8-1.91,6.62-3.67,13.27-5.6,19.88a75.17,75.17,0,0,0-3.05,14.52,13.59,13.59,0,0,0,.09,1.48,10,10,0,0,0,1.34-1.12q5.93-7.67,11.83-15.35c.6-.78,1.19-1.94,2-2.16,2.82-.76,3.95-3,5.32-5.42a5.22,5.22,0,0,0,5.16-3,3.08,3.08,0,0,1,1.28-1.32c3.41-1.69,5.72-5,9.47-6.24.61-.2.89-1.38,1.53-2.44.78,1.42,3.29,1.94,1.22,4.17a31.58,31.58,0,0,0-5.68,2.11c-1.69,1-3,2.65-4.51,4,.84,3.05,3.72.8,5.27,1.72l.9,4.1,3-1.55-2.7-2,3.63-.93-1.44-3.41C397.38,288.14,397.38,288.14,397.26,285.56Zm-37,43.07c-7.8,13.22-8.05,13.78-7.25,16.81,3-2.47,4.29-6,6.39-9,1.5-2.1,2.64-4.45,4.06-6.62a1.9,1.9,0,0,1,1.61-.69c2.56.66,2.81-1.75,2.48-2.63-1-2.65.8-4,2-5.67,2-2.7,3.93-5.37,5-8.68a17.15,17.15,0,0,0-3.73,3.52c-2.22,2.77-4.31,5.62-6.55,8.37a4.73,4.73,0,0,1-2.14,1.38c-.35.12-.95-.52-1.54-.88l-3.16,4.71.41.38Zm21.47-27.94c-.06.93-.14,2.42-.24,3.95,2.79.26,3.53-2.46,5.49-3.47l1.6,1.29,2.79-3.12-2.9-1.68Zm-.12-2.61.92.81,4.16-3.51-2.48-2.84ZM313.76,443.51c-1.06,1.71-4.4,2.95-2,6.34C312.52,447.42,313.14,445.46,313.76,443.51Zm34.79-79.83a20.51,20.51,0,0,0,2.87-2.76c.29-.45,0-1.28-.05-1.94-.6.28-1.48.4-1.73.86A20.22,20.22,0,0,0,348.55,363.68Zm-19.28,7.16c-2.7,1.46-2.7,1.46-1.55,4.54Zm-5.44,22.48c.18-1.15.31-2,.48-3.1C321.89,391.26,321.89,391.26,323.83,393.32Zm61-85.21c.8.7,1.28,1.45,1.84,1.51s1-.74,1.48-1.15c-.51-.43-1-1-1.56-1.21C386.23,307.15,385.66,307.69,384.85,308.11Zm-21.06,11.62c-.79.88-1.57,1.77-2.35,2.65C363.57,322.66,364.1,321.56,363.79,319.73Zm-14,35.75.83.28c.6-.79,1.49-1.5.38-3.5C350.44,353.74,350.11,354.61,349.78,355.48Zm28.77-52.84-.66-.62-1.33,1.68.43.39ZM342.91,322a10.35,10.35,0,0,0-1.58-.62c-.2,0-.43.17-.65.26a2.47,2.47,0,0,0,.48.88C341.29,322.6,341.69,322.36,342.91,322ZM321.1,403c-.44.51-.76.77-.72.85a7.28,7.28,0,0,0,.72,1ZM371,312.21l-.61-.65L369.17,313l.39.41ZM885.65,77.7l-1.32,1.85c-.06.13-.12.25-.17.38-.68.48-1.36,1.35-2,1.35-2.36,0-3.73.79-4.05,2.77-.12.75-.14,1.5-.21,2.26l.07-.09-3.47,2.46c-.89,1.49-1.81,3-2.71,4.57s-1.86,3-2.63,4.63c-1.61,3.33-3.19,6.68-4.64,10.09-1,2.41-3.06,3.47-5.53,4.9-.14-1.56-.25-2.71-.37-4l-1.67.2-2.08-3.16-1.48,2.31-2.57-3.41c-.46,1.4-.73,2.24-1,3.17-.21-.14-.58-.27-.73-.52-1.28-2.18,0-4.15.58-6.17.2-.72.92-1.53.73-2.07-.85-2.51.46-4.47,1.42-6.51,3.19-6.77,6.37-13.55,9.66-20.28,1.55-3.18,3.34-6.24,5-9.39.57-1.1.76-2.42,1.43-3.44,1.5-2.29,1.89-5.35,4.72-6.75.38-.18.41-1,.09-2A11.89,11.89,0,0,0,870,52.58c-5.11,6-10.38,11.85-15.14,18.11C849,78.4,843.42,86.36,838,94.37c-5.08,7.46-9.79,15.18-14.82,22.68a50.83,50.83,0,0,1-5.25,6c-1.3,1.38-2.83,2.1-4.82,1.24-1.26-.55-3-.47-3.9-1.32-1.63-1.51-3-.85-4-.4-6.39-2-4.95-7-4.38-11.33.3-2.32-.4-5.26,2.32-6.88.12-.07.08-.49,0-.73-.46-3.53,1.42-6.56,2.07-9.84.16-.81-.44-1.78-.69-2.67l0,0a33.58,33.58,0,0,0,6.57-13.09,8,8,0,0,1,1.42-3.05c2.4-3.1,4.93-6.11,7.72-9.53.28,1.13.49,2,.81,3.28l2.24-2.55a8.27,8.27,0,0,1,4.49,9.1c-.57,3.24-1.14,6.48-1.41,9.91,9.46-11.62,18.1-23.86,29-34.31a21.11,21.11,0,0,0,2.35.83,16.28,16.28,0,0,0,2.37.2c-1-2.73,1.43-3.63,2.65-4.83s3.28-1.52,5.64-2.5l1.11-3c2.26,1.44,3.45-.14,4.72-1.48a67.24,67.24,0,0,1,5.23-5.44,34.06,34.06,0,0,0,7.24-8.08c1.95-3.14,4.45-5.95,6.95-9.24.32.58.57,1,.7,1.26,1.54.16,3.54-.22,4.25.57,1.66,1.84,3,4.1,2.8,6.86-.31,3.66-2,6.82-3.59,10q-6.5,13-12.94,26.05a6.63,6.63,0,0,0-.85,3.25c1.7-2.34,3.44-4.64,5.09-7,5-7.13,9.76-14.38,16.1-20.39,4.32-4.09,9-7.8,13.26-11.94,5.94-5.75,13-9.86,20.09-13.83,4.63-2.59,9.22-5.37,14.54-6.44a3.19,3.19,0,0,1,4.13,2.33,50.52,50.52,0,0,1,5.85,2.56c.5.29.67,1.66.54,2.46-1.61,9.39-2.94,18.83-6.83,27.7-.57,1.3-2.36,1.36-2.17,3.18a9,9,0,0,1-.78,4.3c-2.56,5.84-5.31,11.6-7.92,17.42-.83,1.84-1.42,3.8-2.12,5.69-.25.46-.51.92-.77,1.38-1.38,2.57-2.9,5.08-4.1,7.73-4.94,10.93-9.78,21.91-14.67,32.86a21.71,21.71,0,0,1-1.77,3.38c-1.71,2.46-3.51,2.95-6.39,1.84-1.17-.45-2.31-1-3.59-1.53-.43-1.91.12-4.07-1.57-5.87-.61-.64,0-2.7.43-4,1.17-3.67,2.52-7.28,3.81-11L913,95.29l6-4.73c-.36-1.65-2.91-2.74-.22-4.82l.69,1.74c.49-.29.68-.35.69-.43.94-5.78,5.11-10,7.23-15.22.27-.66.55-1.66.25-2.16-1.59-2.62,0-4.53,1.17-6.92.4.68.63,1.08.93,1.61,1.89-1.62,1.93-3.67,1.47-5.72.7-1,3-.68,1.94-2.76-.09-.18,1.08-.93,1.6-1.47a16.39,16.39,0,0,0,3-3.29q5.07-9.63,9.84-19.43a87.41,87.41,0,0,0,3.26-8.17,29,29,0,0,0,.84-3.4l-7.41.35v1.91l-2.67,1.48c-.16-.51-.3-.82-.36-1.14a12.55,12.55,0,0,0-.46-2.57c-1.11-2.56-2.72-2.71-5-1-3.29,2.51-6.89,4.62-10.1,7.22-2.38,1.93-5.43,3.19-7.09,6.23l3.25,1.44c-1.35,2.29-4.77,2.33-4.75,5.34l.09-.08-2,1.16.18.48,1.78-.11.07.07c-2.81,3.19-5.61,6.38-8.44,9.56-3.08,3.46-6.19,6.9-9.28,10.35-1.5-.66-2.32.2-3.11,1.29-1.18,1.63-2.41,3.21-3.63,4.81L885.6,77.79ZM951.7,13.31c-.9-.36-2.36-1.25-2.6-1-1.9,2-4.91,1.28-7.39,3.22l5.57,2.72c-.54-2.16.89-2.63,2.1-3.34a25.66,25.66,0,0,0,2.25-1.67c2.56-.31,2.56-.31,2.35-3.17l-2.86.47Zm-125,83.89a15.09,15.09,0,0,1,.06-3.78,14.21,14.21,0,0,1,1.86-3.11,7.7,7.7,0,0,0-1.32-.46c-1.1,1.9-3.54,3.05-3.28,5.75ZM849.26,67c-1-2.41-1-2.41-3.13-1.92C846.81,66.37,847.55,67.37,849.26,67ZM960.44,15.93l.85.15c.15-1.19.29-2.38.44-3.57l-.52-.06C961,13.61,960.69,14.77,960.44,15.93Zm-56,35.57.59.48L907,49.66l-.57-.47Zm-2,3.53-.64-.49L900.07,57l.54.41Zm-39.67-5.47-.77.55c-.12.25-.41.63-.33.73a5.3,5.3,0,0,0,1,.86c.19-.26.55-.52.54-.77A5.91,5.91,0,0,0,862.84,49.56ZM388.88,57c.46,1.36.71,2.65-.44,3.9-1.77,1.92-3.43,3.94-5.13,5.93-1.46,1.71-3,3.39-2.57,6.79,1.4-1.28,2.6-1.92,3.1-2.91,3-6.06,7.71-10.9,11.6-16.33,2.65-3.68,4.77-7.76,7.13-11.66.25-.41.49-.84.73-1.26,3.31,2,4.11,2.49,2.22,8.33,2.4,2.61,2,2.48,1,5.75-1.32,4.15-4.88,7.17-5.41,11.62-.05.47-.13,1-.28,2,3.79-1.17,7.31-.34,11-1.28a56.44,56.44,0,0,1,18.57-1.64,13.91,13.91,0,0,1,1.84.49c3.08.67,5.16,2.15,4.52,6.2-1.32.77-2.94,1.73-4.59,2.66a19.39,19.39,0,0,0-2.35,1.23c-7.07,5.3-15.1,8.33-23.64,10.31-2.95.68-5.74,2.07-8.68,2.85a69,69,0,0,1-7.85,1.42c-2.2.32-4.13.85-5.39,3-2.8,4.79-5.89,9.43-8.6,14.28q-7,12.54-13.66,25.28c-6.27,12-12.2,24.16-18.64,36a256.37,256.37,0,0,0-15.38,33.75c-.39,1.06-1.15,2-1.64,3s-1.16,2.29-2.49,1.81c-.88-.31-1.48-1.39-2.27-2.2l-1.2.94-.87-1.76c-2.07.54-4.12,2.1-6.46.54l-1,2.12c-.21-.17-.54-.32-.53-.45.06-3-.05-6.13.29-9.15.76-6.69,1.36-13.41,3.39-19.91a46.09,46.09,0,0,1,7.07-14.2,3.17,3.17,0,0,0,.73-2c-.45-3.78,1.46-6.7,3.22-9.75a32,32,0,0,0,2.6-5.89c2.89-8.58,6.88-16.66,11-24.68,2.49-4.84,4.79-9.77,7.1-14.69a7,7,0,0,0,.18-2.23l1.9-.79-.11-.87c-3-.11-6,.82-9.08-.27a42.47,42.47,0,0,1,6.47-.9c2.56,0,4-1.11,5.24-3.7-5.44.81-10.53,1.53-15.61,2.35-4.47.73-8.93,1.49-13.39.14.71-2.38,3-1.18,4.93-2.2-3.28-1.21-7.27-.08-8.7-4.08.39-.49,1.1-1,1.28-1.64,1.19-4.27,4.83-5.17,8.37-6.25,1.09-.33,2.15-.74,3.23-1.1,3.13-1.06,6.26-2.13,9.4-3.17a64.22,64.22,0,0,1,6.15-1.91c3.77-.86,7.56-1.53,11.41-2,3.36-.43,7-1.36,8.9-5.46a23.77,23.77,0,0,1,7.12-8.1c1.73-1.32.11-3.3,1.92-4.23a13.46,13.46,0,0,0,3.42-2.9c.27-.3-.09-1.19-.15-1.71,5.3-3.53,9.49-8.13,14-12.68,1.19.48,1.79,1,1,2.49-1,1.73-1.77,3.57-2.65,5.37l-1.22,2.27c-1.56.51-2.71,1.25-1.85,3.18Zm7.71-.7.42.28,1.44-1.69-.71-.49Zm7.48-11.19-.6-.47-1.14,1.83.57.36ZM398.46,60c-2.37.75-2.65,1.46-1.43,2.88C397.44,62.07,397.77,61.41,398.46,60ZM940.79,261.46c.45,1.56-2.49,3,0,3.83-.66,1.86-1.15,3.49-1.82,5a12.1,12.1,0,0,1-1.64,2.58c-5,6.3-10.08,12.53-15,18.9-3.33,4.31-7,8.35-9.33,13.42-2.08,4.43-5.27,8.33-7.92,12.5-5.4,8.51-10.38,17.3-13.27,27a70.48,70.48,0,0,0-2.53,28.18,26.07,26.07,0,0,0,4.29-2.09c4.48-3.38,9.08-6.65,13.21-10.43,5.45-5,11.11-9.84,15.4-16,1.39-2,2.68-4,4.08-6,2.72-3.84,5.64-7.56,8.2-11.5,2.85-4.37,5.5-8.88,8-13.44,2.8-5,5.61-10,8-15.22,3.83-8.33,7.29-16.82,11-25.22,1.38-3.16,3-6.24,4.33-9.4,1.52-3.48,3.46-6.92,4.18-10.58.62-3.11-.08-6.53-.46-9.79a2.45,2.45,0,0,0-3.13-2.09c-3.08.51-6.15,1.12-9.44,1.73l2.2-2.74c-1.89-2.9-3.71,1.8-5.6,0-.72-4.77,0-6,4.51-7,3.18-.76,6.18-.94,8.82,1.83,1.72,1.82,4.06,3,6.08,4.59s3.09,3.09,2.72,6.1c-.44,3.53.53,7.22,1,11.45.28-1.66.46-2.73.78-4.66a10.82,10.82,0,0,1,1.19,2.58c.52,4.83-.92,9.38-2.6,13.77-.5,1.3-2.37,2.06-3.8,3.22,1.51,2.59,0,5.06-1.13,7.56-2.07,4.64-4.49,9.15-6.23,13.91-1.6,4.41-3,8.8-5.52,12.87-2,3.14-2.63,7-4.29,10.39-3.75,7.54-7.87,14.9-13.3,21.38-1.75,2.1-2.67,4.5-3.9,6.81-1.31,2.47-2.89,4.8-4.3,7.22-4.27,7.32-10,13.44-15.63,19.71-1.84,2.05-3.51,4.27-5.43,6.24-3.68,3.8-7.44,7.55-12.38,9.73-2.43,1.08-5,1.92-7.43,2.93a36.06,36.06,0,0,0-5.54,2.53c-1.27.8-2.79,1.08-3.51.24-1.55-1.81-3.44-1.62-5.39-1.87a4.84,4.84,0,0,1-2.63-1.35c-1-1-1.28-2.92-3.38-2.07l-3.67-4.76c-.15.74-.24,1.22-.34,1.7l-.44.17-1.67-7.05c-.33,1.38-.52,2.16-.71,2.94h-.45a28.06,28.06,0,0,1-.86-4.46c-.22-7.26-.16-14.44,1.62-21.64.84-3.38,1.61-6.85,2.43-10.27,2.11-8.79,6.62-16.57,10.93-24.39,7.72-14,18.25-25.85,29.33-37.23q9.89-10.14,19.77-20.31c2.58-2.65,5.16-5.29,7.84-7.84.68-.65,1.72-.92,3.3-1.73-.35,3.08-.63,5.52-.92,8.14ZM950,313.78c3.5-2.64,4.42-6.66,6-10.28,1.8-4,3.46-8.13,5.25-12.16,1.05-2.38,2.29-4.67,3.37-7,1.91-4.17,3.88-8.31,5.63-12.55,1.3-3.17,2.29-6.46,3.37-9.71.1-.29-.11-.69-.19-1.15l-2.45.85a17.77,17.77,0,0,1-.81,4.08c-1.05,2.32-1.81,4.73-2.71,7.09-1.7,4.51-3.85,8.85-5.93,13.21a11.32,11.32,0,0,1-1.87,2.38c-1,3.27-1.89,6.2-2.74,9l-2.82.86C955,304.34,951,308.6,950,313.78ZM945.79,323c-3.89,2.41-5.7,5.51-5.43,9.12Zm-59.25,42.29-.76.17c-.07,5.75-.07,5.75,1.25,7.64C886.85,370.12,886.7,367.68,886.54,365.24Zm1.09-13.67a10.21,10.21,0,0,0-1.14,7.72C886.92,356.39,887.26,354.1,887.63,351.57Zm45.94-87.68c.06,1.36.06,2.77,1.78,2.78,2,0,1.35-1.62,1.59-2.95Zm1.76,74c2.26-1.48,2.82-3.1,3.84-4.92C936.61,333.75,936.12,335.42,935.33,337.92ZM974,256.11l1.12.85a7.86,7.86,0,0,0,.26-1.5,6.76,6.76,0,0,0-.3-1.43l-.61,0C974.34,254.75,974.19,255.43,974,256.11Zm-26.51,62,.67.35.92-1.86-.58-.3ZM930.4,269.68l1.13,1,1.07-1.4-.52-.41ZM212.5,486c-1.78-.44-3.57-.86-5.34-1.34-.54-.15-1.26-.3-1.52-.69-.67-1-1.46-1-2.57-1-2.76.07-3.2-.71-2.41-3.67l2.33,1.39c-1.41-4.58-2.67-6.61-5.48-8.56,1.24,2.76,2.25,5,3.27,7.29a6,6,0,0,1-4.14-4.64c-1.27-5.55-2.44-11.13-3.27-16.76-.36-2.43.23-5,.4-7.8l1.89-.83c-.68-2,.36-4.73-2.94-5.79,1.39-.81.58-3.45,2.75-2.7.76-2.9,1.54-5.81,2.3-8.73.95-3.67,1.84-7.36,2.83-11,.19-.68.61-1.64,1.13-1.81,2.47-.79,3.42-3,4.45-4.9.84-1.51.58-3.62.87-6,.79-.47,3-.72,2-3.07-.09-.22.21-.73.46-.94,3.1-2.68,4.52-6.38,6.19-9.94a5.29,5.29,0,0,1,1.22-1.38c.72-.72,1.85-1.28,2.13-2.13,1.29-3.91,4.76-6.12,6.94-9.32,1-1.46,2.39-2.64,3.53-4,1-1.15,1.83-2.39,2.74-3.59,1.06-1.4,1.86-3.19,3.25-4.11,3-2,4.93-4.94,7.45-7.32,6-5.69,12.36-11,18.65-16.43a79.42,79.42,0,0,1,6.77-5c3.06-2.09,6.18-4.1,10.22-4.76l.54,1.9c.33,0,.81-.08,1,.11,1.45,1.19,1-3.17,3-1,.51.54,2.44-.06,3.63-.4,6.67-1.9,13.48,7.54,10.92,14.29-3.05,8.07-7.37,15.4-11.47,22.88-1.52,2.77-3.09,5.54-4.85,8.15a48.83,48.83,0,0,1-4.2,4.91,18.67,18.67,0,0,0-1.62,1.58c-5,7.41-11.15,13.88-17.49,20.07-5,4.85-9.81,10-16.16,13.27-1.89,1-3.66,2.18-5.62,3-.8.32-1.93-.17-3.15-.32-1.73,4.74-6.34,6.22-10.31,8.25-2.84,1.45-4.44,3.33-4.66,6.35-.43,6-1,12-1,18a30.14,30.14,0,0,0,1.95,10.79c2,4.93,3.46,6.46,9,6.27a42,42,0,0,0,23.82-8.07,43.14,43.14,0,0,0,6.3-6.09,99.73,99.73,0,0,0,6.84-8.25c2.23-3.06,4.13-6.35,6.21-9.52,2.23-3.39,4.49-6.75,6.84-10.26l4.69,1.81c-.92,4.2-2.22,6.37-5.66,9.59a1.57,1.57,0,0,0-.49.95c-.17,4-2.55,6.9-4.61,10-3.27,4.85-6.58,9.69-10.11,14.36A44.06,44.06,0,0,1,231,486.82a23.87,23.87,0,0,0-2.65.4c-1.44.37-2.62,1-3.93-.79-.64-.87-2.76-.63-4.2-.93l-8.51-1.86-3.87-2.37c.71,2.09,2.16,2.57,4,2.3l.59,2.48ZM267,383.9c3-4.71,6-9.41,8.9-14.15q2.31-3.72,4.46-7.53,3.15-5.62,6.18-11.31c1.65-3.1,3.21-6.24,4.88-9.51-2.57-1-4.37.45-5.9,1.43a100.42,100.42,0,0,0-10.46,7.65A148,148,0,0,0,253.4,372a255.52,255.52,0,0,0-23.89,36.45c-2,3.75-3.68,7.71-5.69,12l4-1.28a16.07,16.07,0,0,0-.58,1.78,4.4,4.4,0,0,0,.25,1.3l3.47-2-3.22-1a13.09,13.09,0,0,1,2-2.11c3.93-2.76,8.12-5.17,11.82-8.19,4.42-3.6,8.47-7.67,12.62-11.6,1-.92,1.82-1.64,3.32-1.27,3.28.82,4.49.23,5.78-2.84.46-1.09,2.4-2.23.33-3.41l-3,1.25,4.86-5.6c.2,1.52.21,3.24,3.1,2.63C267.93,386.48,267.47,385.19,267,383.9Zm24.72-34.09c2.69-5,2.69-5,.66-7C293.11,345.38,289.24,346.79,291.73,349.81ZM222.29,425a11.58,11.58,0,0,0,2.91-1.12c.38-.33.3-1.21.43-1.85-.68,0-1.6-.17-2,.18C223.08,422.73,222.89,423.66,222.29,425Zm50.12-45.41c2.51-.68,2.51-.68,2.08-3.15Zm8.93-12.15c-.22-.41-.28-.59-.33-.59a.57.57,0,0,0-.33.16c-.65.6-1.77,1-.81,2.81ZM484.42,72.57c-2.29,1.21-3.62,3.4-5.38,5.15-3.52,3.49-7.45,6.57-11.18,9.85-6.11,5.38-12.19,10.79-18.67,16.52a57.69,57.69,0,0,1,16.54,8.18l-6-2.66-.33.64c.9.53,1.83,1,2.69,1.6,1.76,1.19,3.76,2.21,3,5a2.59,2.59,0,0,0,.76,2c1.49,1.48,3.14,2.79,4.89,4.32l.9-1.35,1,1.18.07-.09c-1.42,1.21-1.45,2.76-1.42,4.7l1.43-1.55-.07-.05c-.59,10.24-4.22,19-12,26-11.95,10.68-24.45,20.55-38.62,28.15a92.23,92.23,0,0,1-23.65,8.66c-4.44,1-8.66.66-11.94-3.18l1.69-1.5-6.56-2.69A12.87,12.87,0,0,1,389,176c4.69-1.35,8.95-4.22,13.41-6.42,1.7-.84,3.4-1.68,5.13-2.45s3.41-.93,4.32-2.8a2.49,2.49,0,0,1,1.89-1.13c2.49,0,3.81-1.75,5.44-3.15a27.64,27.64,0,0,1,4.91-3.6c1.57-.83,2.22-3.15,4.5-2.74,2.28-2.44,5.84-2.83,8.08-5.63a59.41,59.41,0,0,1,9.08-8.55c2-1.66,2.21-4,2.84-6.08.73-2.4.79-5,1.19-7.89-9-1.32-17.73-2.07-25.71,3.72a72,72,0,0,1-10.1,6.12c-3.14,1.58-5.92,1.72-8.28-2a18.42,18.42,0,0,0-2.38-2.59l-5.19,1.56,1.85-4.71-.62-.51-3.43,2.62c-.88-2.36,0-4.23,1.22-6.09s2.84-3.3,2.78-5.73a2,2,0,0,1,1.07-1.43c2.85-1,4.43-3.37,6.33-5.39,2.51-2.67,4.7-5.7,8.41-6.92a1.05,1.05,0,0,0,.56-.5c1.62-3.62,5.4-5.2,7.7-8.22,1.22-1.59,2.5-3.38,5.2-3.23.95,0,2-1.72,3-2.6,2.58-2.23,5.17-4.45,7.79-6.63,1.84-1.52,3.69-3,5.65-4.41,2.53-1.75,5.18-3.31,7.75-5,1.45-1,2.85-2,4.28-2.94,4.17-2.84,8.37-5.56,13.43-6.61,1.23-.25,2.4-.82,3.61-1.18,1.66-.49,3.33-.92,5-1.37l.36.82A12.79,12.79,0,0,0,478,63.84a2,2,0,0,0-.49,1.64,1.9,1.9,0,0,0,1.52.74,11,11,0,0,0,3.68-.41c1.58-.57,2.3.4,3.19,1.25,1.28,1.22.44,2.22-.24,3.31a5.21,5.21,0,0,0-.39,1.47Zm-33.31,59.37.8.1c1-1.73,2.07-3.46,0-5.62C451.62,128.26,451.36,130.1,451.11,131.94ZM256.64,146.87l-4.36-3.74c-.62,1.05-.93,1.68-1.34,2.24-.76,1-1.39,2.23-3,.85-.42-.36-1.65.23-3,.46l1.78,1.51c-.51,3.58-4.82,2.32-6.31,4.86,2.31,1.46,3.56-1.63,5.86-.67a25,25,0,0,1-11.93,3.84,6.44,6.44,0,0,0-.73,1.64,21.11,21.11,0,0,1-5.51,12.2,5.49,5.49,0,0,0-1,2.42c-1,4.19-2.12,8.37-2.86,12.62a47.26,47.26,0,0,0-.2,7.25c0,2,0,4.05,0,6.57,1.52-.15,2.73-.17,3.9-.41,9.55-1.95,18.05-6.34,26.11-11.61,3.3-2.16,6.32-4.75,9.54-7.07a34.5,34.5,0,0,1,3.75-2.07c.57,2.1,1.08,4,1.69,6.19l8.15-1.88c.21.48.46.79.39.91-1.55,2.58-2.67,5.65-4.8,7.63a157.09,157.09,0,0,1-21.12,16.55,55.74,55.74,0,0,1-11.56,5.27c-.91.33-1.72.91-2.6,1.33a21.33,21.33,0,0,1-14.85,1c-3.41-.93-6.38-3.58-9.48-5.57-2.62-1.68-5.15-3.49-7.68-5.31a12.84,12.84,0,0,1-1.75-1.93v2.75c-.53-.43-1-.61-1-.85a37.76,37.76,0,0,1-.41-13.66c1.27-6.88,1.81-13.92,4.4-20.51,6.13-15.58,13.91-30.17,25.94-42.1,6.35-6.3,12.6-12.72,19.32-18.61a68.12,68.12,0,0,1,25.29-14,39.49,39.49,0,0,1,6-1.21A11.15,11.15,0,0,1,293,97.18c.44.44.82,1,1.23,1.46,1.35,1.64,3.82,3.32,3.79,4.94a16.51,16.51,0,0,1-2.7,8.55c-2.93,4.28-6.67,8-10,12-5.88,7-13.34,12.34-20.32,18.15C262.52,144.34,259.28,145.46,256.64,146.87ZM288.39,113c3.08-1.77,4-4.84,5.31-8.49-3.42,3.33-4.51,5.19-5.24,8.56-1.12.26-2.22.53-2.09,2.28C288,115.26,288.2,114.13,288.39,113Zm-4.13-7.15c-2.94,1.39-5.38,2.42-7.7,3.67a20.22,20.22,0,0,0-5,3.32c-5.72,5.87-12.05,11.14-17.46,17.32a19.18,19.18,0,0,1-3,3.36,10.94,10.94,0,0,0-4.17,6.08C261.91,131.48,275.22,121.44,284.26,105.87ZM221.8,189.45l-1.14.07.6,8.12.54,0Zm60.4-67.4c-1.43-.49-2.31-1.11-2.8-.89-.95.44-1.52,1.38-.24,2.6Zm-9.65,10.4c1.74-.08,2.35-1.21,3.36-2.11C273.83,129.59,273.38,131,272.55,132.45Zm-7.08,5.69c2-.13,2-.13,1.8-2.38ZM683.63,61.7c1.87.4,3.68.22,4.86-1.39,1.53-2.08,3.87-2.93,5.83-4.34s2.93-.72,4,1a4,4,0,0,1-3.43,2.45,8.16,8.16,0,0,0-6,4.19c-1.14,1.94-3.26,3.37-5.13,4.79-1.45,1.09-2.77,1.91-2.86,4.09,0,.77-1.65,1.86-2.71,2.14-3.33.86-3.33.75-4,4.27a8.42,8.42,0,0,1-.83,2c-1.2,0-2.52-.39-3.16.1s-.72,1.89-1.05,2.91l-1.24-.17c-1.68,4.22-3.88,7.85-8.46,9.5.09,2.71-1.88,4.46-3.42,6.43-3.3,4.22-6.67,8.4-9.87,12.69a23.52,23.52,0,0,0-2.48,4.68c-.74,1.66-.73,3.8-3.19,4.2-.26,0-.37.88-.58,1.34-1.26,2.61-2.52,5.23-3.79,7.84-.83,1.7-1.64,3.41-2.51,5.09-.53,1-1.15,1.94-1.75,2.9a23.55,23.55,0,0,0-1.61,2.54c-1.94,4.36-3.8,8.76-5.72,13.13-.13.29-.56.44-1.14.88-.15-.77-.25-1.31-.36-1.88-.2.07-.5.08-.58.22-1.84,3.21-3.7,6.41-5.46,9.67-1.89,3.5-4.39,6.07-8.61,6.52a15.94,15.94,0,0,0-3.09,1c-3.72-2.85-3.43-6.42-2.66-10.33.9-4.57,2.15-9.12,2.9-13.63.79-4.77,2.84-9,3.82-13.65.25-1.17,1.46-2.13,2.28-3.24a14.36,14.36,0,0,1,.47-4q3-7.39,6.31-14.63c2.82-6.11,5.69-12.19,8.76-18.18,3.29-6.4,7-12.6,10.18-19,.93-1.87,2.81-2.21,3.83-3.76l-1.37.27c.32-4.43,3.58-7.26,5.64-11.09l1.4,1.9c1.12-1.81,2.17-3.49,3.21-5.19.42-.68.84-1.4-.49-1.54.29-.69.39-1.64.9-2,1-.75,2.21-1.18,3.07-2.35l-1.58.23c-.12-.2-.39-.5-.34-.58,2.54-3.85,5.11-7.69,7.72-11.59l1.27,1c.22-.08.54-.11.65-.27,3.16-4.61,6.29-9.24,9.44-13.85a32.06,32.06,0,0,1,2.09-2.68c3.9-4.69,7.66-9.52,11.8-14,2-2.12,4.7-3.48,7-5.3A20.28,20.28,0,0,0,694.07,0l1.13,2.55a8.28,8.28,0,0,1,2-.26c.67,0,1.85.33,1.89.63.24,1.84.71,3.88.16,5.55a47.07,47.07,0,0,1-3.85,7.8c-1.12,2.05-2.62,3.89-3.26,6.21a3,3,0,0,1-1.31,1.82c-3.14,1.48-4.53,4.39-5.77,7.25s-4.27,5-4.72,8.49c-.05.35-1.16.56-2,.91.91,2.72.69,5-2.85,5.48-1.71,2.6-4.54,4.45-4.5,8.18a8.39,8.39,0,0,1-3.3,6.54c-3.36,2.73-3.4,2.67-1.29,6.45a8.62,8.62,0,0,1-.92,1.56c-2.13,2.3-4.44,4.45-6.4,6.89-.67.84-.53,2.33-.76,3.53l.73.41a18.49,18.49,0,0,0,1.76-1.89c1-1.43,1.84-3,3-4.38,1.37-1.57,2.51-1.42,4.35.09-.45,1.23-.9,2.48-1.61,4.44,5.37-1.3,7.22-4.7,8.93-8.87H672l4.35-4,.51.36c-.25,1.09-.49,2.18-.86,3.85,2.71-1.82,4.8-3.14,6.79-4.59,1.1-.81,2.44-1.75.89-3.36ZM668.9,33.48l-.57-.52-3,4.24.71.48ZM695.71,3.83l-.91-.51c-.48.82-.95,1.64-1.79,3.07C695.28,5.89,695.8,5.08,695.71,3.83ZM661.79,43.06l.66.21L664.31,40l-.63-.34ZM652.5,58.31l-.67-.57L650.7,59.6l.53.33Zm19.63-29.67-.47-.44L670.45,30l.48.3ZM652.87,91.87l-.68,0-.27,1.77,1.07.07Zm142.52,5.67c-.22-1-.41-1.73-.59-2.46l5.93-2.51,3.19,1.72c-1.73,2.73-2.76,5.63-6.48,5.85-.46,0-2.29.77-.71,2.15.16.14-.19,1.2-.56,1.54-6,5.55-10.72,12.3-17.08,17.51-2.42,2-4.27,4.7-6.31,7.13s-4.26,4.82-7.46,5.74a9.77,9.77,0,0,1-4.48.49c-5-1-10-2.37-15.05-3.6-.09.25-.25.67-.48,1.27-2.16-3-4.18-5.77-6.36-8.78.13,1.73.24,3.3.4,5.49a8.63,8.63,0,0,1-2-5.21,106.16,106.16,0,0,1,1.21-22c1-5.57,3.4-10.44,5.64-15.45a4.24,4.24,0,0,1,1-1.6,5.24,5.24,0,0,0,2.27-4.92,3,3,0,0,1,2.31-3.45A3.23,3.23,0,0,0,751.29,75q3.75-5.76,7.4-11.59a7,7,0,0,0,.83-2.1,8.82,8.82,0,0,1,4.21-5.67c3.43-2.09,5.9-5.1,8.22-8.28,1.56-2.15,2.76-5.1,4.89-6.19,3.16-1.6,5.23-4.27,7.92-6.27,3.81-2.82,7.16-6.28,10.71-9.45a9.21,9.21,0,0,1,2-1.57c1.93-.94,4-1.55,5.86-2.62,3.64-2.13,7.29-3.79,11.69-3.59,3,.14,5.84.49,8.28,2.33,3.5,2.64,6.67,5.62,8,10,.87,2.79,1.59,5.64,2.25,8.49,1,4.49-1.67,7.66-3.62,11.17l-4.53-3,.73-.36c-1,0-2.25.29-2.87-.2a3.07,3.07,0,0,1-.51-2.71c.73-2.15,1.79-4.19,2.82-6.51l-3.19-8a31.68,31.68,0,0,0-3.57,1.58,59.76,59.76,0,0,0-15.53,12.93c-4.23,5.12-8.86,9.93-12.79,15.27-5.75,7.8-11.26,15.8-16.46,24-4.71,7.41-9.14,15-13.19,22.84-2.82,5.44-3.7,11.51-3.35,18.26,8-5.39,14.1-12,21.07-17.87l-1,2.16c1.41,1.64,2.58.56,3.16-.62a3.67,3.67,0,0,1,2.66-2.29c2.1-.51,2.61-3,4.56-3.94,1.4-.7,2.3-2.45,4.16-1l.85-1.48c-1.18-.07-1.27-.7-.66-1.5.78-1,1.21,0,1.8.34C794.36,97.66,794.78,97.54,795.39,97.54Zm31.89-56.72c2.81-.6,3.18-3.9.93-8.22C827.92,35.13,827.6,38,827.28,40.82ZM559.38,177.54q-6.71,3.17-13.42,6.33c-.46.21-1,.28-1.43.53-5.16,2.91-10.64,3.07-16.22,1.77a83.34,83.34,0,0,1-8.36-2.62c-.53-.18-1-.81-1.3-1.32a48.54,48.54,0,0,1-7.58-18.57c-2.57-12.81.13-24.89,5.31-36.49a197.5,197.5,0,0,1,9.89-19c2.86-4.93,6.31-9.54,9.59-14.22.53-.75,1.61-1.1,2.37-1.71a8.22,8.22,0,0,0,2.06-2c.62-1.07-.92-2.91,1.56-3.52,1.18-.29,1.45-2.25,3.06-3,1.24-.54,1.72-2.64,2.79-3.81a120.23,120.23,0,0,1,18-15.45c2.36-1.72,5.07-3.12,7.57-4.79a8.3,8.3,0,0,1,6.44-1.43c1.44.28,4.38-1.5,4.81-2.91.69-2.24,2.15-2.2,3.3-1.92,3.3.82,6.3-.32,9.37-.91,4-.77,5.83,0,8,3.82-.17.16-.32.41-.52.47-1.9.6-3.82,1.17-6.38,1.94l1.61-2.56c-2.24,1.21-5.28-.1-5.4,3.58,0,.16-.62.39-1,.46-2.8.54-4.72,2.51-6.65,4.31-4.76,4.44-9.39,9-14.06,13.57a11.59,11.59,0,0,0-1.75,2c-3.42,5.44-8.34,9.64-12.15,14.72-4.82,6.42-9.11,13.23-13.58,19.9a76.4,76.4,0,0,0-4.42,7.15c-3.34,6.44-7.11,12.74-9.6,19.51-1.94,5.29-2.54,11.16-3.15,16.84a31.39,31.39,0,0,0,2.3,15c.51,1.3.86,2.65,1.3,4a14.3,14.3,0,0,0,10.72-.22,43,43,0,0,0,4.3-1.57,9,9,0,0,0,3.06-2.63,16.71,16.71,0,0,1,6.07-5.29c.2.87.36,1.59.58,2.58a33.45,33.45,0,0,0,3.66-3.09,3.68,3.68,0,0,0,1-2.63c-.31-1.66.42-2.64,1.44-3.67,1.78-1.8,3.52-3.65,5.28-5.48l.71.44-1.73,4,10.22-9.71,4.54,3.31c-2.78,2.12-.38,5.43-2.57,7.7-2,2.07-3.4,4.74-5.39,6.84a39.7,39.7,0,0,1-6.67,5.67,73.17,73.17,0,0,1-7.7,4.05,22.91,22.91,0,0,1,2.65-2.48,14.13,14.13,0,0,0,4.76-4.69L557,177Zm-36.16-.3-.49.33c.45.69.91,1.38,1.36,2.08l.52-.34Zm42.19-16-.66-.49-.78,1.47.44.27ZM862.58,281.06l5.82-5.32c-.31-1.16-.64-2.34-1-3.79,1.34-.69,1.14-2.95,3.51-3.26,1.26-.16.23-3.3,3.2-3.59-1.86,4.43-3.55,8.41-5.2,12.41-.34.82-.94,1.79-.75,2.51.68,2.54-.93,4-2.14,5.75a64.05,64.05,0,0,0-4.42,7.94c-1.49,3.08-3.42,6.19-3.89,9.46s-2.43,5.23-3.73,7.77a21.88,21.88,0,0,0-1,2.45,76.74,76.74,0,0,1-2.84,7.83c-3.2,6.52-6.67,12.89-8.71,19.92-1.77,6.1-3.79,12.13-5.73,18.18-.19.58-.74,1-.95,1.62-.7,1.91-2,3.45-1.93,5.85.08,2-1.08,4.19-2.16,6-2.25,3.84-3.07,8.17-4.49,12.28a19.46,19.46,0,0,1-5.33,7.69l-3.71-1.56c-.13.83-.27,1.66-.44,2.71l-5.73.25c.51-1.73.93-3.13,1.42-4.8l-2.09-1.21-1.2,1.89c-.39-.15-.72-.16-.83-.32a9.5,9.5,0,0,1-1.53-6.76c.67-7.39,3-14.42,4.14-21.66s3.84-13.62,5.62-20.46a14.07,14.07,0,0,0,.2-2.26l-.08.08c2.22-3.52,2-4.77,2.23-8.55.16-2.56,2.06-5,3.18-7.5l-.07-.09-1.17,5.28.46.19,3.09-8L825,319c2.86-5.8,5.46-11.74,8.67-17.34,2.91-5.09,5.71-10.2,8.22-15.5,4.35-9.21,10.06-17.68,15-26.58,3.24-5.86,7.32-10.95,11.23-16.25a8.91,8.91,0,0,1,2-1.52c2.84,3.66,2.9,5.24.52,8.57-.44.62-1.22,1.35-1.14,1.93.44,2.94-1.75,5-2.36,7.53l.06-.08-.77-.49c-1,2.49-2,5-3.1,7.91l4.18.92c-.35,2.35-1.27,4.08-4.34,4,1.61,2.1.7,3.93.14,5.81a27.18,27.18,0,0,0-.6,3.24c-.95.45-1.47,1.1-.67,2.28Zm-7.19,15.06c1-1.36,1.49-2.76,2.47-3.31,1.6-.87,1.73-.64,1.29-2.1-.22-.74-.46-1.47-1-3.08Zm-4.12,7.64.82.35,1.69-4.21-.47-.21ZM1096.73,23.21c1.73.28,2.49-1.06,3.34-2.12,4.68-5.84,10.91-9.71,17.18-13.51,1.68-1,3.47-2.22,5.73-1.39a2.16,2.16,0,0,0,1.66-.45c2.07-1.5,4-.67,6.62.07l-7.75,3.49c3.38.45,6.82-2.27,10,1.09-11,3.92-19.15,11.1-25.71,20.28-1,1.45-2.17,2.83-3.1,4.35a25.51,25.51,0,0,0-1.49,3.37c-1.52-.68-2,.32-2.28,1.48a20.14,20.14,0,0,0-.27,2.58c-.41.27-1.09.46-1.2.82-.65,2.17-1.49,4-4.19,4.1a1.82,1.82,0,0,0-1.16.92c-1.17,2.1-3.29,4.3-3.17,6.36.22,3.7-2.13,6-3.27,8.92s-2.73,5.68-4.18,8.65l1.77,3.2a11.72,11.72,0,0,0-6.59,7.65c-.53,1.84-2.63,3-2.5,5.29a8.63,8.63,0,0,1-1.18.24l-.17-2a73.9,73.9,0,0,0-4.87,16c-.4,1.87-.32,3.88-.94,5.65-1.28,3.69.28,6.39,2.6,8.92.5.54.92.7.71,1.76-.37,1.82.5,2.46,2.24,2.35,2.16-.14,4.33,0,6.25-1.46.66-.51,1.89-.28,3.61-.47-2.36,2.85-4.65,4-7.58,4-1.62,0-3.25.36-4.85.26a38.45,38.45,0,0,1-5.21-.84c-5.64-1.11-8.7-4.79-10.16-10.13a14.31,14.31,0,0,0-1.63-3.45,22.55,22.55,0,0,1-3-13.92,35.73,35.73,0,0,0,.34-4.93c-.12-2,0-3.66,2.5-3.75-.55-1.76-1-3.16-1.44-4.56l.56-.23.94,1.07c2.09-4.41,4.21-8.8,6.2-13.25.33-.73,1.8-1.82-.11-2.68a5.88,5.88,0,0,1,.68-2.4c.75-1.32,1.71-2.52,2.59-3.78l4.07-5.31,1.51-2.12q1.18-2.06,2.35-4.11c2.06-3.11,4-6.33,6.22-9.3,3-4,7.46-6.66,10.19-11,.29-.46,1.42-.38,2.17-.56-.13.51-.25,1-.38,1.53C1092.8,27.85,1095.92,26.56,1096.73,23.21Zm-41.2,78.1.89.11c.17-2.7.27-5.41.55-8.1a56.07,56.07,0,0,1,1.17-7.88c.66-2.65,1.78-5.18,2.7-7.76C1055.57,84.82,1055.39,93,1055.53,101.31ZM1062.24,75c.7-1.51,1.1-2.38,1.66-3.56l-2.59.84Zm22.46-38.31-.8-.48-1.27,2.18a1.38,1.38,0,0,0,1.42-.51A8,8,0,0,0,1084.7,36.66ZM1075,83.6c2,.05,2.08-.89,1.88-2.1C1076.32,82.07,1075.81,82.65,1075,83.6ZM703.87,133.54c-.38.77-.63,2.12-1.16,2.23-3.65.82-4.36,4.3-6.23,6.67-1.39,1.76-2.24,3.94-3.52,5.8a8.93,8.93,0,0,1-2.3,1.68c.21-1.32.43-2.64.64-4,1.25-.24,1.77-1,1.27-2.44L691.38,146l-2.28,4.53c-.59.89-1.19,1.78-1.78,2.68l.7.36c.34-1,.68-2.08,1-3.11l1.71-.66c-.78,4-2.44,7.32-6.57,8.83-.7.26-1.29,1-2,1.07-1.68.19-3.39.12-5.08.15-.16-2.1-2.82-3.2-2.1-5.74,1.09-3.91,1.5-8,4.06-11.43.3-.39.66-1,.53-1.38-.72-1.91.9-2.7,1.68-3.91.4-.62,1.53-1.39-.21-1.94a4.1,4.1,0,0,1,.22-2.42c2-4,4.12-7.9,6.1-11.89q4.32-8.7,8.47-17.48c.81-1.71,1.43-3.46,4.14-2.93-1.11-3.12-.11-5.25,2.06-7,1.51-1.24,2-2.87,2.51-4.83.78-3,2.74-5.68,4.21-8.49a7,7,0,0,0,1-1.91c.62-4,2.9-7.25,4.58-10.78a62.12,62.12,0,0,0,3.41-7.66A32.37,32.37,0,0,1,721.27,53c1.18-1.94,1.24-4.56,1.87-7.18l3.1-.27,1-2c2.75,1.47,2.13,4.15,2.41,6.51,2.55-1.27,2.55-1.27,2.38-5.79a12.14,12.14,0,0,1,1.46,7.23c-.14,3.85-.79,7.67-1.28,11.48-.61,4.73-3.12,8.31-4.83,12.37-.39.93-1.05,1.55-.4,2.76.29.53-.67,1.69-1,2.6-.16.52-.37,1.41-.12,1.63.86.74,1.29.06,1.6-.74.06-.18.35-.27.84-.62-.41,1.88.11,3.8-2.46,4.23a2.46,2.46,0,0,0-1.49,1.47c-1.08,3-3.76,5.68-2,9.44a2.5,2.5,0,0,1-2.08,3c-1.71.3-2.69,1.56-2.63,3.63,0,1.78-.18,3.67-2.19,4.73a2.18,2.18,0,0,0-.85,1.93c1,2,0,3.77-.73,5.42Q710.33,123,706.4,131c-.51,1-1.71,1.74-2.6,2.6-.39-.86-1-1.11-1.71-.42-.17.17-.07.62-.1.94l1.57-.4C703.67,133.72,703.76,133.61,703.87,133.54Zm25.35-79.72c-.11,1.92-.19,3.3-.29,4.89C731.75,56.92,731.75,56.84,729.22,53.82ZM710,85.29l.7.29,1.89-4.45-.8-.33ZM912.84,199.71a30.12,30.12,0,0,1,1.9-3.29c.64-1.14,1.21-2.33,2.06-4-1.1.27-1.56.24-1.75.45-1.8,2-3.57,4-5.31,6-3.56,4.11-6.86,8.49-10.73,12.28-2.79,2.74-1.84,6.11-3.22,9l.75.59,5.3-3.15c2.27,1.29,4,2.52,2.57,5,1.26,1,1.91.56,2.67-.41,5.27-6.72,10.72-13.31,15.87-20.12,2.64-3.49,2.31-5.68-1.77-9.05a28.29,28.29,0,0,0-7.32,8.88C913.31,200.8,912.68,200.09,912.84,199.71ZM324.74,324.44c-1.53,4.57-2.66,9.3-4.56,13.71-3.63,8.45-5.15,17.44-7.23,26.28s-3.46,17.63-5.55,26.36c-1.33,5.55-1.42,11.33-3.5,16.74a22.92,22.92,0,0,0-.9,6c-.27,2.9.1,6-.73,8.68-2.09,6.86-2.45,14-3.78,21-1.25,6.59-1.22,13.41-2,20.09a21.18,21.18,0,0,0,1,10.6,16.55,16.55,0,0,0,.62-3c0-2.16-.55-4.34-.31-6.46.95-8.6,1.95-17.2,3.24-25.76,1.17-7.78,2.68-15.51,4.12-23.25,2.52-13.5,5.32-26.95,7.56-40.5,1.23-7.43,3.62-14.52,5.35-21.79,2.51-10.55,5.56-20.91,9-31.18.09-.26-.18-.64-.51-1.67C325.79,322,325.16,323.19,324.74,324.44ZM833,374.33c1.27-1.48,2.32-2.28,2.79-3.33,1.11-2.55,2-5.2,2.9-7.84,1.65-4.94,3.21-9.91,4.81-14.87.46-1.46.83-3,1.37-4.39,1.75-4.64,3.31-9.38,5.43-13.85,2.68-5.63,5.89-11,8.78-16.53a18.68,18.68,0,0,0,1.51-4.33,7.73,7.73,0,0,0-.23-2.4C848.22,327.91,838.44,349.79,833,374.33ZM942,76.15c-2.38,5.44-4.82,10.85-7.22,16.28-.86,1.94-1.63,3.89-.77,6l-.07-.06c2.32-4.54,4.67-9.06,6.93-13.63.83-1.69,1-4.35,2.28-5.05,2-1.1,2.11-2.64,2.72-4.32,1.49-4.15,3.17-8.24,4.87-12.31,1.13-2.69,2.46-5.3,3.64-8a19.61,19.61,0,0,0,.66-3c-5.09,6.32-7,13.51-11.24,19.35-.25.46-.51.92-.77,1.38A32.32,32.32,0,0,1,942,76.15ZM104.88,358.63c-1.94,1.72-4.2,3-6.79,2.75-3.32-.37-5.71,1-7.88,3.17,1-.52,1.81-1.72,3.22-.25l-3.23.17a7.79,7.79,0,0,1-1.73,1.67c-1.71.84-3.5,1.51-5.28,2.2-2,.77-3.66,2.24-6,2-.59-.06-2.2.25-1.43,2,.16.37-1,1.54-1.69,2a17.76,17.76,0,0,1-3.23,1.2c2.31,1,4-.08,5.74-1,3.14-1.65,6.19-3.59,9.51-4.7,3.71-1.25,7.33-2.63,10.93-4.15,2.88-1.22,5.07-3.83,8.5-4,.69,0,1.33-1.16,2.53-2.28l-3.21-.72ZM1097,63.81a2.73,2.73,0,0,1-.7,2.3,45.47,45.47,0,0,1-4.88,3.6c-1.6,1.08-3.6,1.74-4.11,4,2.1,1,3.42-.27,4.69-1.22,5.49-4.09,11-8.13,16.32-12.46,2.16-1.77,4.47-3.64,5.41-6.7-1.23.22-2.69.45-3.25,1.28-2.41,3.53-5.91,5.49-9.56,7.31a1.82,1.82,0,0,1-.74,0c-.2-.55-.41-1.1-.69-1.85C1097.73,60.92,1096.35,61.56,1097,63.81ZM721.5,44.14c-.43-.57-1.79-1.11-2.26-.84-4,2.41-9.37,2.12-12.67,6.11-.58.7-1.77.86-2.62,1.37-1,.6-2,1.3-2.92,2l.4,1,4.82-1.13.69,2.54a71.61,71.61,0,0,0,5.95-4.07c2.09-1.74,4-3.74,5.85-5.56.8.46,1.11.67,1.44.82a14.22,14.22,0,0,0,1.41.43C721.59,45.69,721.89,44.64,721.5,44.14ZM455.27,18.91c-3.87-1.09-4.67,1.9-5.7,4.41-.76,1.84-.75,4.23-2,5.59-6.05,6.82-5.63,15.17-6.56,23.42,14.13-2.28,22.69-12.27,21.72-25.37,4.33.14,9.16.76,10.41-6.26ZM396,95.08a42.78,42.78,0,0,0,5.06-1.19c1.87-.67,3.66-2.39,5.45-2.33,3.15.09,5.58-1.59,8.39-2.26a5.33,5.33,0,0,0,2.82-1.66c1.47-2,3-1.33,4.16-.56l3.43-4a7.57,7.57,0,0,0-3.53.92c-1.39.6-2.79,1.18-4.2,1.71-1.78.67-3.58,1.28-5.37,1.93-3,1.06-5.88,2.68-8.94,3s-5,2.29-7.56,3.42ZM990.88,23.23a20.8,20.8,0,0,1,2.63-2,5.25,5.25,0,0,0,3.14-5.2C995.13,17.22,994,18,993,18.9s-1.76,2.19-2.76,3.17a124.32,124.32,0,0,0-13.54,15.27c-.92,1.24-1.27,2.28-.2,4.17,3-3.64,5.8-6.9,8.45-10.27,1.1-1.41,2.85-2.59,2.42-4.85,0-.2.76-.55,1.17-.83ZM110.09,474.43c-1.61,2.76-2.19,3-4.44,1.64l.08-.06-2.79,5c1.41,1,1.44,1,2.9.08,6.4-4.07,13.51-7.16,18.41-13.31l-.26-.34-5.35,1.75-.54-.07C116.48,472.47,113.61,473.93,110.09,474.43Zm768.29-277a11.86,11.86,0,0,0-2.81-.28q-9.24,1.33-18.45,2.83c-1.79.29-3.55.78-6,1.34a7.09,7.09,0,0,0,5.4,1.16c6.11-.9,12.23-1.73,18.32-2.74a16,16,0,0,0,3.65-1.6C878.44,197.87,878.41,197.63,878.38,197.39Zm-443.31,113c-3.75.56-6.37,3.18-8.75,5.63-5.64,5.82-11.58,11.44-15.83,19,.91-.16,1.73-.05,2.1-.41,1.08-1.07,2-2.32,3-3.5,5.79-6.93,11-14.39,18.62-19.62.38-.26.56-.81.84-1.22Zm-254,115.94a12.76,12.76,0,0,0,2.22-1.47c4.09-4.16,8.12-8.39,12.19-12.57,1.34-1.38.77-2.77.37-4.9-1.41,1.48-2.39,2.44-3.29,3.47-2.69,3-5.1,6.35-8.09,9.05-2.07,1.87-2.71,4.08-3.33,6.49ZM400.39,354,409,338.13c-1.27-.4-1.33-.45-2,.33a49.66,49.66,0,0,0-8.87,13.67,11.62,11.62,0,0,0-.4,2.54c-.1.55-.21,1.11-.31,1.66l1.15.15Zm-265.17,4.48c1.23-1.31,3-2.14,4.59-3.23-4.11-.18-5.62.14-8.27,1.36-.5.24-1.27-.11-2.59-.27,2.28,3,.41,7,4.28,8.58l-1.06-1.36C133.31,361.59,134,359.78,135.22,358.47ZM128.7,463.69l-1,1.51,1,.93,6.13-3.43,2.14-1.79c2.28-1.78,4.58-3.55,6.82-5.37.89-.72,2.32-1.08,2.21-3.34l-10.35,7.65-1.34-1.41-2.59,2.32C131.12,462.12,130.51,463.54,128.7,463.69Zm-85.29,49.9c-5.3,2.13-10.56,4.35-15.9,6.37-2.77,1-5.67,1.76-8.7,2.68.39.35.57.64.72.63,7.92-.94,15.13-4,22.17-7.51.73-.37,1.11-1.47,1.65-2.23ZM207,398.53l-5-.58-4,7.37c1.91-.86,3.11-1.77,4.38-1.87s2.5.34,3.09-1.26c.46-1.25,1-2.5,1.43-3.74ZM891,71.07l-2.2,5.16,0-.07a15.22,15.22,0,0,0,2.06-2c2.24-3.21,4.41-6.47,6.56-9.74.76-1.15,1.4-2.37,2.1-3.55-1.5-.66-2.32.2-3.11,1.29-1.18,1.63-2.41,3.21-3.62,4.81Zm-708.32,195A70.26,70.26,0,0,0,164,272.89,96,96,0,0,0,182.63,266.08ZM826.19,388.4a7.22,7.22,0,0,0,5.06-5.24c.62-2,2.42-4,.53-6.86Zm202.13-156.69c5.21.21,3.64-5.28,6.27-7.26C1028.44,227.41,1028.35,227,1028.32,231.71ZM929.62,191c2.83,1.76,5.87.84,8.79.92,1.12,0,2.65.21,3.44-2.13A47.09,47.09,0,0,0,929.62,191ZM166.53,96.53l-2.84,5.88c1.65-1.27,2.73-2.1,4-3l.51,2.38c1.2-1.89,3.23-3,2.76-5.5ZM757.92,219.2c5.38-.83,10.3-1.45,15-3.31C769.79,215.17,760.25,217.36,757.92,219.2ZM700.55,355.5a3.67,3.67,0,0,0,1.12-.12c2.44-1.1,5.45-1.62,5.09-5.46-.06-.65,1-1.37,1.48-2.13a8,8,0,0,0,.53-1.78l-.66-.36q-3.75,5-7.48,9.91Zm82.29-141.65c.29-.34,1.21-.21,1.83-.19,2.63.12,2.7.11,5.55-2.25-5.15,1.26-9.8,1.32-13.78,3.91C778.49,214.41,781.07,215.91,782.84,213.85ZM51.9,509.8c4.46.92,7.31-1.68,10-4.57l0-.86L52,509.87ZM867.14,259.74c.62.79,1.35,1.49.55,2.66a2.32,2.32,0,0,0,.54,3.45c2.09-2.56,2.52-5.36,3.1-8.62l-4.26,2.59ZM931,28.6,927.83,31l.08,0-1.22,1.93.43.38q5.49-3.8,11-7.6l-.34-.58-6.81,3.6ZM483.6,75.53c-.78.46-1.09,1.7-1.76,2.82,2.49,0,2.81-1.72,3.62-2.89s1.55-2.28,2.76-4.07l-3,.45-.81.73C484.51,73.65,485,74.68,483.6,75.53Zm211.5,235a17.89,17.89,0,0,1,1.53-3.28c1.73-2.32,2.68-5.54,2-7.9-1.35.86-2.45,1.59-2.07,3.54a4.66,4.66,0,0,1-1.18,4.5c-.54.56-.16,2-.2,3.07ZM327.84,319.2l3.57-10.34-.71-.28c-1.4,3.36-4.58,6-3.82,10.24ZM646.1,275.89c1.28-2.33,3.28-4.42,2.95-7.82-2.7,2-3.24,5-5.11,7.85C645,275.92,646,276.12,646.1,275.89ZM960.19,40.54c1.16-2.13,2.33-4.25,3.47-6.34l-1.85-2.58-2.42,8.57Zm18.53,52.78,2.17-.25-.1.06c1.45-1,2.91-1.92,4.34-2.91s3-2.17,4.51-3.25l-.53-.75-10.8,6.63C978.44,93,978.58,93.16,978.72,93.32ZM212.5,486l-.06,1.36c2.18-.24,3.78,1.7,5.92,1.6a3.33,3.33,0,0,0,1-.4c-1-2.14-2.37-2.61-6.91-2.49ZM52,509.87l-8.58,3.72-.06-.06a10.63,10.63,0,0,0,8.07-2.22c.34-.29.33-1,.48-1.51Zm991.67-297.55c-3-1.54-3-1.54-4.92,4.62C1041.89,216.42,1042.19,213.85,1043.66,212.32ZM145,282c2.79-1.41,5.55-2.85,8.32-4.29l-.43-.84c-2.94,1.76-6.35,2.56-8.91,5.19A2.63,2.63,0,0,0,145,282Zm465.06,72.11c-.53.63-1.08,1.26-1.61,1.91s-1,1.29-1.53,1.94l.06-.1q-1.23,4.17-2.47,8.34l.23.25Q607.4,360.19,610,354ZM934,98.48c-1.93,1.39-2.67,3.71-4.19,5.43-.71.81-.58,2,.45,3.25,1.78-3,3.39-5.55,3.67-8.74ZM68.64,378.07c-2-.25-5.77,1.46-6.67,3C64.88,381.42,66.58,379.8,68.64,378.07ZM629.52,230.13c2.49,0,5,1.09,7.41-.61C634.4,229.14,631.85,228.43,629.52,230.13ZM389,57.09l-.1-.08c2.87-.4,3.87-1.54,5-5.92l-1.83.55-1.22,2.27C390.21,55,389.59,56,389,57.09Zm741.44-27c2.18-2.14,2.88-4.93,3-8l-3.61,7.54Zm-84.76,176,.68.53c2.37-.93,3.73-2.61,3.85-6.06ZM970.57,46.19l2.24-2.53c-.21-.74-.41-1.48-.75-2.71-1.2,1.91-2.15,3.26-2.92,4.7-.45.84-.17,1.49,1,1.38C970.26,46.75,970.41,46.47,970.57,46.19ZM683.63,61.7l3.74-3.64c-4.52.84-4.52.84-5.14,3.63l-.09-.07h1.58Zm344.2,235.57c3.18-.41,3.18-3.49,4.81-4.9C1030.6,293.39,1028.62,294.51,1027.83,297.27Zm-304.23-71a30.25,30.25,0,0,1,3.43-.12c1.35.09,2.4-.09,3-2.17l-6.45,1.2Zm-324-186.62c-3,.08-3.28.33-3.66,3.82A5.31,5.31,0,0,0,399.61,39.69Zm408.67,169.4c-1.95-1.34-3.35-1.16-4.86.66C805.45,210.9,806.79,210.35,808.28,209.09Zm-650.41-21.6c-2.88,4-2.88,4-1.65,5.84,2-2.6,2.27-3.63,1.58-5.91ZM662.53,312.22l-4.86,3.66.52.69a10.79,10.79,0,0,0,4.92-3.56C662.91,312.75,662.72,312.48,662.53,312.22Zm34.41,47.4c4-.33,4.7-1.14,3.61-4.12l.08.06-4,3.67ZM181.12,426.35c-3.14-.29-4.05,2.5-5.81,4.13,2.71-.32,4-2.58,5.74-4.2Zm1.23-288.15q1.62-3.18,3.23-6.36l-.8-.38q-1.47,3.25-2.95,6.51ZM1049.22,77l2.91.55-1.23-3.32c-1.84.47-2.49,1.28-1.62,2.83ZM154.86,352.6l-5.71,1C152.16,354.77,152.55,354.7,154.86,352.6ZM157,444.55c-3.2,1.07-4.08,1.83-4.88,4.3,1.89-1.3,4.43-1.61,4.81-4.38Zm914.18-341.73c1.62-1.83,1.63-4.23,2.23-6.42.11-.38-.34-.92-.54-1.38l-.67.07-1,7.8ZM65.27,503.62c-1.7-1.35-2.48-.14-3.35.75l0,.86C63.92,506.32,64.45,504.83,65.27,503.62ZM157,444.48c3.28-.85,4.58-1.85,5.28-4.76L157,444.55Zm53.91-399c2-.73,2.24-2.34,2.2-4.38-1.46,1.33-3.72,2-2.13,4.44Zm655.27-5.68c-1.25,1.37-2.14,2.33-3.13,3.4C866,43.23,866,43.23,866.14,39.83ZM867.3,292a9.8,9.8,0,0,0-2.19,1.62c-.17.21.6,1.16,1.3,2.41l1.36-3.51ZM883.37,84.62a10.06,10.06,0,0,0,2-3.11,1.3,1.3,0,0,0-1-2c-.06.13-.12.25-.17.38Zm128.16,231.81-1.56,4.22.48.25,3.6-5.33-2.61.95Zm-255.64-98-5,1.34C754.66,220.9,754.66,220.9,755.89,218.47Zm-108.17,16c-1.53-2-2.54-2-3.37.43ZM112.63,364.94c1-.25,2.2-.3,1.91-2.64L112,364ZM395,359.2c1.86-.06,1.62-1.92,2.45-2.87.1-.55.21-1.11.31-1.66C395.3,355.26,395.56,357.49,395,359.2Zm648.9-148.55,2.51-2.26C1043.82,208,1043.82,208,1043.87,210.65ZM956.29,46.73l-1.73,3.45C957.16,49.29,957.16,49.29,956.29,46.73Zm111,8.67c-1,1.81-2.09,3.61-3.13,5.41l4.07-5.31ZM676.71,234l4.64-.63C678.63,232.55,678.63,232.55,676.71,234ZM50.38,390.18l3.1-1.5c-.67-.9-1.16-1.56-1.95-2.64ZM1133.75,16.79v4.26C1135.51,17.9,1135.51,17.9,1133.75,16.79ZM970,49.7l.79.14c-.11-1.35,2.62-1.65.94-3.58l-1.16-.06-.45.83ZM126.31,465.27,124,467.44l.26.34,4.5-1.65-1-.93ZM804.55,91.2c-.5-.78-1-1.55-1.68-2.63l-1.82,3,3.47-.37Zm248.21,107.28,1.92-3-.76-.46-1.89,3Zm-78.88-155-1.07.18-2.25,2.54,1.16.06C972.4,45.32,974.55,45.56,973.88,43.48Zm-181.44,169,3.79-1.37C794.9,211.07,793.11,210.12,792.44,212.44ZM670.3,23.52c.53-1.13,2-1.75,1.41-4.18-1,1.52-1.72,2.55-2.42,3.58Zm71.84,198.54c2.11-.07,4.25,0,5.89-1.9l-5.83,2Zm329.13-119.17c-.5,1.57-1.43,3.08-.55,5.56,1.14-2.31.61-4,.49-5.63C1071.21,102.82,1071.26,102.89,1071.27,102.89ZM822,322.64l-.07-.09,2.38-2.49L825,319C822.46,319,822.37,319.14,822,322.64Zm-176.11,3.8-2,3.14,3-2.14Zm324.94,7c.23-1.46.46-2.92.75-4.72-2.29,2.94-2.29,2.94-.67,4.65ZM921.92,31.48c.35.29.81.89,1,.81,1.06-.38,1.67-1.11.86-2.85Zm-734,391.61,2.77-3-.5-.44c-.91,1-1.83,2.05-2.74,3.07ZM700,230.35l3.07-.3-.14-1.09-3.06.44ZM174.91,426.83l-2,2.67.37.33,3.91-2.78-2.34-.14Zm641.64-88.14.18-3.19-.6-.06c-.34,1.05-.68,2.09-1.07,3.33l1.57-.16ZM1126.61,34.76c-.45,1-.91,1.94-1.37,2.92,1.83-.22,2.51-1.08,2.26-2.49ZM927.84,28.58l3.14,0,0,.07-2.25-2.38c-.34,1-.57,1.68-.79,2.34Zm95.65,33.73c.3-.78.6-1.57.91-2.35l-.47-.31-2.45,3.18,2.12-.64ZM988.9,27.07c.89-1.45,3.21-1.58,2-3.84l-2.36,2.33ZM214.06,55.35c-.05.83-.1,1.65-.19,3.17l2-1.66L214,55.42ZM166.8,170.27l-1.37,3.13C167.35,172.56,167.49,171.6,166.8,170.27ZM1067.34,55.4l.94.1,1.51-2.12c0-.65.09-1.3.14-2ZM159.43,181.32c.25.81.51,1.63.81,2.59,2.1-2.08.85-2.41-.89-2.51Zm536.21-130c-1.1.89-1.87,1.51-2.65,2.12C695.07,53.41,695.07,53.41,695.64,51.27Zm191.1,145.09-2.39-.27c-.05.2-.1.41-.14.62l2.27.79C886.57,197.12,886.65,196.74,886.74,196.36Zm-27-148.47A12.42,12.42,0,0,0,861,46.65a12.34,12.34,0,0,0,.88-2A16.2,16.2,0,0,0,860,46a13,13,0,0,0-1,1.44Zm29,28.34-3.15,1.56,0-.09c1.46,1.85,1.74,1.85,2.62-.09a12.07,12.07,0,0,0,.43-1.45Zm-168.4-36c.58,0,1.15,0,1.72,0s1,.17,1.45.25l.08-.61-3.06-.42Zm328.93,36.88c-1,.21-2.52-1.09-3,.93,1.5.85,2.23-.07,3-1ZM742.19,222.12c-1.13-.14-2.3-.42-3.43.53,1.61,1.21,2.56.55,3.38-.59ZM717,338.13l-.5-.43-1.22.8-1.56,2.6C715.66,341,716.49,339.75,717,338.13ZM138.1,460.85l-1.08.06-2.14,1.79C137.13,462.32,137.13,462.32,138.1,460.85ZM472.66,123v3.15l-.07-.05a8.14,8.14,0,0,0,1.37-2.34c.26-1.28-.7-.86-1.38-.67ZM920.1,37.68c2.24-.68,2.25-.67,3.5-3.26l-3.43,3.35Zm8,74.11c.51-.88,1-1.78,1.45-2.68l-.65-.32-1.4,3C927.77,111.8,928.07,111.87,928.12,111.79ZM181.27,79.57c-.35.28-.82.5-1,.86a3.3,3.3,0,0,0-.11,1.31l.56.1.93-2Zm692.9,183.91.94-2.31-.68-.31L873.29,263ZM999.05,82.31l-.53-.31-2.33,2.69,0-.06,1.61-.37.75-.74Zm-193.12,3.8,2-1.74c-.69-.45-1.12-.49-1.29-.29a14.31,14.31,0,0,0-1.13,1.63Zm72,.11.93.87,1.62-2.4-.46-.23-2.17,1.85ZM358.08,265.33s-.42-.38-.52-.33a2.7,2.7,0,0,0-1.08.75c-.09.12.3.59.67,1.28C357.67,266.11,357.9,265.73,358.08,265.33Zm-228.59-4.21-.92,2.09.53.25,1.1-1.87ZM789.07,96.17l1.42-1.64-.39-.39-1.58,1.42Zm-95.5,134.64-2.51.77.05.24,2.56-.39ZM331.88,104.16l-1.74.64.13.46,1.85-.35ZM917.16,39.33l-.09,1.53.07.07a3.62,3.62,0,0,0,3-3.25l.08.09-3.11,1.64Zm170.15,78-1.83.78.27.69,1.89-.57Zm-89,222.59,1.12-1.79-.49-.31-1.27,1.63ZM615,73.92c-.31-.65-.63-1.31-.94-2l-.41.2c.24.67.48,1.33.73,2ZM55.13,386.41c.3,0,.56-.36.83-.56a3.19,3.19,0,0,0-1-.71c-.25-.07-.6.23-1.2.49C54.62,386.13,54.9,386.44,55.13,386.41ZM682.23,61.69l-1.48.29.78.94.61-1.3ZM417.62,377.47c-.16.54-.33,1.08-.49,1.62l.45.15.49-1.6Zm596.6-312.2c0-.15-.46-.61-.58-.57a1.32,1.32,0,0,0-.73.68c-.06.16.31.47.58.83C1013.83,65.8,1014.15,65.57,1014.22,65.27ZM609.05,59.92l1.06,2.24.85-.36c-.27-.76-.54-1.53-.8-2.29ZM176,150.77a.36.36,0,0,0-.29.17c-.26.56-.5,1.13-.74,1.69l.51.23.89-1.67C176.14,150.94,176.07,150.79,176,150.77ZM157.8,187.42c1.25,0,2-.52,1.4-2.19-.44.76-.89,1.51-1.33,2.26Zm236.58,238L392,421.9A3.52,3.52,0,0,0,394.38,425.45Zm697-310.55-1.11,1.37.44.42,1.33-1.17ZM124,292.22c-.31.16-.52.53-.77.81l.42.45,1.78-1.19C124.57,292.24,124.2,292.1,124,292.22ZM784.15,100.76l1.94-2-2.59,1.38Zm263.18-13.52c-.3.07-.54.46-.8.71.24.23.49.65.72.63s.57-.38,1-.71C1047.86,87.59,1047.55,87.2,1047.33,87.24ZM927.83,31v-2.4l.06.05-2.06.86,2.07,1.45ZM170.7,90.91,170,92l.37.24.79-1Zm760.08-64.7,1.22-1-.72-.74c-.32.44-.63.89-.94,1.34Zm-826,332.48,1.19-1.4-.26-.4-1.74.81.89.93ZM1094.68,23a4.32,4.32,0,0,0-.26,1.42l2.38-1.17C1096.28,21.58,1095.51,21.65,1094.68,23Zm-94.47-9.64-1.85,1.49.4.49,1.85-1.49Zm-596.07,81-1.69.62.1.3,1.72-.53Zm577.33,56.28c1.5-4.23,6.36-6.91,7-12-2.06-.41-2.9,1.06-3.25,2.21-.81,2.69-2.79,4.37-4.52,6.34a66.56,66.56,0,0,0-4,5.65Zm14-18.74c1-.07,1.87.13,2.22-.2.69-.66,1-1.68,1.66-2.41,1.57-1.8,1.6-1.77-.81-3.77C997.52,127.52,996.59,129.47,995.43,131.88Zm5.63,7.6c-2.07,3.25-2.5,6.82-3.34,10.23C1001,145,1001.9,141.94,1001.06,139.48Zm-41.55,49.05c1-1,3.2.36,3.4-2.08C959.93,187.06,959.93,187.06,959.51,188.53Zm15.21-28.6c.55-.82,1.91-1.41.53-3.29-.21,1.46-.34,2.41-.47,3.35ZM617.84,342.72l-2.48-2c-.89,2.37.51,3.09,2.08,4.32.15-1.1.24-1.76.32-2.41ZM258.6,393.24l1.26,2.35C260.83,393.52,260.83,393.52,258.6,393.24Z" style="fill:none"/></clipPath></defs><title>perception</title><g id="Layer_2" data-name="Layer 2"><g id="assets"><g id="Perception"><g id="bottom"><g style="clip-path:url(#clip-path-perception)"><path class="animate2" d="M185.58,509.8S397.44,455,629.65,449.85s431.53,26.66,431.53,26.66S807.47,460,577.52,496,230.3,596.44,230.3,596.44,548,501.91,823.52,558.83" transform="translate(16.19 31.68)" style="fill:none;stroke:#231f20;stroke-linecap:round;stroke-linejoin:round;stroke-width:40px"/></g></g><g id="top"><g style="clip-path:url(#clip-path-2-perception)"><path class="animate" d="M210.79,33.25,96.26,297.13l138.76-54-.65-86.92,49.89-50.35,114.19-51L311.73,198.61l107.12-28.25,51.43-120.8L594.5,59.81,528.31,186.17,694.8,3.32,609.05,156.64s138.87-111,136.53-107.08-66.5,93.15-66.5,93.15L828.21,32.6l-25.07,71.07L949.38,14.91,926.46,91.59l105.68-78.4,3,44.93L972.25,204.25,1126.61,34.76l-36.34,81.51L181.83,138,65.32,618.48,18.81,375.19l176.37-31.95-33.84,87.24,125.21-79.57L219.16,468.22l86-12.35,52.09-147.29,50.84-30.45,41.37,24-55.1,123.35L437.94,429l39.19-48.48L610,262.15l-119,155.19,87.76-36.59,70.37-112.68-97,287.23L690.34,290.79l5.38,52.45,156.64-180.7L739,404.18,641.82,228.49l322.76-53.92L882,216.94l-65.32,177,136.9-153.83-47.8,153.21,159.34-207.46L975.07,383l162.64-185.31L1075,381.48" transform="translate(16.19 31.68)" style="fill:none;stroke:#231f20;stroke-linecap:round;stroke-linejoin:round;stroke-width:70px"/></g></g></g></g></g></svg>