<svg xmlns="http://www.w3.org/2000/svg" xmlns:xlink="http://www.w3.org/1999/xlink" viewBox="0 0 505.95 347.81"><defs><clipPath id="clip-path-rect-frame" transform="translate(13.29 20.24)"><path d="M22.85,27.7c.45.95-.17,2.14,1.22,2.54-.06-.92.66-1.83-.25-2.68-.1-.09-.15-.43-.08-.49,1-.85-.11-1.2-.47-2l-.17,1.31h-.24V21.49l-3.06-.44v-.28l1.05-.54,0-.18H18.29l.84,1.08c-1,0-1.78-.05-2.55-.13a.81.81,0,0,1-.61-.43c-.3-1-1.06-.73-1.87-.69l.85.73a6,6,0,0,1-3.27-.22l1.24-.31c-.65-.46-.55-1.32-1.42-1.55l.32.7c-.22,0-.48.1-.52,0-.55-.9-1.42-.92-2.32-.88-.06,0-.13-.09-.27-.2l.48-.39c0-.06-.08-.17-.15-.18a4.91,4.91,0,0,1-1.48-.44,1.45,1.45,0,0,0-1.95-.09L5,16.18c.15-.13.23-.26.34-.29,2-.54,4-1.22,6-1.56,2.53-.42,5.11-.54,7.66-.84,1.46-.18,2.92-.44,4.37-.72.73-.13,1-.62.62-1.09-.52-.63-.41-1,.1-1.53a1.48,1.48,0,0,0,.24-1.62,4.6,4.6,0,0,1-.09-1.06c.48.78.63,3.51.4,5.51a.76.76,0,0,0,1.11-.31,3.53,3.53,0,0,0,.65-1.8c-.13-1.2.64-2.35,0-3.58a2.48,2.48,0,0,1,.16-1.65,4.29,4.29,0,0,1,.82-1.11c.17.2.27.29.26.32a2.79,2.79,0,0,0,0,2.59c.56,1.14.31,2.41.39,3.62,0,.57,0,1.14,0,1.77a8.5,8.5,0,0,0,3,0,21,21,0,0,1,4.88-.12,10.31,10.31,0,0,0,1.46-.09L41,12.43l1.59-.11a3.61,3.61,0,0,1,1,0,7.71,7.71,0,0,0,3.54-.18A13.77,13.77,0,0,1,49.43,12a8,8,0,0,0,1.19,0,35,35,0,0,1,7.31-.26c.7,0,1.41-.08,2.12-.11,1,0,2-.06,3.05-.08.36,0,.71,0,1.07,0l14.64-.34c2.75-.07,5.5-.17,8.25-.23.75,0,1.51,0,2.26.08.93,0,1.86.16,2.79.15,3.78,0,7.55-.12,11.33-.16,2.75,0,5.5,0,8.26,0,1.14,0,2.29-.27,3.44-.31,1.5-.06,3,0,4.51,0,3.41-.12,6.82-.34,10.24-.43,1.46,0,2.92.18,4.38.26a9.67,9.67,0,0,0,1.7,0,31.14,31.14,0,0,1,9.54-.17,13.29,13.29,0,0,0,3.45,0,22.94,22.94,0,0,1,6,0,13.22,13.22,0,0,0,2.25-.12c3.51,0,7,0,10.53-.08l22-.26c2.35,0,4.71,0,7.06,0,4.13,0,8.25.08,12.38,0,2.84,0,5.67-.28,8.51-.3,2.4,0,4.79.17,7.19.2,2,0,4-.1,6-.12,3.73,0,7.47,0,11.2,0,2,0,3.9.19,5.85.19,3.74,0,7.47-.13,11.2-.16s7.28,0,10.92,0h21.46q22.44,0,44.87-.08c4.36,0,8.71,0,13.07.08,1.77,0,3.55.15,5.32.14,2.09,0,4.17-.16,6.25-.15,3.51,0,7,.23,10.51.15,2.18-.06,4.34,0,6.52,0,3.88,0,7.76-.2,11.65-.23,2.08,0,4.17.16,6.25.24a5.35,5.35,0,0,0,1.2,0,20.23,20.23,0,0,1,5.71.09c2,.19,4,.44,6,.6a21.56,21.56,0,0,0,2.66-.09,11.77,11.77,0,0,1,4.09.35,3,3,0,0,0,1.3.06,10.5,10.5,0,0,1,4.36,0,2.89,2.89,0,0,0,.66,0c2.44,0,4.87,0,7.3.11s4.88.21,7.32.33c.17,0,.35.07.53.07,1.76,0,3.52,0,5.28,0,1.6,0,3.19.16,4.78.2,1.85,0,3.7,0,5.62,0a4.72,4.72,0,0,0,.1-.8c0-1.82-.12-3.64-.15-5.45A1.77,1.77,0,0,1,453.06,4c.31-.29.24-1,.35-1.51.16-.83,0-1.75.55-2.44a11.76,11.76,0,0,1,1.31,2.24,9.49,9.49,0,0,1,.44,2.86c.06,2.26,0,4.52,0,6.94.63.11,1.21.26,1.8.31A61.12,61.12,0,0,1,467,13.82a3,3,0,0,1,1.21.52,3.1,3.1,0,0,0,2.92.42c.47-.13,1.09-.58,1.35-.42.85.54,1.75.14,2.58.39a6.52,6.52,0,0,1,1,.55,10.61,10.61,0,0,1-3.24.23c-1.06,0-2.12,0-3.18.05-.79,0-1.58.11-2.36.13-.51,0-1-.06-1.53,0s-.79.28-1.06-.22c0-.06-.19-.13-.22-.11-1,.77-2.24-.11-3.29.69,1.46.46,2.94-.08,4.34.52l-2.45.15V17h3.41a2,2,0,0,1-1.53.84c-2.83.2-5.66.47-8.48.72a2.17,2.17,0,0,0-.42.15c0,.17-.06.37,0,.5a6.5,6.5,0,0,1,.57,2.71c.14,2.08.31,4.16.48,6.23.19,2.46.41,4.92.58,7.39.18,2.69.29,5.38.47,8.07.07,1.06.24,2.12.37,3.17,0,.18.1.35.11.52q.1,4.11.19,8.22c0,.17-.06.37,0,.52.69,1.94.21,4,.42,5.91.23,2.15,0,4.3.08,6.45s.38,4.13.58,6.19a2.48,2.48,0,0,1,0,.27c-.44,3,.61,5.86.5,8.83-.13,3.49.05,7,.13,10.49.09,4.08.22,8.17.34,12.25.12,4.25.29,8.51.37,12.76,0,2.35-.08,4.7-.11,7a13.93,13.93,0,0,0,.1,1.44c0,.18.06.35.07.53.09,2.78.22,5.57.25,8.35s-.12,5.77-.09,8.66c.05,5.14.17,10.29.25,15.07-.63.87-1.07,1.48-1.58,2.17a1.27,1.27,0,0,0,1.55.07c.1,6.54.19,13,.29,19.48l-.18,0-.1-1.06a.91.91,0,0,1-1.35-.07c-.13.1-.24.13-.26.2-.53,1.72-.53,1.72,1.29,2,.16,0,.32.11.59.19q.22,10.51.43,21l-.21,0-.3-1.07c-.1.14-.22.23-.22.31,0,1.1,0,2.21,0,3.43l-1.19-.82V203.7h.15l.09,1h.1c.13-.8.29-1.59.38-2.4a2.47,2.47,0,0,0-.15-1.14c-.12-.32-.47-.55,0-.9a7.21,7.21,0,0,0-.49-.77,12,12,0,0,0-.5,4.78c0,5.07,0,10.13,0,15.2s.19,9.94.21,14.91c0,3.33-.16,6.65-.14,10,0,4.17.22,8.34.27,12.52,0,3.37-.06,6.74,0,10.11,0,2.7.17,5.41.26,8.11,0,.09,0,.21,0,.26a5.56,5.56,0,0,0,.5.47c.13-.15.35-.3.37-.45a23.6,23.6,0,0,0,.17-4.51,47.19,47.19,0,0,1-.05-5.18l-.12-3.7c0-.73.27-1.47-.17-2.19-.11-.18,0-.52.06-.78s.26-.38.21-.46c-.43-.75.17-1.43.11-2.14a23.11,23.11,0,0,0-.39-2.33,14.45,14.45,0,0,1,0-1.75,11.78,11.78,0,0,1,.1-4.31.61.61,0,0,0,0-.4c-.77-1.52-.29-3,0-4.54a2.78,2.78,0,0,0-.11-1.43,10.11,10.11,0,0,1-.08-5.84,3.46,3.46,0,0,0-.08-2.29,8.07,8.07,0,0,1-.3-1.65l.45.53c.06-.83.09-1.66.18-2.48.08-.63-.35-.84-.77-1.08-.05-1.2-.17-2.39-.15-3.58a7.79,7.79,0,0,1,.42-1.73c-.16-1-.35-2.09-.49-3.17,0-.17.1-.5.21-.53.9-.23.48-.81.14-1-.52-.3-.46-.7-.46-1.13,0-1.91,0-3.81,0-5.94l.45.86.61-.43.46.5.26-.92c.12.1.22.15.23.2q0,1.06.06,2.13c.07,3.16.25,6.31.16,9.46a90.07,90.07,0,0,0,.27,9.58c.05.57,0,1.15,0,1.73,0,2.17,0,4.35,0,6.52,0,3.55-.14,7.1-.15,10.65,0,1.28.23,2.56.26,3.85,0,2,0,4,0,6,0,1-.06,2.05,0,3.07.07,3,.17,5.94.26,8.91,0,.66,0,1.32,0,2.07,1.21.17,2.38.42,3.57.48a30.88,30.88,0,0,1,6.56.93c.88.25,1.67.84,2.56,1s1.76-.09,2.61,0a13.11,13.11,0,0,1,2.29.81c-.23.48-.32,1-1,.82-.46-.12-.54.18-.58.57,0,.07-.5.09-.75.35L480,281a2.12,2.12,0,0,1-1.74.49,7.45,7.45,0,0,0-3.64.4,43.86,43.86,0,0,1-7.71,1.13c-1.36.11-2.78-.09-4.12.68l-.18,1.41h-.14l-.16-1.46c-.74,1.23,0,2.65-.86,3.86v-4.22c-1,.14-1.13.66-1.14,1.35,0,2.36,0,4.71-.09,7.07-.06,2.74-.12,5.49-.24,8.24-.06,1.45-.23,2.9-.37,4.35a1.35,1.35,0,0,1-.54.93l-.13-1-.2,0c-.38,1.06-.76,2.11-1.14,3.2,0-.08-.09-.13-.11-.18a16.23,16.23,0,0,1-1.05-4.29c0-.23,0-.59-.45-.43,0-.35-.21-1-.1-1,.85-.41.39-1.09.37-1.63-.07-1.58-.26-3.17-.29-4.76a7.7,7.7,0,0,1,.42-1.87c-.73-.41-.53-1.24-.58-2s-.17-1.75-.23-2.63c0-.52,0-1,0-1.58a16,16,0,0,0-.14-2.49,5.66,5.66,0,0,0-.11,2.83c.07,1,.09,2,.11,3s0,2,0,3,0,2-.07,3.06c-.26-4.17-.52-8.34-.79-12.55-1.5,0-2.82,0-4.14,0q-3.06,0-6.11.13c-.58,0-1.15.16-1.72.17-1.5,0-3,0-4.5,0-1.05,0-2.11.08-3.16.12-1.55.06-3.1.17-4.65.16-1,0-2-.16-3-.25a5.23,5.23,0,0,0-.79,0,30.13,30.13,0,0,1-4.25.07c-.21,0-.43.13-.64.13-.55,0-1.1-.08-1.65-.13-.29,0-.68-.19-.86-.07-.55.41-1.1.17-1.66.15a13.17,13.17,0,0,0-4.11,0,4.62,4.62,0,0,1-3,0,6.36,6.36,0,0,0-2.55.1c-.18,0-.35.13-.52.11-2.55-.33-5.11.53-7.66-.06a5.66,5.66,0,0,0-1.58.07c-.59,0-1.2.43-1.77-.1a.42.42,0,0,0-.38,0c-2.15.82-4.36.24-6.55.32-.78,0-1.57,0-2.36,0a1.27,1.27,0,0,1-.52-.05c-1-.42-2.07-1.07-3.1,0,0,.05-.17,0-.26,0-1-.09-1.93-.23-2.9-.28-.73,0-1.47,0-2.2.08-.17,0-.36.11-.52.07-1.49-.37-3,0-4.54-.22a3.4,3.4,0,0,0-1.3.11,10.06,10.06,0,0,1-5.36-.09,3.53,3.53,0,0,0-1.3,0,14.21,14.21,0,0,0-2.36.26,1.71,1.71,0,0,1-1.71-.34.75.75,0,0,0-.62-.08,3.67,3.67,0,0,1-2.59-.1,1.1,1.1,0,0,0-1.09.24c-.36.26-1,.52-1.32.37-1-.5-2.05,0-3.07-.13-.82-.08-1.65,0-2.48,0-1.59-.05-3.18-.14-4.77-.2a3.38,3.38,0,0,0-1.06.1,9.07,9.07,0,0,1-3.88,0c-.56-.08-1.15,0-1.72,0a13.42,13.42,0,0,1-1.53-.22,3.83,3.83,0,0,0-.64-.13c-2,.06-4,.07-6,.23a21,21,0,0,0-3.16.15,10.32,10.32,0,0,1-2.55-.24c-1.27-.08-2.55-.1-3.83-.12a7.2,7.2,0,0,0-1,.12c-.31,0-.67.21-.91.1a6.13,6.13,0,0,0-3.37-.1c-.42.05-.85-.06-1.22.27-.15.13-.5.24-.62.16-1-.62-2.06,0-3.05-.35a1.41,1.41,0,0,0-.79,0,22.85,22.85,0,0,1-6.34.31c-1.41,0-2.83,0-4.24,0-4.48-.15-9,.3-13.45,0a13.29,13.29,0,0,0-3.67.15.65.65,0,0,1-.39,0c-1.18-.5-2.42-.17-3.63-.33-.13,0-.28.12-.43.15-.42.09-.91.33-1.28.22-2.22-.71-4.42-.06-6.63-.05-1.15,0-2.29-.14-3.44-.13-1.66,0-3.32.15-5,.19a27.4,27.4,0,0,1-4.88,0,13.47,13.47,0,0,0-3.47-.07,3.93,3.93,0,0,1-1-.23c-.29-.06-.64-.22-.89-.13-2.07.8-4.17.26-6.26.15-1.05-.05-2.11-.16-3.16-.24a1.09,1.09,0,0,0-.4,0,4.79,4.79,0,0,1-2.76.17,16.42,16.42,0,0,0-2.89,0c-.6,0-1.09.62-1.82.05-.4-.3-1.21-.1-1.83-.1a2.85,2.85,0,0,0-1.84.4c-.47.33-1.44.08-2.14-.1-.46-.11-.8-.27-1.21.09a1.06,1.06,0,0,1-.74.21,6.27,6.27,0,0,0-1.91-.3,2.48,2.48,0,0,1-1.87-.14c-.4-.19-1,0-1.54.11a9.83,9.83,0,0,1-1.66.3,14.05,14.05,0,0,0-3.49,0,.92.92,0,0,1-.4-.05,10.18,10.18,0,0,0-4.15,0,4.26,4.26,0,0,1-2.73-.3,1.65,1.65,0,0,0-1.25.12,4.54,4.54,0,0,1-2.34.17c-1.22-.13-2.45-.1-3.67-.13a11.6,11.6,0,0,1-2.77-.06c-1.3-.35-2.51.13-3.77.06s-2.79.08-4.2,0c-1.89-.15-3.8,0-5.7.08,0,0-.09,0-.13,0-1.52-.39-3.07-.08-4.6-.21-1.31-.12-2.63-.23-4-.22-1.94,0-3.88.17-5.81.19-1.67,0-3.35-.1-5-.11-.61,0-1.24.23-1.84.18-1.94-.16-3.89,0-5.81-.07-2.51-.13-5,.14-7.49,0-4.11-.25-8.22.17-12.34,0-3.23-.13-6.46-.15-9.69-.15-3.59,0-7.18.11-10.77.12-2,0-4.08-.12-6.12-.14-2.84,0-5.68,0-8.51-.06-4.43-.07-8.86,0-13.28.06-1,0-2-.12-3.06-.18a14.49,14.49,0,0,0-2-.08c-5.14.38-10.27.1-15.4,0-3.28-.07-6.56,0-9.84,0-1,0-2-.11-3-.18l-.93-.06c-3.33-.07-6.65-.16-10-.2-1.72,0-3.45.05-5.17,0-3.64,0-7.28-.1-10.92-.15H25.51c.15,1.64.25,3.18.44,4.7a4.36,4.36,0,0,1-.44,2.44,5.6,5.6,0,0,0-.67,4,4.43,4.43,0,0,1-.24,2.1,17.3,17.3,0,0,1-.18-4.37c0-1.54.08-3.09.06-4.63a33.51,33.51,0,0,0-.31-4.36c-1.1,2.38,0,4.88-.39,7.28-.67.07-.9-.27-.9-.78s.06-1.32.1-2c.11-1.53.23-3.07.34-4.62-3.32-.16-6.5-.28-9.67-.47s-6.34-.43-9.53-.91l1-.23c-.12-.23-.17-.45-.28-.5-.8-.3-1.61-.57-2.42-.84L0,279.49c.14-1.23.35-1.45,1.52-1.56a1.42,1.42,0,0,0,.63-.14c1.61-1.07,3.48-.89,5.27-1.13,1.23-.16,2.45-.43,3.68-.53,3.58-.28,7.17-.51,10.75-.76a2.07,2.07,0,0,0,.36-.13c0-.29.05-.63.06-1,0-1.63.09-3.26.07-4.88,0-1.05-.24-2.11-.23-3.16,0-3.5.16-7,.15-10.49a24,24,0,0,0-.08-4.06,21.54,21.54,0,0,1,.1-4.46,9.51,9.51,0,0,0,0-1.06c-.09-1.68-.28-3.35-.3-5,0-4.83,0-9.66,0-14.5,0-3.86.1-7.72.1-11.58,0-2.3-.15-4.6-.18-6.91,0-2,.05-4,0-6,0-1.69-.06-3.37-.06-5.06,0-4.57.06-9.14.07-13.72,0-1-.14-1.94-.12-2.91,0-1.69.18-3.37.19-5.06,0-3.94,0-7.89,0-11.84,0-1.23,0-2.47,0-3.7a1,1,0,0,1,.16-.61,1.43,1.43,0,0,0,.14-1.63c-.7-1.33-.32-2.68-.25-4a17.19,17.19,0,0,1,.27-1.75.39.39,0,0,0,0-.26c-.66-1.29-.3-2.69-.41-4a18.86,18.86,0,0,1,.17-2.36,4.09,4.09,0,0,0,0-1.16,8,8,0,0,1,0-3.52,3,3,0,0,0-.1-2,7.6,7.6,0,0,1-.11-2.75c0-1.29,0-2.58,0-3.87,0-.87.52-1.63.31-2.57a3.94,3.94,0,0,1,0-3c.06-.11-.11-.32-.12-.49A4.32,4.32,0,0,1,22,124.1c.58-1.43.17-2.91.37-4.35.13-1-.19-1.9-.11-2.87s0-2.13,0-3.19.08-2,.08-3.06c0-3.95,0-7.9,0-11.85,0-5.25,0-10.49,0-15.73,0-4.49.11-9,.16-13.46.05-4.22.1-8.44.11-12.66,0-6.09,0-12.17,0-18.26C22.69,35.08,22.79,31.49,22.85,27.7ZM462.92,273.21l-.26,1.19.26,0v-1.22c-.17-1.75-.41-3.5-.47-5.25-.05-1.59.15-3.19.17-4.78a25,25,0,0,0-.25-2.5c-.63,4.37.17,8.45-.06,12.56Zm-124.86-252c-.86.09-1.44.18-2,.22a11.44,11.44,0,0,1-1.94.06,8.15,8.15,0,0,0-2.79-.23,5.4,5.4,0,0,1-2.34.23,9.41,9.41,0,0,0-3,0c-2,.19-4,.51-6-.14a.86.86,0,0,0-.39,0c-.91.12-1.81.3-2.72.38a20,20,0,0,1-2.45.06c-.65,0-1.31-.09-2-.15a2.05,2.05,0,0,1-.76-.07,1.32,1.32,0,0,0-1.38.09,3.35,3.35,0,0,1-2.17.31,23.88,23.88,0,0,0-4.22-.27,6.38,6.38,0,0,1-3.51-.35,2,2,0,0,0-.91,0,4.79,4.79,0,0,1-1,.06,3.06,3.06,0,0,0-2.74.43A1.55,1.55,0,0,1,294,22c-1.6-.91-1.79-.94-3.39-.2a2,2,0,0,1-.78.13c-1.54.06-3.09.12-4.63.14A6.11,6.11,0,0,1,283,22c-.76-.29-1.37-.83-2.1,0-.09.11-.42,0-.64,0-.95-.14-1.9-.31-2.86-.44-.34-.05-.9-.18-1,0-.42.55-1,.26-1.41.41-.59.21-1-.18-1.51-.11a6.3,6.3,0,0,1-3.11,0,1.22,1.22,0,0,0-.53,0c-1.33.24-2.67.52-4-.19-.16-.09-.41,0-.62,0-.9.13-1.8.24-2.7.39a3.2,3.2,0,0,1-2.14-.23,2.77,2.77,0,0,0-2-.25,2.28,2.28,0,0,1-1.74,0,.54.54,0,0,0-.49.09c-.38.55-.95.42-1.46.42-1.37,0-2.74,0-4.12,0a8.23,8.23,0,0,1-2.49-.13c-.51-.17-.92.07-1.24,0a2.35,2.35,0,0,0-1.49-.24c-.24.07-.55.07-.69.23a1.27,1.27,0,0,1-1.69.18c-.67-.31-1.33-.67-2,0-.17.17-.59.15-.89.15-1.45,0-2.9,0-4.35,0-.35,0-.8,0-1-.16a1.15,1.15,0,0,0-1.46-.06,2.29,2.29,0,0,1-.89.22c-2.87.08-5.74-.16-8.61.18a49.59,49.59,0,0,1-7-.14c-1.72-.05-3.58.4-5.25-.54-.17-.09-.55.12-.79.27a2.29,2.29,0,0,1-2.62.08,2.81,2.81,0,0,0-2.64-.24,9.2,9.2,0,0,1-2.94.46,17.39,17.39,0,0,1-5.93-.34.91.91,0,0,0-.4,0,10,10,0,0,1-4.18.06,2,2,0,0,0-.65,0,8.11,8.11,0,0,1-1.53.24c-1.63-.08-3.25-.23-4.88-.35a1.57,1.57,0,0,0-.53,0,10.22,10.22,0,0,1-4.7,0,2.47,2.47,0,0,0-.66,0c-.61.06-1.22.16-1.83.18-2.82.08-5.64-.39-8.47,0a22.76,22.76,0,0,1-2.61,0,54.9,54.9,0,0,1-9.42-.24,1.56,1.56,0,0,0-.91,0c-1.18.63-2.43.32-3.65.33-1.93,0-3.84-.47-5.8,0a16.83,16.83,0,0,1-3.83.23c-2.26,0-4.52-.19-6.78-.24s-4.49-.05-6.73,0c-1.76,0-3.52-.36-5.28,0a2,2,0,0,1-.93,0,10.17,10.17,0,0,0-4-.11c-2.29.17-4.61.05-6.92,0-2,0-4-.17-6-.18-3,0-6,.05-9,.06-1.14,0-2.29,0-3.44,0-1.85,0-3.7.08-5.55.09-.84,0-1.68-.06-2.53-.06-2.87,0-5.74,0-8.61,0-2.21,0-4.43-.09-6.65-.09s-4.16.12-6.24.1q-5.52,0-11-.19c-3.4-.09-6.79-.26-10.19-.36a37.54,37.54,0,0,0-4.11.07,5,5,0,0,1-2.08-.08,7.93,7.93,0,0,0-2.24-.2c-1.36,0-2.73,0-4.1.05l-1.93,0a4.75,4.75,0,0,0-.11.68L28,30.59c0,1.73-.06,3.45,0,5.18,0,2.66.13,5.32.13,8q0,16.71,0,33.44c0,13,0,26,0,39.06,0,11.55-.12,23.09-.18,34.64,0,5.06,0,10.13,0,15.19s0,10.3-.09,15.44c0,4.4-.11,8.79-.15,13.18,0,1,.14,1.94.13,2.92,0,1.85-.11,3.7-.13,5.56,0,2.25,0,4.5,0,6.75-.07,6.79-.16,13.59-.21,20.39,0,1.9.12,3.8.09,5.71,0,2.3-.17,4.61-.25,6.91-.06,1.69-.13,3.37-.14,5.06,0,2.43.06,4.86.06,7.29q0,4.67-.1,9.32c0,2.71-.14,5.41-.2,8.12,0,.73,0,1.46,0,2.13h3.92l5.06-.1c2.31-.06,4.61-.13,6.92-.18,2,0,3.91,0,5.86-.11,2.35-.09,4.69-.3,7-.37,2.09-.07,4.17,0,6.25,0q9.19-.1,18.37-.26c1.68,0,3.37-.28,5-.16a45.63,45.63,0,0,0,6.51,0,14.36,14.36,0,0,1,2.78,0,39.77,39.77,0,0,0,7.71.27c2.26-.15,4.52-.28,6.78-.36,1.64,0,3.29,0,4.93,0,1.2,0,2.4,0,3.59,0s2.11.23,3.17.23,2.29-.21,3.44-.22c5.15-.06,10.3-.12,15.46-.12,5.55,0,11.11.09,16.66.09,6.89,0,13.78-.09,20.67-.11,8.48,0,17,0,25.46,0,4.22,0,8.44-.05,12.66-.05,3.65,0,7.29,0,10.93.07,4.89,0,9.78.07,14.66.14,2.7,0,5.39.16,8.08.18s5.14-.06,7.71-.06c5.51,0,11,.06,16.52.09,8.36.05,16.71.12,25.06.16s16.71.08,25.07.08c9.91,0,19.82,0,29.73,0q10.06,0,20.12.05c7.38,0,14.75.12,22.13.16,3.68,0,7.36,0,11,0,6.71,0,13.42,0,20.13,0,3.55,0,7.1.15,10.65.24s6.84.18,10.26.3c2.29.09,4.57.24,7,.38,0-.74,0-1.31,0-1.88-.07-2.17-.17-4.34-.23-6.52-.11-3.9-.21-7.81-.28-11.72-.09-4.43-.13-8.86-.2-13.3q-.12-7.44-.26-14.89-.15-9.53-.3-19.05c-.08-5.32-.14-10.64-.22-16-.06-3.15-.17-6.29-.2-9.44,0-3.8,0-7.61,0-11.41,0-2.15-.15-4.31-.1-6.46,0-1.72-.18-3.42-.08-5.16a75,75,0,0,0-.29-7.77c0-.72-.12-1.45-.18-2.17-.45.7-.19,1.5-.59,2.18a21.89,21.89,0,0,1-.16-3.12,8.32,8.32,0,0,1,.19-3l.24,1.84c.48-2.34.46-3.23,0-4.05l-.5.74v-2.95h.12l.38,1.46.34,0v-4.32l-.45-.61c-.54.75.53,1.6-.32,2.48a7.83,7.83,0,0,1-.2-1c-.08-3.32-.16-6.65-.22-10a2.82,2.82,0,0,1,.12-.62c.32,2.43-.08,4.86.6,7.23a3.38,3.38,0,0,0,.12-1.13c0-1.14-.14-2.28-.13-3.42,0-1.9.09-3.8.19-5.7,0-.72-.17-1.18-.8-1.32-.06-1.34-.13-2.56-.18-3.79,0-.92-.05-1.84-.08-2.76s-.07-1.67-.07-2.51c0-.66.06-1.33.06-2,0-1.51,0-3,0-4.53q-.06-6.32-.13-12.63a3.47,3.47,0,0,1,.08-.55l.28,0v2.82h.31c0-2.3,0-4.59,0-6.89,0-.22.07-.55-.05-.65-.91-.78-.5-1.79-.54-2.72,0-1.1,0-2.2-.07-3.3-.08-1.58-.25-3.15.71-4.56a.49.49,0,0,0,.09-.38,2,2,0,0,1,.1-2c.56-.71-.26-1.26,0-2a8.36,8.36,0,0,0,.21-2.76,1.07,1.07,0,0,0-.67-1.18c-.21-.09-.29-.48-.54-.92.74.26,1.12.17,1-.39a7.53,7.53,0,0,0-.56-1.38,7.93,7.93,0,0,0,.35-1.67c0-.31-.36-.6-.43-.71a8.12,8.12,0,0,0,.72-1.65,1.16,1.16,0,0,0-.67-1.52c-.34-.15-.45-.63.08-.89a3.24,3.24,0,0,0,.42-.25,11.53,11.53,0,0,1,0-2.37,25.64,25.64,0,0,0,.25-5.25,29,29,0,0,1,.15-4.07,1.65,1.65,0,0,0-.48-1.6,7.08,7.08,0,0,0,.39-1.34c.05-.87,0-1.75,0-2.63.07-3.17.13-6.35.25-9.53.11-2.83.27-5.66.43-8.5.12-1.94.27-3.87.41-5.81,0,0,.08-.09.13-.13l.17.85c.71-.93.3-1.79.44-2.53a1.92,1.92,0,0,0-1.84-.61c-1.44.28-2.93-.28-4.4.29a6.94,6.94,0,0,1-2.67.34c-1.55,0-3.1,0-4.65,0-.94,0-1.88-.16-2.82-.2-.57,0-1.14.11-1.71.11-1.67,0-3.33-.05-5,0-.8,0-1.6.14-2.41.2a15.56,15.56,0,0,1-1.67.08c-1.65,0-3.32-.41-4.91.41-.22.11-.62.18-.77.06-.76-.63-1.49.19-2.29,0a6.62,6.62,0,0,0-2.35,0,12.32,12.32,0,0,1-1.68.23,29.89,29.89,0,0,0-6.75.11,4.68,4.68,0,0,1-.65,0,13.89,13.89,0,0,0-5.47.61,2.72,2.72,0,0,1-1,0,24,24,0,0,0-3.69-.1c-1.05.12-2,.62-3.09,0-.25-.15-.7,0-1,.05a11.57,11.57,0,0,1-4.59-.3,1.62,1.62,0,0,0-.38,0,13.18,13.18,0,0,1-2.75-.13,3.93,3.93,0,0,0-2.82.33c-1.31.64-1.63.56-2.7-.52-.81.19-1.65.4-2.5.57a9.66,9.66,0,0,1-1.42.17c-2.18.15-4.38-.29-6.56.13a2,2,0,0,1-.53-.06c-.47,0-.95-.1-1.43-.11s-1.23,0-1.85,0c-1,0-1.94-.14-2.9-.08a27.54,27.54,0,0,1-4.58.37c-2.07-.23-4.15.24-6.21-.23a6.22,6.22,0,0,0-1.69.15c-.34,0-.69.05-1,.06a21.34,21.34,0,0,1-3.74-.22,9.09,9.09,0,0,0-1.94.1c-.65,0-1.3.12-1.94.14C339.91,21.32,338.85,21.86,338.06,21.23ZM24.51,170.1c.29-1.22.95-2.4.25-3.69a2.42,2.42,0,0,1-.12-1q.08-5.52.18-11a18.33,18.33,0,0,0,.07-2.45,5,5,0,0,1,.22-3.09,1.61,1.61,0,0,0,0-.89,10,10,0,0,1-.28-1.41c-.05-1.54-.06-3.08-.06-4.62,0-.25,0-.6.19-.73.42-.34.25-.68.19-1.08a32.09,32.09,0,0,1-.38-3.64c0-2,.11-3.94,0-5.92a15.7,15.7,0,0,1,.33-2.8c-.64-.84-.43-2,0-3.16a4.93,4.93,0,0,0,.17-1c.19-1.43-.4-2.82,0-4.31.41-1.65-.12-3.36-.3-5a11.15,11.15,0,0,1,.12-3.51,12.87,12.87,0,0,0-.09-1.62c0-.56.25-1.11.31-1.67a9.58,9.58,0,0,0-.06-1.31c0-.4-.18-.65-.73-.73C24.5,127,24.26,148.54,24.51,170.1Zm.22-146.55a18.92,18.92,0,0,1,.14,2.05c0,1-.2,2-.17,3a3,3,0,0,0,.49,1.83c.32-.7.81-1.3.77-1.86A6.35,6.35,0,0,1,26.15,27c.09-.49-.33-1.05-.4-1.6a15.62,15.62,0,0,1,0-1.81,10.4,10.4,0,0,0,0-1.58c-.07-.47-.4-.66-.92-.44L24.5,22.9c-.16-.15-.27-.21-.28-.27,0-.25,0-.51,0-.77,0-.1-.12-.19-.25-.38l-.15.86-.66-.19.11,1.69Zm-.42,214.74c-.35,3.2-.32,14.26,0,15.84A126.84,126.84,0,0,0,24.31,238.29Zm436.15-53.2c-1.21,2.48-.47,5-.47,7.54a1.76,1.76,0,0,0,.57-1c0-1.14-.09-2.28-.1-3.42a2.83,2.83,0,0,1,.26-1.78A.86.86,0,0,0,460.46,185.09ZM24.7,99.43l.29,0a4.52,4.52,0,0,0,.08-.63c0-1.71,0-3.43.06-5.14a9.51,9.51,0,0,0,0-1.19c0-.19-.24-.36-.37-.54a61.49,61.49,0,0,0-.33,7A1.43,1.43,0,0,0,24.7,99.43Zm.22,99.14c-.52-.51-.68-1.15-.38-1.2.83-.14.38-.59.28-.9a5.21,5.21,0,0,0-.6-1v9.23c0-1.08,1.7-2,.28-3.12l.48-1C24.12,199.51,24.19,199.82,24.92,198.57Zm-.71-4.43c.28-.15.6-.22.62-.34.13-.83-.22-1.68.1-2.51-.9-1.08.17-2.39-.41-3.51.93-.7-.24-1-.31-1.52Zm.54-117.31c.93-1.09.47-2.28.48-3.44A22.92,22.92,0,0,0,25,70l-.29,0Zm435.07,96c0,.68,0,1.16,0,1.63-.09,1.33,0,1.41,1.35,1.1a1.21,1.21,0,0,0,.29-.17c.09-.48.18-1,.25-1.48ZM24.4,206.38h-.29q0,3.3,0,6.61a2.82,2.82,0,0,0,.22.75c.6-.8.65-.81.57-1.58-.13-1.2-.37-2.4-.5-3.6C24.34,207.85,24.4,207.11,24.4,206.38Zm.06,49.45-.4-.05v3.14c0,1,0,2,0,3a8.22,8.22,0,0,0,.1,2.93h.32Zm.05-151.39c.68-.41.68-.41.71-1.12.07-2.59.07-2.59-.71-3.13Zm436,93.95c.58-2.68.57-4.1,0-4.85-.93,1.43-.12,3.09-.64,4.63ZM24.15,220.17c.93-2.63.92-3.46.11-5.19-.07.86-.19,1.74-.21,2.61S24.12,219.31,24.15,220.17ZM25.39,31.8a8.54,8.54,0,0,0-.17,5.11c.23-1.47.39-2.95.52-4.42C25.75,32.32,25.57,32.13,25.39,31.8Zm434.52,133a9,9,0,0,0,.19,4.55c.68-.46-.05-.87-.09-1.26-.05-.71.55-.8.77-1ZM451,101.09c-.45,2.1-.38,7.17,0,8.14ZM25.05,78c-.63,1.14-.61,3.42,0,4.21A11.43,11.43,0,0,0,25.05,78Zm435.19,81.88c.09-.35.23-.58.16-.66a1.73,1.73,0,0,1,0-2.19.68.68,0,0,0-.16-.66c-.14-.1-.45,0-.76.09C459.66,157.58,459.17,158.74,460.24,159.85ZM24.69,176.75c.58-1.3.14-2.55,0-3.81A5.6,5.6,0,0,0,24.69,176.75ZM25.2,44.13l-.31,0c-.11.85-.52,1.7.13,2.58l.82-.9Zm-.24-3c.41-1,1.32-2.06,0-3.21ZM24.75,88c.12-.06.32-.11.32-.16a6.73,6.73,0,0,0-.32-3.46Zm-.59,148.09a4.62,4.62,0,0,0,0-3.9ZM462,235.73a5.83,5.83,0,0,0,.19-3.86C462.07,233.25,462,234.49,462,235.73Zm-2.07-89.46c-.54.64-.19,1.37-.38,2.08l1.21.81L461,149C460.74,148,459.23,147.54,459.88,146.27ZM25.1,58.17c-.2-1,.27-2.08-.26-3.06C24.86,56.13,24.34,57.19,25.1,58.17ZM459,295.55h-.34c0,.84-.44,1.69,0,2.52H459ZM24.93,52.07c-.35,1.48-.35,1.51.07,2.33C25.81,53.58,25.22,52.83,24.93,52.07ZM462.09,252.51l.37,0-.11-2.34h-.26ZM450.94,113a2.67,2.67,0,0,0,.12,2.52C451.64,114.51,451,113.74,450.94,113Zm2.29,45.18c.64-.81.64-1.11,0-2.19Zm9.14,88.1h-.19v2.64h.19ZM24.2,227.84v2.54h.27A4.83,4.83,0,0,0,24.2,227.84Zm438.2,14.72a2.37,2.37,0,0,0,0,2.38Zm-438,25-.34,0c.36.74-.28,1.49.05,2.22h.29Zm.39-84.8c-.08-.72.28-1.22-.23-1.82A1.29,1.29,0,0,0,24.78,182.79Zm428.54-13c.62-.45.67-.86.33-1.92C453,168.4,453.63,169.07,453.32,169.75ZM451,118.66l.19,0v-2.22H451Zm11.52,138a4.44,4.44,0,0,0-.19-2.33A4.93,4.93,0,0,0,462.48,256.63Zm-2.21-129.84c-.4,1.06-.39,1.06.24,1.51A1.55,1.55,0,0,0,460.27,126.79Zm16.91,154.37.07-.32c-.78-.44-.78-.44-1.75.07ZM24.39,221.83l-.15,0v2.09h.15Zm430,8.56c-.57,1-.57,1,.13,1.73C454.51,231.47,454.48,231,454.43,230.39ZM461,140a.88.88,0,0,0-.53-1.16C460.3,139.4,460.37,139.76,461,140Zm-1.12,31.9.28,0-.08-1.12-.2,0ZM25,60.62l-.28.06c0,.35.05.7.07,1l.29,0ZM24.81,49l.32,0L25,47.91l-.28,0ZM462.63,257.59h-.37l.15,1,.22,0ZM456,21.82h-.21c0,.63.09,1.26.13,1.88H456ZM24.7,63.24l.34.06.12-.89-.27,0ZM461.61,193.69c-.19.72-.19.72.29,1.32C461.78,194.47,461.69,194.08,461.61,193.69ZM23.15,36h.16V34.45h-.16ZM461.39,185c.32-.88.32-.88-.3-1.14ZM25,65l-.35.09.22.73.27-.08ZM460.75,228.05c.53-.33.53-.33.2-.85ZM23.31,50.47l-.09-.1s-.07.07-.07.1c0,.3,0,.6,0,.9,0,0,.09.06.18.12Zm437.6,171.67.15,0v-1h-.15Zm-6.3,29.34h-.13l0,.7h.1ZM24.82,89.88H25c0-.15.17-.31.14-.43s-.21-.26-.33-.39l-.19.11ZM455,10.24c.14-.27.21-.34.2-.4a4.86,4.86,0,0,0-.11-.55ZM24.18,225.5h.19l.07-.64-.22,0Zm-7.12-205,0-.33h-.68l0,.19Zm445.36,210-.2-.08c-.06.18-.13.35-.18.53s.12.08.18.12ZM24.26,185.17l.18,0,0-.57-.18,0Zm430.06,42.17-.31,0V228l.17,0Zm-.58-52-.33,0,.11.65c.1,0,.3-.07.3-.1A4.11,4.11,0,0,0,453.74,175.33Zm7.37,50.22h-.19l0,.76h.2Zm1-.87c-.06.07-.1.11-.1.13a1.25,1.25,0,0,0,.1.27ZM23.16,44.32h.09v-.59h-.09ZM455.74,20l-.21.05.18.77.24-.06Zm-.8,251.72h-.15l0,.58.16,0ZM207,17.92a1.48,1.48,0,0,0-.16.38c0,.05.15.16.17.15s.22-.14.24-.23S207.11,18.06,207,17.92ZM478.44,280.3l0-.27-.61.11,0,.16ZM3.75,280.2l-.07.28.62.14.06-.25ZM35.62,18.66c.1-.23.2-.35.17-.43a.4.4,0,0,0-.27-.22c-.07,0-.24.17-.22.22A2.17,2.17,0,0,0,35.62,18.66Zm426.57-1.52,0-.3-.61.06v.19ZM460.34,16v-.14h-1.06V16ZM21.84,92.26V104h.08V92.26Zm.08-2.62V82h-.11v7.48ZM27.21,3.73a1.94,1.94,0,0,0,0-.86c0-.26.05-.53,0-.79-.07-.78-.37-1-1.36-1ZM462,208.79v1.68l-.92-.59c0,.63-.08,1.09-.12,1.55C461.83,210.73,462.83,210.07,462,208.79ZM21.92,76.35V72.21h-.1v4.14Zm2.74-72c-.72.75-.34,1.37,0,2ZM468.24,17.23c-.11-1-.11-1-1.07-.93Zm-7,275.78-.12,1.69.18,0,.31-1.67ZM21.9,111.67v1.62h0v-1.62Zm440.17,94.38v1.09h.17v-1.09Zm-6.4,94.23v-1.63l-.2,0,.16,1.62ZM10.44,20.21l-.73,0,0,.18.7.17ZM22,108.9l0-.39h-.09v.38ZM22.9,9.63l.06.42h.13V9.63ZM452.09,217.76v5.37h.28v-5.37Zm.11-7.25V207A5.05,5.05,0,0,0,452.2,210.51Zm.65,44.37c-.11-1.26-.23-2.53-.34-3.8h0v3.81Zm-1-41.86v3.07h.21c.07-1,.15-2,.22-3.07Zm-.08-27.65v-2.62A3.92,3.92,0,0,0,451.81,185.37Zm-1.2-91.59V91.61h-.09c0,.73-.07,1.45-.11,2.18Zm1.53,136.87.08,1.45h.23v-1.38ZM451.38,161v1.78A1.43,1.43,0,0,0,451.38,161Zm.23,26.59.07,1,.28,0-.13-1Zm.88,46.63-.07-.66-.19,0,.08.66Zm-.62-34,0,.86H452v-.88Zm.69,42c0-.25,0-.5-.07-.75l-.06,0c0,.25,0,.5,0,.75,0,0,0,.08.05.29A1.92,1.92,0,0,0,452.56,242.22Zm-.31-16.94.05-.7h-.17v.7Zm.41,21.62,0,.36h.08v-.37Zm-.2-2.86v.33h.06V244Zm-.22-16.49s-.19.08-.19.11a1.91,1.91,0,0,0,.1.34l.36-.16A2,2,0,0,0,452.24,227.55ZM450.51,79.29s-.08,0-.12,0l.11.17.07-.1S450.54,79.3,450.51,79.29Z" style="fill:none"/></clipPath></defs><title>rect-frame</title><g id="Layer_2" data-name="Layer 2"><g id="assets"><g id="rect-frame"><g style="clip-path:url(#clip-path-rect-frame)"><line class="animate" x1="5.27" y1="33.8" x2="500.65" y2="31.35" style="fill:none;stroke:#000;stroke-linejoin:round;stroke-width:30px"/><line class="animate" x1="505.95" y1="295.49" y2="295.49" style="fill:none;stroke:#000;stroke-linejoin:round;stroke-width:30px"/><line class="animate" x1="466.8" y1="10.91" x2="473.85" y2="347.5" style="fill:none;stroke:#000;stroke-linejoin:round;stroke-width:30px"/><line class="animate" x1="32.87" y1="336.37" x2="41.27" y2="0.37" style="fill:none;stroke:#000;stroke-linejoin:round;stroke-width:30px"/></g></g></g></g></svg>