<svg xmlns="http://www.w3.org/2000/svg" xmlns:xlink="http://www.w3.org/1999/xlink" viewBox="0 0 795.11 422.93"><defs><clipPath id="clip-path-science" transform="translate(-0.95 -1.62)"><path id="science-clip-4" d="M575.47,384.68c-2-.07-4-.07-5.94-.23-1.46-.12-2.9-.52-4.36-.66s-2.93-.44-4.14,0c-2,.76-3.57-.35-5.32-.6a23,23,0,0,0-3-.25c-4.19-.08-8.39-.17-12.58-.16-4.35,0-8.7.12-13,.19-2.39,0-4.77,0-7.15.15-2.55.14-5.08.45-7.63.63-2.77.2-5.54.29-8.31.5-2.35.18-4.68.46-7,.69-4.4.44-8.81.81-13.21,1.33-5.58.66-11.14,1.46-16.72,2.15-5.14.63-10.3,1.12-15.43,1.81-2.59.34-5.13,1-7.7,1.46-1,.18-2.05.22-3.07.32l-.08-.46,1.27-.51-.07-.28-2.6.58c.74.58.89,1.06-.1,1.21s-1.72.12-2.57.29c-.59.12-1.13.5-1.73.65-2.82.72-5.66,1.38-8.48,2.1-3.48.89-6.94,1.8-10.41,2.71-2.13.56-4.3,1-6.37,1.72-2.7.92-5.34,2-8.26,3.18a3.27,3.27,0,0,0,.61.08c2.51-.54,5-1.12,7.55-1.61.63-.12,1.35.19,2,.08,3.68-.64,7.34-1.37,11-2,1.93-.33,3.9-.48,5.84-.78s4.1-.75,6.16-1.06c3.38-.5,6.77-.92,10.15-1.41,1.14-.16,2.27-.45,3.41-.6,2-.25,3.94-.43,5.9-.65,3.64-.42,7.27-.9,10.91-1.26,2.38-.23,4.78-.33,7.17-.44,3.43-.15,6.86-.31,10.29-.37,2.2,0,4.41.12,6.62.15,2.63,0,5.26,0,7.89,0,1.75,0,3.49.27,5.24.42,2.81.23,5.63.38,8.43.72,6,.73,11.91,1.85,17.46,4.36.9.41,1.75.91,2.82,1.47l-3.39,1.59c-.77-1.94-2.66-1.78-4.21-2.24-.27-.07-.65.27-1,.42.21.27.36.66.64.78a51,51,0,0,1,5.08,2.41l-1.65-.11,1.51,1.31a3.81,3.81,0,0,1-1.17.14c-4.3-1-8.55-2.28-12.89-3-3.63-.62-7.37-.62-11.06-.89l-6.54-.5c-.4,0-.8-.09-1.2-.09-3.08,0-6.15-.11-9.23-.06-1.42,0-2.83.3-4.25.43-.39,0-.79-.08-1.18,0-1.32.12-2.64.33-4,.4-1,.05-2-.16-3-.09-3.82.26-7.63.58-11.44.87-.52,0-1,0-1.55,0-2.24.23-4.47.45-6.7.72-3.45.43-6.9.82-10.33,1.35-5.83.89-11.64,1.89-17.46,2.83-1,.16-2,.28-2.66-.93l1.68-.51-.07-.32-3.88.61,2,1-.1.61c-1.41.24-2.82.5-4.24.71a10.21,10.21,0,0,0-2.25.24c-1.66.67-3.37.55-5.08.69a15,15,0,0,0-3.13,1c-.19.06-.42,0-.61,0-.53.15-1,.37-1.57.5a3.73,3.73,0,0,1-.88,0,2.51,2.51,0,0,0-.67,0c-4,.91-8.08,1.86-12.13,2.76a43.86,43.86,0,0,1-5.16,1c-1.4.14-3,.36-3.84-1.31a.37.37,0,0,0-.18-.14c-1.39-.6-2.21-1.83-3.2-2.86a.88.88,0,0,1-.19-.8c1.06-1.83,1.76-4.09,3.85-5,1.61-.68,3-1.71,4.66-2.31s2.89-1.45,4.39-2c3.11-1.2,6.25-2.32,9.39-3.42,3.37-1.19,6.74-2.41,10.17-3.44,3.9-1.18,7.85-2.2,11.79-3.21,2.73-.71,5.58-1,8.18-2a30,30,0,0,1,4.83-1c2.95-.66,5.91-1.28,8.89-1.78,3.88-.66,7.79-1.2,11.68-1.77,2.92-.44,5.84-.89,8.77-1.27s5.57-.6,8.36-.91c4.32-.48,8.63-1,12.95-1.44,2.73-.29,5.47-.51,8.2-.79a13.31,13.31,0,0,0,1.63-.39l0-.3-4.06-.36c6.45-.47,12.76,1,19.34-.4-1.13-.15-2-.35-2.82-.37-4-.11-7.94-.17-11.91-.26-2.66-.07-5.32-.23-8-.24q-6.61,0-13.24.08c-2,0-4,.29-5.95.35-2.73.08-5.48,0-8.21.13-1.58.08-3.15.5-4.73.66-2.05.19-4.11.22-6.16.41-3.13.29-6.26.66-9.38,1-3.36.35-6.71.72-10.07,1-2,.18-3.95.16-5.91.4-1.72.22-3.39.81-5.12,1-3.48.42-7,.67-10.48,1-1.18.12-2.34.38-3.52.55-2.38.36-4.77.72-7.16,1a2.15,2.15,0,0,1-.64-.1,2.44,2.44,0,0,1,3-1.19c1.46.52,2.34-.57,3.51-.6s2.44.42,3.32,0c1.72-.89,3.57-.83,5.34-1.3a22.08,22.08,0,0,1,3-.44c.19,0,.46-.08.58,0,1.5,1.27,2.31-.71,3.56-.52l0-.34a15.88,15.88,0,0,0-2.07,0c-2.36.33-4.7.83-7.07,1.05-3.72.35-7.39,1-11.05,1.68-1.45.28-2.91.47-4.37.66a5.5,5.5,0,0,1-1.24-.19l1-.64v-.27c-.39,0-.77,0-1.15-.06-.23,0-.61,0-.65-.13s0-.49.06-.73c-2.05-.14-2.19.05-1.6,2.51-1.49.25-3,.5-4.43.72a.9.9,0,0,1-.62-.29,1.3,1.3,0,0,0-1.81-.33c-.26.14-.72-.13-1.1-.17-1-.08-2.12-.84-2.64.14l-2.6.89c-.62-.88-1.47-2-3.28-.6l2.36.85a9.34,9.34,0,0,1-1.59,0c-1.23-.21-2.46-.48-3.68-.77-.18,0-.32-.29-.48-.45.19-.14.37-.4.58-.42,1.49-.14,3-.2,4.49-.35a8.35,8.35,0,0,0,1.34-.43c3.27-.86,6.51-1.87,9.82-2.52,4.59-.9,9.24-1.51,13.86-2.28,2.77-.46,5.52-1,8.29-1.47s5.28-.73,7.93-1.1c4.19-.58,8.37-1.24,12.58-1.74,5.77-.68,11.57-1.24,17.36-1.84,4.67-.48,9.35-1,14-1.39q7.8-.62,15.62-.91t15.45-.24q7.61.06,15.19.46c6.82.36,13.62.89,20.42,1.34,5.5.37,11,.63,16.49,1.14,4.72.43,9.41,1.13,14.11,1.74,2.81.37,5.63.68,8.4,1.25,4.39.89,8.93,1.25,13.06,3.22.36.17.68.41,1,.59,1,.49,1.38,1.1.37,2l.81.86c-1.12.85-2.17,1.56-3.63,1.23a1,1,0,0,0-.79.09,7.09,7.09,0,0,1-5.14,2.28ZM398.16,409.92l-.13-.37-11,2.65.13.54Zm7.35-29.56.11.36,4-.69,0-.3-3.05-.89Zm80.6,18.49v-.26h-8.22v.26Zm28.65,1.66a2.64,2.64,0,0,0,0,.42c1.51.78,4.84,1.07,5.13.55Zm.16-2.46-.13.4c2.51,1.19,2.51,1.19,3.75.39Zm-87.48-19.6.08.64,3.85-.67-.05-.38ZM490,374.33v-.24h-5.62v.24Zm-31.28,26.36v-.59l-4.25.32,0,.27ZM448.64,390l0-.34a2.41,2.41,0,0,0-2.56,0v.47Zm-2.55-13.22,0-.33-4.5.52.05.39Zm.23,25.13,0-.34-3.65.55.05.35ZM461.4,375l0,.4,2.81-.21,0-.34Zm-38.51,4,0,.57,2.22-.39-.06-.4Zm17.52-1.86,0-.16-2.06.15,1.17,1.1-.66-.87ZM412,407.34l-.06-.42-2.61.38.05.38Zm109.45-22.68,16.26-.44,0-.38-16.25.47ZM478.91,388l-13.39,1.67.05.44,13.38-1.8Zm59.83-3.7h8.55v-.32h-8.55ZM473.24,402l13.1-.64v-.2l-13.09.52Zm-2-.14-11.19,1,0,.39,11.17-1.12Zm-83.89-15.94c.17-.05.17-.59.25-.91-2.2,0-2.76.22-3.09,1.6C385.59,386.37,386.49,386.21,387.36,385.92Zm83.93-8.17,10.8-.36v0H471.25C471.28,377.63,471.29,377.75,471.29,377.75Zm43.2,6.89-4.37.63,0,.24,7.21-.49,0-.23-3-.38Zm-21.19,1.78-7,.81,0,.22,7-.6Zm82.17-1.74c.49,1.4,1.72,1.34,2.87,1.49.41-.71.11-1-.55-1.06s-1.56-.28-2.34-.42ZM503,376.83l-5.82-.35,0,.44H503Zm-48.63,14.73,4-.62,0-.26-4,.46Zm-70.24-6.47,3.47-.83-.07-.35-3.49.7Zm40.83,12-2.86.86.12.39,2.88-.83Zm63.72-20c0,.76,0,.76,2,.29Zm-19.84.67-4.43.35v.22l4.44-.25Zm31,24.09,2.63.35.06-.51-2.65-.17ZM382.44,385l-3.39.58.08.42,3.37-.71Zm170.12-.83-2.4-.11,0,.42h2.34Zm-28.31-14.89-5.4-.36v.2l5.41.26Zm-104.9,29.4-3.6,1,.09.31,3.6-1.08ZM558,384.75l-4.26-.35,0,.21L558,385ZM406.64,410.84l-2.58.38,0,.12h2.59Z" style="fill:none"/></clipPath><clipPath id="clip-path-2-science" transform="translate(-0.95 -1.62)"><path id="science-clip-3" d="M623.7,238.56c1.82,1.46,2.11,1.62,1.74,2.84,1.15.27,1.43-.56,1.66-1.33.18-.6.19-1.25.32-1.87a.85.85,0,0,1,.37-.53.64.64,0,0,1,.58.23,5.77,5.77,0,0,1,.53,2c0,1.07-.22,1.11-1.39,1.28a1.94,1.94,0,0,0-.06.43c.18,1.7-1.06,2.7-2.78,2.38a7.29,7.29,0,0,0-3-.09c-2.4.58-4.8.19-7.19.22-1.54,0-3.07.1-4.61.16v.53l10.36.38v.52c-1.43.08-2.86.21-4.29.21-2.14,0-4.29-.12-6.44-.12-2,0-3.89.14-5.84.16-4.73.05-9.47,0-14.2.11-3.11.06-6.22.27-9.33.36-2.88.07-5.76.13-8.63.08-2.33,0-4.65-.26-7-.4-.11,0-.29-.06-.33,0-.92,1.12-2.17.55-3.26.6-5.19.21-10.38.33-15.56.51-1.72.05-3.43.24-5.14.23a23.13,23.13,0,0,1-3.13-.45l-2.74.89a.81.81,0,0,1-.59,0c-2.27-1.32-4.45.19-6.67.26-5.5.16-11,.67-16.48,1-1.85.09-3.71-.14-5.56-.07-1.12,0-2.22.45-3.34.59-2,.26-4.09.78-6,.52a13,13,0,0,0-3.62.32c-2,.24-4,.13-5.94.21-.46,0-.91.33-1.38.34-1.45.06-2.91-.1-4.34.06-2.66.31-5.29.82-7.94,1.19a4.81,4.81,0,0,1-1.43-.21,2.24,2.24,0,0,0-.79-.14c-2.23.45-4.45.95-6.69,1.38a4.12,4.12,0,0,1-1.22-.13v-1.32l1.45-.66-.07-.32-1.63.16.06-.31a7,7,0,0,0-4.54-.65,13.74,13.74,0,0,1-.63-1.74c-.17-.78-.15-1.54.76-1.9,1.47-.58,2.92-1.2,4.42-1.71a45.15,45.15,0,0,1,6.2-1.88q7.64-1.41,15.35-2.45c6.12-.83,12.26-1.52,18.4-2.18,5-.54,10.08-1,15.12-1.39,2.7-.22,5.39-.4,8.09-.5q11.21-.42,22.4-.75c3.7-.11,7.41-.21,11.12-.17a8.05,8.05,0,0,1,2.56,1c-.06-.69.38-1,1.34-1,8.75,0,17.51,0,26.27.06,2,0,4.09.36,6.14.45,1.37.06,2.75-.09,4.12-.09.93,0,1.85.14,2.78.17,1.58,0,3.16,0,4.73.08,2.42.18,4.82.54,7.24.73,1.63.13,3.26.06,4.89.15s3.17.22,4.75.37c.24,0,.45.24.68.37C624.11,238,623.91,238.26,623.7,238.56Zm11.58,4c-.23-.11-.53-.39-.68-.32a4.09,4.09,0,0,1-3.22-.11c-.13,0-.38.27-.58.42.2.16.38.45.58.47.9.09,1.81.13,2.72.13a6.85,6.85,0,0,0,1.17-.21Zm4-1.41-4.79-.36,0,.49,4.75.47Zm-6.72-.44c-.14-.63-.4-1.22-1.2-1.09-.25,0-.42.56-.62.86l1.56.71Z" style="fill:none"/></clipPath><clipPath id="clip-path-3-science" transform="translate(-0.95 -1.62)"><path id="science-clip-2" d="M68.4,233.51c.83.25,1.68.43,2.48.74,1.81.72,3.61,1.49,5.41,2.25.84.35,1.83.36,2.32,1.42.27.58,1.48.45,1.77-.34.47,1.88,1.87,1,2.88,1.25a113.36,113.36,0,0,0,18.63,2.23c3.31.15,6.68,0,9.91.6a59.75,59.75,0,0,0,9.7.47c6.29.1,12.6-.32,18.89-.76,6.12-.42,12.22-1.06,18.31-1.76,3.76-.43,7.48-1.18,11.23-1.74,2.68-.41,5.37-.73,8-1.13,1.25-.19,2.49-.47,3.73-.73,4.8-1,9.6-2,14.41-3,1.65-.32,3.34-.41,5-.6l.1.44-7.84,1.76,0,.58h3.17c1-.34,2-.79,3.06-1,2.71-.65,5.43-1.2,8.15-1.79,3.89-.83,7.78-1.68,11.69-2.47a6.88,6.88,0,0,1,2.9,0,13.91,13.91,0,0,0,1.34.87,1.26,1.26,0,0,1,0,2.11,9,9,0,0,1-2.22,1.15c-3.54,1.21-7.11,2.33-10.65,3.53a27.25,27.25,0,0,0-2.63,1.25c2.39-.46,4.48-.89,6.59-1.26s3.79-1.93,6.33-1.56a3.53,3.53,0,0,1-.59.48,85.24,85.24,0,0,1-13,4c-3.12.63-6.22,1.43-9.33,2.11-4.06.89-8.09,1.85-12.18,2.58-7.1,1.27-14.22,2.42-21.35,3.54-4.88.76-9.82,1.17-14.65,2.15-5.14,1-10.35,1.19-15.53,1.76-1.94.21-3.91.23-5.86.26-7.51.1-15,.38-22.53.18-7.94-.21-15.87-.74-23.78-1.43a47.68,47.68,0,0,1-8.7-2.09c-2.74-.79-5.43-1.79-8.14-2.7l-.18.43,10,4.28-.07.25c-.17,0-.36.06-.5,0-3.94-1.73-8-3.24-11.77-5.31-2.46-1.35-4.47-3.53-6.68-5.33a2.08,2.08,0,0,0-.57-.44c-2.41-.82-3.41-3.07-4.9-4.82-.66-.78-1.26-1.63-1.89-2.44a7.71,7.71,0,0,1-.67-.84c-1.15-1.89-2.3-3.79-3.38-5.72a7.56,7.56,0,0,1-.51-1.81c-.3-1.13-.67-2.24-.87-3.38a16.78,16.78,0,0,1-.09-2.66c0-.23.17-.51.08-.68-.84-1.69-.15-3.31.29-4.89.56-2.06,1.31-4.07,2.07-6.07a9.58,9.58,0,0,1,1.17-1.78q1.77-2.76,3.53-5.52l.24.35c.38.08.92.34,1.1.19a1.48,1.48,0,0,0,.5-1.19c-.26-1,.21-1.05.69-.9a30.18,30.18,0,0,1,2.89-2.81c2.23-1.66,4.54-3.21,6.86-4.76,2.1-1.4,4.17-2.86,6.37-4.09a77.2,77.2,0,0,1,7.28-3.49c2-.86,4.17-1.48,6.26-2.2l-1.65,1,.07.15,1-.29-.08.54.23.14,1.41-1.44-1-.09c1.69-.73,3.38-1.49,5.08-2.21,1.12-.47,2.26-.9,3.39-1.35a1.42,1.42,0,0,1,.44-.17,7.88,7.88,0,0,0,4-1.22c.08-.05.23,0,.42.09l-.2,1.6,4.53-2.14.18.34-.64.4.05.22,1.36-.25-.14-1.09-2.74.59-.08-.26c1-.29,1.92-.6,2.88-.87.17-.05.52.05.54.14.34,1.53,1.39,1,2.31.81,1.37-.24,2.57-.95,4-1.15,1.09-.16,2.09-1,3.33-1.69l-3.76.68a64.29,64.29,0,0,1,18-3.36l-9.41,1.57,0,.4h2.52a2.09,2.09,0,0,1,3.07-.35,16.81,16.81,0,0,1,2.23-.92c.32-.08.73.32,1.11.34s.93-.19,1.38-.15a25.43,25.43,0,0,1,2.58.37,2.48,2.48,0,0,0,2.4-.79c.45-.48,1-.68,1.55-.1s.92.62,1.36-.09a.93.93,0,0,1,.76-.36c3.14.31,6.26-.19,9.39-.25,4.7-.08,9.42-.06,14.11.26,3.77.26,7.56.18,11.31.68,5,.66,10,1.36,15.07,2.06,1.54.22,3.08.43,4.6.76a116,116,0,0,1,18,4.93.93.93,0,0,1,.57.57c-1.18-.32-2.35-.66-3.53-1s-2.39-.65-3.59-.93-2.46-.5-3.69-.75l-.08.37c2.25.62,4.52,1.16,6.74,1.87,3.12,1,6.2,2.11,9.28,3.2,1.47.52,2.94,1,4.37,1.65,2.32,1,4.91,1.63,6.81,3.14,1.47,1.18,3.3,1.31,4.63,2.49a4.3,4.3,0,0,1,1.13,1.5c-4.86-.53-9.2-2.86-14-3.48,1.5,1.66,3.8,1.49,5.7,2.18l-.18.43-9.21-2.65.34-1.07-.3-.26-1.13,1.15-1.35-.24q-6.1-1.16-12.22-2.29c-1.25-.23-2.53-.33-3.77-.6s-2.44.29-3.52-.56c-.06,0-.91-.44-.74.43a3.91,3.91,0,0,1-.76.07c-.57,0-1.14-.13-1.71-.19l-.06.44,7.77,1.12-.06.38c-4.57-.72-9.25-.58-13.76-1.73l0-.46,4.49.45.08-.27a17.53,17.53,0,0,0-1.73-.44c-.74-.13-1.5-.18-2.25-.26s-1.45-.14-1.24,1c-2.82-.19-5.52-.38-8.22-.53-1.83-.11-3.66-.16-5.49-.23-3-.13-6-.34-9-.36-4.62,0-9.25,0-13.87.12-2.51,0-5,.18-7.51.33-.86.05-1.7.29-2.55.4a1.77,1.77,0,0,1-.59-.12,2.23,2.23,0,0,1,.44-.43c.46-.29.93-.54,1.4-.8l-.2-.42-3.36,1.31.23.44a39.4,39.4,0,0,1-4.52,1.36c-2.07.38-4.2.43-6.28.76s-4,.79-5.91,1.25c-1.08.26-2.14.64-3.22.93-1.39.36-2.8.63-4.17,1s-2.54.94-3.83,1.35c-1,.32-2.08.5-3.12.77-1.74.44-3.5.83-5.21,1.39-.78.26-1.4,1.1-2.18,1.26a43.62,43.62,0,0,0-6.81,2.2,6.5,6.5,0,0,1-.91.1,13.44,13.44,0,0,0-1.37.41c-.25.1-.45.31-.69.39-2.14.68-4.34,1.22-6.41,2.05-1.87.75-3.6,1.86-5.42,2.75a6.29,6.29,0,0,0-2.77,1.83c-.63.87-2,1.13-2.94,1.82-3.54,2.59-7.34,4.89-10.21,8.27-1.34,1.57-3,3.06-3.5,5.16-.69,2.78-.4,3.19,2,4.9.67.48,1.05,1.33,1.65,1.91a22.66,22.66,0,0,0,2.88,2.49c2.92,2,5.75,4.19,9.2,5.28Zm85.88,7.74.06.49,16.33-2.46-.07-.44ZM135.62,180l-.15-.41-7.27,1,0,.33c2.24-.11,4.47-.2,6.7-.34C135.17,180.54,135.39,180.2,135.62,180Zm9.79,2a3.08,3.08,0,0,0-4.16.39ZM177.27,238v.44a14.78,14.78,0,0,0,1.89-.23c.24-.06.4-.43.6-.65-.26-.12-.57-.39-.77-.32A14,14,0,0,0,177.27,238ZM55.6,197.59c1.39.35,1.49-.81,2-1.46C56.52,196,55.94,196.52,55.6,197.59Zm131.48,38.87c.9-.06,1.64-.08,2.37-.17a1,1,0,0,0,.66-.39c.07-.1-.09-.51-.23-.57a1.24,1.24,0,0,0-.88-.07A21.36,21.36,0,0,0,187.08,236.46Zm-3.08,1c-1.05-1.48-1.88-.45-2.7-.3v.3ZM147.36,242l0,.32c1.37.25,3.28-.07,3.55-.67ZM92.94,177.92c1.34,1.42,1.64-.14,2.3-.73Zm17.67,6.28,0,.17h2.82l.27-1.1Zm-48.24,8.39.23.22,1.76-1.3-.11-.19-1.69.29Zm109.17,46.08,0,.39,2.53-.29-.07-.51Zm-114.6,5.42-1,1a27.13,27.13,0,0,1,2.94,1.32,72.68,72.68,0,0,0,13.9,6c7.57,2.58,15.4,3.39,23.32,3.74.3,0,.62-.28.84-.39a5.53,5.53,0,0,0,1.43.52c3.54.2,7.07.37,10.61.49,1,0,2.27.28,2.88-.22,1.09-.91,1.62.92,2.46.19l-.61-.5A273.73,273.73,0,0,0,162.51,252l-.06-.58-15.06,2.12-.07-.36,1.06-.28a12.56,12.56,0,0,0-2,.11c-2.53.32-5.05.73-7.59.95-4.16.35-8.33.66-12.51.85-4,.19-8,.3-11.95.3s-7.89-.19-11.84-.34c-4.1-.15-8.22-.22-12.31-.57A59.35,59.35,0,0,1,77.07,252a1.82,1.82,0,0,0-.89,0c-.18,1.2-.9.41-1.28.29-2.51-.79-5-1.59-7.49-2.5s-4.51-2.5-7.12-3.12C59,246.33,58,245,56.91,244.1Zm20.48,10.7a77.55,77.55,0,0,1-18.2-7C70.69,255,83.48,257,96.79,257,90.31,256.51,83.77,256.4,77.42,254.79Zm58.23,1.84a196,196,0,0,0,26.09-3.38l-26.11,3Zm-44.39-17.9A2.6,2.6,0,0,0,92,239q10,.63,20,1.21c.12,0,.24-.08.63-.23-.47-.06-.62-.09-.78-.1-3.74-.23-7.47-.47-11.21-.68-3.14-.18-6.28-.33-9.42-.49ZM56.9,244.1c-4.72-3.13-7.79-7.58-10.1-12.66a3.07,3.07,0,0,0,.14.67,24.83,24.83,0,0,0,4.3,7.9,12.63,12.63,0,0,0,5.7,4.08Zm106.52,7.8,12.75-2.3c-.84-.69-8.35.59-12.82,1.91Zm-50.53,5.47-14.81-.46v.38l14.82.38Zm94.55-26,8.38-2-.08-.33c-2,.41-4,.75-6,1.25a11.72,11.72,0,0,0-2.3,1.14Zm-139.64.73c-1.75-.91-3.43-1.93-5.14-2.9l0,0a4.49,4.49,0,0,0,.88,1.16c1.55,1.07,3.15,2.06,4.74,3.08l.09.08A1,1,0,0,0,67.8,232.11Zm56.12,24.6c-.91,0-2.37-.34-2.62.06-.62,1-1.37.58-2,.61-1.67.08-3.34,0-5,0a19.66,19.66,0,0,0,4.4.08c1.24-.17,2.65.78,3.76-.57.21-.25,1,0,1.5,0Zm47.35-5.38-7.3,1.32.07.34,7.27-1.38Zm-19.71-82.12h7.14V169h-7.14Zm55.89,62.18c-.41-.13-.84-.42-1.21-.36a20.09,20.09,0,0,0-2.74.72,3,3,0,0,0-.72.48l.12.32,4.54-1.17S207.45,231.4,207.45,231.39Zm-57.12-62.52h-7.59v.22h7.59ZM91.24,238.76l-5.2-.95-.08.65,5.3.27ZM129,256.54a3.08,3.08,0,0,0-.53,0,13.71,13.71,0,0,1-1.63.38c-1.2.11-2.4.13-3.6.19l0,.35c1.92-.24,3.91.15,5.77-.62Zm43.61-5.13,4.95-1,0-.23-5,.92Zm-35.25-11.68-4.52.27,0,.34,4.47-.62ZM62.66,229.21l-3.82-2.33-.19.38,4,1.93Zm74.66,10.52h5.11l0-.34-5.08.34Zm35.07-69.66-3.22-.31,0,.31,3.23.25Zm-39.2,86.57h1.64v-.32h-1.62Zm-1.24-.31-2.14.6,0,.19,2.2-.23Z" style="fill:none"/></clipPath><clipPath id="clip-path-4-science" transform="translate(-0.95 -1.62)"><path id="science-clip-1" d="M546.86,178.77c1.82,1.47,2.11,1.63,1.74,2.84,1.15.28,1.43-.55,1.66-1.33.18-.6.19-1.25.32-1.86a.74.74,0,0,1,.37-.53.64.64,0,0,1,.58.23,5.66,5.66,0,0,1,.53,2c-.06,1.07-.22,1.11-1.39,1.28a1.93,1.93,0,0,0-.06.42c.18,1.71-1.06,2.7-2.78,2.38a7.46,7.46,0,0,0-3-.08c-2.4.58-4.8.19-7.2.21-1.53,0-3.07.11-4.6.17V185l10.36.37v.53c-1.43.07-2.86.21-4.29.21-2.15,0-4.3-.12-6.45-.12-1.94,0-3.89.13-5.83.15-4.73,0-9.47,0-14.2.12-3.11,0-6.22.27-9.33.35-2.88.08-5.76.14-8.63.08-2.33,0-4.65-.25-7-.39-.12,0-.29-.07-.34,0-.91,1.12-2.16.55-3.25.59-5.19.21-10.38.34-15.57.51-1.71.06-3.42.24-5.14.23a23.22,23.22,0,0,1-3.12-.45c-.78.26-1.76.59-2.75.9a.93.93,0,0,1-.59,0c-2.26-1.32-4.44.19-6.66.25-5.5.16-11,.68-16.49,1-1.84.1-3.71-.13-5.55-.06-1.12,0-2.22.45-3.34.59-2,.25-4.09.78-6.05.52a13.07,13.07,0,0,0-3.63.32c-1.95.23-3.95.12-5.93.21-.46,0-.92.32-1.38.34-1.45.05-2.91-.11-4.34.06-2.66.31-5.29.82-7.94,1.19a5.18,5.18,0,0,1-1.43-.22,2.56,2.56,0,0,0-.79-.13c-2.23.45-4.46.95-6.69,1.38a4.12,4.12,0,0,1-1.22-.14V192.1l1.45-.65-.07-.33-1.63.16.06-.31a7,7,0,0,0-4.55-.64,17.87,17.87,0,0,1-.63-1.75c-.17-.77-.14-1.53.77-1.89,1.46-.59,2.92-1.21,4.41-1.71a46,46,0,0,1,6.2-1.88c5.1-.94,10.22-1.77,15.35-2.46,6.13-.83,12.27-1.52,18.41-2.18,5-.53,10.08-1,15.12-1.38q4-.35,8.09-.5,11.21-.42,22.4-.75c3.7-.11,7.41-.22,11.11-.18a8.26,8.26,0,0,1,2.57,1c-.06-.68.38-1,1.33-1,8.76,0,17.52,0,26.27,0,2,0,4.1.37,6.15.46,1.37.06,2.75-.09,4.12-.09.93,0,1.85.14,2.78.16,1.57,0,3.16,0,4.72.08,2.43.19,4.83.54,7.25.74,1.62.12,3.26.06,4.89.14s3.17.22,4.75.37c.23,0,.45.25.68.38Zm11.58,4c-.23-.12-.53-.39-.68-.33a4.14,4.14,0,0,1-3.22-.1c-.13-.05-.38.27-.58.41.2.17.38.45.58.47.9.09,1.81.13,2.71.14a6,6,0,0,0,1.18-.22Zm4-1.42-4.79-.35,0,.48,4.75.47Zm-6.72-.44c-.14-.63-.4-1.21-1.2-1.08-.25,0-.42.56-.62.86l1.56.7Z" style="fill:none"/></clipPath></defs><title>science</title><g id="Layer_2" data-name="Layer 2"><g id="assets"><g id="science"><path d="M265.82,1.81h1l1.61,6.29c.25,1,.48,1.9.63,2.61h0c.14-.7.36-1.65.6-2.59l1.54-6.31h1.05l1.57,6.36c.24.94.45,1.75.59,2.54h0c.18-.83.38-1.57.6-2.49l1.63-6.41h1l-2.75,10.37H274l-2.19-9h0l-2.23,9h-.94Z" transform="translate(-0.95 -1.62)" style="fill:#231f20"/><path d="M285.14,1.81h6.19v.93h-5.19V6.25H290v.9h-3.88v4.12h5.49v.91h-6.49Z" transform="translate(-0.95 -1.62)" style="fill:#231f20"/><path d="M308,1.81h1v9.46H314v.91H308Z" transform="translate(-0.95 -1.62)" style="fill:#231f20"/><path d="M321.47,1.81h6.19v.93h-5.19V6.25h3.88v.9h-3.88v4.12H328v.91h-6.49Z" transform="translate(-0.95 -1.62)" style="fill:#231f20"/><path d="M338.37,1.77h1.08l3.67,10.41h-1L341,9h-4.21l-1.1,3.19h-1Zm2.3,6.33L338.89,3h0L337.08,8.1Z" transform="translate(-0.95 -1.62)" style="fill:#231f20"/><path d="M350.55,1.81h2.62c3.37,0,5.15,1.76,5.15,5.17s-1.82,5.2-5.15,5.2h-2.62Zm2.77,9.47c2.57,0,4-1.3,4-4.3s-1.46-4.24-4-4.24h-1.75v8.54Z" transform="translate(-0.95 -1.62)" style="fill:#231f20"/><path d="M373.65,1.81h1l1.61,6.29c.25,1,.48,1.9.63,2.61h0c.14-.7.36-1.65.6-2.59l1.54-6.31h1.05l1.57,6.36c.24.94.45,1.75.59,2.54h0c.18-.83.37-1.57.6-2.49l1.62-6.41h1l-2.75,10.37h-.94l-2.2-9h0l-2.22,9h-.94Z" transform="translate(-0.95 -1.62)" style="fill:#231f20"/><path d="M393.11,1.81h1V12.18h-1Z" transform="translate(-0.95 -1.62)" style="fill:#231f20"/><path d="M405,2.74h-3.35V1.81h7.69v.93H406v9.44h-1Z" transform="translate(-0.95 -1.62)" style="fill:#231f20"/><path d="M416.74,1.81h1V6.25h5.61V1.81h1V12.18h-1v-5h-5.61v5h-1Z" transform="translate(-0.95 -1.62)" style="fill:#231f20"/><path d="M440.83,9.63l.89-.32a2.91,2.91,0,0,0,3,2.18c1.55,0,2.56-.71,2.56-1.87s-.52-1.63-2.72-2.33-3.36-1.3-3.36-3c0-1.49,1.33-2.66,3.22-2.66A3.46,3.46,0,0,1,448,4l-.84.39a2.66,2.66,0,0,0-2.73-1.88c-1.39,0-2.23.75-2.23,1.7,0,1.16.69,1.55,2.87,2.25s3.23,1.41,3.23,3.09-1.53,2.83-3.61,2.83A3.75,3.75,0,0,1,440.83,9.63Z" transform="translate(-0.95 -1.62)" style="fill:#231f20"/><path d="M455.39,7c0-3.14,1.73-5.34,4.32-5.34,2.1,0,3.26,1.24,3.75,3.16l-.95.24c-.46-1.64-1.23-2.49-2.81-2.49-2,0-3.31,1.74-3.31,4.4,0,2.87,1.32,4.55,3.33,4.55,1.54,0,2.51-.9,3-2.63l.95.21a3.9,3.9,0,0,1-3.92,3.32C457.09,12.38,455.39,10.26,455.39,7Z" transform="translate(-0.95 -1.62)" style="fill:#231f20"/><path d="M471.42,1.81h1V12.18h-1Z" transform="translate(-0.95 -1.62)" style="fill:#231f20"/><path d="M480.82,1.81H487v.93h-5.2V6.25h3.88v.9h-3.88v4.12h5.49v.91h-6.48Z" transform="translate(-0.95 -1.62)" style="fill:#231f20"/><path d="M494.87,1.81h1.07l5.71,8.55h0V1.81h.94V12.18h-.88l-5.9-8.81h0v8.81h-.94Z" transform="translate(-0.95 -1.62)" style="fill:#231f20"/><path d="M510.37,7c0-3.14,1.72-5.34,4.32-5.34,2.1,0,3.26,1.24,3.75,3.16l-1,.24c-.46-1.64-1.24-2.49-2.82-2.49-2,0-3.3,1.74-3.3,4.4,0,2.87,1.31,4.55,3.33,4.55,1.54,0,2.51-.9,3-2.63l1,.21a3.91,3.91,0,0,1-3.92,3.32C512.07,12.38,510.37,10.26,510.37,7Z" transform="translate(-0.95 -1.62)" style="fill:#231f20"/><path d="M526.26,1.81h6.19v.93h-5.19V6.25h3.88v.9h-3.88v4.12h5.49v.91h-6.49Z" transform="translate(-0.95 -1.62)" style="fill:#231f20"/><path d="M252.82,176.42l-13.4-50.31h13.67l4.28,19.79a89.33,89.33,0,0,1,2.18,10.4h.14a98.52,98.52,0,0,1,2-10.34l4.14-19.85h12.31L282.67,146a88.89,88.89,0,0,1,2.24,10.27h.14a95.29,95.29,0,0,1,1.9-10.13l4-20.06h12.45l-13.06,50.31H279l-6.87-31.48H272l-7.61,31.48Z" transform="translate(-0.95 -1.62)" style="fill:#231f20"/><path d="M300.62,158.27c0-14.62,11.77-19,19.18-19,7.2,0,17.54,2.58,17.54,20.74v2H314c.68,4.76,3.33,5.91,7.27,5.91s8.09-1.9,10.47-3.33l4.83,8.16a29.76,29.76,0,0,1-16.32,4.35C310.28,177.17,300.62,173,300.62,158.27Zm24.82-3.87c-.54-4.36-2.51-5.72-5.71-5.72-2.65,0-4.76,1.57-5.58,5.72Z" transform="translate(-0.95 -1.62)" style="fill:#231f20"/><path d="M358,171.94l5-7.55a23,23,0,0,0,13,4.42c2.31,0,4.35-.68,4.35-2.38,0-1.9-1.7-2.52-5.64-3.06-6.19-.88-15-2.31-15-11.76,0-8.16,6.67-12.31,14.89-12.31,8,0,12.58,1.84,17,5l-5,7.41c-3.95-2.31-7.82-3.67-10.75-3.67-2.24,0-3.73.68-3.73,2.31s1.9,2.32,5.57,2.79c6.19.82,15,2.18,15,11,0,9.65-8.3,13-16.73,13S362,174.86,358,171.94Z" transform="translate(-0.95 -1.62)" style="fill:#231f20"/><path d="M399.5,165.48V149.64h-5.92V140h5.92V127.74H413V140h9.31v9.66H413v12.85c0,3.87,1,4.82,4.76,4.82a16.07,16.07,0,0,0,3.53-.4v9.38a63.6,63.6,0,0,1-8.22.61C400.65,176.9,399.5,172.55,399.5,165.48Z" transform="translate(-0.95 -1.62)" style="fill:#231f20"/><path d="M426.15,166.63V140h13.46v22.57c0,2.52.82,3.95,3.06,3.95a9.72,9.72,0,0,0,6.05-2.59V140h13.47v36.44H448.72v-5.57a13.88,13.88,0,0,1-12.1,6.32C430.91,177.17,426.15,174.45,426.15,166.63Z" transform="translate(-0.95 -1.62)" style="fill:#231f20"/><path d="M466.88,158.61c0-12.51,5.44-19.31,13.74-19.31,4.89,0,8.16,1.43,10.67,5V126.11h13.46v41.48c0,4.35.28,7,1.09,8.83H492.11c-.55-.74-.82-3.6-.82-5.43a12.33,12.33,0,0,1-10.81,6C472.25,177,466.88,171.12,466.88,158.61Zm24.41,5.71V152.63a7.49,7.49,0,0,0-5.57-2.31c-4,0-5.38,3.06-5.38,8.22,0,4.49,1,8.43,5.51,8.43A8.45,8.45,0,0,0,491.29,164.32Z" transform="translate(-0.95 -1.62)" style="fill:#231f20"/><path d="M506.8,188.87l2.79-10.34a29.53,29.53,0,0,0,7.68,1.09c1.7,0,2.85-.48,3.47-2.11l.34-.88L507.21,140H521l6.73,20.81h.14L534.61,140h13L532.36,180.1c-2.38,6.25-6,10.26-13.46,10.26A40.85,40.85,0,0,1,506.8,188.87Z" transform="translate(-0.95 -1.62)" style="fill:#231f20"/><path d="M547.39,185.06l3.4-8.64h-5.37V164.19H559.5v10.4l-5.85,10.47Z" transform="translate(-0.95 -1.62)" style="fill:#231f20"/><path d="M106.89,227.48V211.64H101V202h5.91V189.74h13.47V202h9.31v9.66h-9.31v12.85c0,3.87,1,4.82,4.76,4.82a16.07,16.07,0,0,0,3.53-.4v9.38a63.63,63.63,0,0,1-8.23.61C108.05,238.9,106.89,234.55,106.89,227.48Z" transform="translate(-0.95 -1.62)" style="fill:#231f20"/><path d="M131.92,220.27c0-14.62,11.76-19,19.17-19,7.21,0,17.54,2.58,17.54,20.74v2H145.31c.68,4.76,3.33,5.91,7.28,5.91s8.09-1.9,10.47-3.33l4.83,8.16a29.8,29.8,0,0,1-16.32,4.35C141.57,239.17,131.92,235,131.92,220.27Zm24.82-3.87c-.55-4.36-2.52-5.72-5.72-5.72-2.65,0-4.76,1.57-5.57,5.72Z" transform="translate(-0.95 -1.62)" style="fill:#231f20"/><path d="M169.86,233.94l5-7.55a23,23,0,0,0,13,4.42c2.31,0,4.35-.68,4.35-2.38,0-1.9-1.7-2.52-5.64-3.06-6.19-.88-15-2.31-15-11.76,0-8.16,6.66-12.31,14.89-12.31,8,0,12.58,1.84,17,5l-5,7.41c-3.94-2.31-7.81-3.67-10.74-3.67-2.24,0-3.74.68-3.74,2.31s1.91,2.32,5.58,2.79c6.18.82,15,2.18,15,11,0,9.65-8.29,13-16.72,13S173.87,236.86,169.86,233.94Z" transform="translate(-0.95 -1.62)" style="fill:#231f20"/><path d="M211.34,227.48V211.64h-5.91V202h5.91V189.74H224.8V202h9.32v9.66H224.8v12.85c0,3.87,1,4.82,4.76,4.82a16.09,16.09,0,0,0,3.54-.4v9.38a63.79,63.79,0,0,1-8.23.61C212.5,238.9,211.34,234.55,211.34,227.48Z" transform="translate(-0.95 -1.62)" style="fill:#231f20"/><path d="M254.59,228.63c0-8.16,7.55-13.12,22.5-13.8v-.47c0-1.77-.88-3.06-4-3.06a19.78,19.78,0,0,0-11.22,3.94l-5.5-7.62c3.33-3,9-6.32,18.83-6.32,10.74,0,15,5,15,15.3v13c0,4.35.27,7,1,8.83H277.91a17.2,17.2,0,0,1-.82-5.3A14.49,14.49,0,0,1,265,239C259.76,239,254.59,235.77,254.59,228.63Zm22.5-1.76V221.7c-6.52.2-9.38,1.9-9.38,4.69,0,1.77,1.29,2.58,3,2.58C274,229,275.94,228,277.09,226.87Z" transform="translate(-0.95 -1.62)" style="fill:#231f20"/><path d="M296.54,202H310v5.64a13.9,13.9,0,0,1,12.1-6.32c5.71,0,10.47,2.72,10.47,10.54v26.58H319.12V216.26c0-2.52-.82-3.94-3.06-3.94A9.7,9.7,0,0,0,310,214.9v23.52H296.54Z" transform="translate(-0.95 -1.62)" style="fill:#231f20"/><path d="M336.87,220.61c0-12.51,5.44-19.31,13.73-19.31,4.9,0,8.16,1.43,10.68,5V188.11h13.46v41.48c0,4.35.27,7,1.09,8.83H362.09c-.54-.74-.81-3.6-.81-5.43a12.34,12.34,0,0,1-10.81,6C342.24,239,336.87,233.12,336.87,220.61Zm24.41,5.71V214.63a7.52,7.52,0,0,0-5.58-2.31c-4,0-5.37,3.06-5.37,8.22,0,4.49,1,8.43,5.51,8.43A8.45,8.45,0,0,0,361.28,226.32Z" transform="translate(-0.95 -1.62)" style="fill:#231f20"/><path d="M398.2,220.27c0-14.62,11.77-19,19.18-19,7.2,0,17.54,2.58,17.54,20.74v2H411.6c.68,4.76,3.33,5.91,7.27,5.91s8.09-1.9,10.47-3.33l4.83,8.16a29.78,29.78,0,0,1-16.32,4.35C407.86,239.17,398.2,235,398.2,220.27ZM423,216.4c-.54-4.36-2.52-5.72-5.71-5.72-2.65,0-4.76,1.57-5.58,5.72Z" transform="translate(-0.95 -1.62)" style="fill:#231f20"/><path d="M446.82,238.42,434,202h13.8l6.4,21.69h.13L460.76,202h12.51l-12.85,36.44Z" transform="translate(-0.95 -1.62)" style="fill:#231f20"/><path d="M472.19,228.63c0-8.16,7.54-13.12,22.5-13.8v-.47c0-1.77-.88-3.06-4-3.06a19.76,19.76,0,0,0-11.22,3.94L474,207.62c3.34-3,9.05-6.32,18.84-6.32,10.74,0,15,5,15,15.3v13c0,4.35.28,7,1,8.83H495.51a17.2,17.2,0,0,1-.82-5.3,14.49,14.49,0,0,1-12.1,5.85C477.35,239,472.19,235.77,472.19,228.63Zm22.5-1.76V221.7c-6.53.2-9.38,1.9-9.38,4.69,0,1.77,1.29,2.58,3,2.58C491.63,229,493.54,228,494.69,226.87Z" transform="translate(-0.95 -1.62)" style="fill:#231f20"/><path d="M514.41,238.42V188.11h13.47v50.31Z" transform="translate(-0.95 -1.62)" style="fill:#231f20"/><path d="M534.54,228.63V202H548v22.57c0,2.52.82,3.95,3.06,3.95a9.72,9.72,0,0,0,6.05-2.59V202h13.47v36.44H557.11v-5.57a13.88,13.88,0,0,1-12.1,6.32C539.3,239.17,534.54,236.45,534.54,228.63Z" transform="translate(-0.95 -1.62)" style="fill:#231f20"/><path d="M574.73,228.63c0-8.16,7.55-13.12,22.5-13.8v-.47c0-1.77-.88-3.06-4-3.06A19.78,19.78,0,0,0,582,215.24l-5.5-7.62c3.33-3,9-6.32,18.83-6.32,10.74,0,15,5,15,15.3v13c0,4.35.27,7,1,8.83H598.05a17.2,17.2,0,0,1-.82-5.3,14.49,14.49,0,0,1-12.1,5.85C579.9,239,574.73,235.77,574.73,228.63Zm22.5-1.76V221.7c-6.52.2-9.38,1.9-9.38,4.69,0,1.77,1.29,2.58,3,2.58C594.17,229,596.08,228,597.23,226.87Z" transform="translate(-0.95 -1.62)" style="fill:#231f20"/><path d="M619.67,227.48V211.64h-5.91V202h5.91V189.74h13.47V202h9.31v9.66h-9.31v12.85c0,3.87,1,4.82,4.76,4.82a16.07,16.07,0,0,0,3.53-.4v9.38a63.6,63.6,0,0,1-8.22.61C620.83,238.9,619.67,234.55,619.67,227.48Z" transform="translate(-0.95 -1.62)" style="fill:#231f20"/><path d="M644.7,220.27c0-14.62,11.76-19,19.17-19,7.21,0,17.55,2.58,17.55,20.74v2H658.09c.68,4.76,3.34,5.91,7.28,5.91s8.09-1.9,10.47-3.33l4.83,8.16a29.8,29.8,0,0,1-16.32,4.35C654.35,239.17,644.7,235,644.7,220.27Zm24.82-3.87c-.55-4.36-2.52-5.72-5.71-5.72-2.66,0-4.76,1.57-5.58,5.72Z" transform="translate(-0.95 -1.62)" style="fill:#231f20"/><path d="M683.73,238.42V226.19h14.08v12.23Z" transform="translate(-0.95 -1.62)" style="fill:#231f20"/><path d="M14.35,300.42,1,250.11H14.62L18.9,269.9a89.33,89.33,0,0,1,2.18,10.4h.13a101.17,101.17,0,0,1,2-10.34l4.15-19.85H39.71L44.2,270a88.89,88.89,0,0,1,2.24,10.27h.14a95.29,95.29,0,0,1,1.9-10.13l4-20.06H64.93L51.88,300.42H40.52l-6.86-31.48h-.14l-7.61,31.48Z" transform="translate(-0.95 -1.62)" style="fill:#231f20"/><path d="M62.15,282.27c0-14.62,11.76-19,19.18-19,7.2,0,17.54,2.58,17.54,20.74v2H75.55c.68,4.76,3.33,5.91,7.27,5.91s8.09-1.9,10.47-3.33l4.83,8.16a29.78,29.78,0,0,1-16.32,4.35C71.81,301.17,62.15,297,62.15,282.27ZM87,278.4c-.55-4.36-2.52-5.72-5.71-5.72-2.65,0-4.76,1.57-5.58,5.72Z" transform="translate(-0.95 -1.62)" style="fill:#231f20"/><path d="M117.91,306.14c0-3.47,3-5.58,5.71-6.94a5.12,5.12,0,0,1-2.17-4.21c0-3.4,2.65-6.26,5.64-8.23a11.71,11.71,0,0,1-6.19-10.47c0-7.14,5.71-13,17.14-13,5.84,0,10.2,1.56,12.92,4a17.26,17.26,0,0,1,9.79-3.94v10a27.1,27.1,0,0,0-6,.62,20.42,20.42,0,0,1,.14,2.31c0,7.14-5.44,13-16.86,13a33.31,33.31,0,0,1-5.44-.47,2.7,2.7,0,0,0-.55,1.36c0,1.29,1.5,1.36,3.54,1.43l4.49.13c14.07.41,19.31,3.47,19.31,10.81,0,7.89-9.79,11.49-22.44,11.49C122.74,314,117.91,311,117.91,306.14Zm29.85-1.3c0-1.76-.48-2.44-9.59-2.78l-5.17-.21a15.75,15.75,0,0,1-2.51-.2,5.74,5.74,0,0,0-.41,2c0,2.86,2.52,3.94,9.18,3.94C144.16,307.56,147.76,306.75,147.76,304.84Zm-4.76-28c0-2.92-1.56-5.3-4.76-5.3s-4.76,2.38-4.76,5.3,1.56,5.3,4.76,5.3S143,279.75,143,276.83Z" transform="translate(-0.95 -1.62)" style="fill:#231f20"/><path d="M160.21,290.63c0-8.16,7.54-13.12,22.5-13.8v-.47c0-1.77-.88-3.06-4-3.06a19.78,19.78,0,0,0-11.22,3.94L162,269.62c3.34-3,9.05-6.32,18.84-6.32,10.74,0,15,5,15,15.3v13c0,4.35.28,7,1,8.83H183.53a17.2,17.2,0,0,1-.82-5.3,14.49,14.49,0,0,1-12.1,5.85C165.37,301,160.21,297.77,160.21,290.63Zm22.5-1.76V283.7c-6.53.2-9.38,1.9-9.38,4.69,0,1.77,1.29,2.58,3,2.58C179.65,291,181.56,290,182.71,288.87Z" transform="translate(-0.95 -1.62)" style="fill:#231f20"/><path d="M205.15,289.48V273.64h-5.91V264h5.91V251.74h13.47V264h9.31v9.66h-9.31v12.85c0,3.87.95,4.82,4.76,4.82a16.07,16.07,0,0,0,3.53-.4v9.38a63.79,63.79,0,0,1-8.23.61C206.31,300.9,205.15,296.55,205.15,289.48Z" transform="translate(-0.95 -1.62)" style="fill:#231f20"/><path d="M232.15,300.42V250.11h13.46v19.51a13.91,13.91,0,0,1,12.1-6.32c5.72,0,10.48,2.72,10.48,10.54v26.58H254.72V278.26c0-2.52-.81-3.94-3.06-3.94a9.73,9.73,0,0,0-6,2.58v23.52Z" transform="translate(-0.95 -1.62)" style="fill:#231f20"/><path d="M272.54,282.27c0-14.62,11.76-19,19.17-19,7.21,0,17.55,2.58,17.55,20.74v2H285.94c.68,4.76,3.33,5.91,7.27,5.91s8.09-1.9,10.47-3.33l4.83,8.16a29.78,29.78,0,0,1-16.32,4.35C282.2,301.17,272.54,297,272.54,282.27Zm24.82-3.87c-.55-4.36-2.52-5.72-5.71-5.72-2.65,0-4.76,1.57-5.58,5.72Z" transform="translate(-0.95 -1.62)" style="fill:#231f20"/><path d="M313.88,300.42V264h13.47v5.64h.07a12.55,12.55,0,0,1,11.35-6.32h.14v11.9c-.55-.07-2.45-.27-3.4-.27a12.58,12.58,0,0,0-8.16,3.33v22.16Z" transform="translate(-0.95 -1.62)" style="fill:#231f20"/><path d="M359.58,282.27c0-14.62,11.76-19,19.17-19,7.21,0,17.55,2.58,17.55,20.74v2H373c.68,4.76,3.34,5.91,7.28,5.91s8.09-1.9,10.47-3.33l4.83,8.16a29.8,29.8,0,0,1-16.32,4.35C369.23,301.17,359.58,297,359.58,282.27Zm24.82-3.87c-.55-4.36-2.52-5.72-5.71-5.72-2.66,0-4.76,1.57-5.58,5.72Z" transform="translate(-0.95 -1.62)" style="fill:#231f20"/><path d="M408.2,300.42,395.35,264h13.8l6.39,21.69h.14L422.14,264h12.51L421.8,300.42Z" transform="translate(-0.95 -1.62)" style="fill:#231f20"/><path d="M437.1,260.44V250.11h13.46v10.33Zm0,40V264h13.46v36.44Z" transform="translate(-0.95 -1.62)" style="fill:#231f20"/><path d="M455.59,282.61c0-12.51,5.44-19.31,13.74-19.31,4.89,0,8.16,1.43,10.67,5V250.11h13.47v41.48c0,4.35.27,7,1.08,8.83H480.82c-.54-.74-.82-3.6-.82-5.43a12.33,12.33,0,0,1-10.81,6C461,301,455.59,295.12,455.59,282.61ZM480,288.32V276.63a7.49,7.49,0,0,0-5.57-2.31c-4,0-5.37,3.06-5.37,8.22,0,4.49,1,8.43,5.5,8.43A8.43,8.43,0,0,0,480,288.32Z" transform="translate(-0.95 -1.62)" style="fill:#231f20"/><path d="M498.16,282.27c0-14.62,11.76-19,19.17-19,7.21,0,17.55,2.58,17.55,20.74v2H511.56c.68,4.76,3.33,5.91,7.27,5.91s8.09-1.9,10.47-3.33l4.83,8.16a29.78,29.78,0,0,1-16.32,4.35C507.82,301.17,498.16,297,498.16,282.27ZM523,278.4c-.55-4.36-2.52-5.72-5.71-5.72-2.65,0-4.76,1.57-5.58,5.72Z" transform="translate(-0.95 -1.62)" style="fill:#231f20"/><path d="M539.57,264H553v5.64a13.93,13.93,0,0,1,12.11-6.32c5.71,0,10.47,2.72,10.47,10.54v26.58H562.15V278.26c0-2.52-.82-3.94-3.06-3.94A9.73,9.73,0,0,0,553,276.9v23.52H539.57Z" transform="translate(-0.95 -1.62)" style="fill:#231f20"/><path d="M579.9,282.27c0-15.16,11.15-19,19.17-19,10.74,0,14.55,5.44,16.66,11.56l-11.29,3.54c-1.15-4.42-3-5.44-5.51-5.44-4,0-5.57,3.67-5.57,9.38,0,5.3.95,9.52,5.44,9.52,2.17,0,4.69-1.09,5.91-5.85l11.15,3.74c-2.1,5.44-6.73,11.42-17.27,11.42C590,301.17,579.9,297.23,579.9,282.27Z" transform="translate(-0.95 -1.62)" style="fill:#231f20"/><path d="M617.23,282.27c0-14.62,11.76-19,19.17-19,7.21,0,17.54,2.58,17.54,20.74v2H630.62c.68,4.76,3.33,5.91,7.28,5.91s8.09-1.9,10.47-3.33l4.83,8.16a29.8,29.8,0,0,1-16.32,4.35C626.88,301.17,617.23,297,617.23,282.27Zm24.82-3.87c-.55-4.36-2.52-5.72-5.72-5.72-2.65,0-4.75,1.57-5.57,5.72Z" transform="translate(-0.95 -1.62)" style="fill:#231f20"/><path d="M674.82,290.63c0-8.16,7.55-13.12,22.51-13.8v-.47c0-1.77-.88-3.06-4-3.06a19.76,19.76,0,0,0-11.22,3.94l-5.51-7.62c3.33-3,9-6.32,18.83-6.32,10.75,0,15,5,15,15.3v13c0,4.35.27,7,1,8.83H698.14a17.52,17.52,0,0,1-.81-5.3,14.49,14.49,0,0,1-12.1,5.85C680,301,674.82,297.77,674.82,290.63Zm22.51-1.76V283.7c-6.53.2-9.38,1.9-9.38,4.69,0,1.77,1.29,2.58,3,2.58C694.27,291,696.17,290,697.33,288.87Z" transform="translate(-0.95 -1.62)" style="fill:#231f20"/><path d="M716.78,264h13.46v5.64a13.9,13.9,0,0,1,12.1-6.32c5.71,0,10.47,2.72,10.47,10.54v26.58H739.35V278.26c0-2.52-.81-3.94-3.06-3.94a9.73,9.73,0,0,0-6,2.58v23.52H716.78Z" transform="translate(-0.95 -1.62)" style="fill:#231f20"/><path d="M757.1,282.61c0-12.51,5.44-19.31,13.74-19.31,4.89,0,8.16,1.43,10.67,5V250.11H795v41.48c0,4.35.28,7,1.09,8.83H782.33c-.55-.74-.82-3.6-.82-5.43a12.33,12.33,0,0,1-10.81,6C762.47,301,757.1,295.12,757.1,282.61Zm24.41,5.71V276.63a7.49,7.49,0,0,0-5.57-2.31c-4,0-5.38,3.06-5.38,8.22,0,4.49,1,8.43,5.51,8.43A8.45,8.45,0,0,0,781.51,288.32Z" transform="translate(-0.95 -1.62)" style="fill:#231f20"/><path d="M20.67,368.14c0-3.47,3-5.58,5.71-6.94A5.12,5.12,0,0,1,24.21,357c0-3.4,2.65-6.26,5.64-8.23a11.71,11.71,0,0,1-6.19-10.47c0-7.14,5.72-13,17.14-13,5.85,0,10.2,1.56,12.92,4a17.26,17.26,0,0,1,9.79-3.94v10a27.14,27.14,0,0,0-6,.62,20.42,20.42,0,0,1,.14,2.31c0,7.14-5.44,13-16.86,13a33.31,33.31,0,0,1-5.44-.47,2.7,2.7,0,0,0-.55,1.36c0,1.29,1.5,1.36,3.54,1.43l4.49.13c14.07.41,19.31,3.47,19.31,10.81,0,7.89-9.79,11.49-22.44,11.49C25.5,376,20.67,373,20.67,368.14Zm29.85-1.3c0-1.76-.48-2.44-9.59-2.78l-5.16-.21a15.78,15.78,0,0,1-2.52-.2,5.74,5.74,0,0,0-.41,2c0,2.86,2.52,3.94,9.18,3.94C46.92,369.56,50.52,368.75,50.52,366.84Zm-4.76-28c0-2.92-1.56-5.3-4.76-5.3s-4.76,2.38-4.76,5.3,1.57,5.3,4.76,5.3S45.76,341.75,45.76,338.83Z" transform="translate(-0.95 -1.62)" style="fill:#231f20"/><path d="M64.19,344.27c0-14.62,11.77-19,19.18-19,7.2,0,17.54,2.58,17.54,20.74v2H77.59c.68,4.76,3.33,5.91,7.27,5.91s8.09-1.9,10.47-3.33l4.83,8.16a29.78,29.78,0,0,1-16.32,4.35C73.85,363.17,64.19,359,64.19,344.27ZM89,340.4c-.54-4.36-2.52-5.72-5.71-5.72-2.65,0-4.76,1.57-5.58,5.72Z" transform="translate(-0.95 -1.62)" style="fill:#231f20"/><path d="M105.6,326h13.47v5.64a13.9,13.9,0,0,1,12.1-6.32c5.71,0,10.47,2.72,10.47,10.54v26.58H128.18V340.26c0-2.52-.82-3.94-3.06-3.94a9.7,9.7,0,0,0-6.05,2.58v23.52H105.6Z" transform="translate(-0.95 -1.62)" style="fill:#231f20"/><path d="M145.93,344.27c0-14.62,11.76-19,19.17-19,7.21,0,17.54,2.58,17.54,20.74v2H159.32c.68,4.76,3.33,5.91,7.28,5.91s8.09-1.9,10.47-3.33l4.83,8.16a29.8,29.8,0,0,1-16.32,4.35C155.58,363.17,145.93,359,145.93,344.27Zm24.82-3.87c-.55-4.36-2.52-5.72-5.72-5.72-2.65,0-4.76,1.57-5.57,5.72Z" transform="translate(-0.95 -1.62)" style="fill:#231f20"/><path d="M187.27,362.42V326h13.46v5.64h.07a12.56,12.56,0,0,1,11.36-6.32h.13v11.9c-.54-.07-2.45-.27-3.4-.27a12.6,12.6,0,0,0-8.16,3.33v22.16Z" transform="translate(-0.95 -1.62)" style="fill:#231f20"/><path d="M212.63,352.63c0-8.16,7.55-13.12,22.51-13.8v-.47c0-1.77-.88-3.06-4-3.06a19.76,19.76,0,0,0-11.22,3.94l-5.51-7.62c3.33-3,9-6.32,18.84-6.32,10.74,0,15,5,15,15.3v13c0,4.35.28,7,1,8.83H236a17.2,17.2,0,0,1-.82-5.3A14.49,14.49,0,0,1,223,363C217.8,363,212.63,359.77,212.63,352.63Zm22.51-1.76V345.7c-6.53.2-9.38,1.9-9.38,4.69,0,1.77,1.29,2.58,3,2.58C232.08,353,234,352,235.14,350.87Z" transform="translate(-0.95 -1.62)" style="fill:#231f20"/><path d="M257.58,351.48V335.64h-5.91V326h5.91V313.74H271V326h9.32v9.66H271v12.85c0,3.87,1,4.82,4.76,4.82a16.09,16.09,0,0,0,3.54-.4v9.38a63.79,63.79,0,0,1-8.23.61C258.74,362.9,257.58,358.55,257.58,351.48Z" transform="translate(-0.95 -1.62)" style="fill:#231f20"/><path d="M282.61,344.27c0-14.62,11.76-19,19.17-19,7.21,0,17.54,2.58,17.54,20.74v2H296c.68,4.76,3.33,5.91,7.28,5.91s8.09-1.9,10.47-3.33l4.82,8.16a29.76,29.76,0,0,1-16.32,4.35C292.26,363.17,282.61,359,282.61,344.27Zm24.81-3.87c-.54-4.36-2.51-5.72-5.71-5.72-2.65,0-4.76,1.57-5.57,5.72Z" transform="translate(-0.95 -1.62)" style="fill:#231f20"/><path d="M342.72,362.42V326h13.46v5.64h.07a12.55,12.55,0,0,1,11.35-6.32h.14v11.9c-.55-.07-2.45-.27-3.4-.27a12.6,12.6,0,0,0-8.16,3.33v22.16Z" transform="translate(-0.95 -1.62)" style="fill:#231f20"/><path d="M368.29,344.27c0-14.62,11.76-19,19.17-19,7.21,0,17.54,2.58,17.54,20.74v2H381.68c.68,4.76,3.33,5.91,7.28,5.91s8.09-1.9,10.47-3.33l4.82,8.16a29.76,29.76,0,0,1-16.32,4.35C377.94,363.17,368.29,359,368.29,344.27Zm24.81-3.87c-.54-4.36-2.51-5.72-5.71-5.72-2.65,0-4.76,1.57-5.57,5.72Z" transform="translate(-0.95 -1.62)" style="fill:#231f20"/><path d="M410,362.42V312.11h13.46v50.31Z" transform="translate(-0.95 -1.62)" style="fill:#231f20"/><path d="M430.78,322.44V312.11h13.46v10.33Zm0,40V326h13.46v36.44Z" transform="translate(-0.95 -1.62)" style="fill:#231f20"/><path d="M448.73,352.63c0-8.16,7.54-13.12,22.5-13.8v-.47c0-1.77-.88-3.06-4-3.06A19.78,19.78,0,0,0,456,339.24l-5.5-7.62c3.33-3,9-6.32,18.83-6.32,10.74,0,15,5,15,15.3v13c0,4.35.27,7,1,8.83H472.05a17.2,17.2,0,0,1-.82-5.3,14.49,14.49,0,0,1-12.1,5.85C453.89,363,448.73,359.77,448.73,352.63Zm22.5-1.76V345.7c-6.52.2-9.38,1.9-9.38,4.69,0,1.77,1.29,2.58,3,2.58C468.17,353,470.08,352,471.23,350.87Z" transform="translate(-0.95 -1.62)" style="fill:#231f20"/><path d="M504.08,358.48v3.94H490.61V312.11h13.47v19.51c2.17-3.26,5.44-6.32,10.81-6.32,8.23,0,13.6,6.39,13.6,18.9S523.05,363,514.75,363C509.86,363,506.59,361.41,504.08,358.48ZM515,344.27c0-4.49-1-7.95-5.5-7.95a8.45,8.45,0,0,0-5.44,2.65v11.69a7.49,7.49,0,0,0,5.57,2.31C513.66,353,515,349.44,515,344.27Z" transform="translate(-0.95 -1.62)" style="fill:#231f20"/><path d="M533.52,362.42V312.11H547v50.31Z" transform="translate(-0.95 -1.62)" style="fill:#231f20"/><path d="M552,344.27c0-14.62,11.76-19,19.17-19,7.21,0,17.54,2.58,17.54,20.74v2H565.41c.68,4.76,3.33,5.91,7.28,5.91s8.09-1.9,10.47-3.33l4.83,8.16a29.8,29.8,0,0,1-16.32,4.35C561.67,363.17,552,359,552,344.27Zm24.81-3.87c-.54-4.36-2.51-5.72-5.71-5.72-2.65,0-4.76,1.57-5.57,5.72Z" transform="translate(-0.95 -1.62)" style="fill:#231f20"/><path d="M610.16,344.61c0-12.51,5.44-19.31,13.73-19.31,4.9,0,8.16,1.43,10.68,5V312.11H648v41.48c0,4.35.27,7,1.09,8.83H635.38c-.54-.74-.81-3.6-.81-5.43a12.35,12.35,0,0,1-10.82,6C615.53,363,610.16,357.12,610.16,344.61Zm24.41,5.71V338.63a7.52,7.52,0,0,0-5.58-2.31c-4,0-5.37,3.06-5.37,8.22,0,4.49,1,8.43,5.51,8.43A8.48,8.48,0,0,0,634.57,350.32Z" transform="translate(-0.95 -1.62)" style="fill:#231f20"/><path d="M652.18,352.63c0-8.16,7.55-13.12,22.51-13.8v-.47c0-1.77-.89-3.06-4-3.06a19.73,19.73,0,0,0-11.21,3.94L654,331.62c3.33-3,9-6.32,18.83-6.32,10.74,0,15,5,15,15.3v13c0,4.35.27,7,1,8.83H675.5a17.52,17.52,0,0,1-.81-5.3A14.52,14.52,0,0,1,662.58,363C657.35,363,652.18,359.77,652.18,352.63Zm22.51-1.76V345.7c-6.53.2-9.39,1.9-9.39,4.69,0,1.77,1.29,2.58,3,2.58C671.63,353,673.53,352,674.69,350.87Z" transform="translate(-0.95 -1.62)" style="fill:#231f20"/><path d="M697.13,351.48V335.64h-5.92V326h5.92V313.74h13.46V326h9.31v9.66h-9.31v12.85c0,3.87.95,4.82,4.76,4.82a16.07,16.07,0,0,0,3.53-.4v9.38a63.6,63.6,0,0,1-8.22.61C698.28,362.9,697.13,358.55,697.13,351.48Z" transform="translate(-0.95 -1.62)" style="fill:#231f20"/><path d="M721.61,352.63c0-8.16,7.54-13.12,22.5-13.8v-.47c0-1.77-.88-3.06-4-3.06a19.76,19.76,0,0,0-11.22,3.94l-5.51-7.62c3.34-3,9-6.32,18.84-6.32,10.74,0,15,5,15,15.3v13c0,4.35.28,7,1,8.83H744.93a17.2,17.2,0,0,1-.82-5.3A14.49,14.49,0,0,1,732,363C726.77,363,721.61,359.77,721.61,352.63Zm22.5-1.76V345.7c-6.53.2-9.38,1.9-9.38,4.69,0,1.77,1.29,2.58,3,2.58C741.05,353,743,352,744.11,350.87Z" transform="translate(-0.95 -1.62)" style="fill:#231f20"/><path d="M762.54,362.42V350.19h14.08v12.23Z" transform="translate(-0.95 -1.62)" style="fill:#231f20"/><g id="science-clip-group-4"><g style="clip-path:url(#clip-path-science)"><path class="animate4" d="M369.16,386.94s42.58-17.6,110.63-15,97.2,7.8,97.2,7.8-138-2.9-192.47,27.14l8.07,2.63s92-25.14,142.08-7.43" transform="translate(-0.95 -1.62)" style="fill:none;stroke:#f08a20;stroke-linecap:round;stroke-linejoin:round;stroke-width:30px"/></g></g><g id="science-clip-group-3"><g style="clip-path:url(#clip-path-2-science)"><path class="animate3" d="M454.29,253.36s77.31-21.43,189.26-6.94" transform="translate(-0.95 -1.62)" style="fill:none;stroke:#f93;stroke-miterlimit:10;stroke-width:30px"/></g></g><g id="science-clip-group-2"><g style="clip-path:url(#clip-path-3-science)"><path class="animate2" d="M238.33,193.58s-43-22.47-102.71-13.57S51.55,203,51.87,214.37s3.88,40.22,83.75,35,97-22.53,97-22.53" transform="translate(-0.95 -1.62)" style="fill:none;stroke:#f93;stroke-miterlimit:10;stroke-width:30px"/></g></g><g id="science-clip-group-1"><g style="clip-path:url(#clip-path-4-science)"><path class="animate" d="M377.44,193.58s77.31-21.44,189.26-7" transform="translate(-0.95 -1.62)" style="fill:none;stroke:#f93;stroke-miterlimit:10;stroke-width:30px"/></g></g></g></g></g></svg>