<svg xmlns="http://www.w3.org/2000/svg" xmlns:xlink="http://www.w3.org/1999/xlink" viewBox="0 0 880.31 333.38"><defs><style>.cls-1,.cls-7{fill:none;}.cls-2{font-size:14px;font-family:BentonSans-Book, Benton Sans;letter-spacing:0.4em;}.cls-2,.cls-5{fill:#231f20;}.cls-3{letter-spacing:0.37em;}.cls-4{letter-spacing:0.39em;}.cls-6{clip-path:url(#clip-path);}.cls-7{stroke:#f08a20;stroke-miterlimit:10;stroke-width:30px;}.cls-8{clip-path:url(#clip-path-2);}</style><clipPath id="clip-path"><path id="science-clip-3" class="cls-1" d="M512.79,243.67c1.82,1.46,2.11,1.63,1.74,2.84,1.15.27,1.43-.56,1.66-1.33.18-.6.19-1.25.32-1.87a.74.74,0,0,1,.37-.52.63.63,0,0,1,.58.22,5.77,5.77,0,0,1,.53,2c-.06,1.07-.22,1.12-1.39,1.28a2.12,2.12,0,0,0-.06.43c.18,1.71-1.06,2.7-2.78,2.38a7.29,7.29,0,0,0-3-.08c-2.4.58-4.8.18-7.2.21-1.53,0-3.07.11-4.6.16v.54l10.36.37v.52c-1.43.08-2.86.21-4.29.22-2.15,0-4.3-.13-6.45-.12-1.94,0-3.88.13-5.83.15-4.73,0-9.47,0-14.2.11-3.11.06-6.22.28-9.33.36-2.88.08-5.76.13-8.63.08-2.33,0-4.65-.26-7-.4-.11,0-.29-.06-.34,0-.91,1.11-2.16.55-3.25.59-5.19.21-10.38.33-15.57.51-1.71,0-3.42.24-5.14.23a23.22,23.22,0,0,1-3.12-.45c-.78.25-1.76.58-2.75.89a.79.79,0,0,1-.58,0c-2.27-1.32-4.45.19-6.67.26-5.5.16-11,.68-16.49,1-1.84.1-3.71-.14-5.55-.06-1.12,0-2.22.44-3.34.58-2,.26-4.09.79-6.05.52a13.46,13.46,0,0,0-3.63.32c-1.95.24-3.95.13-5.93.21-.46,0-.92.33-1.38.35-1.45.05-2.91-.11-4.34.06-2.66.31-5.29.81-7.94,1.19a5.18,5.18,0,0,1-1.43-.22,2.29,2.29,0,0,0-.79-.13c-2.23.44-4.46.94-6.69,1.37a4.12,4.12,0,0,1-1.22-.13V257l1.45-.66-.07-.32-1.63.16.06-.31a7,7,0,0,0-4.55-.65,17.81,17.81,0,0,1-.63-1.74c-.17-.78-.14-1.54.77-1.9,1.46-.58,2.92-1.2,4.41-1.71a46,46,0,0,1,6.2-1.88q7.65-1.41,15.35-2.45c6.13-.83,12.27-1.52,18.41-2.18,5-.54,10.08-1,15.12-1.39q4-.33,8.09-.5,11.21-.41,22.4-.75c3.7-.11,7.41-.21,11.11-.17a8.26,8.26,0,0,1,2.57,1c-.06-.68.38-1,1.33-1,8.76,0,17.52,0,26.28.06,2,0,4.09.36,6.14.46,1.37.06,2.75-.1,4.12-.09.93,0,1.85.13,2.78.16,1.57,0,3.16,0,4.72.08,2.43.18,4.83.54,7.25.73,1.62.13,3.26.07,4.89.15s3.17.22,4.75.37c.23,0,.45.24.68.37C513.2,243.07,513,243.37,512.79,243.67Zm11.58,4c-.23-.11-.53-.39-.68-.32a4.14,4.14,0,0,1-3.22-.1c-.13,0-.38.26-.58.41.2.16.38.45.58.47.9.09,1.81.13,2.71.13a6.79,6.79,0,0,0,1.18-.21Zm4-1.41-4.79-.35,0,.48,4.75.47Zm-6.72-.44c-.14-.63-.4-1.22-1.2-1.08-.25,0-.42.55-.62.85l1.56.71Z"/></clipPath><clipPath id="clip-path-2"><path id="science-clip-2" class="cls-1" d="M415.24,301.87c.83.24,1.68.42,2.48.74,1.82.71,3.61,1.48,5.41,2.25.84.35,1.84.35,2.33,1.42.27.58,1.47.45,1.76-.35.48,1.88,1.87,1,2.89,1.25a114.34,114.34,0,0,0,18.63,2.24,75.78,75.78,0,0,1,9.91.59,58.54,58.54,0,0,0,9.69.48c6.3.1,12.61-.32,18.9-.76,6.11-.43,12.21-1.06,18.3-1.76,3.76-.44,7.49-1.18,11.23-1.75,2.68-.4,5.37-.72,8.05-1.12,1.26-.19,2.5-.48,3.74-.74,4.8-1,9.59-2,14.4-3,1.65-.33,3.35-.41,5-.61l.1.44L540.23,303l0,.58h3.17a29.76,29.76,0,0,1,3.06-1.05c2.7-.64,5.43-1.2,8.14-1.78,3.9-.83,7.79-1.68,11.69-2.47a7.11,7.11,0,0,1,2.91,0,11.89,11.89,0,0,0,1.34.88,1.26,1.26,0,0,1,0,2.11,9.56,9.56,0,0,1-2.22,1.15c-3.55,1.2-7.12,2.33-10.66,3.53a27.11,27.11,0,0,0-2.63,1.25c2.4-.46,4.49-.89,6.59-1.27s3.8-1.92,6.33-1.55c-.36.29-.45.42-.58.47a84.17,84.17,0,0,1-13,4c-3.13.63-6.22,1.42-9.34,2.11-4,.88-8.09,1.85-12.17,2.58-7.1,1.26-14.23,2.41-21.35,3.53-4.88.77-9.83,1.17-14.66,2.16-5.14,1-10.35,1.19-15.52,1.75-1.94.21-3.91.24-5.87.27-7.51.09-15,.37-22.53.17-7.93-.2-15.87-.74-23.78-1.42a47.39,47.39,0,0,1-8.69-2.09c-2.75-.8-5.43-1.79-8.15-2.7l-.18.42,10,4.29-.06.25a1.44,1.44,0,0,1-.51,0c-3.94-1.73-8-3.24-11.76-5.31-2.46-1.36-4.47-3.53-6.69-5.34a2,2,0,0,0-.56-.43c-2.42-.82-3.41-3.07-4.9-4.82-.67-.79-1.26-1.63-1.89-2.45a8.81,8.81,0,0,1-.68-.83c-1.14-1.9-2.29-3.79-3.37-5.72a8.31,8.31,0,0,1-.52-1.82c-.29-1.12-.67-2.23-.86-3.37a16.82,16.82,0,0,1-.1-2.66c0-.23.17-.52.09-.68-.85-1.69-.15-3.32.28-4.89.57-2.06,1.31-4.08,2.07-6.08a11.14,11.14,0,0,1,1.17-1.78c1.19-1.83,2.36-3.67,3.54-5.51l.24.34c.38.08.92.35,1.09.2a1.56,1.56,0,0,0,.51-1.2c-.26-1,.21-1,.69-.89a29,29,0,0,1,2.88-2.81c2.23-1.66,4.55-3.21,6.86-4.76,2.1-1.41,4.17-2.87,6.38-4.09a78.31,78.31,0,0,1,7.27-3.5c2-.86,4.17-1.47,6.26-2.19l-1.65,1,.07.16,1-.3L429,251l.24.14,1.4-1.45-1-.08c1.69-.74,3.38-1.49,5.09-2.21,1.11-.47,2.25-.9,3.38-1.35.15-.06.3-.18.45-.17a7.8,7.8,0,0,0,4-1.23c.07,0,.22.05.42.1l-.21,1.6,4.54-2.14.18.34-.65.39.05.23,1.36-.25-.13-1.1-2.74.6-.08-.26c1-.3,1.91-.61,2.88-.88.16,0,.51.06.53.14.35,1.54,1.4,1,2.32.81,1.36-.23,2.56-.94,4-1.14,1.1-.16,2.09-1,3.34-1.69l-3.76.68a63.94,63.94,0,0,1,18-3.36l-9.41,1.57,0,.4h2.53a2.09,2.09,0,0,1,3.07-.35,15.48,15.48,0,0,1,2.22-.92c.32-.08.74.31,1.12.34s.92-.19,1.38-.16c.86.07,1.72.23,2.57.38a2.49,2.49,0,0,0,2.41-.8,1,1,0,0,1,1.55-.09c.45.45.92.62,1.36-.1a1,1,0,0,1,.76-.36c3.14.31,6.26-.19,9.39-.24,4.7-.08,9.42-.06,14.1.26,3.77.25,7.56.17,11.31.67C522,240,527,240.7,532,241.4c1.54.21,3.09.43,4.61.75a115.24,115.24,0,0,1,17.95,4.94.9.9,0,0,1,.56.57l-3.53-1c-1.19-.32-2.38-.65-3.58-.92s-2.46-.51-3.69-.76l-.09.38c2.25.62,4.53,1.15,6.75,1.87,3.11,1,6.19,2.11,9.28,3.2,1.47.52,2.93,1.05,4.37,1.65,2.31,1,4.91,1.62,6.8,3.14,1.48,1.18,3.31,1.31,4.64,2.49a4.19,4.19,0,0,1,1.12,1.5c-4.86-.54-9.19-2.86-14-3.48,1.5,1.66,3.8,1.48,5.69,2.18l-.18.42-9.21-2.64.35-1.07-.31-.27-1.12,1.16-1.36-.25c-4.07-.76-8.14-1.54-12.21-2.29-1.26-.23-2.53-.32-3.78-.59s-2.44.29-3.52-.56c0,0-.91-.44-.73.42a4,4,0,0,1-.76.08c-.57-.05-1.14-.13-1.71-.2l-.06.45,7.76,1.12,0,.38c-4.57-.73-9.25-.58-13.77-1.73l0-.46,4.49.44.07-.27c-.57-.15-1.14-.34-1.72-.44-.75-.12-1.51-.17-2.26-.26s-1.44-.14-1.23,1c-2.83-.19-5.52-.38-8.23-.54-1.82-.1-3.66-.15-5.49-.23-3-.12-6-.33-9-.35-4.62,0-9.24,0-13.86.12-2.51,0-5,.18-7.52.33-.85,0-1.69.28-2.54.4a1.66,1.66,0,0,1-.6-.13,3.64,3.64,0,0,1,.45-.43c.45-.28.93-.53,1.39-.8l-.19-.41-3.36,1.31.22.44a41.35,41.35,0,0,1-4.51,1.36c-2.08.38-4.21.42-6.29.76s-3.94.79-5.9,1.25c-1.09.25-2.15.64-3.23.92-1.38.37-2.8.63-4.17,1s-2.53.95-3.82,1.35c-1,.32-2.09.51-3.13.77-1.74.45-3.5.84-5.2,1.4-.79.25-1.4,1.1-2.18,1.26a42.59,42.59,0,0,0-6.81,2.2,9,9,0,0,1-.91.1,10.33,10.33,0,0,0-1.37.41c-.25.09-.45.31-.7.39-2.14.68-4.33,1.21-6.41,2.05-1.87.75-3.59,1.85-5.41,2.74a6.29,6.29,0,0,0-2.77,1.84c-.63.86-2,1.13-2.95,1.82-3.53,2.59-7.33,4.89-10.2,8.26-1.34,1.58-3,3.06-3.5,5.17-.69,2.78-.4,3.19,2,4.9.66.47,1,1.33,1.65,1.91a22.66,22.66,0,0,0,2.88,2.49c2.92,2,5.75,4.19,9.2,5.28Zm85.88,7.73.07.5,16.32-2.47-.06-.43Zm-18.65-61.24-.15-.4-7.28,1,0,.33c2.23-.11,4.47-.2,6.7-.35C482,248.9,482.24,248.55,482.47,248.36Zm9.79,2a3.1,3.1,0,0,0-4.16.39Zm31.85,56,0,.44a15,15,0,0,0,1.89-.24c.23-.06.4-.42.59-.65-.26-.11-.56-.38-.76-.32A14.87,14.87,0,0,0,524.11,306.36ZM402.45,265.94c1.39.36,1.48-.81,2-1.46C403.36,264.37,402.78,264.87,402.45,265.94Zm131.47,38.87c.91-.05,1.65-.07,2.38-.16a1,1,0,0,0,.65-.39.61.61,0,0,0-.23-.57,1.11,1.11,0,0,0-.87-.07A21,21,0,0,0,533.92,304.81Zm-3.07,1c-1.05-1.49-1.88-.46-2.7-.3v.3Zm-36.64,4.48.05.32c1.37.25,3.27-.07,3.55-.67Zm-54.43-64c1.35,1.41,1.64-.15,2.31-.73Zm17.67,6.28,0,.17h2.82l.27-1.1ZM409.21,261l.23.22,1.77-1.3-.11-.19-1.7.29ZM518.39,307l0,.38,2.54-.29-.07-.5Zm-114.61,5.41-1,1a24.37,24.37,0,0,1,2.93,1.31,72,72,0,0,0,13.9,6c7.58,2.59,15.41,3.4,23.32,3.74.31,0,.62-.28.84-.38a5.46,5.46,0,0,0,1.44.52q5.29.3,10.61.49c1,0,2.27.28,2.87-.23,1.1-.91,1.63.92,2.46.2l-.6-.51a272.8,272.8,0,0,0,48.77-4.25l-.06-.58-15.07,2.12-.06-.36,1.06-.29a12.5,12.5,0,0,0-2,.12c-2.53.31-5.06.72-7.6.94-4.16.36-8.33.66-12.5.86-4,.19-8,.3-11.95.29s-7.9-.18-11.84-.33c-4.11-.15-8.23-.22-12.32-.57a59.75,59.75,0,0,1-13.06-2.26,1.81,1.81,0,0,0-.89,0c-.19,1.2-.9.41-1.29.29-2.51-.79-5-1.59-7.48-2.51s-4.52-2.5-7.12-3.11c-1.26-.3-2.27-1.66-3.39-2.53Zm20.49,10.7a77.21,77.21,0,0,1-18.2-7c11.47,7.23,24.25,9.29,37.56,9.27C437.15,324.86,430.62,324.75,424.27,323.14ZM482.49,325a195.93,195.93,0,0,0,26.1-3.37l-26.11,3Zm-44.38-17.89a2.45,2.45,0,0,0,.74.3q10,.63,20,1.22a3.58,3.58,0,0,0,.63-.24l-.78-.09c-3.74-.23-7.48-.47-11.22-.68-3.14-.18-6.28-.33-9.42-.49Zm-34.36,5.37c-4.72-3.14-7.79-7.59-10.11-12.66a5,5,0,0,0,.14.67,24.81,24.81,0,0,0,4.31,7.89,12.47,12.47,0,0,0,5.69,4.08Zm106.52,7.79L523,318c-.84-.7-8.34.58-12.82,1.9Zm-50.53,5.48-14.82-.46v.38l14.81.38Zm94.55-26,8.37-2.05-.07-.32c-2,.4-4,.74-6,1.24a12.38,12.38,0,0,0-2.31,1.14Zm-139.65.73c-1.74-.91-3.43-1.93-5.13-2.91l0,0a4.6,4.6,0,0,0,.88,1.17c1.55,1.07,3.16,2.06,4.75,3.08l.08.08A1,1,0,0,0,414.64,300.47Zm56.13,24.59c-.91,0-2.38-.34-2.63.07-.61,1-1.36.57-2,.6-1.66.08-3.33,0-5,0a19.66,19.66,0,0,0,4.4.08c1.23-.17,2.64.78,3.76-.57.21-.25,1,0,1.5,0Zm47.35-5.37-7.3,1.32.06.34,7.27-1.39ZM498.4,237.57h7.14v-.2h-7.14Zm55.89,62.18c-.4-.14-.83-.43-1.2-.37a19.24,19.24,0,0,0-2.75.73,2.7,2.7,0,0,0-.71.48l.11.32,4.55-1.17Zm-57.11-62.52h-7.6v.21h7.6Zm-59.09,69.88-5.21-.94-.08.64,5.31.28Zm37.72,17.79a3.14,3.14,0,0,0-.53,0,13.27,13.27,0,0,1-1.63.38c-1.2.1-2.4.13-3.6.19l0,.35c1.92-.24,3.91.15,5.77-.62Zm43.62-5.13,5-1,0-.22-5,.92Zm-35.25-11.68-4.52.26,0,.34,4.47-.61ZM409.5,297.57l-3.81-2.34-.2.39,4,1.92Zm74.66,10.51h5.11v-.34l-5.08.35Zm35.08-69.65-3.23-.31,0,.31,3.22.25ZM480,325h1.65v-.33h-1.62Zm-1.24-.32-2.13.61,0,.19,2.21-.23Z"/></clipPath></defs><g id="Layer_2" data-name="Layer 2"><g id="assets"><g id="science"><text class="cls-2" transform="translate(317.11 12.18)">WE LEAD<tspan class="cls-3" x="99.48" y="0"> </tspan><tspan x="107.83" y="0">WITH </tspan><tspan class="cls-4" x="174.76" y="0">S</tspan><tspan x="189.31" y="0">CIENCE</tspan></text><path class="cls-5" d="M130,176.42l-13.39-50.31h13.66l4.29,19.79a91.7,91.7,0,0,1,2.17,10.4h.14a98.52,98.52,0,0,1,2-10.34l4.15-19.85h12.3L159.86,146a86.84,86.84,0,0,1,2.24,10.27h.14a97.89,97.89,0,0,1,1.9-10.13l4-20.06H180.6l-13.06,50.31H156.19l-6.87-31.48h-.13l-7.62,31.48Z"/><path class="cls-5" d="M177.82,158.27c0-14.62,11.76-19,19.17-19,7.21,0,17.54,2.58,17.54,20.74v2H191.21c.68,4.76,3.33,5.91,7.28,5.91,3.8,0,8.09-1.9,10.47-3.33l4.83,8.16a29.8,29.8,0,0,1-16.32,4.35C187.47,177.17,177.82,173,177.82,158.27Zm24.81-3.87c-.54-4.36-2.51-5.72-5.71-5.72-2.65,0-4.76,1.57-5.57,5.72Z"/><path class="cls-5" d="M233.58,182.14c0-3.47,3-5.58,5.71-6.94a5.13,5.13,0,0,1-2.18-4.21c0-3.4,2.65-6.26,5.64-8.23a11.72,11.72,0,0,1-6.18-10.47c0-7.14,5.71-13,17.13-13,5.85,0,10.2,1.56,12.92,4a17.29,17.29,0,0,1,9.79-3.94v10a27,27,0,0,0-6,.62,20.69,20.69,0,0,1,.13,2.31c0,7.14-5.43,13-16.86,13a33.31,33.31,0,0,1-5.44-.47,2.67,2.67,0,0,0-.54,1.36c0,1.29,1.49,1.36,3.53,1.43l4.49.13c14.08.41,19.31,3.47,19.31,10.81,0,7.89-9.79,11.49-22.44,11.49C238.4,190,233.58,187,233.58,182.14Zm29.84-1.3c0-1.76-.47-2.44-9.58-2.78l-5.17-.21a15.66,15.66,0,0,1-2.51-.2,5.51,5.51,0,0,0-.41,2c0,2.86,2.51,3.94,9.18,3.94C259.82,183.56,263.42,182.75,263.42,180.84Zm-4.75-28c0-2.92-1.57-5.3-4.76-5.3s-4.76,2.38-4.76,5.3,1.56,5.3,4.76,5.3S258.67,155.75,258.67,152.83Z"/><path class="cls-5" d="M275.87,166.63c0-8.16,7.55-13.12,22.51-13.8v-.47c0-1.77-.89-3.06-4-3.06a19.76,19.76,0,0,0-11.22,3.94l-5.51-7.62c3.33-3,9-6.32,18.83-6.32,10.75,0,15,5,15,15.3v13c0,4.35.27,7,1,8.83H299.19a17.52,17.52,0,0,1-.81-5.3A14.5,14.5,0,0,1,286.27,177C281,177,275.87,173.77,275.87,166.63Zm22.51-1.76V159.7c-6.53.2-9.39,1.9-9.39,4.69,0,1.77,1.3,2.58,3,2.58C295.32,167,297.22,166,298.38,164.87Z"/><path class="cls-5" d="M320.82,165.48V149.64H314.9V140h5.92V127.74h13.46V140h9.32v9.66h-9.32v12.85c0,3.87,1,4.82,4.76,4.82a16.17,16.17,0,0,0,3.54-.4v9.38a63.79,63.79,0,0,1-8.23.61C322,176.9,320.82,172.55,320.82,165.48Z"/><path class="cls-5" d="M347.81,176.42V126.11h13.47v19.51a13.9,13.9,0,0,1,12.1-6.32c5.71,0,10.47,2.72,10.47,10.54v26.58H370.39V154.26c0-2.52-.82-3.94-3.06-3.94a9.7,9.7,0,0,0-6.05,2.58v23.52Z"/><path class="cls-5" d="M388.21,158.27c0-14.62,11.76-19,19.17-19,7.21,0,17.54,2.58,17.54,20.74v2H401.6c.68,4.76,3.33,5.91,7.28,5.91s8.09-1.9,10.47-3.33l4.82,8.16a29.75,29.75,0,0,1-16.31,4.35C397.86,177.17,388.21,173,388.21,158.27ZM413,154.4c-.54-4.36-2.51-5.72-5.71-5.72-2.65,0-4.76,1.57-5.57,5.72Z"/><path class="cls-5" d="M429.55,176.42V140H443v5.64h.07a12.55,12.55,0,0,1,11.35-6.32h.14v11.9c-.54-.07-2.45-.27-3.4-.27a12.6,12.6,0,0,0-8.16,3.33v22.16Z"/><path class="cls-5" d="M475.25,158.27c0-14.62,11.76-19,19.17-19,7.21,0,17.54,2.58,17.54,20.74v2H488.64c.68,4.76,3.33,5.91,7.28,5.91s8.09-1.9,10.47-3.33l4.82,8.16a29.75,29.75,0,0,1-16.31,4.35C484.9,177.17,475.25,173,475.25,158.27Zm24.81-3.87c-.54-4.36-2.51-5.72-5.71-5.72-2.65,0-4.76,1.57-5.57,5.72Z"/><path class="cls-5" d="M523.86,176.42,511,140h13.81l6.39,21.69h.13L537.8,140h12.51l-12.85,36.44Z"/><path class="cls-5" d="M552.76,136.44V126.11h13.47v10.33Zm0,40V140h13.47v36.44Z"/><path class="cls-5" d="M571.26,158.61c0-12.51,5.44-19.31,13.73-19.31,4.9,0,8.16,1.43,10.68,5V126.11h13.46v41.48c0,4.35.27,7,1.09,8.83H596.48c-.54-.74-.81-3.6-.81-5.43a12.34,12.34,0,0,1-10.81,6C576.63,177,571.26,171.12,571.26,158.61Zm24.41,5.71V152.63a7.51,7.51,0,0,0-5.58-2.31c-4,0-5.37,3.06-5.37,8.22,0,4.49,1,8.43,5.51,8.43A8.45,8.45,0,0,0,595.67,164.32Z"/><path class="cls-5" d="M613.83,158.27c0-14.62,11.76-19,19.17-19,7.21,0,17.54,2.58,17.54,20.74v2H627.22c.68,4.76,3.33,5.91,7.28,5.91,3.8,0,8.09-1.9,10.47-3.33l4.82,8.16a29.75,29.75,0,0,1-16.31,4.35C623.48,177.17,613.83,173,613.83,158.27Zm24.81-3.87c-.54-4.36-2.51-5.72-5.71-5.72-2.65,0-4.76,1.57-5.57,5.72Z"/><path class="cls-5" d="M655.24,140H668.7v5.64a13.9,13.9,0,0,1,12.1-6.32c5.71,0,10.47,2.72,10.47,10.54v26.58H677.81V154.26c0-2.52-.81-3.94-3.06-3.94a9.73,9.73,0,0,0-6,2.58v23.52H655.24Z"/><path class="cls-5" d="M695.56,158.27c0-15.16,11.15-19,19.18-19,10.74,0,14.55,5.44,16.65,11.56l-11.28,3.54c-1.16-4.42-3-5.44-5.51-5.44-4,0-5.58,3.67-5.58,9.38,0,5.3,1,9.52,5.44,9.52,2.18,0,4.69-1.09,5.92-5.85l11.15,3.74c-2.11,5.44-6.73,11.42-17.27,11.42C705.69,177.17,695.56,173.23,695.56,158.27Z"/><path class="cls-5" d="M732.89,158.27c0-14.62,11.77-19,19.18-19,7.21,0,17.54,2.58,17.54,20.74v2H746.29c.68,4.76,3.33,5.91,7.27,5.91s8.09-1.9,10.47-3.33l4.83,8.16a29.78,29.78,0,0,1-16.32,4.35C742.55,177.17,732.89,173,732.89,158.27Zm24.82-3.87c-.54-4.36-2.51-5.72-5.71-5.72-2.65,0-4.76,1.57-5.58,5.72Z"/><path class="cls-5" d="M773.9,185.06l3.4-8.64h-5.37V164.19H786v10.4l-5.85,10.47Z"/><path class="cls-5" d="M0,244.14c0-3.47,3-5.58,5.71-6.94A5.12,5.12,0,0,1,3.54,233c0-3.4,2.65-6.26,5.64-8.23A11.71,11.71,0,0,1,3,214.29c0-7.14,5.71-13,17.14-13,5.84,0,10.19,1.56,12.91,4a17.32,17.32,0,0,1,9.79-3.94v10a27.07,27.07,0,0,0-6,.62,20.42,20.42,0,0,1,.14,2.31c0,7.14-5.44,13-16.86,13a33.21,33.21,0,0,1-5.44-.47,2.7,2.7,0,0,0-.55,1.36c0,1.29,1.5,1.36,3.54,1.43l4.49.13c14.07.41,19.31,3.47,19.31,10.81,0,7.89-9.8,11.49-22.44,11.49C4.83,252,0,249,0,244.14Zm29.85-1.3c0-1.76-.48-2.44-9.59-2.78l-5.17-.21a15.66,15.66,0,0,1-2.51-.2,5.74,5.74,0,0,0-.41,2c0,2.86,2.52,3.94,9.18,3.94C26.25,245.56,29.85,244.75,29.85,242.84Zm-4.76-28c0-2.92-1.56-5.3-4.76-5.3s-4.76,2.38-4.76,5.3,1.56,5.3,4.76,5.3S25.09,217.75,25.09,214.83Z"/><path class="cls-5" d="M43.52,220.27c0-14.62,11.76-19,19.17-19,7.21,0,17.55,2.58,17.55,20.74v2H56.91c.68,4.76,3.34,5.91,7.28,5.91s8.09-1.9,10.47-3.33l4.83,8.16a29.8,29.8,0,0,1-16.32,4.35C53.17,239.17,43.52,235,43.52,220.27Zm24.82-3.87c-.55-4.36-2.52-5.72-5.71-5.72-2.66,0-4.76,1.57-5.58,5.72Z"/><path class="cls-5" d="M84.93,202H98.39v5.64a13.92,13.92,0,0,1,12.11-6.32c5.71,0,10.47,2.72,10.47,10.54v26.58H107.5V216.26c0-2.52-.81-3.94-3.06-3.94a9.73,9.73,0,0,0-6,2.58v23.52H84.93Z"/><path class="cls-5" d="M125.25,220.27c0-14.62,11.77-19,19.18-19,7.21,0,17.54,2.58,17.54,20.74v2H138.65c.68,4.76,3.33,5.91,7.27,5.91s8.1-1.9,10.48-3.33l4.82,8.16a29.76,29.76,0,0,1-16.32,4.35C134.91,239.17,125.25,235,125.25,220.27Zm24.82-3.87c-.54-4.36-2.51-5.72-5.71-5.72-2.65,0-4.76,1.57-5.57,5.72Z"/><path class="cls-5" d="M166.6,238.42V202h13.46v5.64h.07a12.55,12.55,0,0,1,11.35-6.32h.14v11.9c-.54-.07-2.45-.27-3.4-.27a12.6,12.6,0,0,0-8.16,3.33v22.16Z"/><path class="cls-5" d="M192,228.63c0-8.16,7.55-13.12,22.51-13.8v-.47c0-1.77-.89-3.06-4-3.06a19.76,19.76,0,0,0-11.22,3.94l-5.51-7.62c3.33-3,9-6.32,18.83-6.32,10.75,0,15,5,15,15.3v13c0,4.35.27,7,1,8.83H215.28a17.52,17.52,0,0,1-.81-5.3,14.49,14.49,0,0,1-12.1,5.85C197.13,239,192,235.77,192,228.63Zm22.51-1.76V221.7c-6.53.2-9.39,1.9-9.39,4.69,0,1.77,1.3,2.58,3,2.58C211.41,229,213.31,228,214.47,226.87Z"/><path class="cls-5" d="M236.91,227.48V211.64H231V202h5.92V189.74h13.46V202h9.32v9.66h-9.32v12.85c0,3.87.95,4.82,4.76,4.82a16.17,16.17,0,0,0,3.54-.4v9.38a63.79,63.79,0,0,1-8.23.61C238.06,238.9,236.91,234.55,236.91,227.48Z"/><path class="cls-5" d="M261.93,220.27c0-14.62,11.77-19,19.18-19,7.2,0,17.54,2.58,17.54,20.74v2H275.33c.68,4.76,3.33,5.91,7.27,5.91s8.09-1.9,10.47-3.33l4.83,8.16a29.78,29.78,0,0,1-16.32,4.35C271.59,239.17,261.93,235,261.93,220.27Zm24.82-3.87c-.54-4.36-2.52-5.72-5.71-5.72-2.65,0-4.76,1.57-5.58,5.72Z"/><path class="cls-5" d="M322,238.42V202h13.47v5.64h.06a12.58,12.58,0,0,1,11.36-6.32h.13v11.9c-.54-.07-2.44-.27-3.39-.27a12.58,12.58,0,0,0-8.16,3.33v22.16Z"/><path class="cls-5" d="M347.61,220.27c0-14.62,11.77-19,19.18-19,7.2,0,17.54,2.58,17.54,20.74v2H361c.68,4.76,3.33,5.91,7.27,5.91s8.09-1.9,10.47-3.33l4.83,8.16a29.78,29.78,0,0,1-16.32,4.35C357.27,239.17,347.61,235,347.61,220.27Zm24.82-3.87c-.54-4.36-2.52-5.72-5.71-5.72-2.65,0-4.76,1.57-5.58,5.72Z"/><path class="cls-5" d="M389.29,238.42V188.11h13.47v50.31Z"/><path class="cls-5" d="M410.1,198.44V188.11h13.47v10.33Zm0,40V202h13.47v36.44Z"/><path class="cls-5" d="M428.05,228.63c0-8.16,7.55-13.12,22.51-13.8v-.47c0-1.77-.88-3.06-4-3.06a19.76,19.76,0,0,0-11.22,3.94l-5.51-7.62c3.33-3,9.05-6.32,18.84-6.32,10.74,0,15,5,15,15.3v13c0,4.35.28,7,1,8.83H451.38a17.2,17.2,0,0,1-.82-5.3,14.49,14.49,0,0,1-12.1,5.85C433.22,239,428.05,235.77,428.05,228.63Zm22.51-1.76V221.7c-6.53.2-9.38,1.9-9.38,4.69,0,1.77,1.29,2.58,3,2.58C447.5,229,449.4,228,450.56,226.87Z"/><path class="cls-5" d="M483.4,234.48v3.94H469.94V188.11H483.4v19.51c2.18-3.26,5.44-6.32,10.82-6.32,8.22,0,13.59,6.39,13.59,18.9S502.38,239,494.08,239C489.18,239,485.92,237.41,483.4,234.48Zm11-14.21c0-4.49-1-8-5.51-8A8.48,8.48,0,0,0,483.4,215v11.69A7.52,7.52,0,0,0,489,229C493,229,494.35,225.44,494.35,220.27Z"/><path class="cls-5" d="M512.85,238.42V188.11h13.46v50.31Z"/><path class="cls-5" d="M531.34,220.27c0-14.62,11.77-19,19.18-19,7.21,0,17.54,2.58,17.54,20.74v2H544.74c.68,4.76,3.33,5.91,7.27,5.91s8.1-1.9,10.48-3.33l4.82,8.16A29.75,29.75,0,0,1,551,239.17C541,239.17,531.34,235,531.34,220.27Zm24.82-3.87c-.54-4.36-2.51-5.72-5.71-5.72-2.65,0-4.76,1.57-5.57,5.72Z"/><path class="cls-5" d="M589.48,220.61c0-12.51,5.44-19.31,13.74-19.31,4.89,0,8.16,1.43,10.67,5V188.11h13.47v41.48c0,4.35.27,7,1.08,8.83H614.71c-.54-.74-.82-3.6-.82-5.43a12.33,12.33,0,0,1-10.81,6C594.86,239,589.48,233.12,589.48,220.61Zm24.41,5.71V214.63a7.49,7.49,0,0,0-5.57-2.31c-4,0-5.37,3.06-5.37,8.22,0,4.49,1,8.43,5.5,8.43A8.43,8.43,0,0,0,613.89,226.32Z"/><path class="cls-5" d="M631.51,228.63c0-8.16,7.54-13.12,22.5-13.8v-.47c0-1.77-.88-3.06-4-3.06a19.78,19.78,0,0,0-11.22,3.94l-5.51-7.62c3.34-3,9.05-6.32,18.84-6.32,10.74,0,15,5,15,15.3v13c0,4.35.28,7,1,8.83H654.83a17.2,17.2,0,0,1-.82-5.3,14.49,14.49,0,0,1-12.1,5.85C636.67,239,631.51,235.77,631.51,228.63Zm22.5-1.76V221.7c-6.52.2-9.38,1.9-9.38,4.69,0,1.77,1.29,2.58,3,2.58C651,229,652.86,228,654,226.87Z"/><path class="cls-5" d="M676.45,227.48V211.64h-5.91V202h5.91V189.74h13.47V202h9.31v9.66h-9.31v12.85c0,3.87,1,4.82,4.76,4.82a16.07,16.07,0,0,0,3.53-.4v9.38a63.63,63.63,0,0,1-8.23.61C677.61,238.9,676.45,234.55,676.45,227.48Z"/><path class="cls-5" d="M700.93,228.63c0-8.16,7.55-13.12,22.51-13.8v-.47c0-1.77-.88-3.06-4-3.06a19.76,19.76,0,0,0-11.22,3.94l-5.51-7.62c3.33-3,9-6.32,18.84-6.32,10.74,0,15,5,15,15.3v13c0,4.35.27,7,1,8.83H724.26a17.2,17.2,0,0,1-.82-5.3,14.49,14.49,0,0,1-12.1,5.85C706.1,239,700.93,235.77,700.93,228.63Zm22.51-1.76V221.7c-6.53.2-9.38,1.9-9.38,4.69,0,1.77,1.29,2.58,3,2.58C720.38,229,722.28,228,723.44,226.87Z"/><path class="cls-5" d="M759.07,228.63c0-8.16,7.55-13.12,22.51-13.8v-.47c0-1.77-.89-3.06-4-3.06a19.76,19.76,0,0,0-11.22,3.94l-5.51-7.62c3.33-3,9-6.32,18.83-6.32,10.75,0,15,5,15,15.3v13c0,4.35.27,7,1,8.83H782.39a17.52,17.52,0,0,1-.81-5.3,14.49,14.49,0,0,1-12.1,5.85C764.24,239,759.07,235.77,759.07,228.63Zm22.51-1.76V221.7c-6.53.2-9.38,1.9-9.38,4.69,0,1.77,1.29,2.58,3,2.58C778.52,229,780.42,228,781.58,226.87Z"/><path class="cls-5" d="M801,202h13.46v5.64a13.9,13.9,0,0,1,12.1-6.32c5.71,0,10.47,2.72,10.47,10.54v26.58H823.6V216.26c0-2.52-.81-3.94-3.06-3.94a9.73,9.73,0,0,0-6,2.58v23.52H801Z"/><path class="cls-5" d="M841.35,220.61c0-12.51,5.44-19.31,13.74-19.31,4.89,0,8.16,1.43,10.67,5V188.11h13.46v41.48c0,4.35.28,7,1.09,8.83H866.58c-.55-.74-.82-3.6-.82-5.43A12.33,12.33,0,0,1,855,239C846.72,239,841.35,233.12,841.35,220.61Zm24.41,5.71V214.63a7.49,7.49,0,0,0-5.57-2.31c-4,0-5.38,3.06-5.38,8.22,0,4.49,1,8.43,5.51,8.43A8.45,8.45,0,0,0,865.76,226.32Z"/><path class="cls-5" d="M139.33,282.61c0-12.51,5.44-19.31,13.73-19.31,4.9,0,8.16,1.43,10.68,5V250.11H177.2v41.48c0,4.35.27,7,1.09,8.83H164.55c-.54-.74-.81-3.6-.81-5.43a12.34,12.34,0,0,1-10.81,6C144.7,301,139.33,295.12,139.33,282.61Zm24.41,5.71V276.63a7.52,7.52,0,0,0-5.58-2.31c-4,0-5.37,3.06-5.37,8.22,0,4.49,1,8.43,5.51,8.43A8.45,8.45,0,0,0,163.74,288.32Z"/><path class="cls-5" d="M181.9,282.27c0-14.62,11.76-19,19.17-19,7.21,0,17.54,2.58,17.54,20.74v2H195.29c.68,4.76,3.33,5.91,7.28,5.91s8.09-1.9,10.47-3.33l4.82,8.16a29.75,29.75,0,0,1-16.31,4.35C191.55,301.17,181.9,297,181.9,282.27Zm24.81-3.87c-.54-4.36-2.51-5.72-5.71-5.72-2.65,0-4.76,1.57-5.57,5.72Z"/><path class="cls-5" d="M230.51,300.42,217.66,264h13.81l6.39,21.69H238L244.45,264H257l-12.85,36.44Z"/><path class="cls-5" d="M255.4,282.27c0-14.62,11.77-19,19.18-19,7.2,0,17.54,2.58,17.54,20.74v2H268.8c.68,4.76,3.33,5.91,7.27,5.91s8.09-1.9,10.47-3.33l4.83,8.16a29.78,29.78,0,0,1-16.32,4.35C265.06,301.17,255.4,297,255.4,282.27Zm24.82-3.87c-.54-4.36-2.51-5.72-5.71-5.72-2.65,0-4.76,1.57-5.58,5.72Z"/><path class="cls-5" d="M297.09,300.42V250.11h13.46v50.31Z"/><path class="cls-5" d="M315.58,282.27c0-15.16,10.61-19,19.45-19s19.44,3.81,19.44,19c0,15-10.67,18.9-19.44,18.9S315.58,297.23,315.58,282.27Zm25.43.07c0-5.3-1.36-9.38-6-9.38-4.42,0-6,3.67-6,9.38,0,5.3,1.3,9.52,6,9.52C339.45,291.86,341,288.12,341,282.34Z"/><path class="cls-5" d="M359.17,314.09v-50h13.46v5.64c2.18-3.26,5.44-6.32,10.81-6.32,8.23,0,13.6,6.39,13.6,18.9S391.6,301,383.31,301c-4.9,0-8.16-1.57-10.68-4.49v17.54Zm24.41-31.75c0-4.49-1-8-5.51-8a8.46,8.46,0,0,0-5.44,2.66v11.69a7.52,7.52,0,0,0,5.58,2.31C382.22,291,383.58,287.51,383.58,282.34Z"/><path class="cls-5" d="M420.57,264H434v5.64a13.9,13.9,0,0,1,12.1-6.32c5.71,0,10.47,2.72,10.47,10.54v26.58H443.15V278.26c0-2.52-.82-3.94-3.06-3.94a9.68,9.68,0,0,0-6,2.58v23.52H420.57Z"/><path class="cls-5" d="M460.9,282.27c0-14.62,11.76-19,19.17-19,7.21,0,17.54,2.58,17.54,20.74v2H474.29c.68,4.76,3.33,5.91,7.28,5.91s8.09-1.9,10.47-3.33l4.82,8.16a29.75,29.75,0,0,1-16.31,4.35C470.55,301.17,460.9,297,460.9,282.27Zm24.81-3.87c-.54-4.36-2.51-5.72-5.71-5.72-2.65,0-4.76,1.57-5.57,5.72Z"/><path class="cls-5" d="M508.09,300.42,497.68,264h13.47l2.38,11.08c.81,3.47,1.29,5.92,2,10.61h.13c.75-4.62,1.36-7.27,2.25-10.95L520.33,264h10.19l2.66,10.88c1,3.54,1.49,6.19,2.31,10.81h.13A108.41,108.41,0,0,1,537.87,275l2.58-11h11.76l-10.4,36.44H529.37L525,281.32h-.14l-4.28,19.1Z"/><path class="cls-5" d="M573.78,260.44V250.11h13.46v10.33Zm0,40V264h13.46v36.44Z"/><path class="cls-5" d="M592.27,282.61c0-12.51,5.44-19.31,13.74-19.31,4.89,0,8.16,1.43,10.67,5V250.11h13.46v41.48c0,4.35.28,7,1.09,8.83H617.5c-.55-.74-.82-3.6-.82-5.43a12.34,12.34,0,0,1-10.81,6C597.64,301,592.27,295.12,592.27,282.61Zm24.41,5.71V276.63a7.5,7.5,0,0,0-5.57-2.31c-4,0-5.38,3.06-5.38,8.22,0,4.49,1,8.43,5.51,8.43A8.45,8.45,0,0,0,616.68,288.32Z"/><path class="cls-5" d="M634.84,282.27c0-14.62,11.76-19,19.17-19,7.21,0,17.54,2.58,17.54,20.74v2H648.23c.68,4.76,3.33,5.91,7.28,5.91s8.09-1.9,10.47-3.33l4.83,8.16a29.8,29.8,0,0,1-16.32,4.35C644.49,301.17,634.84,297,634.84,282.27Zm24.82-3.87c-.55-4.36-2.52-5.72-5.72-5.72-2.65,0-4.76,1.57-5.57,5.72Z"/><path class="cls-5" d="M673.33,290.63c0-8.16,7.54-13.12,22.5-13.8v-.47c0-1.77-.88-3.06-4-3.06a19.76,19.76,0,0,0-11.22,3.94l-5.51-7.62c3.34-3,9-6.32,18.84-6.32,10.74,0,15,5,15,15.3v13c0,4.35.28,7,1,8.83H696.65a17.2,17.2,0,0,1-.82-5.3,14.49,14.49,0,0,1-12.1,5.85C678.49,301,673.33,297.77,673.33,290.63Zm22.5-1.76V283.7c-6.53.2-9.38,1.9-9.38,4.69,0,1.77,1.29,2.58,3,2.58C692.77,291,694.68,290,695.83,288.87Z"/><path class="cls-5" d="M712.49,295.94l5-7.55a23,23,0,0,0,13,4.42c2.31,0,4.35-.68,4.35-2.38,0-1.9-1.7-2.52-5.64-3.06-6.19-.88-15-2.31-15-11.76,0-8.16,6.66-12.31,14.89-12.31,8,0,12.58,1.84,17,5l-5,7.41c-4-2.31-7.82-3.67-10.75-3.67-2.24,0-3.74.68-3.74,2.31s1.91,2.32,5.58,2.79c6.19.82,15,2.18,15,11,0,9.65-8.3,13-16.73,13S716.5,298.86,712.49,295.94Z"/><path class="cls-5" d="M750,300.42V288.19H764v12.23Z"/><g id="science-clip-group-3"><g class="cls-6"><path id="animate2" class="cls-7" d="M343.37,258.47s77.31-21.43,189.27-6.94"/></g></g><g id="science-clip-group-2"><g class="cls-8"><path id="animate3" class="cls-7" d="M585.17,261.93s-43-22.47-102.7-13.57-84.07,22.95-83.76,34.36,3.88,40.23,83.76,35,97-22.53,97-22.53"/></g></g></g></g></g></svg>