<svg xmlns="http://www.w3.org/2000/svg" viewBox="0 0 18 18"><title>share-icon</title><g id="Layer_2" data-name="Layer 2"><g id="Layer_1-2" data-name="Layer 1"><line x1="11.26" y1="13.11" x2="5.93" y2="10.62" style="fill:none;stroke:#fff;stroke-linecap:square;stroke-miterlimit:10"/><line x1="12.1" y1="4.63" x2="5.4" y2="7.76" style="fill:none;stroke:#fff;stroke-linecap:square;stroke-miterlimit:10"/><path d="M15,1a2,2,0,1,1-2,2,2,2,0,0,1,2-2m0-1a3,3,0,1,0,3,3,3,3,0,0,0-3-3Z" style="fill:#fff"/><path d="M14,13a2,2,0,1,1-2,2,2,2,0,0,1,2-2m0-1a3,3,0,1,0,3,3,3,3,0,0,0-3-3Z" style="fill:#fff"/><path d="M3,7A2,2,0,1,1,1,9,2,2,0,0,1,3,7M3,6A3,3,0,1,0,6,9,3,3,0,0,0,3,6Z" style="fill:#fff"/></g></g></svg>