<svg xmlns="http://www.w3.org/2000/svg" viewBox="0 0 229.04 84.09"><title>sig</title><g id="Layer_2" data-name="Layer 2"><g id="assets"><g id="sig"><path d="M75.65,1.55Q71,32.95,68.86,64.63q-.61,9-1,18c-.08,1.82,2.36,1.86,3,.4l1-2.55c.72-1.79-2.18-2.57-2.89-.8l-1,2.55,2.94.4q1.4-31.38,5.28-62.58,1.09-8.88,2.42-17.73c.28-1.89-2.61-2.7-2.9-.8Z" style="fill:#231f20"/><path d="M34.56,7.42C38.69,4.27,43.93,3.61,49,3.25a100,100,0,0,1,15.09.07,102.77,102.77,0,0,1,29.52,6.92,100,100,0,0,1,26.06,15.15c2.65,2.13,8.67,6.07,4.7,9.66A12.82,12.82,0,0,1,119,37.63c-2.68.72-5.47,1.14-8.19,1.63a333.29,333.29,0,0,1-40.45,4.79c-1.92.11-1.93,3.11,0,3A340.76,340.76,0,0,0,109,42.62c3.19-.55,6.39-1.12,9.57-1.8a19.39,19.39,0,0,0,6.11-2.29,8.21,8.21,0,0,0,3.9-4.63,6.89,6.89,0,0,0-1.86-6.27,44.4,44.4,0,0,0-6-5.26c-2.14-1.67-4.33-3.27-6.59-4.78A102.25,102.25,0,0,0,99.8,9.66,107,107,0,0,0,68.72.81,100.82,100.82,0,0,0,50.59.15c-6,.33-12.59.9-17.54,4.68C31.54,6,33,8.6,34.56,7.42Z" style="fill:#231f20"/><path d="M117.79,58.06l2.26-5.39a1.47,1.47,0,0,0-.39-1.46,15.91,15.91,0,0,0-18.8-1.32,1.52,1.52,0,0,0,0,2.59,17.68,17.68,0,0,0,18.12.08c1.56-.94.44-3-1.16-2.75a8.22,8.22,0,0,0-6.58,5.85,1.52,1.52,0,0,0,1.85,1.85,33.17,33.17,0,0,0,20.26-14.8l-2.74-1.16c-1.35,4-2.19,11.14,2.88,13,3.16,1.15,5.79-1,8.46-2.31,3.39-1.7,7.78-.36,11.37.05a232.63,232.63,0,0,0,48.07.39A235.77,235.77,0,0,0,228,48.58c1.89-.4,1.09-3.29-.8-2.89a230.7,230.7,0,0,1-45,5q-11.21.13-22.37-.8c-3.76-.31-7.5-.74-11.24-1.22a17.59,17.59,0,0,0-5-.11,13.18,13.18,0,0,0-4.45,1.81c-2,1.16-5,2.64-6.13-.41-.85-2.39-.23-5.3.55-7.63.55-1.65-1.87-2.57-2.74-1.15a30.1,30.1,0,0,1-18.47,13.41l1.85,1.85a5.29,5.29,0,0,1,4.48-3.75L117.47,50a14.64,14.64,0,0,1-15.1-.08v2.59a12.88,12.88,0,0,1,15.17.85l-.39-1.46-2.25,5.39a1.52,1.52,0,0,0,1,1.85,1.54,1.54,0,0,0,1.84-1Z" style="fill:#231f20"/><path d="M116.76,42.06l23.5-3.36a1.5,1.5,0,0,0,1-1.84,1.54,1.54,0,0,0-1.84-1L116,39.17a1.51,1.51,0,0,0-1,1.85,1.54,1.54,0,0,0,1.85,1Z" style="fill:#231f20"/><path d="M1.45,45.1H40.33a1.5,1.5,0,0,0,0-3H1.45a1.5,1.5,0,0,0,0,3Z" style="fill:#231f20"/></g></g></g></svg>