<svg xmlns="http://www.w3.org/2000/svg" xmlns:xlink="http://www.w3.org/1999/xlink" viewBox="0 0 348.88 347.58"><defs><clipPath id="clip-path" transform="translate(13.54 25.34)"><path d="M195.89,284.34a1.41,1.41,0,0,0-.79,0,22.85,22.85,0,0,1-6.34.31c-1.41,0-2.83,0-4.24,0-4.48-.15-9,.3-13.45,0a13.29,13.29,0,0,0-3.67.15.65.65,0,0,1-.39,0l-6.11-.36m-23.51.18c-3.23-.13-6.46-.15-9.69-.15-3.59,0-7.18.11-10.77.12-2,0-4.08-.12-6.12-.14-2.84,0-5.68,0-8.51-.06-4.43-.07-8.86,0-13.28.06-1,0-2-.12-3.06-.18a14.49,14.49,0,0,0-2-.08c-5.14.38-10.27.1-15.4,0-3.28-.07-6.56,0-9.84,0-1,0-2-.11-3-.18l-.93-.06c-3.33-.07-6.65-.16-10-.2-1.72,0-3.45.05-5.17,0-3.64,0-7.28-.1-10.92-.15H25.51c.15,1.64.25,3.18.44,4.7a4.36,4.36,0,0,1-.44,2.44,5.6,5.6,0,0,0-.67,4,4.43,4.43,0,0,1-.24,2.1,17.3,17.3,0,0,1-.18-4.37c0-1.54.08-3.09.06-4.63a33.51,33.51,0,0,0-.31-4.36c-1.1,2.38,0,4.88-.39,7.28-.67.07-.9-.27-.9-.78s.06-1.32.1-2c.11-1.53.23-3.07.34-4.62-3.32-.16-6.5-.28-9.67-.47s-6.34-.43-9.53-.91l1-.23c-.12-.23-.17-.45-.28-.5-.8-.3-1.61-.57-2.42-.84L0,279.49c.14-1.23.35-1.45,1.52-1.56a1.42,1.42,0,0,0,.63-.14c1.61-1.07,3.48-.89,5.27-1.13,1.23-.16,2.45-.43,3.68-.53,3.58-.28,7.17-.51,10.75-.76a2.07,2.07,0,0,0,.36-.13c0-.29.05-.63.06-1,0-1.63.09-3.26.07-4.88,0-1.05-.24-2.11-.23-3.16,0-3.5.16-7,.15-10.49a24,24,0,0,0-.08-4.06,21.54,21.54,0,0,1,.1-4.46,9.51,9.51,0,0,0,0-1.06c-.09-1.68-.28-3.35-.3-5,0-4.83,0-9.66,0-14.5,0-3.86.1-7.72.1-11.58,0-2.3-.15-4.6-.18-6.91,0-2,.05-4,0-6,0-1.69-.06-3.37-.06-5.06,0-4.57.06-9.14.07-13.72,0-1-.14-1.94-.12-2.91,0-1.69.18-3.37.19-5.06,0-3.94,0-7.89,0-11.84,0-1.23,0-2.47,0-3.7a1,1,0,0,1,.16-.61,1.43,1.43,0,0,0,.14-1.63c-.7-1.33-.32-2.68-.25-4a17.19,17.19,0,0,1,.27-1.75.39.39,0,0,0,0-.26c-.66-1.29-.3-2.69-.41-4a18.86,18.86,0,0,1,.17-2.36,4.09,4.09,0,0,0,0-1.16,8,8,0,0,1,0-3.52,3,3,0,0,0-.1-2,7.6,7.6,0,0,1-.11-2.75c0-1.29,0-2.58,0-3.87,0-.87.52-1.63.31-2.57a3.94,3.94,0,0,1,0-3c.06-.11-.11-.32-.12-.49A4.32,4.32,0,0,1,22,124.1c.58-1.43.17-2.91.37-4.35.13-1-.19-1.9-.11-2.87s0-2.13,0-3.19.08-2,.08-3.06c0-3.95,0-7.9,0-11.85,0-5.25,0-10.49,0-15.73,0-4.49.11-9,.16-13.46.05-4.22.1-8.44.11-12.66,0-6.09,0-12.17,0-18.26,0-3.59.11-7.18.17-11,.45.95-.17,2.14,1.22,2.54-.06-.92.66-1.83-.25-2.68-.1-.09-.15-.43-.08-.49,1-.85-.11-1.2-.47-2l-.17,1.31h-.24V21.49l-3.06-.44v-.28l1.05-.54,0-.18H18.29l.84,1.08c-1,0-1.78-.05-2.55-.13a.81.81,0,0,1-.61-.43c-.3-1-1.06-.73-1.87-.69l.85.73a6,6,0,0,1-3.27-.22l1.24-.31c-.65-.46-.55-1.32-1.42-1.55l.32.7c-.22,0-.48.1-.52,0-.55-.9-1.42-.92-2.32-.88-.06,0-.13-.09-.27-.2l.48-.39c0-.06-.08-.17-.15-.18a4.91,4.91,0,0,1-1.48-.44,1.45,1.45,0,0,0-1.95-.09L5,16.18c.15-.13.23-.26.34-.29,2-.54,4-1.22,6-1.56,2.53-.42,5.11-.54,7.66-.84,1.46-.18,2.92-.44,4.37-.72.73-.13,1-.62.62-1.09-.52-.63-.41-1,.1-1.53a1.48,1.48,0,0,0,.24-1.62,4.6,4.6,0,0,1-.09-1.06c.48.78.63,3.51.4,5.51a.76.76,0,0,0,1.11-.31,3.53,3.53,0,0,0,.65-1.8c-.13-1.2.64-2.35,0-3.58a2.48,2.48,0,0,1,.16-1.65,4.29,4.29,0,0,1,.82-1.11c.17.2.27.29.26.32a2.79,2.79,0,0,0,0,2.59c.56,1.14.31,2.41.39,3.62,0,.57,0,1.14,0,1.77a8.5,8.5,0,0,0,3,0,21,21,0,0,1,4.88-.12,10.31,10.31,0,0,0,1.46-.09L41,12.43l1.59-.11a3.61,3.61,0,0,1,1,0,7.71,7.71,0,0,0,3.54-.18A13.77,13.77,0,0,1,49.43,12a8,8,0,0,0,1.19,0,35,35,0,0,1,7.31-.26c.7,0,1.41-.08,2.12-.11,1,0,2-.06,3.05-.08.36,0,.71,0,1.07,0l14.64-.34c2.75-.07,5.5-.17,8.25-.23.75,0,1.51,0,2.26.08.93,0,1.86.16,2.79.15,3.78,0,7.55-.12,11.33-.16,2.75,0,5.5,0,8.26,0,1.14,0,2.29-.27,3.44-.31,1.5-.06,3,0,4.51,0,3.41-.12,6.82-.34,10.24-.43,1.46,0,2.92.18,4.38.26a9.67,9.67,0,0,0,1.7,0,31.14,31.14,0,0,1,9.54-.17l31.43-.67c15,0-14-.07.92-.08,4.35,0,8.71,0,13.07.08,1.77,0,3.54.15,5.32.14,2.08,0,4.17-.16,6.25-.15,3.5,0,7,.23,10.51.15,2.17-.06,4.34,0,6.51,0,3.88,0,7.77-.2,11.65-.23,2.09,0,4.17.16,6.26.24a5.25,5.25,0,0,0,1.19,0,20.22,20.22,0,0,1,5.71.09c2,.19,4,.44,6,.6a21.4,21.4,0,0,0,2.65-.09,11.75,11.75,0,0,1,4.09.35,3,3,0,0,0,1.31.06,10.5,10.5,0,0,1,4.36,0,2.89,2.89,0,0,0,.66,0c2.43,0,4.87,0,7.3.11s4.88.21,7.31.33c.18,0,.36.07.53.07,1.76,0,3.53,0,5.29,0,1.59,0,3.19.16,4.78.2,1.85,0,3.7,0,5.61,0a4.79,4.79,0,0,0,.11-.8c-.05-1.82-.13-3.64-.16-5.45A1.8,1.8,0,0,1,294.57,4c.32-.29.25-1,.35-1.51.17-.83,0-1.75.56-2.44a12.31,12.31,0,0,1,1.31,2.24,10.16,10.16,0,0,1,.44,2.86c.06,2.26,0,4.52,0,6.94.62.11,1.21.26,1.8.31a61.12,61.12,0,0,1,9.42,1.47,3.05,3.05,0,0,1,1.21.52,3.08,3.08,0,0,0,2.91.42c.47-.13,1.1-.58,1.36-.42.84.54,1.74.14,2.57.39a6,6,0,0,1,1,.55,10.57,10.57,0,0,1-3.23.23c-1.06,0-2.13,0-3.19.05-.79,0-1.57.11-2.36.13-.51,0-1-.06-1.52,0s-.79.28-1.07-.22c0-.06-.19-.13-.21-.11-1,.77-2.25-.11-3.29.69,1.45.46,2.93-.08,4.34.52l-2.45.15V17h3.4a2,2,0,0,1-1.52.84c-2.83.2-5.66.47-8.49.72a2.11,2.11,0,0,0-.41.15c0,.17-.06.37,0,.5a6.33,6.33,0,0,1,.56,2.71c.14,2.08.32,4.16.48,6.23.2,2.46.42,4.92.58,7.39.18,2.69.3,5.38.48,8.07.07,1.06.24,2.12.37,3.17a5.27,5.27,0,0,1,.1.52q.1,4.11.2,8.22a1.51,1.51,0,0,0,0,.52c.69,1.94.21,4,.41,5.91.23,2.15,0,4.3.09,6.45s.37,4.13.57,6.19a.83.83,0,0,1,0,.27c-.43,3,.61,5.86.5,8.83-.13,3.49.05,7,.13,10.49q.15,6.12.34,12.25c.13,4.25.3,8.51.37,12.76.05,2.35-.08,4.7-.11,7,0,.48.06,1,.1,1.44,0,.18.07.35.08.53.08,2.78.22,5.57.24,8.35s-.11,5.77-.09,8.66c.05,5.14.18,10.29.26,15.07l-1.58,2.17a1.27,1.27,0,0,0,1.55.07c.09,6.54.19,13,.28,19.48l-.17,0-.11-1.06a.9.9,0,0,1-1.34-.07c-.14.1-.25.13-.27.2-.53,1.72-.52,1.72,1.29,2,.17,0,.33.11.6.19q.21,10.51.43,21l-.21,0-.3-1.07c-.11.14-.22.23-.22.31,0,1.1,0,2.21,0,3.43l-1.19-.82V203.7h.15c0,.32.05.64.08,1h.1c.13-.8.3-1.59.38-2.4a2.46,2.46,0,0,0-.14-1.14c-.13-.32-.47-.55-.05-.9a6.51,6.51,0,0,0-.48-.77,11.85,11.85,0,0,0-.51,4.78c0,5.07,0,10.13,0,15.2s.18,9.94.21,14.91c0,3.33-.17,6.65-.14,10,0,4.17.22,8.34.27,12.52,0,3.37-.06,6.74,0,10.11,0,2.7.17,5.41.26,8.11,0,.09,0,.21,0,.26a5.56,5.56,0,0,0,.5.47c.12-.15.35-.3.36-.45a22.82,22.82,0,0,0,.17-4.51,49.81,49.81,0,0,1-.05-5.18c0-1.23-.07-2.46-.12-3.7,0-.73.28-1.47-.16-2.19-.11-.18,0-.52.06-.78s.26-.38.21-.46c-.43-.75.17-1.43.1-2.14a23.07,23.07,0,0,0-.38-2.33,12.66,12.66,0,0,1,0-1.75,12,12,0,0,1,.09-4.31.61.61,0,0,0,0-.4c-.78-1.52-.3-3,0-4.54a2.68,2.68,0,0,0-.1-1.43,9.94,9.94,0,0,1-.08-5.84,3.46,3.46,0,0,0-.08-2.29,8,8,0,0,1-.31-1.65l.45.53c.06-.83.09-1.66.19-2.48.07-.63-.35-.84-.77-1.08-.06-1.2-.17-2.39-.15-3.58a7.79,7.79,0,0,1,.42-1.73c-.17-1-.35-2.09-.49-3.17,0-.17.09-.5.2-.53.91-.23.49-.81.15-1-.53-.3-.46-.7-.46-1.13,0-1.91,0-3.81,0-5.94l.46.86.61-.43.45.5.26-.92c.12.1.23.15.23.2,0,.71.05,1.42.07,2.13.06,3.16.24,6.31.15,9.46a87.51,87.51,0,0,0,.28,9.58c0,.57,0,1.15,0,1.73,0,2.17.05,4.35,0,6.52,0,3.55-.14,7.1-.15,10.65,0,1.28.22,2.56.25,3.85.05,2,0,4,0,6,0,1-.07,2.05,0,3.07.08,3,.18,5.94.26,8.91,0,.66,0,1.32,0,2.07,1.21.17,2.39.42,3.57.48a30.79,30.79,0,0,1,6.56.93c.88.25,1.68.84,2.56,1s1.77-.09,2.62,0a13.4,13.4,0,0,1,2.29.81c-.24.48-.32,1-1,.82-.47-.12-.54.18-.59.57,0,.07-.49.09-.74.35l1.54.08a2.09,2.09,0,0,1-1.73.49,7.43,7.43,0,0,0-3.64.4,43.83,43.83,0,0,1-7.72,1.13c-1.35.11-2.77-.09-4.11.68l-.18,1.41H304l-.16-1.46c-.73,1.23,0,2.65-.85,3.86v-4.22c-1,.14-1.14.66-1.14,1.35,0,2.36,0,4.71-.09,7.07-.06,2.74-.13,5.49-.25,8.24-.06,1.45-.22,2.9-.37,4.35a1.37,1.37,0,0,1-.53.93l-.13-1a.89.89,0,0,0-.21,0c-.38,1.06-.75,2.11-1.13,3.2a1.46,1.46,0,0,1-.11-.18,15.85,15.85,0,0,1-1.05-4.29c0-.23,0-.59-.45-.43-.05-.35-.21-1-.11-1,.85-.41.39-1.09.37-1.63-.06-1.58-.25-3.17-.29-4.76a8.77,8.77,0,0,1,.42-1.87c-.72-.41-.53-1.24-.58-2s-.16-1.75-.22-2.63c0-.52,0-1-.05-1.58a16,16,0,0,0-.13-2.49,5.66,5.66,0,0,0-.12,2.83c.07,1,.1,2,.12,3s0,2,0,3,0,2-.07,3.06c-.26-4.17-.53-8.34-.79-12.55-1.51,0-2.82,0-4.14,0q-3.06,0-6.12.13c-.57,0-1.14.16-1.72.17-1.5,0-3,0-4.49,0-1.06,0-2.11.08-3.17.12-1.54.06-3.09.17-4.64.16-1,0-2-.16-3-.25a5.1,5.1,0,0,0-.78,0,30.15,30.15,0,0,1-4.25.07c-.21,0-.43.13-.64.13-.56,0-1.11-.08-1.66-.13-.29,0-.68-.19-.85-.07-.56.41-1.1.17-1.66.15a13.23,13.23,0,0,0-4.12,0,4.59,4.59,0,0,1-3,0,6.4,6.4,0,0,0-2.56.1c-.17,0-.35.13-.51.11-2.55-.33-5.11.53-7.67-.06a5.59,5.59,0,0,0-1.57.07c-.59,0-1.21.43-1.78-.1a.42.42,0,0,0-.38,0c-2.14.82-4.36.24-6.54.32-.79,0-1.58,0-2.37,0a1.3,1.3,0,0,1-.52-.05c-1-.42-2.06-1.07-3.09,0,0,.05-.17,0-.26,0-1-.09-1.93-.23-2.9-.28-.73,0-1.47,0-2.2.08-.18,0-.36.11-.52.07-1.5-.37-3,0-4.54-.22a3.45,3.45,0,0,0-1.31.11,10,10,0,0,1-5.35-.09,3.58,3.58,0,0,0-1.31,0,14.09,14.09,0,0,0-2.35.26,1.73,1.73,0,0,1-1.72-.34.72.72,0,0,0-.61-.08,3.67,3.67,0,0,1-2.59-.1,1.12,1.12,0,0,0-1.1.24c-.35.26-1,.52-1.31.37-1-.5-2.06,0-3.07-.13-.82-.08-1.65,0-2.48,0-1.59-.05-3.19-.14-4.78-.2a3.44,3.44,0,0,0-1.06.1,9,9,0,0,1-3.87,0c-.57-.08-1.15,0-1.73,0a13.42,13.42,0,0,1-1.53-.22,3.46,3.46,0,0,0-.64-.13c-2,.06-4,.07-6,.23a20.9,20.9,0,0,0-3.15.15,10.28,10.28,0,0,1-2.55-.24c-1.28-.08-2.56-.1-3.83-.12a7.5,7.5,0,0,0-1.05.12Zm167-11.32-.25,1.19.25,0v-1.22c-.16-1.75-.41-3.5-.46-5.25-.05-1.59.15-3.19.16-4.78a22.37,22.37,0,0,0-.25-2.5c-.63,4.37.17,8.45-.06,12.56Zm-110,.81q10.06,0,20.13.05c7.37,0,14.75.12,22.12.16,3.68,0,7.36,0,11.05,0,6.71,0,13.42,0,20.13,0,3.55,0,7.1.15,10.65.24s6.84.18,10.26.3c2.28.09,4.56.24,7,.38,0-.74,0-1.31,0-1.88-.07-2.17-.17-4.34-.23-6.52q-.17-5.85-.29-11.72c-.08-4.43-.13-8.86-.2-13.3q-.12-7.44-.25-14.89-.15-9.53-.31-19.05c-.08-5.32-.13-10.64-.22-16,0-3.15-.17-6.29-.2-9.44,0-3.8,0-7.61,0-11.41,0-2.15-.15-4.31-.11-6.46,0-1.72-.17-3.42-.08-5.16a74.93,74.93,0,0,0-.28-7.77c0-.72-.12-1.45-.18-2.17-.46.7-.2,1.5-.59,2.18a23.49,23.49,0,0,1-.17-3.12,8.55,8.55,0,0,1,.2-3l.23,1.84c.49-2.34.46-3.23,0-4.05l-.5.74v-2.95h.12l.37,1.46.34,0v-4.32l-.44-.61c-.54.75.53,1.6-.33,2.48a6.24,6.24,0,0,1-.19-1c-.09-3.32-.16-6.65-.23-10a2.86,2.86,0,0,1,.13-.62c.32,2.43-.09,4.86.6,7.23a3.13,3.13,0,0,0,.11-1.13c0-1.14-.14-2.28-.12-3.42,0-1.9.08-3.8.19-5.7,0-.72-.18-1.18-.8-1.32-.07-1.34-.13-2.56-.18-3.79,0-.92-.05-1.84-.08-2.76s-.07-1.67-.08-2.51c0-.66.06-1.33.07-2,0-1.51,0-3,0-4.53q-.06-6.32-.14-12.63a3.5,3.5,0,0,1,.09-.55l.28,0v2.82h.3V91.24c0-.22.06-.55-.05-.65-.91-.78-.5-1.79-.54-2.72-.05-1.1,0-2.2-.07-3.3-.08-1.58-.26-3.15.71-4.56a.45.45,0,0,0,.08-.38,2,2,0,0,1,.1-2c.56-.71-.25-1.26,0-2a8.64,8.64,0,0,0,.21-2.76,1.08,1.08,0,0,0-.67-1.18c-.22-.09-.3-.48-.54-.92.74.26,1.11.17,1-.39a8.25,8.25,0,0,0-.57-1.38,6.84,6.84,0,0,0,.35-1.67c0-.31-.36-.6-.43-.71A8.2,8.2,0,0,0,292.9,65a1.16,1.16,0,0,0-.67-1.52c-.35-.15-.45-.63.08-.89a4.16,4.16,0,0,0,.42-.25,12.35,12.35,0,0,1,0-2.37,25.65,25.65,0,0,0,.26-5.25,29,29,0,0,1,.14-4.07,1.63,1.63,0,0,0-.47-1.6,6.32,6.32,0,0,0,.38-1.34c.05-.87,0-1.75,0-2.63.07-3.17.13-6.35.25-9.53.1-2.83.27-5.66.43-8.5.11-1.94.27-3.87.41-5.81,0,0,.08-.09.12-.13l.17.85c.72-.93.31-1.79.44-2.53a1.9,1.9,0,0,0-1.83-.61c-1.45.28-2.93-.28-4.4.29a6.94,6.94,0,0,1-2.67.34c-1.55,0-3.1,0-4.65,0-.94,0-1.88-.16-2.82-.2-.57,0-1.14.11-1.71.11-1.67,0-3.34-.05-5,0-.8,0-1.61.14-2.41.2a15.74,15.74,0,0,1-1.68.08c-1.65,0-3.32-.41-4.9.41-.22.11-.63.18-.77.06-.76-.63-1.5.19-2.3,0a6.62,6.62,0,0,0-2.35,0,12.39,12.39,0,0,1-1.67.23,29.87,29.87,0,0,0-6.75.11,4.73,4.73,0,0,1-.65,0,13.89,13.89,0,0,0-5.47.61,2.78,2.78,0,0,1-1,0,24,24,0,0,0-3.69-.1c-1,.12-2,.62-3.09,0-.25-.15-.69,0-1,.05a11.58,11.58,0,0,1-4.59-.3,1.67,1.67,0,0,0-.38,0,13.22,13.22,0,0,1-2.75-.13,3.89,3.89,0,0,0-2.81.33c-1.31.64-1.63.56-2.71-.52-.8.19-1.65.4-2.5.57a9.52,9.52,0,0,1-1.41.17c-2.19.15-4.38-.29-6.57.13a1.89,1.89,0,0,1-.52-.06c-.48,0-.95-.1-1.43-.11s-1.24,0-1.86,0c-1,0-1.93-.14-2.89-.08a27.66,27.66,0,0,1-4.59.37c-2.07-.23-4.15.24-6.2-.23a6.25,6.25,0,0,0-1.7.15c-.34,0-.68.05-1,.06a21.17,21.17,0,0,1-3.73-.22,9.18,9.18,0,0,0-2,.1c-.65,0-1.29.12-1.94.14-1,0-2.07.57-2.86-.06-.86.09-1.44.18-2,.22a11.47,11.47,0,0,1-1.94.06,8.15,8.15,0,0,0-2.79-.23,5.4,5.4,0,0,1-2.34.23,9.47,9.47,0,0,0-3,0l-21.14.88a16.83,16.83,0,0,1-3.83.23c-2.26,0-4.52-.19-6.78-.24s-4.49-.05-6.73,0c-1.76,0-3.52-.36-5.28,0a2,2,0,0,1-.93,0,10.17,10.17,0,0,0-4-.11c-2.29.17-4.61.05-6.92,0-2,0-4-.17-6-.18-3,0-6,.05-9,.06-1.14,0-2.29,0-3.44,0-1.85,0-3.7.08-5.55.09-.84,0-1.68-.06-2.53-.06-2.87,0-5.74,0-8.61,0-2.21,0-4.43-.09-6.65-.09s-4.16.12-6.24.1q-5.52,0-11-.19c-3.4-.09-6.79-.26-10.19-.36a37.54,37.54,0,0,0-4.11.07,5,5,0,0,1-2.08-.08,7.93,7.93,0,0,0-2.24-.2c-1.36,0-2.73,0-4.1.05l-1.93,0a4.75,4.75,0,0,0-.11.68L28,30.59c0,1.73-.06,3.45,0,5.18,0,2.66.13,5.32.13,8q0,16.71,0,33.44c0,13,0,26,0,39.06,0,11.55-.12,23.09-.18,34.64,0,5.06,0,10.13,0,15.19s0,10.3-.09,15.44c0,4.4-.11,8.79-.15,13.18,0,1,.14,1.94.13,2.92,0,1.85-.11,3.7-.13,5.56,0,2.25,0,4.5,0,6.75-.07,6.79-.16,13.59-.21,20.39,0,1.9.12,3.8.09,5.71,0,2.3-.17,4.61-.25,6.91-.06,1.69-.13,3.37-.14,5.06,0,2.43.06,4.86.06,7.29q0,4.67-.1,9.32c0,2.71-.14,5.41-.2,8.12,0,.73,0,1.46,0,2.13h3.92l5.06-.1c2.31-.06,4.61-.13,6.92-.18,2,0,3.91,0,5.86-.11,2.35-.09,4.69-.3,7-.37,2.09-.07,4.17,0,6.25,0q9.19-.1,18.37-.26c1.68,0,3.37-.28,5-.16a45.63,45.63,0,0,0,6.51,0,14.36,14.36,0,0,1,2.78,0,39.77,39.77,0,0,0,7.71.27c2.26-.15,4.52-.28,6.78-.36,1.64,0,3.29,0,4.93,0,1.2,0,2.4,0,3.59,0s2.11.23,3.17.23,2.29-.21,3.44-.22c5.15-.06,10.3-.12,15.46-.12ZM24.51,170.1c.29-1.22.95-2.4.25-3.69a2.42,2.42,0,0,1-.12-1q.08-5.52.18-11a18.33,18.33,0,0,0,.07-2.45,5,5,0,0,1,.22-3.09,1.61,1.61,0,0,0,0-.89,10,10,0,0,1-.28-1.41c-.05-1.54-.06-3.08-.06-4.62,0-.25,0-.6.19-.73.42-.34.25-.68.19-1.08a32.09,32.09,0,0,1-.38-3.64c0-2,.11-3.94,0-5.92a15.7,15.7,0,0,1,.33-2.8c-.64-.84-.43-2,0-3.16a4.93,4.93,0,0,0,.17-1c.19-1.43-.4-2.82,0-4.31.41-1.65-.12-3.36-.3-5a11.15,11.15,0,0,1,.12-3.51,12.87,12.87,0,0,0-.09-1.62c0-.56.25-1.11.31-1.67a9.58,9.58,0,0,0-.06-1.31c0-.4-.18-.65-.73-.73C24.5,127,24.26,148.54,24.51,170.1Zm.22-146.55a18.92,18.92,0,0,1,.14,2.05c0,1-.2,2-.17,3a3,3,0,0,0,.49,1.83c.32-.7.81-1.3.77-1.86A6.35,6.35,0,0,1,26.15,27c.09-.49-.33-1.05-.4-1.6a15.62,15.62,0,0,1,0-1.81,10.4,10.4,0,0,0,0-1.58c-.07-.47-.4-.66-.92-.44L24.5,22.9c-.16-.15-.27-.21-.28-.27,0-.25,0-.51,0-.77,0-.1-.12-.19-.25-.38l-.15.86-.66-.19.11,1.69Zm-.42,214.74c-.35,3.2-.32,14.26,0,15.84A126.84,126.84,0,0,0,24.31,238.29ZM302,185.09c-1.22,2.48-.47,5-.47,7.54a1.74,1.74,0,0,0,.56-1c0-1.14-.08-2.28-.1-3.42a2.83,2.83,0,0,1,.27-1.78A.86.86,0,0,0,302,185.09ZM24.7,99.43l.29,0a4.52,4.52,0,0,0,.08-.63c0-1.71,0-3.43.06-5.14a9.51,9.51,0,0,0,0-1.19c0-.19-.24-.36-.37-.54a61.49,61.49,0,0,0-.33,7A1.43,1.43,0,0,0,24.7,99.43Zm.22,99.14c-.52-.51-.68-1.15-.38-1.2.83-.14.38-.59.28-.9a5.21,5.21,0,0,0-.6-1v9.23c0-1.08,1.7-2,.28-3.12l.48-1C24.12,199.51,24.19,199.82,24.92,198.57Zm-.71-4.43c.28-.15.6-.22.62-.34.13-.83-.22-1.68.1-2.51-.9-1.08.17-2.39-.41-3.51.93-.7-.24-1-.31-1.52Zm.54-117.31c.93-1.09.47-2.28.48-3.44A22.92,22.92,0,0,0,25,70l-.29,0Zm276.59,96c0,.68,0,1.16,0,1.63-.09,1.33,0,1.41,1.36,1.1a1.79,1.79,0,0,0,.29-.17c.08-.48.17-1,.25-1.48ZM24.4,206.38h-.29q0,3.3,0,6.61a2.82,2.82,0,0,0,.22.75c.6-.8.65-.81.57-1.58-.13-1.2-.37-2.4-.5-3.6C24.34,207.85,24.4,207.11,24.4,206.38Zm.06,49.45-.4-.05v3.14c0,1,0,2,0,3a8.22,8.22,0,0,0,.1,2.93h.32Zm.05-151.39c.68-.41.68-.41.71-1.12.07-2.59.07-2.59-.71-3.13ZM302,198.39c.58-2.68.57-4.1,0-4.85-.93,1.43-.11,3.09-.63,4.63ZM24.15,220.17c.93-2.63.92-3.46.11-5.19-.07.86-.19,1.74-.21,2.61S24.12,219.31,24.15,220.17ZM25.39,31.8a8.54,8.54,0,0,0-.17,5.11c.23-1.47.39-2.95.52-4.42C25.75,32.32,25.57,32.13,25.39,31.8Zm276,133a9,9,0,0,0,.19,4.55c.68-.46-.05-.87-.08-1.26-.06-.71.55-.8.77-1Zm-8.9-63.67a26.17,26.17,0,0,0,0,8.14ZM25.05,78c-.63,1.14-.61,3.42,0,4.21A11.43,11.43,0,0,0,25.05,78Zm276.7,81.88c.1-.35.23-.58.17-.66a1.72,1.72,0,0,1,0-2.19.71.71,0,0,0-.16-.66c-.14-.1-.45,0-.76.09C301.18,157.58,300.69,158.74,301.75,159.85ZM24.69,176.75c.58-1.3.14-2.55,0-3.81A5.6,5.6,0,0,0,24.69,176.75ZM25.2,44.13l-.31,0c-.11.85-.52,1.7.13,2.58l.82-.9Zm-.24-3c.41-1,1.32-2.06,0-3.21ZM24.75,88c.12-.06.32-.11.32-.16a6.73,6.73,0,0,0-.32-3.46Zm-.59,148.09a4.62,4.62,0,0,0,0-3.9Zm279.3-.34a5.89,5.89,0,0,0,.2-3.86C303.59,233.25,303.52,234.49,303.46,235.73Zm-2.06-89.46c-.55.64-.19,1.37-.38,2.08l1.2.81.24-.19C302.25,148,300.75,147.54,301.4,146.27ZM25.1,58.17c-.2-1,.27-2.08-.26-3.06C24.86,56.13,24.34,57.19,25.1,58.17ZM300.52,295.55h-.33c0,.84-.45,1.69,0,2.52h.35ZM24.93,52.07c-.35,1.48-.35,1.51.07,2.33C25.81,53.58,25.22,52.83,24.93,52.07ZM303.61,252.51l.36,0-.11-2.34h-.25ZM292.45,113a2.67,2.67,0,0,0,.13,2.52C293.15,114.51,292.56,113.74,292.45,113Zm2.29,45.18c.64-.81.65-1.11,0-2.19Zm9.14,88.1h-.18v2.64h.18ZM24.2,227.84v2.54h.27A4.83,4.83,0,0,0,24.2,227.84Zm279.71,14.72a2.4,2.4,0,0,0,0,2.38Zm-279.52,25-.34,0c.36.74-.28,1.49.05,2.22h.29Zm.39-84.8c-.08-.72.28-1.22-.23-1.82A1.29,1.29,0,0,0,24.78,182.79Zm270.06-13c.62-.45.67-.86.32-1.92C294.48,168.4,295.14,169.07,294.84,169.75ZM304,256.63a4.53,4.53,0,0,0-.18-2.33A4.93,4.93,0,0,0,304,256.63Zm-2.2-129.84c-.41,1.06-.4,1.06.24,1.51A1.55,1.55,0,0,0,301.79,126.79ZM318.7,281.16l.06-.32c-.78-.44-.78-.44-1.74.07ZM24.39,221.83l-.15,0v2.09h.15Zm271.55,8.56c-.56,1-.56,1,.14,1.73C296,231.47,296,231,295.94,230.39Zm6.59-90.4a.89.89,0,0,0-.53-1.16C301.82,139.4,301.88,139.76,302.53,140Zm-1.13,31.9.29,0-.08-1.12-.21,0ZM25,60.62l-.28.06c0,.35.05.7.07,1l.29,0ZM24.81,49l.32,0L25,47.91l-.28,0ZM304.14,257.59h-.37l.15,1,.22,0ZM297.49,21.82h-.22c.05.63.09,1.26.14,1.88h.08ZM24.7,63.24l.34.06.12-.89-.27,0ZM303.13,193.69c-.19.72-.19.72.28,1.32C303.29,194.47,303.21,194.08,303.13,193.69ZM23.15,36h.16V34.45h-.16ZM302.9,185c.32-.88.32-.88-.3-1.14ZM25,65l-.35.09.22.73.27-.08ZM302.27,228.05c.52-.33.52-.33.2-.85ZM23.31,50.47l-.09-.1s-.07.07-.07.1c0,.3,0,.6,0,.9,0,0,.09.06.18.12ZM302.42,222.14l.15,0v-1h-.15Zm-6.3,29.34H296l0,.7h.09ZM24.82,89.88H25c0-.15.17-.31.14-.43s-.21-.26-.33-.39l-.19.11ZM296.54,10.24c.13-.27.2-.34.2-.4a4.86,4.86,0,0,0-.11-.55ZM24.18,225.5h.19l.07-.64-.22,0Zm-7.12-205,0-.33h-.68l0,.19Zm286.88,210-.21-.08a5.43,5.43,0,0,0-.17.53s.11.08.18.12ZM24.26,185.17l.18,0,0-.57-.18,0Zm271.58,42.17-.31,0V228l.17,0Zm-.59-52-.33,0,.11.65c.11,0,.31-.07.31-.1A4.14,4.14,0,0,0,295.25,175.33Zm7.38,50.22h-.2l0,.76h.2Zm1-.87c-.05.07-.1.11-.09.13a2.14,2.14,0,0,0,.09.27ZM23.16,44.32h.09v-.59h-.09ZM297.25,20l-.2.05.18.77.23-.06Zm-.8,251.72h-.14l0,.58.15,0ZM320,280.3l0-.27-.61.11,0,.16Zm-316.2-.1-.07.28.62.14.06-.25ZM35.62,18.66c.1-.23.2-.35.17-.43a.4.4,0,0,0-.27-.22c-.07,0-.24.17-.22.22A2.17,2.17,0,0,0,35.62,18.66ZM303.7,17.14l0-.3-.61.06v.19ZM301.85,16v-.14H300.8V16Zm-280,76.23V104h.08V92.26Zm.08-2.62V82h-.11v7.48ZM27.21,3.73a1.94,1.94,0,0,0,0-.86c0-.26.05-.53,0-.79-.07-.78-.37-1-1.36-1ZM303.53,208.79v1.68l-.93-.59c0,.63-.08,1.09-.11,1.55C303.34,210.73,304.34,210.07,303.53,208.79ZM21.92,76.35V72.21h-.1v4.14Zm2.74-72c-.72.75-.34,1.37,0,2Zm285.1,12.91c-.12-1-.12-1-1.07-.93ZM302.8,293l-.13,1.69.18,0,.32-1.67ZM21.9,111.67v1.62h0v-1.62Zm281.68,94.38v1.09h.18v-1.09Zm-6.4,94.23v-1.63l-.19,0,.15,1.62ZM10.44,20.21l-.73,0,0,.18.7.17ZM22,108.9l0-.39h-.09v.38ZM22.9,9.63l.06.42h.13V9.63ZM293.61,217.76v5.37h.27v-5.37Zm.1-7.25V207A5.11,5.11,0,0,0,293.71,210.51Zm.65,44.37-.33-3.8h0v3.81ZM293.41,213v3.07h.2c.08-1,.15-2,.23-3.07Zm-.08-27.65v-2.62A3.86,3.86,0,0,0,293.33,185.37Zm-1.2-91.59V91.61H292c0,.73-.07,1.45-.1,2.18Zm1.53,136.87.07,1.45H294v-1.38ZM292.9,161v1.78A1.44,1.44,0,0,0,292.9,161Zm.22,26.59.07,1,.29,0-.13-1Zm.89,46.63-.07-.66-.19,0,.07.66Zm-.63-34,0,.86h.07v-.88Zm.69,42-.06-.75-.07,0c0,.25,0,.5,0,.75a2.2,2.2,0,0,0,.05.29A1,1,0,0,0,294.07,242.22Zm-.3-16.94,0-.7h-.16v.7Zm.41,21.62,0,.36h.08v-.37ZM294,244v.33h0V244Zm-.23-16.49s-.18.08-.18.11a1.33,1.33,0,0,0,.1.34l.36-.16A2,2,0,0,0,293.75,227.55ZM292,79.29s-.07,0-.11,0l.1.17.07-.1S292.05,79.3,292,79.29Z" style="fill:none"/></clipPath></defs><title>square-frame</title><g id="Layer_2" data-name="Layer 2"><g id="assets"><g id="square-frame"><g style="clip-path:url(#clip-path)"><line x1="9.95" y1="43.67" x2="345.37" y2="41.23" style="fill:none;stroke:#000;stroke-linejoin:round;stroke-width:30px"/><line x1="348.88" y1="305.37" y2="305.37" style="fill:none;stroke:#000;stroke-linejoin:round;stroke-width:30px"/><line x1="309.67" y1="10.79" x2="314.34" y2="347.37" style="fill:none;stroke:#000;stroke-linejoin:round;stroke-width:30px"/><line x1="35.25" y1="336.25" x2="40.81" y2="0.25" style="fill:none;stroke:#000;stroke-linejoin:round;stroke-width:30px"/></g></g></g></g></svg>