<svg id="Layer_1" data-name="Layer 1" xmlns="http://www.w3.org/2000/svg" viewBox="0 0 107.86014 4.74211"><path d="M3,.65132H1.84v4H1.17v-4H0v-.59H3.05A3.7003,3.7003,0,0,1,3,.65132Z" style="fill:#fff"/><path d="M6.73,4.67133v-2.13h-2v2.13H4.06v-4.61h.67v1.89h2v-1.89H7.4v4.61Z" style="fill:#fff"/><path d="M11.55,4.67133H8.92v-4.61H11.5a2.99939,2.99939,0,0,1-.06.59H9.59v1.33h1.4v.58H9.59v1.52h2A3.93071,3.93071,0,0,1,11.55,4.67133Z" style="fill:#fff"/><path d="M15.38,4.74132a3.50993,3.50993,0,0,1-1.24-.21,3.18014,3.18014,0,0,1,.15-.59,2.87011,2.87011,0,0,0,1.15.22c.52,0,.8-.23.8-.68,0-1-2.09-.87-2.09-2.2,0-.83.66-1.28,1.58-1.28a4.42967,4.42967,0,0,1,1,.1,2.60038,2.60038,0,0,1-.1.59,4.4295,4.4295,0,0,0-1-.12c-.63,0-.82.27-.82.65,0,.87,2.09.8,2.09,2.2C16.91,4.22132,16.33,4.74132,15.38,4.74132Z" style="fill:#fff"/><path d="M19.86,4.74132c-1.31,0-2-.82-2-2.38s.82-2.36,2-2.36a2.86023,2.86023,0,0,1,1.16.22,3.18885,3.18885,0,0,1-.12.6,2.31017,2.31017,0,0,0-1-.23c-.81,0-1.27.43-1.27,1.78s.39,1.77,1.28,1.77a2.14993,2.14993,0,0,0,1.09-.3,2.65,2.65,0,0,1,.13.6A2.59988,2.59988,0,0,1,19.86,4.74132Z" style="fill:#fff"/><path d="M22.23,4.67133v-4.61h.67v4.61Z" style="fill:#fff"/><path d="M27.03,4.67133H24.4v-4.61h2.58a2.99939,2.99939,0,0,1-.06.59H25.07v1.33h1.4v.58h-1.4v1.52h2A3.00011,3.00011,0,0,1,27.03,4.67133Z" style="fill:#fff"/><path d="M31.04,4.70132l-1.9-3.25a2.58913,2.58913,0,0,1-.22-.5h0v3.7h-.6v-4.54a4.10975,4.10975,0,0,1,.69-.06l1.82,3.1a2.7105,2.7105,0,0,1,.22.49h.05a4.58025,4.58025,0,0,1,0-.53v-3h.6v4.54A3.99964,3.99964,0,0,1,31.04,4.70132Z" style="fill:#fff"/><path d="M34.9,4.74132c-1.31,0-2-.82-2-2.38s.82-2.36,2-2.36a2.86023,2.86023,0,0,1,1.16.22,4.24988,4.24988,0,0,1-.12.6,2.28007,2.28007,0,0,0-1-.23c-.8,0-1.27.43-1.27,1.78s.4,1.77,1.28,1.77a2.20988,2.20988,0,0,0,1.1-.3,3.34972,3.34972,0,0,1,.12.6A2.56987,2.56987,0,0,1,34.9,4.74132Z" style="fill:#fff"/><path d="M39.88,4.67133H37.23v-4.61h2.6a3.00091,3.00091,0,0,1-.06.59H37.92v1.33h1.4v.58h-1.4v1.52h2A3.00011,3.00011,0,0,1,39.88,4.67133Z" style="fill:#fff"/><path d="M44.36,4.74132c-1.2,0-1.9-.73-1.9-2.35s.72-2.39,1.9-2.39,1.87.74,1.87,2.37S45.5,4.74132,44.36,4.74132Zm0-4.16c-.78,0-1.17.43-1.17,1.79s.34,1.79,1.18,1.79,1.17-.49,1.17-1.79-.42-1.79-1.19-1.79Z" style="fill:#fff"/><path d="M50.07.65132H48.23v1.44h1.5v.58h-1.5v2h-.67v-4.61h2.61A3.999,3.999,0,0,1,50.07.65132Z" style="fill:#fff"/><path d="M52.84,4.67133v-4.61h.66v4.61Z" style="fill:#fff"/><path d="M58.99,4.69133l-.26-3.24v-.44h0a2.26045,2.26045,0,0,1-.09.44l-1,3.27h-.62l-1-3.27a2.38993,2.38993,0,0,1-.07-.44H55.9v.44l-.3,3.29a2.56963,2.56963,0,0,1-.57-.05c.11-1.52.26-3,.44-4.58h.75l.93,3.34a4.45022,4.45022,0,0,1,.11.51h0a2.67964,2.67964,0,0,1,.09-.52l1.05-3.33h.83c.17,1.54.31,3.07.42,4.58A3.52094,3.52094,0,0,1,58.99,4.69133Z" style="fill:#fff"/><path d="M62.3,2.99132h-.62v1.68h-.66v-4.56a10.07187,10.07187,0,0,1,1.31-.09,1.37,1.37,0,0,1,1.54,1.43,1.44,1.44,0,0,1-1.57,1.54Zm0-2.44h-.63v1.9h.56a.87.87,0,0,0,1-1,.83.83,0,0,0-.92-.9Z" style="fill:#fff"/><path d="M67.56,4.70132l-.33-.75a4.34987,4.34987,0,0,0-.77-1.17h-.67v1.89h-.65v-4.56a11.38208,11.38208,0,0,1,1.32-.09c.82,0,1.5.35,1.5,1.32a1.24,1.24,0,0,1-.94,1.24,3.26977,3.26977,0,0,1,.78,1l.52,1A2.88986,2.88986,0,0,1,67.56,4.70132Zm-1.17-4.14h-.64v1.69h.56c.59,0,.93-.27.93-.87S66.92.56132,66.39.56132Z" style="fill:#fff"/><path d="M70.97,4.74132c-1.19,0-1.9-.73-1.9-2.35s.73-2.39,1.9-2.39,1.9.74,1.9,2.37S72.11,4.74132,70.97,4.74132Zm0-4.16c-.78,0-1.18.43-1.18,1.79s.35,1.79,1.18,1.79,1.18-.49,1.18-1.79S71.74.58133,70.97.58133Z" style="fill:#fff"/><path d="M75.79,4.67133h-.7c-.53-1.47-1-3-1.44-4.57a3.83045,3.83045,0,0,1,.65-.06l1.06,3.54a2.53423,2.53423,0,0,0,.07.38h0a2.32958,2.32958,0,0,1,.08-.38l1.07-3.54a3.15,3.15,0,0,1,.61.06A43.19789,43.19789,0,0,1,75.79,4.67133Z" style="fill:#fff"/><path d="M78.29,4.67133v-4.61h.67v4.61Z" style="fill:#fff"/><path d="M83.23,4.70132l-1.91-3.25a3.38832,3.38832,0,0,1-.22-.5h-.05v3.7h-.61v-4.54a4.10993,4.10993,0,0,1,.69-.06l1.82,3.1a3.67987,3.67987,0,0,1,.23.49h0a4.58025,4.58025,0,0,1,0-.53v-3h.6v4.54A3.99889,3.99889,0,0,1,83.23,4.70132Z" style="fill:#fff"/><path d="M87.14,4.74132c-1.38,0-2-.82-2-2.38s.84-2.36,2.09-2.36a3.00014,3.00014,0,0,1,1.22.22,4.61916,4.61916,0,0,1-.13.6,2.72016,2.72016,0,0,0-1.09-.23c-.87,0-1.4.38-1.4,1.8s.49,1.75,1.35,1.75a1.99987,1.99987,0,0,0,.69-.11v-1.14h-.85a2.78011,2.78011,0,0,1-.06-.58h1.56v2.14A3.29,3.29,0,0,1,87.14,4.74132Z" style="fill:#fff"/><path d="M93.98,4.67133H91.5v-4.61h.67v4h1.86A3.99981,3.99981,0,0,1,93.98,4.67133Z" style="fill:#fff"/><path d="M95.08,4.67133v-4.61h.67v4.61Z" style="fill:#fff"/><path d="M98.94,4.67133h-.71c-.52-1.47-1-3-1.44-4.57a3.99919,3.99919,0,0,1,.66-.06l1.06,3.54a.73544.73544,0,0,0,.07.38h.05a2.32017,2.32017,0,0,1,.07-.38l1.08-3.54a3.00012,3.00012,0,0,1,.6.06C99.96,1.66132,99.47,3.19133,98.94,4.67133Z" style="fill:#fff"/><path d="M104.07,4.67133h-2.63v-4.61h2.57a3.92031,3.92031,0,0,1,0,.59h-1.85v1.33h1.4v.58h-1.4v1.52h2A3.9198,3.9198,0,0,1,104.07,4.67133Z" style="fill:#fff"/><path d="M106.33,4.74132a3.54994,3.54994,0,0,1-1.24-.21,3.18014,3.18014,0,0,1,.15-.59,2.87018,2.87018,0,0,0,1.15.22c.53,0,.8-.23.8-.68,0-1-2.09-.87-2.09-2.2,0-.83.66-1.28,1.58-1.28a4.42967,4.42967,0,0,1,1,.1,2.15,2.15,0,0,1-.1.59,4.42943,4.42943,0,0,0-1-.12c-.62,0-.82.27-.82.65,0,.87,2.1.8,2.1,2.2C107.87,4.22132,107.28,4.74132,106.33,4.74132Z" style="fill:#fff"/></svg>