<svg xmlns="http://www.w3.org/2000/svg" xmlns:xlink="http://www.w3.org/1999/xlink" viewBox="0 0 660.19 455.74"><defs><clipPath id="clip-path" transform="translate(9.96 7.61)"><path id="clipping-this-is" d="M159.59,240.8c-1.45.47-1.57,1.77-1.88,3-.26,1-.51,2-.82,3-.45,1.43-.46,2.82.09,5.5-1.39.47-2.39,1.22-1.94,3a6.46,6.46,0,0,1-.29,2.34,13.36,13.36,0,0,0-2.16,5.86,12.09,12.09,0,0,0,2.13-5.89c.44-.81.88-1.61,1.36-2.51a1.53,1.53,0,0,1,.44,1.83c-.34,1.34-.7,2.68-1.1,4-1.67,5.4-3.39,10.79-5,16.2-1.81,6-3.62,11.91-5.31,17.9-.77,2.74-1.23,5.56-1.91,8.66a10.67,10.67,0,0,0,1.77-.38c2.83-1.24,5.62-2.58,8.47-3.76a16.44,16.44,0,0,1,3-.6c.83-.17,1.75-.19,2-1.33,0-.17.7-.43.79-.34,1.39,1.28,2.7.07,3.94-.2,5.13-1.14,10.21-2.53,15.35-3.65,1.49-.33,1.85-1.16,2.17-2.41q2.57-10.1,5.24-20.15A268.74,268.74,0,0,1,194.82,244c2.44-6.43,4.54-13,6.92-19.42.79-2.15,2-4.15,3-6.27l1.11.85,5.29-8.8a2.51,2.51,0,0,1,1.59,3.11c-.47,1.82.06,3.59-.29,5.35-.22,1.09-.45,2.18-.72,3.26a23.53,23.53,0,0,0-.6,3.95,24.84,24.84,0,0,1-1.67,8c-.43,1-1.09,2.14-.57,3.42.13.31-.05.76-.14,1.14-.3,1.22-.58,2.44-.95,3.64a15.39,15.39,0,0,1-.82,1.62c-.5,1.13-1,2.26-1.43,3.43-.08.22.42.64.81,1.2-.39.61.22,1.88-1,2.58-.11.07,0,.56,0,.85s0,1.09-.06,1.11c-2.17.39-.94,1.76-1.12,2.68-.52,1.16-1.14,2.29-1.56,3.48-1.15,3.3-2.3,6.61-3.29,10a13.54,13.54,0,0,0-.71,4.69c.26,3.49.09,7.1-1,9.86-.46,1.12-.1,2.65-1.55,3.3l-.91,2.58A27.38,27.38,0,0,0,193,299c.49-1.54,1-3.09,1.48-4.64l.53.11a13.48,13.48,0,0,1-.16,1.67q-.53,2.44-1.13,4.87a6.52,6.52,0,0,1-.49,1.08c-.22-.12-.6-.37-.63-.33a2.22,2.22,0,0,0-.56.95c-.74,4.56-1.45,9.12-1.84,13.79.34-1,.69-2.09,1-3.14.6,2.66-.33,5.21-.1,8.13l-2-.56c-.46.24-.21,1.25.6,1.68.27.15.56.26,1,.49l-1.34,3.78-.39,0c-.05-.94-.09-1.88-.14-2.82l-.38-.07c-.34,1.51-.74,3-1,4.53-.59,3.3-1.15,6.61-1.63,9.93-.45,3.15-.7,6.34-1.18,9.49-.39,2.6-1,5.16-1.47,7.75-.54,3.14-.95,6.31-1.48,9.45-.44,2.58-.93,5.15-1.49,7.71-.1.49-.59.9-.92,1.35a18.28,18.28,0,0,1-.05,3.84,23.65,23.65,0,0,1-1.89,6.28,7.58,7.58,0,0,1-2.14,2.09c-.24.2-.85.09-1.26,0a15.42,15.42,0,0,1-1.78-.66,95.34,95.34,0,0,1,.39-14.91c.4-3.8.7-7.61,1.12-11.41.38-3.39.89-6.77,1.32-10.16a17.21,17.21,0,0,0,.13-3.52c-1.16,1.1-.62,2.6-1,3.88-.42,1.44-.67,2.95-1,4.43a20.34,20.34,0,0,1-1.07,4.1,3.27,3.27,0,0,1-.19-1c.06-.75.53-1.55-.58-2-.21-.08-.3-.7-.26-1.06.73-6.17,1.45-12.35,2.25-18.52q1.38-10.57,2.87-21.14c.3-2.12.71-4.23,1.05-6.35a7.26,7.26,0,0,0-.05-1.07,6.67,6.67,0,0,0-1.21.12q-7.2,2.22-14.37,4.47a3,3,0,0,1-.69.19c-5.76.64-11,3-16.55,4.57-1.23.34-2.49.59-3.72.9a2.37,2.37,0,0,0-1.94,2.09c-1.11,5.55-2.33,11.08-3.6,16.6-.48,2.1-1.23,4.13-1.82,6.2-.65,2.3-1.29,4.61-1.88,6.92-.77,3.07-.71,6.35-2.4,9.17a.62.62,0,0,0-.07.23c-.52,6.44-2.69,12.55-3.67,18.92-.77,4.95-2.23,9.8-3.35,14.7-.65,2.8-1.25,5.6-1.87,8.4-.46,2.08-.69,2.51-2,3.66l.62-3.17-.5-.17c-.25.6-.5,1.21-.76,1.81-.52,1.23-.74,2.81-1.65,3.6-1.07.95-2.74,1.22-4,1.71-1.15-.7.2-2.23-1.36-2.45l-.65.91-3.41-2.06.16-.33h1c.07-.19.19-.36.15-.45a10.55,10.55,0,0,1-.46-7.57c.67-2.16.52-4.57.71-6.88.11-1.35.15-2.71.24-4.06,0-.78.26-1.51-.59-2.15-.35-.26-.34-1.18-.27-1.77.48-4,.95-8.07,1.57-12.08.51-3.31,1.21-6.6,1.83-9.89.12-.63.14-1.37,1.15-1a.56.56,0,0,0,.45-.3c.38-1.54,1.38-2.92.33-4.73-.71-1.22,0-2.74,1.06-4l-.48,2.87.43.1,1.47-6.3-.25-.12-1.1,2.11-.33-.11a5.91,5.91,0,0,1,0-1.33q2.16-9.42,4.38-18.82c.1-.44.36-1.12.64-1.18,1.91-.37,1.25-1.32.73-2.41a2.84,2.84,0,0,1-.13-1.8c1.49-6,3-11.91,4.55-17.86.28-1.08.48-2.19.81-3.25a22.46,22.46,0,0,1,1-2.33l.45.15c-.12.71-.24,1.42-.42,2.44,1.08-2.09,1.12-2.7.63-4.44a2.7,2.7,0,0,1,0-1.41c.59-2,1.24-4,1.9-5.93.22-.65.39-1.26,1.43-1.26s.78-1.44.48-1.53c-1.38-.44-.59-1.18-.24-1.6a2.42,2.42,0,0,0,.6-1.68,14.53,14.53,0,0,1,1.35-3.74c1.33.51,1.26-.57,1.48-1.31.18-.58.95-1.27-.28-1.65a1.36,1.36,0,0,1,.09-.85c.72-1.18.43-3.09,2.39-3.41l1.89-4.8c-1.55-1.25.65-2,.42-3.08,1.82.18,1.26-1.54,1.86-2.34l.27-.67c1.71-3.68,3.55-7.3,5.08-11,1.17-2.89,2.62-5.65,3.66-8.6A73.47,73.47,0,0,1,152,233.3c2.19-4.34,4.66-8.53,7-12.78.67-1.21,1.5-1.9,2.64-1.06.59,1.39,1.13,2.67,1.69,3.95a6.53,6.53,0,0,1,.33,5.08c-.83,2.32-1.45,4.71-2.16,7.07l0-.06c-1.16.85-1.25,2.17-1.47,3.42l0,0c-1.48.32-.39,1.3-.51,2Zm-26,94.1-.51-.26c-.8,2.48-1.52,5-2.42,7.42-1.47,4-1.33,8.43-3.51,12.23-.43.75-.18,1.88-.26,2.83a19.18,19.18,0,0,1-.39,3.32,60,60,0,0,0-2.42,10.15c-.15,1.42-.44,2.83-.73,4.23-.62,3-1.15,6.11-2,9.09a39.46,39.46,0,0,0-1.17,5.78c-.23,2-.86,3.86-1.23,5.81a22,22,0,0,0-.2,2.7c.36-.05.41-.11.43-.19q3.81-17.42,7.61-34.85c.77-3.57,1.29-7.21,2.19-10.75,1-4.08,1.53-8.29,3.15-12.23A40.67,40.67,0,0,0,133.6,334.9Zm18-68.31c-4.23,12.51-8.83,24.92-11.31,38.2.45-.26.78-.34.81-.49C143.84,291.52,148.25,279.2,151.59,266.59Zm-17.8,63.83.69.1q1-4.39,2-8.79l-.48-.11Zm43.38-.58-.48-.19a9.13,9.13,0,0,0-.58,1.15c.87.58.43.9-.13,1.33-.09.07.16.58.36,1.25C177.41,332,177.12,330.91,177.17,329.84Zm-68.54,47.35h.7l.17-3.31-.51,0Zm15.3-68.67-.29-.18c-.35,1.12-.69,2.23-1,3.34l.45.13ZM197.6,280l-.42-.12c-.17.92-.35,1.84-.52,2.76l.48.09C197.29,281.83,197.45,280.92,197.6,280Zm-23.78,103.7-.36,0v1.13l.36,0Zm-65.64-2c.69-.45,1.23-1,.15-1.69Zm72.32-16h-.09V367h.09Zm-2.17-47.46-.35-.16-.59,1,.55.23Zm8,10.2c-.11-.13-.15-.23-.21-.24a.24.24,0,0,0-.2.12c-.11.45-.21.91-.31,1.36l.22,0ZM463,264.2c.17,2,.35,3.95.51,5.92.1,1.26.18,2.52,1.54,3.28-1.26-2.12-.56-4.18-.08-6.29.88-3.8,1.56-7.66,2.47-11.46a69.24,69.24,0,0,1,6.52-16.18q4.88-9.21,10.28-18.13a34.86,34.86,0,0,1,8.53-9.59c3.22-2.48,6.45-5,9.76-7.31a13.53,13.53,0,0,1,3.86-1.87,9.73,9.73,0,0,1,7.47.19c2.3,1.1,4.68,2,7,3.09a7.36,7.36,0,0,1,3.72,3.61c1.66,3.61,3.65,7.1,4.4,11.07a10.42,10.42,0,0,1,.24,1.65c.17,6.7.36,13.41-.9,20a49.07,49.07,0,0,1-2.47,8c-2.31,6.11-4,12.46-7.32,18.18a106.31,106.31,0,0,1-9.91,14.94c-1.45,1.77-2.62,3.81-4.22,5.43a31.68,31.68,0,0,1-14.94,9,9,9,0,0,0-1.77.71,10.75,10.75,0,0,1-5.1,1c-2.05-.05-4.12.17-6.18.14-3.81-.05-7.33-1.48-10.93-2.48a3.76,3.76,0,0,1-1.43-.83q-4.53-4-9-8c-.93-.84-1.71-1.78-1.39-3.21.05-.24-.23-.56-.37-.84l-2-3.88c-2.36-.43-3.35-2.36-4.2-4.33a33.36,33.36,0,0,1-1.48-4.5,20,20,0,0,1-.27-2.33,4.33,4.33,0,0,0-.38-1.81c-1.67-2.44-1.58-5-.77-7.68.27-.87.34-1.47-.41-2.11a2,2,0,0,1-.53-1.26c-.14-4.14-.28-8.29-.33-12.44,0-1.74.23-3.49.22-5.24a3.71,3.71,0,0,0-.53-2.41,3.1,3.1,0,0,1,.3-3.05c.9-.69.94-1.28.57-1.95-.67-1.22-.23-2.25.23-3.33,0,.38,0,.76.07,1.14l.27.07.43-1.07-.81-.09c.72-4.23,1.36-8.47,2.18-12.68.42-2.17,1.15-4.28,1.77-6.42.12-.42.24-1,.56-1.19a1,1,0,0,0,.49-1.56,4,4,0,0,1,0-1.29c2.36.79-.1,2.57,1.31,3.39.82-2.58,1.67-5.28,2.52-8l.21-1,2.13-4.33c.29-.65.59-1.29.88-1.93l-.61-.19c-.66.58-.28,1.41-.23,2.16l-1.8.92c1-2.64,1.79-4.86,2.66-7a19.32,19.32,0,0,1,1.37-2.91,11.08,11.08,0,0,1,1.46-1.62l.3,1.78,1.06-2.52-1.41.79q2-3.87,3.94-7.75l0,0-.39,2.44.39.12c.34-.85.67-1.71,1-2.56l0,.05c.94-1.7,1.87-3.4,3-5.44l-1.55.59,0,0a38.75,38.75,0,0,1,2.23-5.1c2-3.33,4.23-6.59,6.5-9.78,1.22-1.73,2.72-3.27,4.1-4.9l.15.13c-.22.6-.45,1.19-.76,2a3.15,3.15,0,0,0,1.7-2.66l1-.94c.23-.06.46-.11.68-.19s.46-.19.69-.29a3.3,3.3,0,0,0-.77-.53c-.18-.07-.44.09-.66.15l0,0c.59-1.8.59-1.8,2.1-1.75a5.55,5.55,0,0,1,.73-1.85,51,51,0,0,1,4.27-4.18c.82-.71,2.05-1,2.79-1.73s.83-2.05,1.56-2.74c2.78-2.62,5.48-5.34,9-7.07,1.27-.63,2.38-1.6,3.59-2.36s2.62-1.22,4-.16c.74,1.34-1.27,2.79.07,4.21l.86-.33a1.13,1.13,0,0,1,.29.33,3.49,3.49,0,0,1-.39,3.18,174.22,174.22,0,0,1-10,14.81,52.8,52.8,0,0,0-5.28,8.76c-.46.9-1.78,1-1.69,2.47.06.88-.8,1.86-1.36,2.72a70.81,70.81,0,0,0-6.05,11.94c-1.94,4.63-4.25,9.12-6.2,13.75-2.67,6.32-5.28,12.67-7.65,19.11A68.86,68.86,0,0,0,468,218c-.94,4.28-2,8.55-2.59,12.88-.82,6.31-1.92,12.61-1.69,19,.15,4.06,0,8.14-.15,12.21a8.57,8.57,0,0,1-.64,2.12l-.57-1.28-.25.13v4.42Zm20.55,27.67a8.34,8.34,0,0,0,5.16-1.27,18.41,18.41,0,0,1,2.83-1.25,9.12,9.12,0,0,0,1.91-.92c3.07-2.41,6.32-4.57,9.11-7.36a67.22,67.22,0,0,0,14.78-22.44c1.45-3.55,3-7.06,4.32-10.65,1.5-4.11,3.24-8.16,3.29-12.67s.2-8.77.31-13.15c.11-4.57-2.1-8.27-4.61-11.78-1.7-2.37-4.61-3-7.15-4.11a5.12,5.12,0,0,0-4.15.29c-2.26.9-3.65,2.78-5.33,4.33a37.61,37.61,0,0,0-9.15,12.43c-1.76,4-3.68,8-5.44,12-3.39,7.78-6.15,15.77-7.13,24.25-.6,5.14-1.36,10.29-1.08,15.51.13,2.46-.17,4.95.11,7.39a16.25,16.25,0,0,0,1.67,5.93C483.64,289.59,484.22,290.5,483.53,291.87ZM462.22,280.4l.52-.18L461,273.61c-.47.56-.83.81-.8,1C460.68,276.6,461,278.69,462.22,280.4ZM446.58,266l-.45.07c.21,1,.42,2,.62,3l.25,0Zm13.35,4.89.6-.07-.48-1.91-.46.11C459.7,269.62,459.82,270.25,459.93,270.87Zm-.51-24.09h-.13v2.58h.13Zm3.26-3.83h-.11v2.65h.11Zm0,13.43v-2.59h-.14Zm-2,9.14.3,0-.09-1.81-.32,0ZM450,278.32l.38-.13-.34-1-.38.14Zm-5-36.06h-.11v1.11H445Zm-406.87,29a7.19,7.19,0,0,0-1.31.3c-5.51,2.67-11.46,3.9-17.35,5.34a95.38,95.38,0,0,1-9.59,2,20.16,20.16,0,0,1-8.29-.63c-.19-.83-.28-1.53-.5-2.17s-.62-1.47-1-2.44a5.89,5.89,0,0,1,1.29-.77c2.47-.85,4.64-2.48,7.31-2.8a.93.93,0,0,0,.24,0l8.79-4.63c1.82-1,3.59-2,5.47-2.88,4.45-2,8.93-3.85,13.42-5.72a49.7,49.7,0,0,1,5.61-2.07C44.7,254,47,253,47.87,249.84L51,251.55c1.9-.64,4.31-1.43,6.71-2.25,6.4-2.2,12.79-4.45,19.21-6.59,4.6-1.54,9.2-3.08,13.88-4.34,3.21-.87,6.55-1.24,9.83-1.86.86-.16,1.69-.42,2.53-.65.37-.11.84-.48,1.09-.36,2,.93,3.34-.54,4.88-1.21a6.13,6.13,0,0,1,4.35-.56,5.15,5.15,0,0,0,3.58-.68,12.91,12.91,0,0,1,5-1.49c3.77-.54,7.55-.93,11.31-1.48a11.11,11.11,0,0,1,6,.87l-1.55,1.41,2.44.62c.63,1.41-.16,2.66-1,3.93-1.44,2.19-3.7,3.22-6,4.25a63.83,63.83,0,0,1-6.56,2.78c-2.33.76-4.76,1.16-7.15,1.72l-1.85.41-4.39,1.07a7.38,7.38,0,0,0-.94.16c-3,1.08-6,2.25-9,3.27A54.23,54.23,0,0,0,95.29,254c-.86.46-2,.31-3,.55-1.54.37-3.07.79-4.57,1.29-2.11.72-4.17,1.61-6.3,2.27-4.26,1.34-8.55,2.59-12.85,3.84-1.29.38-2.64.59-4,.94-.83.22-1.64.55-2.45.84-1.34.49-2.66,1-4,1.47-1.59.49-3.2,1-4.83,1.3-1.46.3-1.88,1.36-2.14,2.54-1.07,4.82-2,9.67-3.16,14.48-.88,3.71-1.92,7.4-2.95,11.08a62.33,62.33,0,0,0-2.1,10.25A87.19,87.19,0,0,1,41,314.23c-1.16,5.21-2.37,10.4-3.62,15.89C41,329,44.2,328,47.47,327c6-1.74,12-3.41,18-5.11,2.3-.65,4.6-1.31,6.92-1.89a73.47,73.47,0,0,1,13.4-2.36,17.43,17.43,0,0,1,3,.48c1,.11,2,.1,3.15.15l-.61,1.14,2.55-.8a24.25,24.25,0,0,1-.86,2.52,9.36,9.36,0,0,1-4.21,4.92,71.12,71.12,0,0,1-13.12,5.35c-1.65.46-3.4.51-5.06.94a34.68,34.68,0,0,0-3.42,1.41c-3.82,1.47-7.63,3-11.51,4.33a39.1,39.1,0,0,1-5.31,1.12,5.69,5.69,0,0,0-1.4.23c-4.73,2.3-10.05,3-15,5.67-2.14,12.75-4.46,25.76-6.46,38.83s-3.64,26-5.46,39.1c-.89-.48-.61-1.23-.61-1.88.05-6.49,1.41-12.83,2.34-19.22.71-4.89,1.19-9.81,1.86-14.7.52-3.72,1.19-7.4,1.78-11.1.49-3.08.95-6.15,1.46-9.22s1.07-6.13,1.59-9.19q.93-5.4,1.8-10.82a13,13,0,0,0,0-1.9A3,3,0,0,0,31,347.38c-1.21,6.91-2.42,13.83-3.55,20.75-1.05,6.46-2.08,12.92-3,19.39-.53,3.79-.71,7.62-1.17,11.42-.43,3.49-1.14,6.94-1.5,10.43a147.41,147.41,0,0,0-1.17,16.22,16.29,16.29,0,0,1-1.9,7.56c-.89,1.86-2.51,2.46-4.29,3.39v-2.78l-2,1.81c-2-.74-2.85-2.59-3.24-4.71-.35-1.86-1.64-3.78.35-5.52.17-.16.13-.61.13-.92,0-3,.29-6.1-.15-9.07a56.79,56.79,0,0,1-.19-10.26c.15-4.38.7-8.75,1.15-13.12.33-3.33.77-6.66,1.16-10a5.73,5.73,0,0,1,.11-1.19c.94-2.65.66-5.47,1.17-8.18.24-1.31.67-2.59,1-3.89a4,4,0,0,0,.24-.66c.22-2.12.31-4.26.66-6.36.26-1.62.92-3.16,1.26-4.77.28-1.31.31-2.66.51-4,.16-1,.41-1.94.66-3.08-.79-.46-1.57-.09-2.35.24a18.52,18.52,0,0,1-7.18,1.62c-.23,0-.58.23-.68.14-1.46-1.34-3.28-.65-4.92-.95-.63-.11-1.14-.94-1.86-1.58,1.65-2,3.72-3,5.65-4.24,2.62-1.62,5.31-3.13,8-4.66.55-.32,1.15-.55,1.71-.85,1.61-.85,3.34-1.52,3.91-3.59.17-.61.88-1.08,1.48-1.78-1.6-.82-.94-2.1-.68-3.33.29-1.39.56-2.78.85-4.18a8.92,8.92,0,0,1,1.27-3.09c.85-1.33.66-3.33.88-5.05a7.18,7.18,0,0,1,.12-1.88c1.24-2.77,1.43-5.8,2.22-8.67s1.47-5.71,2.45-8.47c1.22-3.43,1.83-7.1,3.82-10.24-.28-1.49.62-2.47,1.42-3.53.19-.25,0-.75.08-1.13a8.71,8.71,0,0,1,.47-2c.4-.92,1.06-1.73,1.4-2.67.88-2.38,1.66-4.81,2.45-7.23A13.75,13.75,0,0,0,38.09,271.22Zm11.44-.54-.51-.11c-.52,1.95-1.09,3.9-1.57,5.87s-.89,4-1.36,6-.92,4-1.48,6-1.29,3.94-1.86,5.93-1.13,4-1.55,6-.66,4.25-1.08,6.36-.94,4-1.41,6.05-1,4-1.42,6.06A45.94,45.94,0,0,0,36.1,325c-.16,2-1.59,3.75-.75,5.87a3.19,3.19,0,0,0,.79-1.52c1.11-4.89,2.22-9.78,3.29-14.68.67-3,1.29-6.08,1.88-9.13.44-2.26.69-4.56,1.23-6.79.64-2.62,1.61-5.17,2.27-7.8,1.34-5.25,2.57-10.52,3.82-15.79C49,273.69,49.23,272.18,49.53,270.68Zm-41.75,80,.35.63c.44-.31.89-.6,1.31-.93,0,0-.07-.26-.18-.57Zm9.14-2.4.49-.18-.53-1-.31.11ZM538,240.77l-.24,1.84c-.2-.07-.42-.09-.42-.14-.89-7.66-1-15.28.92-22.83a29.75,29.75,0,0,0,.39-3.69c.12-.86.36-1.7.63-2.94l.85,1.09c.13-.7.5-1.72.3-1.84-1.45-.92-.67-2.13-.5-3.19a44.93,44.93,0,0,1,1-4.42c.12-.44.29-1.14.57-1.22,2-.56.84-1.55.16-2.52,1.84-.84,1-2.33,1.2-3.61a61.05,61.05,0,0,1,2-7.59,6.59,6.59,0,0,1,1.64-2.37,6.93,6.93,0,0,1,.38-3.26c1.18-3.46,2.17-7,4.46-9.91a.41.41,0,0,0,.1-.21c1.38-6.48,5.45-11.63,8.66-17.19,1.67-2.9,3.39-5.78,5.32-8.51s4.3-5.12,6.19-7.86c2.12-3.05,5.32-5.06,7.37-8.19,1.05-1.61,2.83-2.74,4.25-4.11.63-.6,1.16-1.31,1.78-1.92.91-.89,1.72-2.05,2.82-2.54a15.55,15.55,0,0,0,4.22-3.22c2.1-1.94,4.15-4.09,6.62-5.43,2-1.1,3.9-2.56,6.08-3.39a33.39,33.39,0,0,1,8.15-2.29,7.7,7.7,0,0,1,5.29.89c1.21.84,2.71-1.45,3.81.78.45-.83.7-1.27.87-1.57l3.31-1.26c3.32,1,5.68,3.77,7.91,6.71A52.43,52.43,0,0,1,644,138.72c.74,4.63,1,9.34,1.48,14a51.19,51.19,0,0,1,.32,5.25,102.33,102.33,0,0,1-3.14,25.6c-.77,2.93-1.53,5.87-2.16,8.84-1.63,7.72-4.8,14.86-7.92,22-4.27,9.82-9.24,19.29-14.33,28.69-4.28,7.89-9.27,15.36-15.76,21.61a82.46,82.46,0,0,1-17.27,12.84,32.2,32.2,0,0,1-8.08,2.9,38.36,38.36,0,0,1-7.13.63c-2.45.11-4.91.12-7.37.11a4.65,4.65,0,0,1-1.83-.41,30.11,30.11,0,0,1-10-6.85c-1.28-1.4-3-2.54-3-4.75,0-.07-.06-.21-.09-.21-1.84,0-1.89-1.69-2.65-2.74-.62-.85-1.84-1.34-1-2.76.1-.15-.78-1-1.28-1.44s-1.54-.61-.47-1.53c.1-.08-.14-.58-.26-.86a64.62,64.62,0,0,1-3-7,61.65,61.65,0,0,1-1.56-7.9c-.06-.33.31-.71.39-1.09.19-1,.33-1.95.49-2.92Zm79.79-128c-1.12.57-1.9,1-2.66,1.37a52.35,52.35,0,0,0-13.59,11.65c-3.75,4.34-7.34,8.84-10.94,13.31-2.2,2.73-4.4,5.47-6.42,8.33s-3.76,5.53-5.43,8.43c-2.41,4.19-4.8,8.42-6.91,12.77-1.9,3.93-3.16,8.18-5.18,12-1.55,2.94-1.81,6.33-3.72,9.09a6.84,6.84,0,0,0-.63,1.8c-2,5.76-2.68,11.81-4,17.72a35.51,35.51,0,0,0-1.09,5.62,20.67,20.67,0,0,1-1,5.5,15.87,15.87,0,0,0-.63,4.72c0,5.11,0,10.22.06,15.33,0,.55-.07,1.37.25,1.61,1.46,1.15,1,2.6.87,4a3.88,3.88,0,0,0,1,3.22,3.92,3.92,0,0,1,1,2.6,6.26,6.26,0,0,0,1.73,4.52,44.17,44.17,0,0,1,3.76,5.2c2.27,3.12,5.52,5.06,8.64,7.09a3.69,3.69,0,0,0,4,.18,4.91,4.91,0,0,1,1.82-.57c4-.6,7.3-3,10.83-4.73a11.6,11.6,0,0,0,2.71-2.32c3.12-3.07,6.28-6.12,9.29-9.31a44.38,44.38,0,0,0,3.38-4.61c1.41-1.92,2.86-3.81,4.23-5.75,1.66-2.33,2.84-5,4.27-7.4,2-3.42,4-6.84,5.7-10.4a8,8,0,0,0,1.12-2.62c.13-1.7,1.1-2.94,1.83-4.35,1.09-2.08,2.08-4.22,3.1-6.35.1-.2.3-.49.23-.63-.57-1.25.35-2.15.72-3.15.58-1.56,1.36-3,1.95-4.59.3-.79.24-1.73.57-2.5A32.8,32.8,0,0,0,631,190.2c.11-.89.66-1.73.81-2.62.18-1.09.09-2.21.23-3.3.5-3.81,2.47-7.38,1.87-11.37a1.73,1.73,0,0,1,.16-.69c.91-2.83,0-5.87,1.07-8.69a2.54,2.54,0,0,0,0-.95c-.17-2,.27-4-.68-6-.62-1.29-.45-2.94-.63-4.43a10.7,10.7,0,0,1-.3-2.83,15.88,15.88,0,0,0-.29-5.06,66.59,66.59,0,0,0-4-15.68c-1.81-4.33-4.11-8.14-8.76-9.87a3.53,3.53,0,0,1-2.14-2.33l2.92.63.24-.44C619.34,116.29,618.3,115,617.8,112.78ZM555.41,274.91l-.28.41,1.2.78.24-.32ZM352.65,336.72l1.63,1.12a4.3,4.3,0,0,1-3.57-.13,20.87,20.87,0,0,1-7.32-4c-2.07-1.87-4.14-3.75-6-5.8a106.33,106.33,0,0,1-7.44-8.72c-3.18-4.3-4.75-9.35-6-14.5-1.43-5.86-1-11.7.06-17.56s3.64-11.2,5.89-16.62a29.18,29.18,0,0,1,6.84-10c1.83-1.74,3.73-3.71,6.63-3.78,3.14-.08,4.24,1.61,2.67,4.39q-2,3.45-4.22,6.69a45.47,45.47,0,0,0-6.39,12.26c-1.1,3.5-2.63,6.86-3.78,10.35-1.93,5.88-1,11.67,1,17.34.57,1.57,1.42,3,2.07,4.59a17.28,17.28,0,0,0,5.18,6.78c1.43,1.16,2.84,2.34,4.26,3.51a10.47,10.47,0,0,0,5.25,2.51c1.12.17,2.63-.15,3.29,1.38.06.15.57.16.87.15a4.83,4.83,0,0,1,3.14.86c.29.22.8.45,1.05.34,1.87-.83,3.79-.2,5.67-.3,1.19-.07,2.37-.24,3.5-.36.06-.21.12-.3.09-.34s-.18-.06-.19-.11c-.05-.23-.14-.65-.08-.68q4.56-2,9.15-4a4.12,4.12,0,0,1,1.06-.17l.47.61-2,.68.53.66,2.64-1v-1.16c2.11-1.78,3.95-3.25,5.71-4.84,1.95-1.76,3.84-3.61,5.71-5.46a17.91,17.91,0,0,0,3.77-4.87,16.48,16.48,0,0,1,3.88-4.81c3.64-3.18,5.94-7.27,8.18-11.39,1-1.87,1.6-4,2.45-5.95.59-1.38,1.31-2.7,2-4.05.14-.28.4-.56.4-.84,0-2.17,1.38-3.78,2.14-5.64a62.48,62.48,0,0,0,2-6.79,8.45,8.45,0,0,0,.23-3.09l-.17.73-.5-.17c.11-.62,0-1.49.36-1.83,1.7-1.6,1-3.41.67-5.2-.15-.77-.7-1.6-.55-2.28.81-3.5-.83-6.85-.45-10.34.15-1.45-.8-3-1.27-4.52s-1-3.17-1.53-4.73c-2.46-6.68-6.57-12-13.19-15a20.13,20.13,0,0,0-4.3-1.37c-3.26-.65-6.53-1.27-9.82-1.66a24.81,24.81,0,0,0-4.92.32c-2.2.2-4.2,1.14-6.31,1.66-.88.21-1.91-.15-2.77.1-1.89.53-3.72,1.29-5.56,2-.86.31-1.54,1.11-2.66.6-.32-.14-1,.45-1.45.67a35.48,35.48,0,0,1-4,1.63c-2.52.71-2.54.64-4.67-1.41a6.86,6.86,0,0,1,.77-1.37c2.69-3,4.87-6.49,8-9.11a6.92,6.92,0,0,0,1.58-2.55c.4-.92.79-1.71,1.85-2a2,2,0,0,0,1-.65q3.48-4.06,6.9-8.16c2.34-2.8,4.7-5.59,7-8.44,1.11-1.4,2-3,3.08-4.4a24.85,24.85,0,0,0,3-4.14,2.9,2.9,0,0,1,1.22-1.41c.88-.33,1.09-.81,1.35-1.66a18.31,18.31,0,0,1,1.93-3.45c-2.5.73-4.83,1.27-7,2.1-3.29,1.23-6.5,2.67-9.76,4a8.14,8.14,0,0,1-1.59.31c-.05-.69-.1-1.38-.16-2.19-1.34,1.16-1.3,1.36.21,2.15-2.37,1.13-4.72,2.29-7.11,3.38a23.14,23.14,0,0,1-8.85,1.69,4.49,4.49,0,0,1-1.62-.28c-1.07-.37-2.12-.82-3.09-1.21,4.59-.55,9.48-.78,13.88-3.15-5.83,1.73-11.7,2.82-17.5,1.74L345.84,182c1.34-1.91,3.54-2.5,5.69-3.26,2.77-1,5.47-2.12,8.2-3.19l-.05,0c1.93-.38,1.93-.38,3.09-1.3l-1.14-.18,0,0c.89-.78,1.72-1.71,3-.46.19.19.91,0,1.32-.22,2.84-1.23,5.65-2.5,8.48-3.76l.67-.64.19-.05,1.83-.55,6.6-2.62,2.38-1.06,4.26-1.74,1.62-.24-.17-.52-1.43.8-1-.2a9.7,9.7,0,0,1,4.81-2l-1.06,1.71,9.25-2.82c1.07-.33,2.16-.59,3.21-1,1.61-.6,3.09,0,4.5.55,2.32,1,2.6,3.09.83,4.86a27.42,27.42,0,0,0-2.12,2.56c-2.41,3.08-4.78,6.19-7.22,9.24-3,3.73-6.06,7.39-9.05,11.12-1.49,1.86-2.76,3.91-4.35,5.68-3.76,4.22-7.68,8.31-11.48,12.5-1.14,1.26-2.09,2.68-3.36,4.33a10,10,0,0,0,1.22-.25c4-1.42,8.23-1.65,12.46-1.77a48.51,48.51,0,0,0,5.31-.74l-1.05.87c.06.11.11.31.19.32a28.78,28.78,0,0,1,5.37.66c1.05.33,2.3-.68,3.27.81.54.82,2.13.91,3.17,1.48s2.15,1.39,3.21,2.1c4,2.65,7,6.26,10.39,9.53,6.63,6.44,9.71,14.73,12.19,23.28.81,2.8.7,5.86,1.24,8.76,1.28,6.91.42,13.74-1.11,20.43a105.73,105.73,0,0,1-6.16,18.34c-3.05,7.07-7.75,12.78-13,18.2-2.5,2.57-4.81,5.34-7.25,8a15.27,15.27,0,0,1-2,1.54,4.06,4.06,0,0,0-.74.55c-6.33,7.28-13.65,13.1-23.12,15.81-1.91.55-3.77,1.29-5.68,1.87a23.79,23.79,0,0,1-2.66.51l.35-1.1h-7.08l0-.45a4.46,4.46,0,0,0,1.42,0c.3-.11,1,.31,1-.54,0-.17.78-.4,1.21-.43s1,.21,1.56.15a41,41,0,0,0,14.61-4.92,1.09,1.09,0,0,0,.58-.85c-.37.11-.75.21-1.11.35-2.69,1-5.41,1.93-8.06,3a23.49,23.49,0,0,1-11.7,1.8,3.9,3.9,0,0,0-1.67,0,5.88,5.88,0,0,1-3.5,0,20.22,20.22,0,0,0-3.58-.18l-8-3.47A12.13,12.13,0,0,0,352.65,336.72Zm28.09-121c-1.91-.58-3.56.25-5.28.69s-3.37.88-5,1.35c-3.73,1.07-3.73,1.07-4.6,2Zm22.6,6.63c-2.19-2.18-4.28-3.63-7.55-4Zm-14.66-49.48.19.54,3.43-1.07-.16-.5Zm-3.62,1.36c1.26.83,1.51-.27,2-.71Zm-15.62,152,.18.45,1-.54-.11-.27Zm23.43-108.84a2.61,2.61,0,0,0-.52-.33c-.09,0-.23.11-.34.17a2.45,2.45,0,0,0,.47.38C392.54,217.62,392.69,217.47,392.87,217.36ZM137.92,97.78c.42-.92.88-1.82,1.25-2.76.15-.41.29-1-.57-.84a.8.8,0,0,1-.24-.57c.45-1.71.93-3.42,1.51-5.48l1,1.67c.2-1.23.35-2.14.5-3,.34-.89.69-1.77,1-2.66l-.64-.16c-.12,1-.25,1.9-.37,2.85l-1.25.48c.48-1.57.91-2.81,1.23-4.08.84-3.24,1.54-6.52,2.44-9.74,1.67-5.9,3.34-11.81,5.2-17.65,1.41-4.4,3.11-8.71,4.73-13,.3-.8.25-2.08,1.73-1.76l1.26-2.78,0,0L158.2,35c-2.07.72-3.62,1.19-5.11,1.79-4.56,1.86-9,3.9-13.76,5.39-3.69,1.16-7.24,2.76-10.86,4.14-.67.25-1.38.35-2.06.57-1.87.62-3.73,1.26-5.6,1.89-2.25.74-4.5,1.49-6.75,2.21a1.26,1.26,0,0,1-.94,0c-1.38-1.08-2.78-.43-4.09,0a16.2,16.2,0,0,1-7.76.51,29.17,29.17,0,0,0-4.86-.05c.14-3.49.16-3.52,2.58-3V46.65a5.06,5.06,0,0,0,3.07-1.29,5.63,5.63,0,0,1,4-2,1.81,1.81,0,0,0,.89-.29c2-1.2,3.87-2.42,5.85-3.66l-1.18.13-.18-.34a15,15,0,0,1,2.91-1.42,16.05,16.05,0,0,1,3.21-.24c.29-.78.34-1.55.69-1.73,2.53-1.3,4.94-2.91,7.84-3.34.26.23.55.68.79.66A4.41,4.41,0,0,0,129.77,32l-2.94.16a24.41,24.41,0,0,1,3-1.45c.31-.12.85.36,1.5.67l2.05-.67-.05-.28h-1.85L131.3,30a15.67,15.67,0,0,1,1.93-1.13c2-.79,4.11-1.23,5.87-2.31,2.83-1.73,6-2.51,9-3.88a17,17,0,0,1,2.9-1.12,4.26,4.26,0,0,1,1.59.21,10.88,10.88,0,0,1,2.19-1.61q5.31-2.18,10.7-4.13c2.48-.89,5-1.63,7.53-2.39.58-.17,1.45-.44,1.8-.17,1.45,1.11,2.67.44,4.27-.41H177c.32-.39.42-.63.6-.7A26.25,26.25,0,0,1,185,10.11a12.1,12.1,0,0,0,3.07-1,55.06,55.06,0,0,1,9.78-2.67c2.94-.61,5.8-1.63,8.72-2.34,3.09-.75,6.21-1.37,9.32-2,1.87-.39,3.74-.77,5.62-1,1.67-.23,3.38-1,5.06.12.24.16.75-.09,1.14-.13,3.26-.34,6.52-.71,9.79-1,1.75-.15,2.75,1.13,3.63,2.33s.64,2.3-.17,3.53a8.17,8.17,0,0,1-3.45,3.2,137.59,137.59,0,0,1-17.26,6.43c-7.5,2.17-15,4.24-22.53,6.41-3.43,1-6.82,2.17-10.25,3.18-1.2.35-2.53.32-3.72.71-2.71.9-5.37,1.95-8.05,2.94-.52.19-1,.4-1.57.57-2.1.69-3.11,2.06-2.55,4.1.4,1.42.55,2.28-1,3.09-.63.32-.78,1.64-1.05,2.54a16.35,16.35,0,0,0-.39,2.11l-.75,3.16-2.51,5.87,1.23,1.33c-.79,2.75-1.68,5.51-2.38,8.3-.45,1.82-.6,3.71-1,5.54-.09.44-.53.81-.81,1.21a5,5,0,0,1-.24-1.76c.55-2.31,1.24-4.59,1.84-6.89.33-1.24.57-2.5.84-3.74l-.64-.14q-1.41,5.65-2.81,11.33a1,1,0,0,0,0,.24c-.09.85.58.79,1.1.92-.82,2.88-1.63,5.77-2.45,8.65l-.42-.06-.28-2-.32-.06-1,5.92c-.27,1.57-1.51,3-.89,4.69l.54.06c.11-1.6.21-3.19.32-4.79l1.39-.4c-.44,2.94-.86,5.75-1.28,8.58l-2.59.3c0,1,.55.77,1,1,1.16.6.84,2.65-.37,3.27a4.67,4.67,0,0,0-2.68,4.74c.05.37.2,1,.42,1,1.45.36.6,1.11.32,2l-.87-.92c-2,2.62-2.82,5.39-1.54,8.63l-.66.43-.23-1.06H151a38.77,38.77,0,0,0-1.26,4.19c-.08.42.46,1.16.91,1.46,1.06.7.66,1.41.3,2.31l-1.35-1.11c.19,2.3,1.39,4.28.17,6.44l-.78-1.73c-.34,1-.72,2.06-1.08,3.13s-1.07,2.21,0,3.28c-1.47,1.72-2.09,5.14-1.26,6.75.66,1.3.66,1.3-.33,2.23-.64.6-1,3-.68,3.9a3.74,3.74,0,0,1,0,1.62c-1.26.12-1.32,1.4-2,2.06a4.09,4.09,0,0,0-.84,4.54,10.24,10.24,0,0,1,.2,2l1.1-2.42.49.2c-.39.89-.82,1.77-1.17,2.68s-.73,2.09-1.11,3.13c-.32.83-1.16,1.85-.91,2.42.59,1.36-.37,1.86-.93,2.62.89,1.52.82,2.59.11,4.65a3.34,3.34,0,0,0,.21,2.3c.66,1.42.36,2.8.26,4.22-.08,1.1-.65,1.55-1.79,1.45.23,1.27.77,2.35-.15,3.63-.52.73,0,2.15-.11,3.25a30.46,30.46,0,0,1-2.61,8.6,12.27,12.27,0,0,0-.67,5.58,11.81,11.81,0,0,1,0,2.85,23.25,23.25,0,0,1-1.1,3.37c-.57,1.58-2.14.45-2.9,1.19-2-1-.8-3.92-3.23-4.56,0,.61-.07,1.14-.12,2-1.39-1.39-2.63-2.52-2.7-4.42l1-1.55a3.66,3.66,0,0,0,.16-3.64,25.9,25.9,0,0,1-1.53-5,58.54,58.54,0,0,1-.33-17.18c.67-5.94,1.4-11.88,2.29-17.78s2-12,3.13-17.93a61.57,61.57,0,0,1,2.09-7.88c.07.71.15,1.41.23,2.12h.29c.18-1.33.35-2.65.53-4l.5-1.71c.32-1.54.65-3.09,1-4.63l0,.07c.41-1.78.84-3.56,1.22-5.34.58-2.72,1.12-5.45,1.68-8.17Zm-1.86,21.07c1-4.47,2-8.94,3-13.47a6.64,6.64,0,0,0-1.21-.09c-.41,1.44-1.1,2.93-1,4.35.09,1.22.72,2.23-.9,2.82-.19.07-.32,1-.21,1.06,1.75,1,.32,1.94.07,3.09l-.61-.83c-.14,2.1-1.67,4.07.27,6.12.21-1.11.4-2.1.58-3.09Zm20.2-76.58a4.59,4.59,0,0,1,.09,1.66c-.95,2.94-2,5.84-3,8.76-.87,2.56-1.76,5.12-2.56,7.71-.45,1.47-.75,3-1.11,4.51l.23,0c2.84-8.4,5.69-16.79,8.57-25.3Zm-6.95,25.17-.31-.11a12,12,0,0,0-.58,1.46c-1.09,4-2.12,8-3.25,11.95a38.24,38.24,0,0,1-1.46,3.68c1.19,1.08-.83,2.55-.08,4.61C145.62,81.47,147.46,74.46,149.31,67.44Zm-23.51,97.1-.21,0v12.85h.21Zm2.27,22.58.57,0c.5-2.86-.73-5.64-.57-7.32ZM184.59,11.55l-.11-.31-1.51.61.08.22ZM140.26,99.87l-.52-.09-.29,1.91.4.07Zm0,67.28.45,0,.07-1.49-.34,0Zm-13-2.44-.21.08.08,1.06h.13ZM225.51,2l0-.44-1.26-.06,0,.41Zm-96.9,140h-.07v.94h.07Zm16.23-8c.38-.33.6-.46.58-.51a4.35,4.35,0,0,0-.32-.65Zm-13.36,1.72h0v-.92h0Zm10.69-42.52-.35-.09-.3,1.11.33.1ZM103.61,50.33l.12.45,1.45-.26-.06-.36ZM245.08,355c-.32.15-.83.23-.91.46-1.06,3-2.14,6-3.06,9-.69,2.28-2.34,3.46-4.18,4.45-2.51-1.45-2.47-1.44-2.05-3.86a13.84,13.84,0,0,0,.12-4.27l-.81,3.26a4.11,4.11,0,0,1-.59-4,25.83,25.83,0,0,0,.91-7.57,26,26,0,0,1,.53-3.58l2.29-.15c-.76-1-1.64-1.67-1.85-2.53a9.92,9.92,0,0,1,.27-3.07,127,127,0,0,1,2.41-15.82c1.69-7.3,2.89-14.71,4.37-22.05.79-3.92,1.7-7.8,2.58-11.69,1.2-5.29,2.42-10.57,3.62-15.86.74-3.26,1.38-6.55,2.21-9.79,1.76-6.79,3.54-13.57,5.46-20.31,1.15-4,2.7-7.85,3.88-11.82s2.12-8,3.2-12c1.19-4.43,2.32-8.9,3.68-13.28.89-2.88,2.14-5.64,3.23-8.45.88-2.31,1.72-4.63,2.65-6.91a5.7,5.7,0,0,1,1.72-2.27l-.72,2.49,3.61-3.84c.22.35.37.83.68,1a4.23,4.23,0,0,0,1.49.11c.07.74.17,1.5.21,2.27.43,7.2-1.34,14.09-2.82,21a92.33,92.33,0,0,0-2.38,14.81,27.15,27.15,0,0,1-1,4.13c-1.45,6.62-2.54,13.34-4.4,19.83-1.49,5.19-2.25,10.51-3.69,15.7-1.32,4.74-2.2,9.6-3.3,14.41-.52,2.31-1.22,4.59-1.64,6.91s-.53,4.85-.94,7.25-1,5-1.63,7.45c-1.15,4.56-2.42,9.09-3.59,13.64-.6,2.35-1.11,4.72-1.68,7.17l-1.88-.71a6.89,6.89,0,0,1,.93,1.43,3.53,3.53,0,0,1,.18,1.72c-.73,3.14-1.64,6.24-2.3,9.39A74.1,74.1,0,0,1,245,355Zm3.65-18.31a4.68,4.68,0,0,0,1-4.43c-.32,1.49-.65,3-1,4.47-.26,1.2-1,2.33-.73,3.6l.51,0ZM246.51,348l-.47-.14-.81,3.2.37.1Zm.83-3.52-.52,0-.21,1.8.51.06C247.19,345.76,247.27,345.12,247.34,344.49Zm-6.74-16.64c.21-.27.41-.41.42-.56s-.14-.38-.22-.57c-.14.12-.37.23-.41.37S240.48,327.48,240.6,327.85ZM189.28,127.58l1.71-.79c-.33,1.44-.23,2.82-.87,3.45-2.15,2.1-1.57,5.3-3.44,7.6-1.14,1.38-1.12,3.71-1.62,5.62h-1.52c0,.2,0,.4.07.46,1.06.8.82,1.82.45,2.81-.83,2.24-1.8,4.42-2.56,6.68-.91,2.71-1.68,5.48-2.48,8.23-.71,2.45-1.51,4.87-2.05,7.35-.59,2.72-.93,5.49-1.35,8.24-.39,2.5-.74,5-1.14,7.52q-.4,2.58-.93,5.15a13.06,13.06,0,0,1-.67,2.29c-1,2.42-2.18,2.69-4.31,1-.11-.09-.29-.07-.52-.11l-1,2.73c-.23-.83-.34-1.24-.51-1.87l-2.13.4c-.19-1.92-.43-3.73-.52-5.54-.15-3.19-.22-6.37-.29-9.56a5.43,5.43,0,0,1,.26-1.37c.07-.3.35-.71.24-.87-1.48-2.23-.35-4.48-.09-6.71.14-1.2.1-2.4.17-3.59.29-4.82.95-9.62,1.13-14.44a77.28,77.28,0,0,1,2-12.87c1.23-5.91,2.89-11.73,4.13-17.64.87-4.09,1.38-8.25,2-12.38.23-1.57.19-3.19,1.33-4.48a.74.74,0,0,0,.18-.43c-.08-4.83,1.29-9.37,2.95-13.8a51.16,51.16,0,0,0,1.6-5.75,21.17,21.17,0,0,1,1.79-5.63c1.51-2.55,1.26-5.46,2.25-8.09s1.8-5.27,2.82-7.85c.76-1.91,1.18-4,2.67-5.57.29-.3.25-.9.42-1.35A25.74,25.74,0,0,1,191.18,52,55.1,55.1,0,0,0,195,43.74a66.74,66.74,0,0,1,5.41-10.37c.07-.11.27-.13.76-.37v5.36c1.53-1.85,1.54-1.87,1.69-3.74,2.83-.13,3,.21,3.36,2.92.5,3.88-.64,7.36-1.94,10.89-1.6,4.34-3,8.73-4.55,13.09-.37,1-.92,2-1.28,3.09a89.2,89.2,0,0,0-3.27,12.46c-.59,3.11-1.61,6.13-2.44,9.18-.23.85-.49,1.68-.69,2.53-.83,3.4-1.65,6.79-2.45,10.2-.34,1.47-.72,3-.93,4.45-.87,6.16-3.14,12-4,18.19-.68,5-2.18,9.95-3.29,14.93-.12.53-.14,1.09-.23,1.84l1.19-.39v1.34c.18-.06.4-.07.43-.15.21-.57.37-1.16.58-1.85l2.12.88c.57-1.24.43-2.78,1.95-3.36.22-.08.14-1,.26-1.92l-2,1.32c-.35-2.25,0-3.25,1.65-4a3.05,3.05,0,0,0,2-2.69ZM198,46.26l.49.24,1.81-4.61-.46-.18Q199,44,198,46.26Zm-17,98c-.25-.11-.46-.29-.61-.26s-.31.28-.46.42a2.37,2.37,0,0,0,.65.41C180.67,144.85,180.84,144.51,181,144.26Zm-.86,2.27-.47.13a7.25,7.25,0,0,0,.28.78s.27-.05.42-.08Zm121-8.92a5.32,5.32,0,0,0,1-1c2.45-4.75,5-9.46,7.27-14.29,1.86-4,3.51-8,5-12.14a47.78,47.78,0,0,0,1.61-6.73c.55-2.56,1.05-5.12,1.54-7.69a39.47,39.47,0,0,0,.72-4.44c.2-2.54-1.48-4.13-3.24-5.52a2.6,2.6,0,0,0-2.22-.2,33.45,33.45,0,0,0-6.38,3.21c-2.31,1.62-5.05,2.65-7.55,4a12.29,12.29,0,0,0-2.49,1.81,6.68,6.68,0,0,1-4,1.92,4.77,4.77,0,0,1-4.62-2.7c-.65-1.53-.73-1.57-2.63-1.36l.31-1.61-1.07-.39c-1.06-1.69,2.5-9.42,5.73-12.1-.28,1.37-1.15,2.13-1.6,3.08-1.09,2.3-2.15,4.61-3.16,6.94a1.77,1.77,0,0,0,.26,1.48c1.4-6.41,5.64-11.15,9.21-16.42l-1.56.16a15.57,15.57,0,0,1,2.27-3c4-3.15,7.4-7,11.87-9.58,1.85-1.06,3.58-2.39,5.51-3.27a26.62,26.62,0,0,1,5.26-1.48,2.94,2.94,0,0,1,3.1,1.1c1.27,1.42,2.94,2.49,3,4.65,0,.3-.06.6-.12,1.24l-2.68-2.39c-10.55,6.64-18.39,15.72-25.23,26.48,4.8-1.39,8.43-4.32,12.81-5.35l.21.43-2.18,1c-.79.38-1.61.75-1.49,1.87,3.14-.39,4.18-1.2,4.84-3.85,1-.19,2.08-.87,2.54.78l3.63.4.13-.42c2.12,1.81,4.22,3.65,6.37,5.42a12.22,12.22,0,0,1,4.11,7.87c.32,2,1,4.12.65,6-.41,2.2,0,4.49-.81,6.61-.17.42-.43,1-.27,1.33,1.56,3.14-.93,5.34-1.78,7.91-.16.48-.46.91-.6,1.4a30.59,30.59,0,0,1-1.5,5.18c-2,4.08-4.34,8-6.39,12a84.4,84.4,0,0,1-12.86,18.09,23,23,0,0,1-3.7,3c-1.29.95-2.75,1.68-3.94,2.72a16.56,16.56,0,0,1-6.86,3.23c-1.22.33-2.37,1-3.6,1.25-5.16,1.14-10.31,1.11-14.76-2-2-1.43-4.12-3.39-4.73-6a19.4,19.4,0,0,1,1.44-12.16c.24-.56,1-.9,1.6-1.41.23.43.38.69.57,1l.91-1.29a3.26,3.26,0,0,1,.68.41c.84.92.43,2,.22,3-.67,3.09-.3,6.18-.1,9.27.09,1.39.89,1.91,2.21,2a21.32,21.32,0,0,0,6.78-1A23.27,23.27,0,0,0,288.7,152a28.57,28.57,0,0,0,4.59-4c2-2.48,3.62-5.25,5.4-7.89.32-.46.4-1.39,1.33-.73l1.18-1.82Zm7.23-2.11.49.29.6-1.2-.33-.19Zm-8.23,13.4c-.26-.19-.45-.45-.61-.43s-.34.29-.5.46c.16.13.32.37.47.37S299.88,149.08,300.15,148.9ZM400.4,114c.45.68.1,1-.52,1.23a13.05,13.05,0,0,0-3.52,2.12,8.21,8.21,0,0,0,1.43-.21c1.64-.58,3.26-1.21,4.88-1.83a2.2,2.2,0,0,0,.85-.43,12,12,0,0,1,4.94-3.12l.26-.59-1.06-.22c.49-1.36.65-2.66,1.35-3.49a12.81,12.81,0,0,1,3.14-2c2.63-3.46,5.33-7,8-10.61.56-.18,1.29-.13,1.24-1.16l-1,.76c.36-1.26.76-2.47,2.05-2.37a18.51,18.51,0,0,1,.93-2.74c2.18-4,4.67-7.83,6.57-11.94a96.25,96.25,0,0,0,4-11.28,7.94,7.94,0,0,0-.59-6.26c-.59-1.13-1.08-2.3-1.7-3.62-2.74,0-5.56-.21-8.38.61-3,.86-6,1.53-9.08,2.1a14,14,0,0,1-3.46-.2c-.22-1.44,1.12-2.78.07-4.29-.22-.31.45-1.29.78-1.92A91.34,91.34,0,0,1,423,34.8c4.22-4.94,9.06-9.23,15.18-11.8,4.21-1.76,9.52,1.1,10.19,5.64l-1.08-1.18c-.19,1.15-.15,2.07.74,2.47s1.5.79,1.39,1.69a17.28,17.28,0,0,1-.82,3.39c-.24.73-.82,1.35-1,2.08a15.85,15.85,0,0,1-2.89,5.09,8.41,8.41,0,0,1-2,1.34,18.8,18.8,0,0,1,1.21-8.11c1.19-2.76.19-5.33-1-7.79a1.3,1.3,0,0,0-2-.56c-1.3.78-2.63,1.5-3.89,2.35a75.29,75.29,0,0,0-13.5,12.15,28.66,28.66,0,0,0-2.57,3.73,49,49,0,0,1-3.52,4.88c-1.06,1.27-2.24,2.67-2.18,4.64,0,.59-.7,1.21-1.2,2,.32.11,1,.55,1.21.39,2.43-1.64,5.36-1.43,8-2.28l2.12-.65-1.2-.62,0,0c5.1-3.51,10.68-2.85,14.9,1.45,3,3,4.49,6.89,6.3,10.59a3,3,0,0,1,.12,1.17c0,3.55.31,7.11-.43,10.61a6.06,6.06,0,0,1-1.52,3.23,3.28,3.28,0,0,0-.76,1.44c-.46,1.66-.83,3.35-1.35,5.46.58-.81.91-1.29,1.31-1.86.12,1.89-.19,2.32-1.68,3.08a2.74,2.74,0,0,0-.94,1.28c-1.34,2.8-2.49,5.7-4,8.41a63.2,63.2,0,0,1-4.5,6.66c-1.1,1.51-1.8,3.37-3.58,4.34-.18.1-.4.42-.36.58a2.19,2.19,0,0,1-1.08,2.62c-.75.42-1.43,1.66-2.55.58-.66.65-1.56,1.2-1.95,2a7.73,7.73,0,0,1-3.2,3.11,7.33,7.33,0,0,0-2.27,1.86,5.55,5.55,0,0,1-3.72,1.7,15,15,0,0,0-4.39,1.36c-.88.35-1.68.9-2.58,1.21-2.18.75-4.39,1.45-6.6,2.11A4.45,4.45,0,0,1,397,127c-2.85-.95-5.91-1.21-8.58-2.79a7,7,0,0,1-3.47-6.91,33,33,0,0,1,3.05-11.5c.34-.72.55-1.5,1.7-1.23.28.06.73-.65,1.12-1a7.79,7.79,0,0,1,0,4.89,45.11,45.11,0,0,0-.78,5.19c-.32,3,1.5,4.22,4.31,3l6.18-2.59Zm16.16-8.5c1.86-2.33,3.75-4.64,5.56-7,.46-.6.52-1.5,1-2.11,1.17-1.6,2.55-3,3.67-4.69,1-1.41,1.66-3,2.48-4.52l-.46-.27C424.26,92.78,420.5,99.18,416.56,105.5Zm15.2-51.66,0-.49c-1.63,0-3.29-.33-4.84.71Zm-48.53-1.66,1.18,1.34c1.3-.65.8-1.76.71-2.76l2.42-3.12c1.18-.27,1.5-1.3,2-2.2l0,0c1.18-2.15,2.37-4.29,3.57-6.47a2.53,2.53,0,0,1,.77.29c.62.58,1.85-.36,2.18.91a17.55,17.55,0,0,1,.95,3.86c.06,3.33-1.13,6.4-2.44,9.43S392,59.85,390.6,63c-3,6.59-5.1,13.48-7.45,20.3-.93,2.69-1.87,5.37-2.76,8.08-.28.87-.13,2.1-.69,2.62-.74.7-1.11,1.15-.67,2.11a.85.85,0,0,1-.16.68c-2.19,2.8-2.58,6.47-4.51,9.4a4.93,4.93,0,0,0-.36,1.37c-.49,1.83-.36,3.83-1.68,5.42a3.42,3.42,0,0,0-.38,1.29,6.86,6.86,0,0,1-.6,2.2c-2.07,2.93-3,6.32-4.09,9.63-.1.29-.22.76-.09.91,1.44,1.53.32,2.94-.08,4.42-.74,2.69-2.52,3.81-5.27,3.48a1.7,1.7,0,0,1-1.74-1.58c-.12-.93.14-1.93-.05-2.84a14.2,14.2,0,0,0-1.24-2.68c-.12,1-.23,2-.34,3.06-1.82-1.26-2.44-2.43-1.55-3.94,1.51-2.57,1.37-5.53,2.3-8.21.06-.15.13-.36.06-.47-1.32-2.19,1-3.66,1.12-5.59a4.44,4.44,0,0,0-.44-2.48,3.78,3.78,0,0,1,.23-2.07c1.24-4.11,2.52-8.22,3.81-12.33.54-1.74,1.16-3.46,1.74-5.19.44-.43,1.07-.77,1.29-1.29.71-1.65,1.31-3.35,1.87-5.06a3.63,3.63,0,0,0-.11-1.37v0L370.54,80c.19-.58.71-1.29.53-1.71-.66-1.59.13-2.57,1.13-3.56,1.67-1.48,2.2-3.48,2.5-5.57a13,13,0,0,1,.54-2.76c1.75-4,3.57-8,5.46-11.91.35-.73,1.17-1.24,1.77-1.85ZM361.4,115.57s.12-.07.13-.12c.34-1,.94-2-.13-3.1ZM360,121.34l-.55,0c.09.49.19,1,.28,1.47l.27,0Zm10.34-37.63c.58.89.58.89,1.08.13Zm8.42-17.79-.27-.1L378,67.3l.29.1Zm-177,40.94,3-3.52-1.66-1.12a3.63,3.63,0,0,1,1.85-1.79,12.41,12.41,0,0,0,3.36-1.72,8.77,8.77,0,0,0,2.22-3.08,9.89,9.89,0,0,1,4.63-4.89A15.48,15.48,0,0,0,221,85.29a2.38,2.38,0,0,1,2.34-1.36,4,4,0,0,0,3.81-1.64c1.85,1.91,3.32,3.72,3,6.4a15.73,15.73,0,0,0,0,1.68c-.06,3.34.47,6.69-.24,10-.57,2.64-1,5.31-1.53,8q-1.32,7.15-2.59,14.33c-.16.93.12,2-.25,2.81-1.5,3.22-2.09,6.7-2.82,10.09-1.23,5.79-2.16,11.66-3,17.54-.54,4.07-.63,8.2-.88,12.3a17.17,17.17,0,0,0,.15,2.33c1.67-.16,3.23-2.34,4.85.91.39-.78.63-1.2.8-1.64.41-1,.73-2.11,1.19-3.11a79.63,79.63,0,0,0,5.28-16.83c.56-2.64,1-5.3,1.62-7.94,1.1-5,2.36-9.91,3.36-14.9.83-4.13,1.45-8.32,2-12.5a86,86,0,0,0,1.17-11.16c0-4.77-.11-9.63-2.37-14-1.72-3.36-3.87-6.25-8.09-6.67a25.76,25.76,0,0,1-3-.87,5.31,5.31,0,0,0-1.82-.11c-3,.39-5.44,2.08-8,3.57h1.71c-.87.75-.87.75-1.67,0a1.82,1.82,0,0,0-.7,0c-2.88,1.26-4.66,3.74-6.62,6a.54.54,0,0,0-.13.44c.56,1.38-.52,2.19-1.06,2.94.19.65.55,1.23.39,1.52s-1.06.82-1.24.69c-1.67-1.2-1.72.73-2.13,1.26-.58.75.28,1.37,1,1.74l1,.48c-1.41-.12-2,.67-2.59,1.81-.36.73-1.21,1.21-1.83,1.81l0,0c-.49.82-1,1.61-1.45,2.45s-.86,2-1.29,2.93l.41.24,1.16-1.92.76.43-.08,1.66Zm46.8,51.77c.72-.8,1.49-.53,1.8,0,.95,1.51,1.73.56,2.15-.19a7.34,7.34,0,0,0,1.2-3.56,16.76,16.76,0,0,1,.94-5.15c.42-1.45,1-2.88,1.28-4.36.59-3,1-6,1.55-9s1.08-6,1.77-8.91c1.38-6,2.88-11.94,4.29-17.91.88-3.72,1.58-7.49,2.57-11.17,1.18-4.37,2.7-8.65,3.84-13C270.85,82,271.41,78.48,272,75c.35-1.92-.14-2.73-2.21-3.94a17.32,17.32,0,0,1-.91,1.83c-.92,1.38-.64,3.46-2.55,4.26-.17.07-.23.55-.24.85-.06,1.37,0,1.37-1.71,1.94,1.23-2.84,2.38-5.52,2.52-8.69-.36.33-.6.45-.69.64-2.24,4.64-4.51,9.26-6.67,13.93A97.81,97.81,0,0,0,254.76,97c-2,6.46-3.64,13.07-5.41,19.62a2.83,2.83,0,0,0-.08,1.19c.31,1.65-.4,3.1-.8,4.61-.26,1-.57,2-.74,3-.59,3.48-1.33,6.95-1.63,10.46s-1.28,6.83-.82,10.4c.49,3.79.49,7.64.74,11.46a8.35,8.35,0,0,0,.48,1.66C247.29,159.14,248.16,159.09,248.57,158.63ZM281.05,54.08a34.5,34.5,0,0,0,5.46-6.42c1.33-1.77,2.73-3.5,4-5.33a2.36,2.36,0,0,0-2-3.87,5,5,0,0,0-2.74.6c-4.21,2.55-8.55,5-11.59,9a10.57,10.57,0,0,0-2.36,5.61c-.18,2.25,1.37,3.72,2.23,5.49.14.29,1.18.43,1.64.24A4.08,4.08,0,0,0,277.38,58a3.56,3.56,0,0,1,3.14-1.74C280.73,55.34,280.65,54.41,281.05,54.08ZM405.51,4.52A7.73,7.73,0,0,0,402,8.39c-1.12,3.14-2.57,6.16-3.86,9.24a1.54,1.54,0,0,0,0,.64,9.86,9.86,0,0,0,1.31,1.08c.41.25,1.05.62,1.35.46a13.9,13.9,0,0,0,4-2.45,32.14,32.14,0,0,0,3.52-5.11,13.7,13.7,0,0,0,2.18-7.32C408.39,3.26,407.49,3.21,405.51,4.52ZM301.15,137.61c.35-.88.64-1.79,1.05-2.65,2.48-5.08,5.05-10.12,7.44-15.24a67.68,67.68,0,0,0,3-7.81c1.37-4.23,2.6-8.51,3.82-12.79a2.53,2.53,0,0,0-.85-3.07,19.55,19.55,0,0,1-.36,3c-.86,3-1.72,6.09-2.77,9.06-1.66,4.66-3.37,9.3-5.26,13.87-1.58,3.82-3.46,7.5-5.18,11.27-.66,1.43-1.23,2.91-1.93,4.59l1.08-.3ZM170.71,381.14a20.93,20.93,0,0,0,.67-3.18c.15-2.44.12-4.89.21-7.33,0-1.23-.62-1.4-1.68-1.4-.31,4.06-.73,8,.15,11.87Zm-35.62-270,0,.07c-.08-3.61,1.1-7,2-10.4.27-1,.6-2.07.91-3.11l-.05,0-.18-1.49c-1.46,2.78-5,19.62-4.65,21.72l.52-.49.5-1.71A6.68,6.68,0,0,1,135.09,111.18Zm37.15,248.27c-.63.22-1.47.28-1.55.57a18.8,18.8,0,0,0-.67,3.8c-.14,2.25-.05,2.36,1.51,4.57C171.34,365.36,172.85,362.51,172.24,359.45ZM201.81,106.9l-5.51,2.49a3.76,3.76,0,0,1,.55.92,5.34,5.34,0,0,1,0,1.15c1.3-.15,2.7.09,3.37-.5s.92-2.09,1.32-3.18a5.83,5.83,0,0,0,.21-.92ZM161.49,235.5a4.17,4.17,0,0,1-1.47,3.42l0,0-.51,2,0,0c.07.48.13,1,.2,1.43l.55.08c1.08-3.91,3.24-7.42,3.91-11.5l-2.79,4.75Zm33.62-121.3c-.37-.12-.69-.5-1.05-.52a1.61,1.61,0,0,0-1.23.36c-.17.21,0,.83.24,1.19a18.71,18.71,0,0,0,1.19,1.66c1.35-1.1,1.5-1.1,3,.08l.94-1.87C197,114.75,196,114.51,195.11,114.2ZM187,340c-1.25,1.71-1.82,7.07-1.17,10.44C186.28,347,187.38,343.71,187,340ZM401.57,6.42a15.13,15.13,0,0,1-2.11,2.32c-1.32,1-1.37,2.07-.72,3.79L402,6.77ZM365.71,90.55c.44-.43,1.07-.77,1.29-1.29.71-1.65,1.31-3.35,1.87-5.06a3.63,3.63,0,0,0-.11-1.37Q367.25,86.69,365.71,90.55Zm21.82-44.76,0-.17-.19.12c-1.59,1-1.68,2.9-2.73,4.21-.06.09.32.53.49.81l2.42-3.12C387.54,47,387.53,46.41,387.53,45.79ZM168.1,46c-.09.48-.2,1-.3,1.45A17.71,17.71,0,0,0,170,43.21a9.7,9.7,0,0,0,.18-2.56l-1,.5-.75,3.16ZM402.46,113c.16.14.4.44.47.41,1.26-.64,2.52-1.29,3.73-2,.18-.11.1-.64.19-1.38-1.61,1.17-3.51,1.06-4.37,2.76ZM196.15,292c.16-1.73,1.15-3.32-.07-4.95l-.91,2.58C195.27,290.39,194.64,291.47,196.15,292Zm176-217.22c1.67-1.48,2.2-3.48,2.5-5.57A9.82,9.82,0,0,0,372.2,74.73Zm80.3,123.48a2.74,2.74,0,0,0-1.39,1.54,11.17,11.17,0,0,0-.26,2.1l-.05,0,1.7-1.64.21-1Zm-65.87-34.33-.3-.39-3.56,1.77,1,.55,2.38-1.06ZM437.7,98.51c-.85,1.14-2.21,1.94-2.29,3.6C436.82,101.35,437.3,100,437.7,98.51ZM424.13,53.69a9.73,9.73,0,0,0-5.19.82c1.74-.14,3.64.57,5.16-.86ZM370.28,79.11h-.41c-.37,1.26-.75,2.51-1.12,3.77L370.54,80Zm92.14,97.36h1l0,.05q.72-2.42,1.43-4.85l.05,0c-1.08,1.46-2.3,2.86-2.4,4.81ZM378,167.25c-1.45.23-2.51.28-2.64,1.73l1.83-.55ZM358.14,338.12l-2.88-.43C356.87,339.23,356.87,339.23,358.14,338.12ZM106.88,387.57v3.05C107,389.54,107.66,388.54,106.88,387.57Zm252.8-212,1.95-1.48,0,0c-1.09-.05-2.26-.31-3,1.09l1,.31ZM111.26,50.91c-.7.8-2,.2-2.42,1.71l2.72-1.06ZM440.88,91.29c-.2.78-.36,1.42-.53,2.06C441.53,92.32,441.53,92.32,440.88,91.29Zm-238.62,9.87c-.13-.26-.31-.75-.38-.73-1,.19-1.69.59-1.34,1.84l1.76-1.16Zm-13,26.42c0-.92.95-1.93-.4-2.83v2.79l0,0,.49,0Zm-.4,0c-.6.33-1.85-.11-1.54,1.32,1.17.23,1.18-.73,1.5-1.36Zm-35.46-23.35c.1-.64.19-1.29.29-1.94l-.21,0-.39,1.93Zm243.14,56.28,2-.64-.25-.2-1.84.57Zm83.14-10.88,0,0a3.4,3.4,0,0,0-2.05,2.3l.15.13.94-.66,1-.94ZM139.75,260c-.84,1-.82,1.61-.27,2.3l.27-.67Zm311.1-58.11c-.52.79-1.42,1.48-.69,2.68a2.3,2.3,0,0,0,.64-2.72Zm-67.5-151-.34,0-.54,1.86.76-.46Zm47.5,58.62c0-.11-.28-.4-.39-.37a.6.6,0,0,0-.41.41c0,.14.18.32.34.55C430.6,109.78,430.82,109.63,430.85,109.45Zm-57.63,60.22h1.24l.67-.64C374.45,168.89,373.76,168.73,373.22,169.67ZM389.51,45.44l0,0-.4-1.41-.16-.13-1.36,1.68,0,.17ZM316.54,89a2.47,2.47,0,0,0,.2.84,2.75,2.75,0,0,0,.75.51l.21-.25-.79-1.31Zm-72.9,270.54-.84,1.48.4.21.77-1.52ZM441.8,245.46c.05.71.1,1.43.16,2.14h.22c.05-.73.09-1.46.14-2.19Zm-284.12,3.09a9.19,9.19,0,0,0,.67-.73s-.17-.22-.26-.34l-.79.66ZM203.82,97c-.43.85-.67,1.31-1.16,2.25C203.74,98.61,204.26,98.3,203.82,97ZM442.58,255.46v-1.67h-.18v1.68ZM389.06,44.07c.61-.4,1-.86.66-1.64-1.17.07-.83.87-.81,1.51ZM245.08,355c-.21.59-.41,1.18-.61,1.76.84-.44,1.39-1,.56-1.74Zm-52.53-51-.19,1.16.21,0,.45-1Zm-80.91,51.47v1.29l.36,0,.21-1.27Zm331.28-93.85v1.53h.23v-1.52ZM148.51,125.1l-.43,1.33.32.12.52-1.19ZM400.44,114l0,0,2.06-1,0-.23ZM170.82,356.51v1.18l.25,0c.09-.38.18-.75.28-1.13Zm13.8-221.2a.84.84,0,0,0-.43.42c-.05.08.09.25.14.38l.94-.4C184.92,135.48,184.73,135.27,184.62,135.31Zm-28-97.05c0-.34-.1-.69-.17-1.19-.72,1-.72,1,.2,1.15Zm-20.61,80.59c-.25-.3-.51-.6-1.07-1.28l.1,2.11,1-.87Z" style="fill:none"/></clipPath></defs><title>this-is-fhi</title><g id="Layer_2" data-name="Layer 2"><g id="scrap"><g id="this-is-fhi"><g style="clip-path:url(#clip-path)"><polyline class="animate2" points="150.97 239.79 14 282.82 54.39 278.43 24.54 441.74 14 354.82 111.46 324.96 168.54 231.01 118.49 412.77 153.61 315.3 188.73 307.4 219.46 223.11 182.59 391.69 245.8 375.01 285.32 202.04 415.27 170.43 365.22 229.26 402.98 216.52 415.27 233.65 432.83 256.48 424.05 294.23 407.37 323.21 379.27 339.01 351.17 334.62 337.12 311.79 351.17 270.52 482 294.23 482 266.13 498.68 230.13 520.63 212.57 532.93 222.23 532.93 255.6 518 280.18 501.32 306.08 474.98 306.08 463.56 271.4 462.68 234.52 478.49 188.87 513.61 137.06 626.88 119.5 646.19 141.45 646.19 189.74 633.02 231.01 611.95 262.62 590.88 284.57 569.8 285.45 554.88 256.48 552.24 226.62 559.27 198.52 574.19 159.01 590 136.18 601.41 130.04" style="fill:none;stroke:#f08a20;stroke-linecap:round;stroke-linejoin:round;stroke-width:28px"/><polyline class="animate" points="139.38 200.93 176.44 27.3 118.18 52.94 244.93 11.5 206.21 51.89 183.46 136.18 179.95 195.89 215.07 95.79 244.93 87.01 244.93 114.01 229.12 171.31 253.81 160.77 262.49 125.65 276.54 87.01 296.31 50.13 330.1 64.18 296.31 97.55 326.06 92.28 335.11 106.33 326.06 134.43 309.52 159.01 296.31 171.31 283.56 157.26 370.15 141.45 402.9 48.38 417.76 11.5 452.58 47.94 452.58 31.7 445.12 33.01 430.63 47.5 420.98 66.38 443.8 60.67 449.51 77.79 443.37 94.47 426.68 116.87 411.75 128.72 401.22 128.72 398.15 120.38" style="fill:none;stroke:#f08a20;stroke-linecap:round;stroke-linejoin:round;stroke-width:23px"/></g></g></g></g></svg>