<svg xmlns="http://www.w3.org/2000/svg" viewBox="0 0 59.86 59.86"><title>twitter-icon</title><path d="M29.93,0A29.93,29.93,0,1,0,59.86,29.93,29.93,29.93,0,0,0,29.93,0Zm11.9,23.83c0,.26,0,.52,0,.79,0,8.11-6.18,17.47-17.47,17.47A17.43,17.43,0,0,1,15,39.33a12,12,0,0,0,1.47.09,12.28,12.28,0,0,0,7.62-2.63,6.15,6.15,0,0,1-5.73-4.26,6.23,6.23,0,0,0,1.15.11,6.15,6.15,0,0,0,1.62-.22,6.16,6.16,0,0,1-4.92-6v-.08a6.08,6.08,0,0,0,2.78.77,6.15,6.15,0,0,1-1.9-8.2A17.43,17.43,0,0,0,29.7,25.31a6.46,6.46,0,0,1-.16-1.4,6.15,6.15,0,0,1,10.63-4.2,12.62,12.62,0,0,0,3.9-1.49,6.2,6.2,0,0,1-2.7,3.39,12.23,12.23,0,0,0,3.52-1A12.5,12.5,0,0,1,41.83,23.83Z"/></svg>