<svg xmlns="http://www.w3.org/2000/svg" xmlns:xlink="http://www.w3.org/1999/xlink" viewBox="0 0 195.19 41.43"><defs><clipPath id="clip-path-underline-1" transform="translate(6.59 8.97)"><path id="underline-clip" d="M166.84,3.2C168.66,4.66,169,4.82,168.57,6c1.16.27,1.44-.56,1.67-1.33.18-.6.19-1.25.32-1.87a.78.78,0,0,1,.37-.53.64.64,0,0,1,.58.23,5.54,5.54,0,0,1,.52,2c-.05,1.07-.21,1.11-1.38,1.28a1.49,1.49,0,0,0-.06.43c.18,1.7-1.06,2.7-2.79,2.38a7.25,7.25,0,0,0-3-.09c-2.41.58-4.8.19-7.2.22-1.53,0-3.07.1-4.6.16v.53l10.36.38v.52c-1.42.08-2.85.21-4.28.21-2.15,0-4.3-.12-6.45-.12-1.94,0-3.89.14-5.83.16-4.74.05-9.47,0-14.2.11-3.11.06-6.22.27-9.33.36-2.88.07-5.76.13-8.64.08-2.32,0-4.65-.26-7-.4-.12,0-.29-.06-.34,0-.91,1.12-2.16.55-3.25.6-5.19.21-10.38.33-15.57.5-1.71.06-3.43.24-5.14.23a21.77,21.77,0,0,1-3.13-.44c-.77.25-1.75.58-2.74.89a.81.81,0,0,1-.59,0c-2.27-1.32-4.44.19-6.66.26-5.5.16-11,.67-16.49,1-1.84.09-3.71-.14-5.56-.07-1.12,0-2.21.45-3.34.59-2,.26-4.08.78-6,.52a13,13,0,0,0-3.63.32c-2,.24-4,.12-5.93.21-.47,0-.92.33-1.38.34-1.45.05-2.92-.11-4.35.06-2.65.31-5.28.82-7.93,1.19a4.76,4.76,0,0,1-1.43-.21,2.31,2.31,0,0,0-.79-.14c-2.24.45-4.46.95-6.69,1.38a4.08,4.08,0,0,1-1.22-.13V16.53l1.45-.66-.07-.32-1.63.16.06-.31a7,7,0,0,0-4.55-.65A14.91,14.91,0,0,1,.08,13c-.17-.77-.14-1.53.76-1.89,1.47-.58,2.93-1.2,4.42-1.71a46,46,0,0,1,6.2-1.88q7.65-1.41,15.35-2.45c6.12-.83,12.26-1.53,18.41-2.18,5-.54,10.08-1,15.12-1.39,2.69-.22,5.39-.4,8.09-.5Q79.62.58,90.82.25C94.53.14,98.24,0,101.94.08a7.87,7.87,0,0,1,2.57,1c-.06-.69.37-1,1.33-1,8.76,0,17.52,0,26.27.06,2,0,4.09.36,6.14.45,1.37.06,2.75-.09,4.13-.09.92,0,1.85.14,2.78.17,1.57,0,3.15,0,4.72.07,2.42.19,4.83.55,7.25.74,1.62.13,3.26.06,4.88.14s3.17.23,4.75.38c.24,0,.46.24.68.37Zm11.58,4c-.23-.12-.54-.39-.68-.32a4.14,4.14,0,0,1-3.22-.11c-.13,0-.38.27-.58.42.19.16.37.45.58.47.9.09,1.81.13,2.71.13a6.12,6.12,0,0,0,1.18-.22Zm4-1.41-4.78-.36,0,.49,4.76.47Zm-6.72-.44c-.13-.63-.4-1.22-1.19-1.09-.25,0-.42.56-.62.86l1.55.71Z" style="fill:none"/></clipPath></defs><title>underline</title><g id="Layer_2" data-name="Layer 2"><g id="assets"><g id="underline-clip-group"><g style="clip-path:url(#clip-path-underline-1)"><path id="animate" d="M-2.58,18S74.73-3.43,186.68,11.06" transform="translate(6.59 8.97)" style="fill:none;stroke:#f93;stroke-miterlimit:10;stroke-width:30px"/></g></g></g></g></svg>