<svg xmlns="http://www.w3.org/2000/svg" xmlns:xlink="http://www.w3.org/1999/xlink" viewBox="0 0 425.79 308.65"><defs><clipPath id="works-clip-path" transform="translate(7.21 20.41)"><path id="works-clip" d="M0,251.53l.4-1.82H.62v9L0,257.29ZM144.25,124.21a23.2,23.2,0,0,0-2.09,2.12c-1.79,2.31-3.47,4.7-5.26,7-1.52,2-3.24,3.79-4.69,5.81-2.41,3.35-4.67,6.81-7,10.21a11.27,11.27,0,0,1-1,1.09c.06-.48,0-.61.09-.69,1.79-2.76,3.51-5.56,5.41-8.24s3.86-5,5.78-7.57a2.18,2.18,0,0,0,.22-.8,6.9,6.9,0,0,0-2.23.35,9.66,9.66,0,0,0-2.33,2q-2.84,3.23-5.54,6.58a27.42,27.42,0,0,0-3.45,4.72,26.14,26.14,0,0,1-3.73,5.58c-.07.08-.06.22-.1.36l.72.12c-.45.86-.93,1.63-1.27,2.45a5.82,5.82,0,0,0-.28,1.49l-1,1.27c.07.21.13.42.2.64.62,1.51.77-.44,1.2-.18l.25,1.14,1.21-.31a35.42,35.42,0,0,1-3.18,6.92l-.36-.13.17-2,1.29-2c-.9-1.15-1.77-1.9-3.17-1.4.11.45.39.9.26,1.16a25.31,25.31,0,0,1-1.58,2.52,20.6,20.6,0,0,0-1.61,2.29c-.62,1.28-1.06,2.64-1.6,4-.39,1-.83,1.93-1.36,3.14,0,0-.49.35-.48.62a1.93,1.93,0,0,1-.93,2,1.56,1.56,0,0,0-.51.92,11.37,11.37,0,0,1-.4,2.31c-.77,1.71-1.74,3.33-2.54,5a5,5,0,0,0-.17,1.62c.83.06.41.55.32.93s-.11.54-.19.93c.67-.3,1.16-.5,1.63-.74s1-.51,1.57-.84c-.45,1.43-.82,2.83-1.34,4.16s-1.28,2.64-1.87,4-1,2.76-1.68,4.07-1,2.7-2.32,3.51l.87-2.85-.84-.25.5-1.08.74.5a6.42,6.42,0,0,0,.65-.94c.93-2.13,1.86-4.26,2.74-6.41a.92.92,0,0,0-.15-.83A22.1,22.1,0,0,0,102,189l-2.09,3.62a7.15,7.15,0,0,1-.31,1.62c-.71,1.82-1.48,3.62-2.28,5.4a6.5,6.5,0,0,1-.92,1.2,27.54,27.54,0,0,0-1.77,3.14c-1,2.2-2,4.41-2.93,6.65-.27.65-1.2,1.41-.1,2.19.05,0,0,.24,0,.34-.24.58-.49,1.15-.81,1.89l-.32-.92c-.3.29-.49.69-.37.82.72.81.09,1.49-.14,2.2-.59,1.89-1.21,3.78-1.82,5.67-.17.54-.36,1.07-.54,1.61l-.3-.06c0-1.05-.08-2.12,0-3.17a30.39,30.39,0,0,0,.53-4.08,38.82,38.82,0,0,0-.6-5.84c-.44-2.1.07-4.39.17-6.6a7.85,7.85,0,0,0,.09-1.07c-.33-4.26-.73-8.52-1-12.78-.12-1.86,0-3.73,0-5.6,0-4.07.11-8.14.1-12.2,0-.72.06-1.61-.88-2-.1,1.35.58,2.71-.27,4.08-.87-1.44-.92-6.89,0-8.62a6.9,6.9,0,0,1,.14,1.18,7.19,7.19,0,0,0,.38,1.07l.47-.14c0-1.35,0-2.69,0-4,0-.23-.36-.44-.53-.68s-.62-.69-.6-1c.15-2.25.44-4.49.61-6.73.22-3,.43-6,.54-8.94a36,36,0,0,0-.26-4l0,0a9.61,9.61,0,0,1-.78-1c-.3-.55-.37-1.4-.82-1.66-1.24-.74-.92-1.22.23-1.8l-.14-.33-1.55-.2c0,.43.1.6,0,.74a11,11,0,0,1-.63,1.72,9.31,9.31,0,0,0-1.09-.33,1.15,1.15,0,0,0-.91.33,25.22,25.22,0,0,0-1.23,2.31l.92.39-.69,2.7-1.34.91-.28-1.39c-.4.25-.77.37-.94.62-1,1.39-1.89,2.83-2.84,4.24a2.55,2.55,0,0,1-.34.47c-.72.75-1.48,1.47-2.18,2.23-.49.52-.93,1.1-1.38,1.66l-.28-.26,3.41-4.93c-.94.2-1.14-.1-.55-1.07a6.72,6.72,0,0,0-2,.85,46.84,46.84,0,0,0-3.35,3.83c-.77,1-1.32,2.15-2.08,3.15-1,1.31-2.09,2.53-3.13,3.77,0,.29.09.73-.08,1-1.41,2.3-2.83,4.61-4.35,6.85a20.4,20.4,0,0,1-2.25,2.41l-.79.78.22.27c-.55.12-1.1.1-.87,1a2.59,2.59,0,0,1-.54,1.6q-1.95,3.21-4,6.36c-.42.65-1,1.23-1.55,2,.46.5-.13.75-.57,1.06a2.65,2.65,0,0,1-.27,1.39,32.31,32.31,0,0,0-1.69,2.88c-1.17,2.85-1.33,2.93-3.54,4.79a2.32,2.32,0,0,0-.78,3,1.27,1.27,0,0,0-1.54,1.48c.5,1.27-.24,2.09-.69,3Q37.49,203,35.79,206a23.14,23.14,0,0,1-1.63,2.28L33.07,211c-1.65-.18-.68,1.7-1.63,2.07.83,1.06-.25,1.76-.54,2.56-.7,1.9-1.13,3.94-2.48,5.54a6.62,6.62,0,0,1-1,.86l-6.31,16.69c-.75-.85-1.14-.76-1.39,0l-.84,2.46-.16,0-.06-.71h-.16l-.5,2.28-.39-.09,1.51-5.82-.93,1.38c.15-1.64.25-3.2.45-4.75a10.13,10.13,0,0,1,.59-1.79v0A2,2,0,0,1,19,231c.33-1.95.7-3.9,1.05-5.86.13-.74.23-1.48.33-2.22.3-2.37.57-4.73.88-7.09.19-1.54.39-3.08.66-4.61.34-2,.77-3.95,1.1-5.94.15-.89.12-1.82.27-2.72.24-1.45.68-2.88.82-4.35.17-1.78.08-3.58.19-5.37.06-1,.35-2,.48-3s.16-2,.32-3.05c.44-2.8.95-5.59,1.39-8.39.27-1.79.5-3.6.69-5.4.08-.83,0-1.67,0-2.71l-.87,1a10.1,10.1,0,0,0,.24-2.51c-.3-1.74.66-3.1,1.49-4.31.68-1,.62-1.47-.12-2.17a6.62,6.62,0,0,1-.52-.63l.92-.85-1.05-.38,1-1.76-1.85-2.5c1.22.17,1.75-.44,2.13-1.5l.67,1.25v-2.5c-.78-.22-1.28-1.92-.57-2.42,1.45-1,.64-2.35.72-3.55a1,1,0,0,0-.63-.76c-1.23-.2-1.09-1.1-1.08-1.92,0-1.7,0-1.81-2.08-2.09.25.51.34,1.09.63,1.21,1,.41,1,1.12.66,1.87a6.37,6.37,0,0,0-.67,3.49,3.4,3.4,0,0,1-.08,1.68c-.59,1.45-.44,2,.85,2.48l-1.44,1.27,1,.67c-2.17.46-1.12,2.62-2.47,3.82l-1.27-3.55-1.66,1.3.84.76-1.11.22,1.9.82-.9.6.58.24L20.66,163l-.3-.13,0-.7c-.56.22-1.82,0-1.18,1,.85,1.37.05,2-.64,2.87a3.37,3.37,0,0,0-.67,1.23c-.92,3.92-1.87,7.84-2.69,11.79s-1.56,7.82-2.23,11.74c-.6,3.51-1,7.05-1.58,10.57-.48,3-1,6-1.52,9.08-1.12,7.05-2.29,14.09-3.31,21.16-.69,4.81-1.17,9.65-1.73,14.49a71.23,71.23,0,0,0-.4,15.85c.2,2,.2,4,1.65,5.65a.72.72,0,0,1,.16.56c-.38,1.65.81,2.95,1,4.46,0,.24.38.44.58.66l.92-.82c.68,1.09,1.37.94,2.3.34,1.44-.93,3.08-1.55,4.48-2.52a35.47,35.47,0,0,0,4.38-3.65,41.87,41.87,0,0,0,3.21-3.68c1.48-1.8,3-3.57,4.36-5.46,1.12-1.55,2-3.24,3-4.86.81-1.33,1.67-2.63,2.39-4,.92-1.74,1.71-3.56,2.58-5.33,1-1.95,2.33-3.79,2.83-5.85a9.69,9.69,0,0,1,2.65-4.84,1.65,1.65,0,0,0,.43-.56c.76-2.09,1.41-4.23,2.25-6.28,1.15-2.79,2.34-5.55,3.67-8.25,1.09-2.19,2.66-4.16,3.54-6.42.6-1.51,1.68-2.74,2.07-4.37.33-1.36,1.32-2.55,1.84-3.88s.8-2.68,2.11-3.49c.08,0,.12-.2.17-.3l1.94-4.46a3.18,3.18,0,0,1,.16-.32c.95-1.42.95-1.42.54-2.81,1.63-.44,2.15-1.94,2.48-3.21A13.39,13.39,0,0,1,65,182.9a11,11,0,0,0,1.67-2.52c.35-.77.2-1.79.61-2.51,1-1.72,2.13-3.33,3.2-5,.28-.44.49-.92.82-1.53.06,3.52.11,6.78.16,10.05l.56,0c0-4-.85-8.13,1.17-11.88A11.49,11.49,0,0,1,73,171.4c0,.2.18.6.32.62s.63-.16.66-.32a16.13,16.13,0,0,0,.49-3.35,8.33,8.33,0,0,1,2.29-6.18c-.17,2-.34,3.9-.49,5.8-.05.59-.06,1.19-.09,1.78-.18,3.9-.49,7.8-.51,11.7s.2,7.81.41,11.71c.29,5.25.68,10.5,1,15.75.24,3.73.44,7.46.73,11.18s.63,7.37,1,11,.76,7.05,1.23,10.57a25.28,25.28,0,0,0,.87,3.81c.1.33.63.53,1.09.9l-1-4.1.51-.17a4.83,4.83,0,0,1,.54,1c.2.85.28,1.74.5,2.58.11.4.43,1.06.62,1.05,1.06-.06,2.4,0,3.1-.55a20.13,20.13,0,0,0,4.24-4.65,78.9,78.9,0,0,0,5.7-10.16c.77-1.8,2-3.37,2.69-5.24,1-2.65,2.58-5.08,3.86-7.64,1.94-3.88,3.88-7.77,5.74-11.7,2.41-5.08,4.74-10.2,7.09-15.31q2.45-5.33,4.85-10.66c.11-.24.23-.6.13-.78-.35-.62-.07-.92.39-1.3a3.36,3.36,0,0,0,.85-1.12c1.89-3.78,3.68-7.61,5.63-11.36,2.2-4.21,4.52-8.35,6.81-12.51,1.55-2.81,3.14-5.61,4.7-8.42.15-.26.36-.68.26-.86-.48-.83.06-1.23.55-1.73a5.14,5.14,0,0,0,.88-1.27c1.17-2.25,2.24-4.57,3.5-6.77.86-1.49,2.15-2.76,1.9-4.69,0-.06.22-.13.23-.21a2.11,2.11,0,0,0,0-.93c-.18-.44-.75-.87-.7-1.24.16-1.13-.82-1-1.33-1.32-.13-.08-.61.35-.9.58s-.81.72-1.21,1.08c-.05-.35.12-.48.19-.65.47-1.15,2-1.71,1.83-3.2Zm-88.14,52-.3-.17a4.22,4.22,0,0,1,1.8-2.7,4,4,0,0,1,.33-1.12c.29-.49.69-.9.08-1.45a.81.81,0,0,1-.06-.66,3.48,3.48,0,0,1,3.37-2.28l-3.73,5.49ZM99,203.09a80.93,80.93,0,0,1-6.44,15.22C93.92,212.9,96.7,208.11,99,203.09ZM85.06,199a6.24,6.24,0,0,1,0-1.43c0-.74.14-1.48.14-2.22,0-1.9,0-3.79.12-5.69a89,89,0,0,1,.85,15.43C85.82,203.1,85.41,201.06,85.06,199Zm6,23.87c-.42,1.21-.67,2.47-1,3.7a1.34,1.34,0,0,1-.72.79c.13-1.11-1-2.12.34-3.27.92-.81,1.17-2.38,1.74-3.6a11.6,11.6,0,0,1,.75-1.21l.36.21C92,220.63,91.44,221.74,91,222.89ZM21.58,246l-.39-.15a7.45,7.45,0,0,0,.31-1.28,5.74,5.74,0,0,0-1.12-.36c.44-.31.89-.61,1.31-.94a3.48,3.48,0,0,0,1-.91c.55-1,1-2.16,1.46-3.24l.39.14Zm66.17-18.88a1.34,1.34,0,0,1,1.11,1.59,19.61,19.61,0,0,1-.52,2.75,3.36,3.36,0,0,1-.63.92l-.3-.14ZM25.14,237.93l-.42-.17c1.39-2.06,1.16-4.82,3.09-6.64l.4.18Zm9.73-25.62c.2-.33.32-.79.62-1a13.54,13.54,0,0,1,1.91-.85l-1.92,4.17-.4-.11C35.41,213.74,35.9,212.91,34.87,212.31Zm51.73,2.92-.4,0c-.62-2.08-.29-4.23-.35-6.35l.45,0Zm28.78-42.33c-.42-2.08,1.32-2.94,1.78-4.32A7.3,7.3,0,0,1,115.38,172.9ZM23.34,159c1,1,1,1.18.49,2.3a3.74,3.74,0,0,0,0,1.38h-.46ZM81.46,158c-1.43-.33-1.7-1.56-.61-3.29Zm-63.8,88.45-.48-.17c.27-.58.57-1.15.79-1.75s.46-1.4.69-2.09l.47.17ZM121,156.58a1.45,1.45,0,0,1-1.07,1.79v-2.58C120.4,156.16,120.93,156.34,121,156.58Zm-12.28,24.13.55.22-1,2.66-.62-.25ZM90.37,230.14c-.53-1-.37-1.42.81-2.32C91.72,229,90.84,229.44,90.37,230.14Zm-58.73-6.82-.51-.25,1.38-2.86.51.22Zm53.76-35h-.26V184.5h.26Zm15,17.43.37.18-1.88,3.94-.31-.18ZM87.69,237.81c0,.23-.43.41-.66.62-.1-.25-.32-.54-.26-.76a12.85,12.85,0,0,1,.64-1.49l.19,0A7.76,7.76,0,0,1,87.69,237.81Zm26.1-68.1a5.26,5.26,0,0,1,.5-1.31l.39.14v1.73l-.34.2C114.15,170.21,113.76,169.94,113.79,169.71Zm-33,61a12.13,12.13,0,0,1-.27-1.58s.24-.14.37-.21c.17.45.35.9.5,1.36a7.1,7.1,0,0,1,.09.95C81.12,230.9,80.87,230.82,80.83,230.68ZM19.64,242.17l-.33-.07.69-3.23.42.1Zm22.3-41.42.37.24c-.4.75-.46,1.73-1.76,2.27ZM112.6,173.4c-.41-1.1-.32-1.29,1.09-2.1ZM22.8,196l.25,0-.33,3.38-.36,0Zm69.31,32.85.39,0c0,.61,1.08,1.15-.27,2.06ZM26.63,164.46l.16-1.89C27.6,163.69,27.57,164,26.63,164.46Zm21,26.72-.46-.26,1.24-2,.33.21Zm224.28,22.46a7.09,7.09,0,0,0,1.25-1.26c.59-1,1-2,1.56-3a30.26,30.26,0,0,0,2.4-4.38c2.15-6.35,4.15-12.75,6.19-19.13,1.47-4.64,2.83-9.31,4.38-13.92,1.45-4.31,3.08-8.56,4.65-12.83a8.7,8.7,0,0,1,.51-1c.28,1.54.42,2.85.78,4.1.8,2.77,1.71,5.51,2.57,8.27.25.79.48,1.58.73,2.37l-.35.1-.91-2.83-.39.14a32.24,32.24,0,0,0,1.15,3.07,6.43,6.43,0,0,1,.54,4.91l-.73-1.55c0,2,.32,2.28,2,2.17a.59.59,0,0,1,.12.2c.27,1.58-.47,3.38,1,4.68,0,0-.1.24-.07.34.37,1.2.73,2.4,1.15,3.58.05.13.47.12,1,.24a37.89,37.89,0,0,0,1.54,3.84c2.15,4.15,4.38,8.25,6.61,12.35.71,1.32.76,1.29,2.09,1.49l.21-2c.61.5,1,1.14,1.44,1.12.93,0,1.12.59,1.45,1.15.2.33.37.67.72,1.31l1.24-2.28c1.26.13.41-1.29,1-1.84l1.42.64c0-1.82.08-3.43,0-5a31.94,31.94,0,0,0-.65-4.68c-.33-1.45-.88-2.84-1.37-4.37.19-.3.64-.72-.29-1.1-.3-.13-.39-.86-.5-1.33-.05-.18.24-.42.2-.6q-.67-2.94-1.4-5.87c-.09-.39-.1-1-.36-1.12-1.12-.73-1.14-1.94-1.46-3a62.38,62.38,0,0,0-2.11-7c-.68-1.56-.84-3.62-3.21-4.43,1.29-.38.79-.91.54-1.47-.34-.75-.57-1.54-.88-2.3a8,8,0,0,0-.52-.95l-.26.15c.2.64.41,1.27.61,1.91l-.22,0-6.78-7.89,1.83-.48.13-1.65a8,8,0,0,1,.88-1.24,7.15,7.15,0,0,1,1.24-.77,21.5,21.5,0,0,0,3.17-1.84c.7-.57,1-1.59,1.66-2.29a9.53,9.53,0,0,1,1.7-1.27,3.35,3.35,0,0,0,1.07-.84c.69-.68,1.38-1.34,2.08-2s1.15-1.39,1.85-1.55a2.65,2.65,0,0,0,2.15-2.1c.32-1.11,1.9-2.55,2.84-2.43s1.45-.41,2-1.12a30.72,30.72,0,0,1,2.68-2.67c-.26-1.22.18-1.75,2.06-2.05.23-.39.36-.9.67-1.07,1-.55,1.21-1.91,2.47-2.1.09,0,.17-.26.2-.41.46-1.94,2.44-2.69,3.36-4.27a.49.49,0,0,1,.42-.18c1,.29,1.49-.43,2.07-1,.79-.76,1.63-1.45,2.39-2.23.51-.53,1.59-.88.66-2,1.56-.25,2.54-.84,2.33-2.54,0-.19.54-.65.86-.67,1.44-.1,1.57-1.34,2.09-2.25l-1,.34,1-1.36.85.72a19.4,19.4,0,0,1,1.09-3.28,19.61,19.61,0,0,1,2.16-2.72l-1.33.11c.18-1.5.18-1.5-.77-1.88l2.59-2.77-.29-.35c-.52.36-1.06.68-1.54,1.08s-1.62,1-1.7,1.66c-.11.92-.56,1-1.17,1.17a2.51,2.51,0,0,0-.92.71c-1.54,1.63-3.08,3.26-4.57,4.94-.24.26-.23.75-.33,1.14s-.07.82-.24.9a19.56,19.56,0,0,1-2.11.67c.33-1.08.73-2.37,1.11-3.62l1.49.24.08-.33-.91-.55,2.61-2.24c.05,0,.16,0,.24,0,.86.1,1.07-.34,1.13-1.13a2.76,2.76,0,0,1,1.41-2.41c1.33-.74,2.56-1.63,2.13-3.57-.16-.71.22-1.38,1.24-.87a.76.76,0,0,0,.7-.17,6.16,6.16,0,0,0,.61-1.14h-.86c.71-1.54.91-1.63,2.15-.87l3.18-4-.2-.23-2,1.64a10,10,0,0,1,3.47-4.58c1.07-.9,2.2-2.9,1.93-4h1c.18-.84-1.07-1.91.51-2.5a27.61,27.61,0,0,0-4,1.82,7.93,7.93,0,0,0-1.81,1c-1.24,1.14-2.37,2.41-3.57,3.6-3.39,3.38-6.58,6.93-10.21,10.07-2.8,2.43-5.34,5.15-7.93,7.82-1.41,1.45-2.58,3.16-4,4.57-3.85,3.75-7.88,7.33-11.68,11.13-2.45,2.45-4.59,5.2-6.95,7.75-1.76,1.89-3.63,3.69-5.48,5.5-.61.59-1.32,1.07-2,1.6l-.29-.21c.31-.93.63-1.86.92-2.79.46-1.48,1.36-2.74,1.37-4.48,0-1.43,1.16-2.81,1.65-4.27,1.18-3.52,2.25-7.08,3.42-10.6,1.06-3.21,2.21-6.38,3.3-9.58a62.23,62.23,0,0,0,2.3-7.17,13.51,13.51,0,0,1,1.43-4.25,41.66,41.66,0,0,0,1.94-4.88c1-2.39,2.2-4.71,3.07-7.14,1.17-3.29,2.1-6.66,3.17-10,.34-1.06.85-2.07,1.18-3.13,1.29-4.13,2.53-8.27,3.8-12.4.76-2.48,1.54-5,2.3-7.44a43.37,43.37,0,0,1,1.64-5.37c.79-1.71.46-3.7,1.66-5.28a7.86,7.86,0,0,0,.71-2.35c.45-1.45.94-2.88,1.35-4.34.1-.35-.09-.78-.07-1.18a6.09,6.09,0,0,1,.23-1.47c.15-.53.48-1,.63-1.53.45-1.56.89-3.12,1.26-4.7a25.59,25.59,0,0,0,.36-2.65,4.51,4.51,0,0,1,.2-1.56c.64-1.06.74-1.93-.13-2.42.33-.94,1-1.9.81-2.51a2,2,0,0,1,.92-2.71l-2.51-2.24-1.5,1.74c-.36-.84-1.2-1.41-.14-2.17.13-.09,0-.55,0-.84-.31.06-.79,0-.9.2a2.73,2.73,0,0,0-.14,1.13c0,.39.13,1-.07,1.13-1,.85-.65,2.11-1.05,3.14-.49,1.27-.48,2.75-1.72,4.08-.05-.85-.09-1.37-.12-1.95l-1.33.18.22-.92-1-.14c.57-.34.89-.67,1.06-.61a6.25,6.25,0,0,1,1.2.77c.89-1.11,1.11-2,.65-2.91l-1.09,1.5-.28-.09.33-1.74a4.91,4.91,0,0,0-1.39.84,17,17,0,0,0-1.4,2.13l.35,0c-.3,1.49-.59,2.92-.9,4.49l-1.8-2.1,1.14-1.24c-.75.07-1.39.48-2,.45s-.94.16-1,.82a3,3,0,0,1-.18.79c-.4,1.22-.81,2.44-1.11,3.33a14,14,0,0,0-1.37,2.21c-.36.94-.42,2-.78,2.95-.52,1.35-1.26,2.61-1.81,3.95s-.93,2.76-1.48,4.11c-.78,1.92-1.67,3.79-2.45,5.71-.53,1.31-.91,2.69-1.4,4-1.29,3.53-2.69,7-3.89,10.6-.81,2.38-1.25,4.88-2,7.27-.86,2.6-2.05,5.08-2.89,7.68-2.29,7.09-4.48,14.22-6.7,21.33-.6,1.9-1.21,3.79-1.76,5.7-.86,3-1.68,6-2.52,9-.44,1.6-.92,3.18-1.31,4.79-.14.59.16,1.5-.17,1.8-1.05,1-.89,2.3-1.3,3.44-.79,2.19-1.57,4.4-2.14,6.65-.47,1.82-.61,3.72-.9,5.58a1.19,1.19,0,0,1-.18.54,9.84,9.84,0,0,0-2.05,7,8.82,8.82,0,0,1-.12,1.14l-.21,0-.11-.93c-.16.3-.28.41-.27.5.26,1.67-.55,3-1.16,4.49-1,2.51-1.57,5.21-2.36,7.81-.37,1.22-.9,2.39-1.21,3.62-.2.76-.29,1.44-.95,1.28-.16,1.06-.24,2-.48,3-.12.45-.69.79-.8,1.25-.26,1-.31,2.13-.54,3.18-.19.84-.42,2.3-.82,2.37-1.59.27-.54,1-.42,1.52a10.84,10.84,0,0,0-.86,1.17c1,1-.52,1.75-.18,2.72a1.87,1.87,0,0,1-.65,1.58c-1.22,1-1.22,2.31-1.18,3.62,0,.71.17,1.28-.68,1.65-.28.12-.33.73-.51,1.11-.57,1.17.49,2.75-1,3.66.79,1,.81,1.8-.21,2.53a.78.78,0,0,0-.29.48c-.09,1-.11,2.06-.22,3.08s-.29,1.75-.48,2.81l.42.31-.71,1.59.19.1.44-.81.2.07c-.09.61-.18,1.22-.27,1.81a2.45,2.45,0,0,0-1.88,3.21c-1.61.33-.57,1.32-.45,2.09a1.19,1.19,0,0,0-.65,1.85,1.68,1.68,0,0,1,.08,1.26c-.15.36-.78.52-.92.88s.48.7.43,1a48.1,48.1,0,0,0-.88,5.26,56.45,56.45,0,0,0,.42,6.31l1.62-1.39-.39,1.69c1.15.5,1.36.41,2-.56a6,6,0,0,1,.92-1.15,2.14,2.14,0,0,1,.75-.25l-.7-.65,1.23-.45v2.69ZM325.12,26c-.17-.63-.33-1.24-.51-1.9l1.07-.38-1.37-1.46c2.41.38,1.9-1.75,2.83-2.56l.39.22-1.87,3.79C325.88,24.57,326.44,25.49,325.12,26Zm11-14.34c.1.08-.05.63-.22.87a.91.91,0,0,1-.75-.17,10.09,10.09,0,0,1-.86-1.33l.13-.35A13,13,0,0,1,336.12,11.67ZM317.68,131.23c.15-.15.55-.06.83-.07-.09.27-.09.64-.28.79-.58.45-1.23.82-1.85,1.22l-.19-.25A21.94,21.94,0,0,1,317.68,131.23Zm2.76.44c.34,1.59-1.13,1.57-1.72,2.26C319,133,319.24,132,320.44,131.67Zm-7.57,56.66.41-.12,1.05,3.35-.49.15C313.51,190.58,313.19,189.46,312.87,188.33Zm17.21-68.19a5.37,5.37,0,0,1-.66-.7l1.88-.93.4.41C331.17,119.34,330.65,119.77,330.08,120.14Zm-13.93,76.77-.44.16-.95-2.63.44-.15Zm10.31-73.25c-.1.27-.44.45-.68.67-.16-.24-.43-.48-.45-.73s.28-.45.58-.86C326.19,123.19,326.52,123.49,326.46,123.66ZM186,194.92c-.16-1-.34-2,.65-2.73.26-.2.16-.89.2-1.36a5.45,5.45,0,0,1,.1-1.29c.44-1.29,1-2.55,1.44-3.81,1-2.59,1.9-5.25,3.11-7.76.94-2,1.16-4.09,1.89-6.09.1-.27-.32-.72-.5-1.08-.26.18-.64.31-.76.56-.32.67-.48,1.42-.81,2.09-.14.27-.56.41-.85.61a4.78,4.78,0,0,1-.15-1.11,10.88,10.88,0,0,1,.33-1.48l-.31,0c-.82,1.56-1,1.65-2,1l1.24-2.86c-.44-.41-1-1,.65-1.22.67-.1.93-1.15.43-2.11l-.45.84c-.33-.56-.85-1-.9-1.59s.36-1.68.54-1.67c1,0,1-.64,1.22-1.2s.67-.93.89-1.44a3,3,0,0,0,.4-1.65,14.92,14.92,0,0,0-1-2.26,1.23,1.23,0,0,1,0-.92c.52-.91,1.21-1.73,1.7-2.66a27.22,27.22,0,0,0,1.07-2.73c-.85-.27-2-.19-1.37-1.21s.23-2.11,0-3.19c-.29-1.73-1.29-3.62.86-4.9-.6-1-.93-1.89-.24-2.9a1.1,1.1,0,0,0,0-.77,28.17,28.17,0,0,1-1.13-3.63c-.09-.54-1-1.59.28-1.81-.92-1.36-1.88-2.75-2.81-4.17-.09-.13,0-.39.06-.58a1.37,1.37,0,0,0-1-1.92c-.79-.26-1.55-.6-2.36-.91l.09.83-2.47-.71a6.37,6.37,0,0,0,3.24,2.93c.44.25,1.07.47,1.23.86.7,1.71,1.64,3.44,1.79,5.23.38,4.43.37,8.9.55,13.35a9.83,9.83,0,0,0,.46,1.89c-.92,1-1.37,3.57-.65,4.33A22.32,22.32,0,0,0,189,157c-.66,2.1-1,4.3-1.67,6.39-.78,2.44-1.83,4.79-2.65,7.23s-1.5,5.15-2.33,7.71-1.67,5-2.6,7.4c-.22.58-.92,1-1.24,1.52-1.06,1.88-2,3.84-3.11,5.68-1.35,2.2-2.79,4.36-4.34,6.44s-3.45,4.36-5.23,6.51c-2,2.45-3.82,5.17-6.2,7.2a96.28,96.28,0,0,1-9.92,6.83c-.25.16-1-.24-1.35-.53-.22-.18-.19-.67-.31-1-.48-1.3-1.87-2.09-2-3.59-.08-.84-.76-1.5-1-2.23-.32-1.16-1.15-2.5.09-3.7.08-.07.05-.31,0-.46l-1.11-6.32a2.78,2.78,0,0,1-.07-.57c.05-1.24.44-2.56-.94-3.42.31-.38.69-.65.77-1a20.63,20.63,0,0,0,.35-2.62,7.16,7.16,0,0,1,0-1.31,28.78,28.78,0,0,0,1-2.74c.4-2.23.66-4.5,1-6.75,0-.11.05-.28.12-.32,1.2-.64.55-1.27.13-1.67.6-1.89,1.15-3.6,1.7-5.31.36-1.14.69-2.29,1.09-3.41.58-1.58,1.51-3.08.72-5,1.25.39,1.36-.39,1.57-1.15a13.13,13.13,0,0,1,.85-2.18c.43-.85,1-1.65,1.41-2.5.67-1.26,1.29-2.56,2-3.82.21-.4.66-.68.83-1.09.6-1.42,1.08-2.9,1.71-4.31a19.14,19.14,0,0,0,1.42-2.45,8.65,8.65,0,0,1,1.9-4.05,50,50,0,0,0,3.64-5,7.85,7.85,0,0,1,1.11-1c.35-.32.82-.59,1-1,.55-1.16,1-2.31,2.49-2.62.32-.07.53-.67.79-1s.4-.59.62-.86c1.09-1.29,2.19-2.58,3.28-3.88a.59.59,0,0,0,.13-.33c0-.86.06-1.73.09-2.85.9.19,1.47.36,2.06.42a1.18,1.18,0,0,0,.88-.19,34,34,0,0,0,2.7-3.17,6.13,6.13,0,0,0,.43-2l-4,.88-.81-1.36-2.85.71.1-1.18-.31-.14-.56,1c-1.08-.62-1.1-.62-1.28.43l1.21.28c-.65,1,.21,1,.94,1.2a5.65,5.65,0,0,1-1.12.77,4.93,4.93,0,0,1-1.28.1l.42-1.52-1,.79-1.66,1.39c-.19-.69.75-1.74-.65-1.42a2.9,2.9,0,0,0-1,.58c-1.52,1.17-3.36,1.84-4.59,3.49A30.85,30.85,0,0,1,159,132c-.93.9-1.7,2-2.64,2.87a51.44,51.44,0,0,0-3.91,3.42c-2.9,3.33-5.65,6.8-8.44,10.24a14.86,14.86,0,0,0-1.75,2.56c-1.64,3.18-3.32,6.36-4.75,9.64-1.58,3.61-3.06,7.29-4.28,11-1,3.21-1.59,6.58-2.49,9.84a46.23,46.23,0,0,0-2,14.15c.12,2.87.47,5.73.44,8.59-.06,4.67,1.31,9,3.06,13.19a11.4,11.4,0,0,0,1.91,3.41,31.92,31.92,0,0,0,4.14,3.52c2,1.56,4,3.07,6.81,3.16,1.17,0,2.75-.08,3.27,1.63,0,.16.52.26.8.27a17.71,17.71,0,0,1,3.59.19,5,5,0,0,0,3.56-.27,28.54,28.54,0,0,0,4.41-2.33,27.56,27.56,0,0,0,2.84-2.78c2.08-1.93,4.33-3.68,6.24-5.75a76.89,76.89,0,0,0,5.77-7.31c2.05-2.86,3.92-5.85,5.84-8.79.39-.6.6-1.31,1-1.87a12.26,12.26,0,0,0,2.69-5,5,5,0,0,1,.55-1.12Zm-39.77,24.37c-.48-.93-1-1.83-1.48-2.78a7.34,7.34,0,0,1-.37-1.57l.36-.11c1.21,1.81,2.41,3.63,3.66,5.52C147.46,220.79,146.83,220.46,146.23,219.29Zm43.36-41.38-1,1.1c1.48.73.62,1.58-.15,2.51l-.53-2.36-1.42.31v-1.35c.71.75.71.75,1.33-1.26ZM183,188.34c.51,0,1.29-.06,1.36.12a14.35,14.35,0,0,1,.53,2.46l-.31.17-1-.81-1.13.6.59-1.68-.89.28.88-2.37.26.06Zm-2.16.28-.75-1.21,1.3-.63.25.32Zm-10.2-59.78-.3-.33c.64-.58,1.29-1.15,2.07-1.84ZM391,82.49c-.4-.24-.87-.74-1.19-.66a12.28,12.28,0,0,0-3.34,1.24q-5.52,3.45-10.92,7.09a66.77,66.77,0,0,0-12,10.24,60.21,60.21,0,0,0-6.84,8.89c-.2.33-.27.74-.45,1.09-.55,1.1-1.12,2.21-1.72,3.29-.24.43-.69.77-.87,1.22-.3.8-.41,1.68-.71,2.48-.46,1.23-1.15,2.39-1.51,3.65a22,22,0,0,0-.93,7,4.91,4.91,0,0,0,1.65,3.62c.63.61,1.12,1.36,1.78,1.92a5.71,5.71,0,0,0,2.38,1.58,4.52,4.52,0,0,0,4.31-1.16c.4-.43,1.33-.39,2-.51.08,0,.35.51.3.56a7.6,7.6,0,0,1-1.39,1.21,7.09,7.09,0,0,1-1.41.48l.09.3c1.18-.2,2.36-.41,3.55-.6A6,6,0,0,0,367,133.6a9.68,9.68,0,0,1,1.68-1.59c1.35-.8,2.84-1.35,4.17-2.16,2.72-1.67,5.4-3.36,8.73-3.56a1.2,1.2,0,0,0,.88-.71c.19-1.34,1.12-.93,1.83-.8,1.21.22,2,1.06,1.78,1.86a9.85,9.85,0,0,0,.37,5.93c.4,1.1.84,2.19,1.22,3.3a2.7,2.7,0,0,1,.11.94c-.08,2.51-.14,5-.26,7.52-.13,2.66-.28,5.32-.48,8a18.78,18.78,0,0,1-.49,3.43,40.53,40.53,0,0,1-1.82,6.17,35.56,35.56,0,0,1-6.25,9.58c-1.39,1.58-2.63,3.3-4.72,4.13a3,3,0,0,0-1.26,1.44,2.45,2.45,0,0,1-3.17,1.48,1,1,0,0,0-.67.12c-.59.4-1.14.84-1.76,1.3.11.24.35.52.35.79s-.32.5-.53.54a18.83,18.83,0,0,1-2,.16l.84,1.16c-4.23,2.49-8.14,5.6-13.31,5.89-.41,0-1,.1-1.19-.12s-.07-.8,0-1.2c.09-.74.22-1.47.34-2.21l-.47-.12c-.25.54-.51,1.07-.79,1.67l-1.05-.6c.33-.19.74-.31.75-.45.08-1.21.11-2.43.08-3.65,0-.09-.76-.3-.79-.25-.5.92-1.41,1.94-1.29,2.81.18,1.3-.57,2-.83,3.08l-1-.54-.87,1.32-1.71-2.54a1.83,1.83,0,0,0-1,2.44,7.36,7.36,0,0,0,3.2,4,13.63,13.63,0,0,0,10,2.39c1.18-.15,2.32-.58,3.5-.69,3-.27,5.61-1.74,8.3-2.88,3-1.29,5.93-2.88,8.89-4.35a15.5,15.5,0,0,0,2.1-1.1c1-.69,1.84-1.49,2.92-2.38.3,1.44.88,1,1.44.47s1.27-1.22,1.87-1.85a2.38,2.38,0,0,0,.3-.62l-.2-.13-.9.66-.21-.23,1.77-2,.25.24-.34.8.23.18,1.77-2.24.25.17h-.73l-.08-.3,3.56-1.11-1.21-1.41,3.45-2.43-1,1.6.26.18c.49-.58,1-1.15,1.47-1.74s1.1-1.23.74-2.27a1.71,1.71,0,0,1,.65-1.4,11.34,11.34,0,0,0,3.22-3.81c1.48-2.58,1.84-5.43,2.66-8.16.61-2,.67-4.17,1.13-6.23s-.44-4.17.6-6.14c.05-.1-.08-.29-.09-.45-.1-.89-.22-1.79-.26-2.68-.07-1.38,0-2.78-.16-4.14-.34-2.41-.86-4.79-1.29-7.08l-.37.29-1-1.89.93.3.28-.3c-1.28-1.6-2.35-3.46-3.9-4.73s-3.54-1.89-5.35-2.8l-.16.3,1.23,1-.12.25-2.72-1c.2-1.49-1.28-1.93-1.84-2.61.27-.61.68-1.1.59-1.48a1.41,1.41,0,0,0-1.06-.82c-3.7-.25-7.41-.51-11,1.06a8.57,8.57,0,0,1-2.86.81,12.06,12.06,0,0,0-5.42,1.23,10.23,10.23,0,0,1-1.13.45c1-1.3,2.85-1.78,3.17-3.63v0l-2.79,1.28-.59-.38c.33-1.78,2.52-2.73,1.86-4.69.52-.11,1.18-.06,1.44-.36a41.1,41.1,0,0,0,2.6-3.39c.25-.34.3-.86.58-1.16,1.69-1.77,3.42-3.51,5.16-5.23.16-.15.56,0,.84-.07a.4.4,0,0,0,.53-.27,4.4,4.4,0,0,1,2.07-3,2.33,2.33,0,0,0,.92-1.21c.27-1.19,1.1-1.52,2.13-1.7a.89.89,0,0,0,.49-.19c.95-1,1.86-2,2.84-3,.41-.39,1.29-.51,1.43-.93.36-1,1.43-1.08,2-1.69.66-.77,2.75-.36,1.94-2.31,1.85,0,7.25-3.15,8.05-4.29l-1.32.26c.54-1.84,2.2-.89,3.33-1.24l-.06-.32L402,83.44l-.05-.29c.32-.07.63-.17.95-.21,1.12-.15,2.26.57,3.4-.25.57-.41,1.06,0,1.18.71.07.35-.08.86.11,1a4.89,4.89,0,0,0,1.32.63c.12-.28.41-.62.33-.82A21.68,21.68,0,0,0,408.16,82a1.5,1.5,0,0,0-1.65-.83,39.25,39.25,0,0,1-4.14-.2l1.26-1.62-.22-.37L388,84.41,387.8,84c.38-.21.76-.44,1.15-.62.66-.31,1.33-.59,2-.89Zm-27.48,42.77-.19-.29a30.37,30.37,0,0,1,2.92-1.9,31.1,31.1,0,0,1,3.41-1.3l.18.52Zm12.92-22.48h-2.72l3.57-3.62C377.32,100.73,375,101.18,376.4,102.78Zm-19.32,90.81,7.56-2.67.12.3A20.84,20.84,0,0,1,357.08,193.59Zm-8.1-4.36-1.21-1.3c.54-.05,1.07-.23,1.18-.08a5.54,5.54,0,0,1,.94,1.78,2.12,2.12,0,0,1-1.21.67c-.3,0-.63-.51-.95-.79l.21-.28Zm31-92.11c.61-.76,1.59-1.38,2.26-.71.91.92-.74,1.18-.84,1.92Zm10.17,28.53.46-.37c.68.76,1.41,1.48,2,2.3.13.16-.18.65-.39,1.32Zm-15.51,1.72c.65-1.38,2-1.91,3.91-1.56ZM367.78,190l-.29-.54,1.72-.89.25.46ZM206.5,220.36c1.57.69,2.36.68,3.33-.7,1.41-2,2.62-4.12,3.88-6.22a15,15,0,0,0,1-2.14c.24-.6,1-1.17.16-1.9-.07-.06,0-.52.2-.62a3.34,3.34,0,0,0,1.09-3.43c-.28-1.23.32-1.77.68-2.58.07-.13.21-.3.18-.4-.31-1,.27-1.16,1.36-1.18l-1-1.55c.16-.23.32-.49.48-.75.38-.64.49-1.59,1.66-1.28.11,0,.59-.7.59-1.08a9.79,9.79,0,0,1,1.74-5.81,1.53,1.53,0,0,0,.26-.75c0-.67,0-1.35,0-2l.28,0,.31.53c.19-.85.33-1.51.49-2.16.57-2.32,1.11-4.64,1.76-6.94a14.48,14.48,0,0,1,1.17-2.37,19.39,19.39,0,0,0,1.21-2.41c.33-.92.44-1.91.69-2.86.06-.2.34-.32.48-.5a3.84,3.84,0,0,0,.49-.79c.91-2,1.72-4.1,2.71-6.08,1.1-2.17,2.36-4.26,3.53-6.4.19-.33.18-.78.36-1.12a39.29,39.29,0,0,1,3.21-5.67,10.89,10.89,0,0,0,1.54-2.38c.42-.93.36-2.08,1.54-2.7.71-.38,1.64-1.3,1.6-1.92-.1-1.66,1-2.16,1.93-3.09a40.21,40.21,0,0,0,3.51-4.63c1.52-2.1,2.8-4.37,4.79-6.14a5.11,5.11,0,0,0,2.07-3.3c0-.47.53-1.22.9-1.27,1.49-.22,1.84-1.31,2.33-2.41.21-.47.66-1.08,1.09-1.16a3.39,3.39,0,0,0,2.45-2.08c.2-.38.4-1,.7-1.06,1.38-.28,1.67-1.13,1.47-2a11.94,11.94,0,0,0,2.72-2,15.92,15.92,0,0,1,5.69-4.37c1.2-.63,2.93-.93,3.11-2.82a.77.77,0,0,1,.61-.36,4.88,4.88,0,0,0,4-1.13,15,15,0,0,1,1.89-.92,2.21,2.21,0,0,1,.52-.28c.83-.17,1.16-.75.75-1.38a1.7,1.7,0,0,0-1.5-.37c-.75.22-1.38.57-1.67-.54-.94,1.21-1.48,1.25-2.71.28-.2,1.53-.52,1.71-2.26,1.48a2,2,0,0,0-1.24.32c-.88.54-1.69,1.21-2.57,1.76a4.49,4.49,0,0,1-1.28.43c-.44.11-1.05,0-1.32.27-1.59,1.55-4,1.7-5.53,3.31-.07.08-.27,0-.66,0l1.69-2.2-.38-.32c-2.49,1.86-5.15,3.57-6.39,6.68l.24.26,3-2.73.21.22-4.6,5.41c-.13-.83-.2-1.26-.29-1.87a6.93,6.93,0,0,0-1.14.8c-1.25,1.43-2.48,2.87-3.68,4.34s-2.29,3-3.48,4.39a4.05,4.05,0,0,1-1.08.68l-.21-.31a1.08,1.08,0,0,1,.17-.41,1,1,0,0,0-.09-1.55c-.23-.17-.8-.3-.9-.19a8.23,8.23,0,0,0-.95,1.56c-.14.26-.12.64-.3.86-.59.72-1.24,1.4-2.07,2.31a4.58,4.58,0,0,0,1.6.13c.43-.16.75-.63,1.11-1l.19.23-14.6,21.33a14,14,0,0,1,.77-2.94c.17-.53.13-1.35.48-1.55a4.72,4.72,0,0,0,2.56-3.92c.67-.63,1.52-1.06,1.53-1.5a4.32,4.32,0,0,1,1.77-3.48,6,6,0,0,0,1-1.59l-.36-.28a14.1,14.1,0,0,0-2.23,2.05,31,31,0,0,0-2,3.64c-.31.58-1.44,1.09-.23,1.88.06,0,0,.39-.12.54-.41.61-.85,1.2-1.27,1.79l-.33-.1q1.15-5.84,2.29-11.66l-.46-.13-1.92,5.44-.38-.13c.45-1.81.93-3.6,1.36-5.41.32-1.36.51-2.74.89-4.08.51-1.83,1.24-3.6,1.68-5.45.51-2.15.82-4.35,1.23-6.63l1,.73.3-.12c-.13-1.35-.27-2.7-.42-4.13l-1.61,1a21,21,0,0,0,.49-3.07,18.26,18.26,0,0,0-.37-2.73l-.45.05v2.62l-1.05-.73v1.16c-.37.1-.8.12-.84.25a9.55,9.55,0,0,0-.18,1.53,11.73,11.73,0,0,0-.74,1.55c-.61,2-1.15,4-1.75,6a2.06,2.06,0,0,1-.43.61l-.33-.13c.2-.68.39-1.37.62-2.05.11-.32.51-.72.42-.92-.5-1.06.27-1.79.54-2.64a7,7,0,0,0,.42-1.37c.08-.73.05-1.48.07-2.38-.76-.38-1.36-.12-1.7,1.08-.82,2.92-1.73,5.8-2.61,8.7a3.62,3.62,0,0,1-.3.77,8.14,8.14,0,0,0-1.45,4.35c0,.27-.28.54-.38.82-.52,1.41-1.39,2.82-1.42,4.24a6,6,0,0,1-.94,3,11.12,11.12,0,0,0-.76,2.87,3.85,3.85,0,0,1-.12.78,43.93,43.93,0,0,0-1.8,4.12c-2.07,6.58-4.15,13.16-6,19.79-1.71,6-3.16,12.18-4.74,18.26-.38,1.47-.8,2.92-1.26,4.36-.57,1.8-1.2,3.58-1.71,5.1.46.47.9.75.86.92-.55,2.29-1.17,4.57-1.77,6.85a2.27,2.27,0,0,0-.14.76c.06,1.07,0,1.12-1,1.14.1-1.13.14-2.27.32-3.39a6.75,6.75,0,0,1,.62-1.27c.22-.55.69-1.47.51-1.63-.78-.72-.35-1.47-.21-2.14.44-2.18,1-4.34,1.5-6.51,1.07-4.87,2.11-9.75,3.17-14.62a13,13,0,0,0,.49-5.69l-1,2-.26-.09.36-2.25c-.37.27-.72.39-.78.6a147.23,147.23,0,0,0-5.12,24.79l1.63-4.93.43.15a21.28,21.28,0,0,0-1,2.71,16.29,16.29,0,0,0-.14,2.33,14.46,14.46,0,0,1-.28,1.46l-.92-.84c-.26,1.29-.55,2.65-.83,4l.38.07.62-2.77.45,0a2.37,2.37,0,0,1,.09.78c-.38,1.5-.84,3-1.2,4.5a56.77,56.77,0,0,1-1.47,6.28c-.72,1.94-.6,4.13-1.85,5.89-.07.11,0,.31,0,.47.11.61.21,1.23.36,1.84,0,.16.24.28.34.44s.43.5.4.7-.36.45-.65.78l1,1.79.4-.07v-2c0-.42-.18-.91,0-1.24a9.63,9.63,0,0,1,1.15-1.54c.37,3.54-.13,7.13.63,10.66C205.76,220.38,206.2,220.22,206.5,220.36Zm48.32-97.82.42-1.48L254,121c.13-1.23,1.13-1.66,1.69-2.4C256.09,120.08,256.68,121.57,254.82,122.54ZM248,128.77l-.44-.35,5-6.2.33.25Zm-13.4,17.4,3.09-4.56.39.29C236.85,143.31,236.67,145.43,234.55,146.17Zm-28.71,53.6c.37,2.08-.33,4.53-1.34,4.88Zm23.54-71.56a3,3,0,0,1,.81-3.44l.33.18C230.17,125.94,229.83,126.93,229.38,128.21Zm27.95-8c-.15,0-.41-.43-.62-.67a4.2,4.2,0,0,1,1-.76c.16-.06.48.32,1,.68A5.84,5.84,0,0,1,257.33,120.21Zm17.54-13.15s-.5-.22-.77-.33l.85-1.49.63.31C275.35,106.06,275.14,106.57,274.87,107.06Zm-71,100.64.72-2.35C205.13,207,204.83,207.82,203.85,207.7ZM2.59,265.07l.24,1.51c.82.6.84.13.75-.55-.23-1.68-.56-3.37-.64-5.06s.15-3.23.19-4.85-.1-3.32,0-5c.24-2.69.67-5.36,1-8s.57-5.29.84-7.94c.1-.94.14-1.89.23-3.1l-1,.71v-2l.94.55.32-.2-.61-1.36-.53,0,1.52-2.13-1.07.57.32-1.35c.8.51,1.17.29,1.28-.65.31-2.74.59-5.47,1-8.2.33-2.36.84-4.69,1.19-7.05.19-1.24.22-2.5.32-3.77-1.2-.19-1.77.17-1.94,1.3-.77,5.23-1.64,10.45-2.39,15.69q-1,7-1.86,14.09c-.43,3.59-.75,7.2-1.07,10.81-.2,2.22-.37,4.44-.41,6.67a36,36,0,0,0,.35,4c-1.13.34.23,1.52-.41,2.31l-.48-1.7-.3.07,1,4.07C2.11,264.11,2.47,264.35,2.59,265.07Zm311.09-93.63a28.14,28.14,0,0,1,1.21,3.11c1.07,4,2.08,8,3.07,12,.89,3.59,2.26,7.08,2.27,10.86a4.9,4.9,0,0,0,.48,1.46l.41-.07a4.94,4.94,0,0,0,.08-.93c-.35-3-.64-5.92-1.11-8.85-.25-1.58-.48-3.24-1.71-4.49-.07-.07,0-.27,0-.4-.12-1,.25-2.16-.88-3-.46-.34-.53-1.19-.77-1.81l.25-.09.76.61c0-3.66-1.56-6.67-2.64-9.83l-.37.12c.48,1.49,1,3,1.42,4.49l-.46.13a12.25,12.25,0,0,1-.54-1.5,2.11,2.11,0,0,0-1.46-1.85Zm-121.1-2.14c.19.29.68.73.81.66a1.85,1.85,0,0,0,1-1c.38-1.5.61-3,.93-4.55.26-1.24.59-2.46.85-3.7.05-.21,0-.59-.11-.65-1-.53-.58-1.28-.4-2,.23-1,.34-2,.59-2.92a7.72,7.72,0,0,1,.67-1.39c1-1.36-.58-2.53-.37-3.75,0-.16-.61-.44-.94-.67l-.36.26c.08,1.24.17,2.48.24,3.72a1.23,1.23,0,0,1-.1.46c-.35,1.18-.73,2.35-1.06,3.53a1.07,1.07,0,0,0,.05.79c.95,1.43-.13,2.71-.31,4,0,.14-.37.31-.57.33-.86,0-.79.57-.71,1.18l1.05-.08-1,3.85-1.27-.14C191.94,168.08,192.21,168.72,192.58,169.3ZM274,104.12a7.12,7.12,0,0,0,.92-.25,44.31,44.31,0,0,1,4.14-1.93,18.9,18.9,0,0,1,3.68-.74,10.2,10.2,0,0,1,1.83,0c-.38-.45-.75-.91-1.13-1.35,0,0-.14,0-.22-.07l0,.28-2.61.28.79-.91c-1-.51-2.12-.36-2.77-1.26a14.08,14.08,0,0,0-7.11,2.19,3.21,3.21,0,0,0,3.23-.54c1.34-.8,2.72-.34,4.09-.63-1.92.73-4.16.75-5.39,2.73l.52.1ZM8.44,197.86c-.28,2.16-.54,4.32-.87,6.47-.15,1,.37,1.24,1.29,1.38.31-2,1.23-3.85.55-5.82l1.7-8.74c-.7.33-1.43.44-1.58.8a6.34,6.34,0,0,0,0,4.79C8.52,196.6,8.52,197.24,8.44,197.86Zm40-19.7-1.11-.4a10.74,10.74,0,0,0-1,1.24,13.77,13.77,0,0,0-.69,1.62l1-.59-1.5,2.77-.28-.15.6-1.38-.31-.17c-.35.6-1.06,1.26-1,1.77.23,1.21-.44,1.59-1.14,2.3-.45.45-1.33,1.4-.49,2.4,0,.05-.16.31-.29.55l-.88-.7c-.75,1.74-1.88,3.27-1.31,5.54ZM272.91,105.4c.07-.87.13-1.69.2-2.52-1.56-.46-6.69,2.57-7.5,4.5.63.2,1.15.6,1.75-.21.25-.33.95-.29,1.43-.47s.9-.41,1.36-.62l-.21-.37-1,.57C270.47,104.15,270.47,104.15,272.91,105.4Zm79.93-7.29c1.41.72,1.77-.52,2.29-1.2.93-1.23,1.7-2.59,2.61-4a8.62,8.62,0,0,0-1-.64c-.06,0-.4.27-.4.42a1.59,1.59,0,0,1-1.4,1.67c-.32.52-.46,1.07-.78,1.22-1.46.69-2,2-2.5,3.46C352,98.7,352.64,98,352.84,98.11ZM66.38,150.66c-.09.24-.19.69-.25.68-1.25-.1-1.54,1.07-2.13,1.71a9.32,9.32,0,0,0-2.06,3.17,6,6,0,0,1-.77,2.05c-1,1.32-1.88,2.76-2.89,4.27a3.13,3.13,0,0,0,.38,0q4.08-5.59,8.13-11.19c.1-.14-.1-.48-.15-.73Zm239,7c-.16,1.24.12,1.61,1.37,1.83a.51.51,0,0,1,.3.19c.82,1.25,2.12,2.44,2.32,3.79.26,1.82,1.92,2.24,2.52,3.57C310.68,163.21,309.32,159.51,305.37,157.63ZM50.15,175.44c1.06-1.68,2.07-3.41,3.2-5.05a1.39,1.39,0,0,0-.22-2.13c.3,1.82-1.31,2-2.18,2.88l1,.57a5.17,5.17,0,0,0-1.18.62c-.49.48-1.37,1.22-1.25,1.54.41,1.12.08,1.47-1.08,1.46l.71,1.56C49.59,176.3,49.88,175.88,50.15,175.44ZM.79,248.69l1.66-16.42-.57-.06L.28,248.62ZM340.21,8.39a4.55,4.55,0,0,0-4.2-3.1c-.3,0-.63.26-.94.4,1.75.42,2.78,1.41,2.39,2.25l1.24,1.42ZM4.15,219.54c1.65-4.15,1.49-8.6,2.14-12.92C5,210.82,4.93,215.24,4.15,219.54Zm216.66-87.2a3,3,0,0,1,.12,2.73c-.09.15.24.54.37.82.25-.16.63-.26.74-.49a5.65,5.65,0,0,0,.3-1.38c.15-1,0-2.17.49-2.83.92-1.16.61-2.44,1-3.64-.75,1.44-1.37,2.92-2,4.4-.2.51-.45.87-1,.41Zm-189,75.26c-.39.6-.75,1.21-1.17,1.8-.26.36-.64.64-.89,1a4.68,4.68,0,0,0-.75,1.34c-.2.72-.15,1.53-.4,2.23-.48,1.3-1.1,2.56-1.67,3.83l.35.15,4.89-10.15ZM38.86,195l-.34-.19c-.84,1.52-1.66,3.05-2.51,4.55-.23.4-.63,1.11-.8,1.06-1.06-.25-1.17.6-1.27,1.14a22.25,22.25,0,0,0-.18,3.16C35.48,201.38,37.17,198.16,38.86,195Zm-27.5-7c.15-.81.5-1.59.61-2.41,0-.32-.3-.7-.47-1-.28.27-.71.5-.81.83-.26.86-.29,1.81-.58,2.66-.36,1.08-.24,1.85,1,2.35C11.21,189.51,11.22,188.73,11.36,188ZM391,82.47l8.9-3c-.22-.27-.38-.35-.52-.32-2.48.67-5,1.36-7.45,2a1.21,1.21,0,0,0-.92,1.28ZM137.52,131.2c.19-.24.47-.45.56-.72a8.35,8.35,0,0,1,.61-2,6.07,6.07,0,0,1,1.66-1.18l-1-.88a9.42,9.42,0,0,0-1.22,1A11.9,11.9,0,0,0,137,129a2.6,2.6,0,0,0-.49,1c0,.13.54.31.93.53l-.11.57Zm-123.17,44-.74-1.44c-.55,2.16-1,4.1-1.55,6-.38,1.29-.75,2.51.52,4A13.82,13.82,0,0,1,14.35,175.21ZM218.2,147c.06-.36.12-.72.19-1.08a8.65,8.65,0,0,1,.35-1.44c.53-1.33,1.15-2.62,1.66-4,.06-.15-.28-.47-.44-.71-.19.15-.51.25-.57.44-.59,1.88-1.16,3.76-1.67,5.66-.09.33.12.73.2,1.09Zm-21.58-4.09c-.13-1,.07-2.28-.47-3a6.61,6.61,0,0,1-1.1-3.24c-.17-.83-.37-1.65-.56-2.47l-.22.07q.45,3.92.89,7.85l.3,0,.38-.88.41,1.74Zm74-41.37a2.81,2.81,0,0,0,.34-.72c-.25,0-.54-.07-.73,0-1.25.67-2.49,1.36-3.7,2.1a4.68,4.68,0,0,0-.84,1l2.08-.18a.94.94,0,0,1,1.4-.87C269.84,102.28,270.27,101.91,270.64,101.49ZM217.13,147.2l-1.83,5.62c1.74-.49,2.44-2.5,2.19-5.51ZM74.2,172.85l-1-.21c-.12,1.37-.27,2.68-.33,4s0,2.58,0,3.88c.39-.09.64-.28.66-.49.12-1.59.22-3.18.29-4.77a4.15,4.15,0,0,0-.27-1Zm146.59-40.49.54-1.28c-1.09.39-3.88,8.89-3.38,9.56.4-.74.88-1.54,1.29-2.38a6.86,6.86,0,0,0,.24-1.13c.44-1.6.88-3.19,1.33-4.79Zm41.72-25.45-.27-.27c-2.08.51-2.62,2.58-3.92,4a4.89,4.89,0,0,0,1.46,0c.37-.12.65-.5,1-.77l-.14-.16-.92.19ZM73.65,200.81c1.12-1.92.17-3.8-.12-5.68C72.56,197,73.36,198.92,73.65,200.81ZM8.48,190c-.83,2.7-.76,5.53-1.23,8.28l.5.07,1.16-8.26Zm233.06-56.91c.22-.19,0-.9,0-1.43l1.33-.86-.59-1.87-2.37,4.42C240.59,133.25,241.23,133.35,241.54,133.08ZM73,203.67q-.41-4.56-.83-9.11l-.59.06,1.11,9.09ZM213.94,153.2c.69-1.44,1.38-2.89,2.09-4.32.36-.73.1-1.14-.58-1.41-.32,1-.64,1.9-.93,2.84s-.56,1.85-.83,2.78Zm97.21,9.57a6.76,6.76,0,0,0,1.66,3.47,25,25,0,0,0-1.11-3.68,26.14,26.14,0,0,0-2.2-3.23C309.06,161.09,310.81,161.6,311.15,162.77Zm-107,33-2.76,10.29.33.08q1.42-5.13,2.84-10.26Zm28.39-86.08a.94.94,0,0,0,.29.86c.13.12.61,0,.82-.19.52-.4.77-2.4.28-3.39C233.39,108.08,232.92,108.89,232.56,109.74Zm79.35,60,2.19,7.75.29-.07c-.4-1.78-.76-3.57-1.22-5.33a21.66,21.66,0,0,0-.9-2.44Zm-190.7-25.36c-2.41,1.56-2.81,4.37-4.25,6.54l.3.18,3.93-6.74ZM408.7,89l-2.79,1.44c1.29.25.28,2,1.62,1.79ZM75.81,144.21a7.6,7.6,0,0,0-1.13.79,11.67,11.67,0,0,0-1.36,1.62c-.1.15.08.49.14.74.23-.06.55-.06.68-.21.69-.86,1.34-1.76,2-2.65ZM236,128.74c.43-1.53,1.29-3,.94-4.65C236.13,125.56,235.33,127,236,128.74Zm-91.73-4.54,1-.56-.52,2.12c.77-.19,1.7.32,1.92-.94.15-.85-.32-1.11-1-1.35s-1.23,0-1.42.74Zm93.83-6.34c-.42,2-.79,3.69-1.19,5.56C238.21,122.38,238.81,119.8,238.06,117.86Zm13.15.82c-1.61,1.07-2.07,3-3.2,4.5a21.53,21.53,0,0,0,2.79-2.86,12.89,12.89,0,0,0,.83-1.33ZM19.2,231.62l1.62,1.25.95-2.62-.37-.31-2.21,1.7ZM3.37,223l-.73,5.84.39.05,1-5.8ZM331,1.44c-.26-.53-.49-1-.72-1.44L330,0,329,3.19l1.73-.26C329.73,2.07,330.17,1.68,331,1.44Zm-117,156-1.19,3.73C214.42,160.9,214.86,159.48,214,157.48ZM73.47,181.86a3.11,3.11,0,0,0,0,4ZM300,189c-.44-1.32-.87-2.65-1.31-4l-.5.16c.32,1.36.09,2.9,1.47,3.93ZM329.59,8l-1.37-.5c-.4.66-.75,1.21-1.09,1.76C327.89,8.77,329.69,10,329.59,8ZM6.79,205.48l.47-4.93-.54-.05-.48,4.92Zm82.26,5-.22,2.34c.6-.53,1.27-.85,1.42-1.33a7.06,7.06,0,0,0,.06-2.14L89,210.53Zm106.29-67v2.68C197.13,146,197.13,146,195.34,143.51ZM73.1,193.63c1.22-1.31,1.13-2.68-.15-3.23Zm301-76.75,3.7-.88C375.63,115.52,374.68,115.73,374.08,116.88ZM20.2,161.08c0,.16.29.28.44.42a5.84,5.84,0,0,0,.46-.54c-.71-.74.71-1,.37-1.42s-.94-.44-1.43-.63c0,0-.06,0-.08.05C20,159.67,20.08,160.38,20.2,161.08Zm54.89,55.31c-.09-1.45-.19-2.91-.29-4.37l-.45,0,.23,4.38ZM2.38,267.16l.31-.06c0-.17.09-.35.14-.52l-.24-1.51c-.12-.72-.48-1-1.15-.59ZM355.29,99l2.24-3.31A3.3,3.3,0,0,0,355.29,99Zm-219.81,31.1-1,1.58.14.31,2.06-.57Zm77.4,28.82c.09-1.3.18-2.56.28-3.79C212.2,156.8,212,158.46,212.88,158.91Zm-119.3,41.8-1.2,3.07.43.17,1.31-3Zm27.61-56.37,2.75-3.49-.36-.25c-.79,1.25-2.18,2.09-2.37,3.76Zm229.75-40.6c.55,0,1.38-1.28,1.3-1.86l-2,1.45C350.4,103.44,350.67,103.74,350.94,103.74Zm-247.86,76.5,1.53-3.55-.31-.15c-.58,1.15-1.16,2.3-1.73,3.45Zm8.19-18.79L109.68,165l.36.17c.54-1.16,1.09-2.31,1.64-3.47Zm258.56-44c.28,0,.65.22.82.1.8-.54,1.54-1.17,2.3-1.77v0l-3.12,1.67Zm27.6,7.06c0-1.75-.58-2.59-1.61-2.46C396.31,122.83,396.8,123.58,397.43,124.53Zm-93.07,71.66-1.4-3.27-.39.16,1.36,3.28Zm9.31-24.74c.35-1.29-.38-2.2-.94-3.17l-.44.17,1.39,3ZM9.94,185.08l.74-3.55-.45-.09L9.58,185ZM116.2,156.69l-1,2.51,1.43-.49c-.07-.22-.13-.43-.2-.64Zm-10.44,17.63,1.06-2.44-.37-.17-1.2,2.33ZM76.5,142.7c1.22.45,1.32.38,1.37-1.1l-1.53.71ZM373,115.8l3.14-.73-.12-.4c-1,.34-2.26,0-3,1.15ZM15.32,168.25l.84-3.13-.5-.11L15,168.22Zm256.61,45.4-1,1.44.3.2c.42-.27.83-.53,1.29-.84l-.62-.81Zm24.87-32.92.78,2.09.48-.17c-.25-.7-.5-1.4-.74-2.1Zm-76.48-41.91.64-2.08-.37-.14-.85,2ZM301.45,194l1.56,3.52.32-.14c-.55-1.16-1.09-2.31-1.63-3.47ZM86.15,143.13l.93.07-.66-1.66-.39.13.14,1.48Zm38.32-3,1.48-1.76-.38-.3c-.48.6-1,1.21-1.43,1.82ZM98.82,188.82,97.88,191l.38.16L99.2,189ZM89,210.53c.13-.77.27-1.55.41-2.33a4.63,4.63,0,0,0-.83,1.64c0,.11-.18.29-.16.29a6.17,6.17,0,0,0,.6.39Zm127.5-66.63c-.26.82-.52,1.64-.79,2.46l.41.12.72-2.48ZM86.91,156.8v-2.39h-.29l-.14,2.36Zm177.31-51.56-1.46.27.11.61,1.45-.25Z" style="fill:none"/></clipPath></defs><title>works</title><g id="Layer_2" data-name="Layer 2"><g id="assets"><g id="works"><g style="clip-path:url(#works-clip-path)"><path class="animate" d="M28.21,118.46,7.79,273.24,84.66,138.33l1.65,107.93,60.08-141,34.37,17.62L144,148.56l-8.43,48.11,12.77,32.62,34-51,10.18-45.79s45.95-26.85,44.45-24.91S205,220.43,205,220.43l51.69-104.12,18.15-12.44L342.24-5.41,270.7,211.41s40.93-10.39,40.42-13.07-8.82-44.05-8.82-44.05L353.19,92S407,78.5,403.41,79s-29.73,23.78-29.73,23.78l-17.27,20,6.25,10.74s16.3-12.19,18.58-14.15,11,9.57,11,9.57l-.83,35.41-13,21.17-36,2.65" transform="translate(7.21 20.41)" style="fill:none;stroke:#f93;stroke-linecap:round;stroke-linejoin:round;stroke-width:30px"/></g></g></g></g></svg>