<svg id="layer" xmlns="http://www.w3.org/2000/svg" xmlns:xlink="http://www.w3.org/1999/xlink" viewBox="0 0 800.94 428.19">
  <defs>
    <clipPath id="clip-path">
      <path d="M132.62,222.65a9.89,9.89,0,0,0-2.6,5.49c-2.15,10.86-4.27,21.73-6.56,32.56-1.75,8.29-3.67,16.55-5.67,24.79s-4,16.47-6.35,24.62c-3.34,11.7-6.63,23.44-10.55,34.95-3,8.72-5.92,17.51-10.59,25.57-1.9,3.29-3.34,6.83-5.12,10.19a34.91,34.91,0,0,1-2.76,3.95l.39-1.74-.52-.23-1.56,2.35.47.39c.43-.29.86-.58,1.3-.86L80,388.27a7.76,7.76,0,0,0-.46-.91,3.5,3.5,0,0,0-1.87,4.41,2.77,2.77,0,0,0-3.14,1.17,14.94,14.94,0,0,1-5.39,4.49c-1.91,1-3.21,3.16-4.84,4.74a64.07,64.07,0,0,1-12.77,9.43A26.17,26.17,0,0,1,41.8,415c-2.51.34-5.06,1.09-7.52.85a28.63,28.63,0,0,1-8.75-2.37A25.23,25.23,0,0,1,11.6,398.26a62.87,62.87,0,0,1-3.91-27.83C8,363.11,9.9,356,12.18,349.13a107.73,107.73,0,0,1,7.3-16.66A192,192,0,0,1,35.9,306.22a241.06,241.06,0,0,1,28.58-31.33c8.14-7.53,16.65-14.67,25.12-21.84,5-4.21,10.18-8.14,15.29-12.2,1.19-.95,2.33-1.95,3.54-2.88.68-.51,1.53-1.38,2.17-1.28,2.46.4,3.23-1.7,4.77-2.69,3-1.92,3.14-5,3.8-7.88Q122,213.57,124.78,201c1-4.45,1.82-8.93,2.86-13.37.9-3.79,2-7.53,3-11.3a22.06,22.06,0,0,0,.29-2.43l-2.37,2.1a3.16,3.16,0,0,1,.23-1,72.57,72.57,0,0,0,3.84-6.76c1.12-2.57,1.69-5.38,2.65-8,1.14-3.14,2.46-6.22,3.65-9.35a12.4,12.4,0,0,0,.87-3.11,7.88,7.88,0,0,1,3.43-6c.09.49.17,1,.36,2.13l1.5-2.76-.53-.37-1.4,1.09a31.35,31.35,0,0,1,6-12l-3.82,8.94.67.31a35.48,35.48,0,0,0,4.15-8.45,7.9,7.9,0,0,0-1.09-.72l4.19-9.72.49.19.36,2c1.22-2.08,3.22-3.29,2.2-5.85a2.46,2.46,0,0,1,.27-1.8,32.09,32.09,0,0,1,2.46-3.84c.27-.36,1-.39,1.42-.66a5.64,5.64,0,0,0,1.74-1.2c1.12-1.47,2.09-3,3.14-4.56s2.41-2.27,3.66-1.77,2,2.61,1.48,4.45l-.18.62-.37-2.17c-2.83,5-6.17,13.59-6.24,16.14a10.47,10.47,0,0,0,1.24-1.65c1.83-4.12,3.63-8.26,5.43-12.4-1.71,6-3.13,12.19-5.27,18.07a46.4,46.4,0,0,0-2.66,8.38,16.07,16.07,0,0,1-1,2.77l.41-3.38-.56-.21c-1,1.9-2,3.76-2.93,5.7-1.24,2.64-2.53,5.27-3.51,8-1.83,5.09-3.42,10.26-5.16,15.37-.87,2.56-1.9,5.06-2.75,7.62-3.22,9.75-6.59,19.45-9.53,29.28-2.05,6.84-3.53,13.86-5.2,20.81-.21.88-.61,2,.54,2.63ZM28.93,407.18a7,7,0,0,0-.8,1,20.71,20.71,0,0,0,2.92,3c1.65,1.19,3.47,2.15,5,3.09,1.53-.17,2.92-.38,4.32-.48,3.49-.25,7-.54,10-2.56,1.32-.89,2.35-2.23,3.69-3.07,6.31-4,10.89-9.63,15.32-15.41,2.51-3.26,4.58-6.85,6.85-10.3,1.68-2.54,3.78-4.9,5-7.65,4.36-10.19,8.83-20.38,12.49-30.83,3.23-9.21,5.52-18.76,8-28.2,1.94-7.23,3.63-14.52,5.38-21.79.14-.56.12-1.56-.19-1.76-1.11-.67-.61-1.48-.44-2.28,1-4.52,2-9,3-13.79l1,2c.86-3.61,1.59-6.59,1.52-9.73l-.93,1.61c.66-5.29,1.69-10.47,2.83-15.63a5.25,5.25,0,0,1,1.38-2c1-1.18,1.85-4,1-4.35-1.45-.62-.9-1.48-.83-2.25.16-2,.47-4,.79-6.57a29.13,29.13,0,0,0-2.58,1.67c-6.27,5.37-12.59,10.7-18.77,16.18C91.1,260.39,87.58,264,84,267.44c-.35.34-.42,1-.77,1.79,3-1.14,4.17-4.17,7.12-4.52-3.85,4-8.06,7.51-11.86,11.45-5.79,6-11.45,12.19-16.88,18.54-3.87,4.53-7.33,9.41-10.86,14.22-2.7,3.67-5.4,7.36-7.77,11.25-3.78,6.2-7.57,12.43-10.81,18.92a98,98,0,0,0-5.28,14.3c-1.18,3.77-1.85,7.7-2.82,11.55-.36,1.44-1.31,2.85-1.29,4.27.12,7.94.13,15.94,2.19,23.66,1.73,6.46,4.35,12.58,10.78,16,.47.25.72.93,1.08,1.41-1,.35-2.15.39-2.48-.1-1-1.53-2.68-1.76-4.16-2.39-.49-1.92-.57-2-3.09-2.57ZM157.48,135.85c1.74-1.85,4.72-8.7,4.64-10.65C160,127,157.41,132.91,157.48,135.85ZM69.38,281.6c4.78-2.67,5.13-3,5.23-5.3C72,277.4,71.08,279.93,69.38,281.6Zm6.42-7,.47.62a6.07,6.07,0,0,0,4.6-4.57Zm49.27-68.48a7.28,7.28,0,0,0-1.46,6.62ZM30.8,333.45c-2.3,1.91-2.3,1.91-2.39,4.23C30.27,337,31.07,335.81,30.8,333.45Zm89.51-108.57.68.17.47-2-.63-.15ZM66,275.6l-.67-.51-.89,1.4c.17.1.47.33.5.3A13.25,13.25,0,0,0,66,275.6ZM22.74,353l-.6-.12-.37,1.93.49.1ZM58,293.76c.23.17.5.4.53.37a5,5,0,0,0,.54-.68c-.15-.11-.39-.34-.45-.31A4.54,4.54,0,0,0,58,293.76ZM598.59,81.6c-2.36-.8-4.16.45-5.8,1.79s-3.24,3.13-4.91,4.65c-.78.7-1.74,1.21-2.57,1.87-.56.44-1.48,1-1.49,1.47,0,2.18-1.45,2.66-3.27,2.81-.47,1.73-.9,3.37-1.34,5l.11-.15a4.11,4.11,0,0,0-3.19,3.54c-4.29,1-4.29,1-5.17,4.92-3.54,1.57-6.51,3.66-7.16,8l-3.45,1.43c.14-.69.29-1.38.43-2.06l-.5-.25-1.4,2,1.56.29a85.27,85.27,0,0,1-4.38,8.7c-1.64,2.52-4,4.52-5.83,7a69.11,69.11,0,0,0-5.94,9.3c-4.23,8.45-8.59,16.83-13.61,24.84a24.64,24.64,0,0,0-1.43,2.92c-1.09,2.43-1.08,2.44-4,2.71.53-5.48,3.45-10.14,5.54-15.78-1,.54-1.81.69-2.08,1.15-.94,1.59-1.66,3.3-2.52,4.93-.52,1-1.17,1.89-1.75,2.84l-.59-.28q2.25-6.78,4.51-13.55l-.61-.23c-.38.73-.79,1.44-1.14,2.17a3.74,3.74,0,0,1-1.38,1.87c1.9-4.79,3.7-9.61,5.7-14.36,5.29-12.54,10.49-25.14,16.07-37.5,4.27-9.51,9-18.81,13.65-28.17a11,11,0,0,1,1.83-2.19V73.2c-2.75,5.79-5.54,11.55-8.26,17.36-1.51,3.24-2.91,6.53-4.36,9.81-1.6,2.78-3.35,5.5-3.68,8.82a15.7,15.7,0,0,0-1.83,2.61c-1.33,2.94-2.56,5.94-3.75,9a8.09,8.09,0,0,0-.24,2.19,14.81,14.81,0,0,0-1.84,2.54c-2.7,6.16-5.32,12.35-7.94,18.54a18.09,18.09,0,0,0-.56,2.63,9.47,9.47,0,0,0,1-1.27c2.71-6.16,5.43-12.3,8.07-18.49a29.06,29.06,0,0,0,1.16-4,42.56,42.56,0,0,0,5.83-13.75c2.15-2.56,3.7-5.37,3.68-8.83a9.39,9.39,0,0,0,1.93-2c1.35-2.61,2.43-5.35,3.82-7.93,1-1.8,2.37-3.36,3.36-5.15,2.73-4.94,5.45-9.89,8-14.94C572,60,577,49.61,582.17,39.34c2.45-4.85,5.3-9.49,8-14.22a3.64,3.64,0,0,1,2.09-1.72,5.7,5.7,0,0,0,2.57-3.12c1.73-4.22,5-7.36,7.56-11a5.18,5.18,0,0,1,.94-.67,7,7,0,0,1-.14,1.51c-3.29,8.13-6.37,16.43-9.86,24.43-2.28,5.27-5.2,10.26-7.73,15.43-1,2-1.72,4.21-2.56,6.33a28.21,28.21,0,0,1-1.81,4.5c-2.86,4.67-4.66,9.79-6.72,14.81-1.88,4.62-4.2,9-6.35,13.56-1.55,3.23-3.15,6.44-4.67,9.68-.58,1.24-1,2.54-1.49,3.82l.67.45c1.78-2,3.63-3.85,5.34-5.86,3.57-4.2,6.75-8.75,11.37-12,1.11-.77,1.73-2.24,2.83-3,3.7-2.66,7.49-5.21,11.31-7.71a6.09,6.09,0,0,1,4.92-.89,77.5,77.5,0,0,0,9,.91,48.18,48.18,0,0,1,.74,5.74,39.05,39.05,0,0,1-.48,7c-.45,2.59-1.27,5.12-1.6,7.8,2.73-1.82,1.58-6,4.52-7.22.19-2.74.36-5.27.57-8.49.53,1.73.46,3.46,2.71,2.71a47.47,47.47,0,0,1-1,6.15c-1.65,5.28-3.09,10.64-6.11,15.39a33.59,33.59,0,0,0-2.3,5.34c-.7,1.71-1.32,3.45-2.07,5.13q-3.7,8.31-7.49,16.58C593,135,591,139.24,589.16,143.5c-2.54,5.75-5,11.52-7.53,17.34a5.55,5.55,0,0,0-5.26,2.73,2.17,2.17,0,0,1-2.93.9,1.18,1.18,0,0,1-.19-.11,2.28,2.28,0,0,1-1.26-3v0h0c1.44-5,2.65-10.1,4.35-15,2.59-7.5,5.5-14.89,8.32-22.31.69-1.83,1.46-3.63,2.32-5.38,4.57-9.26,9.22-18.47,13.72-27.76a50.19,50.19,0,0,0,4.15-11l-2,.37c.91-.88,2.62-1.27,2-3.45C601.82,77.4,599.37,78.28,598.59,81.6ZM541.4,132.31a73,73,0,0,0,7.29-16.49c-2.93,5.22-5.72,10.56-7.29,16.44Zm17.13-36.57-.66-.37c-1.45,1.25-1.85,3.19-2.7,4.8s-1.43,3.38-2.26,5c-1.84,3.59-1.86,3.58-1.58,5.46Zm42,7.61c-.5,1.67-.1,2.8,1.14,3.49a1.9,1.9,0,0,0,1.73-.19,3.18,3.18,0,0,0,.73-3.85c-1.13,2.2-2.4,1.2-3.65.55Zm-16.06,49.77c-2.8,2.08-2.8,2.08-2.47,5.3,1-2.09,1.71-3.7,2.46-5.3Zm-19.8-72.88c2.36-1.09,2.36-1.09,2.22-3.53C566,78.09,565.34,79.16,564.67,80.24Zm-5.19,11.28,1,.48,1.65-3.77-.73-.34C560.76,89.1,560.11,90.31,559.48,91.52Zm-28.11,62,.8.34c.23-.55.47-1.09.7-1.64-.29-.08-.78-.28-.82-.22a12.61,12.61,0,0,0-.71,1.54ZM66.69,182.11c2.57-2.61,2.76-6.31,4.27-9.41,1.17-2.39,2.05-4.92,3.34-8.08l1,4,2.1-3.33-2.12-1.95c7.15-19.64,19.59-36.36,30.37-54.08,1,.31,1.52,1,1.06,1.91a17.09,17.09,0,0,0-1.51,4.63c-.57,2.68-2,5.19-3.23,7.72-.26.54-1,.82-1.41,1.32-1.19,1.5-2.36,2.87-2.45,5.1-.06,1.56-1.21,3.19-2.17,4.58-4.8,7-7.85,14.89-11.22,22.63-1.41,3.23-2.61,6.58-4.89,9.48-1.39,1.75-1.8,4.3-2.54,6.52-2,6-4.13,11.88-5.83,17.92-1.4,5-2.23,10.16-3.33,15.24-.48,2.22-1.09,4.41-1.47,6.65-.91,5.33-1.77,10.67-1.19,16.12a15.15,15.15,0,0,1,0,2.52c-.17,2.41,1.41,3.85,3.79,3.35a27.67,27.67,0,0,0,4.11-1A9.06,9.06,0,0,0,76,232.21c1.41-1.24,2.64-2.8,4.77-2.19l1.49-3.21,2,2.91c-3.12,1.88-5.72,4.37-9.28,5.45-1.45.44-2.67,1.54-4.33,1.94-7.44,1.79-16.11-4-18.31-9.83a45.19,45.19,0,0,1-2.82-21.13,121.31,121.31,0,0,1,8.35-32.77,259.16,259.16,0,0,1,22.42-42.69c3.78-5.82,8.3-11.16,12.58-16.65.59-.76,1.73-1.09,2.72-1.68.8-4.1,4-6.21,7.36-8.27,1.21,3.25.89,5.1-1.7,6.89a4.84,4.84,0,0,0-2.35,3.75c-.31,1.9-1.7,3.73-2.92,5.36q-2.6,3.5-4.83,7.24C89.63,129.81,89,133,86,134.66c-.85.47-1.2,2.15-1.47,3.34-1,4.72-3.58,8.77-5.72,13-2,4.05-4.48,7.91-6.33,12-1.62,3.64-2.49,7.6-4,11.28a16.62,16.62,0,0,0-1.63,7.88c-2.48,2.84-4.12,8.1-3,11C64.86,189.12,65.78,185.6,66.69,182.11ZM62.38,232a5.84,5.84,0,0,0,0-1.67c-2.23-6.88-2-13.93-1.32-21,.42-4.42,1.42-8.74,2-13.17a15.33,15.33,0,0,0-.15-2.34c-.69,1.1-1.13,1.51-1.2,2-.72,5.08-2.5,10-2.45,15.18a2,2,0,0,1-.27,1.23c-1.41,1.41-.87,3-.62,4.61a4.58,4.58,0,0,1,0,1.88c-1,3.64.37,7.08.93,10.57A3,3,0,0,0,62.38,232Zm202.86-89.48c1.68,4,.82,7.38-.7,10.88-2.19,5-4.09,10.16-6.06,15.27-.51,1.31-.77,2.72-1.22,4.05-1.17,3.5-2.58,6.93-3.53,10.48-1.69,6.35-4.45,12.4-5.22,19-.89,7.66-3,15.16-2.83,23,0,1.27.23,2.89-1.73,2.87-1.64,0-2.13-1.49-2.27-2.75-.37-3.24-.59-6.49-.75-9.75a37.41,37.41,0,0,0-.55-6.68l-9.74,15.9c-1.16.1-2.34-.14-2.64.27-2.13,3-5.73,3.42-8.56,5.17-1,.65-2.27.57-3,2.24-.59,1.31-3.11.82-4.83.25a13.31,13.31,0,0,0-3.73-.91c-2,0-3.17-1-4.31-2.49-4.5-5.73-4.9-12.37-4.26-19.2,1.3-13.74,7.11-25.88,13.46-37.84,4.1-7.76,9.73-14.41,15-21.33a11.14,11.14,0,0,1,1.58-1.64c.56-.48,1.21-.85,2.26-1.57a13.74,13.74,0,0,1-.35,2.47A79.12,79.12,0,0,1,224.48,164c-1.67,2.79-3.08,5.72-4.6,8.59q-1.53,2.88-3,5.76a8.15,8.15,0,0,0-.59,1.51c-1.55,5.89-4,11.43-6.31,17-1.31,3.17-1.82,6.66-2.75,10-1.51,5.36-.94,10.77-.49,16.18.1,1.18,0,2.36,1.43,3,1.28-.93.84-2.1.78-3.26-.29-5.44-.81-10.92.52-16.27a104.32,104.32,0,0,1,4.49-15c3.65-8.71,7.75-17.25,11.9-25.75,1.65-3.4,3.94-6.49,6-9.89l1.65.88c-1,2.48-1.91,4.82-2.85,7.15-2.41,5.93-4.9,11.82-7.21,17.78-2.48,6.38-4.93,12.77-7.15,19.24a50.21,50.21,0,0,0-2.68,23.24c.38,2.79,1.13,3.14,3.64,1.75a18.31,18.31,0,0,0,7.4-7.17q2.66-4.87,5.26-9.77c1.84-3.46,3.7-6.91,5.43-10.42,3.07-6.23,6-12.51,9.07-18.76.33-.69.59-1.65,1.16-1.93,2.13-1,1.94-3.11,2.58-4.87a50.41,50.41,0,0,1,2.67-5.48c.48-1,1-1.9,1.43-2.87,1.06-2.37,2-4.78,3.13-7.12.92-1.92,2-3.74,2.78-5.74,1.32-3.24,3.82-6,5.87-8.94a4.16,4.16,0,0,1,1.2-.36ZM237,203.26a3.75,3.75,0,0,1,.4,4.91c-1.63,2.7-1.82,2.78-1.86,5.84l6-10.59a4.73,4.73,0,0,0,.46-1.2c.38-1.88.75-3.76,1.07-5.65a17.81,17.81,0,0,0,0-2.31c-2.5,3.26-2.72,7.06-6.07,9Zm7-11.11c-.44-.3-.69-.59-.86-.55a.94.94,0,0,0-.61.57c0,.17.25.44.39.66Zm147.41-23c2.85,2.41,1.44,4.89.48,7.38-.54,1.41-.9,2.88-1.47,4.27a2.54,2.54,0,0,1-1.2,1.4c-1.72.62-2.25,2-3.11,3.46a21,21,0,0,0-2.2,6.72c-.64,2.84-1.72,5.57-2.61,8.36a10.59,10.59,0,0,0-.55,1.82c-.12,1.15-.26,2-1.76,2.26-.7.13-1.24,1.35-1.77,2.14-1.2,1.82-2.46,3.54-5.22,3.93,0-.94.05-1.63,0-2.31-.14-1.51,1.63-3.16-.5-4.64-.41-.28.14-2.05.37-3.1.65-3,1.35-5.88,2.05-8.81,1.19-5,2.05-10,4.58-14.54,1.1-2,1.22-4.55,1.77-6.86a8.63,8.63,0,0,1,.3-1.58c2.93-6.7,3.84-14,6.11-20.86,1.23-3.69,2.94-7.25,4-11,.75-2.77,2.57-5,3.1-8,.56-3.17,2.64-6.07,4.25-9.52l1.06,2.43c4.2-.55,3-5.29,5.65-6.89-.23,3.49-.57,7-.6,10.5,0,1,.89,2,1.42,3-.17,2.14-.36,4.49-.6,7.4a14.06,14.06,0,0,0,1.85-1.6c3.06-4.08,6-8.25,9.17-12.27a25.06,25.06,0,0,1,3.58-3.17c.25-.21.58-.34.75-.59,3.83-5.78,9.53-9,15.72-11.58a18.7,18.7,0,0,1,3.4-.64c1.27-.26,2.8-.2,3.73-.91,2.32-1.81,5-.7,7.45-1.34.29-.07.71.35,1.52.78-7.47,3.67-15.55,5.22-21.65,10.67l17.29-7,.25.55-8.53,4.16c-2,1-3.87,2-5.87,2.81-1.44.6-2.66,1.74-4.56,1.32-.77-.18-2,.81-2.73,1.53-1.74,1.63-3.36,3.38-5,5.14-6.55,7.17-11.58,15.42-16.75,23.58-3.73,5.91-6.29,12.34-8.81,18.77-.87,2.14-2.68,1.8-4.35,2.75Zm7-28c.51.35.86.76,1.07.7a1.19,1.19,0,0,0,.72-.81c0-.28-.35-.61-.56-.91Zm35.23,47.61-1.19.16c.3,1.15,1.08,1.44,2,1.69,4,1,8,.63,11.93,0,4.83-.69,8.4-3.82,12.31-6.28,1.94-1.22,3.1-3.7,5.91-3.52.38,0,.88-.6,1.19-1,3.89-5.36,7.85-10.68,11.59-16.15,1.26-1.85,1.94-4.11,3-6.15a15.93,15.93,0,0,1,1.35-2l.63.35c-1.43,3.23-2.71,6.55-4.33,9.69a63.67,63.67,0,0,1-4.9,8.06c-6.88,9.6-15.55,17.07-26.92,20.71-7.39,2.35-14.77,2-21.65-2.32-2.13-1.33-3.34-3.33-4.9-5.12-2.75-3.16-2.45-6.92-1.84-10.34,1.06-5.85,2.91-11.57,4.52-17.32.37-1.32,1.15-2.53,1.64-3.82,1.2-3.16,2.17-6.41,4.22-9.2s3.8-5.59,5.8-8.25,4.35-5.13,6.53-7.66c.86.37,1.84,1.18,2.36,1,1.63-.71.12-2.06.26-3.58l10.54-8.28-.07-.07-3.34,4.13c3.47-.44,4.92-3.63,7.62-5s5.55-3,8.82-4.7c-.49.83-.7,1.17-1.07,1.78a44.62,44.62,0,0,0,5.16-.51c1.54-.32,2.92,2,4.64-.3.78,6.25,1.37,12-1.78,17.39-1.52,2.62-2.69,5.44-4.28,8a13.32,13.32,0,0,1-3.24,3.16,91.24,91.24,0,0,1-20.61,12.44c-1.73.76-3.51,1.62-6.16,1.15l10.2-7.35c1.41-1,2.88-1.94,4.32-2.92.36-.25.9-.48,1-.82.9-3.23,4-4.37,6.08-6.41.13-.12.1-.4.19-.81-2-.34-2.67,2.08-5.08,2.18,1.16-1,1.87-1.52,2.55-2.11,3.12-2.7,6.34-5.3,9.31-8.16a24.47,24.47,0,0,0,4.11-5.33c1.39-2.41.84-4.81-1.19-7.23a18,18,0,0,0-3,1.27c-4.29,2.76-8.52,5.61-12.76,8.43-.27.18-.61.38-.71.65-.88,2.43-3.1,3.59-4.7,5.32-2.06,2.25-4,4.19-7.2,4.65.21,3.07-1.26,5.12-3,7.15a31.36,31.36,0,0,0-3.15,4.92c-1.51,2.63-3.08,5.25-4.36,8-1.46,3.14-2.64,6.4-3.89,9.63a3.67,3.67,0,0,0-.21,1.91c0,.25.76.4,1.35.68-.16.88-.3,2-.56,3.13a10.1,10.1,0,0,0,2.79,10.08,7.6,7.6,0,0,0,6.28,2.69c3.86-.23,7.74,0,11.6,0a5.23,5.23,0,0,0,2.38-.86c2.45-1.41,4.84-2.91,7.26-4.36a1.44,1.44,0,0,1,1.16-.17c-7.45,7.33-16.58,9-26.55,7.69h3.53a3.63,3.63,0,0,0-4.64-1ZM419,176.6l1.07.18c.81-1,1-2.11-.69-3.31Zm43.83-40.32.61.66,1.68-1.84-.48-.48Zm-38,22.81,1.13.29c.06-.6.14-1.21.16-1.81a1.2,1.2,0,0,0-.53-.15,13.51,13.51,0,0,0-.81,1.67Zm-4.95,23.51-.62.19c.16.52.33,1,.49,1.56l.6-.18c-.16-.57-.35-1.09-.48-1.57Zm4.31-20.83c-.37.3-.68.44-.76.66s.1.51.17.77c.24-.16.58-.26.7-.48s-.05-.55-.11-1ZM707.48,46.32a22.23,22.23,0,0,1-2.37,2.58A20.53,20.53,0,0,0,698.17,60a7.43,7.43,0,0,1-.67,2.16c-1.76,2.68-3.29,5.42-3.37,8.74a2.62,2.62,0,0,1-.37.88c-1.41,3-3,6-4.19,9.09q-5.8,15.21-11.35,30.51c-1.5,4.15-4.47,7.77-4.43,12.52,0,1.22-.82,2.45-1.27,3.67-.93,2.56-1.79,5.14-2.84,7.65s-.64,5.16-2.14,7.48c-.52.8-.09,2.21-.09,3.32,3,.06,3.06.09,3.8-.91,1.23-1.66,2.76-3.23,3.48-5.09.89-2.33,2.37-3.07,4.7-2.91.5-1.47,1-2.78,1.39-4.13.75-2.49,1.39-5,2.21-7.5.35-1.07.72-2.29,2.43-2.1.47.06,1.57-1,1.49-1.22-.86-2,.85-3,1.29-4.53,1.09-3.59,3.27-6.92,2.88-10.91a1.23,1.23,0,0,1,.3-.88c3.56-3.44,3.35-8.92,6.76-12.44.41-3.24,2.35-5.74,4-8.4,5.1-8.4,10.3-16.68,16.82-24a63.57,63.57,0,0,1,4.71-5,11,11,0,0,1,3.37-1.84c1.49-.56,3.12-.76,4.59-1.37,2.2-.92,4.31-2,6.45-3.1,2.41-1.18,4.81-2.38,7.22-3.57l-.22-.46-14.6,5.46c5.56-4.64,12.68-6,18.85-9.62-2.31-.4-4.62-1.07-6.75,0a10.43,10.43,0,0,1-5.88,1.38,2.84,2.84,0,0,0-1.57.28c-3.88,2.1-8.77,2.67-11.08,7.19a.82.82,0,0,1-.54.3c-2.56.5-4.14,2.2-5.36,4.36a5.13,5.13,0,0,1-1.09,1.14,30,30,0,0,0-3.53,3.23c-3.09,3.93-6,8-9,12a9.5,9.5,0,0,1-1.47,1.29c1.42-4.27,3.24-8.26,2.18-12.93,1.59,0,2.3-.67,2-2.35a12,12,0,0,1,.68-7.86,9.83,9.83,0,0,0,.45-3Zm54.29,10.84c-1.37.83-2.73,1.67-4.1,2.49l-4,2.38-4.19,6.31,2.14.77c-6.08,6.71-10.48,14.29-14.46,22.25l-2.08-.62c-.16.37-.37.66-.3.75,1.73,2.41.29,4.68-.24,7-.83,3.59-1.54,7.21-2.27,10.82-.49,2.47.47,4.32,2.24,6.1,5.63,5.69,12.12,5.91,19.29,3.76a28.76,28.76,0,0,0,9.41-4.32,5.67,5.67,0,0,1,1.84-.55l-.07-.07a53.8,53.8,0,0,1-4.69,3.4c-5.23,3-10.72,5.27-17,5.13a6.54,6.54,0,0,0-2.63,1c-.77.38-1.47.88-2.12,1.28l-9.06-7.57c-.45,2,1.13,2.6,1.37,3.73-2.64-1.6-2.5-2.15-3.42-4.66-1.2-3.27-1.12-7-3.54-9.86a2.5,2.5,0,0,1,.2-2.34c1.87-2.42,1.53-5.29,1.25-7.84a11.11,11.11,0,0,1,.73-5.32,76.19,76.19,0,0,1,13.3-22.64,105.34,105.34,0,0,1,21-19.39A52.4,52.4,0,0,1,778,41c2.59-.59,5.14-.71,7.44,1.14,3.25,2.63,3.78,4.13,2.45,8.11a8.36,8.36,0,0,0-.53,5.08,5.36,5.36,0,0,1-.42,2.85c-1.64,4.76-3.66,9.32-7.57,12.75-1.06.93-2,2-3,3l.06.06c.24-1,.47-2,.76-3.21l-1.73.36.12-1.59-.57-.26-2.27,2.52.38.43L775.57,71c-3.29,3.44-7.44,5.5-11.85,7.75-.07-.9-.12-1.49-.18-2.3L754.6,79l-.33-.69c.94-.61,1.87-1.24,2.82-1.84,6.15-3.9,12.51-7.51,17.66-12.76,2.5-2.55,4.94-5.16,7.28-7.86,1.75-2,1.54-4.38.61-6.65-.8-1.06-3.07.13-3-2.1a7.63,7.63,0,0,0-2.47.28c-3.44,1.6-6.86,3.26-10.2,5.06a29.69,29.69,0,0,0-4.4,3.16c-.46.37-.63,1.11-.93,1.68Zm12.9-10.64a27.61,27.61,0,0,1,4.81.08,30.14,30.14,0,0,1,4.72,1.69,2.83,2.83,0,0,0-1.87-3.41C779.48,43.6,776.93,44.41,774.67,46.52ZM742.6,79l5.13-7.44A8.66,8.66,0,0,0,742.6,79Zm40.32-13.53-.61-.55c-.26.38-.53.77-.76,1.17a1.23,1.23,0,0,0,.39.33c.34-.32.66-.65,1-1ZM657.24,98.23,660.17,95c.43,1.93-.89,2.5-1.22,3.48,1.62-1.4,3.2-2.84,4.88-4.17a8.07,8.07,0,0,1,2-.81,1.83,1.83,0,0,1,1.24-2.25c.6,1.48-.68,1.62-1.31,2.18-1.07,2-3.72,2.91-4.43,5.89a27.49,27.49,0,0,0,10.11-14.85c.27-.94,1-2.09.65-2.8-.91-2.08,0-3.8.51-5.66,1-3.84-.18-6.5-3.58-8.47-2-1.18-4.22-.88-6.34-.44a44.79,44.79,0,0,0-15.2,6.55,90.8,90.8,0,0,0-16.74,13.47c-8.29,8.61-15.6,17.85-19.67,29.25-1,2.68-2.14,5.29-1.35,8.46a6.21,6.21,0,0,1-1,5.6,2.48,2.48,0,0,0-.07,2.39c2.1,2.37,2,5.5,2.56,8.21.59,2.95,2,4.7,4.24,6.64-.08-1.61-2.13-2-1.28-3.89,1.31,1,2.44,2,3.65,2.9a54.69,54.69,0,0,0,5.09,3.44,2.53,2.53,0,0,0,2.33-.09c1.3-1.16,2.75-1.15,4.28-1.18a27.64,27.64,0,0,0,15.11-5.25l.08.07c-2.3.63-4.58,1.27-6.88,1.88-8.79,2.36-14.1,1-19.53-5a5.88,5.88,0,0,1-1.41-3.48,22.7,22.7,0,0,1,.63-5.81c.84-3.79,1.87-7.55,2.84-11.4H618.8c.27-1,.5-1.93.77-3l2.07.56c2.28-4,4.29-8,6.69-11.77s5.1-7.07,8-11l-2.79.37c-.51,1-.95,2.12-1.55,3.1-1.23,2-2.53,4-3.84,5.94-.19.29-.62.42-1.52,1,1.3-4.6,4.19-7.24,7-10a28.66,28.66,0,0,1,6.67-7.79c1.42-1.18,2.93-2.26,4.27-3.52,4.91-4.51,10.69-7.61,16.91-10.15.94-.38,2.3-1.27,2.91,0,.84,1.8,1.93,1,3.31,1-2.13-3-5.36-1.52-7.81-2.71a8.1,8.1,0,0,1,3.54-1.54c3.22-.17,6.35.76,5.57,5.12-.52,2.93-1.11,6-3.89,8a19.17,19.17,0,0,0-2,2.13c-2.76,2.76-5.29,5.82-8.37,8.17-4.3,3.3-9,6-13.55,9a24,24,0,0,0-2.08,1.56l.38.68,9-2.61-1.29,3a61.39,61.39,0,0,0,11.85-7.12ZM163.15,243.66l-5.92-3.9c-1,1.41.42,1.76.76,2.56-.19,0-.43.08-.52,0-2.9-2.73-5.9-5.38-8.64-8.27-2.1-2.23-2.5-5.23-2.7-8.19-.73-10.56,1.62-20.47,6.13-30a75.86,75.86,0,0,1,15.07-21.54c2.39-2.37,4.76-4.45,8.71-4.14a9.23,9.23,0,0,1,6.21-7.14c1.21-.4,2.55-1.51,4.3.06-7.39,5.69-14.51,11.56-19.78,19.21l.48.67c.57-.27,1.32-.4,1.68-.85A68.47,68.47,0,0,1,180,171.21c2-1.55,3.85-3.17,5.86-4.65a14.49,14.49,0,0,1,2.73-1.29,2.48,2.48,0,0,1-.37,3.32,62.86,62.86,0,0,1-4.48,5.17,93.32,93.32,0,0,0-15.28,19.39,59.67,59.67,0,0,0-7.73,22.66q-.84,7.27-1.24,14.6c-.18,3.44.58,6.71,3.31,9.15C164,240.66,164.35,241.78,163.15,243.66Zm-13.36-35.21c.37-1.06.76-2.1,1.11-3.16,1.23-3.63,1.69-7.65,5.23-10.11.28-.19.38-.76.4-1.16.06-1.09,0-2.18,0-3.5-3.42,3.92-7.48,14.13-6.74,17.93Zm-.67,12.45c-2.11.2-2.69.81-1.69,2s.74,2.15.83,3.28a45.48,45.48,0,0,0,.5,4.79A8.42,8.42,0,0,0,150,233.2l.39-.25c-.39-3.95-.84-7.84-1.27-12Zm-1.57-1.78c2.22-.14,2.52-1.62,2.14-2.75-.55-1.61-.25-3.14-.36-4.71a11.49,11.49,0,0,0-.23-1.65C147.53,212.92,147.4,215.91,147.55,219.12Zm6.63-9,.74.16,3-10.13-.62-.19a24.5,24.5,0,0,0-3.12,10.13Zm4.1-12.18.75.37,4-8.16a10.92,10.92,0,0,0-4.75,7.76ZM320.4,154.87c1.83-1.83,3.75-3.57,5.47-5.5A66.11,66.11,0,0,1,342,136.73c1.67-1,3.38-1.87,5.23-2.89l1.25,2,4.11-.59.35.63c-1.29,1.09-2.49,2.3-3.86,3.25-6.1,4.2-12,8.66-16.89,14.25A102,102,0,0,0,317,176.1a80.72,80.72,0,0,0-5.43,15c-.43,1.67-.61,3.41-.88,5.13-.52,3.27-1.22,6.51-1.43,9.84-.23,3.55,1,6,4.27,7.21a4.75,4.75,0,0,0,2.77.08c2.45-.67,4.85-1.53,7.54-2.4-3.39,5.36-10,6.87-16.12,4l-2.1-6.14-.66.05-.57,1.37c-.07-.06-.27-.13-.29-.24-.8-4-1.82-8-2.3-12.1-.69-5.82.54-11.49,2.29-17,2.16-6.85,4.68-13.56,8.77-19.56a16.29,16.29,0,0,1,1.74-1.88l-.07-.09a12.86,12.86,0,0,1-.56,3.08c-.81,1.77-1.88,3.41-2.81,5.13-.68,1.27-1.53,2.49-1.47,4,2.48-3.57,4.77-7.22,7.06-10.86l3.75-6Zm-12.86,23.21,1.4-3.27c-2.08.79-2.08.79-1.4,3.24Zm20.38-29.66.38.58,1.1-1.05-.32-.38Zm16.56,62.64a8.92,8.92,0,0,1-.82-2.87c.23-3.56.5-7.13,1.07-10.65.81-4.91,1.91-9.77,2.88-14.65.1-.51.13-1,.28-2.27-.94.92-1.56,1.3-1.86,1.85-1.18,2.17-2.16,4.46-3.41,6.59-2.15,3.65-4.35,7.28-6.69,10.81a56.25,56.25,0,0,1-4.69,5.86A10,10,0,0,1,328,208c-.11-1.79,1-2.91,2-3.86,5-4.7,7.89-10.8,11.36-16.52.61-1,1.65-2.17.68-3.59,1.16-2.67,2.28-5.37,3.53-8,.21-.42,1-.57,1.83-1-2-1.8-1.27-3.38-.4-5.25,2.06-4.4,3.8-9,5.69-13.48l1.56,1.09c.34-1.67.68-3.1.93-4.55.22-1.28.29-2.59.52-3.87a14.56,14.56,0,0,0,.07-5.77c-.36-1.7.17-3.62.44-5.42a1.37,1.37,0,0,1,1.13-.82,1.52,1.52,0,0,1,1,1.09c.07.72-.32,1.47-.29,2.2a11.65,11.65,0,0,0,.85,2.45c.72-1.35,1.08-2,1.37-2.59,1.47-3.26,2.86-6.57,4.42-9.8a7.62,7.62,0,0,1,3.5-4,5.93,5.93,0,0,1,1,6.08c-.67,2.17-1.72,4.23-2.36,6.41-1.54,5.32-2.85,10.71-4.43,16-1.93,6.44-4.16,12.8-6.05,19.25-2.07,7.09-3.93,14.24-5.83,21.38-.79,2.94-1.29,6-2.23,8.84a66.58,66.58,0,0,1-3,6.61ZM353,159.83c-1.77,2-2,2.94-1.77,5.36.65-2,1.2-3.68,1.76-5.36ZM108.41,200.08c1-2.19,1.9-4.39,4.89-4.33-.24-.7-.75-1.42-.56-1.8,1.35-2.75,2.82-5.45,4.3-8.14.89-1.62,1.89-3.18,2.81-4.78.08-.14,0-.39,0-.59l-2.21.74a4.47,4.47,0,0,1,3.15-4c2.46-1,3.46-2.88,4.6-4.78,3-4.93,5.94-9.87,8.73-14.91a61.77,61.77,0,0,0,3.09-7.14c.47-1.19.17-2.15-1.68-2.38L134,151.35l1.58,1c-.25.4-.49,1.06-.68,1-2.22-.18-2.93,1.63-3.9,3s-1.78,3-2.68,4.47c-3.55,5.86-7,11.77-10.67,17.56q-7.22,11.46-14.69,22.75c-2.45,3.7-5.09,7.3-7.82,10.82-3.72,4.78-7.59,9.45-11.25,14L86,228.6c4.27-2.59,7.11-6.28,10-10a1.71,1.71,0,0,0,.28-1.24,2.12,2.12,0,0,1,1.54-2.56l.32-.05c3-.43,3.9-2.43,4.88-4.93s1.15-5.75,5.07-6.1c-.89-.89-2-1.55-.75-2.66.4-.36.78-.76,1.17-1.13Zm160.07-53.22c-.54,1.56-1,2.86-1.45,4.15-4.3,11.49-8.19,23.11-11.57,34.91-3,10.35-6,20.66-7.15,31.4a45.32,45.32,0,0,0,0,12.09,31.6,31.6,0,0,0,1.78-4.15c1.18-4.49,2.22-9,3.34-13.52s1.93-9.16,3.52-13.52.89-9.53,4-13.52a3,3,0,0,0,.34-1.25c.48-2.55,1-5.09,1.39-7.66a39.46,39.46,0,0,0,.18-4.07c0-.28,0-.68.19-.83,2.37-2,2.18-5.08,3.17-7.64.58-1.5.48-3.26.75-5.39C270.15,154.6,270.72,151.6,268.48,146.86Zm88.38,33.36,1,.89-1,1.55c-.16-.34-.33-.68-.49-1-1.1,3.74-2.2,7.48-3.27,11.23a2.73,2.73,0,0,0,0,1.27,6.3,6.3,0,0,1-2.44,6.89c1.8,2.58-.4,4.92-.31,7.49a34.47,34.47,0,0,0,3-6.78c3.53-12.89,8.7-25.23,12.79-37.93,1.58-4.89,4.4-9.49,4.09-14.91,2-2.9,1.77-6.37,2.4-9.63a9.46,9.46,0,0,0-.85-6.21c-1.93,2.87-2.62,5.84-3.49,8.73-1.62,5.41-3.16,10.84-4.79,16.26q-3.56,11.85-7.18,23.68Zm-164.81-14a5.7,5.7,0,0,0-.22,1.59c-.1,9.12-.29,18.23-2.37,27.18-.63,2.69-1.12,5.37-2.67,7.76a17.73,17.73,0,0,0-1.63,3.54,103.27,103.27,0,0,1-10.63,20.83c-2.54,3.88-5.2,7.7-7.81,11.54a20.75,20.75,0,0,0,6.19-6.36c6.47-9.66,12.51-19.57,16.61-30.52,1.3-3.45,3.15-6.84,3.64-10.41a196.27,196.27,0,0,0,1.36-20.13c.06-1.92,0-4.13-1.66-6.07-.38.51-.69.74-.77,1Zm145.78-30c-6,3.83-11.86,7.92-16.37,13.58-2.47,3.09-5.75,5.62-6.91,9.65l-.07-.09a9.66,9.66,0,0,0,4.3-3.57c.35-.49,1.1-.68,1.67-1l-.09.1c2.35-3.2,4.66-6.43,7.07-9.58,1.57-2,3.86-3.22,5.94-4.66,1.71-1.19,4-2,4.41-4.48ZM567.48,63.07c3.78-3.64,4.9-8.85,7.73-13.09,2.25-3.35,3.66-7.29,5.31-11a19.5,19.5,0,0,0,.87-3.68l.07.07a18.18,18.18,0,0,0-1.89,2.56q-3.54,7-6.93,14c-1.77,3.72-3.41,7.49-5.11,11.24ZM150.29,170.27c-1.6-.2-2,.85-2.36,2.11-1.57,5.51-3.22,11-4.8,16.52-.8,2.8-1.51,5.62-2.28,8.48h1.46c1.54-5.85,3-11.65,4.61-17.38.94-3.3,2.21-6.5,3.33-9.75ZM644.63,143.6a23.6,23.6,0,0,0,9.86-7c-2.84,1.68-5.57,3.53-8.25,5.44a10.33,10.33,0,0,0-1.53,1.64ZM112.06,201.79c1.88-1.74,3.65-4.66,3.71-6.95l-4.39,6.56Zm38.18-31.55c.31-1.37.59-2.74,1-4.08.48-1.7,1-3.39,1.59-5.09l-.56-.19-3.45,7.18,1.49,2.21ZM757.07,62.47l.42.39,7.2-6.27-.17-.4-2.88,1.1.13-.13ZM649.9,82.23c-2.56.68-6.82,4.09-7.62,6.67l7.55-6.74ZM453.64,119.36c3.73-1.07,6.52-3.67,9.54-5.89a32,32,0,0,0-9.47,6A1.05,1.05,0,0,0,453.64,119.36ZM581.38,35.28c2.46-2.32,3.74-5.35,5.09-8.32a20.85,20.85,0,0,0-5,8.39ZM385.66,194.34c-.51,2-1,4-1.52,6,1-1.88,2.8-3.49,2.38-5.78ZM683.85,129.1c-.51,2.26-1,4.51-1.62,7.1,2.75-2.29,2.08-4.74,1.56-7.18ZM567.53,63.15c-1.87,3.28-4.25,6.31-5,10.13V73.2l5-10.13Zm82.3,19L655.5,79l-.38-.59c-2.35.39-3.89,2-5.22,3.86ZM765,114.24a6.26,6.26,0,0,0,4.7-4.4l-4.63,4.47ZM387.56,188.07c.48-1.23,2.26-2,.93-4.57-.7,1.82-1.16,3-1.62,4.24ZM770.72,52.83c-1.88-.42-3,.47-3.49,2.27ZM132.62,222.65a3.45,3.45,0,0,0,3-2.19c-2-.22-2.17,1.36-2.89,2.26Zm6.72-18.12.51-2.89-.75-.11-.38,2.91Zm490-52.63h3.14v-.14h-3.13Zm8.36-58.55,1.67-1.85-.37-.32-1.79,1.58ZM747.36,125.6h-3v.15h3.12ZM108.48,200l1.41,1c.2-.41.39-.82.81-1.73l-2.3.86Zm229.34-63.86c1.84.31,1.84.31,2.67-1.25l-2.63,1.3Zm415.93-70.3L752.52,67c.21.21.41.43.62.65l1.21-1.14Zm-173,33-.35-.41-1.17.76.11-.15-1,2.23Zm-426.7,58.68c.2-.53.39-1.06.58-1.59l-.41-.18-.84,1.48Zm524.06-17.67c-.14.13-.41.28-.39.39a2.65,2.65,0,0,0,.31.76l.5-.47ZM571.7,109.5l1.19-1.41-.37-.33L571.26,109ZM386.31,192c0,.24.38.42.59.63.18-.21.52-.43.5-.62s-.32-.47-.59-.83C386.58,191.52,386.27,191.78,386.31,192Zm-267.2-.2c0-.09-.33-.3-.51-.46a3.84,3.84,0,0,0-.42.77c0,.09.22.27.4.47A3.46,3.46,0,0,0,119.11,191.8Zm39.32-45,.29-1.31-.49-.09c-.13.42-.22.85-.32,1.28ZM660.25,76.42l1.55-.85-.14-.26L660,76ZM776.48,74c-1.46,0-1.46,0-1.91,1.21L776.42,74ZM576.84,104.19l1.26-2.73-2,1ZM600.07,82.1a8.14,8.14,0,0,0,1.86-1.21l-3.31.67C599.11,81.76,599.68,82.22,600.07,82.1Zm65,67.62,1.17-.09v-.33h-1.18ZM683.77,129l1.3-.16c-.06-.19-.13-.38-.19-.56l-1,.79-.09-.07Zm-25.4,4.33a1.87,1.87,0,0,0-.48.26l.16.4.48-.26ZM137.05,210.49l-.18,1.28.35.06.26-1.23ZM354.4,150.23l-.1-1.4h-.37l-.09,1.44ZM79.85,388.36l-2,3.37Zm32.08-143.94a183.51,183.51,0,0,0-18,15.77l.59.68,18.21-15.66Zm-6.56,52.25c.15-.71.31-1.41.46-2.12l-.39-.08c-.2.68-.39,1.37-.58,2Zm-1.49,5.93.58-2.09h-.17l-.73,2Z" style="fill: none"/>
    </clipPath>
  </defs>
  <g style="clip-path: url(#clip-path)">
    <path d="M109.56,99.81s-34.5,47.28-43.55,71-3.65,59.49-3.65,59.49l36-32,67-93.74L116.18,239.1l-10.81,57.57L81.19,374.72,45.3,414.19,21.77,406.6,14,378.5l4.39-25.61L36,321.43,66,275.6,194.57,160.88l-40.39,49.21L148.76,231l14,8.56,31.72-64.78L232,156l-15.71,23.9s-6.06,21.79-6.81,26.7,2.12,26,2.12,26l19-7.93,35.51-78L244,233.14,340.48,132.6l-32.79,82.32,61.37-82.55-25.43,75.81,35.33-3.4,26.51-76S411,117.27,435.94,107s16.1-2.11,16.1-2.11L470.86,118l-39.8,30.33,34-13.16L423.35,173.5l2.66,17s37.51,11,56.38-33.11S598.62,14,598.62,14L525.23,172.3l73.25-98.54,3.89,24.63-26,65.24,56.11-75.74L663.4,70.43,667,91.25l-56.56,45.69,12.36,13.18L658,134l13.18,11,34.39-81.9,37.09-21.5,39.69,3.29L734.71,74.6l-8,39.76,22.68,7.86,20.3-12.33-12.6-33.4,29.85-18.33" style="fill: none;stroke: #f08a20;stroke-linecap: round;stroke-linejoin: round;stroke-width: 28px"/>
  </g>
</svg>
