<svg xmlns="http://www.w3.org/2000/svg" xmlns:xlink="http://www.w3.org/1999/xlink" viewBox="0 0 225.84 54.44"><defs><clipPath id="clip-path-zigzag" transform="translate(7 3.27)"><path id="zigzag_mask" d="M51.16,28.21c-2.54.59-5.1,1.15-7.63,1.79-2.29.58-4.58,1.22-6.84,1.92-1.4.44-2.75,1-4.14,1.56-.74.28-1.5.51-2.25.76l.11.42c2.06-.41,4.12-.84,6.18-1.23a3.68,3.68,0,0,1,.92.09,3.73,3.73,0,0,0,1.05,0c1.56-.4,3.08-.93,4.65-1.24s2.95-.37,4.43-.57c2.2-.3,4.39-.62,6.58-.94,3.5-.51,7-1,10.51-1.53,1.8-.27,3.58-.65,5.38-.91q3.73-.54,7.48-1c4.77-.57,9.54-1.16,14.32-1.62,2.63-.26,5.29-.23,7.94-.43.91-.06,2,.06,2.61-.94.07-.1.49,0,.71.05.44.16.84.56,1.26.57,1.72,0,3.44-.12,5.15-.1,2,0,4.09.23,6.14.26,1.26,0,2.53-.26,3.78-.18,3.47.19,6.94.8,10.38.68,3.8-.13,7.43.68,11.11,1.18A47.4,47.4,0,0,1,155.61,31L158,32.21c-1.2.55-2.24,1.08-3.34,1.47a1.18,1.18,0,0,1-1-.49c-.57-1.29-1.82-.92-2.77-1.26a3,3,0,0,0-1-.17,3.44,3.44,0,0,0-.75.19c.14.24.24.61.45.7,1.58.68,3.18,1.3,4.77,2a9.34,9.34,0,0,1,1,.58l-1,.09.41,1.28a3.66,3.66,0,0,1-1.36,0A50.15,50.15,0,0,0,142,33.85c-3.28-.49-6.58-.9-9.88-1.24-1.17-.12-2.38.15-3.56.07-2-.12-4-.43-6-.56-1-.07-2,.11-3,.13a11.89,11.89,0,0,1-1.44-.14,2.11,2.11,0,0,0-.55-.06c-2.48.49-4.95-.34-7.42,0-1.16.16-2.3.47-3.47.59a10,10,0,0,1-1.85-.25,3.85,3.85,0,0,0-1,.06c-.73.12-1.45.33-2.18.39a10.22,10.22,0,0,1-1.65-.1l0,.27c-.18-.13-.36-.41-.53-.39-2.14.2-4.28.45-6.42.68a6.28,6.28,0,0,1-1,0,2.85,2.85,0,0,0-1,0,11.74,11.74,0,0,1-5.17.4,5,5,0,0,0-1.73.55,2.23,2.23,0,0,1-.62.14c-.9,0-1.81-.1-2.71-.05a5,5,0,0,0-1.31.43c-.1,0-.19.14-.29.15-1.52.12-3,.19-4.55.34-2.16.22-4.31.45-6.46.75a88.12,88.12,0,0,0-9.6,1.58c-1.52.39-3.06.31-4.55.72a9.54,9.54,0,0,1-2.45.26,7.49,7.49,0,0,0-3.67,1,6,6,0,0,1-2.08.25c-1,.14-2.09.3-3.14.45a13.91,13.91,0,0,1-2.84.37c-1.53-.09-3-.18-4.25.91a1.26,1.26,0,0,1-.62.24C33,42.21,31,43,28.93,43c-4.48,0-8.52,1.9-12.82,2.58-1.57.24-3.15.77-4.72.06-.4-.18-.68-.61-1.07-.84-.69-.41-1.42-.76-2.2-1.17l.6-.34c-.08-.08-.12-.16-.18-.17-2-.58-2.47-2.08-1.27-3.72a19.54,19.54,0,0,1,2.06-2.81A13.57,13.57,0,0,1,12,34.91c.15-.09.37-.07.51-.17a33.59,33.59,0,0,1,8.26-3.9c1-.38,2-1,3-1.36s2.13-.63,3.17-1c1.93-.68,3.83-1.45,5.78-2.09,1.65-.55,3.38-.9,5-1.44,1.36-.45,2.65-1.11,4-1.57,1.14-.4,2.33-.64,3.5-1,.54-.14,1.06-.31,1.6-.42,1.41-.3,2.83-.52,4.22-.88s2.69-.93,4.06-1.26a18.31,18.31,0,0,1,3.3-.44,1.26,1.26,0,0,0,1.34-1.17,10.36,10.36,0,0,0,5.59-.56,9.65,9.65,0,0,1,2-.24c3.68-.62,7.34-1.29,11-1.88,3.46-.56,6.95-1,10.42-1.55,1.39-.21,2.77-.52,4.17-.72,1-.14,2.06-.18,3.09-.28.74-.07,1.47-.15,2.21-.25,2.16-.29,4.31-.64,6.47-.87,1.54-.17,3.11-.12,4.65-.29,2.15-.24,4.28-.6,6.42-.87.41-.06.84.17,1.25.12,1.84-.22,3.67-.49,5.51-.75a5.81,5.81,0,0,0,1.67-.5l-5.56-.33v-.2a25.56,25.56,0,0,0,2.77,0c1.18-.13,2.34-.4,3.5-.61l0-.39H106l0,.24,1.71.16v.22h-2.93l-.11-.18.54-.22H100.8c-.59,0-1.18,0-1.77,0-.15,0-.41,0-.43,0-.41,1.19-1,.12-1.5.13-1.07,0-2.14.06-3.22.09l-4,.11c-.45,0-.89,0-1.33.07-2.26.22-4.52.42-6.77.66-2.4.27-4.78.64-7.18.84s-4.83.2-7.24.38c-1.06.08-2.09.47-3.15.6-3.23.38-6.47.67-9.7,1.06-2.64.31-5.28.73-7.93,1-3,.36-6.08.62-9.12,1-1.11.13-2.21.37-3.32.53-2.39.34-4.77.68-7.17,1a10.48,10.48,0,0,1-1.67-.08l1.53-1.27,0-.32L13.29,16.32l0,.39,4.38.24a6.77,6.77,0,0,1-1.31.67c-1.35.32-2.7.57-4.06.84-.6.12-1.13.17-1.15-.72a6.18,6.18,0,0,0-.38-1.3l4.54-1c-.57-.23-.9-.49-1-.41-1.07.59-2-.09-3-.2-.75-.08-1.39-.1-1.44.65-.65.09-1.18.13-1.7.24A5.87,5.87,0,0,0,7,16.11c-.16.07-.26.29-.39.44.18.13.36.39.54.39.76,0,1.53-.07,2.36-.12-.92,1.24-6.34,1.51-8.38.49l2.42-.74.05.17L3.07,17l0,.33,2.47.27C4.08,15.75,1.86,15.93,0,15.24v-.45a12.66,12.66,0,0,1,2.68-.51c2.55.06,4.9-.79,7.31-1.39,2.14-.53,4.25-1.19,6.4-1.58,4.9-.89,9.83-1.63,14.74-2.45,2.67-.44,5.32-1,8-1.39s5.16-.75,7.74-1.11c4.23-.58,8.46-1.21,12.7-1.72C64.38,4.05,69.2,3.53,74,3s9.58-1,14.39-1.36C94.5,1.22,100.58.78,106.66.58c5.8-.19,11.6-.1,17.4-.06,4.3,0,8.61.08,12.9.27,4.45.19,8.88.57,13.33.84,2.83.18,5.67.3,8.51.49,4.92.34,9.84.65,14.76,1.09,4.09.37,8.19.79,12.25,1.39,5.17.76,10.32,1.68,15.47,2.61,2.12.38,4.23.89,6.3,1.47A12.92,12.92,0,0,1,210.65,10c1.22.71,1.22.94.48,2.13l.71.8a3.76,3.76,0,0,1-.89.69c-1.18.4-2.36.81-3.57,1.09-.92.2-1.53.67-1.28,1.36l-3.5.33,0,.22,3.11.31-.76,1.55c-.44-.29-.72-.61-.91-.57-.88.19-1.36-.47-2-.79a4,4,0,0,0-1.6-.6c-1.34,0-2.71.27-4,.14s-2.77-.73-4.18-.91a14.24,14.24,0,0,0-4.22-.09c-2,.35-2.72.44-4.43-.29-1.92-.81-3.95-.4-5.93-.37-.17,0-.33.26-.25.19-3.32-.85-6.49-.28-9.6-.52v.35h7.16v.29h-9.31l0-.27,1.2-.16v-.2c-.66,0-1.32-.09-2-.08-2.87,0-5.75,0-8.62.14s-5.74.22-8.61.4q-6.81.4-13.63.91-7.65.55-15.29,1.2c-3.27.27-6.53.54-9.78.95-3.78.48-7.54,1.1-11.31,1.66l-.67.43-4.17.86.41-1-4,1.09.16-.46-5.42.77.93.26v.23c-.34,0-.74.17-1,.05-2.13-.84-4.19.08-6.25.3-3,.31-5.85,1.11-8.8,1.46a5.7,5.7,0,0,0-2.78.66,1.8,1.8,0,0,1-.85.26c-4.24.36-8.15,2.11-12.31,2.82-.32,0-.6.39-.9.6ZM128,9.07v.45c2.33,0,4.67,0,7,0A4.17,4.17,0,0,0,136.09,9c.78.29.78.29,1.2-.37l-11.06-.42v.13l3.52.35,0,.15Zm-99.8,4.8.06.46c1.35-.2,2.7-.44,4.06-.58a12.84,12.84,0,0,1,2,.12,2.36,2.36,0,0,0,.75,0c1.5-.38,3-.8,4.48-1.19.57-.15,1.15-.24,1.73-.36L41.14,12ZM13.88,44.11l.08.42,9.46-2.39-.08-.29Zm6.36-31.47.14,1.82,3.36-.6,0-.34c-.88-.09-1.88.2-2.41-.86C21.23,12.52,20.65,12.64,20.24,12.64Zm16-.73c-1.81-1-3.17-.82-3.74.61Zm12.2-.58,0-.24-3,.42,0,.49c.32.13.72.46,1,.37A16.94,16.94,0,0,0,48.4,11.33Zm-.67,26.06,1.85.47,2-1-.06-.16Zm94.6-7.15-.08.44,2.5.58.07-.31C144,30.67,143.38,29.61,142.33,30.24Zm-.47,2.3-.06.39,4.37.86.06-.29ZM116.62,6.12V6H111.2v.17ZM73,21.49,73,22l2.24-.18v-.33ZM54.35,10.34l0,.47,3.6-.56L58,10ZM6.3,15.09l-.13-.32-1.78.38.74.71ZM84.16,32.36l0-.36-3.56.52,0,.18ZM72.48,8.6l0-.18L69,8.78l0,.33Zm38.59,22v-.3l-3.56.19v.11ZM39.84,29.7l.19.42,2.09-1L42,28.94Zm57.54-9-5.6.84,0,.37h3c1.57-.29,3.14-.62,4.72-.86,2.49-.38,5-.69,7.48-1l0-.4-8.54,1,0-.24.88-.29v-.18H97.56l-.67.43ZM148,16.61l16.64-.47,0-.49L148,16.11ZM37.24,41.82,26.21,44c.87.47,1.67.8,2.41,0,.21-.24.76-.22,1.16-.25.77,0,1.54,0,2.3-.06,1.44-.2,2.88-.44,4.29-.76.4-.08.72-.49,1.07-.75ZM99.56,34c.45.08,1.19.37,1.31.21.49-.67,1.1-.36,1.66-.36,1.83,0,3.67.08,5.51.12a1.94,1.94,0,0,0,.33-.07c1.28-.18,2.55-.38,3.84-.54a9.53,9.53,0,0,1,1.31,0l0-.39-13.83.52ZM98,33.67l-11.51,1v.31a12.86,12.86,0,0,0,2,.36c1.46,0,2.87-.39,4.33-.47A46.1,46.1,0,0,0,98,34ZM42,31.94a14.82,14.82,0,0,0,2.51-.46l5.14-1.28h0l2.85-1.07-.09-.28-1,.08c.09-.13.27-.44.46-.74h-.75C48.56,30.53,44.9,30.29,42,31.94ZM136.59,17.5l8.66-.69v-.3h-3l.27-.44-5,.1,0,.3h3.6l0,.13-4.57.39Zm-82,22c.31.08.65.29.93.24s.71-.47,1.1-.54c1.49-.3,3-.53,4.48-.78.33-.06.74-.24,1-.12,1.55.76,2.86-.55,4.33-.47.11,0,.23-.36.44-.69l-12.25,2ZM165.39,15.68v.47h9.24C171.57,15.35,168.48,15.75,165.39,15.68ZM135,17.07l-12.07,1,0,.39L135,17.53Zm41.73-.67,9.44.58c0-.23-.05-.42-.08-.42-2.47-.25-4.93-.5-7.4-.71a14.24,14.24,0,0,0-1.95.1ZM109.46,9.22H97.87v.44l11.56-.35Zm10.77,9-9.12,1,0,.31,9.14-.75Zm57-15.39L163.68,1.79l0,.32,13.54,1.08ZM158.31,1.47,145.25.73V1l13,.78ZM115.06,9.3l.17.34h-2.45a19.25,19.25,0,0,0,3.13.51c.3,0,1.16.17.77-.73l1.15-.17-1.72-.69ZM80.22,10.59l-5.83.59.33.91c.4-.29,1.22.35,1.35-.66l4.19-.49Zm28.4-.85h-7.48V10h7.46ZM38.78,41.94c.68.52,1,.51,3.79-.14C41.94,41,40.06,41.08,38.78,41.94ZM78,36l7.63-.88,0-.29a55.85,55.85,0,0,0-7.63.86ZM81,23.55l5.09-.86-.07-.41L81,23ZM96.82,9.43l-7.63.51,0,.33,7.63-.49Zm32.81,24-3.76-.18A3.07,3.07,0,0,0,129.63,33.45Zm33.16-32.2,7.66.56V1.5L162.81,1ZM55.12,28.65l3.64-1-.1-.4L55,28.06ZM95.91.65,103.08.3l0-.3L95.89.4ZM155.46,17h6.44v-.18h-6.44Zm30.3-13-6.12-.77,0,.34,6.12.75ZM129.82.27h5.42V.08h-5.42ZM49.66,30.2l-1.2.61.08.26,4-.95,0-.21-2.83.3ZM152.44,15.53H149l0,.16h3.47Zm1.15,0h3.51l0-.33-3.49.18Zm6.24-.15h4.32v-.22h-4.29Zm-59.41,4.75,3.85-.51,0-.33-3.87.55ZM177.46,2l-3.4-.17,0,.3,3.39.32ZM87.31,22.6l2.56-.33-.07-.47-2.54.41Zm7.57-.7-2.26.51,0,.26,3.75-.53,0-.23H94.88Zm92.7-4.76,2.94.2C188.41,16.35,188.41,16.35,187.58,17.14ZM58.19,28.24l-3.54.91.09.31,3.56-1Zm72.73-11.09,2.34-.27,0-.39-2.33.21ZM46.5,40.46c1,1,1.63.5,2.46-.29Zm-33,6.24c.85.37,1.69.89,2.83,0Z" style="fill:none"/></clipPath></defs><title>zigzag</title><g id="Layer_2" data-name="Layer 2"><g id="assets"><g id="zigzag"><g style="clip-path:url(#clip-path-zigzag)"><path class="animate" d="M0,20.08S40.67,3.73,106.54,3.73A626.46,626.46,0,0,1,211.84,13S83,4.27,9.23,44.16c0,0,74.93-28.32,164.81-6.3" transform="translate(7 3.27)" style="fill:none;stroke:#f08a20;stroke-linecap:round;stroke-linejoin:round;stroke-width:14px"/></g></g></g></g></svg>